  0
SECTION
  2
HEADER
  9
$ACADVER
  1
AC1012
  9
$DWGCODEPAGE
  3
ansi_1252
  9
$INSBASE
 10
0.0
 20
0.0
 30
0.0
  9
$EXTMIN
 10
0.0
 20
0.0
 30
0.0
  9
$EXTMAX
 10
16.5354330709
 20
11.6929133858
 30
0.0
  9
$LIMMIN
 10
0.0
 20
0.0
  9
$LIMMAX
 10
16.5354330709
 20
11.6929133858
  9
$ORTHOMODE
 70
     0
  9
$REGENMODE
 70
     1
  9
$FILLMODE
 70
     1
  9
$QTEXTMODE
 70
     0
  9
$MIRRTEXT
 70
     1
  9
$DRAGMODE
 70
     2
  9
$LTSCALE
 40
1.0
  9
$OSMODE
 70
    37
  9
$ATTMODE
 70
     1
  9
$TEXTSIZE
 40
0.125
  9
$TRACEWID
 40
0.05
  9
$TEXTSTYLE
  7
STANDARD
  9
$CLAYER
  8
0
  9
$CELTYPE
  6
BYLAYER
  9
$CECOLOR
 62
   256
  9
$CELTSCALE
 40
1.0
  9
$DELOBJ
 70
     1
  9
$DISPSILH
 70
     0
  9
$DIMSCALE
 40
1.0
  9
$DIMASZ
 40
0.13
  9
$DIMEXO
 40
0.05
  9
$DIMDLI
 40
0.38
  9
$DIMRND
 40
0.0
  9
$DIMDLE
 40
0.0
  9
$DIMEXE
 40
0.125
  9
$DIMTP
 40
0.0
  9
$DIMTM
 40
0.0
  9
$DIMTXT
 40
0.125
  9
$DIMCEN
 40
0.09
  9
$DIMTSZ
 40
0.0
  9
$DIMTOL
 70
     0
  9
$DIMLIM
 70
     0
  9
$DIMTIH
 70
     1
  9
$DIMTOH
 70
     1
  9
$DIMSE1
 70
     0
  9
$DIMSE2
 70
     0
  9
$DIMTAD
 70
     0
  9
$DIMZIN
 70
     1
  9
$DIMBLK
  1

  9
$DIMASO
 70
     1
  9
$DIMSHO
 70
     1
  9
$DIMPOST
  1

  9
$DIMAPOST
  1

  9
$DIMALT
 70
     0
  9
$DIMALTD
 70
     2
  9
$DIMALTF
 40
25.4
  9
$DIMLFAC
 40
0.5
  9
$DIMTOFL
 70
     0
  9
$DIMTVP
 40
0.0
  9
$DIMTIX
 70
     0
  9
$DIMSOXD
 70
     0
  9
$DIMSAH
 70
     0
  9
$DIMBLK1
  1

  9
$DIMBLK2
  1

  9
$DIMSTYLE
  2
STANDARD
  9
$DIMCLRD
 70
     0
  9
$DIMCLRE
 70
     0
  9
$DIMCLRT
 70
     0
  9
$DIMTFAC
 40
1.0
  9
$DIMGAP
 40
0.06
  9
$DIMJUST
 70
     0
  9
$DIMSD1
 70
     0
  9
$DIMSD2
 70
     0
  9
$DIMTOLJ
 70
     1
  9
$DIMTZIN
 70
     1
  9
$DIMALTZ
 70
     0
  9
$DIMALTTZ
 70
     0
  9
$DIMFIT
 70
     3
  9
$DIMUPT
 70
     0
  9
$DIMUNIT
 70
     2
  9
$DIMDEC
 70
     3
  9
$DIMTDEC
 70
     3
  9
$DIMALTU
 70
     2
  9
$DIMALTTD
 70
     2
  9
$DIMTXSTY
  7
STANDARD
  9
$DIMAUNIT
 70
     0
  9
$LUNITS
 70
     2
  9
$LUPREC
 70
     3
  9
$SKETCHINC
 40
0.1
  9
$FILLETRAD
 40
0.5
  9
$AUNITS
 70
     0
  9
$AUPREC
 70
     2
  9
$MENU
  1
.
  9
$ELEVATION
 40
0.0
  9
$PELEVATION
 40
0.0
  9
$THICKNESS
 40
0.0
  9
$LIMCHECK
 70
     0
  9
$CHAMFERA
 40
0.0
  9
$CHAMFERB
 40
0.0
  9
$CHAMFERC
 40
0.0
  9
$CHAMFERD
 40
0.0
  9
$SKPOLY
 70
     0
  9
$TDCREATE
 40
2459122.844535405
  9
$TDUPDATE
 40
2459122.844540718
  9
$TDINDWG
 40
0.0000000116
  9
$TDUSRTIMER
 40
0.0000000116
  9
$USRTIMER
 70
     1
  9
$ANGBASE
 50
0.0
  9
$ANGDIR
 70
     0
  9
$PDMODE
 70
     0
  9
$PDSIZE
 40
-1.0
  9
$PLINEWID
 40
0.0
  9
$COORDS
 70
     1
  9
$SPLFRAME
 70
     0
  9
$SPLINETYPE
 70
     6
  9
$SPLINESEGS
 70
     8
  9
$ATTDIA
 70
     0
  9
$ATTREQ
 70
     1
  9
$HANDLING
 70
     1
  9
$HANDSEED
  5
2C7
  9
$SURFTAB1
 70
     6
  9
$SURFTAB2
 70
     6
  9
$SURFTYPE
 70
     6
  9
$SURFU
 70
     6
  9
$SURFV
 70
     6
  9
$UCSNAME
  2

  9
$UCSORG
 10
0.0
 20
0.0
 30
0.0
  9
$UCSXDIR
 10
1.0
 20
0.0
 30
0.0
  9
$UCSYDIR
 10
0.0
 20
1.0
 30
0.0
  9
$PUCSNAME
  2

  9
$PUCSORG
 10
0.0
 20
0.0
 30
0.0
  9
$PUCSXDIR
 10
1.0
 20
0.0
 30
0.0
  9
$PUCSYDIR
 10
0.0
 20
1.0
 30
0.0
  9
$USERI1
 70
     0
  9
$USERI2
 70
     0
  9
$USERI3
 70
     0
  9
$USERI4
 70
     0
  9
$USERI5
 70
     0
  9
$USERR1
 40
0.0
  9
$USERR2
 40
0.0
  9
$USERR3
 40
0.0
  9
$USERR4
 40
0.0
  9
$USERR5
 40
0.0
  9
$WORLDVIEW
 70
     1
  9
$SHADEDGE
 70
     3
  9
$SHADEDIF
 70
    70
  9
$TILEMODE
 70
     1
  9
$MAXACTVP
 70
    64
  9
$PINSBASE
 10
0.0
 20
0.0
 30
0.0
  9
$PLIMCHECK
 70
     0
  9
$PEXTMIN
 10
1.0000000000E+20
 20
1.0000000000E+20
 30
1.0000000000E+20
  9
$PEXTMAX
 10
-1.0000000000E+20
 20
-1.0000000000E+20
 30
-1.0000000000E+20
  9
$PLIMMIN
 10
0.0
 20
0.0
  9
$PLIMMAX
 10
12.0
 20
9.0
  9
$UNITMODE
 70
     0
  9
$VISRETAIN
 70
     1
  9
$PLINEGEN
 70
     0
  9
$PSLTSCALE
 70
     1
  9
$TREEDEPTH
 70
  3020
  9
$PICKSTYLE
 70
     1
  9
$CMLSTYLE
  2
STANDARD
  9
$CMLJUST
 70
     0
  9
$CMLSCALE
 40
1.0
  9
$SAVEIMAGES
 70
     1
  0
ENDSEC
  0
SECTION
  2
CLASSES
  0
CLASS
  1
ACDBDICTIONARYWDFLT
  2
AcDbDictionaryWithDefault
  3
ObjectDBX Classes
 90
    32768
280
     0
281
     0
  0
CLASS
  1
VISUALSTYLE
  2
AcDbVisualStyle
  3
ObjectDBX Classes
 90
     4095
280
     0
281
     0
  0
CLASS
  1
MATERIAL
  2
AcDbMaterial
  3
ObjectDBX Classes
 90
     1153
280
     0
281
     0
  0
CLASS
  1
SCALE
  2
AcDbScale
  3
ObjectDBX Classes
 90
     1153
280
     0
281
     0
  0
CLASS
  1
TABLESTYLE
  2
AcDbTableStyle
  3
ObjectDBX Classes
 90
     4095
280
     0
281
     0
  0
CLASS
  1
MLEADERSTYLE
  2
AcDbMLeaderStyle
  3
ACDB_MLEADERSTYLE_CLASS
 90
     4095
280
     0
281
     0
  0
CLASS
  1
SUN
  2
AcDbSun
  3
SCENEOE
 90
     1153
280
     0
281
     0
  0
CLASS
  1
XRECORD
  2
AcDbXrecord
  3
ObjectDBX Classes
 90
    32768
280
     0
281
     0
  0
ENDSEC
  0
SECTION
  2
TABLES
  0
TABLE
  2
VPORT
  5
8
330
0
100
AcDbSymbolTable
 70
     1
  0
VPORT
  5
29
330
8
100
AcDbSymbolTableRecord
100
AcDbViewportTableRecord
  2
*ACTIVE
 70
     0
 10
0.0
 20
0.0
 11
1.0
 21
1.0
 12
8.2677165354
 22
5.8464566929
 13
0.0
 23
0.0
 14
0.5
 24
0.5
 15
0.5
 25
0.5
 16
0.0
 26
0.0
 36
1.0
 17
0.0
 27
0.0
 37
0.0
 40
11.6929133858
 41
1.4141414141
 42
50.0
 43
0.0
 44
0.0
 50
0.0
 51
0.0
 71
     0
 72
  2000
 73
     1
 74
     3
 75
     0
 76
     0
 77
     0
 78
     0
  0
ENDTAB
  0
TABLE
  2
LTYPE
  5
5
330
0
100
AcDbSymbolTable
 70
     8
  0
LTYPE
  5
14
330
5
100
AcDbSymbolTableRecord
100
AcDbLinetypeTableRecord
  2
BYBLOCK
 70
     0
  3

 72
    65
 73
     0
 40
0.0
  0
LTYPE
  5
15
330
5
100
AcDbSymbolTableRecord
100
AcDbLinetypeTableRecord
  2
BYLAYER
 70
     0
  3

 72
    65
 73
     0
 40
0.0
  0
LTYPE
  5
16
330
5
100
AcDbSymbolTableRecord
100
AcDbLinetypeTableRecord
  2
CONTINUOUS
 70
     0
  3
Solid line
 72
    65
 73
     0
 40
0.0
  0
LTYPE
  5
6E
330
5
100
AcDbSymbolTableRecord
100
AcDbLinetypeTableRecord
  2
SLD-SOLID
 70
     0
  3
SolidWorks Line Style
 72
    65
 73
     0
 40
0.0
  0
LTYPE
  5
6F
330
5
100
AcDbSymbolTableRecord
100
AcDbLinetypeTableRecord
  2
SLD-DASHED
 70
     0
  3
SolidWorks Line Style
 72
    65
 73
     2
 40
0.075
 49
0.05
 74
     0
 49
-0.025
 74
     0
  0
LTYPE
  5
70
330
5
100
AcDbSymbolTableRecord
100
AcDbLinetypeTableRecord
  2
SLD-PHANTOM
 70
     0
  3
SolidWorks Line Style
 72
    65
 73
     6
 40
0.5
 49
0.25
 74
     0
 49
-0.05
 74
     0
 49
0.05
 74
     0
 49
-0.05
 74
     0
 49
0.05
 74
     0
 49
-0.05
 74
     0
  0
LTYPE
  5
71
330
5
100
AcDbSymbolTableRecord
100
AcDbLinetypeTableRecord
  2
SLD-CHAIN
 70
     0
  3
SolidWorks Line Style
 72
    65
 73
     4
 40
0.4
 49
0.25
 74
     0
 49
-0.05
 74
     0
 49
0.05
 74
     0
 49
-0.05
 74
     0
  0
LTYPE
  5
72
330
5
100
AcDbSymbolTableRecord
100
AcDbLinetypeTableRecord
  2
SLD-CENTER
 70
     0
  3
SolidWorks Line Style
 72
    65
 73
     4
 40
0.75
 49
0.6
 74
     0
 49
-0.05
 74
     0
 49
0.05
 74
     0
 49
-0.05
 74
     0
  0
LTYPE
  5
73
330
5
100
AcDbSymbolTableRecord
100
AcDbLinetypeTableRecord
  2
SLD-STITCH
 70
     0
  3
SolidWorks Line Style
 72
    65
 73
     2
 40
0.025
 49
0.0
 74
     0
 49
-0.025
 74
     0
  0
LTYPE
  5
74
330
5
100
AcDbSymbolTableRecord
100
AcDbLinetypeTableRecord
  2
SLD-THIN-THICK-CHAIN
 70
     0
  3
SolidWorks Line Style
 72
    65
 73
     4
 40
0.4
 49
0.25
 74
     0
 49
-0.05
 74
     0
 49
0.05
 74
     0
 49
-0.05
 74
     0
  0
ENDTAB
  0
TABLE
  2
LAYER
  5
2
330
0
100
AcDbSymbolTable
 70
     2
  0
LAYER
  5
10
330
2
100
AcDbSymbolTableRecord
100
AcDbLayerTableRecord
  2
0
 70
     0
 62
     7
  6
CONTINUOUS
  0
LAYER
  5
75
330
2
100
AcDbSymbolTableRecord
100
AcDbLayerTableRecord
  2
FORMAT
 70
     0
 62
     7
  6
SLD-SOLID
  0
ENDTAB
  0
TABLE
  2
STYLE
  5
3
330
0
100
AcDbSymbolTable
 70
     6
  0
STYLE
  5
11
330
3
100
AcDbSymbolTableRecord
100
AcDbTextStyleTableRecord
  2
STANDARD
 70
     0
 40
0.0
 41
1.0
 50
0.0
 71
     0
 42
0.125
  3
txt
  4

  0
STYLE
  5
CE
330
3
100
AcDbSymbolTableRecord
100
AcDbTextStyleTableRecord
  2
SLDTEXTSTYLE0
 70
     0
 40
0.0
 41
0.75
 50
0.0
 71
     0
 42
0.125
  3
TXT
  4

  0
STYLE
  5
10A
330
3
100
AcDbSymbolTableRecord
100
AcDbTextStyleTableRecord
  2
SLDTEXTSTYLE1
 70
     0
 40
0.0
 41
0.6864493306
 50
0.0
 71
     0
 42
0.125
  3
TXT
  4

  0
STYLE
  5
12B
330
3
100
AcDbSymbolTableRecord
100
AcDbTextStyleTableRecord
  2
SLDTEXTSTYLE2
 70
     0
 40
0.0
 41
0.6875
 50
0.0
 71
     0
 42
0.125
  3
TXT
  4

  0
STYLE
  5
182
330
3
100
AcDbSymbolTableRecord
100
AcDbTextStyleTableRecord
  2
SLDTEXTSTYLE3
 70
     0
 40
0.0
 41
1.0
 50
0.0
 71
     0
 42
0.125
  3
TXT
  4

  0
STYLE
  5
277
330
3
100
AcDbSymbolTableRecord
100
AcDbTextStyleTableRecord
  2
SLDTEXTSTYLE4
 70
     0
 40
0.0
 41
0.7
 50
0.0
 71
     0
 42
0.125
  3
TXT
  4

  0
ENDTAB
  0
TABLE
  2
VIEW
  5
6
330
0
100
AcDbSymbolTable
 70
     0
  0
ENDTAB
  0
TABLE
  2
UCS
  5
7
330
0
100
AcDbSymbolTable
 70
     0
  0
ENDTAB
  0
TABLE
  2
APPID
  5
9
330
0
100
AcDbSymbolTable
 70
     1
  0
APPID
  5
12
330
9
100
AcDbSymbolTableRecord
100
AcDbRegAppTableRecord
  2
ACAD
 70
     0
  0
ENDTAB
  0
TABLE
  2
DIMSTYLE
  5
A
330
0
100
AcDbSymbolTable
 70
    13
  0
DIMSTYLE
105
27
102
{ACAD_REACTORS
330
207
102
}
330
A
100
AcDbSymbolTableRecord
100
AcDbDimStyleTableRecord
  2
STANDARD
 70
     0
  3

  4

  5

  6

  7

 40
1.0
 41
0.18
 42
0.0625
 43
0.38
 44
0.18
 45
0.0
 46
0.0
 47
0.0
 48
0.0
140
0.18
141
0.09
142
0.0
143
25.4
144
1.0
145
0.0
146
1.0
147
0.09
 71
     0
 72
     0
 73
     1
 74
     1
 75
     0
 76
     0
 77
     0
 78
     0
170
     0
171
     2
172
     0
173
     0
174
     0
175
     0
176
     0
177
     0
178
     0
270
     2
271
     4
272
     4
273
     2
274
     2
340
11
275
     0
280
     0
281
     0
282
     0
283
     1
284
     0
285
     0
286
     0
287
     3
288
     0
  0
DIMSTYLE
105
14E
102
{ACAD_REACTORS
330
14D
330
170
102
}
330
A
100
AcDbSymbolTableRecord
100
AcDbDimStyleTableRecord
  2
SLDDIMSTYLE0
 70
     0
  3

  4

  5

  6

  7

 40
1.0
 41
0.13
 42
0.0625
 43
0.38
 44
0.0
 45
0.000000001
 46
0.0
 47
0.0
 48
0.0006
140
0.125
141
0.09
142
0.0
143
25.4
144
0.5
145
0.0
146
1.0
147
0.03125
 71
     1
 72
     0
 73
     1
 74
     1
 75
     0
 76
     0
 77
     0
 78
     4
170
     0
171
     2
172
     0
173
     1
174
     0
175
     0
176
     0
177
     0
178
     0
270
     2
271
     4
272
     4
273
     2
274
     2
340
CE
275
     0
280
     0
281
     0
282
     0
283
     1
284
     4
285
     0
286
     0
287
     3
288
     0
  0
DIMSTYLE
105
161
102
{ACAD_REACTORS
330
160
102
}
330
A
100
AcDbSymbolTableRecord
100
AcDbDimStyleTableRecord
  2
SLDDIMSTYLE1
 70
     0
  3

  4

  5

  6

  7

 40
1.0
 41
0.13
 42
0.0625
 43
0.38
 44
0.0
 45
0.000000001
 46
0.0
 47
0.0
 48
0.0
140
0.125
141
0.0
142
0.0
143
25.4
144
0.5
145
0.0
146
1.0
147
0.03125
 71
     1
 72
     0
 73
     1
 74
     1
 75
     0
 76
     0
 77
     0
 78
     4
170
     0
171
     2
172
     0
173
     1
174
     0
175
     0
176
     0
177
     0
178
     0
270
     2
271
     4
272
     4
273
     2
274
     2
340
CE
275
     0
280
     0
281
     0
282
     0
283
     1
284
     0
285
     0
286
     0
287
     3
288
     0
  0
DIMSTYLE
105
183
102
{ACAD_REACTORS
330
187
330
18D
330
18E
330
216
330
217
330
218
102
}
330
A
100
AcDbSymbolTableRecord
100
AcDbDimStyleTableRecord
  2
SLDDIMSTYLE2
 70
     0
  3

  4

  5

  6
NONE
  7
NONE
 40
1.0
 41
0.0
 42
0.0625
 43
0.38
 44
0.0
 45
0.000000001
 46
0.0
 47
0.0
 48
0.0
140
0.125
141
0.09
142
0.0
143
25.4
144
1.0
145
0.0
146
1.0
147
0.03125
 71
     0
 72
     0
 73
     1
 74
     1
 75
     0
 76
     0
 77
     0
 78
     0
170
     0
171
     2
172
     0
173
     1
174
     0
175
     0
176
     0
177
     0
178
     0
270
     2
271
     0
272
     0
273
     2
274
     2
340
182
275
     0
280
     0
281
     0
282
     0
283
     1
284
     0
285
     0
286
     0
287
     3
288
     0
  0
DIMSTYLE
105
188
330
A
100
AcDbSymbolTableRecord
100
AcDbDimStyleTableRecord
  2
SLDDIMSTYLE3
 70
     0
  3

  4

  5

  6

  7

 40
1.0
 41
0.13
 42
0.0625
 43
0.38
 44
0.0
 45
0.000000001
 46
0.0
 47
0.0
 48
0.0
140
0.18
141
0.09
142
0.0
143
25.4
144
1.0
145
0.0
146
0.13
147
0.0
 71
     0
 72
     0
 73
     1
 74
     1
 75
     0
 76
     0
 77
     0
 78
     0
170
     0
171
     2
172
     0
173
     1
174
     0
175
     0
176
     0
177
     0
178
     0
270
     2
271
     0
272
     0
273
     2
274
     2
340
11
275
     0
280
     0
281
     0
282
     0
283
     1
284
     0
285
     0
286
     0
287
     3
288
     0
  0
DIMSTYLE
105
18B
102
{ACAD_REACTORS
330
18C
102
}
330
A
100
AcDbSymbolTableRecord
100
AcDbDimStyleTableRecord
  2
SLDDIMSTYLE4
 70
     0
  3

  4

  5

  6
NONE
  7
NONE
 40
1.0
 41
0.0
 42
0.0625
 43
0.38
 44
0.0
 45
0.000000001
 46
0.0
 47
0.0
 48
0.0
140
0.1377952756
141
0.09
142
0.0
143
25.4
144
1.0
145
0.0
146
1.0
147
0.0344488189
 71
     0
 72
     0
 73
     1
 74
     1
 75
     0
 76
     0
 77
     0
 78
     0
170
     0
171
     2
172
     0
173
     1
174
     0
175
     0
176
     0
177
     0
178
     0
270
     2
271
     0
272
     0
273
     2
274
     2
340
182
275
     0
280
     0
281
     0
282
     0
283
     1
284
     0
285
     0
286
     0
287
     3
288
     0
  0
DIMSTYLE
105
1C4
102
{ACAD_REACTORS
330
1C3
330
1E7
102
}
330
A
100
AcDbSymbolTableRecord
100
AcDbDimStyleTableRecord
  2
SLDDIMSTYLE5
 70
     0
  3

  4

  5

  6
NONE
  7
NONE
 40
1.0
 41
0.13
 42
0.0625
 43
0.38
 44
0.0
 45
0.000000001
 46
0.0
 47
0.0
 48
0.0
140
0.125
141
0.09
142
0.0
143
25.4
144
0.5
145
0.0
146
1.0
147
-0.03125
 71
     0
 72
     0
 73
     1
 74
     1
 75
     0
 76
     0
 77
     0
 78
     4
170
     0
171
     2
172
     0
173
     1
174
     0
175
     0
176
     0
177
     0
178
     0
270
     2
271
     3
272
     3
273
     2
274
     2
340
CE
275
     0
280
     0
281
     0
282
     0
283
     1
284
     8
285
     0
286
     0
287
     3
288
     0
  0
DIMSTYLE
105
1CF
102
{ACAD_REACTORS
330
1CE
330
1DB
330
1F1
330
1FD
102
}
330
A
100
AcDbSymbolTableRecord
100
AcDbDimStyleTableRecord
  2
SLDDIMSTYLE6
 70
     0
  3

  4

  5

  6
NONE
  7
NONE
 40
1.0
 41
0.13
 42
0.0625
 43
0.38
 44
0.0
 45
0.000000001
 46
0.0
 47
0.0
 48
0.0
140
0.125
141
0.09
142
0.0
143
25.4
144
0.5
145
0.0
146
1.0
147
-0.03125
 71
     0
 72
     0
 73
     1
 74
     1
 75
     0
 76
     0
 77
     0
 78
    12
170
     0
171
     2
172
     0
173
     1
174
     0
175
     0
176
     0
177
     0
178
     0
270
     2
271
     3
272
     3
273
     2
274
     2
340
CE
275
     0
280
     0
281
     0
282
     0
283
     1
284
     8
285
     0
286
     0
287
     3
288
     0
  0
DIMSTYLE
105
208
330
A
100
AcDbSymbolTableRecord
100
AcDbDimStyleTableRecord
  2
SLDDIMSTYLE7
 70
     0
  3

  4

  5

  6

  7

 40
1.0
 41
0.18
 42
0.0625
 43
0.38
 44
0.18
 45
0.000000001
 46
0.0
 47
0.0
 48
0.0
140
0.125
141
0.09
142
0.0
143
25.4
144
0.5
145
0.0
146
1.0
147
0.03125
 71
     0
 72
     0
 73
     1
 74
     1
 75
     0
 76
     0
 77
     0
 78
     0
170
     0
171
     2
172
     0
173
     0
174
     0
175
     0
176
     0
177
     0
178
     0
270
     2
271
     4
272
     4
273
     2
274
     2
340
CE
275
     0
280
     0
281
     0
282
     0
283
     1
284
     0
285
     0
286
     0
287
     3
288
     0
  0
DIMSTYLE
105
20A
102
{ACAD_REACTORS
330
209
102
}
330
A
100
AcDbSymbolTableRecord
100
AcDbDimStyleTableRecord
  2
SLDDIMSTYLE8
 70
     0
  3

  4

  5

  6

  7

 40
1.0
 41
0.13
 42
0.0625
 43
0.38
 44
0.0
 45
0.000000001
 46
0.0
 47
0.01
 48
0.01
140
0.125
141
0.09
142
0.0
143
25.4
144
0.5
145
0.0
146
1.0
147
0.03125
 71
     1
 72
     0
 73
     1
 74
     1
 75
     0
 76
     0
 77
     0
 78
     4
170
     0
171
     2
172
     0
173
     1
174
     0
175
     0
176
     0
177
     0
178
     0
270
     2
271
     3
272
     3
273
     2
274
     2
340
CE
275
     0
280
     0
281
     0
282
     0
283
     1
284
     0
285
     0
286
     0
287
     3
288
     0
  0
DIMSTYLE
105
234
102
{ACAD_REACTORS
330
233
102
}
330
A
100
AcDbSymbolTableRecord
100
AcDbDimStyleTableRecord
  2
SLDDIMSTYLE9
 70
     0
  3

  4

  5

  6

  7

 40
1.0
 41
0.13
 42
0.0625
 43
0.38
 44
0.0
 45
0.000000001
 46
0.0
 47
0.0098425197
 48
0.0098425197
140
0.125
141
0.0
142
0.0
143
25.4
144
0.5
145
0.0
146
1.0
147
0.03125
 71
     1
 72
     0
 73
     1
 74
     1
 75
     0
 76
     0
 77
     0
 78
    12
170
     0
171
     2
172
     0
173
     1
174
     0
175
     0
176
     0
177
     0
178
     0
270
     2
271
     3
272
     3
273
     2
274
     2
340
CE
275
     0
280
     0
281
     0
282
     0
283
     1
284
     0
285
     0
286
     0
287
     3
288
     0
  0
DIMSTYLE
105
24A
102
{ACAD_REACTORS
330
249
102
}
330
A
100
AcDbSymbolTableRecord
100
AcDbDimStyleTableRecord
  2
SLDDIMSTYLE10
 70
     0
  3

  4

  5

  6

  7

 40
1.0
 41
0.13
 42
0.0625
 43
0.38
 44
0.0
 45
0.000000001
 46
0.0
 47
0.0
 48
0.0
140
0.125
141
0.0
142
0.0
143
25.4
144
0.5
145
0.0
146
1.0
147
0.03125
 71
     0
 72
     0
 73
     1
 74
     1
 75
     0
 76
     0
 77
     0
 78
    12
170
     0
171
     2
172
     0
173
     1
174
     0
175
     0
176
     0
177
     0
178
     0
270
     2
271
     3
272
     3
273
     2
274
     2
340
CE
275
     0
280
     0
281
     0
282
     0
283
     1
284
    12
285
     0
286
     0
287
     3
288
     0
  0
DIMSTYLE
105
260
102
{ACAD_REACTORS
330
25F
102
}
330
A
100
AcDbSymbolTableRecord
100
AcDbDimStyleTableRecord
  2
SLDDIMSTYLE11
 70
     0
  3

  4

  5

  6

  7

 40
1.0
 41
0.13
 42
0.0625
 43
0.38
 44
0.0
 45
0.000000001
 46
0.0
 47
0.0039370079
 48
0.0039370079
140
0.125
141
0.0
142
0.0
143
25.4
144
0.5
145
0.0
146
1.0
147
0.03125
 71
     1
 72
     0
 73
     1
 74
     1
 75
     0
 76
     0
 77
     0
 78
     4
170
     0
171
     2
172
     0
173
     1
174
     0
175
     0
176
     0
177
     0
178
     0
270
     2
271
     3
272
     3
273
     2
274
     2
340
CE
275
     0
280
     0
281
     0
282
     0
283
     1
284
     8
285
     0
286
     0
287
     3
288
     0
  0
ENDTAB
  0
TABLE
  2
BLOCK_RECORD
  5
1
330
0
100
AcDbSymbolTable
 70
    32
  0
BLOCK_RECORD
  5
1F
330
1
100
AcDbSymbolTableRecord
100
AcDbBlockTableRecord
  2
*MODEL_SPACE
  0
BLOCK_RECORD
  5
1B
330
1
100
AcDbSymbolTableRecord
100
AcDbBlockTableRecord
  2
*PAPER_SPACE
  0
BLOCK_RECORD
  5
23
330
1
100
AcDbSymbolTableRecord
100
AcDbBlockTableRecord
  2
*PAPER_SPACE0
  0
BLOCK_RECORD
  5
B3
330
1
100
AcDbSymbolTableRecord
100
AcDbBlockTableRecord
  2
SW_NOTE_0
  0
BLOCK_RECORD
  5
D2
330
1
100
AcDbSymbolTableRecord
100
AcDbBlockTableRecord
  2
SW_SYMBOL_GTOL_SPROF
  0
BLOCK_RECORD
  5
DF
330
1
100
AcDbSymbolTableRecord
100
AcDbBlockTableRecord
  2
SW_SYMBOL_GTOL_POSI
  0
BLOCK_RECORD
  5
110
330
1
100
AcDbSymbolTableRecord
100
AcDbBlockTableRecord
  2
SW_NOTE_0_1
  0
BLOCK_RECORD
  5
11B
330
1
100
AcDbSymbolTableRecord
100
AcDbBlockTableRecord
  2
SW_NOTE_0_2
  0
BLOCK_RECORD
  5
130
330
1
100
AcDbSymbolTableRecord
100
AcDbBlockTableRecord
  2
SW_NOTE_0_3
  0
BLOCK_RECORD
  5
14F
330
1
100
AcDbSymbolTableRecord
100
AcDbBlockTableRecord
  2
_D
  0
BLOCK_RECORD
  5
162
330
1
100
AcDbSymbolTableRecord
100
AcDbBlockTableRecord
  2
_D_1
  0
BLOCK_RECORD
  5
171
330
1
100
AcDbSymbolTableRecord
100
AcDbBlockTableRecord
  2
_D_2
  0
BLOCK_RECORD
  5
184
330
1
100
AcDbSymbolTableRecord
100
AcDbBlockTableRecord
  2
_NONE
  0
BLOCK_RECORD
  5
18F
330
1
100
AcDbSymbolTableRecord
100
AcDbBlockTableRecord
  2
SW_DATUMTAG_0
  0
BLOCK_RECORD
  5
19A
330
1
100
AcDbSymbolTableRecord
100
AcDbBlockTableRecord
  2
SW_DATUMTAG_1
  0
BLOCK_RECORD
  5
1A5
330
1
100
AcDbSymbolTableRecord
100
AcDbBlockTableRecord
  2
SW_DOWELSYMBOL_0
  0
BLOCK_RECORD
  5
1C5
330
1
100
AcDbSymbolTableRecord
100
AcDbBlockTableRecord
  2
_D_3
  0
BLOCK_RECORD
  5
1D0
330
1
100
AcDbSymbolTableRecord
100
AcDbBlockTableRecord
  2
_D_4
  0
BLOCK_RECORD
  5
1DC
330
1
100
AcDbSymbolTableRecord
100
AcDbBlockTableRecord
  2
_D_5
  0
BLOCK_RECORD
  5
1E8
330
1
100
AcDbSymbolTableRecord
100
AcDbBlockTableRecord
  2
_D_6
  0
BLOCK_RECORD
  5
1F2
330
1
100
AcDbSymbolTableRecord
100
AcDbBlockTableRecord
  2
_D_7
  0
BLOCK_RECORD
  5
1FE
330
1
100
AcDbSymbolTableRecord
100
AcDbBlockTableRecord
  2
_D_8
  0
BLOCK_RECORD
  5
20B
330
1
100
AcDbSymbolTableRecord
100
AcDbBlockTableRecord
  2
_D_9
  0
BLOCK_RECORD
  5
21A
330
1
100
AcDbSymbolTableRecord
100
AcDbBlockTableRecord
  2
SW_DATUMTAG_2
  0
BLOCK_RECORD
  5
225
330
1
100
AcDbSymbolTableRecord
100
AcDbBlockTableRecord
  2
SW_DOWELSYMBOL_1
  0
BLOCK_RECORD
  5
235
330
1
100
AcDbSymbolTableRecord
100
AcDbBlockTableRecord
  2
_D_10
  0
BLOCK_RECORD
  5
24B
330
1
100
AcDbSymbolTableRecord
100
AcDbBlockTableRecord
  2
_D_11
  0
BLOCK_RECORD
  5
253
330
1
100
AcDbSymbolTableRecord
100
AcDbBlockTableRecord
  2
SW_SYMBOL_HOLE_DEPTH
  0
BLOCK_RECORD
  5
261
330
1
100
AcDbSymbolTableRecord
100
AcDbBlockTableRecord
  2
_D_12
  0
BLOCK_RECORD
  5
26A
330
1
100
AcDbSymbolTableRecord
100
AcDbBlockTableRecord
  2
SW_CENTERMARKSYMBOL_0
  0
BLOCK_RECORD
  5
27B
330
1
100
AcDbSymbolTableRecord
100
AcDbBlockTableRecord
  2
*U28
  0
BLOCK_RECORD
  5
28B
330
1
100
AcDbSymbolTableRecord
100
AcDbBlockTableRecord
  2
*U29
  0
BLOCK_RECORD
  5
29D
330
1
100
AcDbSymbolTableRecord
100
AcDbBlockTableRecord
  2
*U30
  0
BLOCK_RECORD
  5
2AD
330
1
100
AcDbSymbolTableRecord
100
AcDbBlockTableRecord
  2
*U31
  0
ENDTAB
  0
ENDSEC
  0
SECTION
  2
BLOCKS
  0
BLOCK
  5
20
330
1F
100
AcDbEntity
  8
0
100
AcDbBlockBegin
  2
*MODEL_SPACE
 70
     0
 10
0.0
 20
0.0
 30
0.0
  3
*MODEL_SPACE
  1

  0
ENDBLK
  5
21
330
1F
100
AcDbEntity
  8
0
100
AcDbBlockEnd
  0
BLOCK
  5
1C
330
1B
100
AcDbEntity
 67
     1
  8
0
100
AcDbBlockBegin
  2
*PAPER_SPACE
 70
     0
 10
0.0
 20
0.0
 30
0.0
  3
*PAPER_SPACE
  1

  0
ENDBLK
  5
1D
330
1B
100
AcDbEntity
 67
     1
  8
0
100
AcDbBlockEnd
  0
BLOCK
  5
24
330
23
100
AcDbEntity
  8
0
100
AcDbBlockBegin
  2
*PAPER_SPACE0
 70
     0
 10
0.0
 20
0.0
 30
0.0
  3
*PAPER_SPACE0
  1

  0
ENDBLK
  5
25
330
23
100
AcDbEntity
  8
0
100
AcDbBlockEnd
  0
BLOCK
  5
B4
330
B3
100
AcDbEntity
  8
0
100
AcDbBlockBegin
  2
SW_NOTE_0
 70
     0
 10
0.0
 20
0.0
 30
0.0
  3
SW_NOTE_0
  1

  0
LINE
  5
B6
330
B3
100
AcDbEntity
  8
0
  6
SLD-SOLID
 62
     0
100
AcDbLine
 10
0.0125
 20
-0.5056102225
 30
0.0
 11
0.0125
 21
-0.7556102225
 31
0.0
  0
LINE
  5
B7
330
B3
100
AcDbEntity
  8
0
  6
SLD-SOLID
 62
     0
100
AcDbLine
 10
0.0125
 20
-0.7556102225
 30
0.0
 11
1.5904035433
 21
-0.7556102225
 31
0.0
  0
LINE
  5
B8
330
B3
100
AcDbEntity
  8
0
  6
SLD-SOLID
 62
     0
100
AcDbLine
 10
1.5904035433
 20
-0.5056102225
 30
0.0
 11
0.0125
 21
-0.5056102225
 31
0.0
  0
LINE
  5
B9
330
B3
100
AcDbEntity
  8
0
  6
SLD-SOLID
 62
     0
100
AcDbLine
 10
0.0125
 20
-0.5056102225
 30
0.0
 11
0.0125
 21
-0.7556102225
 31
0.0
  0
LINE
  5
BA
330
B3
100
AcDbEntity
  8
0
  6
SLD-SOLID
 62
     0
100
AcDbLine
 10
0.0125
 20
-0.7556102225
 30
0.0
 11
0.35
 21
-0.7556102225
 31
0.0
  0
LINE
  5
BB
330
B3
100
AcDbEntity
  8
0
  6
SLD-SOLID
 62
     0
100
AcDbLine
 10
0.35
 20
-0.5056102225
 30
0.0
 11
0.0125
 21
-0.5056102225
 31
0.0
  0
LINE
  5
BC
330
B3
100
AcDbEntity
  8
0
  6
SLD-SOLID
 62
     0
100
AcDbLine
 10
0.35
 20
-0.5056102225
 30
0.0
 11
0.35
 21
-0.7556102225
 31
0.0
  0
LINE
  5
BD
330
B3
100
AcDbEntity
  8
0
  6
SLD-SOLID
 62
     0
100
AcDbLine
 10
0.7916830709
 20
-0.5056102225
 30
0.0
 11
0.7916830709
 21
-0.7556102225
 31
0.0
  0
LINE
  5
BE
330
B3
100
AcDbEntity
  8
0
  6
SLD-SOLID
 62
     0
100
AcDbLine
 10
0.7916830709
 20
-0.5056102225
 30
0.0
 11
0.7916830709
 21
-0.7556102225
 31
0.0
  0
LINE
  5
BF
330
B3
100
AcDbEntity
  8
0
  6
SLD-SOLID
 62
     0
100
AcDbLine
 10
1.3404035433
 20
-0.5056102225
 30
0.0
 11
1.3404035433
 21
-0.7556102225
 31
0.0
  0
LINE
  5
C0
330
B3
100
AcDbEntity
  8
0
  6
SLD-SOLID
 62
     0
100
AcDbLine
 10
1.5904035433
 20
-0.5056102225
 30
0.0
 11
1.5904035433
 21
-0.7556102225
 31
0.0
  0
LINE
  5
C1
330
B3
100
AcDbEntity
  8
0
  6
SLD-SOLID
 62
     0
100
AcDbLine
 10
1.5904035433
 20
-0.5056102225
 30
0.0
 11
1.5904035433
 21
-0.7556102225
 31
0.0
  0
LINE
  5
C2
330
B3
100
AcDbEntity
  8
0
  6
SLD-SOLID
 62
     0
100
AcDbLine
 10
2.7079860082
 20
-0.7806102173
 30
0.0
 11
2.7079860082
 21
-1.0306102173
 31
0.0
  0
LINE
  5
C3
330
B3
100
AcDbEntity
  8
0
  6
SLD-SOLID
 62
     0
100
AcDbLine
 10
2.7079860082
 20
-1.0306102173
 30
0.0
 11
4.4108895515
 21
-1.0306102173
 31
0.0
  0
LINE
  5
C4
330
B3
100
AcDbEntity
  8
0
  6
SLD-SOLID
 62
     0
100
AcDbLine
 10
4.4108895515
 20
-0.7806102173
 30
0.0
 11
2.7079860082
 21
-0.7806102173
 31
0.0
  0
LINE
  5
C5
330
B3
100
AcDbEntity
  8
0
  6
SLD-SOLID
 62
     0
100
AcDbLine
 10
2.7079860082
 20
-0.7806102173
 30
0.0
 11
2.7079860082
 21
-1.0306102173
 31
0.0
  0
LINE
  5
C6
330
B3
100
AcDbEntity
  8
0
  6
SLD-SOLID
 62
     0
100
AcDbLine
 10
2.7079860082
 20
-1.0306102173
 30
0.0
 11
2.9829860082
 21
-1.0306102173
 31
0.0
  0
LINE
  5
C7
330
B3
100
AcDbEntity
  8
0
  6
SLD-SOLID
 62
     0
100
AcDbLine
 10
2.9829860082
 20
-0.7806102173
 30
0.0
 11
2.7079860082
 21
-0.7806102173
 31
0.0
  0
LINE
  5
C8
330
B3
100
AcDbEntity
  8
0
  6
SLD-SOLID
 62
     0
100
AcDbLine
 10
2.9829860082
 20
-0.7806102173
 30
0.0
 11
2.9829860082
 21
-1.0306102173
 31
0.0
  0
LINE
  5
C9
330
B3
100
AcDbEntity
  8
0
  6
SLD-SOLID
 62
     0
100
AcDbLine
 10
3.612169079
 20
-0.7806102173
 30
0.0
 11
3.612169079
 21
-1.0306102173
 31
0.0
  0
LINE
  5
CA
330
B3
100
AcDbEntity
  8
0
  6
SLD-SOLID
 62
     0
100
AcDbLine
 10
3.612169079
 20
-0.7806102173
 30
0.0
 11
3.612169079
 21
-1.0306102173
 31
0.0
  0
LINE
  5
CB
330
B3
100
AcDbEntity
  8
0
  6
SLD-SOLID
 62
     0
100
AcDbLine
 10
4.1608895515
 20
-0.7806102173
 30
0.0
 11
4.1608895515
 21
-1.0306102173
 31
0.0
  0
LINE
  5
CC
330
B3
100
AcDbEntity
  8
0
  6
SLD-SOLID
 62
     0
100
AcDbLine
 10
4.4108895515
 20
-0.7806102173
 30
0.0
 11
4.4108895515
 21
-1.0306102173
 31
0.0
  0
LINE
  5
CD
330
B3
100
AcDbEntity
  8
0
  6
SLD-SOLID
 62
     0
100
AcDbLine
 10
4.4108895515
 20
-0.7806102173
 30
0.0
 11
4.4108895515
 21
-1.0306102173
 31
0.0
  0
MTEXT
  5
CF
330
B3
100
AcDbEntity
  8
0
  6
CONTINUOUS
 62
     0
100
AcDbMText
 10
0.0
 20
0.1611334675
 30
0.0
 40
0.125
 41
0.0
 71
     1
 72
     1
  1
NOTES:
  7
SLDTEXTSTYLE0
  0
MTEXT
  5
D0
330
B3
100
AcDbEntity
  8
0
  6
CONTINUOUS
 62
     0
100
AcDbMText
 10
0.0
 20
-0.1676066816
 30
0.0
 40
0.125
 41
0.0
 71
     1
 72
     1
  1
TOLERANCING PER ASME 14.5Y-2009
  7
SLDTEXTSTYLE0
  0
MTEXT
  5
D1
330
B3
100
AcDbEntity
  8
0
  6
CONTINUOUS
 62
     0
100
AcDbMText
 10
0.0
 20
-0.3319767561
 30
0.0
 40
0.125
 41
0.0
 71
     1
 72
     1
  1
MATERIAL - AISI 316
  7
SLDTEXTSTYLE0
  0
INSERT
  5
D7
330
B3
100
AcDbEntity
  8
0
  6
CONTINUOUS
 62
     0
100
AcDbBlockReference
  2
SW_SYMBOL_GTOL_SPROF
 10
0.0375
 20
-0.6939945112
 30
0.0
 41
0.0034488282
 42
0.0034488282
 43
0.0034488282
  0
MTEXT
  5
D8
330
B3
100
AcDbEntity
  8
0
  6
CONTINUOUS
 62
     0
100
AcDbMText
 10
0.409209586
 20
-0.5686954943
 30
0.0
 40
0.125
 41
0.0
 71
     1
 72
     1
  1
.020
  7
SLDTEXTSTYLE0
  0
MTEXT
  5
D9
330
B3
100
AcDbEntity
  8
0
  6
CONTINUOUS
 62
     0
100
AcDbMText
 10
0.8550511266
 20
-0.5686954943
 30
0.0
 40
0.125
 41
0.0
 71
     1
 72
     1
  1
A
  7
SLDTEXTSTYLE0
  0
MTEXT
  5
DA
330
B3
100
AcDbEntity
  8
0
  6
CONTINUOUS
 62
     0
100
AcDbMText
 10
1.0383523347
 20
-0.5686954943
 30
0.0
 40
0.125
 41
0.0
 71
     1
 72
     1
  1
-
  7
SLDTEXTSTYLE0
  0
MTEXT
  5
DB
330
B3
100
AcDbEntity
  8
0
  6
CONTINUOUS
 62
     0
100
AcDbMText
 10
1.1763089166
 20
-0.5686954943
 30
0.0
 40
0.125
 41
0.0
 71
     1
 72
     1
  1
B
  7
SLDTEXTSTYLE0
  0
MTEXT
  5
DC
330
B3
100
AcDbEntity
  8
0
  6
CONTINUOUS
 62
     0
100
AcDbMText
 10
1.3976952096
 20
-0.5686954943
 30
0.0
 40
0.125
 41
0.0
 71
     1
 72
     1
  1
C
  7
SLDTEXTSTYLE0
  0
MTEXT
  5
DD
330
B3
100
AcDbEntity
  8
0
  6
CONTINUOUS
 62
     0
100
AcDbMText
 10
1.6497786831
 20
-0.5686086992
 30
0.0
 40
0.125
 41
0.0
 71
     1
 72
     1
  1
UNLESS OTHERWISE STATED
  7
SLDTEXTSTYLE0
  0
MTEXT
  5
DE
330
B3
100
AcDbEntity
  8
0
  6
CONTINUOUS
 62
     0
100
AcDbMText
 10
0.0
 20
-0.843608694
 30
0.0
 40
0.125
 41
0.0
 71
     1
 72
     1
  1
ALL FEATURES OF SIZE AND HOLES
  7
SLDTEXTSTYLE0
  0
INSERT
  5
E5
330
B3
100
AcDbEntity
  8
0
  6
CONTINUOUS
 62
     0
100
AcDbBlockReference
  2
SW_SYMBOL_GTOL_POSI
 10
2.7329860082
 20
-0.968994504
 30
0.0
 41
0.0034488281
 42
0.0034488281
 43
0.0034488281
  0
MTEXT
  5
E6
330
B3
100
AcDbEntity
  8
0
  6
CONTINUOUS
 62
     0
100
AcDbMText
 10
3.0017360082
 20
-0.8467083284
 30
0.0
 40
0.1062992151
 41
0.0
 71
     1
 72
     1
  1
%%c
  7
SLDTEXTSTYLE0
  0
MTEXT
  5
E7
330
B3
100
AcDbEntity
  8
0
  6
CONTINUOUS
 62
     0
100
AcDbMText
 10
3.2234455941
 20
-0.8436954891
 30
0.0
 40
0.125
 41
0.0
 71
     1
 72
     1
  1
.010
  7
SLDTEXTSTYLE0
  0
MTEXT
  5
E8
330
B3
100
AcDbEntity
  8
0
  6
CONTINUOUS
 62
     0
100
AcDbMText
 10
3.6755371348
 20
-0.8436954891
 30
0.0
 40
0.125
 41
0.0
 71
     1
 72
     1
  1
A
  7
SLDTEXTSTYLE0
  0
MTEXT
  5
E9
330
B3
100
AcDbEntity
  8
0
  6
CONTINUOUS
 62
     0
100
AcDbMText
 10
3.8588383429
 20
-0.8436954891
 30
0.0
 40
0.125
 41
0.0
 71
     1
 72
     1
  1
-
  7
SLDTEXTSTYLE0
  0
MTEXT
  5
EA
330
B3
100
AcDbEntity
  8
0
  6
CONTINUOUS
 62
     0
100
AcDbMText
 10
3.9967949248
 20
-0.8436954891
 30
0.0
 40
0.125
 41
0.0
 71
     1
 72
     1
  1
B
  7
SLDTEXTSTYLE0
  0
MTEXT
  5
EB
330
B3
100
AcDbEntity
  8
0
  6
CONTINUOUS
 62
     0
100
AcDbMText
 10
4.2181812178
 20
-0.8436954891
 30
0.0
 40
0.125
 41
0.0
 71
     1
 72
     1
  1
C
  7
SLDTEXTSTYLE0
  0
MTEXT
  5
EC
330
B3
100
AcDbEntity
  8
0
  6
CONTINUOUS
 62
     0
100
AcDbMText
 10
4.470264754
 20
-0.843608694
 30
0.0
 40
0.125
 41
0.0
 71
     1
 72
     1
  1
UNLESS OTHERWISE STATED
  7
SLDTEXTSTYLE0
  0
ENDBLK
  5
B5
330
B3
100
AcDbEntity
  8
0
100
AcDbBlockEnd
  0
BLOCK
  5
D3
330
D2
100
AcDbEntity
  8
0
100
AcDbBlockBegin
  2
SW_SYMBOL_GTOL_SPROF
 70
     0
 10
0.0
 20
0.0
 30
0.0
  3
SW_SYMBOL_GTOL_SPROF
  1

  0
ARC
  5
D5
330
D2
100
AcDbEntity
  8
0
  6
CONTINUOUS
 62
     0
100
AcDbCircle
 10
39.3700787402
 20
0.0
 30
0.0
 40
39.37007874015748
100
AcDbArc
 50
0.0
 51
180.0
  0
LINE
  5
D6
330
D2
100
AcDbEntity
  8
0
  6
CONTINUOUS
 62
     0
100
AcDbLine
 10
0.0
 20
0.0
 30
0.0
 11
78.7401574803
 21
0.0
 31
0.0
  0
ENDBLK
  5
D4
330
D2
100
AcDbEntity
  8
0
100
AcDbBlockEnd
  0
BLOCK
  5
E0
330
DF
100
AcDbEntity
  8
0
100
AcDbBlockBegin
  2
SW_SYMBOL_GTOL_POSI
 70
     0
 10
0.0
 20
0.0
 30
0.0
  3
SW_SYMBOL_GTOL_POSI
  1

  0
CIRCLE
  5
E2
330
DF
100
AcDbEntity
  8
0
  6
CONTINUOUS
 62
     0
100
AcDbCircle
 10
29.5275590551
 20
19.6850393701
 30
0.0
 40
19.68503937007874
  0
LINE
  5
E3
330
DF
100
AcDbEntity
  8
0
  6
CONTINUOUS
 62
     0
100
AcDbLine
 10
0.0
 20
19.6850393701
 30
0.0
 11
59.0551181102
 21
19.6850393701
 31
0.0
  0
LINE
  5
E4
330
DF
100
AcDbEntity
  8
0
  6
CONTINUOUS
 62
     0
100
AcDbLine
 10
29.5275590551
 20
-9.842519685
 30
0.0
 11
29.5275590551
 21
49.2125984252
 31
0.0
  0
ENDBLK
  5
E1
330
DF
100
AcDbEntity
  8
0
100
AcDbBlockEnd
  0
BLOCK
  5
111
330
110
100
AcDbEntity
  8
0
100
AcDbBlockBegin
  2
SW_NOTE_0_1
 70
     0
 10
0.0
 20
0.0
 30
0.0
  3
SW_NOTE_0_1
  1

  0
MTEXT
  5
113
330
110
100
AcDbEntity
  8
0
  6
CONTINUOUS
 62
     0
100
AcDbMText
 10
0.0
 20
0.0761260476
 30
0.0
 40
0.0590551181
 41
0.0
 71
     1
 72
     1
  1
UNLESS OTHERWISE SPECIFIED:
  7
SLDTEXTSTYLE0
  0
MTEXT
  5
114
330
110
100
AcDbEntity
  8
0
  6
CONTINUOUS
 62
     0
100
AcDbMText
 10
0.0
 20
-0.022299147
 30
0.0
 40
0.0590551181
 41
0.0
 71
     1
 72
     1
  1
DIMENSIONS ARE IN MILLIMETERS
  7
SLDTEXTSTYLE0
  0
MTEXT
  5
115
330
110
100
AcDbEntity
  8
0
  6
CONTINUOUS
 62
     0
100
AcDbMText
 10
0.0
 20
-0.1207243417
 30
0.0
 40
0.0590551181
 41
0.0
 71
     1
 72
     1
  1
SURFACE FINISH:
  7
SLDTEXTSTYLE0
  0
MTEXT
  5
116
330
110
100
AcDbEntity
  8
0
  6
CONTINUOUS
 62
     0
100
AcDbMText
 10
0.0
 20
-0.2191495363
 30
0.0
 40
0.0590551181
 41
0.0
 71
     1
 72
     1
  1
TOLERANCES:
  7
SLDTEXTSTYLE0
  0
MTEXT
  5
117
330
110
100
AcDbEntity
  8
0
  6
CONTINUOUS
 62
     0
100
AcDbMText
 10
0.0664370079
 20
-0.317574731
 30
0.0
 40
0.0590551181
 41
0.0
 71
     1
 72
     1
  1
LINEAR:
  7
SLDTEXTSTYLE0
  0
MTEXT
  5
118
330
110
100
AcDbEntity
  8
0
  6
CONTINUOUS
 62
     0
100
AcDbMText
 10
0.0664370079
 20
-0.4159999256
 30
0.0
 40
0.0590551181
 41
0.0
 71
     1
 72
     1
  1
ANGULAR:
  7
SLDTEXTSTYLE0
  0
ENDBLK
  5
112
330
110
100
AcDbEntity
  8
0
100
AcDbBlockEnd
  0
BLOCK
  5
11C
330
11B
100
AcDbEntity
  8
0
100
AcDbBlockBegin
  2
SW_NOTE_0_2
 70
     0
 10
0.0
 20
0.0
 30
0.0
  3
SW_NOTE_0_2
  1

  0
MTEXT
  5
11E
330
11B
100
AcDbEntity
  8
0
  6
CONTINUOUS
 62
     0
100
AcDbMText
 10
0.0
 20
0.0761260476
 30
0.0
 40
0.0590551181
 41
0.0
 71
     1
 72
     1
  1
DEBURR AND
  7
SLDTEXTSTYLE0
  0
MTEXT
  5
11F
330
11B
100
AcDbEntity
  8
0
  6
CONTINUOUS
 62
     0
100
AcDbMText
 10
0.0
 20
-0.022299147
 30
0.0
 40
0.0590551181
 41
0.0
 71
     1
 72
     1
  1
BREAK SHARP
  7
SLDTEXTSTYLE0
  0
MTEXT
  5
120
330
11B
100
AcDbEntity
  8
0
  6
CONTINUOUS
 62
     0
100
AcDbMText
 10
0.0
 20
-0.1207243417
 30
0.0
 40
0.0590551181
 41
0.0
 71
     1
 72
     1
  1
EDGES
  7
SLDTEXTSTYLE0
  0
ENDBLK
  5
11D
330
11B
100
AcDbEntity
  8
0
100
AcDbBlockEnd
  0
BLOCK
  5
131
330
130
100
AcDbEntity
  8
0
100
AcDbBlockBegin
  2
SW_NOTE_0_3
 70
     0
 10
0.0
 20
0.0
 30
0.0
  3
SW_NOTE_0_3
  1

  0
MTEXT
  5
133
330
130
100
AcDbEntity
  8
0
  6
CONTINUOUS
 62
     0
100
AcDbMText
 10
0.98828125
 20
0.3222669349
 30
0.0
 40
0.25
 41
0.0
 71
     2
 72
     1
  1
LAS AZIMUTH
  7
SLDTEXTSTYLE0
  0
MTEXT
  5
134
330
130
100
AcDbEntity
  8
0
  6
CONTINUOUS
 62
     0
100
AcDbMText
 10
0.9917968956
 20
0.0028224852
 30
0.0
 40
0.25
 41
0.0
 71
     2
 72
     1
  1
PIVOT ARM
  7
SLDTEXTSTYLE0
  0
ENDBLK
  5
132
330
130
100
AcDbEntity
  8
0
100
AcDbBlockEnd
  0
BLOCK
  5
150
330
14F
100
AcDbEntity
  8
0
100
AcDbBlockBegin
  2
_D
 70
     0
 10
0.0
 20
0.0
 30
0.0
  3
_D
  1

  0
SOLID
  5
152
330
14F
100
AcDbEntity
  8
0
  6
SLD-SOLID
 62
     7
100
AcDbTrace
 10
10.3598985579
 20
7.5777347791
 30
0.0
 11
10.3798985579
 21
7.7077347791
 31
0.0
 12
10.3398985579
 22
7.7077347791
 32
0.0
 13
10.3398985579
 23
7.7077347791
 33
0.0
  0
SOLID
  5
153
330
14F
100
AcDbEntity
  8
0
  6
SLD-SOLID
 62
     7
100
AcDbTrace
 10
10.3598985579
 20
8.2076560389
 30
0.0
 11
10.3398985579
 21
8.0776560389
 31
0.0
 12
10.3798985579
 22
8.0776560389
 32
0.0
 13
10.3798985579
 23
8.0776560389
 33
0.0
  0
LINE
  5
154
330
14F
100
AcDbEntity
  8
0
  6
SLD-SOLID
 62
     7
100
AcDbLine
 10
9.5437568256
 20
7.5777347791
 30
0.0
 11
10.4848985579
 21
7.5777347791
 31
0.0
  0
LINE
  5
155
330
14F
100
AcDbEntity
  8
0
  6
SLD-SOLID
 62
     7
100
AcDbLine
 10
9.5437568256
 20
8.2076560389
 30
0.0
 11
10.4848985579
 21
8.2076560389
 31
0.0
  0
LINE
  5
156
330
14F
100
AcDbEntity
  8
0
  6
SLD-SOLID
 62
     7
100
AcDbLine
 10
10.6098985579
 20
9.4674985586
 30
0.0
 11
10.3598985579
 21
9.4674985586
 31
0.0
  0
LINE
  5
157
330
14F
100
AcDbEntity
  8
0
  6
SLD-SOLID
 62
     7
100
AcDbLine
 10
10.3598985579
 20
9.4674985586
 30
0.0
 11
10.3598985579
 21
8.2076560389
 31
0.0
  0
LINE
  5
158
330
14F
100
AcDbEntity
  8
0
  6
SLD-SOLID
 62
     7
100
AcDbLine
 10
10.3598985579
 20
7.5777347791
 30
0.0
 11
10.3598985579
 21
8.2076560389
 31
0.0
  0
MTEXT
  5
159
330
14F
100
AcDbEntity
  8
0
  6
SLD-SOLID
 62
     7
100
AcDbMText
 10
10.6098985579
 20
9.5372257931
 30
0.0
 40
0.125
 41
0.0
 71
     1
 72
     1
  1
%%c
  7
SLDTEXTSTYLE0
  0
MTEXT
  5
15A
330
14F
100
AcDbEntity
  8
0
  6
SLD-SOLID
 62
     7
100
AcDbMText
 10
10.7984141785
 20
9.5391355154
 30
0.0
 40
0.125
 41
0.0
 71
     1
 72
     1
  1
.3150
  7
SLDTEXTSTYLE0
  0
MTEXT
  5
15B
330
14F
100
AcDbEntity
  8
0
  6
SLD-SOLID
 62
     7
100
AcDbMText
 10
11.2609141888
 20
9.5391355154
 30
0.0
 40
0.125
 41
0.0
 71
     1
 72
     1
  1
h7
  7
SLDTEXTSTYLE0
  0
MTEXT
  5
15C
330
14F
100
AcDbEntity
  8
0
  6
SLD-SOLID
 62
     7
100
AcDbMText
 10
11.5003238983
 20
9.628632033
 30
0.0
 40
0.125
 41
0.0
 71
     1
 72
     1
  1
+
  7
SLDTEXTSTYLE0
  0
MTEXT
  5
15D
330
14F
100
AcDbEntity
  8
0
  6
SLD-SOLID
 62
     7
100
AcDbMText
 10
11.523153761
 20
9.4670000835
 30
0.0
 40
0.125
 41
0.0
 71
     1
 72
     1
  1
-
  7
SLDTEXTSTYLE0
  0
MTEXT
  5
15E
330
14F
100
AcDbEntity
  8
0
  6
SLD-SOLID
 62
     7
100
AcDbMText
 10
11.6013655777
 20
9.628632033
 30
0.0
 40
0.125
 41
0.0
 71
     1
 72
     1
  1
.0000
  7
SLDTEXTSTYLE0
  0
MTEXT
  5
15F
330
14F
100
AcDbEntity
  8
0
  6
SLD-SOLID
 62
     7
100
AcDbMText
 10
11.6013655777
 20
9.4670000835
 30
0.0
 40
0.125
 41
0.0
 71
     1
 72
     1
  1
.0006
  7
SLDTEXTSTYLE0
  0
ENDBLK
  5
151
330
14F
100
AcDbEntity
  8
0
100
AcDbBlockEnd
  0
BLOCK
  5
163
330
162
100
AcDbEntity
  8
0
100
AcDbBlockBegin
  2
_D_1
 70
     0
 10
0.0
 20
0.0
 30
0.0
  3
_D_1
  1

  0
SOLID
  5
165
330
162
100
AcDbEntity
  8
0
  6
SLD-SOLID
 62
     7
100
AcDbTrace
 10
7.6652571971
 20
8.0016527576
 30
0.0
 11
7.7464050899
 21
8.1051661359
 31
0.0
 12
7.7115387384
 22
8.1247706642
 32
0.0
 13
7.7115387384
 23
8.1247706642
 33
0.0
  0
LINE
  5
166
330
162
100
AcDbEntity
  8
0
  6
SLD-SOLID
 62
     7
100
AcDbLine
 10
7.6652571971
 20
8.0016527576
 30
0.0
 11
8.8386471293
 21
10.0885086713
 31
0.0
  0
LINE
  5
167
330
162
100
AcDbEntity
  8
0
  6
SLD-SOLID
 62
     7
100
AcDbLine
 10
8.8386471293
 20
10.0885086713
 30
0.0
 11
9.0886471293
 21
10.0885086713
 31
0.0
  0
MTEXT
  5
168
330
162
100
AcDbEntity
  8
0
  6
SLD-SOLID
 62
     7
100
AcDbMText
 10
9.0886471293
 20
10.1582359058
 30
0.0
 40
0.125
 41
0.0
 71
     1
 72
     1
  1
%%c
  7
SLDTEXTSTYLE0
  0
MTEXT
  5
169
330
162
100
AcDbEntity
  8
0
  6
SLD-SOLID
 62
     7
100
AcDbMText
 10
9.3240377499
 20
10.1601456281
 30
0.0
 40
0.125
 41
0.0
 71
     1
 72
     1
  1
.1250
  7
SLDTEXTSTYLE0
  0
MTEXT
  5
16A
330
162
100
AcDbEntity
  8
0
  6
SLD-SOLID
 62
     7
100
AcDbMText
 10
9.7858432701
 20
10.1601456281
 30
0.0
 40
0.125
 41
0.0
 71
     1
 72
     1
  1
H7
  7
SLDTEXTSTYLE0
  0
MTEXT
  5
16B
330
162
100
AcDbEntity
  8
0
  6
SLD-SOLID
 62
     7
100
AcDbMText
 10
10.0375794005
 20
10.2496421457
 30
0.0
 40
0.125
 41
0.0
 71
     1
 72
     1
  1
+
  7
SLDTEXTSTYLE0
  0
MTEXT
  5
16C
330
162
100
AcDbEntity
  8
0
  6
SLD-SOLID
 62
     7
100
AcDbMText
 10
10.0604092632
 20
10.0880101962
 30
0.0
 40
0.125
 41
0.0
 71
     1
 72
     1
  1
-
  7
SLDTEXTSTYLE0
  0
MTEXT
  5
16D
330
162
100
AcDbEntity
  8
0
  6
SLD-SOLID
 62
     7
100
AcDbMText
 10
10.1386210799
 20
10.2496421457
 30
0.0
 40
0.125
 41
0.0
 71
     1
 72
     1
  1
.0005
  7
SLDTEXTSTYLE0
  0
MTEXT
  5
16E
330
162
100
AcDbEntity
  8
0
  6
SLD-SOLID
 62
     7
100
AcDbMText
 10
10.1386210799
 20
10.0880101962
 30
0.0
 40
0.125
 41
0.0
 71
     1
 72
     1
  1
.0000
  7
SLDTEXTSTYLE0
  0
MTEXT
  5
16F
330
162
100
AcDbEntity
  8
0
  6
SLD-SOLID
 62
     7
100
AcDbMText
 10
10.6011211453
 20
10.1601456281
 30
0.0
 40
0.125
 41
0.0
 71
     1
 72
     1
  1
THRU ALL
  7
SLDTEXTSTYLE0
  0
ENDBLK
  5
164
330
162
100
AcDbEntity
  8
0
100
AcDbBlockEnd
  0
BLOCK
  5
172
330
171
100
AcDbEntity
  8
0
100
AcDbBlockBegin
  2
_D_2
 70
     0
 10
0.0
 20
0.0
 30
0.0
  3
_D_2
  1

  0
SOLID
  5
174
330
171
100
AcDbEntity
  8
0
  6
SLD-SOLID
 62
     7
100
AcDbTrace
 10
5.9110796603
 20
7.5777347791
 30
0.0
 11
5.9310796603
 21
7.7077347791
 31
0.0
 12
5.8910796603
 22
7.7077347791
 32
0.0
 13
5.8910796603
 23
7.7077347791
 33
0.0
  0
SOLID
  5
175
330
171
100
AcDbEntity
  8
0
  6
SLD-SOLID
 62
     7
100
AcDbTrace
 10
5.9110796603
 20
8.2076560389
 30
0.0
 11
5.8910796603
 21
8.0776560389
 31
0.0
 12
5.9310796603
 22
8.0776560389
 32
0.0
 13
5.9310796603
 23
8.0776560389
 33
0.0
  0
LINE
  5
176
330
171
100
AcDbEntity
  8
0
  6
SLD-SOLID
 62
     7
100
AcDbLine
 10
6.2547804477
 20
7.5777347791
 30
0.0
 11
5.7860796603
 21
7.5777347791
 31
0.0
  0
LINE
  5
177
330
171
100
AcDbEntity
  8
0
  6
SLD-SOLID
 62
     7
100
AcDbLine
 10
6.2547804477
 20
8.2076560389
 30
0.0
 11
5.7860796603
 21
8.2076560389
 31
0.0
  0
LINE
  5
178
330
171
100
AcDbEntity
  8
0
  6
SLD-SOLID
 62
     7
100
AcDbLine
 10
5.6610796603
 20
7.1969009204
 30
0.0
 11
5.9110796603
 21
7.1969009204
 31
0.0
  0
LINE
  5
179
330
171
100
AcDbEntity
  8
0
  6
SLD-SOLID
 62
     7
100
AcDbLine
 10
5.9110796603
 20
7.1969009204
 30
0.0
 11
5.9110796603
 21
7.5777347791
 31
0.0
  0
LINE
  5
17A
330
171
100
AcDbEntity
  8
0
  6
SLD-SOLID
 62
     7
100
AcDbLine
 10
5.9110796603
 20
7.5777347791
 30
0.0
 11
5.9110796603
 21
8.2076560389
 31
0.0
  0
MTEXT
  5
17B
330
171
100
AcDbEntity
  8
0
  6
SLD-SOLID
 62
     7
100
AcDbMText
 10
4.2539876485
 20
7.2666281549
 30
0.0
 40
0.125
 41
0.0
 71
     1
 72
     1
  1
%%c
  7
SLDTEXTSTYLE0
  0
MTEXT
  5
17C
330
171
100
AcDbEntity
  8
0
  6
SLD-SOLID
 62
     7
100
AcDbMText
 10
4.4425032691
 20
7.2685378772
 30
0.0
 40
0.125
 41
0.0
 71
     1
 72
     1
  1
.3150
  7
SLDTEXTSTYLE0
  0
MTEXT
  5
17D
330
171
100
AcDbEntity
  8
0
  6
SLD-SOLID
 62
     7
100
AcDbMText
 10
4.9050032794
 20
7.2685378772
 30
0.0
 40
0.125
 41
0.0
 71
     1
 72
     1
  1
h7
  7
SLDTEXTSTYLE0
  0
MTEXT
  5
17E
330
171
100
AcDbEntity
  8
0
  6
SLD-SOLID
 62
     7
100
AcDbMText
 10
5.1444129889
 20
7.3580343948
 30
0.0
 40
0.125
 41
0.0
 71
     1
 72
     1
  1
+
  7
SLDTEXTSTYLE0
  0
MTEXT
  5
17F
330
171
100
AcDbEntity
  8
0
  6
SLD-SOLID
 62
     7
100
AcDbMText
 10
5.1672428516
 20
7.1964024453
 30
0.0
 40
0.125
 41
0.0
 71
     1
 72
     1
  1
-
  7
SLDTEXTSTYLE0
  0
MTEXT
  5
180
330
171
100
AcDbEntity
  8
0
  6
SLD-SOLID
 62
     7
100
AcDbMText
 10
5.2454546683
 20
7.3580343948
 30
0.0
 40
0.125
 41
0.0
 71
     1
 72
     1
  1
.0000
  7
SLDTEXTSTYLE0
  0
MTEXT
  5
181
330
171
100
AcDbEntity
  8
0
  6
SLD-SOLID
 62
     7
100
AcDbMText
 10
5.2454546683
 20
7.1964024453
 30
0.0
 40
0.125
 41
0.0
 71
     1
 72
     1
  1
.0006
  7
SLDTEXTSTYLE0
  0
ENDBLK
  5
173
330
171
100
AcDbEntity
  8
0
100
AcDbBlockEnd
  0
BLOCK
  5
185
330
184
100
AcDbEntity
  8
0
100
AcDbBlockBegin
  2
_NONE
 70
     0
 10
0.0
 20
0.0
 30
0.0
  3
_NONE
  1

  0
ENDBLK
  5
186
330
184
100
AcDbEntity
  8
0
100
AcDbBlockEnd
  0
BLOCK
  5
190
330
18F
100
AcDbEntity
  8
0
100
AcDbBlockBegin
  2
SW_DATUMTAG_0
 70
     0
 10
0.0
 20
0.0
 30
0.0
  3
SW_DATUMTAG_0
  1

  0
LINE
  5
192
330
18F
100
AcDbEntity
  8
0
  6
SLD-SOLID
 62
     0
100
AcDbLine
 10
-0.3986921799
 20
0.0992187392
 30
0.0
 11
-0.0633680557
 21
0.0992187392
 31
0.0
  0
LINE
  5
193
330
18F
100
AcDbEntity
  8
0
  6
SLD-SOLID
 62
     0
100
AcDbLine
 10
-0.0633680557
 20
-0.0257812608
 30
0.0
 11
0.1866319443
 21
-0.0257812608
 31
0.0
  0
LINE
  5
194
330
18F
100
AcDbEntity
  8
0
  6
SLD-SOLID
 62
     0
100
AcDbLine
 10
0.1866319443
 20
-0.0257812608
 30
0.0
 11
0.1866319443
 21
0.2242187392
 31
0.0
  0
LINE
  5
195
330
18F
100
AcDbEntity
  8
0
  6
SLD-SOLID
 62
     0
100
AcDbLine
 10
0.1866319443
 20
0.2242187392
 30
0.0
 11
-0.0633680557
 21
0.2242187392
 31
0.0
  0
LINE
  5
196
330
18F
100
AcDbEntity
  8
0
  6
SLD-SOLID
 62
     0
100
AcDbLine
 10
-0.0633680557
 20
0.2242187392
 30
0.0
 11
-0.0633680557
 21
-0.0257812608
 31
0.0
  0
MTEXT
  5
197
330
18F
100
AcDbEntity
  8
0
  6
CONTINUOUS
 62
     0
100
AcDbMText
 10
0.0
 20
0.1611334675
 30
0.0
 40
0.125
 41
0.0
 71
     1
 72
     1
  1
A
  7
SLDTEXTSTYLE0
  0
SOLID
  5
198
330
18F
100
AcDbEntity
  8
0
  6
SLD-SOLID
 62
     0
100
AcDbTrace
 10
-0.3986921799
 20
0.1617187392
 30
0.0
 11
-0.3986921799
 21
0.0367187392
 31
0.0
 12
-0.2736921799
 22
0.0992187392
 32
0.0
 13
-0.2736921799
 23
0.0992187392
 33
0.0
  0
ENDBLK
  5
191
330
18F
100
AcDbEntity
  8
0
100
AcDbBlockEnd
  0
BLOCK
  5
19B
330
19A
100
AcDbEntity
  8
0
100
AcDbBlockBegin
  2
SW_DATUMTAG_1
 70
     0
 10
0.0
 20
0.0
 30
0.0
  3
SW_DATUMTAG_1
  1

  0
LINE
  5
19D
330
19A
100
AcDbEntity
  8
0
  6
SLD-SOLID
 62
     0
100
AcDbLine
 10
0.5526993523
 20
0.0992187392
 30
0.0
 11
0.1728298629
 21
0.0992187392
 31
0.0
  0
LINE
  5
19E
330
19A
100
AcDbEntity
  8
0
  6
SLD-SOLID
 62
     0
100
AcDbLine
 10
-0.0771701371
 20
-0.0257812608
 30
0.0
 11
0.1728298629
 21
-0.0257812608
 31
0.0
  0
LINE
  5
19F
330
19A
100
AcDbEntity
  8
0
  6
SLD-SOLID
 62
     0
100
AcDbLine
 10
0.1728298629
 20
-0.0257812608
 30
0.0
 11
0.1728298629
 21
0.2242187392
 31
0.0
  0
LINE
  5
1A0
330
19A
100
AcDbEntity
  8
0
  6
SLD-SOLID
 62
     0
100
AcDbLine
 10
0.1728298629
 20
0.2242187392
 30
0.0
 11
-0.0771701371
 21
0.2242187392
 31
0.0
  0
LINE
  5
1A1
330
19A
100
AcDbEntity
  8
0
  6
SLD-SOLID
 62
     0
100
AcDbLine
 10
-0.0771701371
 20
0.2242187392
 30
0.0
 11
-0.0771701371
 21
-0.0257812608
 31
0.0
  0
MTEXT
  5
1A2
330
19A
100
AcDbEntity
  8
0
  6
CONTINUOUS
 62
     0
100
AcDbMText
 10
0.0
 20
0.1611334675
 30
0.0
 40
0.125
 41
0.0
 71
     1
 72
     1
  1
B
  7
SLDTEXTSTYLE0
  0
SOLID
  5
1A3
330
19A
100
AcDbEntity
  8
0
  6
SLD-SOLID
 62
     0
100
AcDbTrace
 10
0.5526993523
 20
0.1617187392
 30
0.0
 11
0.5526993523
 21
0.0367187392
 31
0.0
 12
0.4276993523
 22
0.0992187392
 32
0.0
 13
0.4276993523
 23
0.0992187392
 33
0.0
  0
ENDBLK
  5
19C
330
19A
100
AcDbEntity
  8
0
100
AcDbBlockEnd
  0
BLOCK
  5
1A6
330
1A5
100
AcDbEntity
  8
0
100
AcDbBlockBegin
  2
SW_DOWELSYMBOL_0
 70
     0
 10
0.0
 20
0.0
 30
0.0
  3
SW_DOWELSYMBOL_0
  1

  0
CIRCLE
  5
1A8
330
1A5
100
AcDbEntity
  8
0
  6
CONTINUOUS
 62
     0
100
AcDbCircle
 10
0.0
 20
0.0
 30
0.0
 40
0.1249999999999993
  0
INSERT
  5
1A9
330
1A5
100
AcDbEntity
  8
0
  6
CONTINUOUS
 62
     0
100
AcDbBlockReference
  2
*U28
 10
0.0
 20
0.0
 30
0.0
  0
INSERT
  5
1AA
330
1A5
100
AcDbEntity
  8
0
  6
CONTINUOUS
 62
     0
100
AcDbBlockReference
  2
*U29
 10
0.0
 20
0.0
 30
0.0
  0
ENDBLK
  5
1A7
330
1A5
100
AcDbEntity
  8
0
100
AcDbBlockEnd
  0
BLOCK
  5
1C6
330
1C5
100
AcDbEntity
  8
0
100
AcDbBlockBegin
  2
_D_3
 70
     0
 10
0.0
 20
0.0
 30
0.0
  3
_D_3
  1

  0
LINE
  5
1C8
330
1C5
100
AcDbEntity
  8
0
  6
SLD-SOLID
 62
     7
100
AcDbLine
 10
6.4039992007
 20
3.0446113351
 30
0.0
 11
6.2055616947
 21
3.0446113351
 31
0.0
  0
LINE
  5
1C9
330
1C5
100
AcDbEntity
  8
0
  6
SLD-SOLID
 62
     7
100
AcDbLine
 10
6.2055616947
 20
3.0446113351
 30
0.0
 11
6.2055616947
 21
3.4440471059
 31
0.0
  0
LINE
  5
1CA
330
1C5
100
AcDbEntity
  8
0
  6
SLD-SOLID
 62
     7
100
AcDbLine
 10
6.2055616947
 20
3.4440471059
 30
0.0
 11
6.4039992007
 21
3.4440471059
 31
0.0
  0
LINE
  5
1CB
330
1C5
100
AcDbEntity
  8
0
  6
SLD-SOLID
 62
     7
100
AcDbLine
 10
6.4039992007
 20
3.4440471059
 30
0.0
 11
6.4039992007
 21
3.0446113351
 31
0.0
  0
LINE
  5
1CC
330
1C5
100
AcDbEntity
  8
0
  6
SLD-SOLID
 62
     7
100
AcDbLine
 10
6.3047804477
 20
4.1675155085
 30
0.0
 11
6.3047804477
 21
3.4567424088
 31
0.0
  0
MTEXT
  5
1CD
330
1C5
100
AcDbEntity
  8
0
  6
SLD-SOLID
 62
     7
100
AcDbMText
 10
6.2428657195
 20
3.082697271
 30
0.0
 40
0.125
 41
0.0
 71
     1
 72
     1
  1
.000
  7
SLDTEXTSTYLE0
 11
6.123233995736766E-17
 21
1.0
 31
0.0
  0
ENDBLK
  5
1C7
330
1C5
100
AcDbEntity
  8
0
100
AcDbBlockEnd
  0
BLOCK
  5
1D1
330
1D0
100
AcDbEntity
  8
0
100
AcDbBlockBegin
  2
_D_4
 70
     0
 10
0.0
 20
0.0
 30
0.0
  3
_D_4
  1

  0
LINE
  5
1D3
330
1D0
100
AcDbEntity
  8
0
  6
SLD-SOLID
 62
     7
100
AcDbLine
 10
6.8943394413
 20
3.0446113351
 30
0.0
 11
6.6959019353
 21
3.0446113351
 31
0.0
  0
LINE
  5
1D4
330
1D0
100
AcDbEntity
  8
0
  6
SLD-SOLID
 62
     7
100
AcDbLine
 10
6.6959019353
 20
3.0446113351
 30
0.0
 11
6.6959019353
 21
3.4440471059
 31
0.0
  0
LINE
  5
1D5
330
1D0
100
AcDbEntity
  8
0
  6
SLD-SOLID
 62
     7
100
AcDbLine
 10
6.6959019353
 20
3.4440471059
 30
0.0
 11
6.8943394413
 21
3.4440471059
 31
0.0
  0
LINE
  5
1D6
330
1D0
100
AcDbEntity
  8
0
  6
SLD-SOLID
 62
     7
100
AcDbLine
 10
6.8943394413
 20
3.4440471059
 30
0.0
 11
6.8943394413
 21
3.0446113351
 31
0.0
  0
LINE
  5
1D7
330
1D0
100
AcDbEntity
  8
0
  6
SLD-SOLID
 62
     7
100
AcDbLine
 10
6.7951206883
 20
3.6535928025
 30
0.0
 11
6.7951206883
 21
3.4567424088
 31
0.0
  0
LINE
  5
1D8
330
1D0
100
AcDbEntity
  8
0
  6
SLD-SOLID
 62
     7
100
AcDbLine
 10
6.7951206883
 20
3.6535928025
 30
0.0
 11
6.8165914713
 21
3.8504431962
 31
0.0
  0
LINE
  5
1D9
330
1D0
100
AcDbEntity
  8
0
  6
SLD-SOLID
 62
     7
100
AcDbLine
 10
6.8165914713
 20
3.8504431962
 30
0.0
 11
6.8165914713
 21
3.9627910991
 31
0.0
  0
MTEXT
  5
1DA
330
1D0
100
AcDbEntity
  8
0
  6
SLD-SOLID
 62
     7
100
AcDbMText
 10
6.73320596
 20
3.082697271
 30
0.0
 40
0.125
 41
0.0
 71
     1
 72
     1
  1
.256
  7
SLDTEXTSTYLE0
 11
6.123233995736766E-17
 21
1.0
 31
0.0
  0
ENDBLK
  5
1D2
330
1D0
100
AcDbEntity
  8
0
100
AcDbBlockEnd
  0
BLOCK
  5
1DD
330
1DC
100
AcDbEntity
  8
0
100
AcDbBlockBegin
  2
_D_5
 70
     0
 10
0.0
 20
0.0
 30
0.0
  3
_D_5
  1

  0
LINE
  5
1DF
330
1DC
100
AcDbEntity
  8
0
  6
SLD-SOLID
 62
     7
100
AcDbLine
 10
7.2613359418
 20
3.0446113351
 30
0.0
 11
7.0628984359
 21
3.0446113351
 31
0.0
  0
LINE
  5
1E0
330
1DC
100
AcDbEntity
  8
0
  6
SLD-SOLID
 62
     7
100
AcDbLine
 10
7.0628984359
 20
3.0446113351
 30
0.0
 11
7.0628984359
 21
3.4440471059
 31
0.0
  0
LINE
  5
1E1
330
1DC
100
AcDbEntity
  8
0
  6
SLD-SOLID
 62
     7
100
AcDbLine
 10
7.0628984359
 20
3.4440471059
 30
0.0
 11
7.2613359418
 21
3.4440471059
 31
0.0
  0
LINE
  5
1E2
330
1DC
100
AcDbEntity
  8
0
  6
SLD-SOLID
 62
     7
100
AcDbLine
 10
7.2613359418
 20
3.4440471059
 30
0.0
 11
7.2613359418
 21
3.0446113351
 31
0.0
  0
LINE
  5
1E3
330
1DC
100
AcDbEntity
  8
0
  6
SLD-SOLID
 62
     7
100
AcDbLine
 10
7.1621171888
 20
3.6535928025
 30
0.0
 11
7.1621171888
 21
3.4567424088
 31
0.0
  0
LINE
  5
1E4
330
1DC
100
AcDbEntity
  8
0
  6
SLD-SOLID
 62
     7
100
AcDbLine
 10
7.1621171888
 20
3.6535928025
 30
0.0
 11
6.9740717863
 21
3.8504431962
 31
0.0
  0
LINE
  5
1E5
330
1DC
100
AcDbEntity
  8
0
  6
SLD-SOLID
 62
     7
100
AcDbLine
 10
6.9740717863
 20
3.8504431962
 30
0.0
 11
6.9740717863
 21
4.8742034759
 31
0.0
  0
MTEXT
  5
1E6
330
1DC
100
AcDbEntity
  8
0
  6
SLD-SOLID
 62
     7
100
AcDbMText
 10
7.1002024606
 20
3.082697271
 30
0.0
 40
0.125
 41
0.0
 71
     1
 72
     1
  1
.335
  7
SLDTEXTSTYLE0
 11
6.123233995736766E-17
 21
1.0
 31
0.0
  0
ENDBLK
  5
1DE
330
1DC
100
AcDbEntity
  8
0
100
AcDbBlockEnd
  0
BLOCK
  5
1E9
330
1E8
100
AcDbEntity
  8
0
100
AcDbBlockBegin
  2
_D_6
 70
     0
 10
0.0
 20
0.0
 30
0.0
  3
_D_6
  1

  0
LINE
  5
1EB
330
1E8
100
AcDbEntity
  8
0
  6
SLD-SOLID
 62
     7
100
AcDbLine
 10
7.7032117991
 20
3.0446113351
 30
0.0
 11
7.5047742931
 21
3.0446113351
 31
0.0
  0
LINE
  5
1EC
330
1E8
100
AcDbEntity
  8
0
  6
SLD-SOLID
 62
     7
100
AcDbLine
 10
7.5047742931
 20
3.0446113351
 30
0.0
 11
7.5047742931
 21
3.4440471059
 31
0.0
  0
LINE
  5
1ED
330
1E8
100
AcDbEntity
  8
0
  6
SLD-SOLID
 62
     7
100
AcDbLine
 10
7.5047742931
 20
3.4440471059
 30
0.0
 11
7.7032117991
 21
3.4440471059
 31
0.0
  0
LINE
  5
1EE
330
1E8
100
AcDbEntity
  8
0
  6
SLD-SOLID
 62
     7
100
AcDbLine
 10
7.7032117991
 20
3.4440471059
 30
0.0
 11
7.7032117991
 21
3.0446113351
 31
0.0
  0
LINE
  5
1EF
330
1E8
100
AcDbEntity
  8
0
  6
SLD-SOLID
 62
     7
100
AcDbLine
 10
7.6039930461
 20
4.4824761384
 30
0.0
 11
7.6039930461
 21
3.4567424088
 31
0.0
  0
MTEXT
  5
1F0
330
1E8
100
AcDbEntity
  8
0
  6
SLD-SOLID
 62
     7
100
AcDbMText
 10
7.5420783179
 20
3.082697271
 30
0.0
 40
0.125
 41
0.0
 71
     1
 72
     1
  1
.650
  7
SLDTEXTSTYLE0
 11
6.123233995736766E-17
 21
1.0
 31
0.0
  0
ENDBLK
  5
1EA
330
1E8
100
AcDbEntity
  8
0
100
AcDbBlockEnd
  0
BLOCK
  5
1F3
330
1F2
100
AcDbEntity
  8
0
100
AcDbBlockBegin
  2
_D_7
 70
     0
 10
0.0
 20
0.0
 30
0.0
  3
_D_7
  1

  0
LINE
  5
1F5
330
1F2
100
AcDbEntity
  8
0
  6
SLD-SOLID
 62
     7
100
AcDbLine
 10
8.3728629492
 20
3.0446113351
 30
0.0
 11
8.1744254433
 21
3.0446113351
 31
0.0
  0
LINE
  5
1F6
330
1F2
100
AcDbEntity
  8
0
  6
SLD-SOLID
 62
     7
100
AcDbLine
 10
8.1744254433
 20
3.0446113351
 30
0.0
 11
8.1744254433
 21
3.4440471059
 31
0.0
  0
LINE
  5
1F7
330
1F2
100
AcDbEntity
  8
0
  6
SLD-SOLID
 62
     7
100
AcDbLine
 10
8.1744254433
 20
3.4440471059
 30
0.0
 11
8.3728629492
 21
3.4440471059
 31
0.0
  0
LINE
  5
1F8
330
1F2
100
AcDbEntity
  8
0
  6
SLD-SOLID
 62
     7
100
AcDbLine
 10
8.3728629492
 20
3.4440471059
 30
0.0
 11
8.3728629492
 21
3.0446113351
 31
0.0
  0
LINE
  5
1F9
330
1F2
100
AcDbEntity
  8
0
  6
SLD-SOLID
 62
     7
100
AcDbLine
 10
8.2736441963
 20
3.6601989422
 30
0.0
 11
8.2736441963
 21
3.4567424088
 31
0.0
  0
LINE
  5
1FA
330
1F2
100
AcDbEntity
  8
0
  6
SLD-SOLID
 62
     7
100
AcDbLine
 10
8.2736441963
 20
3.6601989422
 30
0.0
 11
8.2732843847
 21
3.4633485485
 31
0.0
  0
LINE
  5
1FB
330
1F2
100
AcDbEntity
  8
0
  6
SLD-SOLID
 62
     7
100
AcDbLine
 10
8.2732843847
 20
3.4633485485
 30
0.0
 11
8.2732843847
 21
4.8742034759
 31
0.0
  0
MTEXT
  5
1FC
330
1F2
100
AcDbEntity
  8
0
  6
SLD-SOLID
 62
     7
100
AcDbMText
 10
8.211729468
 20
3.082697271
 30
0.0
 40
0.125
 41
0.0
 71
     1
 72
     1
  1
.984
  7
SLDTEXTSTYLE0
 11
6.123233995736766E-17
 21
1.0
 31
0.0
  0
ENDBLK
  5
1F4
330
1F2
100
AcDbEntity
  8
0
100
AcDbBlockEnd
  0
BLOCK
  5
1FF
330
1FE
100
AcDbEntity
  8
0
100
AcDbBlockBegin
  2
_D_8
 70
     0
 10
0.0
 20
0.0
 30
0.0
  3
_D_8
  1

  0
LINE
  5
201
330
1FE
100
AcDbEntity
  8
0
  6
SLD-SOLID
 62
     7
100
AcDbLine
 10
9.5929755786
 20
2.952250242
 30
0.0
 11
9.3945380727
 21
2.952250242
 31
0.0
  0
LINE
  5
202
330
1FE
100
AcDbEntity
  8
0
  6
SLD-SOLID
 62
     7
100
AcDbLine
 10
9.3945380727
 20
2.952250242
 30
0.0
 11
9.3945380727
 21
3.4440471059
 31
0.0
  0
LINE
  5
203
330
1FE
100
AcDbEntity
  8
0
  6
SLD-SOLID
 62
     7
100
AcDbLine
 10
9.3945380727
 20
3.4440471059
 30
0.0
 11
9.5929755786
 21
3.4440471059
 31
0.0
  0
LINE
  5
204
330
1FE
100
AcDbEntity
  8
0
  6
SLD-SOLID
 62
     7
100
AcDbLine
 10
9.5929755786
 20
3.4440471059
 30
0.0
 11
9.5929755786
 21
2.952250242
 31
0.0
  0
LINE
  5
205
330
1FE
100
AcDbEntity
  8
0
  6
SLD-SOLID
 62
     7
100
AcDbLine
 10
9.4937568256
 20
4.1675155085
 30
0.0
 11
9.4937568256
 21
3.4567424088
 31
0.0
  0
MTEXT
  5
206
330
1FE
100
AcDbEntity
  8
0
  6
SLD-SOLID
 62
     7
100
AcDbMText
 10
9.4318420974
 20
2.990336178
 30
0.0
 40
0.125
 41
0.0
 71
     1
 72
     1
  1
1.594
  7
SLDTEXTSTYLE0
 11
6.123233995736766E-17
 21
1.0
 31
0.0
  0
ENDBLK
  5
200
330
1FE
100
AcDbEntity
  8
0
100
AcDbBlockEnd
  0
BLOCK
  5
20C
330
20B
100
AcDbEntity
  8
0
100
AcDbBlockBegin
  2
_D_9
 70
     0
 10
0.0
 20
0.0
 30
0.0
  3
_D_9
  1

  0
SOLID
  5
20E
330
20B
100
AcDbEntity
  8
0
  6
SLD-SOLID
 62
     7
100
AcDbTrace
 10
5.1069386197
 20
5.1623973983
 30
0.0
 11
5.0869386197
 21
5.0323973983
 31
0.0
 12
5.1269386197
 22
5.0323973983
 32
0.0
 13
5.1269386197
 23
5.0323973983
 33
0.0
  0
SOLID
  5
20F
330
20B
100
AcDbEntity
  8
0
  6
SLD-SOLID
 62
     7
100
AcDbTrace
 10
5.1069386197
 20
3.9025548786
 30
0.0
 11
5.1269386197
 21
4.0325548786
 31
0.0
 12
5.0869386197
 22
4.0325548786
 32
0.0
 13
5.0869386197
 23
4.0325548786
 33
0.0
  0
LINE
  5
210
330
20B
100
AcDbEntity
  8
0
  6
SLD-SOLID
 62
     7
100
AcDbLine
 10
6.9240717863
 20
5.1623973983
 30
0.0
 11
4.9819386197
 21
5.1623973983
 31
0.0
  0
LINE
  5
211
330
20B
100
AcDbEntity
  8
0
  6
SLD-SOLID
 62
     7
100
AcDbLine
 10
6.9240717863
 20
3.9025548786
 30
0.0
 11
4.9819386197
 21
3.9025548786
 31
0.0
  0
LINE
  5
212
330
20B
100
AcDbEntity
  8
0
  6
SLD-SOLID
 62
     7
100
AcDbLine
 10
5.1069386197
 20
5.1623973983
 30
0.0
 11
5.1069386197
 21
4.7915683218
 31
0.0
  0
LINE
  5
213
330
20B
100
AcDbEntity
  8
0
  6
SLD-SOLID
 62
     7
100
AcDbLine
 10
5.1069386197
 20
3.9025548786
 30
0.0
 11
5.1069386197
 21
4.3431308159
 31
0.0
  0
MTEXT
  5
214
330
20B
100
AcDbEntity
  8
0
  6
SLD-SOLID
 62
     7
100
AcDbMText
 10
4.7379282292
 20
4.7542642971
 30
0.0
 40
0.125
 41
0.0
 71
     1
 72
     1
  1
.630
  7
SLDTEXTSTYLE0
  0
MTEXT
  5
215
330
20B
100
AcDbEntity
  8
0
  6
SLD-SOLID
 62
     7
100
AcDbMText
 10
5.0611921281
 20
4.7542642971
 30
0.0
 40
0.125
 41
0.0
 71
     1
 72
     1
  1
.010
  7
SLDTEXTSTYLE0
  0
ENDBLK
  5
20D
330
20B
100
AcDbEntity
  8
0
100
AcDbBlockEnd
  0
BLOCK
  5
21B
330
21A
100
AcDbEntity
  8
0
100
AcDbBlockBegin
  2
SW_DATUMTAG_2
 70
     0
 10
0.0
 20
0.0
 30
0.0
  3
SW_DATUMTAG_2
  1

  0
LINE
  5
21D
330
21A
100
AcDbEntity
  8
0
  6
SLD-SOLID
 62
     0
100
AcDbLine
 10
0.0677083337
 20
0.537981422
 30
0.0
 11
0.0677083337
 21
0.2242187392
 31
0.0
  0
LINE
  5
21E
330
21A
100
AcDbEntity
  8
0
  6
SLD-SOLID
 62
     0
100
AcDbLine
 10
0.1927083337
 20
-0.0257812608
 30
0.0
 11
-0.0572916663
 21
-0.0257812608
 31
0.0
  0
LINE
  5
21F
330
21A
100
AcDbEntity
  8
0
  6
SLD-SOLID
 62
     0
100
AcDbLine
 10
-0.0572916663
 20
-0.0257812608
 30
0.0
 11
-0.0572916663
 21
0.2242187392
 31
0.0
  0
LINE
  5
220
330
21A
100
AcDbEntity
  8
0
  6
SLD-SOLID
 62
     0
100
AcDbLine
 10
-0.0572916663
 20
0.2242187392
 30
0.0
 11
0.1927083337
 21
0.2242187392
 31
0.0
  0
LINE
  5
221
330
21A
100
AcDbEntity
  8
0
  6
SLD-SOLID
 62
     0
100
AcDbLine
 10
0.1927083337
 20
0.2242187392
 30
0.0
 11
0.1927083337
 21
-0.0257812608
 31
0.0
  0
MTEXT
  5
222
330
21A
100
AcDbEntity
  8
0
  6
CONTINUOUS
 62
     0
100
AcDbMText
 10
0.0
 20
0.1611334675
 30
0.0
 40
0.125
 41
0.0
 71
     1
 72
     1
  1
C
  7
SLDTEXTSTYLE0
  0
SOLID
  5
223
330
21A
100
AcDbEntity
  8
0
  6
SLD-SOLID
 62
     0
100
AcDbTrace
 10
0.1302083337
 20
0.537981422
 30
0.0
 11
0.0052083337
 21
0.537981422
 31
0.0
 12
0.0677083337
 22
0.412981422
 32
0.0
 13
0.0677083337
 23
0.412981422
 33
0.0
  0
ENDBLK
  5
21C
330
21A
100
AcDbEntity
  8
0
100
AcDbBlockEnd
  0
BLOCK
  5
226
330
225
100
AcDbEntity
  8
0
100
AcDbBlockBegin
  2
SW_DOWELSYMBOL_1
 70
     0
 10
0.0
 20
0.0
 30
0.0
  3
SW_DOWELSYMBOL_1
  1

  0
CIRCLE
  5
228
330
225
100
AcDbEntity
  8
0
  6
CONTINUOUS
 62
     0
100
AcDbCircle
 10
0.0
 20
0.0
 30
0.0
 40
0.3750000000000002
  0
INSERT
  5
229
330
225
100
AcDbEntity
  8
0
  6
CONTINUOUS
 62
     0
100
AcDbBlockReference
  2
*U30
 10
0.0
 20
0.0
 30
0.0
  0
INSERT
  5
22A
330
225
100
AcDbEntity
  8
0
  6
CONTINUOUS
 62
     0
100
AcDbBlockReference
  2
*U31
 10
0.0
 20
0.0
 30
0.0
  0
ENDBLK
  5
227
330
225
100
AcDbEntity
  8
0
100
AcDbBlockEnd
  0
BLOCK
  5
236
330
235
100
AcDbEntity
  8
0
100
AcDbBlockBegin
  2
_D_10
 70
     0
 10
0.0
 20
0.0
 30
0.0
  3
_D_10
  1

  0
ARC
  5
238
330
235
100
AcDbEntity
  8
0
  6
SLD-SOLID
 62
     7
100
AcDbCircle
 10
13.6101914902
 20
7.892695409
 30
0.0
 40
0.7086614173228357
100
AcDbArc
 50
240.4785377271
 51
326.4580457598
  0
SOLID
  5
239
330
235
100
AcDbEntity
  8
0
  6
SLD-SOLID
 62
     7
100
AcDbTrace
 10
14.1238496762
 20
7.4044779653
 30
0.0
 11
14.2042988356
 21
7.3004206121
 31
0.0
 12
14.231855998
 22
7.329413763
 32
0.0
 13
14.231855998
 23
7.329413763
 33
0.0
  0
LINE
  5
23A
330
235
100
AcDbEntity
  8
0
  6
SLD-SOLID
 62
     7
100
AcDbLine
 10
14.1238496762
 20
7.4044779653
 30
0.0
 11
14.5425941504
 21
7.0064732953
 31
0.0
  0
LINE
  5
23B
330
235
100
AcDbEntity
  8
0
  6
SLD-SOLID
 62
     7
100
AcDbLine
 10
14.5425941504
 20
7.0064732953
 30
0.0
 11
14.7925941504
 21
7.0064732953
 31
0.0
  0
MTEXT
  5
23C
330
235
100
AcDbEntity
  8
0
  6
SLD-SOLID
 62
     7
100
AcDbMText
 10
14.7925941504
 20
7.0671057523
 30
0.0
 40
0.125
 41
0.0
 71
     1
 72
     1
  1
%%c
  7
SLDTEXTSTYLE0
  0
MTEXT
  5
23D
330
235
100
AcDbEntity
  8
0
  6
SLD-SOLID
 62
     7
100
AcDbMText
 10
14.981109771
 20
7.0690154746
 30
0.0
 40
0.125
 41
0.0
 71
     1
 72
     1
  1
.709
  7
SLDTEXTSTYLE0
  0
MTEXT
  5
23E
330
235
100
AcDbEntity
  8
0
  6
SLD-SOLID
 62
     7
100
AcDbMText
 10
15.3043736517
 20
7.0690154746
 30
0.0
 40
0.125
 41
0.0
 71
     1
 72
     1
  1
.010
  7
SLDTEXTSTYLE0
  0
ENDBLK
  5
237
330
235
100
AcDbEntity
  8
0
100
AcDbBlockEnd
  0
BLOCK
  5
24C
330
24B
100
AcDbEntity
  8
0
100
AcDbBlockBegin
  2
_D_11
 70
     0
 10
0.0
 20
0.0
 30
0.0
  3
_D_11
  1

  0
SOLID
  5
24E
330
24B
100
AcDbEntity
  8
0
  6
SLD-SOLID
 62
     7
100
AcDbTrace
 10
2.2687668497
 20
7.7749159541
 30
0.0
 11
2.3164463416
 21
7.6523326516
 31
0.0
 12
2.3510873578
 22
7.6723326516
 32
0.0
 13
2.3510873578
 23
7.6723326516
 33
0.0
  0
LINE
  5
24F
330
24B
100
AcDbEntity
  8
0
  6
SLD-SOLID
 62
     7
100
AcDbLine
 10
2.2687668497
 20
7.7749159541
 30
0.0
 11
3.2734218105
 21
6.0348025179
 31
0.0
  0
LINE
  5
250
330
24B
100
AcDbEntity
  8
0
  6
SLD-SOLID
 62
     7
100
AcDbLine
 10
3.2734218105
 20
6.0348025179
 30
0.0
 11
3.4921718105
 21
6.0348025179
 31
0.0
  0
MTEXT
  5
251
330
24B
100
AcDbEntity
  8
0
  6
SLD-SOLID
 62
     7
100
AcDbMText
 10
3.6720459546
 20
6.1959359831
 30
0.0
 40
0.125
 41
0.0
 71
     1
 72
     1
  1
%%c
  7
SLDTEXTSTYLE0
  0
MTEXT
  5
252
330
24B
100
AcDbEntity
  8
0
  6
SLD-SOLID
 62
     7
100
AcDbMText
 10
3.9074365752
 20
6.1978457054
 30
0.0
 40
0.125
 41
0.0
 71
     1
 72
     1
  1
.136
  7
SLDTEXTSTYLE0
  0
INSERT
  5
25A
330
24B
100
AcDbEntity
  8
0
  6
SLD-SOLID
 62
     7
100
AcDbBlockReference
  2
SW_SYMBOL_HOLE_DEPTH
 10
4.2761865855
 20
6.0521365
 30
0.0
 41
0.0040555664
 42
0.0040555664
 43
0.0040555664
  0
MTEXT
  5
25B
330
24B
100
AcDbEntity
  8
0
  6
SLD-SOLID
 62
     7
100
AcDbMText
 10
4.501655339
 20
6.1978457054
 30
0.0
 40
0.125
 41
0.0
 71
     1
 72
     1
  1
.422
  7
SLDTEXTSTYLE0
  0
MTEXT
  5
25C
330
24B
100
AcDbEntity
  8
0
  6
SLD-SOLID
 62
     7
100
AcDbMText
 10
3.5546718105
 20
5.9974984932
 30
0.0
 40
0.125
 41
0.0
 71
     1
 72
     1
  1
8-32 UNC
  7
SLDTEXTSTYLE0
  0
INSERT
  5
25D
330
24B
100
AcDbEntity
  8
0
  6
SLD-SOLID
 62
     7
100
AcDbBlockReference
  2
SW_SYMBOL_HOLE_DEPTH
 10
4.3935606929
 20
5.8517892878
 30
0.0
 41
0.0040555664
 42
0.0040555664
 43
0.0040555664
  0
MTEXT
  5
25E
330
24B
100
AcDbEntity
  8
0
  6
SLD-SOLID
 62
     7
100
AcDbMText
 10
4.6190294831
 20
5.9974984932
 30
0.0
 40
0.125
 41
0.0
 71
     1
 72
     1
  1
.328
  7
SLDTEXTSTYLE0
  0
ENDBLK
  5
24D
330
24B
100
AcDbEntity
  8
0
100
AcDbBlockEnd
  0
BLOCK
  5
254
330
253
100
AcDbEntity
  8
0
100
AcDbBlockBegin
  2
SW_SYMBOL_HOLE_DEPTH
 70
     0
 10
0.0
 20
0.0
 30
0.0
  3
SW_SYMBOL_HOLE_DEPTH
  1

  0
LINE
  5
256
330
253
100
AcDbEntity
  8
0
  6
SLD-SOLID
 62
     0
100
AcDbLine
 10
0.0
 20
34.4488188976
 30
0.0
 11
31.4960629921
 21
34.4488188976
 31
0.0
  0
LINE
  5
257
330
253
100
AcDbEntity
  8
0
  6
SLD-SOLID
 62
     0
100
AcDbLine
 10
15.7480314961
 20
34.4488188976
 30
0.0
 11
15.7480314961
 21
2.9527559055
 31
0.0
  0
LINE
  5
258
330
253
100
AcDbEntity
  8
0
  6
SLD-SOLID
 62
     0
100
AcDbLine
 10
3.937007874
 20
21.8503937008
 30
0.0
 11
15.7480314961
 21
2.9527559055
 31
0.0
  0
LINE
  5
259
330
253
100
AcDbEntity
  8
0
  6
SLD-SOLID
 62
     0
100
AcDbLine
 10
27.5590551181
 20
21.8503937008
 30
0.0
 11
15.7480314961
 21
2.9527559055
 31
0.0
  0
ENDBLK
  5
255
330
253
100
AcDbEntity
  8
0
100
AcDbBlockEnd
  0
BLOCK
  5
262
330
261
100
AcDbEntity
  8
0
100
AcDbBlockBegin
  2
_D_12
 70
     0
 10
0.0
 20
0.0
 30
0.0
  3
_D_12
  1

  0
SOLID
  5
264
330
261
100
AcDbEntity
  8
0
  6
SLD-SOLID
 62
     7
100
AcDbTrace
 10
2.4869134602
 20
8.3265071855
 30
0.0
 11
2.5751886489
 21
8.4240135498
 31
0.0
 12
2.5417982879
 22
8.4460381677
 32
0.0
 13
2.5417982879
 23
8.4460381677
 33
0.0
  0
LINE
  5
265
330
261
100
AcDbEntity
  8
0
  6
SLD-SOLID
 62
     7
100
AcDbLine
 10
2.4869134602
 20
8.3265071855
 30
0.0
 11
2.9413754464
 21
9.0154930213
 31
0.0
  0
LINE
  5
266
330
261
100
AcDbEntity
  8
0
  6
SLD-SOLID
 62
     7
100
AcDbLine
 10
2.9413754464
 20
9.0154930213
 30
0.0
 11
3.1913754464
 21
9.0154930213
 31
0.0
  0
MTEXT
  5
267
330
261
100
AcDbEntity
  8
0
  6
SLD-SOLID
 62
     7
100
AcDbMText
 10
3.1913754464
 20
9.0761254783
 30
0.0
 40
0.125
 41
0.0
 71
     1
 72
     1
  1
%%c
  7
SLDTEXTSTYLE0
  0
MTEXT
  5
268
330
261
100
AcDbEntity
  8
0
  6
SLD-SOLID
 62
     7
100
AcDbMText
 10
3.379891067
 20
9.0780352006
 30
0.0
 40
0.125
 41
0.0
 71
     1
 72
     1
  1
.520
  7
SLDTEXTSTYLE0
  0
MTEXT
  5
269
330
261
100
AcDbEntity
  8
0
  6
SLD-SOLID
 62
     7
100
AcDbMText
 10
3.7031549476
 20
9.0780352006
 30
0.0
 40
0.125
 41
0.0
 71
     1
 72
     1
  1
.004
  7
SLDTEXTSTYLE0
  0
ENDBLK
  5
263
330
261
100
AcDbEntity
  8
0
100
AcDbBlockEnd
  0
BLOCK
  5
26B
330
26A
100
AcDbEntity
  8
0
100
AcDbBlockBegin
  2
SW_CENTERMARKSYMBOL_0
 70
     0
 10
0.0
 20
0.0
 30
0.0
  3
SW_CENTERMARKSYMBOL_0
  1

  0
LINE
  5
26D
330
26A
100
AcDbEntity
  8
0
  6
SLD-SOLID
 62
     0
100
AcDbLine
 10
0.0
 20
0.0
 30
0.0
 11
0.0
 21
0.2
 31
0.0
  0
LINE
  5
26E
330
26A
100
AcDbEntity
  8
0
  6
SLD-SOLID
 62
     0
100
AcDbLine
 10
0.0
 20
0.0
 30
0.0
 11
-0.2
 21
0.0
 31
0.0
  0
LINE
  5
26F
330
26A
100
AcDbEntity
  8
0
  6
SLD-SOLID
 62
     0
100
AcDbLine
 10
0.0
 20
0.0
 30
0.0
 11
0.0
 21
-0.2
 31
0.0
  0
LINE
  5
270
330
26A
100
AcDbEntity
  8
0
  6
SLD-SOLID
 62
     0
100
AcDbLine
 10
0.0
 20
0.0
 30
0.0
 11
0.2
 21
0.0
 31
0.0
  0
LINE
  5
271
330
26A
100
AcDbEntity
  8
0
  6
SLD-SOLID
 62
     0
100
AcDbLine
 10
0.0
 20
0.4
 30
0.0
 11
0.0
 21
0.7196850394
 31
0.0
  0
LINE
  5
272
330
26A
100
AcDbEntity
  8
0
  6
SLD-SOLID
 62
     0
100
AcDbLine
 10
-0.4
 20
0.0
 30
0.0
 11
-0.7196850394
 21
0.0
 31
0.0
  0
LINE
  5
273
330
26A
100
AcDbEntity
  8
0
  6
SLD-SOLID
 62
     0
100
AcDbLine
 10
0.0
 20
-0.4
 30
0.0
 11
0.0
 21
-0.7196850394
 31
0.0
  0
LINE
  5
274
330
26A
100
AcDbEntity
  8
0
  6
SLD-SOLID
 62
     0
100
AcDbLine
 10
0.4
 20
0.0
 30
0.0
 11
0.7196850394
 21
0.0
 31
0.0
  0
ENDBLK
  5
26C
330
26A
100
AcDbEntity
  8
0
100
AcDbBlockEnd
  0
BLOCK
  5
2BF
330
27B
100
AcDbEntity
  8
0
100
AcDbBlockBegin
  2
*U28
 70
     1
 10
0.0
 20
0.0
 30
0.0
  3
*U28
  1

  0
SOLID
  5
27C
330
27B
100
AcDbEntity
  8
0
  6
CONTINUOUS
 62
     0
100
AcDbTrace
 10
0.0
 20
0.0
 30
0.0
 11
0.0
 21
0.125
 31
0.0
 12
0.0243862903
 22
0.0
 32
0.0
 13
0.0243862903
 23
0.0
 33
0.0
  0
SOLID
  5
27D
330
27B
100
AcDbEntity
  8
0
  6
CONTINUOUS
 62
     0
100
AcDbTrace
 10
0.0243862903
 20
0.0
 30
0.0
 11
0.0
 21
0.125
 31
0.0
 12
0.0243862903
 22
0.1225981601
 32
0.0
 13
0.0243862903
 23
0.1225981601
 33
0.0
  0
SOLID
  5
27E
330
27B
100
AcDbEntity
  8
0
  6
CONTINUOUS
 62
     0
100
AcDbTrace
 10
0.0243862903
 20
0.0
 30
0.0
 11
0.0243862903
 21
0.1225981601
 31
0.0
 12
0.047835429
 22
0.0
 32
0.0
 13
0.047835429
 23
0.0
 33
0.0
  0
SOLID
  5
27F
330
27B
100
AcDbEntity
  8
0
  6
CONTINUOUS
 62
     0
100
AcDbTrace
 10
0.047835429
 20
0.0
 30
0.0
 11
0.0243862903
 21
0.1225981601
 31
0.0
 12
0.047835429
 22
0.1154849416
 32
0.0
 13
0.047835429
 23
0.1154849416
 33
0.0
  0
SOLID
  5
280
330
27B
100
AcDbEntity
  8
0
  6
CONTINUOUS
 62
     0
100
AcDbTrace
 10
0.047835429
 20
0.0
 30
0.0
 11
0.047835429
 21
0.1154849416
 31
0.0
 12
0.0694462791
 22
0.0
 32
0.0
 13
0.0694462791
 23
0.0
 33
0.0
  0
SOLID
  5
281
330
27B
100
AcDbEntity
  8
0
  6
CONTINUOUS
 62
     0
100
AcDbTrace
 10
0.0694462791
 20
0.0
 30
0.0
 11
0.047835429
 21
0.1154849416
 31
0.0
 12
0.0694462791
 22
0.1039337015
 32
0.0
 13
0.0694462791
 23
0.1039337015
 33
0.0
  0
SOLID
  5
282
330
27B
100
AcDbEntity
  8
0
  6
CONTINUOUS
 62
     0
100
AcDbTrace
 10
0.0694462791
 20
0.0
 30
0.0
 11
0.0694462791
 21
0.1039337015
 31
0.0
 12
0.0883883476
 22
0.0
 32
0.0
 13
0.0883883476
 23
0.0
 33
0.0
  0
SOLID
  5
283
330
27B
100
AcDbEntity
  8
0
  6
CONTINUOUS
 62
     0
100
AcDbTrace
 10
0.0883883476
 20
0.0
 30
0.0
 11
0.0694462791
 21
0.1039337015
 31
0.0
 12
0.0883883476
 22
0.0883883476
 32
0.0
 13
0.0883883476
 23
0.0883883476
 33
0.0
  0
SOLID
  5
284
330
27B
100
AcDbEntity
  8
0
  6
CONTINUOUS
 62
     0
100
AcDbTrace
 10
0.0883883476
 20
0.0
 30
0.0
 11
0.0883883476
 21
0.0883883476
 31
0.0
 12
0.1039337015
 22
0.0
 32
0.0
 13
0.1039337015
 23
0.0
 33
0.0
  0
SOLID
  5
285
330
27B
100
AcDbEntity
  8
0
  6
CONTINUOUS
 62
     0
100
AcDbTrace
 10
0.1039337015
 20
0.0
 30
0.0
 11
0.0883883476
 21
0.0883883476
 31
0.0
 12
0.1039337015
 22
0.0694462791
 32
0.0
 13
0.1039337015
 23
0.0694462791
 33
0.0
  0
SOLID
  5
286
330
27B
100
AcDbEntity
  8
0
  6
CONTINUOUS
 62
     0
100
AcDbTrace
 10
0.1039337015
 20
0.0
 30
0.0
 11
0.1039337015
 21
0.0694462791
 31
0.0
 12
0.1154849416
 22
0.0
 32
0.0
 13
0.1154849416
 23
0.0
 33
0.0
  0
SOLID
  5
287
330
27B
100
AcDbEntity
  8
0
  6
CONTINUOUS
 62
     0
100
AcDbTrace
 10
0.1154849416
 20
0.0
 30
0.0
 11
0.1039337015
 21
0.0694462791
 31
0.0
 12
0.1154849416
 22
0.047835429
 32
0.0
 13
0.1154849416
 23
0.047835429
 33
0.0
  0
SOLID
  5
288
330
27B
100
AcDbEntity
  8
0
  6
CONTINUOUS
 62
     0
100
AcDbTrace
 10
0.1154849416
 20
0.0
 30
0.0
 11
0.1154849416
 21
0.047835429
 31
0.0
 12
0.1225981601
 22
0.0
 32
0.0
 13
0.1225981601
 23
0.0
 33
0.0
  0
SOLID
  5
289
330
27B
100
AcDbEntity
  8
0
  6
CONTINUOUS
 62
     0
100
AcDbTrace
 10
0.1225981601
 20
0.0
 30
0.0
 11
0.1154849416
 21
0.047835429
 31
0.0
 12
0.1225981601
 22
0.0243862903
 32
0.0
 13
0.1225981601
 23
0.0243862903
 33
0.0
  0
SOLID
  5
28A
330
27B
100
AcDbEntity
  8
0
  6
CONTINUOUS
 62
     0
100
AcDbTrace
 10
0.1225981601
 20
0.0
 30
0.0
 11
0.1225981601
 21
0.0243862903
 31
0.0
 12
0.125
 22
0.0
 32
0.0
 13
0.125
 23
0.0
 33
0.0
  0
ENDBLK
  5
2C0
330
27B
100
AcDbEntity
  8
0
100
AcDbBlockEnd
  0
BLOCK
  5
2C1
330
28B
100
AcDbEntity
  8
0
100
AcDbBlockBegin
  2
*U29
 70
     1
 10
0.0
 20
0.0
 30
0.0
  3
*U29
  1

  0
SOLID
  5
28C
330
28B
100
AcDbEntity
  8
0
  6
CONTINUOUS
 62
     0
100
AcDbTrace
 10
-0.1231009691
 20
-0.0217060222
 30
0.0
 11
-0.125
 21
0.0
 31
0.0
 12
-0.1231009691
 22
0.0
 32
0.0
 13
-0.1231009691
 23
0.0
 33
0.0
  0
SOLID
  5
28D
330
28B
100
AcDbEntity
  8
0
  6
CONTINUOUS
 62
     0
100
AcDbTrace
 10
-0.1231009691
 20
-0.0217060222
 30
0.0
 11
-0.1231009691
 21
0.0
 31
0.0
 12
-0.1174615776
 22
-0.0427525179
 32
0.0
 13
-0.1174615776
 23
-0.0427525179
 33
0.0
  0
SOLID
  5
28E
330
28B
100
AcDbEntity
  8
0
  6
CONTINUOUS
 62
     0
100
AcDbTrace
 10
-0.1174615776
 20
-0.0427525179
 30
0.0
 11
-0.1231009691
 21
0.0
 31
0.0
 12
-0.1174615776
 22
0.0
 32
0.0
 13
-0.1174615776
 23
0.0
 33
0.0
  0
SOLID
  5
28F
330
28B
100
AcDbEntity
  8
0
  6
CONTINUOUS
 62
     0
100
AcDbTrace
 10
-0.1174615776
 20
-0.0427525179
 30
0.0
 11
-0.1174615776
 21
0.0
 31
0.0
 12
-0.1082531755
 22
-0.0625
 32
0.0
 13
-0.1082531755
 23
-0.0625
 33
0.0
  0
SOLID
  5
290
330
28B
100
AcDbEntity
  8
0
  6
CONTINUOUS
 62
     0
100
AcDbTrace
 10
-0.1082531755
 20
-0.0625
 30
0.0
 11
-0.1174615776
 21
0.0
 31
0.0
 12
-0.1082531755
 22
0.0
 32
0.0
 13
-0.1082531755
 23
0.0
 33
0.0
  0
SOLID
  5
291
330
28B
100
AcDbEntity
  8
0
  6
CONTINUOUS
 62
     0
100
AcDbTrace
 10
-0.1082531755
 20
-0.0625
 30
0.0
 11
-0.1082531755
 21
0.0
 31
0.0
 12
-0.0957555554
 22
-0.0803484512
 32
0.0
 13
-0.0957555554
 23
-0.0803484512
 33
0.0
  0
SOLID
  5
292
330
28B
100
AcDbEntity
  8
0
  6
CONTINUOUS
 62
     0
100
AcDbTrace
 10
-0.0957555554
 20
-0.0803484512
 30
0.0
 11
-0.1082531755
 21
0.0
 31
0.0
 12
-0.0957555554
 22
0.0
 32
0.0
 13
-0.0957555554
 23
0.0
 33
0.0
  0
SOLID
  5
293
330
28B
100
AcDbEntity
  8
0
  6
CONTINUOUS
 62
     0
100
AcDbTrace
 10
-0.0957555554
 20
-0.0803484512
 30
0.0
 11
-0.0957555554
 21
0.0
 31
0.0
 12
-0.0803484512
 22
-0.0957555554
 32
0.0
 13
-0.0803484512
 23
-0.0957555554
 33
0.0
  0
SOLID
  5
294
330
28B
100
AcDbEntity
  8
0
  6
CONTINUOUS
 62
     0
100
AcDbTrace
 10
-0.0803484512
 20
-0.0957555554
 30
0.0
 11
-0.0957555554
 21
0.0
 31
0.0
 12
-0.0803484512
 22
0.0
 32
0.0
 13
-0.0803484512
 23
0.0
 33
0.0
  0
SOLID
  5
295
330
28B
100
AcDbEntity
  8
0
  6
CONTINUOUS
 62
     0
100
AcDbTrace
 10
-0.0803484512
 20
-0.0957555554
 30
0.0
 11
-0.0803484512
 21
0.0
 31
0.0
 12
-0.0625
 22
-0.1082531755
 32
0.0
 13
-0.0625
 23
-0.1082531755
 33
0.0
  0
SOLID
  5
296
330
28B
100
AcDbEntity
  8
0
  6
CONTINUOUS
 62
     0
100
AcDbTrace
 10
-0.0625
 20
-0.1082531755
 30
0.0
 11
-0.0803484512
 21
0.0
 31
0.0
 12
-0.0625
 22
0.0
 32
0.0
 13
-0.0625
 23
0.0
 33
0.0
  0
SOLID
  5
297
330
28B
100
AcDbEntity
  8
0
  6
CONTINUOUS
 62
     0
100
AcDbTrace
 10
-0.0625
 20
-0.1082531755
 30
0.0
 11
-0.0625
 21
0.0
 31
0.0
 12
-0.0427525179
 22
-0.1174615776
 32
0.0
 13
-0.0427525179
 23
-0.1174615776
 33
0.0
  0
SOLID
  5
298
330
28B
100
AcDbEntity
  8
0
  6
CONTINUOUS
 62
     0
100
AcDbTrace
 10
-0.0427525179
 20
-0.1174615776
 30
0.0
 11
-0.0625
 21
0.0
 31
0.0
 12
-0.0427525179
 22
0.0
 32
0.0
 13
-0.0427525179
 23
0.0
 33
0.0
  0
SOLID
  5
299
330
28B
100
AcDbEntity
  8
0
  6
CONTINUOUS
 62
     0
100
AcDbTrace
 10
-0.0427525179
 20
-0.1174615776
 30
0.0
 11
-0.0427525179
 21
0.0
 31
0.0
 12
-0.0217060222
 22
-0.1231009691
 32
0.0
 13
-0.0217060222
 23
-0.1231009691
 33
0.0
  0
SOLID
  5
29A
330
28B
100
AcDbEntity
  8
0
  6
CONTINUOUS
 62
     0
100
AcDbTrace
 10
-0.0217060222
 20
-0.1231009691
 30
0.0
 11
-0.0427525179
 21
0.0
 31
0.0
 12
-0.0217060222
 22
0.0
 32
0.0
 13
-0.0217060222
 23
0.0
 33
0.0
  0
SOLID
  5
29B
330
28B
100
AcDbEntity
  8
0
  6
CONTINUOUS
 62
     0
100
AcDbTrace
 10
-0.0217060222
 20
-0.1231009691
 30
0.0
 11
-0.0217060222
 21
0.0
 31
0.0
 12
0.0
 22
-0.125
 32
0.0
 13
0.0
 23
-0.125
 33
0.0
  0
SOLID
  5
29C
330
28B
100
AcDbEntity
  8
0
  6
CONTINUOUS
 62
     0
100
AcDbTrace
 10
0.0
 20
-0.125
 30
0.0
 11
-0.0217060222
 21
0.0
 31
0.0
 12
0.0
 22
0.0
 32
0.0
 13
0.0
 23
0.0
 33
0.0
  0
ENDBLK
  5
2C2
330
28B
100
AcDbEntity
  8
0
100
AcDbBlockEnd
  0
BLOCK
  5
2C3
330
29D
100
AcDbEntity
  8
0
100
AcDbBlockBegin
  2
*U30
 70
     1
 10
0.0
 20
0.0
 30
0.0
  3
*U30
  1

  0
SOLID
  5
29E
330
29D
100
AcDbEntity
  8
0
  6
CONTINUOUS
 62
     0
100
AcDbTrace
 10
0.0
 20
0.0
 30
0.0
 11
0.0
 21
0.375
 31
0.0
 12
0.0731588708
 22
0.0
 32
0.0
 13
0.0731588708
 23
0.0
 33
0.0
  0
SOLID
  5
29F
330
29D
100
AcDbEntity
  8
0
  6
CONTINUOUS
 62
     0
100
AcDbTrace
 10
0.0731588708
 20
0.0
 30
0.0
 11
0.0
 21
0.375
 31
0.0
 12
0.0731588708
 22
0.3677944802
 32
0.0
 13
0.0731588708
 23
0.3677944802
 33
0.0
  0
SOLID
  5
2A0
330
29D
100
AcDbEntity
  8
0
  6
CONTINUOUS
 62
     0
100
AcDbTrace
 10
0.0731588708
 20
0.0
 30
0.0
 11
0.0731588708
 21
0.3677944802
 31
0.0
 12
0.1435062871
 22
0.0
 32
0.0
 13
0.1435062871
 23
0.0
 33
0.0
  0
SOLID
  5
2A1
330
29D
100
AcDbEntity
  8
0
  6
CONTINUOUS
 62
     0
100
AcDbTrace
 10
0.1435062871
 20
0.0
 30
0.0
 11
0.0731588708
 21
0.3677944802
 31
0.0
 12
0.1435062871
 22
0.3464548247
 32
0.0
 13
0.1435062871
 23
0.3464548247
 33
0.0
  0
SOLID
  5
2A2
330
29D
100
AcDbEntity
  8
0
  6
CONTINUOUS
 62
     0
100
AcDbTrace
 10
0.1435062871
 20
0.0
 30
0.0
 11
0.1435062871
 21
0.3464548247
 31
0.0
 12
0.2083388374
 22
0.0
 32
0.0
 13
0.2083388374
 23
0.0
 33
0.0
  0
SOLID
  5
2A3
330
29D
100
AcDbEntity
  8
0
  6
CONTINUOUS
 62
     0
100
AcDbTrace
 10
0.2083388374
 20
0.0
 30
0.0
 11
0.1435062871
 21
0.3464548247
 31
0.0
 12
0.2083388374
 22
0.3118011046
 32
0.0
 13
0.2083388374
 23
0.3118011046
 33
0.0
  0
SOLID
  5
2A4
330
29D
100
AcDbEntity
  8
0
  6
CONTINUOUS
 62
     0
100
AcDbTrace
 10
0.2083388374
 20
0.0
 30
0.0
 11
0.2083388374
 21
0.3118011046
 31
0.0
 12
0.2651650429
 22
0.0
 32
0.0
 13
0.2651650429
 23
0.0
 33
0.0
  0
SOLID
  5
2A5
330
29D
100
AcDbEntity
  8
0
  6
CONTINUOUS
 62
     0
100
AcDbTrace
 10
0.2651650429
 20
0.0
 30
0.0
 11
0.2083388374
 21
0.3118011046
 31
0.0
 12
0.2651650429
 22
0.2651650429
 32
0.0
 13
0.2651650429
 23
0.2651650429
 33
0.0
  0
SOLID
  5
2A6
330
29D
100
AcDbEntity
  8
0
  6
CONTINUOUS
 62
     0
100
AcDbTrace
 10
0.2651650429
 20
0.0
 30
0.0
 11
0.2651650429
 21
0.2651650429
 31
0.0
 12
0.3118011046
 22
0.0
 32
0.0
 13
0.3118011046
 23
0.0
 33
0.0
  0
SOLID
  5
2A7
330
29D
100
AcDbEntity
  8
0
  6
CONTINUOUS
 62
     0
100
AcDbTrace
 10
0.3118011046
 20
0.0
 30
0.0
 11
0.2651650429
 21
0.2651650429
 31
0.0
 12
0.3118011046
 22
0.2083388374
 32
0.0
 13
0.3118011046
 23
0.2083388374
 33
0.0
  0
SOLID
  5
2A8
330
29D
100
AcDbEntity
  8
0
  6
CONTINUOUS
 62
     0
100
AcDbTrace
 10
0.3118011046
 20
0.0
 30
0.0
 11
0.3118011046
 21
0.2083388374
 31
0.0
 12
0.3464548247
 22
0.0
 32
0.0
 13
0.3464548247
 23
0.0
 33
0.0
  0
SOLID
  5
2A9
330
29D
100
AcDbEntity
  8
0
  6
CONTINUOUS
 62
     0
100
AcDbTrace
 10
0.3464548247
 20
0.0
 30
0.0
 11
0.3118011046
 21
0.2083388374
 31
0.0
 12
0.3464548247
 22
0.1435062871
 32
0.0
 13
0.3464548247
 23
0.1435062871
 33
0.0
  0
SOLID
  5
2AA
330
29D
100
AcDbEntity
  8
0
  6
CONTINUOUS
 62
     0
100
AcDbTrace
 10
0.3464548247
 20
0.0
 30
0.0
 11
0.3464548247
 21
0.1435062871
 31
0.0
 12
0.3677944802
 22
0.0
 32
0.0
 13
0.3677944802
 23
0.0
 33
0.0
  0
SOLID
  5
2AB
330
29D
100
AcDbEntity
  8
0
  6
CONTINUOUS
 62
     0
100
AcDbTrace
 10
0.3677944802
 20
0.0
 30
0.0
 11
0.3464548247
 21
0.1435062871
 31
0.0
 12
0.3677944802
 22
0.0731588708
 32
0.0
 13
0.3677944802
 23
0.0731588708
 33
0.0
  0
SOLID
  5
2AC
330
29D
100
AcDbEntity
  8
0
  6
CONTINUOUS
 62
     0
100
AcDbTrace
 10
0.3677944802
 20
0.0
 30
0.0
 11
0.3677944802
 21
0.0731588708
 31
0.0
 12
0.375
 22
0.0
 32
0.0
 13
0.375
 23
0.0
 33
0.0
  0
ENDBLK
  5
2C4
330
29D
100
AcDbEntity
  8
0
100
AcDbBlockEnd
  0
BLOCK
  5
2C5
330
2AD
100
AcDbEntity
  8
0
100
AcDbBlockBegin
  2
*U31
 70
     1
 10
0.0
 20
0.0
 30
0.0
  3
*U31
  1

  0
SOLID
  5
2AE
330
2AD
100
AcDbEntity
  8
0
  6
CONTINUOUS
 62
     0
100
AcDbTrace
 10
-0.3693029074
 20
-0.0651180666
 30
0.0
 11
-0.375
 21
0.0
 31
0.0
 12
-0.3693029074
 22
0.0
 32
0.0
 13
-0.3693029074
 23
0.0
 33
0.0
  0
SOLID
  5
2AF
330
2AD
100
AcDbEntity
  8
0
  6
CONTINUOUS
 62
     0
100
AcDbTrace
 10
-0.3693029074
 20
-0.0651180666
 30
0.0
 11
-0.3693029074
 21
0.0
 31
0.0
 12
-0.3523847328
 22
-0.1282575537
 32
0.0
 13
-0.3523847328
 23
-0.1282575537
 33
0.0
  0
SOLID
  5
2B0
330
2AD
100
AcDbEntity
  8
0
  6
CONTINUOUS
 62
     0
100
AcDbTrace
 10
-0.3523847328
 20
-0.1282575537
 30
0.0
 11
-0.3693029074
 21
0.0
 31
0.0
 12
-0.3523847328
 22
0.0
 32
0.0
 13
-0.3523847328
 23
0.0
 33
0.0
  0
SOLID
  5
2B1
330
2AD
100
AcDbEntity
  8
0
  6
CONTINUOUS
 62
     0
100
AcDbTrace
 10
-0.3523847328
 20
-0.1282575537
 30
0.0
 11
-0.3523847328
 21
0.0
 31
0.0
 12
-0.3247595264
 22
-0.1875
 32
0.0
 13
-0.3247595264
 23
-0.1875
 33
0.0
  0
SOLID
  5
2B2
330
2AD
100
AcDbEntity
  8
0
  6
CONTINUOUS
 62
     0
100
AcDbTrace
 10
-0.3247595264
 20
-0.1875
 30
0.0
 11
-0.3523847328
 21
0.0
 31
0.0
 12
-0.3247595264
 22
0.0
 32
0.0
 13
-0.3247595264
 23
0.0
 33
0.0
  0
SOLID
  5
2B3
330
2AD
100
AcDbEntity
  8
0
  6
CONTINUOUS
 62
     0
100
AcDbTrace
 10
-0.3247595264
 20
-0.1875
 30
0.0
 11
-0.3247595264
 21
0.0
 31
0.0
 12
-0.2872666662
 22
-0.2410453536
 32
0.0
 13
-0.2872666662
 23
-0.2410453536
 33
0.0
  0
SOLID
  5
2B4
330
2AD
100
AcDbEntity
  8
0
  6
CONTINUOUS
 62
     0
100
AcDbTrace
 10
-0.2872666662
 20
-0.2410453536
 30
0.0
 11
-0.3247595264
 21
0.0
 31
0.0
 12
-0.2872666662
 22
0.0
 32
0.0
 13
-0.2872666662
 23
0.0
 33
0.0
  0
SOLID
  5
2B5
330
2AD
100
AcDbEntity
  8
0
  6
CONTINUOUS
 62
     0
100
AcDbTrace
 10
-0.2872666662
 20
-0.2410453536
 30
0.0
 11
-0.2872666662
 21
0.0
 31
0.0
 12
-0.2410453536
 22
-0.2872666662
 32
0.0
 13
-0.2410453536
 23
-0.2872666662
 33
0.0
  0
SOLID
  5
2B6
330
2AD
100
AcDbEntity
  8
0
  6
CONTINUOUS
 62
     0
100
AcDbTrace
 10
-0.2410453536
 20
-0.2872666662
 30
0.0
 11
-0.2872666662
 21
0.0
 31
0.0
 12
-0.2410453536
 22
0.0
 32
0.0
 13
-0.2410453536
 23
0.0
 33
0.0
  0
SOLID
  5
2B7
330
2AD
100
AcDbEntity
  8
0
  6
CONTINUOUS
 62
     0
100
AcDbTrace
 10
-0.2410453536
 20
-0.2872666662
 30
0.0
 11
-0.2410453536
 21
0.0
 31
0.0
 12
-0.1875
 22
-0.3247595264
 32
0.0
 13
-0.1875
 23
-0.3247595264
 33
0.0
  0
SOLID
  5
2B8
330
2AD
100
AcDbEntity
  8
0
  6
CONTINUOUS
 62
     0
100
AcDbTrace
 10
-0.1875
 20
-0.3247595264
 30
0.0
 11
-0.2410453536
 21
0.0
 31
0.0
 12
-0.1875
 22
0.0
 32
0.0
 13
-0.1875
 23
0.0
 33
0.0
  0
SOLID
  5
2B9
330
2AD
100
AcDbEntity
  8
0
  6
CONTINUOUS
 62
     0
100
AcDbTrace
 10
-0.1875
 20
-0.3247595264
 30
0.0
 11
-0.1875
 21
0.0
 31
0.0
 12
-0.1282575537
 22
-0.3523847328
 32
0.0
 13
-0.1282575537
 23
-0.3523847328
 33
0.0
  0
SOLID
  5
2BA
330
2AD
100
AcDbEntity
  8
0
  6
CONTINUOUS
 62
     0
100
AcDbTrace
 10
-0.1282575537
 20
-0.3523847328
 30
0.0
 11
-0.1875
 21
0.0
 31
0.0
 12
-0.1282575537
 22
0.0
 32
0.0
 13
-0.1282575537
 23
0.0
 33
0.0
  0
SOLID
  5
2BB
330
2AD
100
AcDbEntity
  8
0
  6
CONTINUOUS
 62
     0
100
AcDbTrace
 10
-0.1282575537
 20
-0.3523847328
 30
0.0
 11
-0.1282575537
 21
0.0
 31
0.0
 12
-0.0651180666
 22
-0.3693029074
 32
0.0
 13
-0.0651180666
 23
-0.3693029074
 33
0.0
  0
SOLID
  5
2BC
330
2AD
100
AcDbEntity
  8
0
  6
CONTINUOUS
 62
     0
100
AcDbTrace
 10
-0.0651180666
 20
-0.3693029074
 30
0.0
 11
-0.1282575537
 21
0.0
 31
0.0
 12
-0.0651180666
 22
0.0
 32
0.0
 13
-0.0651180666
 23
0.0
 33
0.0
  0
SOLID
  5
2BD
330
2AD
100
AcDbEntity
  8
0
  6
CONTINUOUS
 62
     0
100
AcDbTrace
 10
-0.0651180666
 20
-0.3693029074
 30
0.0
 11
-0.0651180666
 21
0.0
 31
0.0
 12
0.0
 22
-0.375
 32
0.0
 13
0.0
 23
-0.375
 33
0.0
  0
SOLID
  5
2BE
330
2AD
100
AcDbEntity
  8
0
  6
CONTINUOUS
 62
     0
100
AcDbTrace
 10
0.0
 20
-0.375
 30
0.0
 11
-0.0651180666
 21
0.0
 31
0.0
 12
0.0
 22
0.0
 32
0.0
 13
0.0
 23
0.0
 33
0.0
  0
ENDBLK
  5
2C6
330
2AD
100
AcDbEntity
  8
0
100
AcDbBlockEnd
  0
ENDSEC
  0
SECTION
  2
ENTITIES
  0
LINE
  5
76
330
1F
100
AcDbEntity
  8
0
  6
SLD-SOLID
 62
     7
100
AcDbLine
 10
9.0551181102
 20
0.561023622
 30
0.0
 11
16.1417322835
 21
0.561023622
 31
0.0
  0
LINE
  5
77
330
1F
100
AcDbEntity
  8
0
  6
SLD-SOLID
 62
     7
100
AcDbLine
 10
16.1417322835
 20
1.8996062992
 30
0.0
 11
9.0551181102
 21
1.8996062992
 31
0.0
  0
LINE
  5
78
330
1F
100
AcDbEntity
  8
0
  6
SLD-SOLID
 62
     7
100
AcDbLine
 10
9.0551181102
 20
2.5688976378
 30
0.0
 11
16.1417322835
 21
2.5688976378
 31
0.0
  0
LINE
  5
79
330
1F
100
AcDbEntity
  8
0
  6
SLD-SOLID
 62
     7
100
AcDbLine
 10
10.1177540328
 20
1.8996062992
 30
0.0
 11
10.1177540328
 21
0.3937007874
 31
0.0
  0
LINE
  5
7A
330
1F
100
AcDbEntity
  8
0
  6
SLD-SOLID
 62
     7
100
AcDbLine
 10
12.9448818898
 20
1.2303149606
 30
0.0
 11
9.0551181102
 21
1.2303149606
 31
0.0
  0
LINE
  5
7B
330
1F
100
AcDbEntity
  8
0
  6
SLD-SOLID
 62
     7
100
AcDbLine
 10
12.9448818898
 20
1.3976377953
 30
0.0
 11
9.0551181102
 21
1.3976377953
 31
0.0
  0
LINE
  5
7C
330
1F
100
AcDbEntity
  8
0
  6
SLD-SOLID
 62
     7
100
AcDbLine
 10
12.9448818898
 20
1.5649606299
 30
0.0
 11
9.0551181102
 21
1.5649606299
 31
0.0
  0
LINE
  5
7D
330
1F
100
AcDbEntity
  8
0
  6
SLD-SOLID
 62
     7
100
AcDbLine
 10
12.9448818898
 20
1.7322834646
 30
0.0
 11
9.0551181102
 21
1.7322834646
 31
0.0
  0
LINE
  5
7E
330
1F
100
AcDbEntity
  8
0
  6
SLD-SOLID
 62
     7
100
AcDbLine
 10
11.2047244094
 20
0.3937007874
 30
0.0
 11
11.2047244094
 21
1.8996062992
 31
0.0
  0
LINE
  5
7F
330
1F
100
AcDbEntity
  8
0
  6
SLD-SOLID
 62
     7
100
AcDbLine
 10
9.0551181102
 20
2.5688976378
 30
0.0
 11
9.0551181102
 21
0.3937007874
 31
0.0
  0
LINE
  5
80
330
1F
100
AcDbEntity
  8
0
  6
SLD-SOLID
 62
     7
100
AcDbLine
 10
9.3622047244
 20
1.8996062992
 30
0.0
 11
9.3622047244
 21
0.3937007874
 31
0.0
  0
LINE
  5
81
330
1F
100
AcDbEntity
  8
0
  6
SLD-SOLID
 62
     7
100
AcDbLine
 10
10.3858267717
 20
1.8996062992
 30
0.0
 11
10.3858267717
 21
2.5688976378
 31
0.0
  0
LINE
  5
82
330
1F
100
AcDbEntity
  8
0
  6
SLD-SOLID
 62
     7
100
AcDbLine
 10
10.8031073293
 20
1.8996062992
 30
0.0
 11
10.8031073293
 21
0.3937007874
 31
0.0
  0
LINE
  5
83
330
1F
100
AcDbEntity
  8
0
  6
SLD-SOLID
 62
     7
100
AcDbLine
 10
11.6141732283
 20
1.2303149606
 30
0.0
 11
11.6141732283
 21
1.8996062992
 31
0.0
  0
LINE
  5
84
330
1F
100
AcDbEntity
  8
0
  6
SLD-SOLID
 62
     7
100
AcDbLine
 10
11.2047244094
 20
0.7283464567
 30
0.0
 11
9.0551181102
 21
0.7283464567
 31
0.0
  0
LINE
  5
85
330
1F
100
AcDbEntity
  8
0
  6
SLD-SOLID
 62
     7
100
AcDbLine
 10
12.2283464567
 20
2.5688976378
 30
0.0
 11
12.2283464567
 21
1.062992126
 31
0.0
  0
LINE
  5
86
330
1F
100
AcDbEntity
  8
0
  6
SLD-SOLID
 62
     7
100
AcDbLine
 10
11.2047244094
 20
0.8956664567
 30
0.0
 11
9.0551181102
 21
0.8956664567
 31
0.0
  0
LINE
  5
87
330
1F
100
AcDbEntity
  8
0
  6
SLD-SOLID
 62
     7
100
AcDbLine
 10
11.2047244094
 20
1.062992126
 30
0.0
 11
9.0551181102
 21
1.062992126
 31
0.0
  0
LINE
  5
88
330
1F
100
AcDbEntity
  8
0
  6
SLD-SOLID
 62
     7
100
AcDbLine
 10
11.2047244094
 20
1.062992126
 30
0.0
 11
16.1417322835
 21
1.062992126
 31
0.0
  0
LINE
  5
89
330
1F
100
AcDbEntity
  8
0
  6
SLD-SOLID
 62
     7
100
AcDbLine
 10
12.9448818898
 20
2.5688976378
 30
0.0
 11
12.9448818898
 21
0.3937007874
 31
0.0
  0
LINE
  5
8A
330
1F
100
AcDbEntity
  8
0
  6
SLD-SOLID
 62
     7
100
AcDbLine
 10
14.6850393701
 20
0.3937007874
 30
0.0
 11
14.6850393701
 21
0.561023622
 31
0.0
  0
LINE
  5
8B
330
1F
100
AcDbEntity
  8
0
  6
SLD-SOLID
 62
     7
100
AcDbLine
 10
14.9921259843
 20
2.3179133858
 30
0.0
 11
14.9921259843
 21
2.5688976378
 31
0.0
  0
LINE
  5
8C
330
1F
100
AcDbEntity
  8
0
  6
SLD-SOLID
 62
     7
100
AcDbLine
 10
15.6299212598
 20
0.561023622
 30
0.0
 11
15.6299212598
 21
1.062992126
 31
0.0
  0
LINE
  5
8D
330
1F
100
AcDbEntity
  8
0
  6
SLD-SOLID
 62
     7
100
AcDbLine
 10
16.1417322835
 20
2.3179133858
 30
0.0
 11
12.9448818898
 21
2.3179133858
 31
0.0
  0
LINE
  5
8E
330
1F
100
AcDbEntity
  8
0
  6
SLD-SOLID
 62
     7
100
AcDbLine
 10
16.1417322835
 20
0.7283464567
 30
0.0
 11
15.6299212598
 21
0.7283464567
 31
0.0
  0
LINE
  5
8F
330
1F
100
AcDbEntity
  8
0
  6
SLD-SOLID
 62
     7
100
AcDbLine
 10
0.7874015748
 20
0.3937007874
 30
0.0
 11
0.7874015748
 21
11.2992125984
 31
0.0
  0
LINE
  5
90
330
1F
100
AcDbEntity
  8
0
  6
SLD-SOLID
 62
     7
100
AcDbLine
 10
0.7874015748
 20
11.2992125984
 30
0.0
 11
16.1417322835
 21
11.2992125984
 31
0.0
  0
LINE
  5
91
330
1F
100
AcDbEntity
  8
0
  6
SLD-SOLID
 62
     7
100
AcDbLine
 10
16.1417322835
 20
11.2992125984
 30
0.0
 11
16.1417322835
 21
0.3937007874
 31
0.0
  0
LINE
  5
92
330
1F
100
AcDbEntity
  8
0
  6
SLD-SOLID
 62
     7
100
AcDbLine
 10
16.1417322835
 20
0.3937007874
 30
0.0
 11
0.7874015748
 21
0.3937007874
 31
0.0
  0
LINE
  5
93
330
1F
100
AcDbEntity
  8
0
  6
SLD-SOLID
 62
     7
100
AcDbLine
 10
0.5905511811
 20
0.1968503937
 30
0.0
 11
0.5905511811
 21
11.4960629921
 31
0.0
  0
LINE
  5
94
330
1F
100
AcDbEntity
  8
0
  6
SLD-SOLID
 62
     7
100
AcDbLine
 10
0.5905511811
 20
11.4960629921
 30
0.0
 11
16.3385826772
 21
11.4960629921
 31
0.0
  0
LINE
  5
95
330
1F
100
AcDbEntity
  8
0
  6
SLD-SOLID
 62
     7
100
AcDbLine
 10
16.3385826772
 20
11.4960629921
 30
0.0
 11
16.3385826772
 21
0.1968503937
 31
0.0
  0
LINE
  5
96
330
1F
100
AcDbEntity
  8
0
  6
SLD-SOLID
 62
     7
100
AcDbLine
 10
16.3385826772
 20
0.1968503937
 30
0.0
 11
0.5905511811
 21
0.1968503937
 31
0.0
  0
LINE
  5
97
330
1F
100
AcDbEntity
  8
0
  6
SLD-SOLID
 62
     7
100
AcDbLine
 10
0.5905511811
 20
5.8464566929
 30
0.0
 11
0.9842519685
 21
5.8464566929
 31
0.0
  0
LINE
  5
98
330
1F
100
AcDbEntity
  8
0
  6
SLD-SOLID
 62
     7
100
AcDbLine
 10
8.4645669291
 20
11.4960629921
 30
0.0
 11
8.4645669291
 21
11.1023622047
 31
0.0
  0
LINE
  5
99
330
1F
100
AcDbEntity
  8
0
  6
SLD-SOLID
 62
     7
100
AcDbLine
 10
16.3385826772
 20
5.8464566929
 30
0.0
 11
15.9448818898
 21
5.8464566929
 31
0.0
  0
LINE
  5
9A
330
1F
100
AcDbEntity
  8
0
  6
SLD-SOLID
 62
     7
100
AcDbLine
 10
8.4645669291
 20
0.1968503937
 30
0.0
 11
8.4645669291
 21
0.5905511811
 31
0.0
  0
LINE
  5
9B
330
1F
100
AcDbEntity
  8
0
  6
SLD-SOLID
 62
     7
100
AcDbLine
 10
0.7874015748
 20
1.9094488189
 30
0.0
 11
0.5905511811
 21
1.9094488189
 31
0.0
  0
LINE
  5
9C
330
1F
100
AcDbEntity
  8
0
  6
SLD-SOLID
 62
     7
100
AcDbLine
 10
16.1417322835
 20
1.9094488189
 30
0.0
 11
16.3385826772
 21
1.9094488189
 31
0.0
  0
LINE
  5
9D
330
1F
100
AcDbEntity
  8
0
  6
SLD-SOLID
 62
     7
100
AcDbLine
 10
0.7874015748
 20
3.8779527559
 30
0.0
 11
0.5905511811
 21
3.8779527559
 31
0.0
  0
LINE
  5
9E
330
1F
100
AcDbEntity
  8
0
  6
SLD-SOLID
 62
     7
100
AcDbLine
 10
16.1417322835
 20
3.8779527559
 30
0.0
 11
16.3385826772
 21
3.8779527559
 31
0.0
  0
LINE
  5
9F
330
1F
100
AcDbEntity
  8
0
  6
SLD-SOLID
 62
     7
100
AcDbLine
 10
0.7874015748
 20
5.8464566929
 30
0.0
 11
0.5905511811
 21
5.8464566929
 31
0.0
  0
LINE
  5
A0
330
1F
100
AcDbEntity
  8
0
  6
SLD-SOLID
 62
     7
100
AcDbLine
 10
16.1417322835
 20
5.8464566929
 30
0.0
 11
16.3385826772
 21
5.8464566929
 31
0.0
  0
LINE
  5
A1
330
1F
100
AcDbEntity
  8
0
  6
SLD-SOLID
 62
     7
100
AcDbLine
 10
0.7874015748
 20
7.8149606299
 30
0.0
 11
0.5905511811
 21
7.8149606299
 31
0.0
  0
LINE
  5
A2
330
1F
100
AcDbEntity
  8
0
  6
SLD-SOLID
 62
     7
100
AcDbLine
 10
16.1417322835
 20
7.8149606299
 30
0.0
 11
16.3385826772
 21
7.8149606299
 31
0.0
  0
LINE
  5
A3
330
1F
100
AcDbEntity
  8
0
  6
SLD-SOLID
 62
     7
100
AcDbLine
 10
0.7874015748
 20
9.7834645669
 30
0.0
 11
0.5905511811
 21
9.7834645669
 31
0.0
  0
LINE
  5
A4
330
1F
100
AcDbEntity
  8
0
  6
SLD-SOLID
 62
     7
100
AcDbLine
 10
16.1417322835
 20
9.7834645669
 30
0.0
 11
16.3385826772
 21
9.7834645669
 31
0.0
  0
LINE
  5
A5
330
1F
100
AcDbEntity
  8
0
  6
SLD-SOLID
 62
     7
100
AcDbLine
 10
2.5590551181
 20
11.2992125984
 30
0.0
 11
2.5590551181
 21
11.4960629921
 31
0.0
  0
LINE
  5
A6
330
1F
100
AcDbEntity
  8
0
  6
SLD-SOLID
 62
     7
100
AcDbLine
 10
2.5590551181
 20
0.3937007874
 30
0.0
 11
2.5590551181
 21
0.1968503937
 31
0.0
  0
LINE
  5
A7
330
1F
100
AcDbEntity
  8
0
  6
SLD-SOLID
 62
     7
100
AcDbLine
 10
4.5275590551
 20
11.2992125984
 30
0.0
 11
4.5275590551
 21
11.4960629921
 31
0.0
  0
LINE
  5
A8
330
1F
100
AcDbEntity
  8
0
  6
SLD-SOLID
 62
     7
100
AcDbLine
 10
4.5275590551
 20
0.3937007874
 30
0.0
 11
4.5275590551
 21
0.1968503937
 31
0.0
  0
LINE
  5
A9
330
1F
100
AcDbEntity
  8
0
  6
SLD-SOLID
 62
     7
100
AcDbLine
 10
6.4960629921
 20
11.2992125984
 30
0.0
 11
6.4960629921
 21
11.4960629921
 31
0.0
  0
LINE
  5
AA
330
1F
100
AcDbEntity
  8
0
  6
SLD-SOLID
 62
     7
100
AcDbLine
 10
6.4960629921
 20
0.3937007874
 30
0.0
 11
6.4960629921
 21
0.1968503937
 31
0.0
  0
LINE
  5
AB
330
1F
100
AcDbEntity
  8
0
  6
SLD-SOLID
 62
     7
100
AcDbLine
 10
8.4645669291
 20
11.2992125984
 30
0.0
 11
8.4645669291
 21
11.4960629921
 31
0.0
  0
LINE
  5
AC
330
1F
100
AcDbEntity
  8
0
  6
SLD-SOLID
 62
     7
100
AcDbLine
 10
8.4645669291
 20
0.3937007874
 30
0.0
 11
8.4645669291
 21
0.1968503937
 31
0.0
  0
LINE
  5
AD
330
1F
100
AcDbEntity
  8
0
  6
SLD-SOLID
 62
     7
100
AcDbLine
 10
10.4330708661
 20
11.2992125984
 30
0.0
 11
10.4330708661
 21
11.4960629921
 31
0.0
  0
LINE
  5
AE
330
1F
100
AcDbEntity
  8
0
  6
SLD-SOLID
 62
     7
100
AcDbLine
 10
10.4330708661
 20
0.3937007874
 30
0.0
 11
10.4330708661
 21
0.1968503937
 31
0.0
  0
LINE
  5
AF
330
1F
100
AcDbEntity
  8
0
  6
SLD-SOLID
 62
     7
100
AcDbLine
 10
12.4015748031
 20
11.2992125984
 30
0.0
 11
12.4015748031
 21
11.4960629921
 31
0.0
  0
LINE
  5
B0
330
1F
100
AcDbEntity
  8
0
  6
SLD-SOLID
 62
     7
100
AcDbLine
 10
12.4015748031
 20
0.3937007874
 30
0.0
 11
12.4015748031
 21
0.1968503937
 31
0.0
  0
LINE
  5
B1
330
1F
100
AcDbEntity
  8
0
  6
SLD-SOLID
 62
     7
100
AcDbLine
 10
14.3700787402
 20
11.2992125984
 30
0.0
 11
14.3700787402
 21
11.4960629921
 31
0.0
  0
LINE
  5
B2
330
1F
100
AcDbEntity
  8
0
  6
SLD-SOLID
 62
     7
100
AcDbLine
 10
14.3700787402
 20
0.3937007874
 30
0.0
 11
14.3700787402
 21
0.1968503937
 31
0.0
  0
INSERT
  5
ED
330
1F
100
AcDbEntity
  8
0
  6
CONTINUOUS
 62
     7
100
AcDbBlockReference
  2
SW_NOTE_0
 10
1.5090227335
 20
1.6944001894
 30
0.0
  0
MTEXT
  5
EE
330
1F
100
AcDbEntity
  8
0
  6
CONTINUOUS
 62
     7
100
AcDbMText
 10
0.6826648875
 20
1.2071073998
 30
0.0
 40
0.15625
 41
0.0
 71
     2
 72
     1
  1
A
  7
SLDTEXTSTYLE0
  0
MTEXT
  5
EF
330
1F
100
AcDbEntity
  8
0
  6
CONTINUOUS
 62
     7
100
AcDbMText
 10
16.2338459899
 20
1.2071073998
 30
0.0
 40
0.15625
 41
0.0
 71
     2
 72
     1
  1
A
  7
SLDTEXTSTYLE0
  0
MTEXT
  5
F0
330
1F
100
AcDbEntity
  8
0
  6
CONTINUOUS
 62
     7
100
AcDbMText
 10
0.6878189695
 20
2.9831731071
 30
0.0
 40
0.15625
 41
0.0
 71
     2
 72
     1
  1
B
  7
SLDTEXTSTYLE0
  0
MTEXT
  5
F1
330
1F
100
AcDbEntity
  8
0
  6
CONTINUOUS
 62
     7
100
AcDbMText
 10
16.2390000718
 20
2.9831731071
 30
0.0
 40
0.15625
 41
0.0
 71
     2
 72
     1
  1
B
  7
SLDTEXTSTYLE0
  0
MTEXT
  5
F2
330
1F
100
AcDbEntity
  8
0
  6
CONTINUOUS
 62
     7
100
AcDbMText
 10
0.6873487757
 20
4.9516770441
 30
0.0
 40
0.15625
 41
0.0
 71
     2
 72
     1
  1
C
  7
SLDTEXTSTYLE0
  0
MTEXT
  5
F3
330
1F
100
AcDbEntity
  8
0
  6
CONTINUOUS
 62
     7
100
AcDbMText
 10
16.238529878
 20
4.9516770441
 30
0.0
 40
0.15625
 41
0.0
 71
     2
 72
     1
  1
C
  7
SLDTEXTSTYLE0
  0
MTEXT
  5
F4
330
1F
100
AcDbEntity
  8
0
  6
CONTINUOUS
 62
     7
100
AcDbMText
 10
0.6871136725
 20
6.9201809811
 30
0.0
 40
0.15625
 41
0.0
 71
     2
 72
     1
  1
D
  7
SLDTEXTSTYLE0
  0
MTEXT
  5
F5
330
1F
100
AcDbEntity
  8
0
  6
CONTINUOUS
 62
     7
100
AcDbMText
 10
16.2382947749
 20
6.9201809811
 30
0.0
 40
0.15625
 41
0.0
 71
     2
 72
     1
  1
D
  7
SLDTEXTSTYLE0
  0
MTEXT
  5
F6
330
1F
100
AcDbEntity
  8
0
  6
CONTINUOUS
 62
     7
100
AcDbMText
 10
0.6892838152
 20
8.8886849181
 30
0.0
 40
0.15625
 41
0.0
 71
     2
 72
     1
  1
E
  7
SLDTEXTSTYLE0
  0
MTEXT
  5
F7
330
1F
100
AcDbEntity
  8
0
  6
CONTINUOUS
 62
     7
100
AcDbMText
 10
16.2404649175
 20
8.8886849181
 30
0.0
 40
0.15625
 41
0.0
 71
     2
 72
     1
  1
E
  7
SLDTEXTSTYLE0
  0
MTEXT
  5
F8
330
1F
100
AcDbEntity
  8
0
  6
CONTINUOUS
 62
     7
100
AcDbMText
 10
0.6873126067
 20
10.6308109024
 30
0.0
 40
0.15625
 41
0.0
 71
     2
 72
     1
  1
F
  7
SLDTEXTSTYLE0
  0
MTEXT
  5
F9
330
1F
100
AcDbEntity
  8
0
  6
CONTINUOUS
 62
     7
100
AcDbMText
 10
16.238493709
 20
10.6308109024
 30
0.0
 40
0.15625
 41
0.0
 71
     2
 72
     1
  1
F
  7
SLDTEXTSTYLE0
  0
MTEXT
  5
FA
330
1F
100
AcDbEntity
  8
0
  6
CONTINUOUS
 62
     7
100
AcDbMText
 10
1.6716549979
 20
0.3847479103
 30
0.0
 40
0.15625
 41
0.0
 71
     2
 72
     1
  1
8
  7
SLDTEXTSTYLE0
  0
MTEXT
  5
FB
330
1F
100
AcDbEntity
  8
0
  6
CONTINUOUS
 62
     7
100
AcDbMText
 10
1.6716549979
 20
11.4531703919
 30
0.0
 40
0.15625
 41
0.0
 71
     2
 72
     1
  1
8
  7
SLDTEXTSTYLE0
  0
MTEXT
  5
FC
330
1F
100
AcDbEntity
  8
0
  6
CONTINUOUS
 62
     7
100
AcDbMText
 10
3.541733738
 20
0.3847479103
 30
0.0
 40
0.15625
 41
0.0
 71
     2
 72
     1
  1
7
  7
SLDTEXTSTYLE0
  0
MTEXT
  5
FD
330
1F
100
AcDbEntity
  8
0
  6
CONTINUOUS
 62
     7
100
AcDbMText
 10
3.541733738
 20
11.4531703919
 30
0.0
 40
0.15625
 41
0.0
 71
     2
 72
     1
  1
7
  7
SLDTEXTSTYLE0
  0
MTEXT
  5
FE
330
1F
100
AcDbEntity
  8
0
  6
CONTINUOUS
 62
     7
100
AcDbMText
 10
5.5102376751
 20
0.3847479103
 30
0.0
 40
0.15625
 41
0.0
 71
     2
 72
     1
  1
6
  7
SLDTEXTSTYLE0
  0
MTEXT
  5
FF
330
1F
100
AcDbEntity
  8
0
  6
CONTINUOUS
 62
     7
100
AcDbMText
 10
5.5102376751
 20
11.4531703919
 30
0.0
 40
0.15625
 41
0.0
 71
     2
 72
     1
  1
6
  7
SLDTEXTSTYLE0
  0
MTEXT
  5
100
330
1F
100
AcDbEntity
  8
0
  6
CONTINUOUS
 62
     7
100
AcDbMText
 10
7.4787416121
 20
0.3847479103
 30
0.0
 40
0.15625
 41
0.0
 71
     2
 72
     1
  1
5
  7
SLDTEXTSTYLE0
  0
MTEXT
  5
101
330
1F
100
AcDbEntity
  8
0
  6
CONTINUOUS
 62
     7
100
AcDbMText
 10
7.4787416121
 20
11.4531703919
 30
0.0
 40
0.15625
 41
0.0
 71
     2
 72
     1
  1
5
  7
SLDTEXTSTYLE0
  0
MTEXT
  5
102
330
1F
100
AcDbEntity
  8
0
  6
CONTINUOUS
 62
     7
100
AcDbMText
 10
9.4472455491
 20
0.3847479103
 30
0.0
 40
0.15625
 41
0.0
 71
     2
 72
     1
  1
4
  7
SLDTEXTSTYLE0
  0
MTEXT
  5
103
330
1F
100
AcDbEntity
  8
0
  6
CONTINUOUS
 62
     7
100
AcDbMText
 10
9.4472455491
 20
11.4531703919
 30
0.0
 40
0.15625
 41
0.0
 71
     2
 72
     1
  1
4
  7
SLDTEXTSTYLE0
  0
MTEXT
  5
104
330
1F
100
AcDbEntity
  8
0
  6
CONTINUOUS
 62
     7
100
AcDbMText
 10
11.4157494861
 20
0.3847479103
 30
0.0
 40
0.15625
 41
0.0
 71
     2
 72
     1
  1
3
  7
SLDTEXTSTYLE0
  0
MTEXT
  5
105
330
1F
100
AcDbEntity
  8
0
  6
CONTINUOUS
 62
     7
100
AcDbMText
 10
11.4157494861
 20
11.4531703919
 30
0.0
 40
0.15625
 41
0.0
 71
     2
 72
     1
  1
3
  7
SLDTEXTSTYLE0
  0
MTEXT
  5
106
330
1F
100
AcDbEntity
  8
0
  6
CONTINUOUS
 62
     7
100
AcDbMText
 10
13.3842534231
 20
0.3847479103
 30
0.0
 40
0.15625
 41
0.0
 71
     2
 72
     1
  1
2
  7
SLDTEXTSTYLE0
  0
MTEXT
  5
107
330
1F
100
AcDbEntity
  8
0
  6
CONTINUOUS
 62
     7
100
AcDbMText
 10
13.3842534231
 20
11.4531703919
 30
0.0
 40
0.15625
 41
0.0
 71
     2
 72
     1
  1
2
  7
SLDTEXTSTYLE0
  0
MTEXT
  5
108
330
1F
100
AcDbEntity
  8
0
  6
CONTINUOUS
 62
     7
100
AcDbMText
 10
15.2543321632
 20
0.3847479103
 30
0.0
 40
0.15625
 41
0.0
 71
     2
 72
     1
  1
1
  7
SLDTEXTSTYLE0
  0
MTEXT
  5
109
330
1F
100
AcDbEntity
  8
0
  6
CONTINUOUS
 62
     7
100
AcDbMText
 10
15.2543321632
 20
11.4531703919
 30
0.0
 40
0.15625
 41
0.0
 71
     2
 72
     1
  1
1
  7
SLDTEXTSTYLE0
  0
MTEXT
  5
10B
330
1F
100
AcDbEntity
  8
0
  6
CONTINUOUS
 62
     7
100
AcDbMText
 10
9.0804473582
 20
1.6686921778
 30
0.0
 40
0.0590551181
 41
0.0
 71
     1
 72
     1
  1
DRAWN
  7
SLDTEXTSTYLE1
  0
MTEXT
  5
10C
330
1F
100
AcDbEntity
  8
0
  6
CONTINUOUS
 62
     7
100
AcDbMText
 10
9.092095362
 20
1.5024351582
 30
0.0
 40
0.0590551181
 41
0.0
 71
     1
 72
     1
  1
CHK'D
  7
SLDTEXTSTYLE0
  0
MTEXT
  5
10D
330
1F
100
AcDbEntity
  8
0
  6
CONTINUOUS
 62
     7
100
AcDbMText
 10
9.0709339531
 20
1.3411758514
 30
0.0
 40
0.0590551181
 41
0.0
 71
     1
 72
     1
  1
APPV'D
  7
SLDTEXTSTYLE0
  0
MTEXT
  5
10E
330
1F
100
AcDbEntity
  8
0
  6
CONTINUOUS
 62
     7
100
AcDbMText
 10
9.0993705015
 20
1.169912774
 30
0.0
 40
0.0590551181
 41
0.0
 71
     1
 72
     1
  1
MFG
  7
SLDTEXTSTYLE0
  0
MTEXT
  5
10F
330
1F
100
AcDbEntity
  8
0
  6
CONTINUOUS
 62
     7
100
AcDbMText
 10
9.1145290002
 20
1.0041205564
 30
0.0
 40
0.0590551181
 41
0.0
 71
     1
 72
     1
  1
Q.A
  7
SLDTEXTSTYLE0
  0
INSERT
  5
119
330
1F
100
AcDbEntity
  8
0
  6
CONTINUOUS
 62
     7
100
AcDbBlockReference
  2
SW_NOTE_0_1
 10
9.0784908955
 20
2.4404476328
 30
0.0
  0
MTEXT
  5
11A
330
1F
100
AcDbEntity
  8
0
  6
CONTINUOUS
 62
     7
100
AcDbMText
 10
10.4083185892
 20
2.5165067715
 30
0.0
 40
0.0590551181
 41
0.0
 71
     1
 72
     1
  1
FINISH:
  7
SLDTEXTSTYLE0
  0
INSERT
  5
121
330
1F
100
AcDbEntity
  8
0
  6
CONTINUOUS
 62
     7
100
AcDbBlockReference
  2
SW_NOTE_0_2
 10
12.2562683341
 20
2.4436806946
 30
0.0
  0
MTEXT
  5
122
330
1F
100
AcDbEntity
  8
0
  6
CONTINUOUS
 62
     7
100
AcDbMText
 10
9.618985796
 20
1.8307670328
 30
0.0
 40
0.0590551181
 41
0.0
 71
     1
 72
     1
  1
NAME
  7
SLDTEXTSTYLE0
  0
MTEXT
  5
123
330
1F
100
AcDbEntity
  8
0
  6
CONTINUOUS
 62
     7
100
AcDbMText
 10
10.2375428174
 20
1.8331400149
 30
0.0
 40
0.0590551181
 41
0.0
 71
     1
 72
     1
  1
SIGNATURE
  7
SLDTEXTSTYLE0
  0
MTEXT
  5
124
330
1F
100
AcDbEntity
  8
0
  6
CONTINUOUS
 62
     7
100
AcDbMText
 10
10.9139646443
 20
1.8337078434
 30
0.0
 40
0.0590551181
 41
0.0
 71
     1
 72
     1
  1
DATE
  7
SLDTEXTSTYLE0
  0
MTEXT
  5
125
330
1F
100
AcDbEntity
  8
0
  6
CONTINUOUS
 62
     7
100
AcDbMText
 10
11.2459000909
 20
1.0230730823
 30
0.0
 40
0.0590551181
 41
0.0
 71
     1
 72
     1
  1
MATERIAL:
  7
SLDTEXTSTYLE0
  0
MTEXT
  5
126
330
1F
100
AcDbEntity
  8
0
  6
CONTINUOUS
 62
     7
100
AcDbMText
 10
13.4887653749
 20
2.4619288809
 30
0.0
 40
0.0590551181
 41
0.0
 71
     1
 72
     1
  1
DO NOT SCALE DRAWING
  7
SLDTEXTSTYLE0
  0
MTEXT
  5
127
330
1F
100
AcDbEntity
  8
0
  6
CONTINUOUS
 62
     7
100
AcDbMText
 10
15.0916370748
 20
2.454130263
 30
0.0
 40
0.0590551181
 41
0.0
 71
     1
 72
     1
  1
REVISION
  7
SLDTEXTSTYLE0
  0
MTEXT
  5
128
330
1F
100
AcDbEntity
  8
0
  6
CONTINUOUS
 62
     7
100
AcDbMText
 10
12.9956756157
 20
1.8337078434
 30
0.0
 40
0.0590551181
 41
0.0
 71
     1
 72
     1
  1
TITLE:
  7
SLDTEXTSTYLE0
  0
MTEXT
  5
129
330
1F
100
AcDbEntity
  8
0
  6
CONTINUOUS
 62
     7
100
AcDbMText
 10
12.9902756778
 20
1.0230730823
 30
0.0
 40
0.0590551181
 41
0.0
 71
     1
 72
     1
  1
DWG NO.
  7
SLDTEXTSTYLE0
  0
MTEXT
  5
12A
330
1F
100
AcDbEntity
  8
0
  6
CONTINUOUS
 62
     7
100
AcDbMText
 10
12.9950380361
 20
0.5078774518
 30
0.0
 40
0.0590551181
 41
0.0
 71
     1
 72
     1
  1
SCALE:2:1
  7
SLDTEXTSTYLE0
  0
MTEXT
  5
12C
330
1F
100
AcDbEntity
  8
0
  6
CONTINUOUS
 62
     7
100
AcDbMText
 10
14.7432399381
 20
0.5078774518
 30
0.0
 40
0.0590551181
 41
0.0
 71
     1
 72
     1
  1
SHEET 1 OF 1
  7
SLDTEXTSTYLE2
  0
MTEXT
  5
12D
330
1F
100
AcDbEntity
  8
0
  6
CONTINUOUS
 62
     7
100
AcDbMText
 10
15.7823289935
 20
0.9608814397
 30
0.0
 40
0.1145833333
 41
0.0
 71
     1
 72
     1
  1
A3
  7
SLDTEXTSTYLE0
  0
MTEXT
  5
12E
330
1F
100
AcDbEntity
  8
0
  6
CONTINUOUS
 62
     7
100
AcDbMText
 10
11.2447957137
 20
0.5098154293
 30
0.0
 40
0.059
 41
0.0
 71
     1
 72
     1
  1
WEIGHT:
  7
SLDTEXTSTYLE0
  0
MTEXT
  5
12F
330
1F
100
AcDbEntity
  8
0
  6
CONTINUOUS
 62
     7
100
AcDbMText
 10
14.3470039545
 20
0.9294059436
 30
0.0
 40
0.25
 41
0.0
 71
     2
 72
     1
  1
LAS-01-0002
  7
SLDTEXTSTYLE0
  0
INSERT
  5
135
330
1F
100
AcDbEntity
  8
0
  6
CONTINUOUS
 62
     7
100
AcDbBlockReference
  2
SW_NOTE_0_3
 10
13.5702277145
 20
1.432524045
 30
0.0
  0
LINE
  5
136
330
1F
100
AcDbEntity
  8
0
  6
SLD-SOLID
 62
     7
100
AcDbLine
 10
7.2290287842
 20
8.6013568263
 30
0.0
 11
6.9740717863
 21
8.6013568263
 31
0.0
  0
LINE
  5
137
330
1F
100
AcDbEntity
  8
0
  6
SLD-SOLID
 62
     7
100
AcDbLine
 10
8.2732843847
 20
8.6013568263
 30
0.0
 11
7.9789930461
 21
8.6013568263
 31
0.0
  0
LINE
  5
138
330
1F
100
AcDbEntity
  8
0
  6
SLD-SOLID
 62
     7
100
AcDbLine
 10
6.8165914713
 20
7.3730103696
 30
0.0
 11
6.9740717863
 21
7.3730103696
 31
0.0
  0
LINE
  5
139
330
1F
100
AcDbEntity
  8
0
  6
SLD-SOLID
 62
     7
100
AcDbLine
 10
6.9740717863
 20
8.4123804484
 30
0.0
 11
6.8165914713
 21
8.4123804484
 31
0.0
  0
LINE
  5
13A
330
1F
100
AcDbEntity
  8
0
  6
SLD-SOLID
 62
     7
100
AcDbLine
 10
8.2732843847
 20
7.5777347791
 30
0.0
 11
9.4937568256
 21
7.5777347791
 31
0.0
  0
LINE
  5
13B
330
1F
100
AcDbEntity
  8
0
  6
SLD-SOLID
 62
     7
100
AcDbLine
 10
9.4937568256
 20
8.2076560389
 30
0.0
 11
8.2732843847
 21
8.2076560389
 31
0.0
  0
LINE
  5
13C
330
1F
100
AcDbEntity
  8
0
  6
SLD-SOLID
 62
     7
100
AcDbLine
 10
6.3047804477
 20
7.5777347791
 30
0.0
 11
6.8165914713
 21
7.5777347791
 31
0.0
  0
LINE
  5
13D
330
1F
100
AcDbEntity
  8
0
  6
SLD-SOLID
 62
     7
100
AcDbLine
 10
6.8165914713
 20
8.2076560389
 30
0.0
 11
6.3047804477
 21
8.2076560389
 31
0.0
  0
CIRCLE
  5
13E
330
1F
100
AcDbEntity
  8
0
  6
SLD-SOLID
 62
     7
100
AcDbCircle
 10
7.6039930461
 20
7.892695409
 30
0.0
 40
0.125
  0
CIRCLE
  5
13F
330
1F
100
AcDbEntity
  8
0
  6
SLD-SOLID
 62
     7
100
AcDbCircle
 10
7.6039930461
 20
7.892695409
 30
0.0
 40
0.1643700787401574
  0
LINE
  5
140
330
1F
100
AcDbEntity
  8
0
  6
SLD-SOLID
 62
     7
100
AcDbLine
 10
8.2732843847
 20
8.2173493953
 30
0.0
 11
6.9740717863
 21
8.2173493953
 31
0.0
  0
SPLINE
  5
141
330
1F
100
AcDbEntity
  8
0
  6
SLD-SOLID
 62
     7
100
AcDbSpline
210
0.0
220
0.0
230
1.0
 70
     8
 71
     3
 72
    41
 73
    37
 74
     0
 42
0.00000001
 43
0.00000001
 40
0.0
 40
0.0
 40
0.0
 40
0.0
 40
0.0239983204660369
 40
0.0483687525091569
 40
0.0729266554967211
 40
0.0978636254454567
 40
0.1218591209497787
 40
0.1705905895922792
 40
0.1953587573378159
 40
0.2209561639481569
 40
0.2728912813277629
 40
0.2992738772353711
 40
0.3270374446523719
 40
0.3550035918361542
 40
0.3836517010715816
 40
0.4125604478726657
 40
0.4384722922167587
 40
0.4646125254430282
 40
0.4915179041499125
 40
0.5187037962461122
 40
0.552514391715488
 40
0.5868607544713188
 40
0.6101108303229348
 40
0.6563261938126655
 40
0.7035722352823336
 40
0.7299216447872185
 40
0.7564337980906202
 40
0.7834577113191387
 40
0.8106619240335856
 40
0.8383919554115543
 40
0.866337842223444
 40
0.8950099052020734
 40
0.9239547635124005
 40
0.9491898278737582
 40
0.9748531439293051
 40
1.0
 40
1.0
 40
1.0
 40
1.0
 10
7.978993046113468
 20
8.601356826335616
 30
0.0
 10
7.978779182477161
 20
8.601243537588317
 30
0.0
 10
7.97834813909186
 20
8.601015203468519
 30
0.0
 10
7.97484332595529
 20
8.599166222635048
 30
0.0
 10
7.969194173730494
 20
8.596212907963086
 30
0.0
 10
7.961317847073386
 20
8.592150434392606
 30
0.0
 10
7.948085997556158
 20
8.585452134984614
 30
0.0
 10
7.930894697525368
 20
8.577023878200777
 30
0.0
 10
7.90981866557357
 20
8.56725400706059
 30
0.0
 10
7.885640044756292
 20
8.556528780012403
 30
0.0
 10
7.857463384704461
 20
8.544975598805854
 30
0.0
 10
7.825489500522107
 20
8.533358716869746
 30
0.0
 10
7.799094090564974
 20
8.524684008370848
 30
0.0
 10
7.770366325026719
 20
8.51638105326434
 30
0.0
 10
7.739743180813869
 20
8.508882961940886
 30
0.0
 10
7.708548436536533
 20
8.50276915904041
 30
0.0
 10
7.677312246795149
 20
8.49820856815147
 30
0.0
 10
7.646167537128959
 20
8.495208841617043
 30
0.0
 10
7.614094930819278
 20
8.49379862613765
 30
0.0
 10
7.578842397564244
 20
8.494159710559044
 30
0.0
 10
7.540904910318546
 20
8.496864548853267
 30
0.0
 10
7.50543066525753
 20
8.501741889603347
 30
0.0
 10
7.466489012305989
 20
8.509127159809376
 30
0.0
 10
7.424783677787731
 20
8.519579868313873
 30
0.0
 10
7.385625801114445
 20
8.532161742226956
 30
0.0
 10
7.355670848997777
 20
8.543149500192607
 30
0.0
 10
7.333431202147162
 20
8.551976846400086
 30
0.0
 10
7.312770979325575
 20
8.560737455828766
 30
0.0
 10
7.293787606948959
 20
8.569243996904362
 30
0.0
 10
7.276763031542677
 20
8.577231711505823
 30
0.0
 10
7.261827301881744
 20
8.58450891313434
 30
0.0
 10
7.24930870914485
 20
8.590797124481561
 30
0.0
 10
7.239918034964774
 20
8.59562677156303
 30
0.0
 10
7.233541052542575
 20
8.598956525226862
 30
0.0
 10
7.229692952836188
 20
8.600986021838747
 30
0.0
 10
7.229248668463861
 20
8.60122142913321
 30
0.0
 10
7.229028784241907
 20
8.60133793638174
 30
0.0
  0
LINE
  5
142
330
1F
100
AcDbEntity
  8
0
  6
SLD-SOLID
 62
     7
100
AcDbLine
 10
8.2732843847
 20
8.2173493953
 30
0.0
 11
8.2732843847
 21
8.6013568263
 31
0.0
  0
LINE
  5
143
330
1F
100
AcDbEntity
  8
0
  6
SLD-SOLID
 62
     7
100
AcDbLine
 10
6.9740717863
 20
8.2173493953
 30
0.0
 11
6.9740717863
 21
8.6013568263
 31
0.0
  0
LINE
  5
144
330
1F
100
AcDbEntity
  8
0
  6
SLD-SOLID
 62
     7
100
AcDbLine
 10
6.9740717863
 20
7.5680414227
 30
0.0
 11
8.2732843847
 21
7.5680414227
 31
0.0
  0
LINE
  5
145
330
1F
100
AcDbEntity
  8
0
  6
SLD-SOLID
 62
     7
100
AcDbLine
 10
8.2732843847
 20
7.5680414227
 30
0.0
 11
8.2732843847
 21
8.2173493953
 31
0.0
  0
LINE
  5
146
330
1F
100
AcDbEntity
  8
0
  6
SLD-SOLID
 62
     7
100
AcDbLine
 10
6.9740717863
 20
7.5680414227
 30
0.0
 11
6.9740717863
 21
8.2173493953
 31
0.0
  0
LINE
  5
147
330
1F
100
AcDbEntity
  8
0
  6
SLD-SOLID
 62
     7
100
AcDbLine
 10
8.2732843847
 20
7.3021442279
 30
0.0
 11
6.9740717863
 21
7.3021442279
 31
0.0
  0
LINE
  5
148
330
1F
100
AcDbEntity
  8
0
  6
SLD-SOLID
 62
     7
100
AcDbLine
 10
8.2732843847
 20
7.3021442279
 30
0.0
 11
8.2732843847
 21
7.5680414227
 31
0.0
  0
LINE
  5
149
330
1F
100
AcDbEntity
  8
0
  6
SLD-SOLID
 62
     7
100
AcDbLine
 10
6.9740717863
 20
7.3021442279
 30
0.0
 11
6.9740717863
 21
7.5680414227
 31
0.0
  0
LINE
  5
14A
330
1F
100
AcDbEntity
  8
0
  6
SLD-SOLID
 62
     7
100
AcDbLine
 10
6.8165914713
 20
7.3730103696
 30
0.0
 11
6.8165914713
 21
8.4123804484
 31
0.0
  0
LINE
  5
14B
330
1F
100
AcDbEntity
  8
0
  6
SLD-SOLID
 62
     7
100
AcDbLine
 10
9.4937568256
 20
7.5777347791
 30
0.0
 11
9.4937568256
 21
8.2076560389
 31
0.0
  0
LINE
  5
14C
330
1F
100
AcDbEntity
  8
0
  6
SLD-SOLID
 62
     7
100
AcDbLine
 10
6.3047804477
 20
7.5777347791
 30
0.0
 11
6.3047804477
 21
8.2076560389
 31
0.0
  0
DIMENSION
  5
14D
330
1F
100
AcDbEntity
  8
0
  6
SLD-SOLID
 62
     7
100
AcDbDimension
  2
_D
 10
10.3598985579
 20
8.2076560389
 30
0.0
 11
10.3598985579
 21
9.4674985586
 31
0.0
 70
   160
  1
%%c<>h7
  3
SLDDIMSTYLE0
100
AcDbAlignedDimension
 13
9.4937568256
 23
7.5777347791
 33
0.0
 14
9.4937568256
 24
8.2076560389
 34
0.0
 50
90.0
100
AcDbRotatedDimension
  0
DIMENSION
  5
160
330
1F
100
AcDbEntity
  8
0
  6
SLD-SOLID
 62
     7
100
AcDbDimension
  2
_D_1
 10
7.5427288951
 20
7.7837380605
 30
0.0
 11
10.2038249534
 21
10.0885086713
 31
0.0
 70
   163
  1
<> THRU ALL\P
  3
SLDDIMSTYLE1
100
AcDbDiametricDimension
 15
7.6652571971
 25
8.0016527576
 35
0.0
 40
0.0
  0
DIMENSION
  5
170
330
1F
100
AcDbEntity
  8
0
  6
SLD-SOLID
 62
     7
100
AcDbDimension
  2
_D_2
 10
5.9110796603
 20
8.2076560389
 30
0.0
 11
5.9110796603
 21
7.1969009204
 31
0.0
 70
   160
  1
%%c<>h7
  3
SLDDIMSTYLE0
100
AcDbAlignedDimension
 13
6.3047804477
 23
7.5777347791
 33
0.0
 14
6.3047804477
 24
8.2076560389
 34
0.0
 50
90.0
100
AcDbRotatedDimension
  0
TOLERANCE
  5
187
330
1F
100
AcDbEntity
  8
0
  6
SLD-SOLID
 62
     7
100
AcDbFcf
  3
SLDDIMSTYLE2
 10
3.7126125587
 20
9.9972911035
 30
0.0
  1
{\Fgdt;d}%%v.005%%v%%vA-B%%vC%%v%%v^J
  0
LEADER
  5
189
330
1F
100
AcDbEntity
  8
0
  6
SLD-SOLID
 62
     7
100
AcDbLeader
  3
SLDDIMSTYLE3
 76
     2
 10
6.8165914713
 20
8.2256409939
 30
0.0
 10
5.1982102149
 20
9.9972911035
 30
0.0
1001
ACAD
1000
DSTYLE
1002
{
1070
     6
1000

1002
}
  0
LEADER
  5
18A
330
1F
100
AcDbEntity
  8
0
  6
SLD-SOLID
 62
     7
100
AcDbLeader
  3
SLDDIMSTYLE3
 76
     2
 10
6.3047804477
 20
8.0123328493
 30
0.0
 10
5.1982102149
 20
9.9972911035
 30
0.0
1001
ACAD
1000
DSTYLE
1002
{
1070
     6
1000

1002
}
  0
TOLERANCE
  5
18C
330
1F
100
AcDbEntity
  8
0
  6
SLD-SOLID
 62
     7
100
AcDbFcf
  3
SLDDIMSTYLE4
 10
9.0886471293
 20
9.7890814463
 30
0.0
  1
{\Fgdt;j}%%v{\Fgdt;n}.005%%v%%vA-B%%vC%%v%%v^J
  0
TOLERANCE
  5
18D
330
1F
100
AcDbEntity
  8
0
  6
SLD-SOLID
 62
     7
100
AcDbFcf
  3
SLDDIMSTYLE2
 10
4.3363797929
 20
6.9102689709
 30
0.0
  1
{\Fgdt;t}%%v.001%%v%%vA-B%%v%%v%%v^J
  0
TOLERANCE
  5
18E
330
1F
100
AcDbEntity
  8
0
  6
SLD-SOLID
 62
     7
100
AcDbFcf
  3
SLDDIMSTYLE2
 10
10.6098985579
 20
9.1808666091
 30
0.0
  1
{\Fgdt;t}%%v.001%%v%%vA-B%%v%%v%%v^J
  0
INSERT
  5
199
330
1F
100
AcDbEntity
  8
0
  6
CONTINUOUS
 62
     7
100
AcDbBlockReference
  2
SW_DATUMTAG_0
 10
10.7585907378
 20
7.7860382283
 30
0.0
  0
INSERT
  5
1A4
330
1F
100
AcDbEntity
  8
0
  6
CONTINUOUS
 62
     7
100
AcDbBlockReference
  2
SW_DATUMTAG_1
 10
5.358380308
 20
7.7796920731
 30
0.0
  0
INSERT
  5
1AB
330
1F
100
AcDbEntity
  8
0
  6
CONTINUOUS
 62
     7
100
AcDbBlockReference
  2
SW_DOWELSYMBOL_0
 10
7.6039930461
 20
7.892695409
 30
0.0
  0
LINE
  5
1AC
330
1F
100
AcDbEntity
  8
0
  6
SLD-SOLID
 62
     7
100
AcDbLine
 10
6.8165914713
 20
4.0127910991
 30
0.0
 11
6.9740717863
 21
4.0127910991
 31
0.0
  0
LINE
  5
1AD
330
1F
100
AcDbEntity
  8
0
  6
SLD-SOLID
 62
     7
100
AcDbLine
 10
6.9740717863
 20
5.0521611778
 30
0.0
 11
6.8165914713
 21
5.0521611778
 31
0.0
  0
LINE
  5
1AE
330
1F
100
AcDbEntity
  8
0
  6
SLD-SOLID
 62
     7
100
AcDbLine
 10
8.2732843847
 20
4.2175155085
 30
0.0
 11
9.4937568256
 21
4.2175155085
 31
0.0
  0
LINE
  5
1AF
330
1F
100
AcDbEntity
  8
0
  6
SLD-SOLID
 62
     7
100
AcDbLine
 10
9.4937568256
 20
4.8474367684
 30
0.0
 11
8.2732843847
 21
4.8474367684
 31
0.0
  0
LINE
  5
1B0
330
1F
100
AcDbEntity
  8
0
  6
SLD-SOLID
 62
     7
100
AcDbLine
 10
6.3047804477
 20
4.2175155085
 30
0.0
 11
6.8165914713
 21
4.2175155085
 31
0.0
  0
LINE
  5
1B1
330
1F
100
AcDbEntity
  8
0
  6
SLD-SOLID
 62
     7
100
AcDbLine
 10
6.8165914713
 20
4.8474367684
 30
0.0
 11
6.3047804477
 21
4.8474367684
 31
0.0
  0
LINE
  5
1B2
330
1F
100
AcDbEntity
  8
0
  6
SLD-SOLID
 62
     7
100
AcDbLine
 10
6.9740717863
 20
4.140748801
 30
0.0
 11
8.2732843847
 21
4.140748801
 31
0.0
  0
LINE
  5
1B3
330
1F
100
AcDbEntity
  8
0
  6
SLD-SOLID
 62
     7
100
AcDbLine
 10
8.2732843847
 20
3.9025548786
 30
0.0
 11
6.9740717863
 21
3.9025548786
 31
0.0
  0
LINE
  5
1B4
330
1F
100
AcDbEntity
  8
0
  6
SLD-SOLID
 62
     7
100
AcDbLine
 10
8.2732843847
 20
3.9025548786
 30
0.0
 11
8.2732843847
 21
4.140748801
 31
0.0
  0
LINE
  5
1B5
330
1F
100
AcDbEntity
  8
0
  6
SLD-SOLID
 62
     7
100
AcDbLine
 10
6.9740717863
 20
3.9025548786
 30
0.0
 11
6.9740717863
 21
4.140748801
 31
0.0
  0
LINE
  5
1B6
330
1F
100
AcDbEntity
  8
0
  6
SLD-SOLID
 62
     7
100
AcDbLine
 10
8.2732843847
 20
4.9242034759
 30
0.0
 11
6.9740717863
 21
4.9242034759
 31
0.0
  0
LINE
  5
1B7
330
1F
100
AcDbEntity
  8
0
  6
SLD-SOLID
 62
     7
100
AcDbLine
 10
6.9740717863
 20
5.1623973983
 30
0.0
 11
8.2732843847
 21
5.1623973983
 31
0.0
  0
LINE
  5
1B8
330
1F
100
AcDbEntity
  8
0
  6
SLD-SOLID
 62
     7
100
AcDbLine
 10
8.2732843847
 20
4.9242034759
 30
0.0
 11
8.2732843847
 21
5.1623973983
 31
0.0
  0
LINE
  5
1B9
330
1F
100
AcDbEntity
  8
0
  6
SLD-SOLID
 62
     7
100
AcDbLine
 10
6.9740717863
 20
4.9242034759
 30
0.0
 11
6.9740717863
 21
5.1623973983
 31
0.0
  0
CIRCLE
  5
1BA
330
1F
100
AcDbEntity
  8
0
  6
SLD-SOLID
 62
     7
100
AcDbCircle
 10
7.6039930461
 20
4.5324761384
 30
0.0
 40
0.375
  0
LINE
  5
1BB
330
1F
100
AcDbEntity
  8
0
  6
SLD-SOLID
 62
     7
100
AcDbLine
 10
8.2732843847
 20
4.140748801
 30
0.0
 11
8.2732843847
 21
4.9242034759
 31
0.0
  0
LINE
  5
1BC
330
1F
100
AcDbEntity
  8
0
  6
SLD-SOLID
 62
     7
100
AcDbLine
 10
6.9740717863
 20
4.9242034759
 30
0.0
 11
6.9740717863
 21
4.140748801
 31
0.0
  0
LINE
  5
1BD
330
1F
100
AcDbEntity
  8
0
  6
SLD-SOLID
 62
     7
100
AcDbLine
 10
6.8165914713
 20
4.5324761384
 30
0.0
 11
6.8165914713
 21
5.0521611778
 31
0.0
  0
LINE
  5
1BE
330
1F
100
AcDbEntity
  8
0
  6
SLD-SOLID
 62
     7
100
AcDbLine
 10
6.8165914713
 20
4.0127910991
 30
0.0
 11
6.8165914713
 21
4.5324761384
 31
0.0
  0
LINE
  5
1BF
330
1F
100
AcDbEntity
  8
0
  6
SLD-SOLID
 62
     7
100
AcDbLine
 10
9.4937568256
 20
4.5324761384
 30
0.0
 11
9.4937568256
 21
4.8474367684
 31
0.0
  0
LINE
  5
1C0
330
1F
100
AcDbEntity
  8
0
  6
SLD-SOLID
 62
     7
100
AcDbLine
 10
9.4937568256
 20
4.2175155085
 30
0.0
 11
9.4937568256
 21
4.5324761384
 31
0.0
  0
LINE
  5
1C1
330
1F
100
AcDbEntity
  8
0
  6
SLD-SOLID
 62
     7
100
AcDbLine
 10
6.3047804477
 20
4.5324761384
 30
0.0
 11
6.3047804477
 21
4.8474367684
 31
0.0
  0
LINE
  5
1C2
330
1F
100
AcDbEntity
  8
0
  6
SLD-SOLID
 62
     7
100
AcDbLine
 10
6.3047804477
 20
4.2175155085
 30
0.0
 11
6.3047804477
 21
4.5324761384
 31
0.0
  0
DIMENSION
  5
1C3
330
1F
100
AcDbEntity
  8
0
  6
SLD-SOLID
 62
     7
100
AcDbDimension
  2
_D_3
 10
6.3047804477
 20
4.2175155085
 30
0.0
 11
6.3047804477
 21
3.2443292159
 31
0.0
 70
   102
  1
<>
  3
SLDDIMSTYLE5
100
AcDbOrdinateDimension
 13
6.3047804477
 23
4.2175155085
 33
0.0
 14
6.3047804477
 24
3.4567424088
 34
0.0
  0
DIMENSION
  5
1CE
330
1F
100
AcDbEntity
  8
0
  6
SLD-SOLID
 62
     7
100
AcDbDimension
  2
_D_4
 10
6.3047804477
 20
4.2175155085
 30
0.0
 11
6.7951206883
 21
3.2443292159
 31
0.0
 70
   102
  1
<>
  3
SLDDIMSTYLE6
100
AcDbOrdinateDimension
 13
6.8165914713
 23
4.0127910991
 33
0.0
 14
6.7951206883
 24
3.4567424088
 34
0.0
  0
DIMENSION
  5
1DB
330
1F
100
AcDbEntity
  8
0
  6
SLD-SOLID
 62
     7
100
AcDbDimension
  2
_D_5
 10
6.3047804477
 20
4.2175155085
 30
0.0
 11
7.1621171888
 21
3.2443292159
 31
0.0
 70
   102
  1
<>
  3
SLDDIMSTYLE6
100
AcDbOrdinateDimension
 13
6.9740717863
 23
4.9242034759
 33
0.0
 14
7.1621171888
 24
3.4567424088
 34
0.0
  0
DIMENSION
  5
1E7
330
1F
100
AcDbEntity
  8
0
  6
SLD-SOLID
 62
     7
100
AcDbDimension
  2
_D_6
 10
6.3047804477
 20
4.2175155085
 30
0.0
 11
7.6039930461
 21
3.2443292159
 31
0.0
 70
   102
  1
<>
  3
SLDDIMSTYLE5
100
AcDbOrdinateDimension
 13
7.6039930461
 23
4.5324761384
 33
0.0
 14
7.6039930461
 24
3.4567424088
 34
0.0
  0
DIMENSION
  5
1F1
330
1F
100
AcDbEntity
  8
0
  6
SLD-SOLID
 62
     7
100
AcDbDimension
  2
_D_7
 10
6.3047804477
 20
4.2175155085
 30
0.0
 11
8.2736441963
 21
3.2443292159
 31
0.0
 70
   102
  1
<>
  3
SLDDIMSTYLE6
100
AcDbOrdinateDimension
 13
8.2732843847
 23
4.9242034759
 33
0.0
 14
8.2736441963
 24
3.4567424088
 34
0.0
  0
DIMENSION
  5
1FD
330
1F
100
AcDbEntity
  8
0
  6
SLD-SOLID
 62
     7
100
AcDbDimension
  2
_D_8
 10
6.3047804477
 20
4.2175155085
 30
0.0
 11
9.4937568256
 21
3.1981486694
 31
0.0
 70
   102
  1
<>
  3
SLDDIMSTYLE6
100
AcDbOrdinateDimension
 13
9.4937568256
 23
4.2175155085
 33
0.0
 14
9.4937568256
 24
3.4567424088
 34
0.0
  0
DIMENSION
  5
207
330
1F
100
AcDbEntity
  8
0
  6
SLD-SOLID
 62
     7
100
AcDbDimension
 10
7.4000255882
 20
4.2177980869
 30
0.0
 11
10.0694604665
 21
6.2299870549
 31
0.0
 70
   163
  1
<> THRU ALL\P
  3
STANDARD
100
AcDbDiametricDimension
 15
7.807960504
 25
4.84715419
 35
0.0
 40
0.0
1001
ACAD
1000
DSTYLE
1002
{
1070
   179
1070
     2
1070
    41
1040
0.13
1070
   271
1070
     3
1070
    44
1040
0.125
1070
    42
1040
0.05
1070
   147
1040
0.06
1070
   144
1040
0.5
1070
   272
1070
     3
1070
   140
1040
0.125
1070
   284
1070
     1
1070
    78
1070
     1
1002
}
  0
DIMENSION
  5
209
330
1F
100
AcDbEntity
  8
0
  6
SLD-SOLID
 62
     7
100
AcDbDimension
  2
_D_9
 10
5.1069386197
 20
3.9025548786
 30
0.0
 11
5.1069386197
 21
4.6923495689
 31
0.0
 70
   160
  1
<>
  3
SLDDIMSTYLE8
100
AcDbAlignedDimension
 13
6.9740717863
 23
5.1623973983
 33
0.0
 14
6.9740717863
 24
3.9025548786
 34
0.0
 50
90.0
100
AcDbRotatedDimension
  0
TOLERANCE
  5
216
330
1F
100
AcDbEntity
  8
0
  6
SLD-SOLID
 62
     7
100
AcDbFcf
  3
SLDDIMSTYLE2
 10
8.9542826424
 20
5.9433551054
 30
0.0
  1
{\Fgdt;j}%%v{\Fgdt;n}.005%%v%%vA-B%%v%%v%%v^J
  0
TOLERANCE
  5
217
330
1F
100
AcDbEntity
  8
0
  6
SLD-SOLID
 62
     7
100
AcDbFcf
  3
SLDDIMSTYLE2
 10
4.388338686
 20
4.4681308159
 30
0.0
  1
{\Fgdt;j}%%v.010%%v%%vA-B%%vC%%v%%v^J
  0
TOLERANCE
  5
218
102
{ACAD_REACTORS
330
219
102
}
330
1F
100
AcDbEntity
  8
0
  6
SLD-SOLID
 62
     7
100
AcDbFcf
  3
SLDDIMSTYLE2
 10
10.3952860584
 20
4.9245089892
 30
0.0
  1
{\Fgdt;d}%%v.010%%v%%vA-B%%vC%%v%%v^J
  0
LEADER
  5
219
330
1F
100
AcDbEntity
  8
0
  6
SLD-SOLID
 62
     7
100
AcDbLeader
  3
SLDDIMSTYLE3
 73
     1
 74
     0
 40
1.4450976563
 41
0.25
 76
     3
 10
9.4937568256
 20
4.5217270317
 30
0.0
 10
10.1452860584
 20
4.9245089892
 30
0.0
 10
10.3952860584
 20
4.9245089892
 30
0.0
340
218
1001
ACAD
1000
DSTYLE
1002
{
1070
     6
1000

1002
}
  0
INSERT
  5
224
330
1F
100
AcDbEntity
  8
0
  6
CONTINUOUS
 62
     7
100
AcDbBlockReference
  2
SW_DATUMTAG_2
 10
9.6121902219
 20
5.2803736834
 30
0.0
  0
INSERT
  5
22B
330
1F
100
AcDbEntity
  8
0
  6
CONTINUOUS
 62
     7
100
AcDbBlockReference
  2
SW_DOWELSYMBOL_1
 10
7.6039930461
 20
4.5324761384
 30
0.0
  0
CIRCLE
  5
22C
330
1F
100
AcDbEntity
  8
0
  6
SLD-SOLID
 62
     7
100
AcDbCircle
 10
13.6101914902
 20
7.892695409
 30
0.0
 40
0.3149606299212602
  0
ARC
  5
22D
330
1F
100
AcDbEntity
  8
0
  6
SLD-SOLID
 62
     7
100
AcDbCircle
 10
13.6101914902
 20
7.892695409
 30
0.0
 40
0.7086614173228352
100
AcDbArc
 50
303.5573097619
 51
332.7339555493
  0
LINE
  5
22E
330
1F
100
AcDbEntity
  8
0
  6
SLD-SOLID
 62
     7
100
AcDbLine
 10
14.0019188277
 20
7.3021442279
 30
0.0
 11
13.2184641528
 21
7.3021442279
 31
0.0
  0
ARC
  5
22F
330
1F
100
AcDbEntity
  8
0
  6
SLD-SOLID
 62
     7
100
AcDbCircle
 10
13.6101914902
 20
7.892695409
 30
0.0
 40
0.7086614173228348
100
AcDbArc
 50
207.2660444507
 51
236.4426902381
  0
LINE
  5
230
330
1F
100
AcDbEntity
  8
0
  6
SLD-SOLID
 62
     7
100
AcDbLine
 10
12.9802702304
 20
7.5680414227
 30
0.0
 11
12.9802702304
 21
8.2173493953
 31
0.0
  0
ARC
  5
231
330
1F
100
AcDbEntity
  8
0
  6
SLD-SOLID
 62
     7
100
AcDbCircle
 10
13.6101914902
 20
7.892695409
 30
0.0
 40
0.7086614173228352
100
AcDbArc
 50
27.2660444507
 51
152.7339555493
  0
LINE
  5
232
330
1F
100
AcDbEntity
  8
0
  6
SLD-SOLID
 62
     7
100
AcDbLine
 10
14.2401127501
 20
8.2173493953
 30
0.0
 11
14.2401127501
 21
7.5680414227
 31
0.0
  0
DIMENSION
  5
233
330
1F
100
AcDbEntity
  8
0
  6
SLD-SOLID
 62
     7
100
AcDbDimension
  2
_D_10
 10
13.0965333042
 20
8.3809128528
 30
0.0
 11
15.2558623421
 21
7.0064732953
 31
0.0
 70
   163
  1
<>
  3
SLDDIMSTYLE9
100
AcDbDiametricDimension
 15
14.1238496762
 25
7.4044779653
 35
0.0
 40
0.0
  0
CIRCLE
  5
23F
330
1F
100
AcDbEntity
  8
0
  6
SLD-SOLID
 62
     7
100
AcDbCircle
 10
2.2007668497
 20
7.892695409
 30
0.0
 40
0.1360000000000001
  0
CIRCLE
  5
240
330
1F
100
AcDbEntity
  8
0
  6
SLD-SOLID
 62
     7
100
AcDbCircle
 10
2.2007668497
 20
7.892695409
 30
0.0
 40
0.3149606299212602
  0
CIRCLE
  5
241
330
1F
100
AcDbEntity
  8
0
  6
SLD-SOLID
 62
     7
100
AcDbCircle
 10
2.2007668497
 20
7.892695409
 30
0.0
 40
0.5196850393700787
  0
LINE
  5
242
330
1F
100
AcDbEntity
  8
0
  6
SLD-SOLID
 62
     7
100
AcDbLine
 10
2.8306881095
 20
7.5680414227
 30
0.0
 11
2.8306881095
 21
8.2173493953
 31
0.0
  0
ARC
  5
243
330
1F
100
AcDbEntity
  8
0
  6
SLD-SOLID
 62
     7
100
AcDbCircle
 10
2.2007668497
 20
7.892695409
 30
0.0
 40
0.7086614173228345
100
AcDbArc
 50
303.5573097619
 51
332.7339555493
  0
LINE
  5
244
330
1F
100
AcDbEntity
  8
0
  6
SLD-SOLID
 62
     7
100
AcDbLine
 10
2.5924941871
 20
7.3021442279
 30
0.0
 11
1.8090395123
 21
7.3021442279
 31
0.0
  0
ARC
  5
245
330
1F
100
AcDbEntity
  8
0
  6
SLD-SOLID
 62
     7
100
AcDbCircle
 10
2.2007668497
 20
7.892695409
 30
0.0
 40
0.7086614173228348
100
AcDbArc
 50
207.2660444507
 51
236.4426902381
  0
LINE
  5
246
330
1F
100
AcDbEntity
  8
0
  6
SLD-SOLID
 62
     7
100
AcDbLine
 10
1.5708455899
 20
8.2173493953
 30
0.0
 11
1.5708455899
 21
7.5680414227
 31
0.0
  0
ARC
  5
247
330
1F
100
AcDbEntity
  8
0
  6
SLD-SOLID
 62
     7
100
AcDbCircle
 10
2.2007668497
 20
7.892695409
 30
0.0
 40
0.7086614173228348
100
AcDbArc
 50
27.2660444507
 51
152.7339555493
  0
SPLINE
  5
248
330
1F
100
AcDbEntity
  8
0
  6
SLD-SOLID
 62
     7
100
AcDbSpline
210
0.0
220
0.0
230
1.0
 70
    11
 71
     3
 72
    62
 73
    58
 74
     0
 42
0.00000001
 43
0.00000001
 40
0.0
 40
0.0
 40
0.0
 40
0.0
 40
0.0000057564439926
 40
0.0000057564439926
 40
0.0000057564439926
 40
0.0000115120181502
 40
0.0000115120181502
 40
0.0000115120181502
 40
0.0000172507165854
 40
0.0000172507165854
 40
0.0000172507165854
 40
0.0000229778182613
 40
0.0000229778182613
 40
0.0000229778182613
 40
0.000028703756871
 40
0.000028703756871
 40
0.000028703756871
 40
0.00003443943218
 40
0.00003443943218
 40
0.00003443943218
 40
0.0000401914074835
 40
0.0000401914074835
 40
0.0000401914074835
 40
0.0000459591136404
 40
0.0000459591136404
 40
0.0000459591136404
 40
0.0000517351614091
 40
0.0000517351614091
 40
0.0000517351614091
 40
0.0000575085283367
 40
0.0000575085283367
 40
0.0000575085283367
 40
0.0000632693007866
 40
0.0000632693007866
 40
0.0000632693007866
 40
0.0000690130326737
 40
0.0000690130326737
 40
0.0000690130326737
 40
0.000074742790734
 40
0.000074742790734
 40
0.000074742790734
 40
0.0000804678358508
 40
0.0000804678358508
 40
0.0000804678358508
 40
0.0000861994796112
 40
0.0000861994796112
 40
0.0000861994796112
 40
0.0000919460667158
 40
0.0000919460667158
 40
0.0000919460667158
 40
0.0000977093732824
 40
0.0000977093732824
 40
0.0000977093732824
 40
0.0001034839131476
 40
0.0001034839131476
 40
0.0001034839131476
 40
0.0001070814089288
 40
0.0001070814089288
 40
0.0001070814089288
 40
0.0001070814089288
 10
2.199612015392603
 20
7.893390058453304
 30
0.0
 10
2.199689552621011
 20
7.893519732795738
 30
0.0
 10
2.199790526416848
 20
7.893637829831804
 30
0.0
 10
2.199906625249559
 20
7.893734517493926
 30
0.0
 10
2.200022700638864
 20
7.893831185632268
 30
0.0
 10
2.200157111400665
 20
7.89390912029433
 30
0.0
 10
2.20029869443665
 20
7.893961774910002
 30
0.0
 10
2.200439868877561
 20
7.894014277569499
 30
0.0
 10
2.200592078831795
 20
7.894043095998833
 30
0.0
 10
2.200742675736771
 20
7.894045808046005
 30
0.0
 10
2.200892976598054
 20
7.89404851476183
 30
0.0
 10
2.201045816363174
 20
7.894025294815153
 30
0.0
 10
2.201188538599527
 20
7.893978092984686
 30
0.0
 10
2.201331237423688
 20
7.893930898897223
 30
0.0
 10
2.201467749726759
 20
7.893858437830945
 30
0.0
 10
2.201586838616528
 20
7.893766742517101
 30
0.0
 10
2.201706130715622
 20
7.893674890737421
 30
0.0
 10
2.201811220948455
 20
7.89356122065619
 30
0.0
 10
2.201893508932002
 20
7.893435141121688
 30
0.0
 10
2.201976028359691
 20
7.893308706974415
 30
0.0
 10
2.202037888226912
 20
7.893166321333822
 30
0.0
 10
2.202074041716998
 20
7.893019733407029
 30
0.0
 10
2.202110292228543
 20
7.892872752097066
 30
0.0
 10
2.202121696534422
 20
7.89271749932719
 30
0.0
 10
2.202107323381723
 20
7.892566797532658
 30
0.0
 10
2.20209293017755
 20
7.892415885499407
 30
0.0
 10
2.202052286512745
 20
7.892265371528201
 30
0.0
 10
2.201988726262412
 20
7.892127742823202
 30
0.0
 10
2.201925197367947
 20
7.891990182013897
 30
0.0
 10
2.201837011075519
 20
7.891861690187273
 30
0.0
 10
2.201731446056672
 20
7.891752993855237
 30
0.0
 10
2.201626110714285
 20
7.891644534012419
 30
0.0
 10
2.201500550629431
 20
7.891552784066889
 30
0.0
 10
2.201365183285663
 20
7.891485443285299
 30
0.0
 10
2.201230211104136
 20
7.891418299083869
 30
0.0
 10
2.201081752744702
 20
7.891373566680199
 30
0.0
 10
2.200932148571649
 20
7.891355006857836
 30
0.0
 10
2.20078290014541
 20
7.891336491169255
 30
0.0
 10
2.200628391321929
 20
7.891343511410272
 30
0.0
 10
2.200481435528895
 20
7.891375478740002
 30
0.0
 10
2.20033459378958
 20
7.8914074212596
 30
0.0
 10
2.20019124950062
 20
7.891465146749023
 30
0.0
 10
2.200063225334353
 20
7.891543839751267
 30
0.0
 10
2.199935051399826
 20
7.89162262481202
 30
0.0
 10
2.199818707890222
 20
7.891724585976365
 30
0.0
 10
2.199723731589309
 20
7.891841269880984
 30
0.0
 10
2.199628509479333
 20
7.89195825577632
 30
0.0
 10
2.199552145400469
 20
7.89209325137271
 30
0.0
 10
2.199500873028386
 20
7.892235110930002
 30
0.0
 10
2.199449453866237
 20
7.892377376623632
 30
0.0
 10
2.199421854139159
 20
7.892530459105367
 30
0.0
 10
2.199420325962564
 20
7.892681724278489
 30
0.0
 10
2.199418794889553
 20
7.892833276150617
 30
0.0
 10
2.199443394616007
 20
7.892987183928937
 30
0.0
 10
2.19949211073561
 20
7.893130700570575
 30
0.0
 10
2.199522725402728
 20
7.893220890722118
 30
0.0
 10
2.199563136508088
 20
7.893308312724981
 30
0.0
 10
2.199612015392603
 20
7.893390058453304
 30
0.0
  0
DIMENSION
  5
249
330
1F
100
AcDbEntity
  8
0
  6
SLD-SOLID
 62
     7
100
AcDbDimension
  2
_D_11
 10
2.1327668497
 20
8.0104748639
 30
0.0
 11
4.2481353329
 21
6.0348025179
 31
0.0
 70
   163
  1
<> {\fGDT;x} .422\P8-32 UNC  {\fGDT;x} .328\P
  3
SLDDIMSTYLE10
100
AcDbDiametricDimension
 15
2.2687668497
 25
7.7749159541
 35
0.0
 40
0.0
  0
DIMENSION
  5
25F
330
1F
100
AcDbEntity
  8
0
  6
SLD-SOLID
 62
     7
100
AcDbDimension
  2
_D_12
 10
1.9146202392
 20
7.4588836325
 30
0.0
 11
3.6546436381
 21
9.0154930213
 31
0.0
 70
   163
  1
<>
  3
SLDDIMSTYLE11
100
AcDbDiametricDimension
 15
2.4869134602
 25
8.3265071855
 35
0.0
 40
0.0
  0
INSERT
  5
275
330
1F
100
AcDbEntity
  8
0
  6
CONTINUOUS
 62
     7
100
AcDbBlockReference
  2
SW_CENTERMARKSYMBOL_0
 10
2.2007668497
 20
7.892695409
 30
0.0
  0
CIRCLE
  5
276
330
1F
100
AcDbEntity
  8
0
  6
SLD-DASHED
 62
     7
100
AcDbCircle
 10
2.2007668497
 20
7.892695409
 30
0.0
 40
0.1639999999999997
  0
MTEXT
  5
278
330
1F
100
AcDbEntity
  8
0
  6
CONTINUOUS
 62
     7
100
AcDbMText
 10
0.0
 20
0.5641932659
 30
0.0
 40
0.2022874016
 41
0.0
 71
     1
 72
     1
  1
SOLIDWORKS Educational Product.
  7
SLDTEXTSTYLE4
  0
MTEXT
  5
279
330
1F
100
AcDbEntity
  8
0
  6
CONTINUOUS
 62
     7
100
AcDbMText
 10
0.0
 20
0.2607621635
 30
0.0
 40
0.2022874016
 41
0.0
 71
     1
 72
     1
  1
For Instructional Use Only.
  7
SLDTEXTSTYLE4
  0
ENDSEC
  0
SECTION
  2
OBJECTS
  0
DICTIONARY
  5
C
330
0
100
AcDbDictionary
  3
ACAD_GROUP
350
D
  3
ACAD_MLINESTYLE
350
17
  3
ACAD_SCALELIST
350
47
  3
DWGPROPS
350
27A
1001
ACAD
1000
TREAT_AS_HARD
1070
     0
  0
DICTIONARY
  5
D
102
{ACAD_REACTORS
330
C
102
}
330
C
100
AcDbDictionary
1001
ACAD
1000
TREAT_AS_HARD
1070
     0
  0
DICTIONARY
  5
17
102
{ACAD_REACTORS
330
C
102
}
330
C
100
AcDbDictionary
  3
STANDARD
350
18
1001
ACAD
1000
TREAT_AS_HARD
1070
     0
  0
DICTIONARY
  5
47
102
{ACAD_REACTORS
330
C
102
}
330
C
100
AcDbDictionary
1001
ACAD
1000
TREAT_AS_HARD
1070
     0
  0
XRECORD
  5
27A
102
{ACAD_REACTORS
330
C
102
}
330
C
100
AcDbXrecord
  1
DWGPROPS COOKIE
  2

  3

  4

  6

  7

  8
andre
  9

300
=
301
=
302
=
303
=
304
=
305
=
306
=
307
=
308
=
309
=
 40
0.0
 41
2459123.011202072
 42
2459123.011207384
  1

 90
        0
  0
MLINESTYLE
  5
18
102
{ACAD_REACTORS
330
17
102
}
330
17
100
AcDbMlineStyle
  2
Standard
 70
     0
  3

 62
   256
 51
90.0
 52
90.0
 71
     2
 49
0.5
 62
   256
  6
BYLAYER
 49
-0.5
 62
   256
  6
BYLAYER
  0
ENDSEC
  0
EOF
