  0
SECTION
  2
HEADER
  9
$ACADVER
  1
AC1012
  9
$DWGCODEPAGE
  3
ansi_1252
  9
$INSBASE
 10
0.0
 20
0.0
 30
0.0
  9
$EXTMIN
 10
0.0
 20
0.0
 30
0.0
  9
$EXTMAX
 10
16.5354330709
 20
11.6929133858
 30
0.0
  9
$LIMMIN
 10
0.0
 20
0.0
  9
$LIMMAX
 10
16.5354330709
 20
11.6929133858
  9
$ORTHOMODE
 70
     0
  9
$REGENMODE
 70
     1
  9
$FILLMODE
 70
     1
  9
$QTEXTMODE
 70
     0
  9
$MIRRTEXT
 70
     1
  9
$DRAGMODE
 70
     2
  9
$LTSCALE
 40
1.0
  9
$OSMODE
 70
    37
  9
$ATTMODE
 70
     1
  9
$TEXTSIZE
 40
0.125
  9
$TRACEWID
 40
0.05
  9
$TEXTSTYLE
  7
STANDARD
  9
$CLAYER
  8
0
  9
$CELTYPE
  6
BYLAYER
  9
$CECOLOR
 62
   256
  9
$CELTSCALE
 40
1.0
  9
$DELOBJ
 70
     1
  9
$DISPSILH
 70
     0
  9
$DIMSCALE
 40
1.0
  9
$DIMASZ
 40
0.13
  9
$DIMEXO
 40
0.05
  9
$DIMDLI
 40
0.38
  9
$DIMRND
 40
0.0
  9
$DIMDLE
 40
0.0
  9
$DIMEXE
 40
0.125
  9
$DIMTP
 40
0.0
  9
$DIMTM
 40
0.0
  9
$DIMTXT
 40
0.125
  9
$DIMCEN
 40
0.09
  9
$DIMTSZ
 40
0.0
  9
$DIMTOL
 70
     0
  9
$DIMLIM
 70
     0
  9
$DIMTIH
 70
     1
  9
$DIMTOH
 70
     1
  9
$DIMSE1
 70
     0
  9
$DIMSE2
 70
     0
  9
$DIMTAD
 70
     0
  9
$DIMZIN
 70
     1
  9
$DIMBLK
  1

  9
$DIMASO
 70
     1
  9
$DIMSHO
 70
     1
  9
$DIMPOST
  1

  9
$DIMAPOST
  1

  9
$DIMALT
 70
     0
  9
$DIMALTD
 70
     2
  9
$DIMALTF
 40
25.4
  9
$DIMLFAC
 40
1.0
  9
$DIMTOFL
 70
     0
  9
$DIMTVP
 40
0.0
  9
$DIMTIX
 70
     0
  9
$DIMSOXD
 70
     0
  9
$DIMSAH
 70
     0
  9
$DIMBLK1
  1

  9
$DIMBLK2
  1

  9
$DIMSTYLE
  2
STANDARD
  9
$DIMCLRD
 70
     0
  9
$DIMCLRE
 70
     0
  9
$DIMCLRT
 70
     0
  9
$DIMTFAC
 40
1.0
  9
$DIMGAP
 40
0.06
  9
$DIMJUST
 70
     0
  9
$DIMSD1
 70
     0
  9
$DIMSD2
 70
     0
  9
$DIMTOLJ
 70
     1
  9
$DIMTZIN
 70
     1
  9
$DIMALTZ
 70
     0
  9
$DIMALTTZ
 70
     0
  9
$DIMFIT
 70
     3
  9
$DIMUPT
 70
     0
  9
$DIMUNIT
 70
     2
  9
$DIMDEC
 70
     3
  9
$DIMTDEC
 70
     3
  9
$DIMALTU
 70
     2
  9
$DIMALTTD
 70
     2
  9
$DIMTXSTY
  7
STANDARD
  9
$DIMAUNIT
 70
     0
  9
$LUNITS
 70
     2
  9
$LUPREC
 70
     3
  9
$SKETCHINC
 40
0.1
  9
$FILLETRAD
 40
0.5
  9
$AUNITS
 70
     0
  9
$AUPREC
 70
     2
  9
$MENU
  1
.
  9
$ELEVATION
 40
0.0
  9
$PELEVATION
 40
0.0
  9
$THICKNESS
 40
0.0
  9
$LIMCHECK
 70
     0
  9
$CHAMFERA
 40
0.0
  9
$CHAMFERB
 40
0.0
  9
$CHAMFERC
 40
0.0
  9
$CHAMFERD
 40
0.0
  9
$SKPOLY
 70
     0
  9
$TDCREATE
 40
2459122.844915151
  9
$TDUPDATE
 40
2459122.844920093
  9
$TDINDWG
 40
0.0000000116
  9
$TDUSRTIMER
 40
0.0000000116
  9
$USRTIMER
 70
     1
  9
$ANGBASE
 50
0.0
  9
$ANGDIR
 70
     0
  9
$PDMODE
 70
     0
  9
$PDSIZE
 40
-1.0
  9
$PLINEWID
 40
0.0
  9
$COORDS
 70
     1
  9
$SPLFRAME
 70
     0
  9
$SPLINETYPE
 70
     6
  9
$SPLINESEGS
 70
     8
  9
$ATTDIA
 70
     0
  9
$ATTREQ
 70
     1
  9
$HANDLING
 70
     1
  9
$HANDSEED
  5
482
  9
$SURFTAB1
 70
     6
  9
$SURFTAB2
 70
     6
  9
$SURFTYPE
 70
     6
  9
$SURFU
 70
     6
  9
$SURFV
 70
     6
  9
$UCSNAME
  2

  9
$UCSORG
 10
0.0
 20
0.0
 30
0.0
  9
$UCSXDIR
 10
1.0
 20
0.0
 30
0.0
  9
$UCSYDIR
 10
0.0
 20
1.0
 30
0.0
  9
$PUCSNAME
  2

  9
$PUCSORG
 10
0.0
 20
0.0
 30
0.0
  9
$PUCSXDIR
 10
1.0
 20
0.0
 30
0.0
  9
$PUCSYDIR
 10
0.0
 20
1.0
 30
0.0
  9
$USERI1
 70
     0
  9
$USERI2
 70
     0
  9
$USERI3
 70
     0
  9
$USERI4
 70
     0
  9
$USERI5
 70
     0
  9
$USERR1
 40
0.0
  9
$USERR2
 40
0.0
  9
$USERR3
 40
0.0
  9
$USERR4
 40
0.0
  9
$USERR5
 40
0.0
  9
$WORLDVIEW
 70
     1
  9
$SHADEDGE
 70
     3
  9
$SHADEDIF
 70
    70
  9
$TILEMODE
 70
     1
  9
$MAXACTVP
 70
    64
  9
$PINSBASE
 10
0.0
 20
0.0
 30
0.0
  9
$PLIMCHECK
 70
     0
  9
$PEXTMIN
 10
1.0000000000E+20
 20
1.0000000000E+20
 30
1.0000000000E+20
  9
$PEXTMAX
 10
-1.0000000000E+20
 20
-1.0000000000E+20
 30
-1.0000000000E+20
  9
$PLIMMIN
 10
0.0
 20
0.0
  9
$PLIMMAX
 10
12.0
 20
9.0
  9
$UNITMODE
 70
     0
  9
$VISRETAIN
 70
     1
  9
$PLINEGEN
 70
     0
  9
$PSLTSCALE
 70
     1
  9
$TREEDEPTH
 70
  3020
  9
$PICKSTYLE
 70
     1
  9
$CMLSTYLE
  2
STANDARD
  9
$CMLJUST
 70
     0
  9
$CMLSCALE
 40
1.0
  9
$SAVEIMAGES
 70
     1
  0
ENDSEC
  0
SECTION
  2
CLASSES
  0
CLASS
  1
ACDBDICTIONARYWDFLT
  2
AcDbDictionaryWithDefault
  3
ObjectDBX Classes
 90
    32768
280
     0
281
     0
  0
CLASS
  1
VISUALSTYLE
  2
AcDbVisualStyle
  3
ObjectDBX Classes
 90
     4095
280
     0
281
     0
  0
CLASS
  1
MATERIAL
  2
AcDbMaterial
  3
ObjectDBX Classes
 90
     1153
280
     0
281
     0
  0
CLASS
  1
SCALE
  2
AcDbScale
  3
ObjectDBX Classes
 90
     1153
280
     0
281
     0
  0
CLASS
  1
TABLESTYLE
  2
AcDbTableStyle
  3
ObjectDBX Classes
 90
     4095
280
     0
281
     0
  0
CLASS
  1
MLEADERSTYLE
  2
AcDbMLeaderStyle
  3
ACDB_MLEADERSTYLE_CLASS
 90
     4095
280
     0
281
     0
  0
CLASS
  1
SUN
  2
AcDbSun
  3
SCENEOE
 90
     1153
280
     0
281
     0
  0
CLASS
  1
XRECORD
  2
AcDbXrecord
  3
ObjectDBX Classes
 90
    32768
280
     0
281
     0
  0
ENDSEC
  0
SECTION
  2
TABLES
  0
TABLE
  2
VPORT
  5
8
330
0
100
AcDbSymbolTable
 70
     1
  0
VPORT
  5
29
330
8
100
AcDbSymbolTableRecord
100
AcDbViewportTableRecord
  2
*ACTIVE
 70
     0
 10
0.0
 20
0.0
 11
1.0
 21
1.0
 12
8.2677165354
 22
5.8464566929
 13
0.0
 23
0.0
 14
0.5
 24
0.5
 15
0.5
 25
0.5
 16
0.0
 26
0.0
 36
1.0
 17
0.0
 27
0.0
 37
0.0
 40
11.6929133858
 41
1.4141414141
 42
50.0
 43
0.0
 44
0.0
 50
0.0
 51
0.0
 71
     0
 72
  2000
 73
     1
 74
     3
 75
     0
 76
     0
 77
     0
 78
     0
  0
ENDTAB
  0
TABLE
  2
LTYPE
  5
5
330
0
100
AcDbSymbolTable
 70
     8
  0
LTYPE
  5
14
330
5
100
AcDbSymbolTableRecord
100
AcDbLinetypeTableRecord
  2
BYBLOCK
 70
     0
  3

 72
    65
 73
     0
 40
0.0
  0
LTYPE
  5
15
330
5
100
AcDbSymbolTableRecord
100
AcDbLinetypeTableRecord
  2
BYLAYER
 70
     0
  3

 72
    65
 73
     0
 40
0.0
  0
LTYPE
  5
16
330
5
100
AcDbSymbolTableRecord
100
AcDbLinetypeTableRecord
  2
CONTINUOUS
 70
     0
  3
Solid line
 72
    65
 73
     0
 40
0.0
  0
LTYPE
  5
6E
330
5
100
AcDbSymbolTableRecord
100
AcDbLinetypeTableRecord
  2
SLD-SOLID
 70
     0
  3
SolidWorks Line Style
 72
    65
 73
     0
 40
0.0
  0
LTYPE
  5
6F
330
5
100
AcDbSymbolTableRecord
100
AcDbLinetypeTableRecord
  2
SLD-DASHED
 70
     0
  3
SolidWorks Line Style
 72
    65
 73
     2
 40
0.075
 49
0.05
 74
     0
 49
-0.025
 74
     0
  0
LTYPE
  5
70
330
5
100
AcDbSymbolTableRecord
100
AcDbLinetypeTableRecord
  2
SLD-PHANTOM
 70
     0
  3
SolidWorks Line Style
 72
    65
 73
     6
 40
0.5
 49
0.25
 74
     0
 49
-0.05
 74
     0
 49
0.05
 74
     0
 49
-0.05
 74
     0
 49
0.05
 74
     0
 49
-0.05
 74
     0
  0
LTYPE
  5
71
330
5
100
AcDbSymbolTableRecord
100
AcDbLinetypeTableRecord
  2
SLD-CHAIN
 70
     0
  3
SolidWorks Line Style
 72
    65
 73
     4
 40
0.4
 49
0.25
 74
     0
 49
-0.05
 74
     0
 49
0.05
 74
     0
 49
-0.05
 74
     0
  0
LTYPE
  5
72
330
5
100
AcDbSymbolTableRecord
100
AcDbLinetypeTableRecord
  2
SLD-CENTER
 70
     0
  3
SolidWorks Line Style
 72
    65
 73
     4
 40
0.75
 49
0.6
 74
     0
 49
-0.05
 74
     0
 49
0.05
 74
     0
 49
-0.05
 74
     0
  0
LTYPE
  5
73
330
5
100
AcDbSymbolTableRecord
100
AcDbLinetypeTableRecord
  2
SLD-STITCH
 70
     0
  3
SolidWorks Line Style
 72
    65
 73
     2
 40
0.025
 49
0.0
 74
     0
 49
-0.025
 74
     0
  0
LTYPE
  5
74
330
5
100
AcDbSymbolTableRecord
100
AcDbLinetypeTableRecord
  2
SLD-THIN-THICK-CHAIN
 70
     0
  3
SolidWorks Line Style
 72
    65
 73
     4
 40
0.4
 49
0.25
 74
     0
 49
-0.05
 74
     0
 49
0.05
 74
     0
 49
-0.05
 74
     0
  0
ENDTAB
  0
TABLE
  2
LAYER
  5
2
330
0
100
AcDbSymbolTable
 70
     2
  0
LAYER
  5
10
330
2
100
AcDbSymbolTableRecord
100
AcDbLayerTableRecord
  2
0
 70
     0
 62
     7
  6
CONTINUOUS
  0
LAYER
  5
75
330
2
100
AcDbSymbolTableRecord
100
AcDbLayerTableRecord
  2
FORMAT
 70
     0
 62
     7
  6
SLD-SOLID
  0
ENDTAB
  0
TABLE
  2
STYLE
  5
3
330
0
100
AcDbSymbolTable
 70
     6
  0
STYLE
  5
11
330
3
100
AcDbSymbolTableRecord
100
AcDbTextStyleTableRecord
  2
STANDARD
 70
     0
 40
0.0
 41
1.0
 50
0.0
 71
     0
 42
0.125
  3
txt
  4

  0
STYLE
  5
CE
330
3
100
AcDbSymbolTableRecord
100
AcDbTextStyleTableRecord
  2
SLDTEXTSTYLE0
 70
     0
 40
0.0
 41
0.75
 50
0.0
 71
     0
 42
0.125
  3
TXT
  4

  0
STYLE
  5
10C
330
3
100
AcDbSymbolTableRecord
100
AcDbTextStyleTableRecord
  2
SLDTEXTSTYLE1
 70
     0
 40
0.0
 41
0.6864493306
 50
0.0
 71
     0
 42
0.125
  3
TXT
  4

  0
STYLE
  5
12D
330
3
100
AcDbSymbolTableRecord
100
AcDbTextStyleTableRecord
  2
SLDTEXTSTYLE2
 70
     0
 40
0.0
 41
0.6875
 50
0.0
 71
     0
 42
0.125
  3
TXT
  4

  0
STYLE
  5
221
330
3
100
AcDbSymbolTableRecord
100
AcDbTextStyleTableRecord
  2
SLDTEXTSTYLE3
 70
     0
 40
0.0
 41
1.0
 50
0.0
 71
     0
 42
0.125
  3
TXT
  4

  0
STYLE
  5
3E6
330
3
100
AcDbSymbolTableRecord
100
AcDbTextStyleTableRecord
  2
SLDTEXTSTYLE4
 70
     0
 40
0.0
 41
0.7
 50
0.0
 71
     0
 42
0.125
  3
TXT
  4

  0
ENDTAB
  0
TABLE
  2
VIEW
  5
6
330
0
100
AcDbSymbolTable
 70
     0
  0
ENDTAB
  0
TABLE
  2
UCS
  5
7
330
0
100
AcDbSymbolTable
 70
     0
  0
ENDTAB
  0
TABLE
  2
APPID
  5
9
330
0
100
AcDbSymbolTable
 70
     1
  0
APPID
  5
12
330
9
100
AcDbSymbolTableRecord
100
AcDbRegAppTableRecord
  2
ACAD
 70
     0
  0
ENDTAB
  0
TABLE
  2
DIMSTYLE
  5
A
330
0
100
AcDbSymbolTable
 70
    15
  0
DIMSTYLE
105
27
330
A
100
AcDbSymbolTableRecord
100
AcDbDimStyleTableRecord
  2
STANDARD
 70
     0
  3

  4

  5

  6

  7

 40
1.0
 41
0.18
 42
0.0625
 43
0.38
 44
0.18
 45
0.0
 46
0.0
 47
0.0
 48
0.0
140
0.18
141
0.09
142
0.0
143
25.4
144
1.0
145
0.0
146
1.0
147
0.09
 71
     0
 72
     0
 73
     1
 74
     1
 75
     0
 76
     0
 77
     0
 78
     0
170
     0
171
     2
172
     0
173
     0
174
     0
175
     0
176
     0
177
     0
178
     0
270
     2
271
     4
272
     4
273
     2
274
     2
340
11
275
     0
280
     0
281
     0
282
     0
283
     1
284
     0
285
     0
286
     0
287
     3
288
     0
  0
DIMSTYLE
105
15E
102
{ACAD_REACTORS
330
15D
102
}
330
A
100
AcDbSymbolTableRecord
100
AcDbDimStyleTableRecord
  2
SLDDIMSTYLE0
 70
     0
  3

  4

  5

  6
NONE
  7
NONE
 40
1.0
 41
0.13
 42
0.0625
 43
0.38
 44
0.0
 45
0.000000001
 46
0.0
 47
0.0
 48
0.0
140
0.125
141
0.09
142
0.0
143
25.4
144
1.0
145
0.0
146
1.0
147
-0.03125
 71
     0
 72
     0
 73
     1
 74
     1
 75
     0
 76
     0
 77
     0
 78
     4
170
     0
171
     2
172
     0
173
     1
174
     0
175
     0
176
     0
177
     0
178
     0
270
     2
271
     3
272
     3
273
     2
274
     2
340
CE
275
     0
280
     0
281
     0
282
     0
283
     1
284
     8
285
     0
286
     0
287
     3
288
     0
  0
DIMSTYLE
105
16E
102
{ACAD_REACTORS
330
16D
330
17A
330
186
330
1A3
330
1AF
330
1C8
330
31F
330
32B
102
}
330
A
100
AcDbSymbolTableRecord
100
AcDbDimStyleTableRecord
  2
SLDDIMSTYLE1
 70
     0
  3

  4

  5

  6
NONE
  7
NONE
 40
1.0
 41
0.13
 42
0.0625
 43
0.38
 44
0.0
 45
0.000000001
 46
0.0
 47
0.0
 48
0.0
140
0.125
141
0.09
142
0.0
143
25.4
144
1.0
145
0.0
146
1.0
147
-0.03125
 71
     0
 72
     0
 73
     1
 74
     1
 75
     0
 76
     0
 77
     0
 78
    12
170
     0
171
     2
172
     0
173
     1
174
     0
175
     0
176
     0
177
     0
178
     0
270
     2
271
     3
272
     3
273
     2
274
     2
340
CE
275
     0
280
     0
281
     0
282
     0
283
     1
284
     8
285
     0
286
     0
287
     3
288
     0
  0
DIMSTYLE
105
193
102
{ACAD_REACTORS
330
192
330
19B
102
}
330
A
100
AcDbSymbolTableRecord
100
AcDbDimStyleTableRecord
  2
SLDDIMSTYLE2
 70
     0
  3

  4

  5

  6
NONE
  7
NONE
 40
1.0
 41
0.13
 42
0.0625
 43
0.38
 44
0.0
 45
0.000000001
 46
0.0
 47
0.0
 48
0.0
140
0.125
141
0.09
142
0.0
143
25.4
144
1.0
145
0.0
146
1.0
147
0.03125
 71
     0
 72
     0
 73
     1
 74
     1
 75
     0
 76
     0
 77
     0
 78
    12
170
     0
171
     2
172
     0
173
     1
174
     0
175
     0
176
     0
177
     0
178
     0
270
     2
271
     3
272
     3
273
     2
274
     2
340
CE
275
     0
280
     0
281
     0
282
     0
283
     1
284
    12
285
     0
286
     0
287
     3
288
     0
  0
DIMSTYLE
105
1BC
102
{ACAD_REACTORS
330
1BB
102
}
330
A
100
AcDbSymbolTableRecord
100
AcDbDimStyleTableRecord
  2
SLDDIMSTYLE3
 70
     0
  3

  4

  5

  6
NONE
  7
NONE
 40
1.0
 41
0.13
 42
0.0625
 43
0.38
 44
0.0
 45
0.000000001
 46
0.0
 47
0.0
 48
0.0
140
0.125
141
0.09
142
0.0
143
25.4
144
1.0
145
0.0
146
1.0
147
-0.03125
 71
     0
 72
     0
 73
     1
 74
     1
 75
     0
 76
     0
 77
     0
 78
    12
170
     0
171
     2
172
     0
173
     1
174
     0
175
     0
176
     0
177
     0
178
     0
270
     2
271
     3
272
     3
273
     2
274
     2
340
CE
275
     0
280
     0
281
     0
282
     0
283
     1
284
     8
285
     0
286
     0
287
     3
288
     0
  0
DIMSTYLE
105
1D3
102
{ACAD_REACTORS
330
1D2
102
}
330
A
100
AcDbSymbolTableRecord
100
AcDbDimStyleTableRecord
  2
SLDDIMSTYLE4
 70
     0
  3

  4

  5

  6

  7

 40
1.0
 41
0.13
 42
0.0625
 43
0.38
 44
0.0
 45
0.000000001
 46
0.0
 47
0.0
 48
0.001
140
0.125
141
0.0
142
0.0
143
25.4
144
1.0
145
0.0
146
1.0
147
0.03125
 71
     1
 72
     0
 73
     1
 74
     1
 75
     0
 76
     0
 77
     0
 78
     4
170
     0
171
     2
172
     0
173
     1
174
     0
175
     0
176
     0
177
     0
178
     0
270
     2
271
     4
272
     3
273
     2
274
     2
340
CE
275
     0
280
     0
281
     0
282
     0
283
     1
284
     0
285
     0
286
     0
287
     3
288
     0
  0
DIMSTYLE
105
1ED
102
{ACAD_REACTORS
330
1EC
330
3BF
102
}
330
A
100
AcDbSymbolTableRecord
100
AcDbDimStyleTableRecord
  2
SLDDIMSTYLE5
 70
     0
  3

  4

  5

  6

  7

 40
1.0
 41
0.13
 42
0.0625
 43
0.38
 44
0.0
 45
0.000000001
 46
0.0
 47
0.0
 48
0.0
140
0.125
141
0.0
142
0.0
143
25.4
144
1.0
145
0.0
146
1.0
147
0.03125
 71
     0
 72
     0
 73
     1
 74
     1
 75
     0
 76
     0
 77
     0
 78
    12
170
     0
171
     2
172
     0
173
     1
174
     0
175
     0
176
     0
177
     0
178
     0
270
     2
271
     3
272
     3
273
     2
274
     2
340
CE
275
     0
280
     0
281
     0
282
     0
283
     1
284
    12
285
     0
286
     0
287
     3
288
     0
  0
DIMSTYLE
105
1FD
102
{ACAD_REACTORS
330
1FC
330
20C
330
335
330
345
330
354
102
}
330
A
100
AcDbSymbolTableRecord
100
AcDbDimStyleTableRecord
  2
SLDDIMSTYLE6
 70
     0
  3

  4

  5

  6

  7

 40
1.0
 41
0.13
 42
0.0625
 43
0.38
 44
0.0
 45
0.000000001
 46
0.0
 47
0.0
 48
0.0
140
0.125
141
0.09
142
0.0
143
25.4
144
1.0
145
0.0
146
1.0
147
-0.03125
 71
     0
 72
     0
 73
     1
 74
     1
 75
     0
 76
     0
 77
     0
 78
    12
170
     0
171
     2
172
     0
173
     1
174
     0
175
     0
176
     0
177
     0
178
     0
270
     2
271
     3
272
     3
273
     2
274
     2
340
CE
275
     0
280
     0
281
     0
282
     0
283
     1
284
     8
285
     0
286
     0
287
     3
288
     0
  0
DIMSTYLE
105
222
102
{ACAD_REACTORS
330
223
330
224
330
2D7
330
2D8
330
3CD
102
}
330
A
100
AcDbSymbolTableRecord
100
AcDbDimStyleTableRecord
  2
SLDDIMSTYLE7
 70
     0
  3

  4

  5

  6
NONE
  7
NONE
 40
1.0
 41
0.0
 42
0.0625
 43
0.38
 44
0.0
 45
0.000000001
 46
0.0
 47
0.0
 48
0.0
140
0.125
141
0.09
142
0.0
143
25.4
144
1.0
145
0.0
146
1.0
147
0.03125
 71
     0
 72
     0
 73
     1
 74
     1
 75
     0
 76
     0
 77
     0
 78
     0
170
     0
171
     2
172
     0
173
     1
174
     0
175
     0
176
     0
177
     0
178
     0
270
     2
271
     0
272
     0
273
     2
274
     2
340
221
275
     0
280
     0
281
     0
282
     0
283
     1
284
     0
285
     0
286
     0
287
     3
288
     0
  0
DIMSTYLE
105
225
330
A
100
AcDbSymbolTableRecord
100
AcDbDimStyleTableRecord
  2
SLDDIMSTYLE8
 70
     0
  3

  4

  5

  6

  7

 40
1.0
 41
0.13
 42
0.0625
 43
0.38
 44
0.0
 45
0.000000001
 46
0.0
 47
0.0
 48
0.0
140
0.18
141
0.09
142
0.0
143
25.4
144
1.0
145
0.0
146
0.13
147
0.0
 71
     0
 72
     0
 73
     1
 74
     1
 75
     0
 76
     0
 77
     0
 78
     0
170
     0
171
     2
172
     0
173
     1
174
     0
175
     0
176
     0
177
     0
178
     0
270
     2
271
     0
272
     0
273
     2
274
     2
340
11
275
     0
280
     0
281
     0
282
     0
283
     1
284
     0
285
     0
286
     0
287
     3
288
     0
  0
DIMSTYLE
105
281
102
{ACAD_REACTORS
330
280
102
}
330
A
100
AcDbSymbolTableRecord
100
AcDbDimStyleTableRecord
  2
SLDDIMSTYLE9
 70
     0
  3

  4

  5

  6

  7

 40
1.0
 41
0.13
 42
0.0625
 43
0.38
 44
0.0
 45
0.000000001
 46
0.0
 47
0.0098425197
 48
0.0098425197
140
0.125
141
0.0
142
0.0
143
25.4
144
1.0
145
0.0
146
1.0
147
0.03125
 71
     1
 72
     0
 73
     1
 74
     1
 75
     0
 76
     0
 77
     0
 78
    12
170
     0
171
     2
172
     0
173
     1
174
     0
175
     0
176
     0
177
     0
178
     0
270
     2
271
     3
272
     3
273
     2
274
     2
340
CE
275
     0
280
     0
281
     0
282
     0
283
     1
284
     0
285
     0
286
     0
287
     3
288
     0
  0
DIMSTYLE
105
28B
102
{ACAD_REACTORS
330
28A
102
}
330
A
100
AcDbSymbolTableRecord
100
AcDbDimStyleTableRecord
  2
SLDDIMSTYLE10
 70
     0
  3

  4

  5

  6

  7

 40
1.0
 41
0.13
 42
0.0625
 43
0.38
 44
0.0
 45
0.000000001
 46
0.0
 47
0.0039370079
 48
0.0039370079
140
0.125
141
0.0
142
0.0
143
25.4
144
1.0
145
0.0
146
1.0
147
0.03125
 71
     1
 72
     0
 73
     1
 74
     1
 75
     0
 76
     0
 77
     0
 78
    12
170
     0
171
     2
172
     0
173
     1
174
     0
175
     0
176
     0
177
     0
178
     0
270
     2
271
     3
272
     3
273
     2
274
     2
340
CE
275
     0
280
     0
281
     0
282
     0
283
     1
284
     8
285
     0
286
     0
287
     3
288
     0
  0
DIMSTYLE
105
2B3
102
{ACAD_REACTORS
330
2B2
330
2C5
102
}
330
A
100
AcDbSymbolTableRecord
100
AcDbDimStyleTableRecord
  2
SLDDIMSTYLE11
 70
     0
  3

  4

  5

  6

  7

 40
1.0
 41
0.13
 42
0.0625
 43
0.38
 44
0.0
 45
0.000000001
 46
0.0
 47
0.0
 48
0.0006
140
0.125
141
0.09
142
0.0
143
25.4
144
1.0
145
0.0
146
1.0
147
0.03125
 71
     1
 72
     0
 73
     1
 74
     1
 75
     0
 76
     0
 77
     0
 78
     4
170
     0
171
     2
172
     0
173
     1
174
     0
175
     0
176
     0
177
     0
178
     0
270
     2
271
     4
272
     4
273
     2
274
     2
340
CE
275
     0
280
     0
281
     0
282
     0
283
     1
284
     4
285
     0
286
     0
287
     3
288
     0
  0
DIMSTYLE
105
315
102
{ACAD_REACTORS
330
314
102
}
330
A
100
AcDbSymbolTableRecord
100
AcDbDimStyleTableRecord
  2
SLDDIMSTYLE12
 70
     0
  3

  4

  5

  6
NONE
  7
NONE
 40
1.0
 41
0.13
 42
0.0625
 43
0.38
 44
0.0
 45
0.000000001
 46
0.0
 47
0.0
 48
0.0
140
0.125
141
0.09
142
0.0
143
25.4
144
1.0
145
0.0
146
1.0
147
-0.03125
 71
     0
 72
     0
 73
     1
 74
     1
 75
     0
 76
     0
 77
     0
 78
     4
170
     0
171
     2
172
     0
173
     1
174
     0
175
     0
176
     0
177
     0
178
     0
270
     2
271
     3
272
     3
273
     2
274
     2
340
CE
275
     0
280
     0
281
     0
282
     0
283
     1
284
     8
285
     0
286
     0
287
     3
288
     0
  0
DIMSTYLE
105
3B3
102
{ACAD_REACTORS
330
3B2
102
}
330
A
100
AcDbSymbolTableRecord
100
AcDbDimStyleTableRecord
  2
SLDDIMSTYLE13
 70
     0
  3

  4

  5

  6

  7

 40
1.0
 41
0.13
 42
0.0625
 43
0.38
 44
0.0
 45
0.000000001
 46
0.0
 47
0.0039370079
 48
0.0039370079
140
0.125
141
0.09
142
0.0
143
25.4
144
1.0
145
0.0
146
1.0
147
0.03125
 71
     1
 72
     0
 73
     1
 74
     1
 75
     0
 76
     0
 77
     0
 78
    12
170
     0
171
     2
172
     0
173
     1
174
     0
175
     0
176
     0
177
     0
178
     0
270
     2
271
     3
272
     3
273
     2
274
     2
340
CE
275
     0
280
     0
281
     0
282
     0
283
     1
284
     8
285
     0
286
     0
287
     3
288
     0
  0
ENDTAB
  0
TABLE
  2
BLOCK_RECORD
  5
1
330
0
100
AcDbSymbolTable
 70
    62
  0
BLOCK_RECORD
  5
1F
330
1
100
AcDbSymbolTableRecord
100
AcDbBlockTableRecord
  2
*MODEL_SPACE
  0
BLOCK_RECORD
  5
1B
330
1
100
AcDbSymbolTableRecord
100
AcDbBlockTableRecord
  2
*PAPER_SPACE
  0
BLOCK_RECORD
  5
23
330
1
100
AcDbSymbolTableRecord
100
AcDbBlockTableRecord
  2
*PAPER_SPACE0
  0
BLOCK_RECORD
  5
B3
330
1
100
AcDbSymbolTableRecord
100
AcDbBlockTableRecord
  2
SW_NOTE_0
  0
BLOCK_RECORD
  5
D2
330
1
100
AcDbSymbolTableRecord
100
AcDbBlockTableRecord
  2
SW_SYMBOL_GTOL_SPROF
  0
BLOCK_RECORD
  5
E0
330
1
100
AcDbSymbolTableRecord
100
AcDbBlockTableRecord
  2
SW_SYMBOL_GTOL_POSI
  0
BLOCK_RECORD
  5
112
330
1
100
AcDbSymbolTableRecord
100
AcDbBlockTableRecord
  2
SW_NOTE_0_1
  0
BLOCK_RECORD
  5
11D
330
1
100
AcDbSymbolTableRecord
100
AcDbBlockTableRecord
  2
SW_NOTE_0_2
  0
BLOCK_RECORD
  5
132
330
1
100
AcDbSymbolTableRecord
100
AcDbBlockTableRecord
  2
SW_NOTE_0_3
  0
BLOCK_RECORD
  5
15F
330
1
100
AcDbSymbolTableRecord
100
AcDbBlockTableRecord
  2
_NONE
  0
BLOCK_RECORD
  5
162
330
1
100
AcDbSymbolTableRecord
100
AcDbBlockTableRecord
  2
_D
  0
BLOCK_RECORD
  5
16F
330
1
100
AcDbSymbolTableRecord
100
AcDbBlockTableRecord
  2
_D_1
  0
BLOCK_RECORD
  5
17B
330
1
100
AcDbSymbolTableRecord
100
AcDbBlockTableRecord
  2
_D_2
  0
BLOCK_RECORD
  5
187
330
1
100
AcDbSymbolTableRecord
100
AcDbBlockTableRecord
  2
_D_3
  0
BLOCK_RECORD
  5
194
330
1
100
AcDbSymbolTableRecord
100
AcDbBlockTableRecord
  2
_D_4
  0
BLOCK_RECORD
  5
19C
330
1
100
AcDbSymbolTableRecord
100
AcDbBlockTableRecord
  2
_D_5
  0
BLOCK_RECORD
  5
1A4
330
1
100
AcDbSymbolTableRecord
100
AcDbBlockTableRecord
  2
_D_6
  0
BLOCK_RECORD
  5
1B0
330
1
100
AcDbSymbolTableRecord
100
AcDbBlockTableRecord
  2
_D_7
  0
BLOCK_RECORD
  5
1BD
330
1
100
AcDbSymbolTableRecord
100
AcDbBlockTableRecord
  2
_D_8
  0
BLOCK_RECORD
  5
1C9
330
1
100
AcDbSymbolTableRecord
100
AcDbBlockTableRecord
  2
_D_9
  0
BLOCK_RECORD
  5
1D4
330
1
100
AcDbSymbolTableRecord
100
AcDbBlockTableRecord
  2
_D_10
  0
BLOCK_RECORD
  5
1E3
330
1
100
AcDbSymbolTableRecord
100
AcDbBlockTableRecord
  2
SW_SYMBOL_HOLE_DEPTH
  0
BLOCK_RECORD
  5
1EE
330
1
100
AcDbSymbolTableRecord
100
AcDbBlockTableRecord
  2
_D_11
  0
BLOCK_RECORD
  5
1FE
330
1
100
AcDbSymbolTableRecord
100
AcDbBlockTableRecord
  2
_D_12
  0
BLOCK_RECORD
  5
20D
330
1
100
AcDbSymbolTableRecord
100
AcDbBlockTableRecord
  2
_D_13
  0
BLOCK_RECORD
  5
21B
330
1
100
AcDbSymbolTableRecord
100
AcDbBlockTableRecord
  2
SW_SYMBOL_MOD_CL
  0
BLOCK_RECORD
  5
228
330
1
100
AcDbSymbolTableRecord
100
AcDbBlockTableRecord
  2
SW_CENTERMARKSYMBOL_0
  0
BLOCK_RECORD
  5
234
330
1
100
AcDbSymbolTableRecord
100
AcDbBlockTableRecord
  2
SW_CENTERMARKSYMBOL_1
  0
BLOCK_RECORD
  5
240
330
1
100
AcDbSymbolTableRecord
100
AcDbBlockTableRecord
  2
SW_CENTERMARKSYMBOL_2
  0
BLOCK_RECORD
  5
24C
330
1
100
AcDbSymbolTableRecord
100
AcDbBlockTableRecord
  2
SW_CENTERMARKSYMBOL_3
  0
BLOCK_RECORD
  5
260
330
1
100
AcDbSymbolTableRecord
100
AcDbBlockTableRecord
  2
SW_DATUMTAG_0
  0
BLOCK_RECORD
  5
26B
330
1
100
AcDbSymbolTableRecord
100
AcDbBlockTableRecord
  2
SW_DOWELSYMBOL_0
  0
BLOCK_RECORD
  5
272
330
1
100
AcDbSymbolTableRecord
100
AcDbBlockTableRecord
  2
SW_DOWELSYMBOL_1
  0
BLOCK_RECORD
  5
282
330
1
100
AcDbSymbolTableRecord
100
AcDbBlockTableRecord
  2
_D_14
  0
BLOCK_RECORD
  5
28C
330
1
100
AcDbSymbolTableRecord
100
AcDbBlockTableRecord
  2
_D_15
  0
BLOCK_RECORD
  5
296
330
1
100
AcDbSymbolTableRecord
100
AcDbBlockTableRecord
  2
SW_CENTERMARKSYMBOL_4
  0
BLOCK_RECORD
  5
2B4
330
1
100
AcDbSymbolTableRecord
100
AcDbBlockTableRecord
  2
_D_16
  0
BLOCK_RECORD
  5
2C6
330
1
100
AcDbSymbolTableRecord
100
AcDbBlockTableRecord
  2
_D_17
  0
BLOCK_RECORD
  5
2D9
330
1
100
AcDbSymbolTableRecord
100
AcDbBlockTableRecord
  2
SW_DATUMTAG_1
  0
BLOCK_RECORD
  5
2E4
330
1
100
AcDbSymbolTableRecord
100
AcDbBlockTableRecord
  2
SW_DATUMTAG_2
  0
BLOCK_RECORD
  5
316
330
1
100
AcDbSymbolTableRecord
100
AcDbBlockTableRecord
  2
_D_18
  0
BLOCK_RECORD
  5
320
330
1
100
AcDbSymbolTableRecord
100
AcDbBlockTableRecord
  2
_D_19
  0
BLOCK_RECORD
  5
32C
330
1
100
AcDbSymbolTableRecord
100
AcDbBlockTableRecord
  2
_D_20
  0
BLOCK_RECORD
  5
336
330
1
100
AcDbSymbolTableRecord
100
AcDbBlockTableRecord
  2
_D_21
  0
BLOCK_RECORD
  5
346
330
1
100
AcDbSymbolTableRecord
100
AcDbBlockTableRecord
  2
_D_22
  0
BLOCK_RECORD
  5
355
330
1
100
AcDbSymbolTableRecord
100
AcDbBlockTableRecord
  2
_D_23
  0
BLOCK_RECORD
  5
364
330
1
100
AcDbSymbolTableRecord
100
AcDbBlockTableRecord
  2
SW_CENTERMARKSYMBOL_5
  0
BLOCK_RECORD
  5
370
330
1
100
AcDbSymbolTableRecord
100
AcDbBlockTableRecord
  2
SW_CENTERMARKSYMBOL_6
  0
BLOCK_RECORD
  5
37C
330
1
100
AcDbSymbolTableRecord
100
AcDbBlockTableRecord
  2
SW_CENTERMARKSYMBOL_7
  0
BLOCK_RECORD
  5
388
330
1
100
AcDbSymbolTableRecord
100
AcDbBlockTableRecord
  2
SW_CENTERMARKSYMBOL_8
  0
BLOCK_RECORD
  5
39C
330
1
100
AcDbSymbolTableRecord
100
AcDbBlockTableRecord
  2
SW_DOWELSYMBOL_2
  0
BLOCK_RECORD
  5
3A3
330
1
100
AcDbSymbolTableRecord
100
AcDbBlockTableRecord
  2
SW_DOWELSYMBOL_3
  0
BLOCK_RECORD
  5
3B4
330
1
100
AcDbSymbolTableRecord
100
AcDbBlockTableRecord
  2
_D_24
  0
BLOCK_RECORD
  5
3C0
330
1
100
AcDbSymbolTableRecord
100
AcDbBlockTableRecord
  2
_D_25
  0
BLOCK_RECORD
  5
3CE
330
1
100
AcDbSymbolTableRecord
100
AcDbBlockTableRecord
  2
SW_CENTERMARKSYMBOL_9
  0
BLOCK_RECORD
  5
3DB
330
1
100
AcDbSymbolTableRecord
100
AcDbBlockTableRecord
  2
SW_DATUMTAG_3
  0
BLOCK_RECORD
  5
3EA
330
1
100
AcDbSymbolTableRecord
100
AcDbBlockTableRecord
  2
*U54
  0
BLOCK_RECORD
  5
3FA
330
1
100
AcDbSymbolTableRecord
100
AcDbBlockTableRecord
  2
*U55
  0
BLOCK_RECORD
  5
40C
330
1
100
AcDbSymbolTableRecord
100
AcDbBlockTableRecord
  2
*U56
  0
BLOCK_RECORD
  5
41C
330
1
100
AcDbSymbolTableRecord
100
AcDbBlockTableRecord
  2
*U57
  0
BLOCK_RECORD
  5
42E
330
1
100
AcDbSymbolTableRecord
100
AcDbBlockTableRecord
  2
*U58
  0
BLOCK_RECORD
  5
43E
330
1
100
AcDbSymbolTableRecord
100
AcDbBlockTableRecord
  2
*U59
  0
BLOCK_RECORD
  5
450
330
1
100
AcDbSymbolTableRecord
100
AcDbBlockTableRecord
  2
*U60
  0
BLOCK_RECORD
  5
460
330
1
100
AcDbSymbolTableRecord
100
AcDbBlockTableRecord
  2
*U61
  0
ENDTAB
  0
ENDSEC
  0
SECTION
  2
BLOCKS
  0
BLOCK
  5
20
330
1F
100
AcDbEntity
  8
0
100
AcDbBlockBegin
  2
*MODEL_SPACE
 70
     0
 10
0.0
 20
0.0
 30
0.0
  3
*MODEL_SPACE
  1

  0
ENDBLK
  5
21
330
1F
100
AcDbEntity
  8
0
100
AcDbBlockEnd
  0
BLOCK
  5
1C
330
1B
100
AcDbEntity
 67
     1
  8
0
100
AcDbBlockBegin
  2
*PAPER_SPACE
 70
     0
 10
0.0
 20
0.0
 30
0.0
  3
*PAPER_SPACE
  1

  0
ENDBLK
  5
1D
330
1B
100
AcDbEntity
 67
     1
  8
0
100
AcDbBlockEnd
  0
BLOCK
  5
24
330
23
100
AcDbEntity
  8
0
100
AcDbBlockBegin
  2
*PAPER_SPACE0
 70
     0
 10
0.0
 20
0.0
 30
0.0
  3
*PAPER_SPACE0
  1

  0
ENDBLK
  5
25
330
23
100
AcDbEntity
  8
0
100
AcDbBlockEnd
  0
BLOCK
  5
B4
330
B3
100
AcDbEntity
  8
0
100
AcDbBlockBegin
  2
SW_NOTE_0
 70
     0
 10
0.0
 20
0.0
 30
0.0
  3
SW_NOTE_0
  1

  0
LINE
  5
B6
330
B3
100
AcDbEntity
  8
0
  6
SLD-SOLID
 62
     0
100
AcDbLine
 10
0.0125
 20
-0.5056102225
 30
0.0
 11
0.0125
 21
-0.7556102225
 31
0.0
  0
LINE
  5
B7
330
B3
100
AcDbEntity
  8
0
  6
SLD-SOLID
 62
     0
100
AcDbLine
 10
0.0125
 20
-0.7556102225
 30
0.0
 11
1.8404035433
 21
-0.7556102225
 31
0.0
  0
LINE
  5
B8
330
B3
100
AcDbEntity
  8
0
  6
SLD-SOLID
 62
     0
100
AcDbLine
 10
1.8404035433
 20
-0.5056102225
 30
0.0
 11
0.0125
 21
-0.5056102225
 31
0.0
  0
LINE
  5
B9
330
B3
100
AcDbEntity
  8
0
  6
SLD-SOLID
 62
     0
100
AcDbLine
 10
0.0125
 20
-0.5056102225
 30
0.0
 11
0.0125
 21
-0.7556102225
 31
0.0
  0
LINE
  5
BA
330
B3
100
AcDbEntity
  8
0
  6
SLD-SOLID
 62
     0
100
AcDbLine
 10
0.0125
 20
-0.7556102225
 30
0.0
 11
0.35
 21
-0.7556102225
 31
0.0
  0
LINE
  5
BB
330
B3
100
AcDbEntity
  8
0
  6
SLD-SOLID
 62
     0
100
AcDbLine
 10
0.35
 20
-0.5056102225
 30
0.0
 11
0.0125
 21
-0.5056102225
 31
0.0
  0
LINE
  5
BC
330
B3
100
AcDbEntity
  8
0
  6
SLD-SOLID
 62
     0
100
AcDbLine
 10
0.35
 20
-0.5056102225
 30
0.0
 11
0.35
 21
-0.7556102225
 31
0.0
  0
LINE
  5
BD
330
B3
100
AcDbEntity
  8
0
  6
SLD-SOLID
 62
     0
100
AcDbLine
 10
0.7916830709
 20
-0.5056102225
 30
0.0
 11
0.7916830709
 21
-0.7556102225
 31
0.0
  0
LINE
  5
BE
330
B3
100
AcDbEntity
  8
0
  6
SLD-SOLID
 62
     0
100
AcDbLine
 10
0.7916830709
 20
-0.5056102225
 30
0.0
 11
0.7916830709
 21
-0.7556102225
 31
0.0
  0
LINE
  5
BF
330
B3
100
AcDbEntity
  8
0
  6
SLD-SOLID
 62
     0
100
AcDbLine
 10
1.3404035433
 20
-0.5056102225
 30
0.0
 11
1.3404035433
 21
-0.7556102225
 31
0.0
  0
LINE
  5
C0
330
B3
100
AcDbEntity
  8
0
  6
SLD-SOLID
 62
     0
100
AcDbLine
 10
1.5904035433
 20
-0.5056102225
 30
0.0
 11
1.5904035433
 21
-0.7556102225
 31
0.0
  0
LINE
  5
C1
330
B3
100
AcDbEntity
  8
0
  6
SLD-SOLID
 62
     0
100
AcDbLine
 10
1.8404035433
 20
-0.5056102225
 30
0.0
 11
1.8404035433
 21
-0.7556102225
 31
0.0
  0
LINE
  5
C2
330
B3
100
AcDbEntity
  8
0
  6
SLD-SOLID
 62
     0
100
AcDbLine
 10
2.7079860082
 20
-0.7806102173
 30
0.0
 11
2.7079860082
 21
-1.0306102173
 31
0.0
  0
LINE
  5
C3
330
B3
100
AcDbEntity
  8
0
  6
SLD-SOLID
 62
     0
100
AcDbLine
 10
2.7079860082
 20
-1.0306102173
 30
0.0
 11
4.6608895515
 21
-1.0306102173
 31
0.0
  0
LINE
  5
C4
330
B3
100
AcDbEntity
  8
0
  6
SLD-SOLID
 62
     0
100
AcDbLine
 10
4.6608895515
 20
-0.7806102173
 30
0.0
 11
2.7079860082
 21
-0.7806102173
 31
0.0
  0
LINE
  5
C5
330
B3
100
AcDbEntity
  8
0
  6
SLD-SOLID
 62
     0
100
AcDbLine
 10
2.7079860082
 20
-0.7806102173
 30
0.0
 11
2.7079860082
 21
-1.0306102173
 31
0.0
  0
LINE
  5
C6
330
B3
100
AcDbEntity
  8
0
  6
SLD-SOLID
 62
     0
100
AcDbLine
 10
2.7079860082
 20
-1.0306102173
 30
0.0
 11
2.9829860082
 21
-1.0306102173
 31
0.0
  0
LINE
  5
C7
330
B3
100
AcDbEntity
  8
0
  6
SLD-SOLID
 62
     0
100
AcDbLine
 10
2.9829860082
 20
-0.7806102173
 30
0.0
 11
2.7079860082
 21
-0.7806102173
 31
0.0
  0
LINE
  5
C8
330
B3
100
AcDbEntity
  8
0
  6
SLD-SOLID
 62
     0
100
AcDbLine
 10
2.9829860082
 20
-0.7806102173
 30
0.0
 11
2.9829860082
 21
-1.0306102173
 31
0.0
  0
LINE
  5
C9
330
B3
100
AcDbEntity
  8
0
  6
SLD-SOLID
 62
     0
100
AcDbLine
 10
3.612169079
 20
-0.7806102173
 30
0.0
 11
3.612169079
 21
-1.0306102173
 31
0.0
  0
LINE
  5
CA
330
B3
100
AcDbEntity
  8
0
  6
SLD-SOLID
 62
     0
100
AcDbLine
 10
3.612169079
 20
-0.7806102173
 30
0.0
 11
3.612169079
 21
-1.0306102173
 31
0.0
  0
LINE
  5
CB
330
B3
100
AcDbEntity
  8
0
  6
SLD-SOLID
 62
     0
100
AcDbLine
 10
4.1608895515
 20
-0.7806102173
 30
0.0
 11
4.1608895515
 21
-1.0306102173
 31
0.0
  0
LINE
  5
CC
330
B3
100
AcDbEntity
  8
0
  6
SLD-SOLID
 62
     0
100
AcDbLine
 10
4.4108895515
 20
-0.7806102173
 30
0.0
 11
4.4108895515
 21
-1.0306102173
 31
0.0
  0
LINE
  5
CD
330
B3
100
AcDbEntity
  8
0
  6
SLD-SOLID
 62
     0
100
AcDbLine
 10
4.6608895515
 20
-0.7806102173
 30
0.0
 11
4.6608895515
 21
-1.0306102173
 31
0.0
  0
MTEXT
  5
CF
330
B3
100
AcDbEntity
  8
0
  6
CONTINUOUS
 62
     0
100
AcDbMText
 10
0.0
 20
0.1611334675
 30
0.0
 40
0.125
 41
0.0
 71
     1
 72
     1
  1
NOTES:
  7
SLDTEXTSTYLE0
  0
MTEXT
  5
D0
330
B3
100
AcDbEntity
  8
0
  6
CONTINUOUS
 62
     0
100
AcDbMText
 10
0.0
 20
-0.1676066816
 30
0.0
 40
0.125
 41
0.0
 71
     1
 72
     1
  1
TOLERANCING PER ASME 14.5Y-2009
  7
SLDTEXTSTYLE0
  0
MTEXT
  5
D1
330
B3
100
AcDbEntity
  8
0
  6
CONTINUOUS
 62
     0
100
AcDbMText
 10
0.0
 20
-0.3319767561
 30
0.0
 40
0.125
 41
0.0
 71
     1
 72
     1
  1
MATERIAL - AISI 316
  7
SLDTEXTSTYLE0
  0
INSERT
  5
D7
330
B3
100
AcDbEntity
  8
0
  6
CONTINUOUS
 62
     0
100
AcDbBlockReference
  2
SW_SYMBOL_GTOL_SPROF
 10
0.0375
 20
-0.6939945112
 30
0.0
 41
0.0034488282
 42
0.0034488282
 43
0.0034488282
  0
MTEXT
  5
D8
330
B3
100
AcDbEntity
  8
0
  6
CONTINUOUS
 62
     0
100
AcDbMText
 10
0.409209586
 20
-0.5686954943
 30
0.0
 40
0.125
 41
0.0
 71
     1
 72
     1
  1
.020
  7
SLDTEXTSTYLE0
  0
MTEXT
  5
D9
330
B3
100
AcDbEntity
  8
0
  6
CONTINUOUS
 62
     0
100
AcDbMText
 10
0.8550511266
 20
-0.5686954943
 30
0.0
 40
0.125
 41
0.0
 71
     1
 72
     1
  1
A
  7
SLDTEXTSTYLE0
  0
MTEXT
  5
DA
330
B3
100
AcDbEntity
  8
0
  6
CONTINUOUS
 62
     0
100
AcDbMText
 10
1.0383523347
 20
-0.5686954943
 30
0.0
 40
0.125
 41
0.0
 71
     1
 72
     1
  1
-
  7
SLDTEXTSTYLE0
  0
MTEXT
  5
DB
330
B3
100
AcDbEntity
  8
0
  6
CONTINUOUS
 62
     0
100
AcDbMText
 10
1.1763089166
 20
-0.5686954943
 30
0.0
 40
0.125
 41
0.0
 71
     1
 72
     1
  1
B
  7
SLDTEXTSTYLE0
  0
MTEXT
  5
DC
330
B3
100
AcDbEntity
  8
0
  6
CONTINUOUS
 62
     0
100
AcDbMText
 10
1.3976952096
 20
-0.5686954943
 30
0.0
 40
0.125
 41
0.0
 71
     1
 72
     1
  1
C
  7
SLDTEXTSTYLE0
  0
MTEXT
  5
DD
330
B3
100
AcDbEntity
  8
0
  6
CONTINUOUS
 62
     0
100
AcDbMText
 10
1.6534243789
 20
-0.5686954943
 30
0.0
 40
0.125
 41
0.0
 71
     1
 72
     1
  1
D
  7
SLDTEXTSTYLE0
  0
MTEXT
  5
DE
330
B3
100
AcDbEntity
  8
0
  6
CONTINUOUS
 62
     0
100
AcDbMText
 10
1.8997786618
 20
-0.5686086992
 30
0.0
 40
0.125
 41
0.0
 71
     1
 72
     1
  1
UNLESS OTHERWISE STATED
  7
SLDTEXTSTYLE0
  0
MTEXT
  5
DF
330
B3
100
AcDbEntity
  8
0
  6
CONTINUOUS
 62
     0
100
AcDbMText
 10
0.0
 20
-0.843608694
 30
0.0
 40
0.125
 41
0.0
 71
     1
 72
     1
  1
ALL FEATURES OF SIZE AND HOLES
  7
SLDTEXTSTYLE0
  0
INSERT
  5
E6
330
B3
100
AcDbEntity
  8
0
  6
CONTINUOUS
 62
     0
100
AcDbBlockReference
  2
SW_SYMBOL_GTOL_POSI
 10
2.7329860082
 20
-0.968994504
 30
0.0
 41
0.0034488281
 42
0.0034488281
 43
0.0034488281
  0
MTEXT
  5
E7
330
B3
100
AcDbEntity
  8
0
  6
CONTINUOUS
 62
     0
100
AcDbMText
 10
3.0017360082
 20
-0.8467083284
 30
0.0
 40
0.1062992151
 41
0.0
 71
     1
 72
     1
  1
%%c
  7
SLDTEXTSTYLE0
  0
MTEXT
  5
E8
330
B3
100
AcDbEntity
  8
0
  6
CONTINUOUS
 62
     0
100
AcDbMText
 10
3.2234455941
 20
-0.8436954891
 30
0.0
 40
0.125
 41
0.0
 71
     1
 72
     1
  1
.010
  7
SLDTEXTSTYLE0
  0
MTEXT
  5
E9
330
B3
100
AcDbEntity
  8
0
  6
CONTINUOUS
 62
     0
100
AcDbMText
 10
3.6755371348
 20
-0.8436954891
 30
0.0
 40
0.125
 41
0.0
 71
     1
 72
     1
  1
A
  7
SLDTEXTSTYLE0
  0
MTEXT
  5
EA
330
B3
100
AcDbEntity
  8
0
  6
CONTINUOUS
 62
     0
100
AcDbMText
 10
3.8588383429
 20
-0.8436954891
 30
0.0
 40
0.125
 41
0.0
 71
     1
 72
     1
  1
-
  7
SLDTEXTSTYLE0
  0
MTEXT
  5
EB
330
B3
100
AcDbEntity
  8
0
  6
CONTINUOUS
 62
     0
100
AcDbMText
 10
3.9967949248
 20
-0.8436954891
 30
0.0
 40
0.125
 41
0.0
 71
     1
 72
     1
  1
B
  7
SLDTEXTSTYLE0
  0
MTEXT
  5
EC
330
B3
100
AcDbEntity
  8
0
  6
CONTINUOUS
 62
     0
100
AcDbMText
 10
4.2181812178
 20
-0.8436954891
 30
0.0
 40
0.125
 41
0.0
 71
     1
 72
     1
  1
C
  7
SLDTEXTSTYLE0
  0
MTEXT
  5
ED
330
B3
100
AcDbEntity
  8
0
  6
CONTINUOUS
 62
     0
100
AcDbMText
 10
4.4739103871
 20
-0.8436954891
 30
0.0
 40
0.125
 41
0.0
 71
     1
 72
     1
  1
D
  7
SLDTEXTSTYLE0
  0
MTEXT
  5
EE
330
B3
100
AcDbEntity
  8
0
  6
CONTINUOUS
 62
     0
100
AcDbMText
 10
4.7202645859
 20
-0.843608694
 30
0.0
 40
0.125
 41
0.0
 71
     1
 72
     1
  1
UNLESS OTHERWISE STATED
  7
SLDTEXTSTYLE0
  0
ENDBLK
  5
B5
330
B3
100
AcDbEntity
  8
0
100
AcDbBlockEnd
  0
BLOCK
  5
D3
330
D2
100
AcDbEntity
  8
0
100
AcDbBlockBegin
  2
SW_SYMBOL_GTOL_SPROF
 70
     0
 10
0.0
 20
0.0
 30
0.0
  3
SW_SYMBOL_GTOL_SPROF
  1

  0
ARC
  5
D5
330
D2
100
AcDbEntity
  8
0
  6
CONTINUOUS
 62
     0
100
AcDbCircle
 10
39.3700787402
 20
0.0
 30
0.0
 40
39.37007874015748
100
AcDbArc
 50
0.0
 51
180.0
  0
LINE
  5
D6
330
D2
100
AcDbEntity
  8
0
  6
CONTINUOUS
 62
     0
100
AcDbLine
 10
0.0
 20
0.0
 30
0.0
 11
78.7401574803
 21
0.0
 31
0.0
  0
ENDBLK
  5
D4
330
D2
100
AcDbEntity
  8
0
100
AcDbBlockEnd
  0
BLOCK
  5
E1
330
E0
100
AcDbEntity
  8
0
100
AcDbBlockBegin
  2
SW_SYMBOL_GTOL_POSI
 70
     0
 10
0.0
 20
0.0
 30
0.0
  3
SW_SYMBOL_GTOL_POSI
  1

  0
CIRCLE
  5
E3
330
E0
100
AcDbEntity
  8
0
  6
CONTINUOUS
 62
     0
100
AcDbCircle
 10
29.5275590551
 20
19.6850393701
 30
0.0
 40
19.68503937007874
  0
LINE
  5
E4
330
E0
100
AcDbEntity
  8
0
  6
CONTINUOUS
 62
     0
100
AcDbLine
 10
0.0
 20
19.6850393701
 30
0.0
 11
59.0551181102
 21
19.6850393701
 31
0.0
  0
LINE
  5
E5
330
E0
100
AcDbEntity
  8
0
  6
CONTINUOUS
 62
     0
100
AcDbLine
 10
29.5275590551
 20
-9.842519685
 30
0.0
 11
29.5275590551
 21
49.2125984252
 31
0.0
  0
ENDBLK
  5
E2
330
E0
100
AcDbEntity
  8
0
100
AcDbBlockEnd
  0
BLOCK
  5
113
330
112
100
AcDbEntity
  8
0
100
AcDbBlockBegin
  2
SW_NOTE_0_1
 70
     0
 10
0.0
 20
0.0
 30
0.0
  3
SW_NOTE_0_1
  1

  0
MTEXT
  5
115
330
112
100
AcDbEntity
  8
0
  6
CONTINUOUS
 62
     0
100
AcDbMText
 10
0.0
 20
0.0761260476
 30
0.0
 40
0.0590551181
 41
0.0
 71
     1
 72
     1
  1
UNLESS OTHERWISE SPECIFIED:
  7
SLDTEXTSTYLE0
  0
MTEXT
  5
116
330
112
100
AcDbEntity
  8
0
  6
CONTINUOUS
 62
     0
100
AcDbMText
 10
0.0
 20
-0.022299147
 30
0.0
 40
0.0590551181
 41
0.0
 71
     1
 72
     1
  1
DIMENSIONS ARE IN MILLIMETERS
  7
SLDTEXTSTYLE0
  0
MTEXT
  5
117
330
112
100
AcDbEntity
  8
0
  6
CONTINUOUS
 62
     0
100
AcDbMText
 10
0.0
 20
-0.1207243417
 30
0.0
 40
0.0590551181
 41
0.0
 71
     1
 72
     1
  1
SURFACE FINISH:
  7
SLDTEXTSTYLE0
  0
MTEXT
  5
118
330
112
100
AcDbEntity
  8
0
  6
CONTINUOUS
 62
     0
100
AcDbMText
 10
0.0
 20
-0.2191495363
 30
0.0
 40
0.0590551181
 41
0.0
 71
     1
 72
     1
  1
TOLERANCES:
  7
SLDTEXTSTYLE0
  0
MTEXT
  5
119
330
112
100
AcDbEntity
  8
0
  6
CONTINUOUS
 62
     0
100
AcDbMText
 10
0.0664370079
 20
-0.317574731
 30
0.0
 40
0.0590551181
 41
0.0
 71
     1
 72
     1
  1
LINEAR:
  7
SLDTEXTSTYLE0
  0
MTEXT
  5
11A
330
112
100
AcDbEntity
  8
0
  6
CONTINUOUS
 62
     0
100
AcDbMText
 10
0.0664370079
 20
-0.4159999256
 30
0.0
 40
0.0590551181
 41
0.0
 71
     1
 72
     1
  1
ANGULAR:
  7
SLDTEXTSTYLE0
  0
ENDBLK
  5
114
330
112
100
AcDbEntity
  8
0
100
AcDbBlockEnd
  0
BLOCK
  5
11E
330
11D
100
AcDbEntity
  8
0
100
AcDbBlockBegin
  2
SW_NOTE_0_2
 70
     0
 10
0.0
 20
0.0
 30
0.0
  3
SW_NOTE_0_2
  1

  0
MTEXT
  5
120
330
11D
100
AcDbEntity
  8
0
  6
CONTINUOUS
 62
     0
100
AcDbMText
 10
0.0
 20
0.0761260476
 30
0.0
 40
0.0590551181
 41
0.0
 71
     1
 72
     1
  1
DEBURR AND
  7
SLDTEXTSTYLE0
  0
MTEXT
  5
121
330
11D
100
AcDbEntity
  8
0
  6
CONTINUOUS
 62
     0
100
AcDbMText
 10
0.0
 20
-0.022299147
 30
0.0
 40
0.0590551181
 41
0.0
 71
     1
 72
     1
  1
BREAK SHARP
  7
SLDTEXTSTYLE0
  0
MTEXT
  5
122
330
11D
100
AcDbEntity
  8
0
  6
CONTINUOUS
 62
     0
100
AcDbMText
 10
0.0
 20
-0.1207243417
 30
0.0
 40
0.0590551181
 41
0.0
 71
     1
 72
     1
  1
EDGES
  7
SLDTEXTSTYLE0
  0
ENDBLK
  5
11F
330
11D
100
AcDbEntity
  8
0
100
AcDbBlockEnd
  0
BLOCK
  5
133
330
132
100
AcDbEntity
  8
0
100
AcDbBlockBegin
  2
SW_NOTE_0_3
 70
     0
 10
0.0
 20
0.0
 30
0.0
  3
SW_NOTE_0_3
  1

  0
MTEXT
  5
135
330
132
100
AcDbEntity
  8
0
  6
CONTINUOUS
 62
     0
100
AcDbMText
 10
1.17578125
 20
0.3222669349
 30
0.0
 40
0.25
 41
0.0
 71
     2
 72
     1
  1
LAS ELEVATION
  7
SLDTEXTSTYLE0
  0
MTEXT
  5
136
330
132
100
AcDbEntity
  8
0
  6
CONTINUOUS
 62
     0
100
AcDbMText
 10
1.1724609352
 20
0.0028224852
 30
0.0
 40
0.25
 41
0.0
 71
     2
 72
     1
  1
PIVOT ARM
  7
SLDTEXTSTYLE0
  0
ENDBLK
  5
134
330
132
100
AcDbEntity
  8
0
100
AcDbBlockEnd
  0
BLOCK
  5
160
330
15F
100
AcDbEntity
  8
0
100
AcDbBlockBegin
  2
_NONE
 70
     0
 10
0.0
 20
0.0
 30
0.0
  3
_NONE
  1

  0
ENDBLK
  5
161
330
15F
100
AcDbEntity
  8
0
100
AcDbBlockEnd
  0
BLOCK
  5
163
330
162
100
AcDbEntity
  8
0
100
AcDbBlockBegin
  2
_D
 70
     0
 10
0.0
 20
0.0
 30
0.0
  3
_D
  1

  0
LINE
  5
165
330
162
100
AcDbEntity
  8
0
  6
SLD-SOLID
 62
     7
100
AcDbLine
 10
4.9533445733
 20
4.7332129462
 30
0.0
 11
4.7549070674
 21
4.7332129462
 31
0.0
  0
LINE
  5
166
330
162
100
AcDbEntity
  8
0
  6
SLD-SOLID
 62
     7
100
AcDbLine
 10
4.7549070674
 20
4.7332129462
 30
0.0
 11
4.7549070674
 21
5.1326487171
 31
0.0
  0
LINE
  5
167
330
162
100
AcDbEntity
  8
0
  6
SLD-SOLID
 62
     7
100
AcDbLine
 10
4.7549070674
 20
5.1326487171
 30
0.0
 11
4.9533445733
 21
5.1326487171
 31
0.0
  0
LINE
  5
168
330
162
100
AcDbEntity
  8
0
  6
SLD-SOLID
 62
     7
100
AcDbLine
 10
4.9533445733
 20
5.1326487171
 30
0.0
 11
4.9533445733
 21
4.7332129462
 31
0.0
  0
LINE
  5
169
330
162
100
AcDbEntity
  8
0
  6
SLD-SOLID
 62
     7
100
AcDbLine
 10
4.8541258203
 20
5.3421944136
 30
0.0
 11
4.8541258203
 21
5.1453440199
 31
0.0
  0
LINE
  5
16A
330
162
100
AcDbEntity
  8
0
  6
SLD-SOLID
 62
     7
100
AcDbLine
 10
4.8541258203
 20
5.3421944136
 30
0.0
 11
4.8541258203
 21
5.5390448073
 31
0.0
  0
LINE
  5
16B
330
162
100
AcDbEntity
  8
0
  6
SLD-SOLID
 62
     7
100
AcDbLine
 10
4.8541258203
 20
5.5390448073
 30
0.0
 11
4.8541258203
 21
6.2128843232
 31
0.0
  0
MTEXT
  5
16C
330
162
100
AcDbEntity
  8
0
  6
SLD-SOLID
 62
     7
100
AcDbMText
 10
4.7922110921
 20
4.7712988822
 30
0.0
 40
0.125
 41
0.0
 71
     1
 72
     1
  1
.000
  7
SLDTEXTSTYLE0
 11
6.123233995736766E-17
 21
1.0
 31
0.0
  0
ENDBLK
  5
164
330
162
100
AcDbEntity
  8
0
100
AcDbBlockEnd
  0
BLOCK
  5
170
330
16F
100
AcDbEntity
  8
0
100
AcDbBlockBegin
  2
_D_1
 70
     0
 10
0.0
 20
0.0
 30
0.0
  3
_D_1
  1

  0
LINE
  5
172
330
16F
100
AcDbEntity
  8
0
  6
SLD-SOLID
 62
     7
100
AcDbLine
 10
5.1537664544
 20
4.7332129462
 30
0.0
 11
4.9553289484
 21
4.7332129462
 31
0.0
  0
LINE
  5
173
330
16F
100
AcDbEntity
  8
0
  6
SLD-SOLID
 62
     7
100
AcDbLine
 10
4.9553289484
 20
4.7332129462
 30
0.0
 11
4.9553289484
 21
5.1326487171
 31
0.0
  0
LINE
  5
174
330
16F
100
AcDbEntity
  8
0
  6
SLD-SOLID
 62
     7
100
AcDbLine
 10
4.9553289484
 20
5.1326487171
 30
0.0
 11
5.1537664544
 21
5.1326487171
 31
0.0
  0
LINE
  5
175
330
16F
100
AcDbEntity
  8
0
  6
SLD-SOLID
 62
     7
100
AcDbLine
 10
5.1537664544
 20
5.1326487171
 30
0.0
 11
5.1537664544
 21
4.7332129462
 31
0.0
  0
LINE
  5
176
330
16F
100
AcDbEntity
  8
0
  6
SLD-SOLID
 62
     7
100
AcDbLine
 10
5.0545477014
 20
5.3421944136
 30
0.0
 11
5.0545477014
 21
5.1453440199
 31
0.0
  0
LINE
  5
177
330
16F
100
AcDbEntity
  8
0
  6
SLD-SOLID
 62
     7
100
AcDbLine
 10
5.0545477014
 20
5.3421944136
 30
0.0
 11
5.1100313322
 21
5.5390448073
 31
0.0
  0
LINE
  5
178
330
16F
100
AcDbEntity
  8
0
  6
SLD-SOLID
 62
     7
100
AcDbLine
 10
5.1100313322
 20
5.5390448073
 30
0.0
 11
5.1100313322
 21
6.1065851106
 31
0.0
  0
MTEXT
  5
179
330
16F
100
AcDbEntity
  8
0
  6
SLD-SOLID
 62
     7
100
AcDbMText
 10
4.9926329731
 20
4.7712988822
 30
0.0
 40
0.125
 41
0.0
 71
     1
 72
     1
  1
.256
  7
SLDTEXTSTYLE0
 11
6.123233995736766E-17
 21
1.0
 31
0.0
  0
ENDBLK
  5
171
330
16F
100
AcDbEntity
  8
0
100
AcDbBlockEnd
  0
BLOCK
  5
17C
330
17B
100
AcDbEntity
  8
0
100
AcDbBlockBegin
  2
_D_2
 70
     0
 10
0.0
 20
0.0
 30
0.0
  3
_D_2
  1

  0
LINE
  5
17E
330
17B
100
AcDbEntity
  8
0
  6
SLD-SOLID
 62
     7
100
AcDbLine
 10
5.3541883354
 20
4.7332129462
 30
0.0
 11
5.1557508294
 21
4.7332129462
 31
0.0
  0
LINE
  5
17F
330
17B
100
AcDbEntity
  8
0
  6
SLD-SOLID
 62
     7
100
AcDbLine
 10
5.1557508294
 20
4.7332129462
 30
0.0
 11
5.1557508294
 21
5.1326487171
 31
0.0
  0
LINE
  5
180
330
17B
100
AcDbEntity
  8
0
  6
SLD-SOLID
 62
     7
100
AcDbLine
 10
5.1557508294
 20
5.1326487171
 30
0.0
 11
5.3541883354
 21
5.1326487171
 31
0.0
  0
LINE
  5
181
330
17B
100
AcDbEntity
  8
0
  6
SLD-SOLID
 62
     7
100
AcDbLine
 10
5.3541883354
 20
5.1326487171
 30
0.0
 11
5.3541883354
 21
4.7332129462
 31
0.0
  0
LINE
  5
182
330
17B
100
AcDbEntity
  8
0
  6
SLD-SOLID
 62
     7
100
AcDbLine
 10
5.2549695824
 20
5.3421944136
 30
0.0
 11
5.2549695824
 21
5.1453440199
 31
0.0
  0
LINE
  5
183
330
17B
100
AcDbEntity
  8
0
  6
SLD-SOLID
 62
     7
100
AcDbLine
 10
5.2549695824
 20
5.3421944136
 30
0.0
 11
5.208456529
 21
5.5390448073
 31
0.0
  0
LINE
  5
184
330
17B
100
AcDbEntity
  8
0
  6
SLD-SOLID
 62
     7
100
AcDbLine
 10
5.208456529
 20
5.5390448073
 30
0.0
 11
5.208456529
 21
5.6930161919
 31
0.0
  0
MTEXT
  5
185
330
17B
100
AcDbEntity
  8
0
  6
SLD-SOLID
 62
     7
100
AcDbMText
 10
5.1930548542
 20
4.7712988822
 30
0.0
 40
0.125
 41
0.0
 71
     1
 72
     1
  1
.354
  7
SLDTEXTSTYLE0
 11
6.123233995736766E-17
 21
1.0
 31
0.0
  0
ENDBLK
  5
17D
330
17B
100
AcDbEntity
  8
0
100
AcDbBlockEnd
  0
BLOCK
  5
188
330
187
100
AcDbEntity
  8
0
100
AcDbBlockBegin
  2
_D_3
 70
     0
 10
0.0
 20
0.0
 30
0.0
  3
_D_3
  1

  0
LINE
  5
18A
330
187
100
AcDbEntity
  8
0
  6
SLD-SOLID
 62
     7
100
AcDbLine
 10
5.5546102164
 20
4.7332129462
 30
0.0
 11
5.3561727104
 21
4.7332129462
 31
0.0
  0
LINE
  5
18B
330
187
100
AcDbEntity
  8
0
  6
SLD-SOLID
 62
     7
100
AcDbLine
 10
5.3561727104
 20
4.7332129462
 30
0.0
 11
5.3561727104
 21
5.1326487171
 31
0.0
  0
LINE
  5
18C
330
187
100
AcDbEntity
  8
0
  6
SLD-SOLID
 62
     7
100
AcDbLine
 10
5.3561727104
 20
5.1326487171
 30
0.0
 11
5.5546102164
 21
5.1326487171
 31
0.0
  0
LINE
  5
18D
330
187
100
AcDbEntity
  8
0
  6
SLD-SOLID
 62
     7
100
AcDbLine
 10
5.5546102164
 20
5.1326487171
 30
0.0
 11
5.5546102164
 21
4.7332129462
 31
0.0
  0
LINE
  5
18E
330
187
100
AcDbEntity
  8
0
  6
SLD-SOLID
 62
     7
100
AcDbLine
 10
5.4553914634
 20
5.3421944136
 30
0.0
 11
5.4553914634
 21
5.1453440199
 31
0.0
  0
LINE
  5
18F
330
187
100
AcDbEntity
  8
0
  6
SLD-SOLID
 62
     7
100
AcDbLine
 10
5.4553914634
 20
5.3421944136
 30
0.0
 11
5.4249919621
 21
5.5390448073
 31
0.0
  0
LINE
  5
190
330
187
100
AcDbEntity
  8
0
  6
SLD-SOLID
 62
     7
100
AcDbLine
 10
5.4249919621
 20
5.5390448073
 30
0.0
 11
5.4249919621
 21
6.5960654256
 31
0.0
  0
MTEXT
  5
191
330
187
100
AcDbEntity
  8
0
  6
SLD-SOLID
 62
     7
100
AcDbMText
 10
5.3934767352
 20
4.7712988822
 30
0.0
 40
0.125
 41
0.0
 71
     1
 72
     1
  1
.571
  7
SLDTEXTSTYLE0
 11
6.123233995736766E-17
 21
1.0
 31
0.0
  0
ENDBLK
  5
189
330
187
100
AcDbEntity
  8
0
100
AcDbBlockEnd
  0
BLOCK
  5
195
330
194
100
AcDbEntity
  8
0
100
AcDbBlockBegin
  2
_D_4
 70
     0
 10
0.0
 20
0.0
 30
0.0
  3
_D_4
  1

  0
LINE
  5
197
330
194
100
AcDbEntity
  8
0
  6
SLD-SOLID
 62
     7
100
AcDbLine
 10
5.6558133444
 20
5.3421944136
 30
0.0
 11
5.6558133444
 21
5.1453440199
 31
0.0
  0
LINE
  5
198
330
194
100
AcDbEntity
  8
0
  6
SLD-SOLID
 62
     7
100
AcDbLine
 10
5.6558133444
 20
5.3421944136
 30
0.0
 11
5.5268620408
 21
5.5390448073
 31
0.0
  0
LINE
  5
199
330
194
100
AcDbEntity
  8
0
  6
SLD-SOLID
 62
     7
100
AcDbLine
 10
5.5268620408
 20
5.5390448073
 30
0.0
 11
5.5268620408
 21
5.6930161919
 31
0.0
  0
MTEXT
  5
19A
330
194
100
AcDbEntity
  8
0
  6
SLD-SOLID
 62
     7
100
AcDbMText
 10
5.5938986162
 20
4.822080121
 30
0.0
 40
0.125
 41
0.0
 71
     1
 72
     1
  1
.673
  7
SLDTEXTSTYLE0
 11
6.123233995736766E-17
 21
1.0
 31
0.0
  0
ENDBLK
  5
196
330
194
100
AcDbEntity
  8
0
100
AcDbBlockEnd
  0
BLOCK
  5
19D
330
19C
100
AcDbEntity
  8
0
100
AcDbBlockBegin
  2
_D_5
 70
     0
 10
0.0
 20
0.0
 30
0.0
  3
_D_5
  1

  0
LINE
  5
19F
330
19C
100
AcDbEntity
  8
0
  6
SLD-SOLID
 62
     7
100
AcDbLine
 10
6.7368099279
 20
5.3421944136
 30
0.0
 11
6.7368099279
 21
5.1453440199
 31
0.0
  0
LINE
  5
1A0
330
19C
100
AcDbEntity
  8
0
  6
SLD-SOLID
 62
     7
100
AcDbLine
 10
6.7368099279
 20
5.3421944136
 30
0.0
 11
6.8585549542
 21
5.5390448073
 31
0.0
  0
LINE
  5
1A1
330
19C
100
AcDbEntity
  8
0
  6
SLD-SOLID
 62
     7
100
AcDbLine
 10
6.8585549542
 20
5.5390448073
 30
0.0
 11
6.8585549542
 21
5.6930161919
 31
0.0
  0
MTEXT
  5
1A2
330
19C
100
AcDbEntity
  8
0
  6
SLD-SOLID
 62
     7
100
AcDbMText
 10
6.6748951997
 20
4.7297190279
 30
0.0
 40
0.125
 41
0.0
 71
     1
 72
     1
  1
2.004
  7
SLDTEXTSTYLE0
 11
6.123233995736766E-17
 21
1.0
 31
0.0
  0
ENDBLK
  5
19E
330
19C
100
AcDbEntity
  8
0
100
AcDbBlockEnd
  0
BLOCK
  5
1A5
330
1A4
100
AcDbEntity
  8
0
100
AcDbBlockBegin
  2
_D_6
 70
     0
 10
0.0
 20
0.0
 30
0.0
  3
_D_6
  1

  0
LINE
  5
1A7
330
1A4
100
AcDbEntity
  8
0
  6
SLD-SOLID
 62
     7
100
AcDbLine
 10
7.0364505619
 20
4.6408518532
 30
0.0
 11
6.838013056
 21
4.6408518532
 31
0.0
  0
LINE
  5
1A8
330
1A4
100
AcDbEntity
  8
0
  6
SLD-SOLID
 62
     7
100
AcDbLine
 10
6.838013056
 20
4.6408518532
 30
0.0
 11
6.838013056
 21
5.1326487171
 31
0.0
  0
LINE
  5
1A9
330
1A4
100
AcDbEntity
  8
0
  6
SLD-SOLID
 62
     7
100
AcDbLine
 10
6.838013056
 20
5.1326487171
 30
0.0
 11
7.0364505619
 21
5.1326487171
 31
0.0
  0
LINE
  5
1AA
330
1A4
100
AcDbEntity
  8
0
  6
SLD-SOLID
 62
     7
100
AcDbLine
 10
7.0364505619
 20
5.1326487171
 30
0.0
 11
7.0364505619
 21
4.6408518532
 31
0.0
  0
LINE
  5
1AB
330
1A4
100
AcDbEntity
  8
0
  6
SLD-SOLID
 62
     7
100
AcDbLine
 10
6.937231809
 20
5.3421944136
 30
0.0
 11
6.937231809
 21
5.1453440199
 31
0.0
  0
LINE
  5
1AC
330
1A4
100
AcDbEntity
  8
0
  6
SLD-SOLID
 62
     7
100
AcDbLine
 10
6.937231809
 20
5.3421944136
 30
0.0
 11
6.9604250329
 21
5.5390448073
 31
0.0
  0
LINE
  5
1AD
330
1A4
100
AcDbEntity
  8
0
  6
SLD-SOLID
 62
     7
100
AcDbLine
 10
6.9604250329
 20
5.5390448073
 30
0.0
 11
6.9604250329
 21
6.5960654256
 31
0.0
  0
MTEXT
  5
1AE
330
1A4
100
AcDbEntity
  8
0
  6
SLD-SOLID
 62
     7
100
AcDbMText
 10
6.8753170807
 20
4.6789377891
 30
0.0
 40
0.125
 41
0.0
 71
     1
 72
     1
  1
2.106
  7
SLDTEXTSTYLE0
 11
6.123233995736766E-17
 21
1.0
 31
0.0
  0
ENDBLK
  5
1A6
330
1A4
100
AcDbEntity
  8
0
100
AcDbBlockEnd
  0
BLOCK
  5
1B1
330
1B0
100
AcDbEntity
  8
0
100
AcDbBlockBegin
  2
_D_7
 70
     0
 10
0.0
 20
0.0
 30
0.0
  3
_D_7
  1

  0
LINE
  5
1B3
330
1B0
100
AcDbEntity
  8
0
  6
SLD-SOLID
 62
     7
100
AcDbLine
 10
7.236872443
 20
4.6408518532
 30
0.0
 11
7.038434937
 21
4.6408518532
 31
0.0
  0
LINE
  5
1B4
330
1B0
100
AcDbEntity
  8
0
  6
SLD-SOLID
 62
     7
100
AcDbLine
 10
7.038434937
 20
4.6408518532
 30
0.0
 11
7.038434937
 21
5.1326487171
 31
0.0
  0
LINE
  5
1B5
330
1B0
100
AcDbEntity
  8
0
  6
SLD-SOLID
 62
     7
100
AcDbLine
 10
7.038434937
 20
5.1326487171
 30
0.0
 11
7.236872443
 21
5.1326487171
 31
0.0
  0
LINE
  5
1B6
330
1B0
100
AcDbEntity
  8
0
  6
SLD-SOLID
 62
     7
100
AcDbLine
 10
7.236872443
 20
5.1326487171
 30
0.0
 11
7.236872443
 21
4.6408518532
 31
0.0
  0
LINE
  5
1B7
330
1B0
100
AcDbEntity
  8
0
  6
SLD-SOLID
 62
     7
100
AcDbLine
 10
7.13765369
 20
5.3421944136
 30
0.0
 11
7.13765369
 21
5.1453440199
 31
0.0
  0
LINE
  5
1B8
330
1B0
100
AcDbEntity
  8
0
  6
SLD-SOLID
 62
     7
100
AcDbLine
 10
7.13765369
 20
5.3421944136
 30
0.0
 11
7.176960466
 21
5.5390448073
 31
0.0
  0
LINE
  5
1B9
330
1B0
100
AcDbEntity
  8
0
  6
SLD-SOLID
 62
     7
100
AcDbLine
 10
7.176960466
 20
5.5390448073
 30
0.0
 11
7.176960466
 21
5.6930161919
 31
0.0
  0
MTEXT
  5
1BA
330
1B0
100
AcDbEntity
  8
0
  6
SLD-SOLID
 62
     7
100
AcDbMText
 10
7.0757389617
 20
4.6789377891
 30
0.0
 40
0.125
 41
0.0
 71
     1
 72
     1
  1
2.323
  7
SLDTEXTSTYLE0
 11
6.123233995736766E-17
 21
1.0
 31
0.0
  0
ENDBLK
  5
1B2
330
1B0
100
AcDbEntity
  8
0
100
AcDbBlockEnd
  0
BLOCK
  5
1BE
330
1BD
100
AcDbEntity
  8
0
100
AcDbBlockBegin
  2
_D_8
 70
     0
 10
0.0
 20
0.0
 30
0.0
  3
_D_8
  1

  0
LINE
  5
1C0
330
1BD
100
AcDbEntity
  8
0
  6
SLD-SOLID
 62
     7
100
AcDbLine
 10
7.437294324
 20
4.6408518532
 30
0.0
 11
7.238856818
 21
4.6408518532
 31
0.0
  0
LINE
  5
1C1
330
1BD
100
AcDbEntity
  8
0
  6
SLD-SOLID
 62
     7
100
AcDbLine
 10
7.238856818
 20
4.6408518532
 30
0.0
 11
7.238856818
 21
5.1326487171
 31
0.0
  0
LINE
  5
1C2
330
1BD
100
AcDbEntity
  8
0
  6
SLD-SOLID
 62
     7
100
AcDbLine
 10
7.238856818
 20
5.1326487171
 30
0.0
 11
7.437294324
 21
5.1326487171
 31
0.0
  0
LINE
  5
1C3
330
1BD
100
AcDbEntity
  8
0
  6
SLD-SOLID
 62
     7
100
AcDbLine
 10
7.437294324
 20
5.1326487171
 30
0.0
 11
7.437294324
 21
4.6408518532
 31
0.0
  0
LINE
  5
1C4
330
1BD
100
AcDbEntity
  8
0
  6
SLD-SOLID
 62
     7
100
AcDbLine
 10
7.338075571
 20
5.3421944136
 30
0.0
 11
7.338075571
 21
5.1453440199
 31
0.0
  0
LINE
  5
1C5
330
1BD
100
AcDbEntity
  8
0
  6
SLD-SOLID
 62
     7
100
AcDbLine
 10
7.338075571
 20
5.3421944136
 30
0.0
 11
7.2163305448
 21
5.5390448073
 31
0.0
  0
LINE
  5
1C6
330
1BD
100
AcDbEntity
  8
0
  6
SLD-SOLID
 62
     7
100
AcDbLine
 10
7.2163305448
 20
5.5390448073
 30
0.0
 11
7.2163305448
 21
6.1065851106
 31
0.0
  0
MTEXT
  5
1C7
330
1BD
100
AcDbEntity
  8
0
  6
SLD-SOLID
 62
     7
100
AcDbMText
 10
7.2761608428
 20
4.6789377891
 30
0.0
 40
0.125
 41
0.0
 71
     1
 72
     1
  1
2.362
  7
SLDTEXTSTYLE0
 11
6.123233995736766E-17
 21
1.0
 31
0.0
  0
ENDBLK
  5
1BF
330
1BD
100
AcDbEntity
  8
0
100
AcDbBlockEnd
  0
BLOCK
  5
1CA
330
1C9
100
AcDbEntity
  8
0
100
AcDbBlockBegin
  2
_D_9
 70
     0
 10
0.0
 20
0.0
 30
0.0
  3
_D_9
  1

  0
LINE
  5
1CC
330
1C9
100
AcDbEntity
  8
0
  6
SLD-SOLID
 62
     7
100
AcDbLine
 10
7.9454705576
 20
4.6408518532
 30
0.0
 11
7.7470330516
 21
4.6408518532
 31
0.0
  0
LINE
  5
1CD
330
1C9
100
AcDbEntity
  8
0
  6
SLD-SOLID
 62
     7
100
AcDbLine
 10
7.7470330516
 20
4.6408518532
 30
0.0
 11
7.7470330516
 21
5.1326487171
 31
0.0
  0
LINE
  5
1CE
330
1C9
100
AcDbEntity
  8
0
  6
SLD-SOLID
 62
     7
100
AcDbLine
 10
7.7470330516
 20
5.1326487171
 30
0.0
 11
7.9454705576
 21
5.1326487171
 31
0.0
  0
LINE
  5
1CF
330
1C9
100
AcDbEntity
  8
0
  6
SLD-SOLID
 62
     7
100
AcDbLine
 10
7.9454705576
 20
5.1326487171
 30
0.0
 11
7.9454705576
 21
4.6408518532
 31
0.0
  0
LINE
  5
1D0
330
1C9
100
AcDbEntity
  8
0
  6
SLD-SOLID
 62
     7
100
AcDbLine
 10
7.8462518046
 20
6.2128843232
 30
0.0
 11
7.8462518046
 21
5.1453440199
 31
0.0
  0
MTEXT
  5
1D1
330
1C9
100
AcDbEntity
  8
0
  6
SLD-SOLID
 62
     7
100
AcDbMText
 10
7.7843370764
 20
4.6789377891
 30
0.0
 40
0.125
 41
0.0
 71
     1
 72
     1
  1
2.992
  7
SLDTEXTSTYLE0
 11
6.123233995736766E-17
 21
1.0
 31
0.0
  0
ENDBLK
  5
1CB
330
1C9
100
AcDbEntity
  8
0
100
AcDbBlockEnd
  0
BLOCK
  5
1D5
330
1D4
100
AcDbEntity
  8
0
100
AcDbBlockBegin
  2
_D_10
 70
     0
 10
0.0
 20
0.0
 30
0.0
  3
_D_10
  1

  0
SOLID
  5
1D7
330
1D4
100
AcDbEntity
  8
0
  6
SLD-SOLID
 62
     7
100
AcDbTrace
 10
5.4375227356
 20
6.4815955921
 30
0.0
 11
5.4831806499
 21
6.6049461286
 31
0.0
 12
5.4439928394
 22
6.6129658237
 32
0.0
 13
5.4439928394
 23
6.6129658237
 33
0.0
  0
LINE
  5
1D8
330
1D4
100
AcDbEntity
  8
0
  6
SLD-SOLID
 62
     7
100
AcDbLine
 10
5.4375227356
 20
6.4815955921
 30
0.0
 11
5.8695170675
 21
8.5925127564
 31
0.0
  0
LINE
  5
1D9
330
1D4
100
AcDbEntity
  8
0
  6
SLD-SOLID
 62
     7
100
AcDbLine
 10
5.8695170675
 20
8.5925127564
 30
0.0
 11
6.1195170675
 21
8.5925127564
 31
0.0
  0
MTEXT
  5
1DA
330
1D4
100
AcDbEntity
  8
0
  6
SLD-SOLID
 62
     7
100
AcDbMText
 10
6.1195170675
 20
8.6641497131
 30
0.0
 40
0.125
 41
0.0
 71
     1
 72
     1
  1
4X
  7
SLDTEXTSTYLE0
  0
MTEXT
  5
1DB
330
1D4
100
AcDbEntity
  8
0
  6
SLD-SOLID
 62
     7
100
AcDbMText
 10
6.3596212305
 20
8.6622399908
 30
0.0
 40
0.125
 41
0.0
 71
     1
 72
     1
  1
%%c
  7
SLDTEXTSTYLE0
  0
MTEXT
  5
1DC
330
1D4
100
AcDbEntity
  8
0
  6
SLD-SOLID
 62
     7
100
AcDbMText
 10
6.5950118694
 20
8.6641497131
 30
0.0
 40
0.125
 41
0.0
 71
     1
 72
     1
  1
.1250
  7
SLDTEXTSTYLE0
  0
MTEXT
  5
1DD
330
1D4
100
AcDbEntity
  8
0
  6
SLD-SOLID
 62
     7
100
AcDbMText
 10
7.0568174079
 20
8.6641497131
 30
0.0
 40
0.125
 41
0.0
 71
     1
 72
     1
  1
M7
  7
SLDTEXTSTYLE0
  0
MTEXT
  5
1DE
330
1D4
100
AcDbEntity
  8
0
  6
SLD-SOLID
 62
     7
100
AcDbMText
 10
7.3477896451
 20
8.7536462307
 30
0.0
 40
0.125
 41
0.0
 71
     1
 72
     1
  1
+
  7
SLDTEXTSTYLE0
  0
MTEXT
  5
1DF
330
1D4
100
AcDbEntity
  8
0
  6
SLD-SOLID
 62
     7
100
AcDbMText
 10
7.3706195078
 20
8.5920142812
 30
0.0
 40
0.125
 41
0.0
 71
     1
 72
     1
  1
-
  7
SLDTEXTSTYLE0
  0
MTEXT
  5
1E0
330
1D4
100
AcDbEntity
  8
0
  6
SLD-SOLID
 62
     7
100
AcDbMText
 10
7.4488313245
 20
8.7536462307
 30
0.0
 40
0.125
 41
0.0
 71
     1
 72
     1
  1
.0000
  7
SLDTEXTSTYLE0
  0
MTEXT
  5
1E1
330
1D4
100
AcDbEntity
  8
0
  6
SLD-SOLID
 62
     7
100
AcDbMText
 10
7.4488313245
 20
8.5920142812
 30
0.0
 40
0.125
 41
0.0
 71
     1
 72
     1
  1
.0005
  7
SLDTEXTSTYLE0
  0
MTEXT
  5
1E2
330
1D4
100
AcDbEntity
  8
0
  6
SLD-SOLID
 62
     7
100
AcDbMText
 10
7.9113312432
 20
8.6641497131
 30
0.0
 40
0.125
 41
0.0
 71
     1
 72
     1
  1

  7
SLDTEXTSTYLE0
  0
INSERT
  5
1EA
330
1D4
100
AcDbEntity
  8
0
  6
SLD-SOLID
 62
     7
100
AcDbBlockReference
  2
SW_SYMBOL_HOLE_DEPTH
 10
7.9106367897
 20
8.5184405077
 30
0.0
 41
0.0040555664
 42
0.0040555664
 43
0.0040555664
  0
MTEXT
  5
1EB
330
1D4
100
AcDbEntity
  8
0
  6
SLD-SOLID
 62
     7
100
AcDbMText
 10
8.1361055799
 20
8.6641497131
 30
0.0
 40
0.125
 41
0.0
 71
     1
 72
     1
  1
.236
  7
SLDTEXTSTYLE0
  0
ENDBLK
  5
1D6
330
1D4
100
AcDbEntity
  8
0
100
AcDbBlockEnd
  0
BLOCK
  5
1E4
330
1E3
100
AcDbEntity
  8
0
100
AcDbBlockBegin
  2
SW_SYMBOL_HOLE_DEPTH
 70
     0
 10
0.0
 20
0.0
 30
0.0
  3
SW_SYMBOL_HOLE_DEPTH
  1

  0
LINE
  5
1E6
330
1E3
100
AcDbEntity
  8
0
  6
SLD-SOLID
 62
     0
100
AcDbLine
 10
0.0
 20
34.4488188976
 30
0.0
 11
31.4960629921
 21
34.4488188976
 31
0.0
  0
LINE
  5
1E7
330
1E3
100
AcDbEntity
  8
0
  6
SLD-SOLID
 62
     0
100
AcDbLine
 10
15.7480314961
 20
34.4488188976
 30
0.0
 11
15.7480314961
 21
2.9527559055
 31
0.0
  0
LINE
  5
1E8
330
1E3
100
AcDbEntity
  8
0
  6
SLD-SOLID
 62
     0
100
AcDbLine
 10
3.937007874
 20
21.8503937008
 30
0.0
 11
15.7480314961
 21
2.9527559055
 31
0.0
  0
LINE
  5
1E9
330
1E3
100
AcDbEntity
  8
0
  6
SLD-SOLID
 62
     0
100
AcDbLine
 10
27.5590551181
 20
21.8503937008
 30
0.0
 11
15.7480314961
 21
2.9527559055
 31
0.0
  0
ENDBLK
  5
1E5
330
1E3
100
AcDbEntity
  8
0
100
AcDbBlockEnd
  0
BLOCK
  5
1EF
330
1EE
100
AcDbEntity
  8
0
100
AcDbBlockBegin
  2
_D_11
 70
     0
 10
0.0
 20
0.0
 30
0.0
  3
_D_11
  1

  0
SOLID
  5
1F1
330
1EE
100
AcDbEntity
  8
0
  6
SLD-SOLID
 62
     7
100
AcDbTrace
 10
6.9807489426
 20
6.8789571715
 30
0.0
 11
7.0386892835
 21
6.9970373007
 31
0.0
 12
7.0005176682
 22
7.0089925417
 32
0.0
 13
7.0005176682
 23
7.0089925417
 33
0.0
  0
LINE
  5
1F2
330
1EE
100
AcDbEntity
  8
0
  6
SLD-SOLID
 62
     7
100
AcDbLine
 10
6.9807489426
 20
6.8789571715
 30
0.0
 11
7.2800773921
 21
7.8346761247
 31
0.0
  0
LINE
  5
1F3
330
1EE
100
AcDbEntity
  8
0
  6
SLD-SOLID
 62
     7
100
AcDbLine
 10
7.2800773921
 20
7.8346761247
 30
0.0
 11
7.4988273921
 21
7.8346761247
 31
0.0
  0
MTEXT
  5
1F4
330
1EE
100
AcDbEntity
  8
0
  6
SLD-SOLID
 62
     7
100
AcDbMText
 10
7.5613273921
 20
7.9977193122
 30
0.0
 40
0.125
 41
0.0
 71
     1
 72
     1
  1
8X
  7
SLDTEXTSTYLE0
  0
MTEXT
  5
1F5
330
1EE
100
AcDbEntity
  8
0
  6
SLD-SOLID
 62
     7
100
AcDbMText
 10
7.801431555
 20
7.9958095898
 30
0.0
 40
0.125
 41
0.0
 71
     1
 72
     1
  1
%%c
  7
SLDTEXTSTYLE0
  0
MTEXT
  5
1F6
330
1EE
100
AcDbEntity
  8
0
  6
SLD-SOLID
 62
     7
100
AcDbMText
 10
8.0368221939
 20
7.9977193122
 30
0.0
 40
0.125
 41
0.0
 71
     1
 72
     1
  1
.136
  7
SLDTEXTSTYLE0
  0
INSERT
  5
1F7
330
1EE
100
AcDbEntity
  8
0
  6
SLD-SOLID
 62
     7
100
AcDbBlockReference
  2
SW_SYMBOL_HOLE_DEPTH
 10
8.4055721859
 20
7.8520101067
 30
0.0
 41
0.0040555664
 42
0.0040555664
 43
0.0040555664
  0
MTEXT
  5
1F8
330
1EE
100
AcDbEntity
  8
0
  6
SLD-SOLID
 62
     7
100
AcDbMText
 10
8.6310409028
 20
7.9977193122
 30
0.0
 40
0.125
 41
0.0
 71
     1
 72
     1
  1
.422
  7
SLDTEXTSTYLE0
  0
MTEXT
  5
1F9
330
1EE
100
AcDbEntity
  8
0
  6
SLD-SOLID
 62
     7
100
AcDbMText
 10
7.5640052745
 20
7.7973720999
 30
0.0
 40
0.125
 41
0.0
 71
     1
 72
     1
  1
8-32 UNC
  7
SLDTEXTSTYLE0
  0
INSERT
  5
1FA
330
1EE
100
AcDbEntity
  8
0
  6
SLD-SOLID
 62
     7
100
AcDbBlockReference
  2
SW_SYMBOL_HOLE_DEPTH
 10
8.4028941569
 20
7.6516628945
 30
0.0
 41
0.0040555664
 42
0.0040555664
 43
0.0040555664
  0
MTEXT
  5
1FB
330
1EE
100
AcDbEntity
  8
0
  6
SLD-SOLID
 62
     7
100
AcDbMText
 10
8.6283629471
 20
7.7973720999
 30
0.0
 40
0.125
 41
0.0
 71
     1
 72
     1
  1
.328
  7
SLDTEXTSTYLE0
  0
ENDBLK
  5
1F0
330
1EE
100
AcDbEntity
  8
0
100
AcDbBlockEnd
  0
BLOCK
  5
1FF
330
1FE
100
AcDbEntity
  8
0
100
AcDbBlockBegin
  2
_D_12
 70
     0
 10
0.0
 20
0.0
 30
0.0
  3
_D_12
  1

  0
SOLID
  5
201
330
1FE
100
AcDbEntity
  8
0
  6
SLD-SOLID
 62
     7
100
AcDbTrace
 10
8.239952592
 20
6.4203646382
 30
0.0
 11
8.259952592
 21
6.5503646382
 31
0.0
 12
8.219952592
 22
6.5503646382
 32
0.0
 13
8.219952592
 23
6.5503646382
 33
0.0
  0
SOLID
  5
202
330
1FE
100
AcDbEntity
  8
0
  6
SLD-SOLID
 62
     7
100
AcDbTrace
 10
8.239952592
 20
6.8140654256
 30
0.0
 11
8.219952592
 21
6.6840654256
 31
0.0
 12
8.259952592
 22
6.6840654256
 32
0.0
 13
8.259952592
 23
6.6840654256
 33
0.0
  0
LINE
  5
203
330
1FE
100
AcDbEntity
  8
0
  6
SLD-SOLID
 62
     7
100
AcDbLine
 10
7.5778215183
 20
6.9874292173
 30
0.0
 11
7.5778215183
 21
7.1858667233
 31
0.0
  0
LINE
  5
204
330
1FE
100
AcDbEntity
  8
0
  6
SLD-SOLID
 62
     7
100
AcDbLine
 10
7.5778215183
 20
7.1858667233
 30
0.0
 11
7.9772572892
 21
7.1858667233
 31
0.0
  0
LINE
  5
205
330
1FE
100
AcDbEntity
  8
0
  6
SLD-SOLID
 62
     7
100
AcDbLine
 10
7.9772572892
 20
7.1858667233
 30
0.0
 11
7.9772572892
 21
6.9874292173
 31
0.0
  0
LINE
  5
206
330
1FE
100
AcDbEntity
  8
0
  6
SLD-SOLID
 62
     7
100
AcDbLine
 10
7.9772572892
 20
6.9874292173
 30
0.0
 11
7.5778215183
 21
6.9874292173
 31
0.0
  0
LINE
  5
207
330
1FE
100
AcDbEntity
  8
0
  6
SLD-SOLID
 62
     7
100
AcDbLine
 10
5.4749919621
 20
6.8140654256
 30
0.0
 11
8.364952592
 21
6.8140654256
 31
0.0
  0
LINE
  5
208
330
1FE
100
AcDbEntity
  8
0
  6
SLD-SOLID
 62
     7
100
AcDbLine
 10
7.989952592
 20
7.0866479703
 30
0.0
 11
8.239952592
 21
7.0866479703
 31
0.0
  0
LINE
  5
209
330
1FE
100
AcDbEntity
  8
0
  6
SLD-SOLID
 62
     7
100
AcDbLine
 10
8.239952592
 20
7.0866479703
 30
0.0
 11
8.239952592
 21
6.8140654256
 31
0.0
  0
LINE
  5
20A
330
1FE
100
AcDbEntity
  8
0
  6
SLD-SOLID
 62
     7
100
AcDbLine
 10
8.239952592
 20
6.4203646382
 30
0.0
 11
8.239952592
 21
6.8140654256
 31
0.0
  0
MTEXT
  5
20B
330
1FE
100
AcDbEntity
  8
0
  6
SLD-SOLID
 62
     7
100
AcDbMText
 10
7.6159074542
 20
7.1485626985
 30
0.0
 40
0.125
 41
0.0
 71
     1
 72
     1
  1
.394
  7
SLDTEXTSTYLE0
  0
ENDBLK
  5
200
330
1FE
100
AcDbEntity
  8
0
100
AcDbBlockEnd
  0
BLOCK
  5
20E
330
20D
100
AcDbEntity
  8
0
100
AcDbBlockBegin
  2
_D_13
 70
     0
 10
0.0
 20
0.0
 30
0.0
  3
_D_13
  1

  0
SOLID
  5
210
330
20D
100
AcDbEntity
  8
0
  6
SLD-SOLID
 62
     7
100
AcDbTrace
 10
8.239952592
 20
6.0266638508
 30
0.0
 11
8.259952592
 21
6.1566638508
 31
0.0
 12
8.219952592
 22
6.1566638508
 32
0.0
 13
8.219952592
 23
6.1566638508
 33
0.0
  0
SOLID
  5
211
330
20D
100
AcDbEntity
  8
0
  6
SLD-SOLID
 62
     7
100
AcDbTrace
 10
8.239952592
 20
6.4203646382
 30
0.0
 11
8.219952592
 21
6.2903646382
 31
0.0
 12
8.259952592
 22
6.2903646382
 32
0.0
 13
8.259952592
 23
6.2903646382
 33
0.0
  0
LINE
  5
212
330
20D
100
AcDbEntity
  8
0
  6
SLD-SOLID
 62
     7
100
AcDbLine
 10
8.502647904
 20
5.5060590678
 30
0.0
 11
8.502647904
 21
5.7044965738
 31
0.0
  0
LINE
  5
213
330
20D
100
AcDbEntity
  8
0
  6
SLD-SOLID
 62
     7
100
AcDbLine
 10
8.502647904
 20
5.7044965738
 30
0.0
 11
8.9020836749
 21
5.7044965738
 31
0.0
  0
LINE
  5
214
330
20D
100
AcDbEntity
  8
0
  6
SLD-SOLID
 62
     7
100
AcDbLine
 10
8.9020836749
 20
5.7044965738
 30
0.0
 11
8.9020836749
 21
5.5060590678
 31
0.0
  0
LINE
  5
215
330
20D
100
AcDbEntity
  8
0
  6
SLD-SOLID
 62
     7
100
AcDbLine
 10
8.9020836749
 20
5.5060590678
 30
0.0
 11
8.502647904
 21
5.5060590678
 31
0.0
  0
LINE
  5
216
330
20D
100
AcDbEntity
  8
0
  6
SLD-SOLID
 62
     7
100
AcDbLine
 10
5.4749919621
 20
6.0266638508
 30
0.0
 11
8.364952592
 21
6.0266638508
 31
0.0
  0
LINE
  5
217
330
20D
100
AcDbEntity
  8
0
  6
SLD-SOLID
 62
     7
100
AcDbLine
 10
8.489952592
 20
5.6052778208
 30
0.0
 11
8.239952592
 21
5.6052778208
 31
0.0
  0
LINE
  5
218
330
20D
100
AcDbEntity
  8
0
  6
SLD-SOLID
 62
     7
100
AcDbLine
 10
8.239952592
 20
5.6052778208
 30
0.0
 11
8.239952592
 21
6.0266638508
 31
0.0
  0
LINE
  5
219
330
20D
100
AcDbEntity
  8
0
  6
SLD-SOLID
 62
     7
100
AcDbLine
 10
8.239952592
 20
6.0266638508
 30
0.0
 11
8.239952592
 21
6.4203646382
 31
0.0
  0
MTEXT
  5
21A
330
20D
100
AcDbEntity
  8
0
  6
SLD-SOLID
 62
     7
100
AcDbMText
 10
8.5407338399
 20
5.6671925491
 30
0.0
 40
0.125
 41
0.0
 71
     1
 72
     1
  1
.394
  7
SLDTEXTSTYLE0
  0
ENDBLK
  5
20F
330
20D
100
AcDbEntity
  8
0
100
AcDbBlockEnd
  0
BLOCK
  5
21C
330
21B
100
AcDbEntity
  8
0
100
AcDbBlockBegin
  2
SW_SYMBOL_MOD_CL
 70
     0
 10
0.0
 20
0.0
 30
0.0
  3
SW_SYMBOL_MOD_CL
  1

  0
MTEXT
  5
21E
330
21B
100
AcDbEntity
  8
0
  6
CONTINUOUS
 62
     0
100
AcDbMText
 10
15.7480314961
 20
23.6220472441
 30
0.0
 40
30.821835344
 41
0.0
 71
     5
 72
     1
  1
C
  7
SLDTEXTSTYLE0
  0
MTEXT
  5
21F
330
21B
100
AcDbEntity
  8
0
  6
CONTINUOUS
 62
     0
100
AcDbMText
 10
23.6220472441
 20
11.811023622
 30
0.0
 40
30.821835344
 41
0.0
 71
     5
 72
     1
  1
L
  7
SLDTEXTSTYLE0
  0
ENDBLK
  5
21D
330
21B
100
AcDbEntity
  8
0
100
AcDbBlockEnd
  0
BLOCK
  5
229
330
228
100
AcDbEntity
  8
0
100
AcDbBlockBegin
  2
SW_CENTERMARKSYMBOL_0
 70
     0
 10
0.0
 20
0.0
 30
0.0
  3
SW_CENTERMARKSYMBOL_0
  1

  0
LINE
  5
22B
330
228
100
AcDbEntity
  8
0
  6
SLD-SOLID
 62
     0
100
AcDbLine
 10
0.0
 20
0.0
 30
0.0
 11
0.0
 21
0.1
 31
0.0
  0
LINE
  5
22C
330
228
100
AcDbEntity
  8
0
  6
SLD-SOLID
 62
     0
100
AcDbLine
 10
0.0
 20
0.0
 30
0.0
 11
-0.1
 21
0.0
 31
0.0
  0
LINE
  5
22D
330
228
100
AcDbEntity
  8
0
  6
SLD-SOLID
 62
     0
100
AcDbLine
 10
0.0
 20
0.0
 30
0.0
 11
0.0
 21
-0.1
 31
0.0
  0
LINE
  5
22E
330
228
100
AcDbEntity
  8
0
  6
SLD-SOLID
 62
     0
100
AcDbLine
 10
0.0
 20
0.0
 30
0.0
 11
0.1
 21
0.0
 31
0.0
  0
LINE
  5
22F
330
228
100
AcDbEntity
  8
0
  6
SLD-SOLID
 62
     0
100
AcDbLine
 10
0.0
 20
0.1
 30
0.0
 11
0.0
 21
0.168
 31
0.0
  0
LINE
  5
230
330
228
100
AcDbEntity
  8
0
  6
SLD-SOLID
 62
     0
100
AcDbLine
 10
-0.1
 20
0.0
 30
0.0
 11
-0.168
 21
0.0
 31
0.0
  0
LINE
  5
231
330
228
100
AcDbEntity
  8
0
  6
SLD-SOLID
 62
     0
100
AcDbLine
 10
0.0
 20
-0.1
 30
0.0
 11
0.0
 21
-0.168
 31
0.0
  0
LINE
  5
232
330
228
100
AcDbEntity
  8
0
  6
SLD-SOLID
 62
     0
100
AcDbLine
 10
0.1
 20
0.0
 30
0.0
 11
0.168
 21
0.0
 31
0.0
  0
ENDBLK
  5
22A
330
228
100
AcDbEntity
  8
0
100
AcDbBlockEnd
  0
BLOCK
  5
235
330
234
100
AcDbEntity
  8
0
100
AcDbBlockBegin
  2
SW_CENTERMARKSYMBOL_1
 70
     0
 10
0.0
 20
0.0
 30
0.0
  3
SW_CENTERMARKSYMBOL_1
  1

  0
LINE
  5
237
330
234
100
AcDbEntity
  8
0
  6
SLD-SOLID
 62
     0
100
AcDbLine
 10
0.0
 20
0.0
 30
0.0
 11
0.0
 21
0.1
 31
0.0
  0
LINE
  5
238
330
234
100
AcDbEntity
  8
0
  6
SLD-SOLID
 62
     0
100
AcDbLine
 10
0.0
 20
0.0
 30
0.0
 11
-0.1
 21
0.0
 31
0.0
  0
LINE
  5
239
330
234
100
AcDbEntity
  8
0
  6
SLD-SOLID
 62
     0
100
AcDbLine
 10
0.0
 20
0.0
 30
0.0
 11
0.0
 21
-0.1
 31
0.0
  0
LINE
  5
23A
330
234
100
AcDbEntity
  8
0
  6
SLD-SOLID
 62
     0
100
AcDbLine
 10
0.0
 20
0.0
 30
0.0
 11
0.1
 21
0.0
 31
0.0
  0
LINE
  5
23B
330
234
100
AcDbEntity
  8
0
  6
SLD-SOLID
 62
     0
100
AcDbLine
 10
0.0
 20
0.1
 30
0.0
 11
0.0
 21
0.168
 31
0.0
  0
LINE
  5
23C
330
234
100
AcDbEntity
  8
0
  6
SLD-SOLID
 62
     0
100
AcDbLine
 10
-0.1
 20
0.0
 30
0.0
 11
-0.168
 21
0.0
 31
0.0
  0
LINE
  5
23D
330
234
100
AcDbEntity
  8
0
  6
SLD-SOLID
 62
     0
100
AcDbLine
 10
0.0
 20
-0.1
 30
0.0
 11
0.0
 21
-0.168
 31
0.0
  0
LINE
  5
23E
330
234
100
AcDbEntity
  8
0
  6
SLD-SOLID
 62
     0
100
AcDbLine
 10
0.1
 20
0.0
 30
0.0
 11
0.168
 21
0.0
 31
0.0
  0
ENDBLK
  5
236
330
234
100
AcDbEntity
  8
0
100
AcDbBlockEnd
  0
BLOCK
  5
241
330
240
100
AcDbEntity
  8
0
100
AcDbBlockBegin
  2
SW_CENTERMARKSYMBOL_2
 70
     0
 10
0.0
 20
0.0
 30
0.0
  3
SW_CENTERMARKSYMBOL_2
  1

  0
LINE
  5
243
330
240
100
AcDbEntity
  8
0
  6
SLD-SOLID
 62
     0
100
AcDbLine
 10
0.0
 20
0.0
 30
0.0
 11
0.0
 21
0.1
 31
0.0
  0
LINE
  5
244
330
240
100
AcDbEntity
  8
0
  6
SLD-SOLID
 62
     0
100
AcDbLine
 10
0.0
 20
0.0
 30
0.0
 11
-0.1
 21
0.0
 31
0.0
  0
LINE
  5
245
330
240
100
AcDbEntity
  8
0
  6
SLD-SOLID
 62
     0
100
AcDbLine
 10
0.0
 20
0.0
 30
0.0
 11
0.0
 21
-0.1
 31
0.0
  0
LINE
  5
246
330
240
100
AcDbEntity
  8
0
  6
SLD-SOLID
 62
     0
100
AcDbLine
 10
0.0
 20
0.0
 30
0.0
 11
0.1
 21
0.0
 31
0.0
  0
LINE
  5
247
330
240
100
AcDbEntity
  8
0
  6
SLD-SOLID
 62
     0
100
AcDbLine
 10
0.0
 20
0.1
 30
0.0
 11
0.0
 21
0.168
 31
0.0
  0
LINE
  5
248
330
240
100
AcDbEntity
  8
0
  6
SLD-SOLID
 62
     0
100
AcDbLine
 10
-0.1
 20
0.0
 30
0.0
 11
-0.168
 21
0.0
 31
0.0
  0
LINE
  5
249
330
240
100
AcDbEntity
  8
0
  6
SLD-SOLID
 62
     0
100
AcDbLine
 10
0.0
 20
-0.1
 30
0.0
 11
0.0
 21
-0.168
 31
0.0
  0
LINE
  5
24A
330
240
100
AcDbEntity
  8
0
  6
SLD-SOLID
 62
     0
100
AcDbLine
 10
0.1
 20
0.0
 30
0.0
 11
0.168
 21
0.0
 31
0.0
  0
ENDBLK
  5
242
330
240
100
AcDbEntity
  8
0
100
AcDbBlockEnd
  0
BLOCK
  5
24D
330
24C
100
AcDbEntity
  8
0
100
AcDbBlockBegin
  2
SW_CENTERMARKSYMBOL_3
 70
     0
 10
0.0
 20
0.0
 30
0.0
  3
SW_CENTERMARKSYMBOL_3
  1

  0
LINE
  5
24F
330
24C
100
AcDbEntity
  8
0
  6
SLD-SOLID
 62
     0
100
AcDbLine
 10
0.0
 20
0.0
 30
0.0
 11
0.0
 21
0.1
 31
0.0
  0
LINE
  5
250
330
24C
100
AcDbEntity
  8
0
  6
SLD-SOLID
 62
     0
100
AcDbLine
 10
0.0
 20
0.0
 30
0.0
 11
-0.1
 21
0.0
 31
0.0
  0
LINE
  5
251
330
24C
100
AcDbEntity
  8
0
  6
SLD-SOLID
 62
     0
100
AcDbLine
 10
0.0
 20
0.0
 30
0.0
 11
0.0
 21
-0.1
 31
0.0
  0
LINE
  5
252
330
24C
100
AcDbEntity
  8
0
  6
SLD-SOLID
 62
     0
100
AcDbLine
 10
0.0
 20
0.0
 30
0.0
 11
0.1
 21
0.0
 31
0.0
  0
LINE
  5
253
330
24C
100
AcDbEntity
  8
0
  6
SLD-SOLID
 62
     0
100
AcDbLine
 10
0.0
 20
0.1
 30
0.0
 11
0.0
 21
0.168
 31
0.0
  0
LINE
  5
254
330
24C
100
AcDbEntity
  8
0
  6
SLD-SOLID
 62
     0
100
AcDbLine
 10
-0.1
 20
0.0
 30
0.0
 11
-0.168
 21
0.0
 31
0.0
  0
LINE
  5
255
330
24C
100
AcDbEntity
  8
0
  6
SLD-SOLID
 62
     0
100
AcDbLine
 10
0.0
 20
-0.1
 30
0.0
 11
0.0
 21
-0.168
 31
0.0
  0
LINE
  5
256
330
24C
100
AcDbEntity
  8
0
  6
SLD-SOLID
 62
     0
100
AcDbLine
 10
0.1
 20
0.0
 30
0.0
 11
0.168
 21
0.0
 31
0.0
  0
ENDBLK
  5
24E
330
24C
100
AcDbEntity
  8
0
100
AcDbBlockEnd
  0
BLOCK
  5
261
330
260
100
AcDbEntity
  8
0
100
AcDbBlockBegin
  2
SW_DATUMTAG_0
 70
     0
 10
0.0
 20
0.0
 30
0.0
  3
SW_DATUMTAG_0
  1

  0
LINE
  5
263
330
260
100
AcDbEntity
  8
0
  6
SLD-SOLID
 62
     0
100
AcDbLine
 10
0.0619791644
 20
0.53075156
 30
0.0
 11
0.0619791644
 21
0.2242187392
 31
0.0
  0
LINE
  5
264
330
260
100
AcDbEntity
  8
0
  6
SLD-SOLID
 62
     0
100
AcDbLine
 10
0.1869791644
 20
-0.0257812608
 30
0.0
 11
-0.0630208356
 21
-0.0257812608
 31
0.0
  0
LINE
  5
265
330
260
100
AcDbEntity
  8
0
  6
SLD-SOLID
 62
     0
100
AcDbLine
 10
-0.0630208356
 20
-0.0257812608
 30
0.0
 11
-0.0630208356
 21
0.2242187392
 31
0.0
  0
LINE
  5
266
330
260
100
AcDbEntity
  8
0
  6
SLD-SOLID
 62
     0
100
AcDbLine
 10
-0.0630208356
 20
0.2242187392
 30
0.0
 11
0.1869791644
 21
0.2242187392
 31
0.0
  0
LINE
  5
267
330
260
100
AcDbEntity
  8
0
  6
SLD-SOLID
 62
     0
100
AcDbLine
 10
0.1869791644
 20
0.2242187392
 30
0.0
 11
0.1869791644
 21
-0.0257812608
 31
0.0
  0
MTEXT
  5
268
330
260
100
AcDbEntity
  8
0
  6
CONTINUOUS
 62
     0
100
AcDbMText
 10
0.0
 20
0.1611334675
 30
0.0
 40
0.125
 41
0.0
 71
     1
 72
     1
  1
D
  7
SLDTEXTSTYLE0
  0
SOLID
  5
269
330
260
100
AcDbEntity
  8
0
  6
SLD-SOLID
 62
     0
100
AcDbTrace
 10
0.1244791644
 20
0.53075156
 30
0.0
 11
-0.0005208356
 21
0.53075156
 31
0.0
 12
0.0619791644
 22
0.40575156
 32
0.0
 13
0.0619791644
 23
0.40575156
 33
0.0
  0
ENDBLK
  5
262
330
260
100
AcDbEntity
  8
0
100
AcDbBlockEnd
  0
BLOCK
  5
26C
330
26B
100
AcDbEntity
  8
0
100
AcDbBlockBegin
  2
SW_DOWELSYMBOL_0
 70
     0
 10
0.0
 20
0.0
 30
0.0
  3
SW_DOWELSYMBOL_0
  1

  0
CIRCLE
  5
26E
330
26B
100
AcDbEntity
  8
0
  6
CONTINUOUS
 62
     0
100
AcDbCircle
 10
0.0
 20
0.0
 30
0.0
 40
0.0624999999999997
  0
INSERT
  5
26F
330
26B
100
AcDbEntity
  8
0
  6
CONTINUOUS
 62
     0
100
AcDbBlockReference
  2
*U54
 10
0.0
 20
0.0
 30
0.0
  0
INSERT
  5
270
330
26B
100
AcDbEntity
  8
0
  6
CONTINUOUS
 62
     0
100
AcDbBlockReference
  2
*U55
 10
0.0
 20
0.0
 30
0.0
  0
ENDBLK
  5
26D
330
26B
100
AcDbEntity
  8
0
100
AcDbBlockEnd
  0
BLOCK
  5
273
330
272
100
AcDbEntity
  8
0
100
AcDbBlockBegin
  2
SW_DOWELSYMBOL_1
 70
     0
 10
0.0
 20
0.0
 30
0.0
  3
SW_DOWELSYMBOL_1
  1

  0
CIRCLE
  5
275
330
272
100
AcDbEntity
  8
0
  6
CONTINUOUS
 62
     0
100
AcDbCircle
 10
0.0
 20
0.0
 30
0.0
 40
0.0624999999999997
  0
INSERT
  5
276
330
272
100
AcDbEntity
  8
0
  6
CONTINUOUS
 62
     0
100
AcDbBlockReference
  2
*U56
 10
0.0
 20
0.0
 30
0.0
  0
INSERT
  5
277
330
272
100
AcDbEntity
  8
0
  6
CONTINUOUS
 62
     0
100
AcDbBlockReference
  2
*U57
 10
0.0
 20
0.0
 30
0.0
  0
ENDBLK
  5
274
330
272
100
AcDbEntity
  8
0
100
AcDbBlockEnd
  0
BLOCK
  5
283
330
282
100
AcDbEntity
  8
0
100
AcDbBlockBegin
  2
_D_14
 70
     0
 10
0.0
 20
0.0
 30
0.0
  3
_D_14
  1

  0
SOLID
  5
285
330
282
100
AcDbEntity
  8
0
  6
SLD-SOLID
 62
     7
100
AcDbTrace
 10
10.7852903802
 20
7.03455187
 30
0.0
 11
10.8582417172
 21
7.1439963876
 31
0.0
 12
10.8219716269
 22
7.160862939
 32
0.0
 13
10.8219716269
 23
7.160862939
 33
0.0
  0
LINE
  5
286
330
282
100
AcDbEntity
  8
0
  6
SLD-SOLID
 62
     7
100
AcDbLine
 10
10.7852903802
 20
7.03455187
 30
0.0
 11
11.1257087836
 21
7.7665928177
 31
0.0
  0
LINE
  5
287
330
282
100
AcDbEntity
  8
0
  6
SLD-SOLID
 62
     7
100
AcDbLine
 10
11.1257087836
 20
7.7665928177
 30
0.0
 11
11.3757087836
 21
7.7665928177
 31
0.0
  0
MTEXT
  5
288
330
282
100
AcDbEntity
  8
0
  6
SLD-SOLID
 62
     7
100
AcDbMText
 10
11.3757087836
 20
7.8285075459
 30
0.0
 40
0.125
 41
0.0
 71
     1
 72
     1
  1
R.677
  7
SLDTEXTSTYLE0
  0
MTEXT
  5
289
330
282
100
AcDbEntity
  8
0
  6
SLD-SOLID
 62
     7
100
AcDbMText
 10
11.80018794
 20
7.8285075459
 30
0.0
 40
0.125
 41
0.0
 71
     1
 72
     1
  1
.010
  7
SLDTEXTSTYLE0
  0
ENDBLK
  5
284
330
282
100
AcDbEntity
  8
0
100
AcDbBlockEnd
  0
BLOCK
  5
28D
330
28C
100
AcDbEntity
  8
0
100
AcDbBlockBegin
  2
_D_15
 70
     0
 10
0.0
 20
0.0
 30
0.0
  3
_D_15
  1

  0
SOLID
  5
28F
330
28C
100
AcDbEntity
  8
0
  6
SLD-SOLID
 62
     7
100
AcDbTrace
 10
10.6426990012
 20
6.6420048126
 30
0.0
 11
10.7299902876
 21
6.7403929792
 31
0.0
 12
10.6963803745
 22
6.7620810807
 32
0.0
 13
10.6963803745
 23
6.7620810807
 33
0.0
  0
LINE
  5
290
330
28C
100
AcDbEntity
  8
0
  6
SLD-SOLID
 62
     7
100
AcDbLine
 10
10.6426990012
 20
6.6420048126
 30
0.0
 11
11.1605073418
 21
7.4444491062
 31
0.0
  0
LINE
  5
291
330
28C
100
AcDbEntity
  8
0
  6
SLD-SOLID
 62
     7
100
AcDbLine
 10
11.1605073418
 20
7.4444491062
 30
0.0
 11
11.4105073418
 21
7.4444491062
 31
0.0
  0
MTEXT
  5
292
330
28C
100
AcDbEntity
  8
0
  6
SLD-SOLID
 62
     7
100
AcDbMText
 10
11.4105073418
 20
7.5069912855
 30
0.0
 40
0.125
 41
0.0
 71
     1
 72
     1
  1
2X
  7
SLDTEXTSTYLE0
  0
MTEXT
  5
293
330
28C
100
AcDbEntity
  8
0
  6
SLD-SOLID
 62
     7
100
AcDbMText
 10
11.6506115047
 20
7.5050815632
 30
0.0
 40
0.125
 41
0.0
 71
     1
 72
     1
  1
%%c
  7
SLDTEXTSTYLE0
  0
MTEXT
  5
294
330
28C
100
AcDbEntity
  8
0
  6
SLD-SOLID
 62
     7
100
AcDbMText
 10
11.8860021436
 20
7.5069912855
 30
0.0
 40
0.125
 41
0.0
 71
     1
 72
     1
  1
.528
  7
SLDTEXTSTYLE0
  0
MTEXT
  5
295
330
28C
100
AcDbEntity
  8
0
  6
SLD-SOLID
 62
     7
100
AcDbMText
 10
12.2085715891
 20
7.5069912855
 30
0.0
 40
0.125
 41
0.0
 71
     1
 72
     1
  1
.004
  7
SLDTEXTSTYLE0
  0
ENDBLK
  5
28E
330
28C
100
AcDbEntity
  8
0
100
AcDbBlockEnd
  0
BLOCK
  5
297
330
296
100
AcDbEntity
  8
0
100
AcDbBlockBegin
  2
SW_CENTERMARKSYMBOL_4
 70
     0
 10
0.0
 20
0.0
 30
0.0
  3
SW_CENTERMARKSYMBOL_4
  1

  0
LINE
  5
299
330
296
100
AcDbEntity
  8
0
  6
SLD-SOLID
 62
     0
100
AcDbLine
 10
0.0
 20
0.0
 30
0.0
 11
0.0
 21
0.1
 31
0.0
  0
LINE
  5
29A
330
296
100
AcDbEntity
  8
0
  6
SLD-SOLID
 62
     0
100
AcDbLine
 10
0.0
 20
0.0
 30
0.0
 11
-0.1
 21
0.0
 31
0.0
  0
LINE
  5
29B
330
296
100
AcDbEntity
  8
0
  6
SLD-SOLID
 62
     0
100
AcDbLine
 10
0.0
 20
0.0
 30
0.0
 11
0.0
 21
-0.1
 31
0.0
  0
LINE
  5
29C
330
296
100
AcDbEntity
  8
0
  6
SLD-SOLID
 62
     0
100
AcDbLine
 10
0.0
 20
0.0
 30
0.0
 11
0.1
 21
0.0
 31
0.0
  0
LINE
  5
29D
330
296
100
AcDbEntity
  8
0
  6
SLD-SOLID
 62
     0
100
AcDbLine
 10
0.0
 20
0.2
 30
0.0
 11
0.0
 21
0.3637795276
 31
0.0
  0
LINE
  5
29E
330
296
100
AcDbEntity
  8
0
  6
SLD-SOLID
 62
     0
100
AcDbLine
 10
-0.2
 20
0.0
 30
0.0
 11
-0.3637795276
 21
0.0
 31
0.0
  0
LINE
  5
29F
330
296
100
AcDbEntity
  8
0
  6
SLD-SOLID
 62
     0
100
AcDbLine
 10
0.0
 20
-0.2
 30
0.0
 11
0.0
 21
-0.3637795276
 31
0.0
  0
LINE
  5
2A0
330
296
100
AcDbEntity
  8
0
  6
SLD-SOLID
 62
     0
100
AcDbLine
 10
0.2
 20
0.0
 30
0.0
 11
0.3637795276
 21
0.0
 31
0.0
  0
ENDBLK
  5
298
330
296
100
AcDbEntity
  8
0
100
AcDbBlockEnd
  0
BLOCK
  5
2B5
330
2B4
100
AcDbEntity
  8
0
100
AcDbBlockBegin
  2
_D_16
 70
     0
 10
0.0
 20
0.0
 30
0.0
  3
_D_16
  1

  0
SOLID
  5
2B7
330
2B4
100
AcDbEntity
  8
0
  6
SLD-SOLID
 62
     7
100
AcDbTrace
 10
4.4604250329
 20
9.6658208457
 30
0.0
 11
4.4804250329
 21
9.7958208457
 31
0.0
 12
4.4404250329
 22
9.7958208457
 32
0.0
 13
4.4404250329
 23
9.7958208457
 33
0.0
  0
SOLID
  5
2B8
330
2B4
100
AcDbEntity
  8
0
  6
SLD-SOLID
 62
     7
100
AcDbTrace
 10
4.4604250329
 20
9.9807814756
 30
0.0
 11
4.4404250329
 21
9.8507814756
 31
0.0
 12
4.4804250329
 22
9.8507814756
 32
0.0
 13
4.4804250329
 23
9.8507814756
 33
0.0
  0
LINE
  5
2B9
330
2B4
100
AcDbEntity
  8
0
  6
SLD-SOLID
 62
     7
100
AcDbLine
 10
4.8041258203
 20
9.6658208457
 30
0.0
 11
4.3354250329
 21
9.6658208457
 31
0.0
  0
LINE
  5
2BA
330
2B4
100
AcDbEntity
  8
0
  6
SLD-SOLID
 62
     7
100
AcDbLine
 10
4.8041258203
 20
9.9807814756
 30
0.0
 11
4.3354250329
 21
9.9807814756
 31
0.0
  0
LINE
  5
2BB
330
2B4
100
AcDbEntity
  8
0
  6
SLD-SOLID
 62
     7
100
AcDbLine
 10
4.2104250329
 20
10.4548946721
 30
0.0
 11
4.4604250329
 21
10.4548946721
 31
0.0
  0
LINE
  5
2BC
330
2B4
100
AcDbEntity
  8
0
  6
SLD-SOLID
 62
     7
100
AcDbLine
 10
4.4604250329
 20
10.4548946721
 30
0.0
 11
4.4604250329
 21
9.9807814756
 31
0.0
  0
LINE
  5
2BD
330
2B4
100
AcDbEntity
  8
0
  6
SLD-SOLID
 62
     7
100
AcDbLine
 10
4.4604250329
 20
9.6658208457
 30
0.0
 11
4.4604250329
 21
9.9807814756
 31
0.0
  0
MTEXT
  5
2BE
330
2B4
100
AcDbEntity
  8
0
  6
SLD-SOLID
 62
     7
100
AcDbMText
 10
2.8033330211
 20
10.5246219066
 30
0.0
 40
0.125
 41
0.0
 71
     1
 72
     1
  1
%%c
  7
SLDTEXTSTYLE0
  0
MTEXT
  5
2BF
330
2B4
100
AcDbEntity
  8
0
  6
SLD-SOLID
 62
     7
100
AcDbMText
 10
2.9918486417
 20
10.5265316289
 30
0.0
 40
0.125
 41
0.0
 71
     1
 72
     1
  1
.3150
  7
SLDTEXTSTYLE0
  0
MTEXT
  5
2C0
330
2B4
100
AcDbEntity
  8
0
  6
SLD-SOLID
 62
     7
100
AcDbMText
 10
3.454348652
 20
10.5265316289
 30
0.0
 40
0.125
 41
0.0
 71
     1
 72
     1
  1
h7
  7
SLDTEXTSTYLE0
  0
MTEXT
  5
2C1
330
2B4
100
AcDbEntity
  8
0
  6
SLD-SOLID
 62
     7
100
AcDbMText
 10
3.6937583615
 20
10.6160281465
 30
0.0
 40
0.125
 41
0.0
 71
     1
 72
     1
  1
+
  7
SLDTEXTSTYLE0
  0
MTEXT
  5
2C2
330
2B4
100
AcDbEntity
  8
0
  6
SLD-SOLID
 62
     7
100
AcDbMText
 10
3.7165882242
 20
10.454396197
 30
0.0
 40
0.125
 41
0.0
 71
     1
 72
     1
  1
-
  7
SLDTEXTSTYLE0
  0
MTEXT
  5
2C3
330
2B4
100
AcDbEntity
  8
0
  6
SLD-SOLID
 62
     7
100
AcDbMText
 10
3.7948000409
 20
10.6160281465
 30
0.0
 40
0.125
 41
0.0
 71
     1
 72
     1
  1
.0000
  7
SLDTEXTSTYLE0
  0
MTEXT
  5
2C4
330
2B4
100
AcDbEntity
  8
0
  6
SLD-SOLID
 62
     7
100
AcDbMText
 10
3.7948000409
 20
10.454396197
 30
0.0
 40
0.125
 41
0.0
 71
     1
 72
     1
  1
.0006
  7
SLDTEXTSTYLE0
  0
ENDBLK
  5
2B6
330
2B4
100
AcDbEntity
  8
0
100
AcDbBlockEnd
  0
BLOCK
  5
2C7
330
2C6
100
AcDbEntity
  8
0
100
AcDbBlockBegin
  2
_D_17
 70
     0
 10
0.0
 20
0.0
 30
0.0
  3
_D_17
  1

  0
SOLID
  5
2C9
330
2C6
100
AcDbEntity
  8
0
  6
SLD-SOLID
 62
     7
100
AcDbTrace
 10
8.2417751904
 20
9.6658208457
 30
0.0
 11
8.2617751904
 21
9.7958208457
 31
0.0
 12
8.2217751904
 22
9.7958208457
 32
0.0
 13
8.2217751904
 23
9.7958208457
 33
0.0
  0
SOLID
  5
2CA
330
2C6
100
AcDbEntity
  8
0
  6
SLD-SOLID
 62
     7
100
AcDbTrace
 10
8.2417751904
 20
9.9807814756
 30
0.0
 11
8.2217751904
 21
9.8507814756
 31
0.0
 12
8.2617751904
 22
9.8507814756
 32
0.0
 13
8.2617751904
 23
9.8507814756
 33
0.0
  0
LINE
  5
2CB
330
2C6
100
AcDbEntity
  8
0
  6
SLD-SOLID
 62
     7
100
AcDbLine
 10
7.8962518046
 20
9.6658208457
 30
0.0
 11
8.3667751904
 21
9.6658208457
 31
0.0
  0
LINE
  5
2CC
330
2C6
100
AcDbEntity
  8
0
  6
SLD-SOLID
 62
     7
100
AcDbLine
 10
7.8962518046
 20
9.9807814756
 30
0.0
 11
8.3667751904
 21
9.9807814756
 31
0.0
  0
LINE
  5
2CD
330
2C6
100
AcDbEntity
  8
0
  6
SLD-SOLID
 62
     7
100
AcDbLine
 10
8.4917751904
 20
10.4207639237
 30
0.0
 11
8.2417751904
 21
10.4207639237
 31
0.0
  0
LINE
  5
2CE
330
2C6
100
AcDbEntity
  8
0
  6
SLD-SOLID
 62
     7
100
AcDbLine
 10
8.2417751904
 20
10.4207639237
 30
0.0
 11
8.2417751904
 21
9.9807814756
 31
0.0
  0
LINE
  5
2CF
330
2C6
100
AcDbEntity
  8
0
  6
SLD-SOLID
 62
     7
100
AcDbLine
 10
8.2417751904
 20
9.6658208457
 30
0.0
 11
8.2417751904
 21
9.9807814756
 31
0.0
  0
MTEXT
  5
2D0
330
2C6
100
AcDbEntity
  8
0
  6
SLD-SOLID
 62
     7
100
AcDbMText
 10
8.4917751904
 20
10.4904911581
 30
0.0
 40
0.125
 41
0.0
 71
     1
 72
     1
  1
%%c
  7
SLDTEXTSTYLE0
  0
MTEXT
  5
2D1
330
2C6
100
AcDbEntity
  8
0
  6
SLD-SOLID
 62
     7
100
AcDbMText
 10
8.680290811
 20
10.4924008804
 30
0.0
 40
0.125
 41
0.0
 71
     1
 72
     1
  1
.3150
  7
SLDTEXTSTYLE0
  0
MTEXT
  5
2D2
330
2C6
100
AcDbEntity
  8
0
  6
SLD-SOLID
 62
     7
100
AcDbMText
 10
9.1427908213
 20
10.4924008804
 30
0.0
 40
0.125
 41
0.0
 71
     1
 72
     1
  1
h7
  7
SLDTEXTSTYLE0
  0
MTEXT
  5
2D3
330
2C6
100
AcDbEntity
  8
0
  6
SLD-SOLID
 62
     7
100
AcDbMText
 10
9.3822005308
 20
10.581897398
 30
0.0
 40
0.125
 41
0.0
 71
     1
 72
     1
  1
+
  7
SLDTEXTSTYLE0
  0
MTEXT
  5
2D4
330
2C6
100
AcDbEntity
  8
0
  6
SLD-SOLID
 62
     7
100
AcDbMText
 10
9.4050303935
 20
10.4202654485
 30
0.0
 40
0.125
 41
0.0
 71
     1
 72
     1
  1
-
  7
SLDTEXTSTYLE0
  0
MTEXT
  5
2D5
330
2C6
100
AcDbEntity
  8
0
  6
SLD-SOLID
 62
     7
100
AcDbMText
 10
9.4832422102
 20
10.581897398
 30
0.0
 40
0.125
 41
0.0
 71
     1
 72
     1
  1
.0000
  7
SLDTEXTSTYLE0
  0
MTEXT
  5
2D6
330
2C6
100
AcDbEntity
  8
0
  6
SLD-SOLID
 62
     7
100
AcDbMText
 10
9.4832422102
 20
10.4202654485
 30
0.0
 40
0.125
 41
0.0
 71
     1
 72
     1
  1
.0006
  7
SLDTEXTSTYLE0
  0
ENDBLK
  5
2C8
330
2C6
100
AcDbEntity
  8
0
100
AcDbBlockEnd
  0
BLOCK
  5
2DA
330
2D9
100
AcDbEntity
  8
0
100
AcDbBlockBegin
  2
SW_DATUMTAG_1
 70
     0
 10
0.0
 20
0.0
 30
0.0
  3
SW_DATUMTAG_1
  1

  0
LINE
  5
2DC
330
2D9
100
AcDbEntity
  8
0
  6
SLD-SOLID
 62
     0
100
AcDbLine
 10
-0.3988734891
 20
0.0992187392
 30
0.0
 11
-0.0771701371
 21
0.0992187392
 31
0.0
  0
LINE
  5
2DD
330
2D9
100
AcDbEntity
  8
0
  6
SLD-SOLID
 62
     0
100
AcDbLine
 10
-0.0771701371
 20
-0.0257812608
 30
0.0
 11
0.1728298629
 21
-0.0257812608
 31
0.0
  0
LINE
  5
2DE
330
2D9
100
AcDbEntity
  8
0
  6
SLD-SOLID
 62
     0
100
AcDbLine
 10
0.1728298629
 20
-0.0257812608
 30
0.0
 11
0.1728298629
 21
0.2242187392
 31
0.0
  0
LINE
  5
2DF
330
2D9
100
AcDbEntity
  8
0
  6
SLD-SOLID
 62
     0
100
AcDbLine
 10
0.1728298629
 20
0.2242187392
 30
0.0
 11
-0.0771701371
 21
0.2242187392
 31
0.0
  0
LINE
  5
2E0
330
2D9
100
AcDbEntity
  8
0
  6
SLD-SOLID
 62
     0
100
AcDbLine
 10
-0.0771701371
 20
0.2242187392
 30
0.0
 11
-0.0771701371
 21
-0.0257812608
 31
0.0
  0
MTEXT
  5
2E1
330
2D9
100
AcDbEntity
  8
0
  6
CONTINUOUS
 62
     0
100
AcDbMText
 10
0.0
 20
0.1611334675
 30
0.0
 40
0.125
 41
0.0
 71
     1
 72
     1
  1
B
  7
SLDTEXTSTYLE0
  0
SOLID
  5
2E2
330
2D9
100
AcDbEntity
  8
0
  6
SLD-SOLID
 62
     0
100
AcDbTrace
 10
-0.3988734891
 20
0.1617187392
 30
0.0
 11
-0.3988734891
 21
0.0367187392
 31
0.0
 12
-0.2738734891
 22
0.0992187392
 32
0.0
 13
-0.2738734891
 23
0.0992187392
 33
0.0
  0
ENDBLK
  5
2DB
330
2D9
100
AcDbEntity
  8
0
100
AcDbBlockEnd
  0
BLOCK
  5
2E5
330
2E4
100
AcDbEntity
  8
0
100
AcDbBlockBegin
  2
SW_DATUMTAG_2
 70
     0
 10
0.0
 20
0.0
 30
0.0
  3
SW_DATUMTAG_2
  1

  0
LINE
  5
2E7
330
2E4
100
AcDbEntity
  8
0
  6
SLD-SOLID
 62
     0
100
AcDbLine
 10
0.66013872
 20
0.0992187392
 30
0.0
 11
0.1866319443
 21
0.0992187392
 31
0.0
  0
LINE
  5
2E8
330
2E4
100
AcDbEntity
  8
0
  6
SLD-SOLID
 62
     0
100
AcDbLine
 10
-0.0633680557
 20
-0.0257812608
 30
0.0
 11
0.1866319443
 21
-0.0257812608
 31
0.0
  0
LINE
  5
2E9
330
2E4
100
AcDbEntity
  8
0
  6
SLD-SOLID
 62
     0
100
AcDbLine
 10
0.1866319443
 20
-0.0257812608
 30
0.0
 11
0.1866319443
 21
0.2242187392
 31
0.0
  0
LINE
  5
2EA
330
2E4
100
AcDbEntity
  8
0
  6
SLD-SOLID
 62
     0
100
AcDbLine
 10
0.1866319443
 20
0.2242187392
 30
0.0
 11
-0.0633680557
 21
0.2242187392
 31
0.0
  0
LINE
  5
2EB
330
2E4
100
AcDbEntity
  8
0
  6
SLD-SOLID
 62
     0
100
AcDbLine
 10
-0.0633680557
 20
0.2242187392
 30
0.0
 11
-0.0633680557
 21
-0.0257812608
 31
0.0
  0
MTEXT
  5
2EC
330
2E4
100
AcDbEntity
  8
0
  6
CONTINUOUS
 62
     0
100
AcDbMText
 10
0.0
 20
0.1611334675
 30
0.0
 40
0.125
 41
0.0
 71
     1
 72
     1
  1
A
  7
SLDTEXTSTYLE0
  0
SOLID
  5
2ED
330
2E4
100
AcDbEntity
  8
0
  6
SLD-SOLID
 62
     0
100
AcDbTrace
 10
0.66013872
 20
0.1617187392
 30
0.0
 11
0.66013872
 21
0.0367187392
 31
0.0
 12
0.53513872
 22
0.0992187392
 32
0.0
 13
0.53513872
 23
0.0992187392
 33
0.0
  0
ENDBLK
  5
2E6
330
2E4
100
AcDbEntity
  8
0
100
AcDbBlockEnd
  0
BLOCK
  5
317
330
316
100
AcDbEntity
  8
0
100
AcDbBlockBegin
  2
_D_18
 70
     0
 10
0.0
 20
0.0
 30
0.0
  3
_D_18
  1

  0
LINE
  5
319
330
316
100
AcDbEntity
  8
0
  6
SLD-SOLID
 62
     7
100
AcDbLine
 10
15.1070758676
 20
4.6768704112
 30
0.0
 11
14.9086383616
 21
4.6768704112
 31
0.0
  0
LINE
  5
31A
330
316
100
AcDbEntity
  8
0
  6
SLD-SOLID
 62
     7
100
AcDbLine
 10
14.9086383616
 20
4.6768704112
 30
0.0
 11
14.9086383616
 21
5.0763061821
 31
0.0
  0
LINE
  5
31B
330
316
100
AcDbEntity
  8
0
  6
SLD-SOLID
 62
     7
100
AcDbLine
 10
14.9086383616
 20
5.0763061821
 30
0.0
 11
15.1070758676
 21
5.0763061821
 31
0.0
  0
LINE
  5
31C
330
316
100
AcDbEntity
  8
0
  6
SLD-SOLID
 62
     7
100
AcDbLine
 10
15.1070758676
 20
5.0763061821
 30
0.0
 11
15.1070758676
 21
4.6768704112
 31
0.0
  0
LINE
  5
31D
330
316
100
AcDbEntity
  8
0
  6
SLD-SOLID
 62
     7
100
AcDbLine
 10
15.0078571146
 20
6.3023646382
 30
0.0
 11
15.0078571146
 21
5.0890014849
 31
0.0
  0
MTEXT
  5
31E
330
316
100
AcDbEntity
  8
0
  6
SLD-SOLID
 62
     7
100
AcDbMText
 10
14.9459423863
 20
4.7149563471
 30
0.0
 40
0.125
 41
0.0
 71
     1
 72
     1
  1
.000
  7
SLDTEXTSTYLE0
 11
6.123233995736766E-17
 21
1.0
 31
0.0
  0
ENDBLK
  5
318
330
316
100
AcDbEntity
  8
0
100
AcDbBlockEnd
  0
BLOCK
  5
321
330
320
100
AcDbEntity
  8
0
100
AcDbBlockBegin
  2
_D_19
 70
     0
 10
0.0
 20
0.0
 30
0.0
  3
_D_19
  1

  0
LINE
  5
323
330
320
100
AcDbEntity
  8
0
  6
SLD-SOLID
 62
     7
100
AcDbLine
 10
14.5431474382
 20
4.6768704112
 30
0.0
 11
14.3447099322
 21
4.6768704112
 31
0.0
  0
LINE
  5
324
330
320
100
AcDbEntity
  8
0
  6
SLD-SOLID
 62
     7
100
AcDbLine
 10
14.3447099322
 20
4.6768704112
 30
0.0
 11
14.3447099322
 21
5.0763061821
 31
0.0
  0
LINE
  5
325
330
320
100
AcDbEntity
  8
0
  6
SLD-SOLID
 62
     7
100
AcDbLine
 10
14.3447099322
 20
5.0763061821
 30
0.0
 11
14.5431474382
 21
5.0763061821
 31
0.0
  0
LINE
  5
326
330
320
100
AcDbEntity
  8
0
  6
SLD-SOLID
 62
     7
100
AcDbLine
 10
14.5431474382
 20
5.0763061821
 30
0.0
 11
14.5431474382
 21
4.6768704112
 31
0.0
  0
LINE
  5
327
330
320
100
AcDbEntity
  8
0
  6
SLD-SOLID
 62
     7
100
AcDbLine
 10
14.4439286852
 20
5.2858518786
 30
0.0
 11
14.4439286852
 21
5.0890014849
 31
0.0
  0
LINE
  5
328
330
320
100
AcDbEntity
  8
0
  6
SLD-SOLID
 62
     7
100
AcDbLine
 10
14.4439286852
 20
5.2858518786
 30
0.0
 11
14.4369909728
 21
5.4827022723
 31
0.0
  0
LINE
  5
329
330
320
100
AcDbEntity
  8
0
  6
SLD-SOLID
 62
     7
100
AcDbLine
 10
14.4369909728
 20
5.4827022723
 30
0.0
 11
14.4369909728
 21
6.5960654256
 31
0.0
  0
MTEXT
  5
32A
330
320
100
AcDbEntity
  8
0
  6
SLD-SOLID
 62
     7
100
AcDbMText
 10
14.382013957
 20
4.7149563471
 30
0.0
 40
0.125
 41
0.0
 71
     1
 72
     1
  1
.571
  7
SLDTEXTSTYLE0
 11
6.123233995736766E-17
 21
1.0
 31
0.0
  0
ENDBLK
  5
322
330
320
100
AcDbEntity
  8
0
100
AcDbBlockEnd
  0
BLOCK
  5
32D
330
32C
100
AcDbEntity
  8
0
100
AcDbBlockBegin
  2
_D_20
 70
     0
 10
0.0
 20
0.0
 30
0.0
  3
_D_20
  1

  0
LINE
  5
32F
330
32C
100
AcDbEntity
  8
0
  6
SLD-SOLID
 62
     7
100
AcDbLine
 10
13.000776655
 20
4.5845093181
 30
0.0
 11
12.802339149
 21
4.5845093181
 31
0.0
  0
LINE
  5
330
330
32C
100
AcDbEntity
  8
0
  6
SLD-SOLID
 62
     7
100
AcDbLine
 10
12.802339149
 20
4.5845093181
 30
0.0
 11
12.802339149
 21
5.0763061821
 31
0.0
  0
LINE
  5
331
330
32C
100
AcDbEntity
  8
0
  6
SLD-SOLID
 62
     7
100
AcDbLine
 10
12.802339149
 20
5.0763061821
 30
0.0
 11
13.000776655
 21
5.0763061821
 31
0.0
  0
LINE
  5
332
330
32C
100
AcDbEntity
  8
0
  6
SLD-SOLID
 62
     7
100
AcDbLine
 10
13.000776655
 20
5.0763061821
 30
0.0
 11
13.000776655
 21
4.5845093181
 31
0.0
  0
LINE
  5
333
330
32C
100
AcDbEntity
  8
0
  6
SLD-SOLID
 62
     7
100
AcDbLine
 10
12.901557902
 20
6.5960654256
 30
0.0
 11
12.901557902
 21
5.0890014849
 31
0.0
  0
MTEXT
  5
334
330
32C
100
AcDbEntity
  8
0
  6
SLD-SOLID
 62
     7
100
AcDbMText
 10
12.8396431737
 20
4.6225952541
 30
0.0
 40
0.125
 41
0.0
 71
     1
 72
     1
  1
2.106
  7
SLDTEXTSTYLE0
 11
6.123233995736766E-17
 21
1.0
 31
0.0
  0
ENDBLK
  5
32E
330
32C
100
AcDbEntity
  8
0
100
AcDbBlockEnd
  0
BLOCK
  5
337
330
336
100
AcDbEntity
  8
0
100
AcDbBlockBegin
  2
_D_21
 70
     0
 10
0.0
 20
0.0
 30
0.0
  3
_D_21
  1

  0
SOLID
  5
339
330
336
100
AcDbEntity
  8
0
  6
SLD-SOLID
 62
     7
100
AcDbTrace
 10
15.2515614826
 20
6.4203646382
 30
0.0
 11
15.2715614826
 21
6.5503646382
 31
0.0
 12
15.2315614826
 22
6.5503646382
 32
0.0
 13
15.2315614826
 23
6.5503646382
 33
0.0
  0
SOLID
  5
33A
330
336
100
AcDbEntity
  8
0
  6
SLD-SOLID
 62
     7
100
AcDbTrace
 10
15.2515614826
 20
6.8140654256
 30
0.0
 11
15.2315614826
 21
6.6840654256
 31
0.0
 12
15.2715614826
 22
6.6840654256
 32
0.0
 13
15.2715614826
 23
6.6840654256
 33
0.0
  0
LINE
  5
33B
330
336
100
AcDbEntity
  8
0
  6
SLD-SOLID
 62
     7
100
AcDbLine
 10
15.5142567946
 20
7.1314776019
 30
0.0
 11
15.5142567946
 21
7.3299151078
 31
0.0
  0
LINE
  5
33C
330
336
100
AcDbEntity
  8
0
  6
SLD-SOLID
 62
     7
100
AcDbLine
 10
15.5142567946
 20
7.3299151078
 30
0.0
 11
15.9136925654
 21
7.3299151078
 31
0.0
  0
LINE
  5
33D
330
336
100
AcDbEntity
  8
0
  6
SLD-SOLID
 62
     7
100
AcDbLine
 10
15.9136925654
 20
7.3299151078
 30
0.0
 11
15.9136925654
 21
7.1314776019
 31
0.0
  0
LINE
  5
33E
330
336
100
AcDbEntity
  8
0
  6
SLD-SOLID
 62
     7
100
AcDbLine
 10
15.9136925654
 20
7.1314776019
 30
0.0
 11
15.5142567946
 21
7.1314776019
 31
0.0
  0
LINE
  5
33F
330
336
100
AcDbEntity
  8
0
  6
SLD-SOLID
 62
     7
100
AcDbLine
 10
15.3078571146
 20
6.4203646382
 30
0.0
 11
15.3765614826
 21
6.4203646382
 31
0.0
  0
LINE
  5
340
330
336
100
AcDbEntity
  8
0
  6
SLD-SOLID
 62
     7
100
AcDbLine
 10
13.119557902
 20
6.8140654256
 30
0.0
 11
15.3765614826
 21
6.8140654256
 31
0.0
  0
LINE
  5
341
330
336
100
AcDbEntity
  8
0
  6
SLD-SOLID
 62
     7
100
AcDbLine
 10
15.5015614826
 20
7.2306963548
 30
0.0
 11
15.2515614826
 21
7.2306963548
 31
0.0
  0
LINE
  5
342
330
336
100
AcDbEntity
  8
0
  6
SLD-SOLID
 62
     7
100
AcDbLine
 10
15.2515614826
 20
7.2306963548
 30
0.0
 11
15.2515614826
 21
6.8140654256
 31
0.0
  0
LINE
  5
343
330
336
100
AcDbEntity
  8
0
  6
SLD-SOLID
 62
     7
100
AcDbLine
 10
15.2515614826
 20
6.4203646382
 30
0.0
 11
15.2515614826
 21
6.8140654256
 31
0.0
  0
MTEXT
  5
344
330
336
100
AcDbEntity
  8
0
  6
SLD-SOLID
 62
     7
100
AcDbMText
 10
15.5523427305
 20
7.2926110831
 30
0.0
 40
0.125
 41
0.0
 71
     1
 72
     1
  1
.394
  7
SLDTEXTSTYLE0
  0
ENDBLK
  5
338
330
336
100
AcDbEntity
  8
0
100
AcDbBlockEnd
  0
BLOCK
  5
347
330
346
100
AcDbEntity
  8
0
100
AcDbBlockBegin
  2
_D_22
 70
     0
 10
0.0
 20
0.0
 30
0.0
  3
_D_22
  1

  0
SOLID
  5
349
330
346
100
AcDbEntity
  8
0
  6
SLD-SOLID
 62
     7
100
AcDbTrace
 10
15.2515614826
 20
6.0266638508
 30
0.0
 11
15.2715614826
 21
6.1566638508
 31
0.0
 12
15.2315614826
 22
6.1566638508
 32
0.0
 13
15.2315614826
 23
6.1566638508
 33
0.0
  0
SOLID
  5
34A
330
346
100
AcDbEntity
  8
0
  6
SLD-SOLID
 62
     7
100
AcDbTrace
 10
15.2515614826
 20
6.4203646382
 30
0.0
 11
15.2315614826
 21
6.2903646382
 31
0.0
 12
15.2715614826
 22
6.2903646382
 32
0.0
 13
15.2715614826
 23
6.2903646382
 33
0.0
  0
LINE
  5
34B
330
346
100
AcDbEntity
  8
0
  6
SLD-SOLID
 62
     7
100
AcDbLine
 10
15.5142567946
 20
5.2391128686
 30
0.0
 11
15.5142567946
 21
5.4375503746
 31
0.0
  0
LINE
  5
34C
330
346
100
AcDbEntity
  8
0
  6
SLD-SOLID
 62
     7
100
AcDbLine
 10
15.5142567946
 20
5.4375503746
 30
0.0
 11
15.9136925654
 21
5.4375503746
 31
0.0
  0
LINE
  5
34D
330
346
100
AcDbEntity
  8
0
  6
SLD-SOLID
 62
     7
100
AcDbLine
 10
15.9136925654
 20
5.4375503746
 30
0.0
 11
15.9136925654
 21
5.2391128686
 31
0.0
  0
LINE
  5
34E
330
346
100
AcDbEntity
  8
0
  6
SLD-SOLID
 62
     7
100
AcDbLine
 10
15.9136925654
 20
5.2391128686
 30
0.0
 11
15.5142567946
 21
5.2391128686
 31
0.0
  0
LINE
  5
34F
330
346
100
AcDbEntity
  8
0
  6
SLD-SOLID
 62
     7
100
AcDbLine
 10
13.119557902
 20
6.0266638508
 30
0.0
 11
15.3765614826
 21
6.0266638508
 31
0.0
  0
LINE
  5
350
330
346
100
AcDbEntity
  8
0
  6
SLD-SOLID
 62
     7
100
AcDbLine
 10
15.5015614826
 20
5.3383316216
 30
0.0
 11
15.2515614826
 21
5.3383316216
 31
0.0
  0
LINE
  5
351
330
346
100
AcDbEntity
  8
0
  6
SLD-SOLID
 62
     7
100
AcDbLine
 10
15.2515614826
 20
5.3383316216
 30
0.0
 11
15.2515614826
 21
6.0266638508
 31
0.0
  0
LINE
  5
352
330
346
100
AcDbEntity
  8
0
  6
SLD-SOLID
 62
     7
100
AcDbLine
 10
15.2515614826
 20
6.0266638508
 30
0.0
 11
15.2515614826
 21
6.4203646382
 31
0.0
  0
MTEXT
  5
353
330
346
100
AcDbEntity
  8
0
  6
SLD-SOLID
 62
     7
100
AcDbMText
 10
15.5523427305
 20
5.4002463499
 30
0.0
 40
0.125
 41
0.0
 71
     1
 72
     1
  1
.394
  7
SLDTEXTSTYLE0
  0
ENDBLK
  5
348
330
346
100
AcDbEntity
  8
0
100
AcDbBlockEnd
  0
BLOCK
  5
356
330
355
100
AcDbEntity
  8
0
100
AcDbBlockBegin
  2
_D_23
 70
     0
 10
0.0
 20
0.0
 30
0.0
  3
_D_23
  1

  0
SOLID
  5
358
330
355
100
AcDbEntity
  8
0
  6
SLD-SOLID
 62
     7
100
AcDbTrace
 10
11.9126967596
 20
6.7746953468
 30
0.0
 11
11.8926967596
 21
6.6446953468
 31
0.0
 12
11.9326967596
 22
6.6446953468
 32
0.0
 13
11.9326967596
 23
6.6446953468
 33
0.0
  0
SOLID
  5
359
330
355
100
AcDbEntity
  8
0
  6
SLD-SOLID
 62
     7
100
AcDbTrace
 10
11.9126967596
 20
6.4203646382
 30
0.0
 11
11.9326967596
 21
6.5503646382
 31
0.0
 12
11.8926967596
 22
6.5503646382
 32
0.0
 13
11.8926967596
 23
6.5503646382
 33
0.0
  0
LINE
  5
35A
330
355
100
AcDbEntity
  8
0
  6
SLD-SOLID
 62
     7
100
AcDbLine
 10
11.2505656859
 20
6.8481262008
 30
0.0
 11
11.2505656859
 21
7.0465637068
 31
0.0
  0
LINE
  5
35B
330
355
100
AcDbEntity
  8
0
  6
SLD-SOLID
 62
     7
100
AcDbLine
 10
11.2505656859
 20
7.0465637068
 30
0.0
 11
11.6500014567
 21
7.0465637068
 31
0.0
  0
LINE
  5
35C
330
355
100
AcDbEntity
  8
0
  6
SLD-SOLID
 62
     7
100
AcDbLine
 10
11.6500014567
 20
7.0465637068
 30
0.0
 11
11.6500014567
 21
6.8481262008
 31
0.0
  0
LINE
  5
35D
330
355
100
AcDbEntity
  8
0
  6
SLD-SOLID
 62
     7
100
AcDbLine
 10
11.6500014567
 20
6.8481262008
 30
0.0
 11
11.2505656859
 21
6.8481262008
 31
0.0
  0
LINE
  5
35E
330
355
100
AcDbEntity
  8
0
  6
SLD-SOLID
 62
     7
100
AcDbLine
 10
13.2290185319
 20
6.7746953468
 30
0.0
 11
11.7876967596
 21
6.7746953468
 31
0.0
  0
LINE
  5
35F
330
355
100
AcDbEntity
  8
0
  6
SLD-SOLID
 62
     7
100
AcDbLine
 10
11.6626967596
 20
6.9473449538
 30
0.0
 11
11.9126967596
 21
6.9473449538
 31
0.0
  0
LINE
  5
360
330
355
100
AcDbEntity
  8
0
  6
SLD-SOLID
 62
     7
100
AcDbLine
 10
11.9126967596
 20
6.9473449538
 30
0.0
 11
11.9126967596
 21
6.7746953468
 31
0.0
  0
LINE
  5
361
330
355
100
AcDbEntity
  8
0
  6
SLD-SOLID
 62
     7
100
AcDbLine
 10
11.9126967596
 20
6.7746953468
 30
0.0
 11
11.9126967596
 21
6.4203646382
 31
0.0
  0
MTEXT
  5
362
330
355
100
AcDbEntity
  8
0
  6
SLD-SOLID
 62
     7
100
AcDbMText
 10
11.2886516218
 20
7.009259682
 30
0.0
 40
0.125
 41
0.0
 71
     1
 72
     1
  1
.354
  7
SLDTEXTSTYLE0
  0
ENDBLK
  5
357
330
355
100
AcDbEntity
  8
0
100
AcDbBlockEnd
  0
BLOCK
  5
365
330
364
100
AcDbEntity
  8
0
100
AcDbBlockBegin
  2
SW_CENTERMARKSYMBOL_5
 70
     0
 10
0.0
 20
0.0
 30
0.0
  3
SW_CENTERMARKSYMBOL_5
  1

  0
LINE
  5
367
330
364
100
AcDbEntity
  8
0
  6
SLD-SOLID
 62
     0
100
AcDbLine
 10
0.0
 20
0.0
 30
0.0
 11
0.0
 21
0.1
 31
0.0
  0
LINE
  5
368
330
364
100
AcDbEntity
  8
0
  6
SLD-SOLID
 62
     0
100
AcDbLine
 10
0.0
 20
0.0
 30
0.0
 11
-0.1
 21
0.0
 31
0.0
  0
LINE
  5
369
330
364
100
AcDbEntity
  8
0
  6
SLD-SOLID
 62
     0
100
AcDbLine
 10
0.0
 20
0.0
 30
0.0
 11
0.0
 21
-0.1
 31
0.0
  0
LINE
  5
36A
330
364
100
AcDbEntity
  8
0
  6
SLD-SOLID
 62
     0
100
AcDbLine
 10
0.0
 20
0.0
 30
0.0
 11
0.1
 21
0.0
 31
0.0
  0
LINE
  5
36B
330
364
100
AcDbEntity
  8
0
  6
SLD-SOLID
 62
     0
100
AcDbLine
 10
0.0
 20
0.1
 30
0.0
 11
0.0
 21
0.168
 31
0.0
  0
LINE
  5
36C
330
364
100
AcDbEntity
  8
0
  6
SLD-SOLID
 62
     0
100
AcDbLine
 10
-0.1
 20
0.0
 30
0.0
 11
-0.168
 21
0.0
 31
0.0
  0
LINE
  5
36D
330
364
100
AcDbEntity
  8
0
  6
SLD-SOLID
 62
     0
100
AcDbLine
 10
0.0
 20
-0.1
 30
0.0
 11
0.0
 21
-0.168
 31
0.0
  0
LINE
  5
36E
330
364
100
AcDbEntity
  8
0
  6
SLD-SOLID
 62
     0
100
AcDbLine
 10
0.1
 20
0.0
 30
0.0
 11
0.168
 21
0.0
 31
0.0
  0
ENDBLK
  5
366
330
364
100
AcDbEntity
  8
0
100
AcDbBlockEnd
  0
BLOCK
  5
371
330
370
100
AcDbEntity
  8
0
100
AcDbBlockBegin
  2
SW_CENTERMARKSYMBOL_6
 70
     0
 10
0.0
 20
0.0
 30
0.0
  3
SW_CENTERMARKSYMBOL_6
  1

  0
LINE
  5
373
330
370
100
AcDbEntity
  8
0
  6
SLD-SOLID
 62
     0
100
AcDbLine
 10
0.0
 20
0.0
 30
0.0
 11
0.0
 21
0.1
 31
0.0
  0
LINE
  5
374
330
370
100
AcDbEntity
  8
0
  6
SLD-SOLID
 62
     0
100
AcDbLine
 10
0.0
 20
0.0
 30
0.0
 11
-0.1
 21
0.0
 31
0.0
  0
LINE
  5
375
330
370
100
AcDbEntity
  8
0
  6
SLD-SOLID
 62
     0
100
AcDbLine
 10
0.0
 20
0.0
 30
0.0
 11
0.0
 21
-0.1
 31
0.0
  0
LINE
  5
376
330
370
100
AcDbEntity
  8
0
  6
SLD-SOLID
 62
     0
100
AcDbLine
 10
0.0
 20
0.0
 30
0.0
 11
0.1
 21
0.0
 31
0.0
  0
LINE
  5
377
330
370
100
AcDbEntity
  8
0
  6
SLD-SOLID
 62
     0
100
AcDbLine
 10
0.0
 20
0.1
 30
0.0
 11
0.0
 21
0.168
 31
0.0
  0
LINE
  5
378
330
370
100
AcDbEntity
  8
0
  6
SLD-SOLID
 62
     0
100
AcDbLine
 10
-0.1
 20
0.0
 30
0.0
 11
-0.168
 21
0.0
 31
0.0
  0
LINE
  5
379
330
370
100
AcDbEntity
  8
0
  6
SLD-SOLID
 62
     0
100
AcDbLine
 10
0.0
 20
-0.1
 30
0.0
 11
0.0
 21
-0.168
 31
0.0
  0
LINE
  5
37A
330
370
100
AcDbEntity
  8
0
  6
SLD-SOLID
 62
     0
100
AcDbLine
 10
0.1
 20
0.0
 30
0.0
 11
0.168
 21
0.0
 31
0.0
  0
ENDBLK
  5
372
330
370
100
AcDbEntity
  8
0
100
AcDbBlockEnd
  0
BLOCK
  5
37D
330
37C
100
AcDbEntity
  8
0
100
AcDbBlockBegin
  2
SW_CENTERMARKSYMBOL_7
 70
     0
 10
0.0
 20
0.0
 30
0.0
  3
SW_CENTERMARKSYMBOL_7
  1

  0
LINE
  5
37F
330
37C
100
AcDbEntity
  8
0
  6
SLD-SOLID
 62
     0
100
AcDbLine
 10
0.0
 20
0.0
 30
0.0
 11
0.0
 21
0.1
 31
0.0
  0
LINE
  5
380
330
37C
100
AcDbEntity
  8
0
  6
SLD-SOLID
 62
     0
100
AcDbLine
 10
0.0
 20
0.0
 30
0.0
 11
-0.1
 21
0.0
 31
0.0
  0
LINE
  5
381
330
37C
100
AcDbEntity
  8
0
  6
SLD-SOLID
 62
     0
100
AcDbLine
 10
0.0
 20
0.0
 30
0.0
 11
0.0
 21
-0.1
 31
0.0
  0
LINE
  5
382
330
37C
100
AcDbEntity
  8
0
  6
SLD-SOLID
 62
     0
100
AcDbLine
 10
0.0
 20
0.0
 30
0.0
 11
0.1
 21
0.0
 31
0.0
  0
LINE
  5
383
330
37C
100
AcDbEntity
  8
0
  6
SLD-SOLID
 62
     0
100
AcDbLine
 10
0.0
 20
0.1
 30
0.0
 11
0.0
 21
0.168
 31
0.0
  0
LINE
  5
384
330
37C
100
AcDbEntity
  8
0
  6
SLD-SOLID
 62
     0
100
AcDbLine
 10
-0.1
 20
0.0
 30
0.0
 11
-0.168
 21
0.0
 31
0.0
  0
LINE
  5
385
330
37C
100
AcDbEntity
  8
0
  6
SLD-SOLID
 62
     0
100
AcDbLine
 10
0.0
 20
-0.1
 30
0.0
 11
0.0
 21
-0.168
 31
0.0
  0
LINE
  5
386
330
37C
100
AcDbEntity
  8
0
  6
SLD-SOLID
 62
     0
100
AcDbLine
 10
0.1
 20
0.0
 30
0.0
 11
0.168
 21
0.0
 31
0.0
  0
ENDBLK
  5
37E
330
37C
100
AcDbEntity
  8
0
100
AcDbBlockEnd
  0
BLOCK
  5
389
330
388
100
AcDbEntity
  8
0
100
AcDbBlockBegin
  2
SW_CENTERMARKSYMBOL_8
 70
     0
 10
0.0
 20
0.0
 30
0.0
  3
SW_CENTERMARKSYMBOL_8
  1

  0
LINE
  5
38B
330
388
100
AcDbEntity
  8
0
  6
SLD-SOLID
 62
     0
100
AcDbLine
 10
0.0
 20
0.0
 30
0.0
 11
0.0
 21
0.1
 31
0.0
  0
LINE
  5
38C
330
388
100
AcDbEntity
  8
0
  6
SLD-SOLID
 62
     0
100
AcDbLine
 10
0.0
 20
0.0
 30
0.0
 11
-0.1
 21
0.0
 31
0.0
  0
LINE
  5
38D
330
388
100
AcDbEntity
  8
0
  6
SLD-SOLID
 62
     0
100
AcDbLine
 10
0.0
 20
0.0
 30
0.0
 11
0.0
 21
-0.1
 31
0.0
  0
LINE
  5
38E
330
388
100
AcDbEntity
  8
0
  6
SLD-SOLID
 62
     0
100
AcDbLine
 10
0.0
 20
0.0
 30
0.0
 11
0.1
 21
0.0
 31
0.0
  0
LINE
  5
38F
330
388
100
AcDbEntity
  8
0
  6
SLD-SOLID
 62
     0
100
AcDbLine
 10
0.0
 20
0.1
 30
0.0
 11
0.0
 21
0.168
 31
0.0
  0
LINE
  5
390
330
388
100
AcDbEntity
  8
0
  6
SLD-SOLID
 62
     0
100
AcDbLine
 10
-0.1
 20
0.0
 30
0.0
 11
-0.168
 21
0.0
 31
0.0
  0
LINE
  5
391
330
388
100
AcDbEntity
  8
0
  6
SLD-SOLID
 62
     0
100
AcDbLine
 10
0.0
 20
-0.1
 30
0.0
 11
0.0
 21
-0.168
 31
0.0
  0
LINE
  5
392
330
388
100
AcDbEntity
  8
0
  6
SLD-SOLID
 62
     0
100
AcDbLine
 10
0.1
 20
0.0
 30
0.0
 11
0.168
 21
0.0
 31
0.0
  0
ENDBLK
  5
38A
330
388
100
AcDbEntity
  8
0
100
AcDbBlockEnd
  0
BLOCK
  5
39D
330
39C
100
AcDbEntity
  8
0
100
AcDbBlockBegin
  2
SW_DOWELSYMBOL_2
 70
     0
 10
0.0
 20
0.0
 30
0.0
  3
SW_DOWELSYMBOL_2
  1

  0
CIRCLE
  5
39F
330
39C
100
AcDbEntity
  8
0
  6
CONTINUOUS
 62
     0
100
AcDbCircle
 10
0.0
 20
0.0
 30
0.0
 40
0.0624999999999997
  0
INSERT
  5
3A0
330
39C
100
AcDbEntity
  8
0
  6
CONTINUOUS
 62
     0
100
AcDbBlockReference
  2
*U58
 10
0.0
 20
0.0
 30
0.0
  0
INSERT
  5
3A1
330
39C
100
AcDbEntity
  8
0
  6
CONTINUOUS
 62
     0
100
AcDbBlockReference
  2
*U59
 10
0.0
 20
0.0
 30
0.0
  0
ENDBLK
  5
39E
330
39C
100
AcDbEntity
  8
0
100
AcDbBlockEnd
  0
BLOCK
  5
3A4
330
3A3
100
AcDbEntity
  8
0
100
AcDbBlockBegin
  2
SW_DOWELSYMBOL_3
 70
     0
 10
0.0
 20
0.0
 30
0.0
  3
SW_DOWELSYMBOL_3
  1

  0
CIRCLE
  5
3A6
330
3A3
100
AcDbEntity
  8
0
  6
CONTINUOUS
 62
     0
100
AcDbCircle
 10
0.0
 20
0.0
 30
0.0
 40
0.0624999999999997
  0
INSERT
  5
3A7
330
3A3
100
AcDbEntity
  8
0
  6
CONTINUOUS
 62
     0
100
AcDbBlockReference
  2
*U60
 10
0.0
 20
0.0
 30
0.0
  0
INSERT
  5
3A8
330
3A3
100
AcDbEntity
  8
0
  6
CONTINUOUS
 62
     0
100
AcDbBlockReference
  2
*U61
 10
0.0
 20
0.0
 30
0.0
  0
ENDBLK
  5
3A5
330
3A3
100
AcDbEntity
  8
0
100
AcDbBlockEnd
  0
BLOCK
  5
3B5
330
3B4
100
AcDbEntity
  8
0
100
AcDbBlockBegin
  2
_D_24
 70
     0
 10
0.0
 20
0.0
 30
0.0
  3
_D_24
  1

  0
SOLID
  5
3B7
330
3B4
100
AcDbEntity
  8
0
  6
SLD-SOLID
 62
     7
100
AcDbTrace
 10
2.7290998153
 20
7.6218719031
 30
0.0
 11
2.8590998153
 21
7.6018719031
 31
0.0
 12
2.8590998153
 22
7.6418719031
 32
0.0
 13
2.8590998153
 23
7.6418719031
 33
0.0
  0
SOLID
  5
3B8
330
3B4
100
AcDbEntity
  8
0
  6
SLD-SOLID
 62
     7
100
AcDbTrace
 10
3.5165013901
 20
7.6218719031
 30
0.0
 11
3.3865013901
 21
7.6418719031
 31
0.0
 12
3.3865013901
 22
7.6018719031
 32
0.0
 13
3.3865013901
 23
7.6018719031
 33
0.0
  0
LINE
  5
3B9
330
3B4
100
AcDbEntity
  8
0
  6
SLD-SOLID
 62
     7
100
AcDbLine
 10
2.7290998153
 20
7.0215457405
 30
0.0
 11
2.7290998153
 21
7.7468719031
 31
0.0
  0
LINE
  5
3BA
330
3B4
100
AcDbEntity
  8
0
  6
SLD-SOLID
 62
     7
100
AcDbLine
 10
3.5165013901
 20
7.0215457405
 30
0.0
 11
3.5165013901
 21
7.7468719031
 31
0.0
  0
LINE
  5
3BB
330
3B4
100
AcDbEntity
  8
0
  6
SLD-SOLID
 62
     7
100
AcDbLine
 10
2.7290998153
 20
7.6218719031
 30
0.0
 11
2.4681889459
 21
7.6218719031
 31
0.0
  0
LINE
  5
3BC
330
3B4
100
AcDbEntity
  8
0
  6
SLD-SOLID
 62
     7
100
AcDbLine
 10
3.5165013901
 20
7.6218719031
 30
0.0
 11
2.7290998153
 21
7.6218719031
 31
0.0
  0
MTEXT
  5
3BD
330
3B4
100
AcDbEntity
  8
0
  6
SLD-SOLID
 62
     7
100
AcDbMText
 10
1.7301681649
 20
7.6837866313
 30
0.0
 40
0.125
 41
0.0
 71
     1
 72
     1
  1
.787
  7
SLDTEXTSTYLE0
  0
MTEXT
  5
3BE
330
3B4
100
AcDbEntity
  8
0
  6
SLD-SOLID
 62
     7
100
AcDbMText
 10
2.0534320639
 20
7.6837866313
 30
0.0
 40
0.125
 41
0.0
 71
     1
 72
     1
  1
.004
  7
SLDTEXTSTYLE0
  0
ENDBLK
  5
3B6
330
3B4
100
AcDbEntity
  8
0
100
AcDbBlockEnd
  0
BLOCK
  5
3C1
330
3C0
100
AcDbEntity
  8
0
100
AcDbBlockBegin
  2
_D_25
 70
     0
 10
0.0
 20
0.0
 30
0.0
  3
_D_25
  1

  0
SOLID
  5
3C3
330
3C0
100
AcDbEntity
  8
0
  6
SLD-SOLID
 62
     7
100
AcDbTrace
 10
3.0888006027
 20
6.3614749107
 30
0.0
 11
3.0064800946
 21
6.2588916082
 31
0.0
 12
3.0411211108
 22
6.2388916082
 32
0.0
 13
3.0411211108
 23
6.2388916082
 33
0.0
  0
LINE
  5
3C4
330
3C0
100
AcDbEntity
  8
0
  6
SLD-SOLID
 62
     7
100
AcDbLine
 10
3.0888006027
 20
6.3614749107
 30
0.0
 11
2.6113017875
 21
5.5344227023
 31
0.0
  0
LINE
  5
3C5
330
3C0
100
AcDbEntity
  8
0
  6
SLD-SOLID
 62
     7
100
AcDbLine
 10
2.6113017875
 20
5.5344227023
 30
0.0
 11
2.3925517875
 21
5.5344227023
 31
0.0
  0
MTEXT
  5
3C6
330
3C0
100
AcDbEntity
  8
0
  6
SLD-SOLID
 62
     7
100
AcDbMText
 10
1.0604988868
 20
5.6955561674
 30
0.0
 40
0.125
 41
0.0
 71
     1
 72
     1
  1
%%c
  7
SLDTEXTSTYLE0
  0
MTEXT
  5
3C7
330
3C0
100
AcDbEntity
  8
0
  6
SLD-SOLID
 62
     7
100
AcDbMText
 10
1.2958895074
 20
5.6974658898
 30
0.0
 40
0.125
 41
0.0
 71
     1
 72
     1
  1
.136
  7
SLDTEXTSTYLE0
  0
INSERT
  5
3C8
330
3C0
100
AcDbEntity
  8
0
  6
SLD-SOLID
 62
     7
100
AcDbBlockReference
  2
SW_SYMBOL_HOLE_DEPTH
 10
1.6646395177
 20
5.5517566844
 30
0.0
 41
0.0040555664
 42
0.0040555664
 43
0.0040555664
  0
MTEXT
  5
3C9
330
3C0
100
AcDbEntity
  8
0
  6
SLD-SOLID
 62
     7
100
AcDbMText
 10
1.8901082713
 20
5.6974658898
 30
0.0
 40
0.125
 41
0.0
 71
     1
 72
     1
  1
.422
  7
SLDTEXTSTYLE0
  0
MTEXT
  5
3CA
330
3C0
100
AcDbEntity
  8
0
  6
SLD-SOLID
 62
     7
100
AcDbMText
 10
0.9431247427
 20
5.4971186775
 30
0.0
 40
0.125
 41
0.0
 71
     1
 72
     1
  1
8-32 UNC
  7
SLDTEXTSTYLE0
  0
INSERT
  5
3CB
330
3C0
100
AcDbEntity
  8
0
  6
SLD-SOLID
 62
     7
100
AcDbBlockReference
  2
SW_SYMBOL_HOLE_DEPTH
 10
1.7820136252
 20
5.3514094721
 30
0.0
 41
0.0040555664
 42
0.0040555664
 43
0.0040555664
  0
MTEXT
  5
3CC
330
3C0
100
AcDbEntity
  8
0
  6
SLD-SOLID
 62
     7
100
AcDbMText
 10
2.0074824154
 20
5.4971186775
 30
0.0
 40
0.125
 41
0.0
 71
     1
 72
     1
  1
.328
  7
SLDTEXTSTYLE0
  0
ENDBLK
  5
3C2
330
3C0
100
AcDbEntity
  8
0
100
AcDbBlockEnd
  0
BLOCK
  5
3CF
330
3CE
100
AcDbEntity
  8
0
100
AcDbBlockBegin
  2
SW_CENTERMARKSYMBOL_9
 70
     0
 10
0.0
 20
0.0
 30
0.0
  3
SW_CENTERMARKSYMBOL_9
  1

  0
LINE
  5
3D1
330
3CE
100
AcDbEntity
  8
0
  6
SLD-SOLID
 62
     0
100
AcDbLine
 10
0.0
 20
0.0
 30
0.0
 11
0.0
 21
0.1
 31
0.0
  0
LINE
  5
3D2
330
3CE
100
AcDbEntity
  8
0
  6
SLD-SOLID
 62
     0
100
AcDbLine
 10
0.0
 20
0.0
 30
0.0
 11
-0.1
 21
0.0
 31
0.0
  0
LINE
  5
3D3
330
3CE
100
AcDbEntity
  8
0
  6
SLD-SOLID
 62
     0
100
AcDbLine
 10
0.0
 20
0.0
 30
0.0
 11
0.0
 21
-0.1
 31
0.0
  0
LINE
  5
3D4
330
3CE
100
AcDbEntity
  8
0
  6
SLD-SOLID
 62
     0
100
AcDbLine
 10
0.0
 20
0.0
 30
0.0
 11
0.1
 21
0.0
 31
0.0
  0
LINE
  5
3D5
330
3CE
100
AcDbEntity
  8
0
  6
SLD-SOLID
 62
     0
100
AcDbLine
 10
0.0
 20
0.2
 30
0.0
 11
0.0
 21
0.3637795276
 31
0.0
  0
LINE
  5
3D6
330
3CE
100
AcDbEntity
  8
0
  6
SLD-SOLID
 62
     0
100
AcDbLine
 10
-0.2
 20
0.0
 30
0.0
 11
-0.3637795276
 21
0.0
 31
0.0
  0
LINE
  5
3D7
330
3CE
100
AcDbEntity
  8
0
  6
SLD-SOLID
 62
     0
100
AcDbLine
 10
0.0
 20
-0.2
 30
0.0
 11
0.0
 21
-0.3637795276
 31
0.0
  0
LINE
  5
3D8
330
3CE
100
AcDbEntity
  8
0
  6
SLD-SOLID
 62
     0
100
AcDbLine
 10
0.2
 20
0.0
 30
0.0
 11
0.3637795276
 21
0.0
 31
0.0
  0
ENDBLK
  5
3D0
330
3CE
100
AcDbEntity
  8
0
100
AcDbBlockEnd
  0
BLOCK
  5
3DC
330
3DB
100
AcDbEntity
  8
0
100
AcDbBlockBegin
  2
SW_DATUMTAG_3
 70
     0
 10
0.0
 20
0.0
 30
0.0
  3
SW_DATUMTAG_3
  1

  0
LINE
  5
3DE
330
3DB
100
AcDbEntity
  8
0
  6
SLD-SOLID
 62
     0
100
AcDbLine
 10
0.0677083337
 20
0.5217358888
 30
0.0
 11
0.0677083337
 21
0.2242187392
 31
0.0
  0
LINE
  5
3DF
330
3DB
100
AcDbEntity
  8
0
  6
SLD-SOLID
 62
     0
100
AcDbLine
 10
0.1927083337
 20
-0.0257812608
 30
0.0
 11
-0.0572916663
 21
-0.0257812608
 31
0.0
  0
LINE
  5
3E0
330
3DB
100
AcDbEntity
  8
0
  6
SLD-SOLID
 62
     0
100
AcDbLine
 10
-0.0572916663
 20
-0.0257812608
 30
0.0
 11
-0.0572916663
 21
0.2242187392
 31
0.0
  0
LINE
  5
3E1
330
3DB
100
AcDbEntity
  8
0
  6
SLD-SOLID
 62
     0
100
AcDbLine
 10
-0.0572916663
 20
0.2242187392
 30
0.0
 11
0.1927083337
 21
0.2242187392
 31
0.0
  0
LINE
  5
3E2
330
3DB
100
AcDbEntity
  8
0
  6
SLD-SOLID
 62
     0
100
AcDbLine
 10
0.1927083337
 20
0.2242187392
 30
0.0
 11
0.1927083337
 21
-0.0257812608
 31
0.0
  0
MTEXT
  5
3E3
330
3DB
100
AcDbEntity
  8
0
  6
CONTINUOUS
 62
     0
100
AcDbMText
 10
0.0
 20
0.1611334675
 30
0.0
 40
0.125
 41
0.0
 71
     1
 72
     1
  1
C
  7
SLDTEXTSTYLE0
  0
SOLID
  5
3E4
330
3DB
100
AcDbEntity
  8
0
  6
SLD-SOLID
 62
     0
100
AcDbTrace
 10
0.1302083337
 20
0.5217358888
 30
0.0
 11
0.0052083337
 21
0.5217358888
 31
0.0
 12
0.0677083337
 22
0.3967358888
 32
0.0
 13
0.0677083337
 23
0.3967358888
 33
0.0
  0
ENDBLK
  5
3DD
330
3DB
100
AcDbEntity
  8
0
100
AcDbBlockEnd
  0
BLOCK
  5
472
330
3EA
100
AcDbEntity
  8
0
100
AcDbBlockBegin
  2
*U54
 70
     1
 10
0.0
 20
0.0
 30
0.0
  3
*U54
  1

  0
SOLID
  5
3EB
330
3EA
100
AcDbEntity
  8
0
  6
CONTINUOUS
 62
     0
100
AcDbTrace
 10
0.0
 20
0.0
 30
0.0
 11
0.0
 21
0.0625
 31
0.0
 12
0.0121931451
 22
0.0
 32
0.0
 13
0.0121931451
 23
0.0
 33
0.0
  0
SOLID
  5
3EC
330
3EA
100
AcDbEntity
  8
0
  6
CONTINUOUS
 62
     0
100
AcDbTrace
 10
0.0121931451
 20
0.0
 30
0.0
 11
0.0
 21
0.0625
 31
0.0
 12
0.0121931451
 22
0.06129908
 32
0.0
 13
0.0121931451
 23
0.06129908
 33
0.0
  0
SOLID
  5
3ED
330
3EA
100
AcDbEntity
  8
0
  6
CONTINUOUS
 62
     0
100
AcDbTrace
 10
0.0121931451
 20
0.0
 30
0.0
 11
0.0121931451
 21
0.06129908
 31
0.0
 12
0.0239177145
 22
0.0
 32
0.0
 13
0.0239177145
 23
0.0
 33
0.0
  0
SOLID
  5
3EE
330
3EA
100
AcDbEntity
  8
0
  6
CONTINUOUS
 62
     0
100
AcDbTrace
 10
0.0239177145
 20
0.0
 30
0.0
 11
0.0121931451
 21
0.06129908
 31
0.0
 12
0.0239177145
 22
0.0577424708
 32
0.0
 13
0.0239177145
 23
0.0577424708
 33
0.0
  0
SOLID
  5
3EF
330
3EA
100
AcDbEntity
  8
0
  6
CONTINUOUS
 62
     0
100
AcDbTrace
 10
0.0239177145
 20
0.0
 30
0.0
 11
0.0239177145
 21
0.0577424708
 31
0.0
 12
0.0347231396
 22
0.0
 32
0.0
 13
0.0347231396
 23
0.0
 33
0.0
  0
SOLID
  5
3F0
330
3EA
100
AcDbEntity
  8
0
  6
CONTINUOUS
 62
     0
100
AcDbTrace
 10
0.0347231396
 20
0.0
 30
0.0
 11
0.0239177145
 21
0.0577424708
 31
0.0
 12
0.0347231396
 22
0.0519668508
 32
0.0
 13
0.0347231396
 23
0.0519668508
 33
0.0
  0
SOLID
  5
3F1
330
3EA
100
AcDbEntity
  8
0
  6
CONTINUOUS
 62
     0
100
AcDbTrace
 10
0.0347231396
 20
0.0
 30
0.0
 11
0.0347231396
 21
0.0519668508
 31
0.0
 12
0.0441941738
 22
0.0
 32
0.0
 13
0.0441941738
 23
0.0
 33
0.0
  0
SOLID
  5
3F2
330
3EA
100
AcDbEntity
  8
0
  6
CONTINUOUS
 62
     0
100
AcDbTrace
 10
0.0441941738
 20
0.0
 30
0.0
 11
0.0347231396
 21
0.0519668508
 31
0.0
 12
0.0441941738
 22
0.0441941738
 32
0.0
 13
0.0441941738
 23
0.0441941738
 33
0.0
  0
SOLID
  5
3F3
330
3EA
100
AcDbEntity
  8
0
  6
CONTINUOUS
 62
     0
100
AcDbTrace
 10
0.0441941738
 20
0.0
 30
0.0
 11
0.0441941738
 21
0.0441941738
 31
0.0
 12
0.0519668508
 22
0.0
 32
0.0
 13
0.0519668508
 23
0.0
 33
0.0
  0
SOLID
  5
3F4
330
3EA
100
AcDbEntity
  8
0
  6
CONTINUOUS
 62
     0
100
AcDbTrace
 10
0.0519668508
 20
0.0
 30
0.0
 11
0.0441941738
 21
0.0441941738
 31
0.0
 12
0.0519668508
 22
0.0347231396
 32
0.0
 13
0.0519668508
 23
0.0347231396
 33
0.0
  0
SOLID
  5
3F5
330
3EA
100
AcDbEntity
  8
0
  6
CONTINUOUS
 62
     0
100
AcDbTrace
 10
0.0519668508
 20
0.0
 30
0.0
 11
0.0519668508
 21
0.0347231396
 31
0.0
 12
0.0577424708
 22
0.0
 32
0.0
 13
0.0577424708
 23
0.0
 33
0.0
  0
SOLID
  5
3F6
330
3EA
100
AcDbEntity
  8
0
  6
CONTINUOUS
 62
     0
100
AcDbTrace
 10
0.0577424708
 20
0.0
 30
0.0
 11
0.0519668508
 21
0.0347231396
 31
0.0
 12
0.0577424708
 22
0.0239177145
 32
0.0
 13
0.0577424708
 23
0.0239177145
 33
0.0
  0
SOLID
  5
3F7
330
3EA
100
AcDbEntity
  8
0
  6
CONTINUOUS
 62
     0
100
AcDbTrace
 10
0.0577424708
 20
0.0
 30
0.0
 11
0.0577424708
 21
0.0239177145
 31
0.0
 12
0.06129908
 22
0.0
 32
0.0
 13
0.06129908
 23
0.0
 33
0.0
  0
SOLID
  5
3F8
330
3EA
100
AcDbEntity
  8
0
  6
CONTINUOUS
 62
     0
100
AcDbTrace
 10
0.06129908
 20
0.0
 30
0.0
 11
0.0577424708
 21
0.0239177145
 31
0.0
 12
0.06129908
 22
0.0121931451
 32
0.0
 13
0.06129908
 23
0.0121931451
 33
0.0
  0
SOLID
  5
3F9
330
3EA
100
AcDbEntity
  8
0
  6
CONTINUOUS
 62
     0
100
AcDbTrace
 10
0.06129908
 20
0.0
 30
0.0
 11
0.06129908
 21
0.0121931451
 31
0.0
 12
0.0625
 22
0.0
 32
0.0
 13
0.0625
 23
0.0
 33
0.0
  0
ENDBLK
  5
473
330
3EA
100
AcDbEntity
  8
0
100
AcDbBlockEnd
  0
BLOCK
  5
474
330
3FA
100
AcDbEntity
  8
0
100
AcDbBlockBegin
  2
*U55
 70
     1
 10
0.0
 20
0.0
 30
0.0
  3
*U55
  1

  0
SOLID
  5
3FB
330
3FA
100
AcDbEntity
  8
0
  6
CONTINUOUS
 62
     0
100
AcDbTrace
 10
-0.0615504846
 20
-0.0108530111
 30
0.0
 11
-0.0625
 21
0.0
 31
0.0
 12
-0.0615504846
 22
0.0
 32
0.0
 13
-0.0615504846
 23
0.0
 33
0.0
  0
SOLID
  5
3FC
330
3FA
100
AcDbEntity
  8
0
  6
CONTINUOUS
 62
     0
100
AcDbTrace
 10
-0.0615504846
 20
-0.0108530111
 30
0.0
 11
-0.0615504846
 21
0.0
 31
0.0
 12
-0.0587307888
 22
-0.021376259
 32
0.0
 13
-0.0587307888
 23
-0.021376259
 33
0.0
  0
SOLID
  5
3FD
330
3FA
100
AcDbEntity
  8
0
  6
CONTINUOUS
 62
     0
100
AcDbTrace
 10
-0.0587307888
 20
-0.021376259
 30
0.0
 11
-0.0615504846
 21
0.0
 31
0.0
 12
-0.0587307888
 22
0.0
 32
0.0
 13
-0.0587307888
 23
0.0
 33
0.0
  0
SOLID
  5
3FE
330
3FA
100
AcDbEntity
  8
0
  6
CONTINUOUS
 62
     0
100
AcDbTrace
 10
-0.0587307888
 20
-0.021376259
 30
0.0
 11
-0.0587307888
 21
0.0
 31
0.0
 12
-0.0541265877
 22
-0.03125
 32
0.0
 13
-0.0541265877
 23
-0.03125
 33
0.0
  0
SOLID
  5
3FF
330
3FA
100
AcDbEntity
  8
0
  6
CONTINUOUS
 62
     0
100
AcDbTrace
 10
-0.0541265877
 20
-0.03125
 30
0.0
 11
-0.0587307888
 21
0.0
 31
0.0
 12
-0.0541265877
 22
0.0
 32
0.0
 13
-0.0541265877
 23
0.0
 33
0.0
  0
SOLID
  5
400
330
3FA
100
AcDbEntity
  8
0
  6
CONTINUOUS
 62
     0
100
AcDbTrace
 10
-0.0541265877
 20
-0.03125
 30
0.0
 11
-0.0541265877
 21
0.0
 31
0.0
 12
-0.0478777777
 22
-0.0401742256
 32
0.0
 13
-0.0478777777
 23
-0.0401742256
 33
0.0
  0
SOLID
  5
401
330
3FA
100
AcDbEntity
  8
0
  6
CONTINUOUS
 62
     0
100
AcDbTrace
 10
-0.0478777777
 20
-0.0401742256
 30
0.0
 11
-0.0541265877
 21
0.0
 31
0.0
 12
-0.0478777777
 22
0.0
 32
0.0
 13
-0.0478777777
 23
0.0
 33
0.0
  0
SOLID
  5
402
330
3FA
100
AcDbEntity
  8
0
  6
CONTINUOUS
 62
     0
100
AcDbTrace
 10
-0.0478777777
 20
-0.0401742256
 30
0.0
 11
-0.0478777777
 21
0.0
 31
0.0
 12
-0.0401742256
 22
-0.0478777777
 32
0.0
 13
-0.0401742256
 23
-0.0478777777
 33
0.0
  0
SOLID
  5
403
330
3FA
100
AcDbEntity
  8
0
  6
CONTINUOUS
 62
     0
100
AcDbTrace
 10
-0.0401742256
 20
-0.0478777777
 30
0.0
 11
-0.0478777777
 21
0.0
 31
0.0
 12
-0.0401742256
 22
0.0
 32
0.0
 13
-0.0401742256
 23
0.0
 33
0.0
  0
SOLID
  5
404
330
3FA
100
AcDbEntity
  8
0
  6
CONTINUOUS
 62
     0
100
AcDbTrace
 10
-0.0401742256
 20
-0.0478777777
 30
0.0
 11
-0.0401742256
 21
0.0
 31
0.0
 12
-0.03125
 22
-0.0541265877
 32
0.0
 13
-0.03125
 23
-0.0541265877
 33
0.0
  0
SOLID
  5
405
330
3FA
100
AcDbEntity
  8
0
  6
CONTINUOUS
 62
     0
100
AcDbTrace
 10
-0.03125
 20
-0.0541265877
 30
0.0
 11
-0.0401742256
 21
0.0
 31
0.0
 12
-0.03125
 22
0.0
 32
0.0
 13
-0.03125
 23
0.0
 33
0.0
  0
SOLID
  5
406
330
3FA
100
AcDbEntity
  8
0
  6
CONTINUOUS
 62
     0
100
AcDbTrace
 10
-0.03125
 20
-0.0541265877
 30
0.0
 11
-0.03125
 21
0.0
 31
0.0
 12
-0.021376259
 22
-0.0587307888
 32
0.0
 13
-0.021376259
 23
-0.0587307888
 33
0.0
  0
SOLID
  5
407
330
3FA
100
AcDbEntity
  8
0
  6
CONTINUOUS
 62
     0
100
AcDbTrace
 10
-0.021376259
 20
-0.0587307888
 30
0.0
 11
-0.03125
 21
0.0
 31
0.0
 12
-0.021376259
 22
0.0
 32
0.0
 13
-0.021376259
 23
0.0
 33
0.0
  0
SOLID
  5
408
330
3FA
100
AcDbEntity
  8
0
  6
CONTINUOUS
 62
     0
100
AcDbTrace
 10
-0.021376259
 20
-0.0587307888
 30
0.0
 11
-0.021376259
 21
0.0
 31
0.0
 12
-0.0108530111
 22
-0.0615504846
 32
0.0
 13
-0.0108530111
 23
-0.0615504846
 33
0.0
  0
SOLID
  5
409
330
3FA
100
AcDbEntity
  8
0
  6
CONTINUOUS
 62
     0
100
AcDbTrace
 10
-0.0108530111
 20
-0.0615504846
 30
0.0
 11
-0.021376259
 21
0.0
 31
0.0
 12
-0.0108530111
 22
0.0
 32
0.0
 13
-0.0108530111
 23
0.0
 33
0.0
  0
SOLID
  5
40A
330
3FA
100
AcDbEntity
  8
0
  6
CONTINUOUS
 62
     0
100
AcDbTrace
 10
-0.0108530111
 20
-0.0615504846
 30
0.0
 11
-0.0108530111
 21
0.0
 31
0.0
 12
0.0
 22
-0.0625
 32
0.0
 13
0.0
 23
-0.0625
 33
0.0
  0
SOLID
  5
40B
330
3FA
100
AcDbEntity
  8
0
  6
CONTINUOUS
 62
     0
100
AcDbTrace
 10
0.0
 20
-0.0625
 30
0.0
 11
-0.0108530111
 21
0.0
 31
0.0
 12
0.0
 22
0.0
 32
0.0
 13
0.0
 23
0.0
 33
0.0
  0
ENDBLK
  5
475
330
3FA
100
AcDbEntity
  8
0
100
AcDbBlockEnd
  0
BLOCK
  5
476
330
40C
100
AcDbEntity
  8
0
100
AcDbBlockBegin
  2
*U56
 70
     1
 10
0.0
 20
0.0
 30
0.0
  3
*U56
  1

  0
SOLID
  5
40D
330
40C
100
AcDbEntity
  8
0
  6
CONTINUOUS
 62
     0
100
AcDbTrace
 10
0.0
 20
0.0
 30
0.0
 11
0.0
 21
0.0625
 31
0.0
 12
0.0121931451
 22
0.0
 32
0.0
 13
0.0121931451
 23
0.0
 33
0.0
  0
SOLID
  5
40E
330
40C
100
AcDbEntity
  8
0
  6
CONTINUOUS
 62
     0
100
AcDbTrace
 10
0.0121931451
 20
0.0
 30
0.0
 11
0.0
 21
0.0625
 31
0.0
 12
0.0121931451
 22
0.06129908
 32
0.0
 13
0.0121931451
 23
0.06129908
 33
0.0
  0
SOLID
  5
40F
330
40C
100
AcDbEntity
  8
0
  6
CONTINUOUS
 62
     0
100
AcDbTrace
 10
0.0121931451
 20
0.0
 30
0.0
 11
0.0121931451
 21
0.06129908
 31
0.0
 12
0.0239177145
 22
0.0
 32
0.0
 13
0.0239177145
 23
0.0
 33
0.0
  0
SOLID
  5
410
330
40C
100
AcDbEntity
  8
0
  6
CONTINUOUS
 62
     0
100
AcDbTrace
 10
0.0239177145
 20
0.0
 30
0.0
 11
0.0121931451
 21
0.06129908
 31
0.0
 12
0.0239177145
 22
0.0577424708
 32
0.0
 13
0.0239177145
 23
0.0577424708
 33
0.0
  0
SOLID
  5
411
330
40C
100
AcDbEntity
  8
0
  6
CONTINUOUS
 62
     0
100
AcDbTrace
 10
0.0239177145
 20
0.0
 30
0.0
 11
0.0239177145
 21
0.0577424708
 31
0.0
 12
0.0347231396
 22
0.0
 32
0.0
 13
0.0347231396
 23
0.0
 33
0.0
  0
SOLID
  5
412
330
40C
100
AcDbEntity
  8
0
  6
CONTINUOUS
 62
     0
100
AcDbTrace
 10
0.0347231396
 20
0.0
 30
0.0
 11
0.0239177145
 21
0.0577424708
 31
0.0
 12
0.0347231396
 22
0.0519668508
 32
0.0
 13
0.0347231396
 23
0.0519668508
 33
0.0
  0
SOLID
  5
413
330
40C
100
AcDbEntity
  8
0
  6
CONTINUOUS
 62
     0
100
AcDbTrace
 10
0.0347231396
 20
0.0
 30
0.0
 11
0.0347231396
 21
0.0519668508
 31
0.0
 12
0.0441941738
 22
0.0
 32
0.0
 13
0.0441941738
 23
0.0
 33
0.0
  0
SOLID
  5
414
330
40C
100
AcDbEntity
  8
0
  6
CONTINUOUS
 62
     0
100
AcDbTrace
 10
0.0441941738
 20
0.0
 30
0.0
 11
0.0347231396
 21
0.0519668508
 31
0.0
 12
0.0441941738
 22
0.0441941738
 32
0.0
 13
0.0441941738
 23
0.0441941738
 33
0.0
  0
SOLID
  5
415
330
40C
100
AcDbEntity
  8
0
  6
CONTINUOUS
 62
     0
100
AcDbTrace
 10
0.0441941738
 20
0.0
 30
0.0
 11
0.0441941738
 21
0.0441941738
 31
0.0
 12
0.0519668508
 22
0.0
 32
0.0
 13
0.0519668508
 23
0.0
 33
0.0
  0
SOLID
  5
416
330
40C
100
AcDbEntity
  8
0
  6
CONTINUOUS
 62
     0
100
AcDbTrace
 10
0.0519668508
 20
0.0
 30
0.0
 11
0.0441941738
 21
0.0441941738
 31
0.0
 12
0.0519668508
 22
0.0347231396
 32
0.0
 13
0.0519668508
 23
0.0347231396
 33
0.0
  0
SOLID
  5
417
330
40C
100
AcDbEntity
  8
0
  6
CONTINUOUS
 62
     0
100
AcDbTrace
 10
0.0519668508
 20
0.0
 30
0.0
 11
0.0519668508
 21
0.0347231396
 31
0.0
 12
0.0577424708
 22
0.0
 32
0.0
 13
0.0577424708
 23
0.0
 33
0.0
  0
SOLID
  5
418
330
40C
100
AcDbEntity
  8
0
  6
CONTINUOUS
 62
     0
100
AcDbTrace
 10
0.0577424708
 20
0.0
 30
0.0
 11
0.0519668508
 21
0.0347231396
 31
0.0
 12
0.0577424708
 22
0.0239177145
 32
0.0
 13
0.0577424708
 23
0.0239177145
 33
0.0
  0
SOLID
  5
419
330
40C
100
AcDbEntity
  8
0
  6
CONTINUOUS
 62
     0
100
AcDbTrace
 10
0.0577424708
 20
0.0
 30
0.0
 11
0.0577424708
 21
0.0239177145
 31
0.0
 12
0.06129908
 22
0.0
 32
0.0
 13
0.06129908
 23
0.0
 33
0.0
  0
SOLID
  5
41A
330
40C
100
AcDbEntity
  8
0
  6
CONTINUOUS
 62
     0
100
AcDbTrace
 10
0.06129908
 20
0.0
 30
0.0
 11
0.0577424708
 21
0.0239177145
 31
0.0
 12
0.06129908
 22
0.0121931451
 32
0.0
 13
0.06129908
 23
0.0121931451
 33
0.0
  0
SOLID
  5
41B
330
40C
100
AcDbEntity
  8
0
  6
CONTINUOUS
 62
     0
100
AcDbTrace
 10
0.06129908
 20
0.0
 30
0.0
 11
0.06129908
 21
0.0121931451
 31
0.0
 12
0.0625
 22
0.0
 32
0.0
 13
0.0625
 23
0.0
 33
0.0
  0
ENDBLK
  5
477
330
40C
100
AcDbEntity
  8
0
100
AcDbBlockEnd
  0
BLOCK
  5
478
330
41C
100
AcDbEntity
  8
0
100
AcDbBlockBegin
  2
*U57
 70
     1
 10
0.0
 20
0.0
 30
0.0
  3
*U57
  1

  0
SOLID
  5
41D
330
41C
100
AcDbEntity
  8
0
  6
CONTINUOUS
 62
     0
100
AcDbTrace
 10
-0.0615504846
 20
-0.0108530111
 30
0.0
 11
-0.0625
 21
0.0
 31
0.0
 12
-0.0615504846
 22
0.0
 32
0.0
 13
-0.0615504846
 23
0.0
 33
0.0
  0
SOLID
  5
41E
330
41C
100
AcDbEntity
  8
0
  6
CONTINUOUS
 62
     0
100
AcDbTrace
 10
-0.0615504846
 20
-0.0108530111
 30
0.0
 11
-0.0615504846
 21
0.0
 31
0.0
 12
-0.0587307888
 22
-0.021376259
 32
0.0
 13
-0.0587307888
 23
-0.021376259
 33
0.0
  0
SOLID
  5
41F
330
41C
100
AcDbEntity
  8
0
  6
CONTINUOUS
 62
     0
100
AcDbTrace
 10
-0.0587307888
 20
-0.021376259
 30
0.0
 11
-0.0615504846
 21
0.0
 31
0.0
 12
-0.0587307888
 22
0.0
 32
0.0
 13
-0.0587307888
 23
0.0
 33
0.0
  0
SOLID
  5
420
330
41C
100
AcDbEntity
  8
0
  6
CONTINUOUS
 62
     0
100
AcDbTrace
 10
-0.0587307888
 20
-0.021376259
 30
0.0
 11
-0.0587307888
 21
0.0
 31
0.0
 12
-0.0541265877
 22
-0.03125
 32
0.0
 13
-0.0541265877
 23
-0.03125
 33
0.0
  0
SOLID
  5
421
330
41C
100
AcDbEntity
  8
0
  6
CONTINUOUS
 62
     0
100
AcDbTrace
 10
-0.0541265877
 20
-0.03125
 30
0.0
 11
-0.0587307888
 21
0.0
 31
0.0
 12
-0.0541265877
 22
0.0
 32
0.0
 13
-0.0541265877
 23
0.0
 33
0.0
  0
SOLID
  5
422
330
41C
100
AcDbEntity
  8
0
  6
CONTINUOUS
 62
     0
100
AcDbTrace
 10
-0.0541265877
 20
-0.03125
 30
0.0
 11
-0.0541265877
 21
0.0
 31
0.0
 12
-0.0478777777
 22
-0.0401742256
 32
0.0
 13
-0.0478777777
 23
-0.0401742256
 33
0.0
  0
SOLID
  5
423
330
41C
100
AcDbEntity
  8
0
  6
CONTINUOUS
 62
     0
100
AcDbTrace
 10
-0.0478777777
 20
-0.0401742256
 30
0.0
 11
-0.0541265877
 21
0.0
 31
0.0
 12
-0.0478777777
 22
0.0
 32
0.0
 13
-0.0478777777
 23
0.0
 33
0.0
  0
SOLID
  5
424
330
41C
100
AcDbEntity
  8
0
  6
CONTINUOUS
 62
     0
100
AcDbTrace
 10
-0.0478777777
 20
-0.0401742256
 30
0.0
 11
-0.0478777777
 21
0.0
 31
0.0
 12
-0.0401742256
 22
-0.0478777777
 32
0.0
 13
-0.0401742256
 23
-0.0478777777
 33
0.0
  0
SOLID
  5
425
330
41C
100
AcDbEntity
  8
0
  6
CONTINUOUS
 62
     0
100
AcDbTrace
 10
-0.0401742256
 20
-0.0478777777
 30
0.0
 11
-0.0478777777
 21
0.0
 31
0.0
 12
-0.0401742256
 22
0.0
 32
0.0
 13
-0.0401742256
 23
0.0
 33
0.0
  0
SOLID
  5
426
330
41C
100
AcDbEntity
  8
0
  6
CONTINUOUS
 62
     0
100
AcDbTrace
 10
-0.0401742256
 20
-0.0478777777
 30
0.0
 11
-0.0401742256
 21
0.0
 31
0.0
 12
-0.03125
 22
-0.0541265877
 32
0.0
 13
-0.03125
 23
-0.0541265877
 33
0.0
  0
SOLID
  5
427
330
41C
100
AcDbEntity
  8
0
  6
CONTINUOUS
 62
     0
100
AcDbTrace
 10
-0.03125
 20
-0.0541265877
 30
0.0
 11
-0.0401742256
 21
0.0
 31
0.0
 12
-0.03125
 22
0.0
 32
0.0
 13
-0.03125
 23
0.0
 33
0.0
  0
SOLID
  5
428
330
41C
100
AcDbEntity
  8
0
  6
CONTINUOUS
 62
     0
100
AcDbTrace
 10
-0.03125
 20
-0.0541265877
 30
0.0
 11
-0.03125
 21
0.0
 31
0.0
 12
-0.021376259
 22
-0.0587307888
 32
0.0
 13
-0.021376259
 23
-0.0587307888
 33
0.0
  0
SOLID
  5
429
330
41C
100
AcDbEntity
  8
0
  6
CONTINUOUS
 62
     0
100
AcDbTrace
 10
-0.021376259
 20
-0.0587307888
 30
0.0
 11
-0.03125
 21
0.0
 31
0.0
 12
-0.021376259
 22
0.0
 32
0.0
 13
-0.021376259
 23
0.0
 33
0.0
  0
SOLID
  5
42A
330
41C
100
AcDbEntity
  8
0
  6
CONTINUOUS
 62
     0
100
AcDbTrace
 10
-0.021376259
 20
-0.0587307888
 30
0.0
 11
-0.021376259
 21
0.0
 31
0.0
 12
-0.0108530111
 22
-0.0615504846
 32
0.0
 13
-0.0108530111
 23
-0.0615504846
 33
0.0
  0
SOLID
  5
42B
330
41C
100
AcDbEntity
  8
0
  6
CONTINUOUS
 62
     0
100
AcDbTrace
 10
-0.0108530111
 20
-0.0615504846
 30
0.0
 11
-0.021376259
 21
0.0
 31
0.0
 12
-0.0108530111
 22
0.0
 32
0.0
 13
-0.0108530111
 23
0.0
 33
0.0
  0
SOLID
  5
42C
330
41C
100
AcDbEntity
  8
0
  6
CONTINUOUS
 62
     0
100
AcDbTrace
 10
-0.0108530111
 20
-0.0615504846
 30
0.0
 11
-0.0108530111
 21
0.0
 31
0.0
 12
0.0
 22
-0.0625
 32
0.0
 13
0.0
 23
-0.0625
 33
0.0
  0
SOLID
  5
42D
330
41C
100
AcDbEntity
  8
0
  6
CONTINUOUS
 62
     0
100
AcDbTrace
 10
0.0
 20
-0.0625
 30
0.0
 11
-0.0108530111
 21
0.0
 31
0.0
 12
0.0
 22
0.0
 32
0.0
 13
0.0
 23
0.0
 33
0.0
  0
ENDBLK
  5
479
330
41C
100
AcDbEntity
  8
0
100
AcDbBlockEnd
  0
BLOCK
  5
47A
330
42E
100
AcDbEntity
  8
0
100
AcDbBlockBegin
  2
*U58
 70
     1
 10
0.0
 20
0.0
 30
0.0
  3
*U58
  1

  0
SOLID
  5
42F
330
42E
100
AcDbEntity
  8
0
  6
CONTINUOUS
 62
     0
100
AcDbTrace
 10
0.0
 20
0.0
 30
0.0
 11
0.0
 21
0.0625
 31
0.0
 12
0.0121931451
 22
0.0
 32
0.0
 13
0.0121931451
 23
0.0
 33
0.0
  0
SOLID
  5
430
330
42E
100
AcDbEntity
  8
0
  6
CONTINUOUS
 62
     0
100
AcDbTrace
 10
0.0121931451
 20
0.0
 30
0.0
 11
0.0
 21
0.0625
 31
0.0
 12
0.0121931451
 22
0.06129908
 32
0.0
 13
0.0121931451
 23
0.06129908
 33
0.0
  0
SOLID
  5
431
330
42E
100
AcDbEntity
  8
0
  6
CONTINUOUS
 62
     0
100
AcDbTrace
 10
0.0121931451
 20
0.0
 30
0.0
 11
0.0121931451
 21
0.06129908
 31
0.0
 12
0.0239177145
 22
0.0
 32
0.0
 13
0.0239177145
 23
0.0
 33
0.0
  0
SOLID
  5
432
330
42E
100
AcDbEntity
  8
0
  6
CONTINUOUS
 62
     0
100
AcDbTrace
 10
0.0239177145
 20
0.0
 30
0.0
 11
0.0121931451
 21
0.06129908
 31
0.0
 12
0.0239177145
 22
0.0577424708
 32
0.0
 13
0.0239177145
 23
0.0577424708
 33
0.0
  0
SOLID
  5
433
330
42E
100
AcDbEntity
  8
0
  6
CONTINUOUS
 62
     0
100
AcDbTrace
 10
0.0239177145
 20
0.0
 30
0.0
 11
0.0239177145
 21
0.0577424708
 31
0.0
 12
0.0347231396
 22
0.0
 32
0.0
 13
0.0347231396
 23
0.0
 33
0.0
  0
SOLID
  5
434
330
42E
100
AcDbEntity
  8
0
  6
CONTINUOUS
 62
     0
100
AcDbTrace
 10
0.0347231396
 20
0.0
 30
0.0
 11
0.0239177145
 21
0.0577424708
 31
0.0
 12
0.0347231396
 22
0.0519668508
 32
0.0
 13
0.0347231396
 23
0.0519668508
 33
0.0
  0
SOLID
  5
435
330
42E
100
AcDbEntity
  8
0
  6
CONTINUOUS
 62
     0
100
AcDbTrace
 10
0.0347231396
 20
0.0
 30
0.0
 11
0.0347231396
 21
0.0519668508
 31
0.0
 12
0.0441941738
 22
0.0
 32
0.0
 13
0.0441941738
 23
0.0
 33
0.0
  0
SOLID
  5
436
330
42E
100
AcDbEntity
  8
0
  6
CONTINUOUS
 62
     0
100
AcDbTrace
 10
0.0441941738
 20
0.0
 30
0.0
 11
0.0347231396
 21
0.0519668508
 31
0.0
 12
0.0441941738
 22
0.0441941738
 32
0.0
 13
0.0441941738
 23
0.0441941738
 33
0.0
  0
SOLID
  5
437
330
42E
100
AcDbEntity
  8
0
  6
CONTINUOUS
 62
     0
100
AcDbTrace
 10
0.0441941738
 20
0.0
 30
0.0
 11
0.0441941738
 21
0.0441941738
 31
0.0
 12
0.0519668508
 22
0.0
 32
0.0
 13
0.0519668508
 23
0.0
 33
0.0
  0
SOLID
  5
438
330
42E
100
AcDbEntity
  8
0
  6
CONTINUOUS
 62
     0
100
AcDbTrace
 10
0.0519668508
 20
0.0
 30
0.0
 11
0.0441941738
 21
0.0441941738
 31
0.0
 12
0.0519668508
 22
0.0347231396
 32
0.0
 13
0.0519668508
 23
0.0347231396
 33
0.0
  0
SOLID
  5
439
330
42E
100
AcDbEntity
  8
0
  6
CONTINUOUS
 62
     0
100
AcDbTrace
 10
0.0519668508
 20
0.0
 30
0.0
 11
0.0519668508
 21
0.0347231396
 31
0.0
 12
0.0577424708
 22
0.0
 32
0.0
 13
0.0577424708
 23
0.0
 33
0.0
  0
SOLID
  5
43A
330
42E
100
AcDbEntity
  8
0
  6
CONTINUOUS
 62
     0
100
AcDbTrace
 10
0.0577424708
 20
0.0
 30
0.0
 11
0.0519668508
 21
0.0347231396
 31
0.0
 12
0.0577424708
 22
0.0239177145
 32
0.0
 13
0.0577424708
 23
0.0239177145
 33
0.0
  0
SOLID
  5
43B
330
42E
100
AcDbEntity
  8
0
  6
CONTINUOUS
 62
     0
100
AcDbTrace
 10
0.0577424708
 20
0.0
 30
0.0
 11
0.0577424708
 21
0.0239177145
 31
0.0
 12
0.06129908
 22
0.0
 32
0.0
 13
0.06129908
 23
0.0
 33
0.0
  0
SOLID
  5
43C
330
42E
100
AcDbEntity
  8
0
  6
CONTINUOUS
 62
     0
100
AcDbTrace
 10
0.06129908
 20
0.0
 30
0.0
 11
0.0577424708
 21
0.0239177145
 31
0.0
 12
0.06129908
 22
0.0121931451
 32
0.0
 13
0.06129908
 23
0.0121931451
 33
0.0
  0
SOLID
  5
43D
330
42E
100
AcDbEntity
  8
0
  6
CONTINUOUS
 62
     0
100
AcDbTrace
 10
0.06129908
 20
0.0
 30
0.0
 11
0.06129908
 21
0.0121931451
 31
0.0
 12
0.0625
 22
0.0
 32
0.0
 13
0.0625
 23
0.0
 33
0.0
  0
ENDBLK
  5
47B
330
42E
100
AcDbEntity
  8
0
100
AcDbBlockEnd
  0
BLOCK
  5
47C
330
43E
100
AcDbEntity
  8
0
100
AcDbBlockBegin
  2
*U59
 70
     1
 10
0.0
 20
0.0
 30
0.0
  3
*U59
  1

  0
SOLID
  5
43F
330
43E
100
AcDbEntity
  8
0
  6
CONTINUOUS
 62
     0
100
AcDbTrace
 10
-0.0615504846
 20
-0.0108530111
 30
0.0
 11
-0.0625
 21
0.0
 31
0.0
 12
-0.0615504846
 22
0.0
 32
0.0
 13
-0.0615504846
 23
0.0
 33
0.0
  0
SOLID
  5
440
330
43E
100
AcDbEntity
  8
0
  6
CONTINUOUS
 62
     0
100
AcDbTrace
 10
-0.0615504846
 20
-0.0108530111
 30
0.0
 11
-0.0615504846
 21
0.0
 31
0.0
 12
-0.0587307888
 22
-0.021376259
 32
0.0
 13
-0.0587307888
 23
-0.021376259
 33
0.0
  0
SOLID
  5
441
330
43E
100
AcDbEntity
  8
0
  6
CONTINUOUS
 62
     0
100
AcDbTrace
 10
-0.0587307888
 20
-0.021376259
 30
0.0
 11
-0.0615504846
 21
0.0
 31
0.0
 12
-0.0587307888
 22
0.0
 32
0.0
 13
-0.0587307888
 23
0.0
 33
0.0
  0
SOLID
  5
442
330
43E
100
AcDbEntity
  8
0
  6
CONTINUOUS
 62
     0
100
AcDbTrace
 10
-0.0587307888
 20
-0.021376259
 30
0.0
 11
-0.0587307888
 21
0.0
 31
0.0
 12
-0.0541265877
 22
-0.03125
 32
0.0
 13
-0.0541265877
 23
-0.03125
 33
0.0
  0
SOLID
  5
443
330
43E
100
AcDbEntity
  8
0
  6
CONTINUOUS
 62
     0
100
AcDbTrace
 10
-0.0541265877
 20
-0.03125
 30
0.0
 11
-0.0587307888
 21
0.0
 31
0.0
 12
-0.0541265877
 22
0.0
 32
0.0
 13
-0.0541265877
 23
0.0
 33
0.0
  0
SOLID
  5
444
330
43E
100
AcDbEntity
  8
0
  6
CONTINUOUS
 62
     0
100
AcDbTrace
 10
-0.0541265877
 20
-0.03125
 30
0.0
 11
-0.0541265877
 21
0.0
 31
0.0
 12
-0.0478777777
 22
-0.0401742256
 32
0.0
 13
-0.0478777777
 23
-0.0401742256
 33
0.0
  0
SOLID
  5
445
330
43E
100
AcDbEntity
  8
0
  6
CONTINUOUS
 62
     0
100
AcDbTrace
 10
-0.0478777777
 20
-0.0401742256
 30
0.0
 11
-0.0541265877
 21
0.0
 31
0.0
 12
-0.0478777777
 22
0.0
 32
0.0
 13
-0.0478777777
 23
0.0
 33
0.0
  0
SOLID
  5
446
330
43E
100
AcDbEntity
  8
0
  6
CONTINUOUS
 62
     0
100
AcDbTrace
 10
-0.0478777777
 20
-0.0401742256
 30
0.0
 11
-0.0478777777
 21
0.0
 31
0.0
 12
-0.0401742256
 22
-0.0478777777
 32
0.0
 13
-0.0401742256
 23
-0.0478777777
 33
0.0
  0
SOLID
  5
447
330
43E
100
AcDbEntity
  8
0
  6
CONTINUOUS
 62
     0
100
AcDbTrace
 10
-0.0401742256
 20
-0.0478777777
 30
0.0
 11
-0.0478777777
 21
0.0
 31
0.0
 12
-0.0401742256
 22
0.0
 32
0.0
 13
-0.0401742256
 23
0.0
 33
0.0
  0
SOLID
  5
448
330
43E
100
AcDbEntity
  8
0
  6
CONTINUOUS
 62
     0
100
AcDbTrace
 10
-0.0401742256
 20
-0.0478777777
 30
0.0
 11
-0.0401742256
 21
0.0
 31
0.0
 12
-0.03125
 22
-0.0541265877
 32
0.0
 13
-0.03125
 23
-0.0541265877
 33
0.0
  0
SOLID
  5
449
330
43E
100
AcDbEntity
  8
0
  6
CONTINUOUS
 62
     0
100
AcDbTrace
 10
-0.03125
 20
-0.0541265877
 30
0.0
 11
-0.0401742256
 21
0.0
 31
0.0
 12
-0.03125
 22
0.0
 32
0.0
 13
-0.03125
 23
0.0
 33
0.0
  0
SOLID
  5
44A
330
43E
100
AcDbEntity
  8
0
  6
CONTINUOUS
 62
     0
100
AcDbTrace
 10
-0.03125
 20
-0.0541265877
 30
0.0
 11
-0.03125
 21
0.0
 31
0.0
 12
-0.021376259
 22
-0.0587307888
 32
0.0
 13
-0.021376259
 23
-0.0587307888
 33
0.0
  0
SOLID
  5
44B
330
43E
100
AcDbEntity
  8
0
  6
CONTINUOUS
 62
     0
100
AcDbTrace
 10
-0.021376259
 20
-0.0587307888
 30
0.0
 11
-0.03125
 21
0.0
 31
0.0
 12
-0.021376259
 22
0.0
 32
0.0
 13
-0.021376259
 23
0.0
 33
0.0
  0
SOLID
  5
44C
330
43E
100
AcDbEntity
  8
0
  6
CONTINUOUS
 62
     0
100
AcDbTrace
 10
-0.021376259
 20
-0.0587307888
 30
0.0
 11
-0.021376259
 21
0.0
 31
0.0
 12
-0.0108530111
 22
-0.0615504846
 32
0.0
 13
-0.0108530111
 23
-0.0615504846
 33
0.0
  0
SOLID
  5
44D
330
43E
100
AcDbEntity
  8
0
  6
CONTINUOUS
 62
     0
100
AcDbTrace
 10
-0.0108530111
 20
-0.0615504846
 30
0.0
 11
-0.021376259
 21
0.0
 31
0.0
 12
-0.0108530111
 22
0.0
 32
0.0
 13
-0.0108530111
 23
0.0
 33
0.0
  0
SOLID
  5
44E
330
43E
100
AcDbEntity
  8
0
  6
CONTINUOUS
 62
     0
100
AcDbTrace
 10
-0.0108530111
 20
-0.0615504846
 30
0.0
 11
-0.0108530111
 21
0.0
 31
0.0
 12
0.0
 22
-0.0625
 32
0.0
 13
0.0
 23
-0.0625
 33
0.0
  0
SOLID
  5
44F
330
43E
100
AcDbEntity
  8
0
  6
CONTINUOUS
 62
     0
100
AcDbTrace
 10
0.0
 20
-0.0625
 30
0.0
 11
-0.0108530111
 21
0.0
 31
0.0
 12
0.0
 22
0.0
 32
0.0
 13
0.0
 23
0.0
 33
0.0
  0
ENDBLK
  5
47D
330
43E
100
AcDbEntity
  8
0
100
AcDbBlockEnd
  0
BLOCK
  5
47E
330
450
100
AcDbEntity
  8
0
100
AcDbBlockBegin
  2
*U60
 70
     1
 10
0.0
 20
0.0
 30
0.0
  3
*U60
  1

  0
SOLID
  5
451
330
450
100
AcDbEntity
  8
0
  6
CONTINUOUS
 62
     0
100
AcDbTrace
 10
0.0
 20
0.0
 30
0.0
 11
0.0
 21
0.0625
 31
0.0
 12
0.0121931451
 22
0.0
 32
0.0
 13
0.0121931451
 23
0.0
 33
0.0
  0
SOLID
  5
452
330
450
100
AcDbEntity
  8
0
  6
CONTINUOUS
 62
     0
100
AcDbTrace
 10
0.0121931451
 20
0.0
 30
0.0
 11
0.0
 21
0.0625
 31
0.0
 12
0.0121931451
 22
0.06129908
 32
0.0
 13
0.0121931451
 23
0.06129908
 33
0.0
  0
SOLID
  5
453
330
450
100
AcDbEntity
  8
0
  6
CONTINUOUS
 62
     0
100
AcDbTrace
 10
0.0121931451
 20
0.0
 30
0.0
 11
0.0121931451
 21
0.06129908
 31
0.0
 12
0.0239177145
 22
0.0
 32
0.0
 13
0.0239177145
 23
0.0
 33
0.0
  0
SOLID
  5
454
330
450
100
AcDbEntity
  8
0
  6
CONTINUOUS
 62
     0
100
AcDbTrace
 10
0.0239177145
 20
0.0
 30
0.0
 11
0.0121931451
 21
0.06129908
 31
0.0
 12
0.0239177145
 22
0.0577424708
 32
0.0
 13
0.0239177145
 23
0.0577424708
 33
0.0
  0
SOLID
  5
455
330
450
100
AcDbEntity
  8
0
  6
CONTINUOUS
 62
     0
100
AcDbTrace
 10
0.0239177145
 20
0.0
 30
0.0
 11
0.0239177145
 21
0.0577424708
 31
0.0
 12
0.0347231396
 22
0.0
 32
0.0
 13
0.0347231396
 23
0.0
 33
0.0
  0
SOLID
  5
456
330
450
100
AcDbEntity
  8
0
  6
CONTINUOUS
 62
     0
100
AcDbTrace
 10
0.0347231396
 20
0.0
 30
0.0
 11
0.0239177145
 21
0.0577424708
 31
0.0
 12
0.0347231396
 22
0.0519668508
 32
0.0
 13
0.0347231396
 23
0.0519668508
 33
0.0
  0
SOLID
  5
457
330
450
100
AcDbEntity
  8
0
  6
CONTINUOUS
 62
     0
100
AcDbTrace
 10
0.0347231396
 20
0.0
 30
0.0
 11
0.0347231396
 21
0.0519668508
 31
0.0
 12
0.0441941738
 22
0.0
 32
0.0
 13
0.0441941738
 23
0.0
 33
0.0
  0
SOLID
  5
458
330
450
100
AcDbEntity
  8
0
  6
CONTINUOUS
 62
     0
100
AcDbTrace
 10
0.0441941738
 20
0.0
 30
0.0
 11
0.0347231396
 21
0.0519668508
 31
0.0
 12
0.0441941738
 22
0.0441941738
 32
0.0
 13
0.0441941738
 23
0.0441941738
 33
0.0
  0
SOLID
  5
459
330
450
100
AcDbEntity
  8
0
  6
CONTINUOUS
 62
     0
100
AcDbTrace
 10
0.0441941738
 20
0.0
 30
0.0
 11
0.0441941738
 21
0.0441941738
 31
0.0
 12
0.0519668508
 22
0.0
 32
0.0
 13
0.0519668508
 23
0.0
 33
0.0
  0
SOLID
  5
45A
330
450
100
AcDbEntity
  8
0
  6
CONTINUOUS
 62
     0
100
AcDbTrace
 10
0.0519668508
 20
0.0
 30
0.0
 11
0.0441941738
 21
0.0441941738
 31
0.0
 12
0.0519668508
 22
0.0347231396
 32
0.0
 13
0.0519668508
 23
0.0347231396
 33
0.0
  0
SOLID
  5
45B
330
450
100
AcDbEntity
  8
0
  6
CONTINUOUS
 62
     0
100
AcDbTrace
 10
0.0519668508
 20
0.0
 30
0.0
 11
0.0519668508
 21
0.0347231396
 31
0.0
 12
0.0577424708
 22
0.0
 32
0.0
 13
0.0577424708
 23
0.0
 33
0.0
  0
SOLID
  5
45C
330
450
100
AcDbEntity
  8
0
  6
CONTINUOUS
 62
     0
100
AcDbTrace
 10
0.0577424708
 20
0.0
 30
0.0
 11
0.0519668508
 21
0.0347231396
 31
0.0
 12
0.0577424708
 22
0.0239177145
 32
0.0
 13
0.0577424708
 23
0.0239177145
 33
0.0
  0
SOLID
  5
45D
330
450
100
AcDbEntity
  8
0
  6
CONTINUOUS
 62
     0
100
AcDbTrace
 10
0.0577424708
 20
0.0
 30
0.0
 11
0.0577424708
 21
0.0239177145
 31
0.0
 12
0.06129908
 22
0.0
 32
0.0
 13
0.06129908
 23
0.0
 33
0.0
  0
SOLID
  5
45E
330
450
100
AcDbEntity
  8
0
  6
CONTINUOUS
 62
     0
100
AcDbTrace
 10
0.06129908
 20
0.0
 30
0.0
 11
0.0577424708
 21
0.0239177145
 31
0.0
 12
0.06129908
 22
0.0121931451
 32
0.0
 13
0.06129908
 23
0.0121931451
 33
0.0
  0
SOLID
  5
45F
330
450
100
AcDbEntity
  8
0
  6
CONTINUOUS
 62
     0
100
AcDbTrace
 10
0.06129908
 20
0.0
 30
0.0
 11
0.06129908
 21
0.0121931451
 31
0.0
 12
0.0625
 22
0.0
 32
0.0
 13
0.0625
 23
0.0
 33
0.0
  0
ENDBLK
  5
47F
330
450
100
AcDbEntity
  8
0
100
AcDbBlockEnd
  0
BLOCK
  5
480
330
460
100
AcDbEntity
  8
0
100
AcDbBlockBegin
  2
*U61
 70
     1
 10
0.0
 20
0.0
 30
0.0
  3
*U61
  1

  0
SOLID
  5
461
330
460
100
AcDbEntity
  8
0
  6
CONTINUOUS
 62
     0
100
AcDbTrace
 10
-0.0615504846
 20
-0.0108530111
 30
0.0
 11
-0.0625
 21
0.0
 31
0.0
 12
-0.0615504846
 22
0.0
 32
0.0
 13
-0.0615504846
 23
0.0
 33
0.0
  0
SOLID
  5
462
330
460
100
AcDbEntity
  8
0
  6
CONTINUOUS
 62
     0
100
AcDbTrace
 10
-0.0615504846
 20
-0.0108530111
 30
0.0
 11
-0.0615504846
 21
0.0
 31
0.0
 12
-0.0587307888
 22
-0.021376259
 32
0.0
 13
-0.0587307888
 23
-0.021376259
 33
0.0
  0
SOLID
  5
463
330
460
100
AcDbEntity
  8
0
  6
CONTINUOUS
 62
     0
100
AcDbTrace
 10
-0.0587307888
 20
-0.021376259
 30
0.0
 11
-0.0615504846
 21
0.0
 31
0.0
 12
-0.0587307888
 22
0.0
 32
0.0
 13
-0.0587307888
 23
0.0
 33
0.0
  0
SOLID
  5
464
330
460
100
AcDbEntity
  8
0
  6
CONTINUOUS
 62
     0
100
AcDbTrace
 10
-0.0587307888
 20
-0.021376259
 30
0.0
 11
-0.0587307888
 21
0.0
 31
0.0
 12
-0.0541265877
 22
-0.03125
 32
0.0
 13
-0.0541265877
 23
-0.03125
 33
0.0
  0
SOLID
  5
465
330
460
100
AcDbEntity
  8
0
  6
CONTINUOUS
 62
     0
100
AcDbTrace
 10
-0.0541265877
 20
-0.03125
 30
0.0
 11
-0.0587307888
 21
0.0
 31
0.0
 12
-0.0541265877
 22
0.0
 32
0.0
 13
-0.0541265877
 23
0.0
 33
0.0
  0
SOLID
  5
466
330
460
100
AcDbEntity
  8
0
  6
CONTINUOUS
 62
     0
100
AcDbTrace
 10
-0.0541265877
 20
-0.03125
 30
0.0
 11
-0.0541265877
 21
0.0
 31
0.0
 12
-0.0478777777
 22
-0.0401742256
 32
0.0
 13
-0.0478777777
 23
-0.0401742256
 33
0.0
  0
SOLID
  5
467
330
460
100
AcDbEntity
  8
0
  6
CONTINUOUS
 62
     0
100
AcDbTrace
 10
-0.0478777777
 20
-0.0401742256
 30
0.0
 11
-0.0541265877
 21
0.0
 31
0.0
 12
-0.0478777777
 22
0.0
 32
0.0
 13
-0.0478777777
 23
0.0
 33
0.0
  0
SOLID
  5
468
330
460
100
AcDbEntity
  8
0
  6
CONTINUOUS
 62
     0
100
AcDbTrace
 10
-0.0478777777
 20
-0.0401742256
 30
0.0
 11
-0.0478777777
 21
0.0
 31
0.0
 12
-0.0401742256
 22
-0.0478777777
 32
0.0
 13
-0.0401742256
 23
-0.0478777777
 33
0.0
  0
SOLID
  5
469
330
460
100
AcDbEntity
  8
0
  6
CONTINUOUS
 62
     0
100
AcDbTrace
 10
-0.0401742256
 20
-0.0478777777
 30
0.0
 11
-0.0478777777
 21
0.0
 31
0.0
 12
-0.0401742256
 22
0.0
 32
0.0
 13
-0.0401742256
 23
0.0
 33
0.0
  0
SOLID
  5
46A
330
460
100
AcDbEntity
  8
0
  6
CONTINUOUS
 62
     0
100
AcDbTrace
 10
-0.0401742256
 20
-0.0478777777
 30
0.0
 11
-0.0401742256
 21
0.0
 31
0.0
 12
-0.03125
 22
-0.0541265877
 32
0.0
 13
-0.03125
 23
-0.0541265877
 33
0.0
  0
SOLID
  5
46B
330
460
100
AcDbEntity
  8
0
  6
CONTINUOUS
 62
     0
100
AcDbTrace
 10
-0.03125
 20
-0.0541265877
 30
0.0
 11
-0.0401742256
 21
0.0
 31
0.0
 12
-0.03125
 22
0.0
 32
0.0
 13
-0.03125
 23
0.0
 33
0.0
  0
SOLID
  5
46C
330
460
100
AcDbEntity
  8
0
  6
CONTINUOUS
 62
     0
100
AcDbTrace
 10
-0.03125
 20
-0.0541265877
 30
0.0
 11
-0.03125
 21
0.0
 31
0.0
 12
-0.021376259
 22
-0.0587307888
 32
0.0
 13
-0.021376259
 23
-0.0587307888
 33
0.0
  0
SOLID
  5
46D
330
460
100
AcDbEntity
  8
0
  6
CONTINUOUS
 62
     0
100
AcDbTrace
 10
-0.021376259
 20
-0.0587307888
 30
0.0
 11
-0.03125
 21
0.0
 31
0.0
 12
-0.021376259
 22
0.0
 32
0.0
 13
-0.021376259
 23
0.0
 33
0.0
  0
SOLID
  5
46E
330
460
100
AcDbEntity
  8
0
  6
CONTINUOUS
 62
     0
100
AcDbTrace
 10
-0.021376259
 20
-0.0587307888
 30
0.0
 11
-0.021376259
 21
0.0
 31
0.0
 12
-0.0108530111
 22
-0.0615504846
 32
0.0
 13
-0.0108530111
 23
-0.0615504846
 33
0.0
  0
SOLID
  5
46F
330
460
100
AcDbEntity
  8
0
  6
CONTINUOUS
 62
     0
100
AcDbTrace
 10
-0.0108530111
 20
-0.0615504846
 30
0.0
 11
-0.021376259
 21
0.0
 31
0.0
 12
-0.0108530111
 22
0.0
 32
0.0
 13
-0.0108530111
 23
0.0
 33
0.0
  0
SOLID
  5
470
330
460
100
AcDbEntity
  8
0
  6
CONTINUOUS
 62
     0
100
AcDbTrace
 10
-0.0108530111
 20
-0.0615504846
 30
0.0
 11
-0.0108530111
 21
0.0
 31
0.0
 12
0.0
 22
-0.0625
 32
0.0
 13
0.0
 23
-0.0625
 33
0.0
  0
SOLID
  5
471
330
460
100
AcDbEntity
  8
0
  6
CONTINUOUS
 62
     0
100
AcDbTrace
 10
0.0
 20
-0.0625
 30
0.0
 11
-0.0108530111
 21
0.0
 31
0.0
 12
0.0
 22
0.0
 32
0.0
 13
0.0
 23
0.0
 33
0.0
  0
ENDBLK
  5
481
330
460
100
AcDbEntity
  8
0
100
AcDbBlockEnd
  0
ENDSEC
  0
SECTION
  2
ENTITIES
  0
LINE
  5
76
330
1F
100
AcDbEntity
  8
0
  6
SLD-SOLID
 62
     7
100
AcDbLine
 10
9.0551181102
 20
0.561023622
 30
0.0
 11
16.1417322835
 21
0.561023622
 31
0.0
  0
LINE
  5
77
330
1F
100
AcDbEntity
  8
0
  6
SLD-SOLID
 62
     7
100
AcDbLine
 10
16.1417322835
 20
1.8996062992
 30
0.0
 11
9.0551181102
 21
1.8996062992
 31
0.0
  0
LINE
  5
78
330
1F
100
AcDbEntity
  8
0
  6
SLD-SOLID
 62
     7
100
AcDbLine
 10
9.0551181102
 20
2.5688976378
 30
0.0
 11
16.1417322835
 21
2.5688976378
 31
0.0
  0
LINE
  5
79
330
1F
100
AcDbEntity
  8
0
  6
SLD-SOLID
 62
     7
100
AcDbLine
 10
10.1177540328
 20
1.8996062992
 30
0.0
 11
10.1177540328
 21
0.3937007874
 31
0.0
  0
LINE
  5
7A
330
1F
100
AcDbEntity
  8
0
  6
SLD-SOLID
 62
     7
100
AcDbLine
 10
12.9448818898
 20
1.2303149606
 30
0.0
 11
9.0551181102
 21
1.2303149606
 31
0.0
  0
LINE
  5
7B
330
1F
100
AcDbEntity
  8
0
  6
SLD-SOLID
 62
     7
100
AcDbLine
 10
12.9448818898
 20
1.3976377953
 30
0.0
 11
9.0551181102
 21
1.3976377953
 31
0.0
  0
LINE
  5
7C
330
1F
100
AcDbEntity
  8
0
  6
SLD-SOLID
 62
     7
100
AcDbLine
 10
12.9448818898
 20
1.5649606299
 30
0.0
 11
9.0551181102
 21
1.5649606299
 31
0.0
  0
LINE
  5
7D
330
1F
100
AcDbEntity
  8
0
  6
SLD-SOLID
 62
     7
100
AcDbLine
 10
12.9448818898
 20
1.7322834646
 30
0.0
 11
9.0551181102
 21
1.7322834646
 31
0.0
  0
LINE
  5
7E
330
1F
100
AcDbEntity
  8
0
  6
SLD-SOLID
 62
     7
100
AcDbLine
 10
11.2047244094
 20
0.3937007874
 30
0.0
 11
11.2047244094
 21
1.8996062992
 31
0.0
  0
LINE
  5
7F
330
1F
100
AcDbEntity
  8
0
  6
SLD-SOLID
 62
     7
100
AcDbLine
 10
9.0551181102
 20
2.5688976378
 30
0.0
 11
9.0551181102
 21
0.3937007874
 31
0.0
  0
LINE
  5
80
330
1F
100
AcDbEntity
  8
0
  6
SLD-SOLID
 62
     7
100
AcDbLine
 10
9.3622047244
 20
1.8996062992
 30
0.0
 11
9.3622047244
 21
0.3937007874
 31
0.0
  0
LINE
  5
81
330
1F
100
AcDbEntity
  8
0
  6
SLD-SOLID
 62
     7
100
AcDbLine
 10
10.3858267717
 20
1.8996062992
 30
0.0
 11
10.3858267717
 21
2.5688976378
 31
0.0
  0
LINE
  5
82
330
1F
100
AcDbEntity
  8
0
  6
SLD-SOLID
 62
     7
100
AcDbLine
 10
10.8031073293
 20
1.8996062992
 30
0.0
 11
10.8031073293
 21
0.3937007874
 31
0.0
  0
LINE
  5
83
330
1F
100
AcDbEntity
  8
0
  6
SLD-SOLID
 62
     7
100
AcDbLine
 10
11.6141732283
 20
1.2303149606
 30
0.0
 11
11.6141732283
 21
1.8996062992
 31
0.0
  0
LINE
  5
84
330
1F
100
AcDbEntity
  8
0
  6
SLD-SOLID
 62
     7
100
AcDbLine
 10
11.2047244094
 20
0.7283464567
 30
0.0
 11
9.0551181102
 21
0.7283464567
 31
0.0
  0
LINE
  5
85
330
1F
100
AcDbEntity
  8
0
  6
SLD-SOLID
 62
     7
100
AcDbLine
 10
12.2283464567
 20
2.5688976378
 30
0.0
 11
12.2283464567
 21
1.062992126
 31
0.0
  0
LINE
  5
86
330
1F
100
AcDbEntity
  8
0
  6
SLD-SOLID
 62
     7
100
AcDbLine
 10
11.2047244094
 20
0.8956664567
 30
0.0
 11
9.0551181102
 21
0.8956664567
 31
0.0
  0
LINE
  5
87
330
1F
100
AcDbEntity
  8
0
  6
SLD-SOLID
 62
     7
100
AcDbLine
 10
11.2047244094
 20
1.062992126
 30
0.0
 11
9.0551181102
 21
1.062992126
 31
0.0
  0
LINE
  5
88
330
1F
100
AcDbEntity
  8
0
  6
SLD-SOLID
 62
     7
100
AcDbLine
 10
11.2047244094
 20
1.062992126
 30
0.0
 11
16.1417322835
 21
1.062992126
 31
0.0
  0
LINE
  5
89
330
1F
100
AcDbEntity
  8
0
  6
SLD-SOLID
 62
     7
100
AcDbLine
 10
12.9448818898
 20
2.5688976378
 30
0.0
 11
12.9448818898
 21
0.3937007874
 31
0.0
  0
LINE
  5
8A
330
1F
100
AcDbEntity
  8
0
  6
SLD-SOLID
 62
     7
100
AcDbLine
 10
14.6850393701
 20
0.3937007874
 30
0.0
 11
14.6850393701
 21
0.561023622
 31
0.0
  0
LINE
  5
8B
330
1F
100
AcDbEntity
  8
0
  6
SLD-SOLID
 62
     7
100
AcDbLine
 10
14.9921259843
 20
2.3179133858
 30
0.0
 11
14.9921259843
 21
2.5688976378
 31
0.0
  0
LINE
  5
8C
330
1F
100
AcDbEntity
  8
0
  6
SLD-SOLID
 62
     7
100
AcDbLine
 10
15.6299212598
 20
0.561023622
 30
0.0
 11
15.6299212598
 21
1.062992126
 31
0.0
  0
LINE
  5
8D
330
1F
100
AcDbEntity
  8
0
  6
SLD-SOLID
 62
     7
100
AcDbLine
 10
16.1417322835
 20
2.3179133858
 30
0.0
 11
12.9448818898
 21
2.3179133858
 31
0.0
  0
LINE
  5
8E
330
1F
100
AcDbEntity
  8
0
  6
SLD-SOLID
 62
     7
100
AcDbLine
 10
16.1417322835
 20
0.7283464567
 30
0.0
 11
15.6299212598
 21
0.7283464567
 31
0.0
  0
LINE
  5
8F
330
1F
100
AcDbEntity
  8
0
  6
SLD-SOLID
 62
     7
100
AcDbLine
 10
0.7874015748
 20
0.3937007874
 30
0.0
 11
0.7874015748
 21
11.2992125984
 31
0.0
  0
LINE
  5
90
330
1F
100
AcDbEntity
  8
0
  6
SLD-SOLID
 62
     7
100
AcDbLine
 10
0.7874015748
 20
11.2992125984
 30
0.0
 11
16.1417322835
 21
11.2992125984
 31
0.0
  0
LINE
  5
91
330
1F
100
AcDbEntity
  8
0
  6
SLD-SOLID
 62
     7
100
AcDbLine
 10
16.1417322835
 20
11.2992125984
 30
0.0
 11
16.1417322835
 21
0.3937007874
 31
0.0
  0
LINE
  5
92
330
1F
100
AcDbEntity
  8
0
  6
SLD-SOLID
 62
     7
100
AcDbLine
 10
16.1417322835
 20
0.3937007874
 30
0.0
 11
0.7874015748
 21
0.3937007874
 31
0.0
  0
LINE
  5
93
330
1F
100
AcDbEntity
  8
0
  6
SLD-SOLID
 62
     7
100
AcDbLine
 10
0.5905511811
 20
0.1968503937
 30
0.0
 11
0.5905511811
 21
11.4960629921
 31
0.0
  0
LINE
  5
94
330
1F
100
AcDbEntity
  8
0
  6
SLD-SOLID
 62
     7
100
AcDbLine
 10
0.5905511811
 20
11.4960629921
 30
0.0
 11
16.3385826772
 21
11.4960629921
 31
0.0
  0
LINE
  5
95
330
1F
100
AcDbEntity
  8
0
  6
SLD-SOLID
 62
     7
100
AcDbLine
 10
16.3385826772
 20
11.4960629921
 30
0.0
 11
16.3385826772
 21
0.1968503937
 31
0.0
  0
LINE
  5
96
330
1F
100
AcDbEntity
  8
0
  6
SLD-SOLID
 62
     7
100
AcDbLine
 10
16.3385826772
 20
0.1968503937
 30
0.0
 11
0.5905511811
 21
0.1968503937
 31
0.0
  0
LINE
  5
97
330
1F
100
AcDbEntity
  8
0
  6
SLD-SOLID
 62
     7
100
AcDbLine
 10
0.5905511811
 20
5.8464566929
 30
0.0
 11
0.9842519685
 21
5.8464566929
 31
0.0
  0
LINE
  5
98
330
1F
100
AcDbEntity
  8
0
  6
SLD-SOLID
 62
     7
100
AcDbLine
 10
8.4645669291
 20
11.4960629921
 30
0.0
 11
8.4645669291
 21
11.1023622047
 31
0.0
  0
LINE
  5
99
330
1F
100
AcDbEntity
  8
0
  6
SLD-SOLID
 62
     7
100
AcDbLine
 10
16.3385826772
 20
5.8464566929
 30
0.0
 11
15.9448818898
 21
5.8464566929
 31
0.0
  0
LINE
  5
9A
330
1F
100
AcDbEntity
  8
0
  6
SLD-SOLID
 62
     7
100
AcDbLine
 10
8.4645669291
 20
0.1968503937
 30
0.0
 11
8.4645669291
 21
0.5905511811
 31
0.0
  0
LINE
  5
9B
330
1F
100
AcDbEntity
  8
0
  6
SLD-SOLID
 62
     7
100
AcDbLine
 10
0.7874015748
 20
1.9094488189
 30
0.0
 11
0.5905511811
 21
1.9094488189
 31
0.0
  0
LINE
  5
9C
330
1F
100
AcDbEntity
  8
0
  6
SLD-SOLID
 62
     7
100
AcDbLine
 10
16.1417322835
 20
1.9094488189
 30
0.0
 11
16.3385826772
 21
1.9094488189
 31
0.0
  0
LINE
  5
9D
330
1F
100
AcDbEntity
  8
0
  6
SLD-SOLID
 62
     7
100
AcDbLine
 10
0.7874015748
 20
3.8779527559
 30
0.0
 11
0.5905511811
 21
3.8779527559
 31
0.0
  0
LINE
  5
9E
330
1F
100
AcDbEntity
  8
0
  6
SLD-SOLID
 62
     7
100
AcDbLine
 10
16.1417322835
 20
3.8779527559
 30
0.0
 11
16.3385826772
 21
3.8779527559
 31
0.0
  0
LINE
  5
9F
330
1F
100
AcDbEntity
  8
0
  6
SLD-SOLID
 62
     7
100
AcDbLine
 10
0.7874015748
 20
5.8464566929
 30
0.0
 11
0.5905511811
 21
5.8464566929
 31
0.0
  0
LINE
  5
A0
330
1F
100
AcDbEntity
  8
0
  6
SLD-SOLID
 62
     7
100
AcDbLine
 10
16.1417322835
 20
5.8464566929
 30
0.0
 11
16.3385826772
 21
5.8464566929
 31
0.0
  0
LINE
  5
A1
330
1F
100
AcDbEntity
  8
0
  6
SLD-SOLID
 62
     7
100
AcDbLine
 10
0.7874015748
 20
7.8149606299
 30
0.0
 11
0.5905511811
 21
7.8149606299
 31
0.0
  0
LINE
  5
A2
330
1F
100
AcDbEntity
  8
0
  6
SLD-SOLID
 62
     7
100
AcDbLine
 10
16.1417322835
 20
7.8149606299
 30
0.0
 11
16.3385826772
 21
7.8149606299
 31
0.0
  0
LINE
  5
A3
330
1F
100
AcDbEntity
  8
0
  6
SLD-SOLID
 62
     7
100
AcDbLine
 10
0.7874015748
 20
9.7834645669
 30
0.0
 11
0.5905511811
 21
9.7834645669
 31
0.0
  0
LINE
  5
A4
330
1F
100
AcDbEntity
  8
0
  6
SLD-SOLID
 62
     7
100
AcDbLine
 10
16.1417322835
 20
9.7834645669
 30
0.0
 11
16.3385826772
 21
9.7834645669
 31
0.0
  0
LINE
  5
A5
330
1F
100
AcDbEntity
  8
0
  6
SLD-SOLID
 62
     7
100
AcDbLine
 10
2.5590551181
 20
11.2992125984
 30
0.0
 11
2.5590551181
 21
11.4960629921
 31
0.0
  0
LINE
  5
A6
330
1F
100
AcDbEntity
  8
0
  6
SLD-SOLID
 62
     7
100
AcDbLine
 10
2.5590551181
 20
0.3937007874
 30
0.0
 11
2.5590551181
 21
0.1968503937
 31
0.0
  0
LINE
  5
A7
330
1F
100
AcDbEntity
  8
0
  6
SLD-SOLID
 62
     7
100
AcDbLine
 10
4.5275590551
 20
11.2992125984
 30
0.0
 11
4.5275590551
 21
11.4960629921
 31
0.0
  0
LINE
  5
A8
330
1F
100
AcDbEntity
  8
0
  6
SLD-SOLID
 62
     7
100
AcDbLine
 10
4.5275590551
 20
0.3937007874
 30
0.0
 11
4.5275590551
 21
0.1968503937
 31
0.0
  0
LINE
  5
A9
330
1F
100
AcDbEntity
  8
0
  6
SLD-SOLID
 62
     7
100
AcDbLine
 10
6.4960629921
 20
11.2992125984
 30
0.0
 11
6.4960629921
 21
11.4960629921
 31
0.0
  0
LINE
  5
AA
330
1F
100
AcDbEntity
  8
0
  6
SLD-SOLID
 62
     7
100
AcDbLine
 10
6.4960629921
 20
0.3937007874
 30
0.0
 11
6.4960629921
 21
0.1968503937
 31
0.0
  0
LINE
  5
AB
330
1F
100
AcDbEntity
  8
0
  6
SLD-SOLID
 62
     7
100
AcDbLine
 10
8.4645669291
 20
11.2992125984
 30
0.0
 11
8.4645669291
 21
11.4960629921
 31
0.0
  0
LINE
  5
AC
330
1F
100
AcDbEntity
  8
0
  6
SLD-SOLID
 62
     7
100
AcDbLine
 10
8.4645669291
 20
0.3937007874
 30
0.0
 11
8.4645669291
 21
0.1968503937
 31
0.0
  0
LINE
  5
AD
330
1F
100
AcDbEntity
  8
0
  6
SLD-SOLID
 62
     7
100
AcDbLine
 10
10.4330708661
 20
11.2992125984
 30
0.0
 11
10.4330708661
 21
11.4960629921
 31
0.0
  0
LINE
  5
AE
330
1F
100
AcDbEntity
  8
0
  6
SLD-SOLID
 62
     7
100
AcDbLine
 10
10.4330708661
 20
0.3937007874
 30
0.0
 11
10.4330708661
 21
0.1968503937
 31
0.0
  0
LINE
  5
AF
330
1F
100
AcDbEntity
  8
0
  6
SLD-SOLID
 62
     7
100
AcDbLine
 10
12.4015748031
 20
11.2992125984
 30
0.0
 11
12.4015748031
 21
11.4960629921
 31
0.0
  0
LINE
  5
B0
330
1F
100
AcDbEntity
  8
0
  6
SLD-SOLID
 62
     7
100
AcDbLine
 10
12.4015748031
 20
0.3937007874
 30
0.0
 11
12.4015748031
 21
0.1968503937
 31
0.0
  0
LINE
  5
B1
330
1F
100
AcDbEntity
  8
0
  6
SLD-SOLID
 62
     7
100
AcDbLine
 10
14.3700787402
 20
11.2992125984
 30
0.0
 11
14.3700787402
 21
11.4960629921
 31
0.0
  0
LINE
  5
B2
330
1F
100
AcDbEntity
  8
0
  6
SLD-SOLID
 62
     7
100
AcDbLine
 10
14.3700787402
 20
0.3937007874
 30
0.0
 11
14.3700787402
 21
0.1968503937
 31
0.0
  0
INSERT
  5
EF
330
1F
100
AcDbEntity
  8
0
  6
CONTINUOUS
 62
     7
100
AcDbBlockReference
  2
SW_NOTE_0
 10
1.1559095781
 20
1.7256286969
 30
0.0
  0
MTEXT
  5
F0
330
1F
100
AcDbEntity
  8
0
  6
CONTINUOUS
 62
     7
100
AcDbMText
 10
0.6826648875
 20
1.2071073998
 30
0.0
 40
0.15625
 41
0.0
 71
     2
 72
     1
  1
A
  7
SLDTEXTSTYLE0
  0
MTEXT
  5
F1
330
1F
100
AcDbEntity
  8
0
  6
CONTINUOUS
 62
     7
100
AcDbMText
 10
16.2338459899
 20
1.2071073998
 30
0.0
 40
0.15625
 41
0.0
 71
     2
 72
     1
  1
A
  7
SLDTEXTSTYLE0
  0
MTEXT
  5
F2
330
1F
100
AcDbEntity
  8
0
  6
CONTINUOUS
 62
     7
100
AcDbMText
 10
0.6878189695
 20
2.9831731071
 30
0.0
 40
0.15625
 41
0.0
 71
     2
 72
     1
  1
B
  7
SLDTEXTSTYLE0
  0
MTEXT
  5
F3
330
1F
100
AcDbEntity
  8
0
  6
CONTINUOUS
 62
     7
100
AcDbMText
 10
16.2390000718
 20
2.9831731071
 30
0.0
 40
0.15625
 41
0.0
 71
     2
 72
     1
  1
B
  7
SLDTEXTSTYLE0
  0
MTEXT
  5
F4
330
1F
100
AcDbEntity
  8
0
  6
CONTINUOUS
 62
     7
100
AcDbMText
 10
0.6873487757
 20
4.9516770441
 30
0.0
 40
0.15625
 41
0.0
 71
     2
 72
     1
  1
C
  7
SLDTEXTSTYLE0
  0
MTEXT
  5
F5
330
1F
100
AcDbEntity
  8
0
  6
CONTINUOUS
 62
     7
100
AcDbMText
 10
16.238529878
 20
4.9516770441
 30
0.0
 40
0.15625
 41
0.0
 71
     2
 72
     1
  1
C
  7
SLDTEXTSTYLE0
  0
MTEXT
  5
F6
330
1F
100
AcDbEntity
  8
0
  6
CONTINUOUS
 62
     7
100
AcDbMText
 10
0.6871136725
 20
6.9201809811
 30
0.0
 40
0.15625
 41
0.0
 71
     2
 72
     1
  1
D
  7
SLDTEXTSTYLE0
  0
MTEXT
  5
F7
330
1F
100
AcDbEntity
  8
0
  6
CONTINUOUS
 62
     7
100
AcDbMText
 10
16.2382947749
 20
6.9201809811
 30
0.0
 40
0.15625
 41
0.0
 71
     2
 72
     1
  1
D
  7
SLDTEXTSTYLE0
  0
MTEXT
  5
F8
330
1F
100
AcDbEntity
  8
0
  6
CONTINUOUS
 62
     7
100
AcDbMText
 10
0.6892838152
 20
8.8886849181
 30
0.0
 40
0.15625
 41
0.0
 71
     2
 72
     1
  1
E
  7
SLDTEXTSTYLE0
  0
MTEXT
  5
F9
330
1F
100
AcDbEntity
  8
0
  6
CONTINUOUS
 62
     7
100
AcDbMText
 10
16.2404649175
 20
8.8886849181
 30
0.0
 40
0.15625
 41
0.0
 71
     2
 72
     1
  1
E
  7
SLDTEXTSTYLE0
  0
MTEXT
  5
FA
330
1F
100
AcDbEntity
  8
0
  6
CONTINUOUS
 62
     7
100
AcDbMText
 10
0.6873126067
 20
10.6308109024
 30
0.0
 40
0.15625
 41
0.0
 71
     2
 72
     1
  1
F
  7
SLDTEXTSTYLE0
  0
MTEXT
  5
FB
330
1F
100
AcDbEntity
  8
0
  6
CONTINUOUS
 62
     7
100
AcDbMText
 10
16.238493709
 20
10.6308109024
 30
0.0
 40
0.15625
 41
0.0
 71
     2
 72
     1
  1
F
  7
SLDTEXTSTYLE0
  0
MTEXT
  5
FC
330
1F
100
AcDbEntity
  8
0
  6
CONTINUOUS
 62
     7
100
AcDbMText
 10
1.6716549979
 20
0.3847479103
 30
0.0
 40
0.15625
 41
0.0
 71
     2
 72
     1
  1
8
  7
SLDTEXTSTYLE0
  0
MTEXT
  5
FD
330
1F
100
AcDbEntity
  8
0
  6
CONTINUOUS
 62
     7
100
AcDbMText
 10
1.6716549979
 20
11.4531703919
 30
0.0
 40
0.15625
 41
0.0
 71
     2
 72
     1
  1
8
  7
SLDTEXTSTYLE0
  0
MTEXT
  5
FE
330
1F
100
AcDbEntity
  8
0
  6
CONTINUOUS
 62
     7
100
AcDbMText
 10
3.541733738
 20
0.3847479103
 30
0.0
 40
0.15625
 41
0.0
 71
     2
 72
     1
  1
7
  7
SLDTEXTSTYLE0
  0
MTEXT
  5
FF
330
1F
100
AcDbEntity
  8
0
  6
CONTINUOUS
 62
     7
100
AcDbMText
 10
3.541733738
 20
11.4531703919
 30
0.0
 40
0.15625
 41
0.0
 71
     2
 72
     1
  1
7
  7
SLDTEXTSTYLE0
  0
MTEXT
  5
100
330
1F
100
AcDbEntity
  8
0
  6
CONTINUOUS
 62
     7
100
AcDbMText
 10
5.5102376751
 20
0.3847479103
 30
0.0
 40
0.15625
 41
0.0
 71
     2
 72
     1
  1
6
  7
SLDTEXTSTYLE0
  0
MTEXT
  5
101
330
1F
100
AcDbEntity
  8
0
  6
CONTINUOUS
 62
     7
100
AcDbMText
 10
5.5102376751
 20
11.4531703919
 30
0.0
 40
0.15625
 41
0.0
 71
     2
 72
     1
  1
6
  7
SLDTEXTSTYLE0
  0
MTEXT
  5
102
330
1F
100
AcDbEntity
  8
0
  6
CONTINUOUS
 62
     7
100
AcDbMText
 10
7.4787416121
 20
0.3847479103
 30
0.0
 40
0.15625
 41
0.0
 71
     2
 72
     1
  1
5
  7
SLDTEXTSTYLE0
  0
MTEXT
  5
103
330
1F
100
AcDbEntity
  8
0
  6
CONTINUOUS
 62
     7
100
AcDbMText
 10
7.4787416121
 20
11.4531703919
 30
0.0
 40
0.15625
 41
0.0
 71
     2
 72
     1
  1
5
  7
SLDTEXTSTYLE0
  0
MTEXT
  5
104
330
1F
100
AcDbEntity
  8
0
  6
CONTINUOUS
 62
     7
100
AcDbMText
 10
9.4472455491
 20
0.3847479103
 30
0.0
 40
0.15625
 41
0.0
 71
     2
 72
     1
  1
4
  7
SLDTEXTSTYLE0
  0
MTEXT
  5
105
330
1F
100
AcDbEntity
  8
0
  6
CONTINUOUS
 62
     7
100
AcDbMText
 10
9.4472455491
 20
11.4531703919
 30
0.0
 40
0.15625
 41
0.0
 71
     2
 72
     1
  1
4
  7
SLDTEXTSTYLE0
  0
MTEXT
  5
106
330
1F
100
AcDbEntity
  8
0
  6
CONTINUOUS
 62
     7
100
AcDbMText
 10
11.4157494861
 20
0.3847479103
 30
0.0
 40
0.15625
 41
0.0
 71
     2
 72
     1
  1
3
  7
SLDTEXTSTYLE0
  0
MTEXT
  5
107
330
1F
100
AcDbEntity
  8
0
  6
CONTINUOUS
 62
     7
100
AcDbMText
 10
11.4157494861
 20
11.4531703919
 30
0.0
 40
0.15625
 41
0.0
 71
     2
 72
     1
  1
3
  7
SLDTEXTSTYLE0
  0
MTEXT
  5
108
330
1F
100
AcDbEntity
  8
0
  6
CONTINUOUS
 62
     7
100
AcDbMText
 10
13.3842534231
 20
0.3847479103
 30
0.0
 40
0.15625
 41
0.0
 71
     2
 72
     1
  1
2
  7
SLDTEXTSTYLE0
  0
MTEXT
  5
109
330
1F
100
AcDbEntity
  8
0
  6
CONTINUOUS
 62
     7
100
AcDbMText
 10
13.3842534231
 20
11.4531703919
 30
0.0
 40
0.15625
 41
0.0
 71
     2
 72
     1
  1
2
  7
SLDTEXTSTYLE0
  0
MTEXT
  5
10A
330
1F
100
AcDbEntity
  8
0
  6
CONTINUOUS
 62
     7
100
AcDbMText
 10
15.2543321632
 20
0.3847479103
 30
0.0
 40
0.15625
 41
0.0
 71
     2
 72
     1
  1
1
  7
SLDTEXTSTYLE0
  0
MTEXT
  5
10B
330
1F
100
AcDbEntity
  8
0
  6
CONTINUOUS
 62
     7
100
AcDbMText
 10
15.2543321632
 20
11.4531703919
 30
0.0
 40
0.15625
 41
0.0
 71
     2
 72
     1
  1
1
  7
SLDTEXTSTYLE0
  0
MTEXT
  5
10D
330
1F
100
AcDbEntity
  8
0
  6
CONTINUOUS
 62
     7
100
AcDbMText
 10
9.0804473582
 20
1.6686921778
 30
0.0
 40
0.0590551181
 41
0.0
 71
     1
 72
     1
  1
DRAWN
  7
SLDTEXTSTYLE1
  0
MTEXT
  5
10E
330
1F
100
AcDbEntity
  8
0
  6
CONTINUOUS
 62
     7
100
AcDbMText
 10
9.092095362
 20
1.5024351582
 30
0.0
 40
0.0590551181
 41
0.0
 71
     1
 72
     1
  1
CHK'D
  7
SLDTEXTSTYLE0
  0
MTEXT
  5
10F
330
1F
100
AcDbEntity
  8
0
  6
CONTINUOUS
 62
     7
100
AcDbMText
 10
9.0709339531
 20
1.3411758514
 30
0.0
 40
0.0590551181
 41
0.0
 71
     1
 72
     1
  1
APPV'D
  7
SLDTEXTSTYLE0
  0
MTEXT
  5
110
330
1F
100
AcDbEntity
  8
0
  6
CONTINUOUS
 62
     7
100
AcDbMText
 10
9.0993705015
 20
1.169912774
 30
0.0
 40
0.0590551181
 41
0.0
 71
     1
 72
     1
  1
MFG
  7
SLDTEXTSTYLE0
  0
MTEXT
  5
111
330
1F
100
AcDbEntity
  8
0
  6
CONTINUOUS
 62
     7
100
AcDbMText
 10
9.1145290002
 20
1.0041205564
 30
0.0
 40
0.0590551181
 41
0.0
 71
     1
 72
     1
  1
Q.A
  7
SLDTEXTSTYLE0
  0
INSERT
  5
11B
330
1F
100
AcDbEntity
  8
0
  6
CONTINUOUS
 62
     7
100
AcDbBlockReference
  2
SW_NOTE_0_1
 10
9.0784908955
 20
2.4404476328
 30
0.0
  0
MTEXT
  5
11C
330
1F
100
AcDbEntity
  8
0
  6
CONTINUOUS
 62
     7
100
AcDbMText
 10
10.4083185892
 20
2.5165067715
 30
0.0
 40
0.0590551181
 41
0.0
 71
     1
 72
     1
  1
FINISH:
  7
SLDTEXTSTYLE0
  0
INSERT
  5
123
330
1F
100
AcDbEntity
  8
0
  6
CONTINUOUS
 62
     7
100
AcDbBlockReference
  2
SW_NOTE_0_2
 10
12.2562683341
 20
2.4436806946
 30
0.0
  0
MTEXT
  5
124
330
1F
100
AcDbEntity
  8
0
  6
CONTINUOUS
 62
     7
100
AcDbMText
 10
9.618985796
 20
1.8307670328
 30
0.0
 40
0.0590551181
 41
0.0
 71
     1
 72
     1
  1
NAME
  7
SLDTEXTSTYLE0
  0
MTEXT
  5
125
330
1F
100
AcDbEntity
  8
0
  6
CONTINUOUS
 62
     7
100
AcDbMText
 10
10.2375428174
 20
1.8331400149
 30
0.0
 40
0.0590551181
 41
0.0
 71
     1
 72
     1
  1
SIGNATURE
  7
SLDTEXTSTYLE0
  0
MTEXT
  5
126
330
1F
100
AcDbEntity
  8
0
  6
CONTINUOUS
 62
     7
100
AcDbMText
 10
10.9139646443
 20
1.8337078434
 30
0.0
 40
0.0590551181
 41
0.0
 71
     1
 72
     1
  1
DATE
  7
SLDTEXTSTYLE0
  0
MTEXT
  5
127
330
1F
100
AcDbEntity
  8
0
  6
CONTINUOUS
 62
     7
100
AcDbMText
 10
11.2459000909
 20
1.0230730823
 30
0.0
 40
0.0590551181
 41
0.0
 71
     1
 72
     1
  1
MATERIAL:
  7
SLDTEXTSTYLE0
  0
MTEXT
  5
128
330
1F
100
AcDbEntity
  8
0
  6
CONTINUOUS
 62
     7
100
AcDbMText
 10
13.4887653749
 20
2.4619288809
 30
0.0
 40
0.0590551181
 41
0.0
 71
     1
 72
     1
  1
DO NOT SCALE DRAWING
  7
SLDTEXTSTYLE0
  0
MTEXT
  5
129
330
1F
100
AcDbEntity
  8
0
  6
CONTINUOUS
 62
     7
100
AcDbMText
 10
15.0916370748
 20
2.454130263
 30
0.0
 40
0.0590551181
 41
0.0
 71
     1
 72
     1
  1
REVISION
  7
SLDTEXTSTYLE0
  0
MTEXT
  5
12A
330
1F
100
AcDbEntity
  8
0
  6
CONTINUOUS
 62
     7
100
AcDbMText
 10
12.9956756157
 20
1.8337078434
 30
0.0
 40
0.0590551181
 41
0.0
 71
     1
 72
     1
  1
TITLE:
  7
SLDTEXTSTYLE0
  0
MTEXT
  5
12B
330
1F
100
AcDbEntity
  8
0
  6
CONTINUOUS
 62
     7
100
AcDbMText
 10
12.9902756778
 20
1.0230730823
 30
0.0
 40
0.0590551181
 41
0.0
 71
     1
 72
     1
  1
DWG NO.
  7
SLDTEXTSTYLE0
  0
MTEXT
  5
12C
330
1F
100
AcDbEntity
  8
0
  6
CONTINUOUS
 62
     7
100
AcDbMText
 10
12.9950380361
 20
0.5078774518
 30
0.0
 40
0.0590551181
 41
0.0
 71
     1
 72
     1
  1
SCALE:1:1
  7
SLDTEXTSTYLE0
  0
MTEXT
  5
12E
330
1F
100
AcDbEntity
  8
0
  6
CONTINUOUS
 62
     7
100
AcDbMText
 10
14.7432399381
 20
0.5078774518
 30
0.0
 40
0.0590551181
 41
0.0
 71
     1
 72
     1
  1
SHEET 1 OF 1
  7
SLDTEXTSTYLE2
  0
MTEXT
  5
12F
330
1F
100
AcDbEntity
  8
0
  6
CONTINUOUS
 62
     7
100
AcDbMText
 10
15.7823289935
 20
0.9608814397
 30
0.0
 40
0.1145833333
 41
0.0
 71
     1
 72
     1
  1
A3
  7
SLDTEXTSTYLE0
  0
MTEXT
  5
130
330
1F
100
AcDbEntity
  8
0
  6
CONTINUOUS
 62
     7
100
AcDbMText
 10
11.2447957137
 20
0.5098154293
 30
0.0
 40
0.059
 41
0.0
 71
     1
 72
     1
  1
WEIGHT:
  7
SLDTEXTSTYLE0
  0
MTEXT
  5
131
330
1F
100
AcDbEntity
  8
0
  6
CONTINUOUS
 62
     7
100
AcDbMText
 10
14.34162201
 20
0.9294059436
 30
0.0
 40
0.25
 41
0.0
 71
     2
 72
     1
  1
LAS-02-0006
  7
SLDTEXTSTYLE0
  0
INSERT
  5
137
330
1F
100
AcDbEntity
  8
0
  6
CONTINUOUS
 62
     7
100
AcDbBlockReference
  2
SW_NOTE_0_3
 10
13.3895636749
 20
1.432524045
 30
0.0
  0
LINE
  5
138
330
1F
100
AcDbEntity
  8
0
  6
SLD-SOLID
 62
     7
100
AcDbLine
 10
5.208456529
 20
5.7430161919
 30
0.0
 11
5.5268620408
 21
5.7430161919
 31
0.0
  0
LINE
  5
139
330
1F
100
AcDbEntity
  8
0
  6
SLD-SOLID
 62
     7
100
AcDbLine
 10
6.8585549542
 20
5.7430161919
 30
0.0
 11
7.176960466
 21
5.7430161919
 31
0.0
  0
LINE
  5
13A
330
1F
100
AcDbEntity
  8
0
  6
SLD-SOLID
 62
     7
100
AcDbLine
 10
7.176960466
 20
7.0977130844
 30
0.0
 11
5.208456529
 21
7.0977130844
 31
0.0
  0
LINE
  5
13B
330
1F
100
AcDbEntity
  8
0
  6
SLD-SOLID
 62
     7
100
AcDbLine
 10
7.176960466
 20
6.1565851106
 30
0.0
 11
7.2163305448
 21
6.1565851106
 31
0.0
  0
LINE
  5
13C
330
1F
100
AcDbEntity
  8
0
  6
SLD-SOLID
 62
     7
100
AcDbLine
 10
7.2163305448
 20
6.6841441657
 30
0.0
 11
7.176960466
 21
6.6841441657
 31
0.0
  0
LINE
  5
13D
330
1F
100
AcDbEntity
  8
0
  6
SLD-SOLID
 62
     7
100
AcDbLine
 10
5.1100313322
 20
6.1565851106
 30
0.0
 11
5.208456529
 21
6.1565851106
 31
0.0
  0
LINE
  5
13E
330
1F
100
AcDbEntity
  8
0
  6
SLD-SOLID
 62
     7
100
AcDbLine
 10
5.208456529
 20
6.6841441657
 30
0.0
 11
5.1100313322
 21
6.6841441657
 31
0.0
  0
LINE
  5
13F
330
1F
100
AcDbEntity
  8
0
  6
SLD-SOLID
 62
     7
100
AcDbLine
 10
7.2163305448
 20
6.2628843232
 30
0.0
 11
7.8462518046
 21
6.2628843232
 31
0.0
  0
LINE
  5
140
330
1F
100
AcDbEntity
  8
0
  6
SLD-SOLID
 62
     7
100
AcDbLine
 10
7.8462518046
 20
6.5778449531
 30
0.0
 11
7.2163305448
 21
6.5778449531
 31
0.0
  0
LINE
  5
141
330
1F
100
AcDbEntity
  8
0
  6
SLD-SOLID
 62
     7
100
AcDbLine
 10
4.8541258203
 20
6.2628843232
 30
0.0
 11
5.1100313322
 21
6.2628843232
 31
0.0
  0
LINE
  5
142
330
1F
100
AcDbEntity
  8
0
  6
SLD-SOLID
 62
     7
100
AcDbLine
 10
5.1100313322
 20
6.5778449531
 30
0.0
 11
4.8541258203
 21
6.5778449531
 31
0.0
  0
LINE
  5
143
330
1F
100
AcDbEntity
  8
0
  6
SLD-SOLID
 62
     7
100
AcDbLine
 10
5.208456529
 20
5.7430161919
 30
0.0
 11
5.208456529
 21
5.8691835358
 31
0.0
  0
LINE
  5
144
330
1F
100
AcDbEntity
  8
0
  6
SLD-SOLID
 62
     7
100
AcDbLine
 10
5.208456529
 20
5.8691835358
 30
0.0
 11
5.5268620408
 21
5.8691835358
 31
0.0
  0
LINE
  5
145
330
1F
100
AcDbEntity
  8
0
  6
SLD-SOLID
 62
     7
100
AcDbLine
 10
5.5268620408
 20
5.7430161919
 30
0.0
 11
5.5268620408
 21
5.8691835358
 31
0.0
  0
CIRCLE
  5
146
330
1F
100
AcDbEntity
  8
0
  6
SLD-SOLID
 62
     7
100
AcDbCircle
 10
5.4249919621
 20
6.8140654256
 30
0.0
 40
0.0680000000000005
  0
CIRCLE
  5
147
330
1F
100
AcDbEntity
  8
0
  6
SLD-SOLID
 62
     7
100
AcDbCircle
 10
6.9604250329
 20
6.0266638508
 30
0.0
 40
0.0679999999999996
  0
CIRCLE
  5
148
330
1F
100
AcDbEntity
  8
0
  6
SLD-SOLID
 62
     7
100
AcDbCircle
 10
5.4249919621
 20
6.0266638508
 30
0.0
 40
0.0679999999999996
  0
CIRCLE
  5
149
330
1F
100
AcDbEntity
  8
0
  6
SLD-SOLID
 62
     7
100
AcDbCircle
 10
6.9604250329
 20
6.8140654256
 30
0.0
 40
0.0680000000000005
  0
CIRCLE
  5
14A
330
1F
100
AcDbEntity
  8
0
  6
SLD-SOLID
 62
     7
100
AcDbCircle
 10
5.4249919621
 20
6.4203646382
 30
0.0
 40
0.0624999999999991
  0
CIRCLE
  5
14B
330
1F
100
AcDbEntity
  8
0
  6
SLD-SOLID
 62
     7
100
AcDbCircle
 10
6.9604250329
 20
6.4203646382
 30
0.0
 40
0.0624999999999991
  0
LINE
  5
14C
330
1F
100
AcDbEntity
  8
0
  6
SLD-SOLID
 62
     7
100
AcDbLine
 10
7.176960466
 20
6.9715457405
 30
0.0
 11
5.208456529
 21
6.9715457405
 31
0.0
  0
LINE
  5
14D
330
1F
100
AcDbEntity
  8
0
  6
SLD-SOLID
 62
     7
100
AcDbLine
 10
6.8585549542
 20
5.8691835358
 30
0.0
 11
7.176960466
 21
5.8691835358
 31
0.0
  0
LINE
  5
14E
330
1F
100
AcDbEntity
  8
0
  6
SLD-SOLID
 62
     7
100
AcDbLine
 10
6.8585549542
 20
5.8691835358
 30
0.0
 11
6.8585549542
 21
6.4991047956
 31
0.0
  0
ARC
  5
14F
330
1F
100
AcDbEntity
  8
0
  6
SLD-SOLID
 62
     7
100
AcDbCircle
 10
6.582964403
 20
6.4991047956
 30
0.0
 40
0.2755905511811028
100
AcDbArc
 50
0.0
 51
90.0
  0
LINE
  5
150
330
1F
100
AcDbEntity
  8
0
  6
SLD-SOLID
 62
     7
100
AcDbLine
 10
6.582964403
 20
6.7746953468
 30
0.0
 11
5.802452592
 21
6.7746953468
 31
0.0
  0
ARC
  5
151
330
1F
100
AcDbEntity
  8
0
  6
SLD-SOLID
 62
     7
100
AcDbCircle
 10
5.802452592
 20
6.4991047956
 30
0.0
 40
0.2755905511811028
100
AcDbArc
 50
90.0
 51
180.0
  0
LINE
  5
152
330
1F
100
AcDbEntity
  8
0
  6
SLD-SOLID
 62
     7
100
AcDbLine
 10
5.5268620408
 20
6.4991047956
 30
0.0
 11
5.5268620408
 21
5.8691835358
 31
0.0
  0
LINE
  5
153
330
1F
100
AcDbEntity
  8
0
  6
SLD-SOLID
 62
     7
100
AcDbLine
 10
7.176960466
 20
5.8691835358
 30
0.0
 11
7.176960466
 21
6.9715457405
 31
0.0
  0
LINE
  5
154
330
1F
100
AcDbEntity
  8
0
  6
SLD-SOLID
 62
     7
100
AcDbLine
 10
5.208456529
 20
6.9715457405
 30
0.0
 11
5.208456529
 21
5.8691835358
 31
0.0
  0
LINE
  5
155
330
1F
100
AcDbEntity
  8
0
  6
SLD-SOLID
 62
     7
100
AcDbLine
 10
6.8585549542
 20
5.8691835358
 30
0.0
 11
6.8585549542
 21
5.7430161919
 31
0.0
  0
LINE
  5
156
330
1F
100
AcDbEntity
  8
0
  6
SLD-SOLID
 62
     7
100
AcDbLine
 10
7.176960466
 20
5.7430161919
 30
0.0
 11
7.176960466
 21
5.8691835358
 31
0.0
  0
LINE
  5
157
330
1F
100
AcDbEntity
  8
0
  6
SLD-SOLID
 62
     7
100
AcDbLine
 10
7.176960466
 20
6.9715457405
 30
0.0
 11
7.176960466
 21
7.0977130844
 31
0.0
  0
LINE
  5
158
330
1F
100
AcDbEntity
  8
0
  6
SLD-SOLID
 62
     7
100
AcDbLine
 10
5.208456529
 20
6.9715457405
 30
0.0
 11
5.208456529
 21
7.0977130844
 31
0.0
  0
LINE
  5
159
330
1F
100
AcDbEntity
  8
0
  6
SLD-SOLID
 62
     7
100
AcDbLine
 10
7.2163305448
 20
6.1565851106
 30
0.0
 11
7.2163305448
 21
6.6841441657
 31
0.0
  0
LINE
  5
15A
330
1F
100
AcDbEntity
  8
0
  6
SLD-SOLID
 62
     7
100
AcDbLine
 10
5.1100313322
 20
6.1565851106
 30
0.0
 11
5.1100313322
 21
6.6841441657
 31
0.0
  0
LINE
  5
15B
330
1F
100
AcDbEntity
  8
0
  6
SLD-SOLID
 62
     7
100
AcDbLine
 10
7.8462518046
 20
6.2628843232
 30
0.0
 11
7.8462518046
 21
6.5778449531
 31
0.0
  0
LINE
  5
15C
330
1F
100
AcDbEntity
  8
0
  6
SLD-SOLID
 62
     7
100
AcDbLine
 10
4.8541258203
 20
6.2628843232
 30
0.0
 11
4.8541258203
 21
6.5778449531
 31
0.0
  0
DIMENSION
  5
15D
330
1F
100
AcDbEntity
  8
0
  6
SLD-SOLID
 62
     7
100
AcDbDimension
  2
_D
 10
4.8541258203
 20
6.2628843232
 30
0.0
 11
4.8541258203
 21
4.9329308271
 31
0.0
 70
   102
  1
<>
  3
SLDDIMSTYLE0
100
AcDbOrdinateDimension
 13
4.8541258203
 23
6.2628843232
 33
0.0
 14
4.8541258203
 24
5.1453440199
 34
0.0
  0
DIMENSION
  5
16D
330
1F
100
AcDbEntity
  8
0
  6
SLD-SOLID
 62
     7
100
AcDbDimension
  2
_D_1
 10
4.8541258203
 20
6.2628843232
 30
0.0
 11
5.0545477014
 21
4.9329308271
 31
0.0
 70
   102
  1
<>
  3
SLDDIMSTYLE1
100
AcDbOrdinateDimension
 13
5.1100313322
 23
6.1565851106
 33
0.0
 14
5.0545477014
 24
5.1453440199
 34
0.0
  0
DIMENSION
  5
17A
330
1F
100
AcDbEntity
  8
0
  6
SLD-SOLID
 62
     7
100
AcDbDimension
  2
_D_2
 10
4.8541258203
 20
6.2628843232
 30
0.0
 11
5.2549695824
 21
4.9329308271
 31
0.0
 70
   102
  1
<>
  3
SLDDIMSTYLE1
100
AcDbOrdinateDimension
 13
5.208456529
 23
5.7430161919
 33
0.0
 14
5.2549695824
 24
5.1453440199
 34
0.0
  0
DIMENSION
  5
186
330
1F
100
AcDbEntity
  8
0
  6
SLD-SOLID
 62
     7
100
AcDbDimension
  2
_D_3
 10
4.8541258203
 20
6.2628843232
 30
0.0
 11
5.4553914634
 21
4.9329308271
 31
0.0
 70
   102
  1
<>
  3
SLDDIMSTYLE1
100
AcDbOrdinateDimension
 13
5.4249919621
 23
6.6460654256
 33
0.0
 14
5.4553914634
 24
5.1453440199
 34
0.0
  0
DIMENSION
  5
192
330
1F
100
AcDbEntity
  8
0
  6
SLD-SOLID
 62
     7
100
AcDbDimension
  2
_D_4
 10
4.8541258203
 20
6.2628843232
 30
0.0
 11
5.6558133444
 21
4.9837120704
 31
0.0
 70
   102
  1
<>
  3
SLDDIMSTYLE2
100
AcDbOrdinateDimension
 13
5.5268620408
 23
5.7430161919
 33
0.0
 14
5.6558133444
 24
5.1453440199
 34
0.0
  0
DIMENSION
  5
19B
330
1F
100
AcDbEntity
  8
0
  6
SLD-SOLID
 62
     7
100
AcDbDimension
  2
_D_5
 10
4.8541258203
 20
6.2628843232
 30
0.0
 11
6.7368099279
 21
4.9375315239
 31
0.0
 70
   102
  1
<>
  3
SLDDIMSTYLE2
100
AcDbOrdinateDimension
 13
6.8585549542
 23
5.7430161919
 33
0.0
 14
6.7368099279
 24
5.1453440199
 34
0.0
  0
DIMENSION
  5
1A3
330
1F
100
AcDbEntity
  8
0
  6
SLD-SOLID
 62
     7
100
AcDbDimension
  2
_D_6
 10
4.8541258203
 20
6.2628843232
 30
0.0
 11
6.937231809
 21
4.8867502806
 31
0.0
 70
   102
  1
<>
  3
SLDDIMSTYLE1
100
AcDbOrdinateDimension
 13
6.9604250329
 23
6.6460654256
 33
0.0
 14
6.937231809
 24
5.1453440199
 34
0.0
  0
DIMENSION
  5
1AF
330
1F
100
AcDbEntity
  8
0
  6
SLD-SOLID
 62
     7
100
AcDbDimension
  2
_D_7
 10
4.8541258203
 20
6.2628843232
 30
0.0
 11
7.13765369
 21
4.8867502806
 31
0.0
 70
   102
  1
<>
  3
SLDDIMSTYLE1
100
AcDbOrdinateDimension
 13
7.176960466
 23
5.7430161919
 33
0.0
 14
7.13765369
 24
5.1453440199
 34
0.0
  0
DIMENSION
  5
1BB
330
1F
100
AcDbEntity
  8
0
  6
SLD-SOLID
 62
     7
100
AcDbDimension
  2
_D_8
 10
4.8541258203
 20
6.2628843232
 30
0.0
 11
7.338075571
 21
4.8867502806
 31
0.0
 70
   102
  1
<>
  3
SLDDIMSTYLE3
100
AcDbOrdinateDimension
 13
7.2163305448
 23
6.1565851106
 33
0.0
 14
7.338075571
 24
5.1453440199
 34
0.0
  0
DIMENSION
  5
1C8
330
1F
100
AcDbEntity
  8
0
  6
SLD-SOLID
 62
     7
100
AcDbDimension
  2
_D_9
 10
4.8541258203
 20
6.2628843232
 30
0.0
 11
7.8462518046
 21
4.8867502806
 31
0.0
 70
   102
  1
<>
  3
SLDDIMSTYLE1
100
AcDbOrdinateDimension
 13
7.8462518046
 23
6.2628843232
 33
0.0
 14
7.8462518046
 24
5.1453440199
 34
0.0
  0
DIMENSION
  5
1D2
330
1F
100
AcDbEntity
  8
0
  6
SLD-SOLID
 62
     7
100
AcDbDimension
  2
_D_10
 10
5.4124611885
 20
6.3591336843
 30
0.0
 11
7.2890960098
 21
8.5925127564
 31
0.0
 70
   163
  1
4X <> {\fGDT;x} .236\P
  3
SLDDIMSTYLE4
100
AcDbDiametricDimension
 15
5.4375227356
 25
6.4815955921
 35
0.0
 40
0.0
  0
DIMENSION
  5
1EC
330
1F
100
AcDbEntity
  8
0
  6
SLD-SOLID
 62
     7
100
AcDbDimension
  2
_D_11
 10
6.9401011232
 20
6.7491736796
 30
0.0
 11
8.2574687968
 21
7.8346761247
 31
0.0
 70
   163
  1
8X <> {\fGDT;x} .422\P8-32 UNC  {\fGDT;x} .328\P
  3
SLDDIMSTYLE5
100
AcDbDiametricDimension
 15
6.9807489426
 25
6.8789571715
 35
0.0
 40
0.0
  0
DIMENSION
  5
1FC
330
1F
100
AcDbEntity
  8
0
  6
SLD-SOLID
 62
     7
100
AcDbDimension
  2
_D_12
 10
8.239952592
 20
6.8140654256
 30
0.0
 11
8.239952592
 21
7.0866479703
 31
0.0
 70
   160
  1
<>
  3
SLDDIMSTYLE6
100
AcDbAlignedDimension
 13
8.2417751904
 23
6.4203646382
 33
0.0
 14
5.4249919621
 24
6.8140654256
 34
0.0
 50
90.0
100
AcDbRotatedDimension
  0
DIMENSION
  5
20C
330
1F
100
AcDbEntity
  8
0
  6
SLD-SOLID
 62
     7
100
AcDbDimension
  2
_D_13
 10
8.239952592
 20
6.4203646382
 30
0.0
 11
8.239952592
 21
5.6052778208
 31
0.0
 70
   160
  1
<>
  3
SLDDIMSTYLE6
100
AcDbAlignedDimension
 13
5.4249919621
 23
6.0266638508
 33
0.0
 14
8.2417751904
 24
6.4203646382
 34
0.0
 50
90.0
100
AcDbRotatedDimension
  0
INSERT
  5
220
330
1F
100
AcDbEntity
  8
0
  6
CONTINUOUS
 62
     7
100
AcDbBlockReference
  2
SW_SYMBOL_MOD_CL
 10
4.3736236977
 20
6.3486917577
 30
0.0
 41
0.0040555664
 42
0.0040555664
 43
0.0040555664
  0
TOLERANCE
  5
223
330
1F
100
AcDbEntity
  8
0
  6
SLD-SOLID
 62
     7
100
AcDbFcf
  3
SLDDIMSTYLE7
 10
6.1195170675
 20
8.3058808069
 30
0.0
  1
{\Fgdt;j}%%v{\Fgdt;n}.025%%v%%vA-B%%vC%%vD%%v^J{\Fgdt;j}%%v.005%%v%%vA-B%%v%%v%%v^J
  0
TOLERANCE
  5
224
102
{ACAD_REACTORS
330
226
330
227
102
}
330
1F
100
AcDbEntity
  8
0
  6
SLD-SOLID
 62
     7
100
AcDbFcf
  3
SLDDIMSTYLE7
 10
2.677585729
 20
8.8729231691
 30
0.0
  1
{\Fgdt;d}%%v.005%%v%%vA-B%%vC%%v%%v^J
  0
LEADER
  5
226
330
1F
100
AcDbEntity
  8
0
  6
SLD-SOLID
 62
     7
100
AcDbLeader
  3
SLDDIMSTYLE8
 73
     1
 40
1.4855976562
 41
0.25
 76
     3
 10
5.1100313322
 20
6.6201572383
 30
0.0
 10
4.4131833853
 20
8.8729231691
 30
0.0
 10
4.1631833853
 20
8.8729231691
 30
0.0
340
224
1001
ACAD
1000
DSTYLE
1002
{
1070
     6
1000

1002
}
  0
LEADER
  5
227
330
1F
100
AcDbEntity
  8
0
  6
SLD-SOLID
 62
     7
100
AcDbLeader
  3
SLDDIMSTYLE8
 73
     1
 40
1.4855976562
 41
0.25
 76
     3
 10
4.8541258203
 20
6.4719556428
 30
0.0
 10
4.4131833853
 20
8.8729231691
 30
0.0
 10
4.1631833853
 20
8.8729231691
 30
0.0
340
224
1001
ACAD
1000
DSTYLE
1002
{
1070
     6
1000

1002
}
  0
INSERT
  5
233
330
1F
100
AcDbEntity
  8
0
  6
CONTINUOUS
 62
     7
100
AcDbBlockReference
  2
SW_CENTERMARKSYMBOL_0
 10
5.4249919621
 20
6.8140654256
 30
0.0
  0
INSERT
  5
23F
330
1F
100
AcDbEntity
  8
0
  6
CONTINUOUS
 62
     7
100
AcDbBlockReference
  2
SW_CENTERMARKSYMBOL_1
 10
6.9604250329
 20
6.0266638508
 30
0.0
  0
INSERT
  5
24B
330
1F
100
AcDbEntity
  8
0
  6
CONTINUOUS
 62
     7
100
AcDbBlockReference
  2
SW_CENTERMARKSYMBOL_2
 10
5.4249919621
 20
6.0266638508
 30
0.0
  0
INSERT
  5
257
330
1F
100
AcDbEntity
  8
0
  6
CONTINUOUS
 62
     7
100
AcDbBlockReference
  2
SW_CENTERMARKSYMBOL_3
 10
6.9604250329
 20
6.8140654256
 30
0.0
  0
CIRCLE
  5
258
330
1F
100
AcDbEntity
  8
0
  6
SLD-DASHED
 62
     7
100
AcDbCircle
 10
5.4249919621
 20
6.8140654256
 30
0.0
 40
0.0819999999999999
  0
CIRCLE
  5
259
330
1F
100
AcDbEntity
  8
0
  6
SLD-DASHED
 62
     7
100
AcDbCircle
 10
6.9604250329
 20
6.0266638508
 30
0.0
 40
0.0819999999999999
  0
CIRCLE
  5
25A
330
1F
100
AcDbEntity
  8
0
  6
SLD-DASHED
 62
     7
100
AcDbCircle
 10
5.4249919621
 20
6.0266638508
 30
0.0
 40
0.0819999999999999
  0
CIRCLE
  5
25B
330
1F
100
AcDbEntity
  8
0
  6
SLD-DASHED
 62
     7
100
AcDbCircle
 10
6.9604250329
 20
6.8140654256
 30
0.0
 40
0.0819999999999999
  0
CIRCLE
  5
25C
330
1F
100
AcDbEntity
  8
0
  6
SLD-DASHED
 62
     7
100
AcDbCircle
 10
5.4249919621
 20
6.8140654256
 30
0.0
 40
0.0820000000000016
  0
CIRCLE
  5
25D
330
1F
100
AcDbEntity
  8
0
  6
SLD-DASHED
 62
     7
100
AcDbCircle
 10
6.9604250329
 20
6.8140654256
 30
0.0
 40
0.0820000000000016
  0
CIRCLE
  5
25E
330
1F
100
AcDbEntity
  8
0
  6
SLD-DASHED
 62
     7
100
AcDbCircle
 10
5.4249919621
 20
6.0266638508
 30
0.0
 40
0.0819999999999999
  0
CIRCLE
  5
25F
330
1F
100
AcDbEntity
  8
0
  6
SLD-DASHED
 62
     7
100
AcDbCircle
 10
6.9604250329
 20
6.0266638508
 30
0.0
 40
0.0819999999999999
  0
INSERT
  5
26A
330
1F
100
AcDbEntity
  8
0
  6
CONTINUOUS
 62
     7
100
AcDbBlockReference
  2
SW_DATUMTAG_0
 10
3.3068383077
 20
8.217171609
 30
0.0
  0
INSERT
  5
271
330
1F
100
AcDbEntity
  8
0
  6
CONTINUOUS
 62
     7
100
AcDbBlockReference
  2
SW_DOWELSYMBOL_0
 10
5.4249919621
 20
6.4203646382
 30
0.0
  0
INSERT
  5
278
330
1F
100
AcDbEntity
  8
0
  6
CONTINUOUS
 62
     7
100
AcDbBlockReference
  2
SW_DOWELSYMBOL_1
 10
6.9604250329
 20
6.4203646382
 30
0.0
  0
LINE
  5
279
330
1F
100
AcDbEntity
  8
0
  6
SLD-CENTER
 62
     7
100
AcDbLine
 10
8.2417751904
 20
6.4203646382
 30
0.0
 11
4.6041258203
 21
6.4203646382
 31
0.0
  0
CIRCLE
  5
27A
330
1F
100
AcDbEntity
  8
0
  6
SLD-SOLID
 62
     7
100
AcDbCircle
 10
10.499677072
 20
6.4203646382
 30
0.0
 40
0.1574803149606296
  0
CIRCLE
  5
27B
330
1F
100
AcDbEntity
  8
0
  6
SLD-SOLID
 62
     7
100
AcDbCircle
 10
10.499677072
 20
6.4203646382
 30
0.0
 40
0.2637795275590555
  0
LINE
  5
27C
330
1F
100
AcDbEntity
  8
0
  6
SLD-SOLID
 62
     7
100
AcDbLine
 10
10.1059762846
 20
5.8691835358
 30
0.0
 11
10.1059762846
 21
6.9715457405
 31
0.0
  0
LINE
  5
27D
330
1F
100
AcDbEntity
  8
0
  6
SLD-SOLID
 62
     7
100
AcDbLine
 10
10.8933778594
 20
6.9715457405
 30
0.0
 11
10.8933778594
 21
5.8691835358
 31
0.0
  0
ARC
  5
27E
330
1F
100
AcDbEntity
  8
0
  6
SLD-SOLID
 62
     7
100
AcDbCircle
 10
10.499677072
 20
6.4203646382
 30
0.0
 40
0.6773484462238284
100
AcDbArc
 50
54.462322208
 51
125.537677792
  0
ARC
  5
27F
330
1F
100
AcDbEntity
  8
0
  6
SLD-SOLID
 62
     7
100
AcDbCircle
 10
10.499677072
 20
6.4203646382
 30
0.0
 40
0.6773484462238287
100
AcDbArc
 50
234.462322208
 51
305.537677792
  0
DIMENSION
  5
280
330
1F
100
AcDbEntity
  8
0
  6
SLD-SOLID
 62
     7
100
AcDbDimension
  2
_D_14
 10
10.499677072
 20
6.4203646382
 30
0.0
 11
11.7953268028
 21
7.7665928177
 31
0.0
 70
   164
  1
<>
  3
SLDDIMSTYLE9
100
AcDbRadialDimension
 15
10.7852903802
 25
7.03455187
 35
0.0
 40
0.0
  0
DIMENSION
  5
28A
330
1F
100
AcDbEntity
  8
0
  6
SLD-SOLID
 62
     7
100
AcDbDimension
  2
_D_15
 10
10.3566551428
 20
6.1987244637
 30
0.0
 11
12.0169178698
 21
7.4444491062
 31
0.0
 70
   163
  1
2X %%c <>
  3
SLDDIMSTYLE10
100
AcDbDiametricDimension
 15
10.6426990012
 25
6.6420048126
 35
0.0
 40
0.0
  0
INSERT
  5
2A1
330
1F
100
AcDbEntity
  8
0
  6
CONTINUOUS
 62
     7
100
AcDbBlockReference
  2
SW_CENTERMARKSYMBOL_4
 10
10.499677072
 20
6.4203646382
 30
0.0
  0
LINE
  5
2A2
330
1F
100
AcDbEntity
  8
0
  6
SLD-SOLID
 62
     7
100
AcDbLine
 10
7.176960466
 20
9.5595216331
 30
0.0
 11
7.2163305448
 21
9.5595216331
 31
0.0
  0
LINE
  5
2A3
330
1F
100
AcDbEntity
  8
0
  6
SLD-SOLID
 62
     7
100
AcDbLine
 10
7.2163305448
 20
10.0870806882
 30
0.0
 11
7.176960466
 21
10.0870806882
 31
0.0
  0
LINE
  5
2A4
330
1F
100
AcDbEntity
  8
0
  6
SLD-SOLID
 62
     7
100
AcDbLine
 10
5.1100313322
 20
9.5595216331
 30
0.0
 11
5.208456529
 21
9.5595216331
 31
0.0
  0
LINE
  5
2A5
330
1F
100
AcDbEntity
  8
0
  6
SLD-SOLID
 62
     7
100
AcDbLine
 10
5.208456529
 20
10.0870806882
 30
0.0
 11
5.1100313322
 21
10.0870806882
 31
0.0
  0
LINE
  5
2A6
330
1F
100
AcDbEntity
  8
0
  6
SLD-SOLID
 62
     7
100
AcDbLine
 10
7.2163305448
 20
9.6658208457
 30
0.0
 11
7.8462518046
 21
9.6658208457
 31
0.0
  0
LINE
  5
2A7
330
1F
100
AcDbEntity
  8
0
  6
SLD-SOLID
 62
     7
100
AcDbLine
 10
7.8462518046
 20
9.9807814756
 30
0.0
 11
7.2163305448
 21
9.9807814756
 31
0.0
  0
LINE
  5
2A8
330
1F
100
AcDbEntity
  8
0
  6
SLD-SOLID
 62
     7
100
AcDbLine
 10
4.8541258203
 20
9.6658208457
 30
0.0
 11
5.1100313322
 21
9.6658208457
 31
0.0
  0
LINE
  5
2A9
330
1F
100
AcDbEntity
  8
0
  6
SLD-SOLID
 62
     7
100
AcDbLine
 10
5.1100313322
 20
9.9807814756
 30
0.0
 11
4.8541258203
 21
9.9807814756
 31
0.0
  0
LINE
  5
2AA
330
1F
100
AcDbEntity
  8
0
  6
SLD-SOLID
 62
     7
100
AcDbLine
 10
7.176960466
 20
9.4296003732
 30
0.0
 11
5.208456529
 21
9.4296003732
 31
0.0
  0
LINE
  5
2AB
330
1F
100
AcDbEntity
  8
0
  6
SLD-SOLID
 62
     7
100
AcDbLine
 10
5.208456529
 20
10.217001948
 30
0.0
 11
7.176960466
 21
10.217001948
 31
0.0
  0
LINE
  5
2AC
330
1F
100
AcDbEntity
  8
0
  6
SLD-SOLID
 62
     7
100
AcDbLine
 10
5.208456529
 20
9.4296003732
 30
0.0
 11
5.208456529
 21
10.217001948
 31
0.0
  0
LINE
  5
2AD
330
1F
100
AcDbEntity
  8
0
  6
SLD-SOLID
 62
     7
100
AcDbLine
 10
7.176960466
 20
9.4296003732
 30
0.0
 11
7.176960466
 21
10.217001948
 31
0.0
  0
LINE
  5
2AE
330
1F
100
AcDbEntity
  8
0
  6
SLD-SOLID
 62
     7
100
AcDbLine
 10
7.2163305448
 20
9.5595216331
 30
0.0
 11
7.2163305448
 21
10.0870806882
 31
0.0
  0
LINE
  5
2AF
330
1F
100
AcDbEntity
  8
0
  6
SLD-SOLID
 62
     7
100
AcDbLine
 10
5.1100313322
 20
9.5595216331
 30
0.0
 11
5.1100313322
 21
10.0870806882
 31
0.0
  0
LINE
  5
2B0
330
1F
100
AcDbEntity
  8
0
  6
SLD-SOLID
 62
     7
100
AcDbLine
 10
7.8462518046
 20
9.6658208457
 30
0.0
 11
7.8462518046
 21
9.9807814756
 31
0.0
  0
LINE
  5
2B1
330
1F
100
AcDbEntity
  8
0
  6
SLD-SOLID
 62
     7
100
AcDbLine
 10
4.8541258203
 20
9.6658208457
 30
0.0
 11
4.8541258203
 21
9.9807814756
 31
0.0
  0
DIMENSION
  5
2B2
330
1F
100
AcDbEntity
  8
0
  6
SLD-SOLID
 62
     7
100
AcDbDimension
  2
_D_16
 10
4.4604250329
 20
9.9807814756
 30
0.0
 11
4.4604250329
 21
10.4548946721
 31
0.0
 70
   160
  1
%%c<>h7
  3
SLDDIMSTYLE11
100
AcDbAlignedDimension
 13
4.8541258203
 23
9.6658208457
 33
0.0
 14
4.8541258203
 24
9.9807814756
 34
0.0
 50
90.0
100
AcDbRotatedDimension
  0
DIMENSION
  5
2C5
330
1F
100
AcDbEntity
  8
0
  6
SLD-SOLID
 62
     7
100
AcDbDimension
  2
_D_17
 10
8.2417751904
 20
9.9807814756
 30
0.0
 11
8.2417751904
 21
10.4207639237
 31
0.0
 70
   160
  1
%%c<>h7
  3
SLDDIMSTYLE11
100
AcDbAlignedDimension
 13
7.8462518046
 23
9.6658208457
 33
0.0
 14
7.8462518046
 24
9.9807814756
 34
0.0
 50
90.0
100
AcDbRotatedDimension
  0
TOLERANCE
  5
2D7
330
1F
100
AcDbEntity
  8
0
  6
SLD-SOLID
 62
     7
100
AcDbFcf
  3
SLDDIMSTYLE7
 10
2.8857251655
 20
10.1682627226
 30
0.0
  1
{\Fgdt;t}%%v.001%%v%%vA-B%%v%%v%%v^J
  0
TOLERANCE
  5
2D8
330
1F
100
AcDbEntity
  8
0
  6
SLD-SOLID
 62
     7
100
AcDbFcf
  3
SLDDIMSTYLE7
 10
8.4917751904
 20
10.1341319742
 30
0.0
  1
{\Fgdt;t}%%v.001%%v%%vA-B%%v%%v%%v^J
  0
INSERT
  5
2E3
330
1F
100
AcDbEntity
  8
0
  6
CONTINUOUS
 62
     7
100
AcDbBlockReference
  2
SW_DATUMTAG_1
 10
8.6406486795
 20
9.7240824214
 30
0.0
  0
INSERT
  5
2EE
330
1F
100
AcDbEntity
  8
0
  6
CONTINUOUS
 62
     7
100
AcDbBlockReference
  2
SW_DATUMTAG_2
 10
3.8002863129
 20
9.7240824214
 30
0.0
  0
LINE
  5
2EF
330
1F
100
AcDbEntity
  8
0
  6
SLD-SOLID
 62
     7
100
AcDbLine
 10
14.3351208941
 20
5.7430161919
 30
0.0
 11
14.6535264059
 21
5.7430161919
 31
0.0
  0
LINE
  5
2F0
330
1F
100
AcDbEntity
  8
0
  6
SLD-SOLID
 62
     7
100
AcDbLine
 10
14.6535264059
 20
7.0977130844
 30
0.0
 11
12.6850224689
 21
7.0977130844
 31
0.0
  0
LINE
  5
2F1
330
1F
100
AcDbEntity
  8
0
  6
SLD-SOLID
 62
     7
100
AcDbLine
 10
12.6850224689
 20
5.7430161919
 30
0.0
 11
13.0034279807
 21
5.7430161919
 31
0.0
  0
LINE
  5
2F2
330
1F
100
AcDbEntity
  8
0
  6
SLD-SOLID
 62
     7
100
AcDbLine
 10
14.7519516028
 20
6.6841441657
 30
0.0
 11
14.6535264059
 21
6.6841441657
 31
0.0
  0
LINE
  5
2F3
330
1F
100
AcDbEntity
  8
0
  6
SLD-SOLID
 62
     7
100
AcDbLine
 10
14.6535264059
 20
6.1565851106
 30
0.0
 11
14.7519516028
 21
6.1565851106
 31
0.0
  0
LINE
  5
2F4
330
1F
100
AcDbEntity
  8
0
  6
SLD-SOLID
 62
     7
100
AcDbLine
 10
12.6850224689
 20
6.6841441657
 30
0.0
 11
12.6456523902
 21
6.6841441657
 31
0.0
  0
LINE
  5
2F5
330
1F
100
AcDbEntity
  8
0
  6
SLD-SOLID
 62
     7
100
AcDbLine
 10
12.6456523902
 20
6.1565851106
 30
0.0
 11
12.6850224689
 21
6.1565851106
 31
0.0
  0
LINE
  5
2F6
330
1F
100
AcDbEntity
  8
0
  6
SLD-SOLID
 62
     7
100
AcDbLine
 10
15.0078571146
 20
6.5778449531
 30
0.0
 11
14.7519516028
 21
6.5778449531
 31
0.0
  0
LINE
  5
2F7
330
1F
100
AcDbEntity
  8
0
  6
SLD-SOLID
 62
     7
100
AcDbLine
 10
14.7519516028
 20
6.2628843232
 30
0.0
 11
15.0078571146
 21
6.2628843232
 31
0.0
  0
LINE
  5
2F8
330
1F
100
AcDbEntity
  8
0
  6
SLD-SOLID
 62
     7
100
AcDbLine
 10
12.6456523902
 20
6.5778449531
 30
0.0
 11
12.0157311303
 21
6.5778449531
 31
0.0
  0
LINE
  5
2F9
330
1F
100
AcDbEntity
  8
0
  6
SLD-SOLID
 62
     7
100
AcDbLine
 10
12.0157311303
 20
6.2628843232
 30
0.0
 11
12.6456523902
 21
6.2628843232
 31
0.0
  0
CIRCLE
  5
2FA
330
1F
100
AcDbEntity
  8
0
  6
SLD-SOLID
 62
     7
100
AcDbCircle
 10
14.4369909728
 20
6.8140654256
 30
0.0
 40
0.0679999999999987
  0
CIRCLE
  5
2FB
330
1F
100
AcDbEntity
  8
0
  6
SLD-SOLID
 62
     7
100
AcDbCircle
 10
12.901557902
 20
6.0266638508
 30
0.0
 40
0.0679999999999996
  0
CIRCLE
  5
2FC
330
1F
100
AcDbEntity
  8
0
  6
SLD-SOLID
 62
     7
100
AcDbCircle
 10
14.4369909728
 20
6.0266638508
 30
0.0
 40
0.0679999999999996
  0
CIRCLE
  5
2FD
330
1F
100
AcDbEntity
  8
0
  6
SLD-SOLID
 62
     7
100
AcDbCircle
 10
12.901557902
 20
6.8140654256
 30
0.0
 40
0.0679999999999987
  0
CIRCLE
  5
2FE
330
1F
100
AcDbEntity
  8
0
  6
SLD-SOLID
 62
     7
100
AcDbCircle
 10
14.4369909728
 20
6.4203646382
 30
0.0
 40
0.0625
  0
CIRCLE
  5
2FF
330
1F
100
AcDbEntity
  8
0
  6
SLD-SOLID
 62
     7
100
AcDbCircle
 10
12.901557902
 20
6.4203646382
 30
0.0
 40
0.0625
  0
ARC
  5
300
330
1F
100
AcDbEntity
  8
0
  6
SLD-SOLID
 62
     7
100
AcDbCircle
 10
14.0595303429
 20
6.4991047956
 30
0.0
 40
0.2755905511811028
100
AcDbArc
 50
0.0
 51
90.0
  0
LINE
  5
301
330
1F
100
AcDbEntity
  8
0
  6
SLD-SOLID
 62
     7
100
AcDbLine
 10
13.2790185319
 20
6.7746953468
 30
0.0
 11
14.0595303429
 21
6.7746953468
 31
0.0
  0
ARC
  5
302
330
1F
100
AcDbEntity
  8
0
  6
SLD-SOLID
 62
     7
100
AcDbCircle
 10
13.2790185319
 20
6.4991047956
 30
0.0
 40
0.2755905511811028
100
AcDbArc
 50
90.0
 51
180.0
  0
LINE
  5
303
330
1F
100
AcDbEntity
  8
0
  6
SLD-SOLID
 62
     7
100
AcDbLine
 10
13.0034279807
 20
6.4991047956
 30
0.0
 11
13.0034279807
 21
5.8691835358
 31
0.0
  0
LINE
  5
304
330
1F
100
AcDbEntity
  8
0
  6
SLD-SOLID
 62
     7
100
AcDbLine
 10
12.6850224689
 20
5.8691835358
 30
0.0
 11
13.0034279807
 21
5.8691835358
 31
0.0
  0
LINE
  5
305
330
1F
100
AcDbEntity
  8
0
  6
SLD-SOLID
 62
     7
100
AcDbLine
 10
12.6850224689
 20
6.9715457405
 30
0.0
 11
12.6850224689
 21
5.8691835358
 31
0.0
  0
LINE
  5
306
330
1F
100
AcDbEntity
  8
0
  6
SLD-SOLID
 62
     7
100
AcDbLine
 10
14.6535264059
 20
6.9715457405
 30
0.0
 11
12.6850224689
 21
6.9715457405
 31
0.0
  0
LINE
  5
307
330
1F
100
AcDbEntity
  8
0
  6
SLD-SOLID
 62
     7
100
AcDbLine
 10
14.6535264059
 20
5.8691835358
 30
0.0
 11
14.6535264059
 21
6.9715457405
 31
0.0
  0
LINE
  5
308
330
1F
100
AcDbEntity
  8
0
  6
SLD-SOLID
 62
     7
100
AcDbLine
 10
14.3351208941
 20
5.8691835358
 30
0.0
 11
14.6535264059
 21
5.8691835358
 31
0.0
  0
LINE
  5
309
330
1F
100
AcDbEntity
  8
0
  6
SLD-SOLID
 62
     7
100
AcDbLine
 10
14.3351208941
 20
6.4991047956
 30
0.0
 11
14.3351208941
 21
5.8691835358
 31
0.0
  0
LINE
  5
30A
330
1F
100
AcDbEntity
  8
0
  6
SLD-SOLID
 62
     7
100
AcDbLine
 10
14.3351208941
 20
5.8691835358
 30
0.0
 11
14.3351208941
 21
5.7430161919
 31
0.0
  0
LINE
  5
30B
330
1F
100
AcDbEntity
  8
0
  6
SLD-SOLID
 62
     7
100
AcDbLine
 10
14.6535264059
 20
5.8691835358
 30
0.0
 11
14.6535264059
 21
5.7430161919
 31
0.0
  0
LINE
  5
30C
330
1F
100
AcDbEntity
  8
0
  6
SLD-SOLID
 62
     7
100
AcDbLine
 10
12.6850224689
 20
7.0977130844
 30
0.0
 11
12.6850224689
 21
6.9715457405
 31
0.0
  0
LINE
  5
30D
330
1F
100
AcDbEntity
  8
0
  6
SLD-SOLID
 62
     7
100
AcDbLine
 10
14.6535264059
 20
7.0977130844
 30
0.0
 11
14.6535264059
 21
6.9715457405
 31
0.0
  0
LINE
  5
30E
330
1F
100
AcDbEntity
  8
0
  6
SLD-SOLID
 62
     7
100
AcDbLine
 10
12.6850224689
 20
5.8691835358
 30
0.0
 11
12.6850224689
 21
5.7430161919
 31
0.0
  0
LINE
  5
30F
330
1F
100
AcDbEntity
  8
0
  6
SLD-SOLID
 62
     7
100
AcDbLine
 10
13.0034279807
 20
5.7430161919
 30
0.0
 11
13.0034279807
 21
5.8691835358
 31
0.0
  0
LINE
  5
310
330
1F
100
AcDbEntity
  8
0
  6
SLD-SOLID
 62
     7
100
AcDbLine
 10
14.7519516028
 20
6.6841441657
 30
0.0
 11
14.7519516028
 21
6.1565851106
 31
0.0
  0
LINE
  5
311
330
1F
100
AcDbEntity
  8
0
  6
SLD-SOLID
 62
     7
100
AcDbLine
 10
12.6456523902
 20
6.6841441657
 30
0.0
 11
12.6456523902
 21
6.1565851106
 31
0.0
  0
LINE
  5
312
330
1F
100
AcDbEntity
  8
0
  6
SLD-SOLID
 62
     7
100
AcDbLine
 10
15.0078571146
 20
6.5778449531
 30
0.0
 11
15.0078571146
 21
6.2628843232
 31
0.0
  0
LINE
  5
313
330
1F
100
AcDbEntity
  8
0
  6
SLD-SOLID
 62
     7
100
AcDbLine
 10
12.0157311303
 20
6.5778449531
 30
0.0
 11
12.0157311303
 21
6.2628843232
 31
0.0
  0
DIMENSION
  5
314
330
1F
100
AcDbEntity
  8
0
  6
SLD-SOLID
 62
     7
100
AcDbDimension
  2
_D_18
 10
15.0078571146
 20
6.3523646382
 30
0.0
 11
15.0078571146
 21
4.876588292
 31
0.0
 70
   102
  1
<>
  3
SLDDIMSTYLE12
100
AcDbOrdinateDimension
 13
15.0078571146
 23
6.3523646382
 33
0.0
 14
15.0078571146
 24
5.0890014849
 34
0.0
  0
DIMENSION
  5
31F
330
1F
100
AcDbEntity
  8
0
  6
SLD-SOLID
 62
     7
100
AcDbDimension
  2
_D_19
 10
15.0078571146
 20
6.3523646382
 30
0.0
 11
14.4439286852
 21
4.876588292
 31
0.0
 70
   102
  1
<>
  3
SLDDIMSTYLE1
100
AcDbOrdinateDimension
 13
14.4369909728
 23
6.6460654256
 33
0.0
 14
14.4439286852
 24
5.0890014849
 34
0.0
  0
DIMENSION
  5
32B
330
1F
100
AcDbEntity
  8
0
  6
SLD-SOLID
 62
     7
100
AcDbDimension
  2
_D_20
 10
15.0078571146
 20
6.3523646382
 30
0.0
 11
12.901557902
 21
4.8304077455
 31
0.0
 70
   102
  1
<>
  3
SLDDIMSTYLE1
100
AcDbOrdinateDimension
 13
12.901557902
 23
6.6460654256
 33
0.0
 14
12.901557902
 24
5.0890014849
 34
0.0
  0
DIMENSION
  5
335
330
1F
100
AcDbEntity
  8
0
  6
SLD-SOLID
 62
     7
100
AcDbDimension
  2
_D_21
 10
15.2515614826
 20
6.8140654256
 30
0.0
 11
15.2515614826
 21
7.2306963548
 31
0.0
 70
   160
  1
<>
  3
SLDDIMSTYLE6
100
AcDbAlignedDimension
 13
15.2578571146
 23
6.4203646382
 33
0.0
 14
13.069557902
 24
6.8140654256
 34
0.0
 50
90.0
100
AcDbRotatedDimension
  0
DIMENSION
  5
345
330
1F
100
AcDbEntity
  8
0
  6
SLD-SOLID
 62
     7
100
AcDbDimension
  2
_D_22
 10
15.2515614826
 20
6.4203646382
 30
0.0
 11
15.2515614826
 21
5.3383316216
 31
0.0
 70
   160
  1
<>
  3
SLDDIMSTYLE6
100
AcDbAlignedDimension
 13
13.069557902
 23
6.0266638508
 33
0.0
 14
15.2578571146
 24
6.4203646382
 34
0.0
 50
90.0
100
AcDbRotatedDimension
  0
DIMENSION
  5
354
330
1F
100
AcDbEntity
  8
0
  6
SLD-SOLID
 62
     7
100
AcDbDimension
  2
_D_23
 10
11.9126967596
 20
6.4203646382
 30
0.0
 11
11.9126967596
 21
6.9473449538
 31
0.0
 70
   160
  1
<>
  3
SLDDIMSTYLE6
100
AcDbAlignedDimension
 13
13.2790185319
 23
6.7746953468
 33
0.0
 14
11.7657311303
 24
6.4203646382
 34
0.0
 50
90.0
100
AcDbRotatedDimension
  0
INSERT
  5
363
330
1F
100
AcDbEntity
  8
0
  6
CONTINUOUS
 62
     7
100
AcDbBlockReference
  2
SW_SYMBOL_MOD_CL
 10
11.5824150349
 20
6.3573990972
 30
0.0
 41
0.0040555664
 42
0.0040555664
 43
0.0040555664
  0
INSERT
  5
36F
330
1F
100
AcDbEntity
  8
0
  6
CONTINUOUS
 62
     7
100
AcDbBlockReference
  2
SW_CENTERMARKSYMBOL_5
 10
14.4369909728
 20
6.8140654256
 30
0.0
  0
INSERT
  5
37B
330
1F
100
AcDbEntity
  8
0
  6
CONTINUOUS
 62
     7
100
AcDbBlockReference
  2
SW_CENTERMARKSYMBOL_6
 10
12.901557902
 20
6.0266638508
 30
0.0
  0
INSERT
  5
387
330
1F
100
AcDbEntity
  8
0
  6
CONTINUOUS
 62
     7
100
AcDbBlockReference
  2
SW_CENTERMARKSYMBOL_7
 10
14.4369909728
 20
6.0266638508
 30
0.0
  0
INSERT
  5
393
330
1F
100
AcDbEntity
  8
0
  6
CONTINUOUS
 62
     7
100
AcDbBlockReference
  2
SW_CENTERMARKSYMBOL_8
 10
12.901557902
 20
6.8140654256
 30
0.0
  0
CIRCLE
  5
394
330
1F
100
AcDbEntity
  8
0
  6
SLD-DASHED
 62
     7
100
AcDbCircle
 10
14.4369909728
 20
6.8140654256
 30
0.0
 40
0.0819999999999999
  0
CIRCLE
  5
395
330
1F
100
AcDbEntity
  8
0
  6
SLD-DASHED
 62
     7
100
AcDbCircle
 10
12.901557902
 20
6.0266638508
 30
0.0
 40
0.0819999999999999
  0
CIRCLE
  5
396
330
1F
100
AcDbEntity
  8
0
  6
SLD-DASHED
 62
     7
100
AcDbCircle
 10
14.4369909728
 20
6.0266638508
 30
0.0
 40
0.0819999999999999
  0
CIRCLE
  5
397
330
1F
100
AcDbEntity
  8
0
  6
SLD-DASHED
 62
     7
100
AcDbCircle
 10
12.901557902
 20
6.8140654256
 30
0.0
 40
0.0819999999999999
  0
CIRCLE
  5
398
330
1F
100
AcDbEntity
  8
0
  6
SLD-DASHED
 62
     7
100
AcDbCircle
 10
14.4369909728
 20
6.8140654256
 30
0.0
 40
0.0820000000000016
  0
CIRCLE
  5
399
330
1F
100
AcDbEntity
  8
0
  6
SLD-DASHED
 62
     7
100
AcDbCircle
 10
12.901557902
 20
6.8140654256
 30
0.0
 40
0.0820000000000016
  0
CIRCLE
  5
39A
330
1F
100
AcDbEntity
  8
0
  6
SLD-DASHED
 62
     7
100
AcDbCircle
 10
14.4369909728
 20
6.0266638508
 30
0.0
 40
0.0819999999999999
  0
CIRCLE
  5
39B
330
1F
100
AcDbEntity
  8
0
  6
SLD-DASHED
 62
     7
100
AcDbCircle
 10
12.901557902
 20
6.0266638508
 30
0.0
 40
0.0819999999999999
  0
INSERT
  5
3A2
330
1F
100
AcDbEntity
  8
0
  6
CONTINUOUS
 62
     7
100
AcDbBlockReference
  2
SW_DOWELSYMBOL_2
 10
14.4369909728
 20
6.4203646382
 30
0.0
  0
INSERT
  5
3A9
330
1F
100
AcDbEntity
  8
0
  6
CONTINUOUS
 62
     7
100
AcDbBlockReference
  2
SW_DOWELSYMBOL_3
 10
12.901557902
 20
6.4203646382
 30
0.0
  0
LINE
  5
3AA
330
1F
100
AcDbEntity
  8
0
  6
SLD-CENTER
 62
     7
100
AcDbLine
 10
15.2578571146
 20
6.4203646382
 30
0.0
 11
11.7657311303
 21
6.4203646382
 31
0.0
  0
CIRCLE
  5
3AB
330
1F
100
AcDbEntity
  8
0
  6
SLD-SOLID
 62
     7
100
AcDbCircle
 10
3.1228006027
 20
6.4203646382
 30
0.0
 40
0.0680000000000001
  0
CIRCLE
  5
3AC
330
1F
100
AcDbEntity
  8
0
  6
SLD-SOLID
 62
     7
100
AcDbCircle
 10
3.1228006027
 20
6.4203646382
 30
0.0
 40
0.1574803149606296
  0
CIRCLE
  5
3AD
330
1F
100
AcDbEntity
  8
0
  6
SLD-SOLID
 62
     7
100
AcDbCircle
 10
3.1228006027
 20
6.4203646382
 30
0.0
 40
0.2637795275590538
  0
ARC
  5
3AE
330
1F
100
AcDbEntity
  8
0
  6
SLD-SOLID
 62
     7
100
AcDbCircle
 10
3.1228006027
 20
6.4203646382
 30
0.0
 40
0.677348446223829
100
AcDbArc
 50
54.462322208
 51
125.537677792
  0
LINE
  5
3AF
330
1F
100
AcDbEntity
  8
0
  6
SLD-SOLID
 62
     7
100
AcDbLine
 10
3.5165013901
 20
6.9715457405
 30
0.0
 11
3.5165013901
 21
5.8691835358
 31
0.0
  0
ARC
  5
3B0
330
1F
100
AcDbEntity
  8
0
  6
SLD-SOLID
 62
     7
100
AcDbCircle
 10
3.1228006027
 20
6.4203646382
 30
0.0
 40
0.6773484462238282
100
AcDbArc
 50
234.462322208
 51
305.537677792
  0
LINE
  5
3B1
330
1F
100
AcDbEntity
  8
0
  6
SLD-SOLID
 62
     7
100
AcDbLine
 10
2.7290998153
 20
5.8691835358
 30
0.0
 11
2.7290998153
 21
6.9715457405
 31
0.0
  0
DIMENSION
  5
3B2
330
1F
100
AcDbEntity
  8
0
  6
SLD-SOLID
 62
     7
100
AcDbDimension
  2
_D_24
 10
3.5165013901
 20
7.6218719031
 30
0.0
 11
2.0991785554
 21
7.6218719031
 31
0.0
 70
   160
  1
<>
  3
SLDDIMSTYLE13
100
AcDbAlignedDimension
 13
2.7290998153
 23
6.9715457405
 33
0.0
 14
3.5165013901
 24
6.9715457405
 34
0.0
100
AcDbRotatedDimension
  0
DIMENSION
  5
3BF
330
1F
100
AcDbEntity
  8
0
  6
SLD-SOLID
 62
     7
100
AcDbDimension
  2
_D_25
 10
3.1568006027
 20
6.4792543656
 30
0.0
 11
1.6365882651
 21
5.5344227023
 31
0.0
 70
   163
  1
<> {\fGDT;x} .422\P8-32 UNC  {\fGDT;x} .328\P
  3
SLDDIMSTYLE5
100
AcDbDiametricDimension
 15
3.0888006027
 25
6.3614749107
 35
0.0
 40
0.0
  0
TOLERANCE
  5
3CD
330
1F
100
AcDbEntity
  8
0
  6
SLD-SOLID
 62
     7
100
AcDbFcf
  3
SLDDIMSTYLE7
 10
1.3271696251
 20
7.3976531501
 30
0.0
  1
{\Fgdt;j}%%v.001%%v%%vA-B%%v%%v%%v^J
  0
INSERT
  5
3D9
330
1F
100
AcDbEntity
  8
0
  6
CONTINUOUS
 62
     7
100
AcDbBlockReference
  2
SW_CENTERMARKSYMBOL_9
 10
3.1228006027
 20
6.4203646382
 30
0.0
  0
CIRCLE
  5
3DA
330
1F
100
AcDbEntity
  8
0
  6
SLD-DASHED
 62
     7
100
AcDbCircle
 10
3.1228006027
 20
6.4203646382
 30
0.0
 40
0.0819999999999999
  0
INSERT
  5
3E5
330
1F
100
AcDbEntity
  8
0
  6
CONTINUOUS
 62
     7
100
AcDbBlockReference
  2
SW_DATUMTAG_3
 10
1.7623646991
 20
6.7509172613
 30
0.0
  0
MTEXT
  5
3E7
330
1F
100
AcDbEntity
  8
0
  6
CONTINUOUS
 62
     7
100
AcDbMText
 10
0.0
 20
0.5641932659
 30
0.0
 40
0.2022874016
 41
0.0
 71
     1
 72
     1
  1
SOLIDWORKS Educational Product.
  7
SLDTEXTSTYLE4
  0
MTEXT
  5
3E8
330
1F
100
AcDbEntity
  8
0
  6
CONTINUOUS
 62
     7
100
AcDbMText
 10
0.0
 20
0.2607621635
 30
0.0
 40
0.2022874016
 41
0.0
 71
     1
 72
     1
  1
For Instructional Use Only.
  7
SLDTEXTSTYLE4
  0
ENDSEC
  0
SECTION
  2
OBJECTS
  0
DICTIONARY
  5
C
330
0
100
AcDbDictionary
  3
ACAD_GROUP
350
D
  3
ACAD_MLINESTYLE
350
17
  3
ACAD_SCALELIST
350
47
  3
DWGPROPS
350
3E9
1001
ACAD
1000
TREAT_AS_HARD
1070
     0
  0
DICTIONARY
  5
D
102
{ACAD_REACTORS
330
C
102
}
330
C
100
AcDbDictionary
1001
ACAD
1000
TREAT_AS_HARD
1070
     0
  0
DICTIONARY
  5
17
102
{ACAD_REACTORS
330
C
102
}
330
C
100
AcDbDictionary
  3
STANDARD
350
18
1001
ACAD
1000
TREAT_AS_HARD
1070
     0
  0
DICTIONARY
  5
47
102
{ACAD_REACTORS
330
C
102
}
330
C
100
AcDbDictionary
1001
ACAD
1000
TREAT_AS_HARD
1070
     0
  0
XRECORD
  5
3E9
102
{ACAD_REACTORS
330
C
102
}
330
C
100
AcDbXrecord
  1
DWGPROPS COOKIE
  2

  3

  4

  6

  7

  8
andre
  9

300
=
301
=
302
=
303
=
304
=
305
=
306
=
307
=
308
=
309
=
 40
0.0
 41
2459123.011581817
 42
2459123.011586759
  1

 90
        0
  0
MLINESTYLE
  5
18
102
{ACAD_REACTORS
330
17
102
}
330
17
100
AcDbMlineStyle
  2
Standard
 70
     0
  3

 62
   256
 51
90.0
 52
90.0
 71
     2
 49
0.5
 62
   256
  6
BYLAYER
 49
-0.5
 62
   256
  6
BYLAYER
  0
ENDSEC
  0
EOF
