  0
SECTION
  2
HEADER
  9
$ACADVER
  1
AC1012
  9
$DWGCODEPAGE
  3
ansi_1252
  9
$INSBASE
 10
0.0
 20
0.0
 30
0.0
  9
$EXTMIN
 10
0.0
 20
0.0
 30
0.0
  9
$EXTMAX
 10
16.5354330709
 20
11.6929133858
 30
0.0
  9
$LIMMIN
 10
0.0
 20
0.0
  9
$LIMMAX
 10
16.5354330709
 20
11.6929133858
  9
$ORTHOMODE
 70
     0
  9
$REGENMODE
 70
     1
  9
$FILLMODE
 70
     1
  9
$QTEXTMODE
 70
     0
  9
$MIRRTEXT
 70
     1
  9
$DRAGMODE
 70
     2
  9
$LTSCALE
 40
1.0
  9
$OSMODE
 70
    37
  9
$ATTMODE
 70
     1
  9
$TEXTSIZE
 40
0.125
  9
$TRACEWID
 40
0.05
  9
$TEXTSTYLE
  7
STANDARD
  9
$CLAYER
  8
0
  9
$CELTYPE
  6
BYLAYER
  9
$CECOLOR
 62
   256
  9
$CELTSCALE
 40
1.0
  9
$DELOBJ
 70
     1
  9
$DISPSILH
 70
     0
  9
$DIMSCALE
 40
1.0
  9
$DIMASZ
 40
0.13
  9
$DIMEXO
 40
0.05
  9
$DIMDLI
 40
0.38
  9
$DIMRND
 40
0.0
  9
$DIMDLE
 40
0.0
  9
$DIMEXE
 40
0.125
  9
$DIMTP
 40
0.0
  9
$DIMTM
 40
0.0
  9
$DIMTXT
 40
0.125
  9
$DIMCEN
 40
0.09
  9
$DIMTSZ
 40
0.0
  9
$DIMTOL
 70
     0
  9
$DIMLIM
 70
     0
  9
$DIMTIH
 70
     1
  9
$DIMTOH
 70
     1
  9
$DIMSE1
 70
     0
  9
$DIMSE2
 70
     0
  9
$DIMTAD
 70
     0
  9
$DIMZIN
 70
     1
  9
$DIMBLK
  1

  9
$DIMASO
 70
     1
  9
$DIMSHO
 70
     1
  9
$DIMPOST
  1

  9
$DIMAPOST
  1

  9
$DIMALT
 70
     0
  9
$DIMALTD
 70
     2
  9
$DIMALTF
 40
25.4
  9
$DIMLFAC
 40
1.0
  9
$DIMTOFL
 70
     0
  9
$DIMTVP
 40
0.0
  9
$DIMTIX
 70
     0
  9
$DIMSOXD
 70
     0
  9
$DIMSAH
 70
     0
  9
$DIMBLK1
  1

  9
$DIMBLK2
  1

  9
$DIMSTYLE
  2
STANDARD
  9
$DIMCLRD
 70
     0
  9
$DIMCLRE
 70
     0
  9
$DIMCLRT
 70
     0
  9
$DIMTFAC
 40
1.0
  9
$DIMGAP
 40
0.06
  9
$DIMJUST
 70
     0
  9
$DIMSD1
 70
     0
  9
$DIMSD2
 70
     0
  9
$DIMTOLJ
 70
     1
  9
$DIMTZIN
 70
     1
  9
$DIMALTZ
 70
     0
  9
$DIMALTTZ
 70
     0
  9
$DIMFIT
 70
     3
  9
$DIMUPT
 70
     0
  9
$DIMUNIT
 70
     2
  9
$DIMDEC
 70
     3
  9
$DIMTDEC
 70
     3
  9
$DIMALTU
 70
     2
  9
$DIMALTTD
 70
     2
  9
$DIMTXSTY
  7
STANDARD
  9
$DIMAUNIT
 70
     0
  9
$LUNITS
 70
     2
  9
$LUPREC
 70
     3
  9
$SKETCHINC
 40
0.1
  9
$FILLETRAD
 40
0.5
  9
$AUNITS
 70
     0
  9
$AUPREC
 70
     2
  9
$MENU
  1
.
  9
$ELEVATION
 40
0.0
  9
$PELEVATION
 40
0.0
  9
$THICKNESS
 40
0.0
  9
$LIMCHECK
 70
     0
  9
$CHAMFERA
 40
0.0
  9
$CHAMFERB
 40
0.0
  9
$CHAMFERC
 40
0.0
  9
$CHAMFERD
 40
0.0
  9
$SKPOLY
 70
     0
  9
$TDCREATE
 40
2459122.844977326
  9
$TDUPDATE
 40
2459122.844985648
  9
$TDINDWG
 40
0.0000000116
  9
$TDUSRTIMER
 40
0.0000000116
  9
$USRTIMER
 70
     1
  9
$ANGBASE
 50
0.0
  9
$ANGDIR
 70
     0
  9
$PDMODE
 70
     0
  9
$PDSIZE
 40
-1.0
  9
$PLINEWID
 40
0.0
  9
$COORDS
 70
     1
  9
$SPLFRAME
 70
     0
  9
$SPLINETYPE
 70
     6
  9
$SPLINESEGS
 70
     8
  9
$ATTDIA
 70
     0
  9
$ATTREQ
 70
     1
  9
$HANDLING
 70
     1
  9
$HANDSEED
  5
441
  9
$SURFTAB1
 70
     6
  9
$SURFTAB2
 70
     6
  9
$SURFTYPE
 70
     6
  9
$SURFU
 70
     6
  9
$SURFV
 70
     6
  9
$UCSNAME
  2

  9
$UCSORG
 10
0.0
 20
0.0
 30
0.0
  9
$UCSXDIR
 10
1.0
 20
0.0
 30
0.0
  9
$UCSYDIR
 10
0.0
 20
1.0
 30
0.0
  9
$PUCSNAME
  2

  9
$PUCSORG
 10
0.0
 20
0.0
 30
0.0
  9
$PUCSXDIR
 10
1.0
 20
0.0
 30
0.0
  9
$PUCSYDIR
 10
0.0
 20
1.0
 30
0.0
  9
$USERI1
 70
     0
  9
$USERI2
 70
     0
  9
$USERI3
 70
     0
  9
$USERI4
 70
     0
  9
$USERI5
 70
     0
  9
$USERR1
 40
0.0
  9
$USERR2
 40
0.0
  9
$USERR3
 40
0.0
  9
$USERR4
 40
0.0
  9
$USERR5
 40
0.0
  9
$WORLDVIEW
 70
     1
  9
$SHADEDGE
 70
     3
  9
$SHADEDIF
 70
    70
  9
$TILEMODE
 70
     1
  9
$MAXACTVP
 70
    64
  9
$PINSBASE
 10
0.0
 20
0.0
 30
0.0
  9
$PLIMCHECK
 70
     0
  9
$PEXTMIN
 10
1.0000000000E+20
 20
1.0000000000E+20
 30
1.0000000000E+20
  9
$PEXTMAX
 10
-1.0000000000E+20
 20
-1.0000000000E+20
 30
-1.0000000000E+20
  9
$PLIMMIN
 10
0.0
 20
0.0
  9
$PLIMMAX
 10
12.0
 20
9.0
  9
$UNITMODE
 70
     0
  9
$VISRETAIN
 70
     1
  9
$PLINEGEN
 70
     0
  9
$PSLTSCALE
 70
     1
  9
$TREEDEPTH
 70
  3020
  9
$PICKSTYLE
 70
     1
  9
$CMLSTYLE
  2
STANDARD
  9
$CMLJUST
 70
     0
  9
$CMLSCALE
 40
1.0
  9
$SAVEIMAGES
 70
     1
  0
ENDSEC
  0
SECTION
  2
CLASSES
  0
CLASS
  1
ACDBDICTIONARYWDFLT
  2
AcDbDictionaryWithDefault
  3
ObjectDBX Classes
 90
    32768
280
     0
281
     0
  0
CLASS
  1
VISUALSTYLE
  2
AcDbVisualStyle
  3
ObjectDBX Classes
 90
     4095
280
     0
281
     0
  0
CLASS
  1
MATERIAL
  2
AcDbMaterial
  3
ObjectDBX Classes
 90
     1153
280
     0
281
     0
  0
CLASS
  1
SCALE
  2
AcDbScale
  3
ObjectDBX Classes
 90
     1153
280
     0
281
     0
  0
CLASS
  1
TABLESTYLE
  2
AcDbTableStyle
  3
ObjectDBX Classes
 90
     4095
280
     0
281
     0
  0
CLASS
  1
MLEADERSTYLE
  2
AcDbMLeaderStyle
  3
ACDB_MLEADERSTYLE_CLASS
 90
     4095
280
     0
281
     0
  0
CLASS
  1
SUN
  2
AcDbSun
  3
SCENEOE
 90
     1153
280
     0
281
     0
  0
CLASS
  1
XRECORD
  2
AcDbXrecord
  3
ObjectDBX Classes
 90
    32768
280
     0
281
     0
  0
ENDSEC
  0
SECTION
  2
TABLES
  0
TABLE
  2
VPORT
  5
8
330
0
100
AcDbSymbolTable
 70
     1
  0
VPORT
  5
29
330
8
100
AcDbSymbolTableRecord
100
AcDbViewportTableRecord
  2
*ACTIVE
 70
     0
 10
0.0
 20
0.0
 11
1.0
 21
1.0
 12
8.2677165354
 22
5.8464566929
 13
0.0
 23
0.0
 14
0.5
 24
0.5
 15
0.5
 25
0.5
 16
0.0
 26
0.0
 36
1.0
 17
0.0
 27
0.0
 37
0.0
 40
11.6929133858
 41
1.4141414141
 42
50.0
 43
0.0
 44
0.0
 50
0.0
 51
0.0
 71
     0
 72
  2000
 73
     1
 74
     3
 75
     0
 76
     0
 77
     0
 78
     0
  0
ENDTAB
  0
TABLE
  2
LTYPE
  5
5
330
0
100
AcDbSymbolTable
 70
     8
  0
LTYPE
  5
14
330
5
100
AcDbSymbolTableRecord
100
AcDbLinetypeTableRecord
  2
BYBLOCK
 70
     0
  3

 72
    65
 73
     0
 40
0.0
  0
LTYPE
  5
15
330
5
100
AcDbSymbolTableRecord
100
AcDbLinetypeTableRecord
  2
BYLAYER
 70
     0
  3

 72
    65
 73
     0
 40
0.0
  0
LTYPE
  5
16
330
5
100
AcDbSymbolTableRecord
100
AcDbLinetypeTableRecord
  2
CONTINUOUS
 70
     0
  3
Solid line
 72
    65
 73
     0
 40
0.0
  0
LTYPE
  5
6E
330
5
100
AcDbSymbolTableRecord
100
AcDbLinetypeTableRecord
  2
SLD-SOLID
 70
     0
  3
SolidWorks Line Style
 72
    65
 73
     0
 40
0.0
  0
LTYPE
  5
6F
330
5
100
AcDbSymbolTableRecord
100
AcDbLinetypeTableRecord
  2
SLD-DASHED
 70
     0
  3
SolidWorks Line Style
 72
    65
 73
     2
 40
0.075
 49
0.05
 74
     0
 49
-0.025
 74
     0
  0
LTYPE
  5
70
330
5
100
AcDbSymbolTableRecord
100
AcDbLinetypeTableRecord
  2
SLD-PHANTOM
 70
     0
  3
SolidWorks Line Style
 72
    65
 73
     6
 40
0.5
 49
0.25
 74
     0
 49
-0.05
 74
     0
 49
0.05
 74
     0
 49
-0.05
 74
     0
 49
0.05
 74
     0
 49
-0.05
 74
     0
  0
LTYPE
  5
71
330
5
100
AcDbSymbolTableRecord
100
AcDbLinetypeTableRecord
  2
SLD-CHAIN
 70
     0
  3
SolidWorks Line Style
 72
    65
 73
     4
 40
0.4
 49
0.25
 74
     0
 49
-0.05
 74
     0
 49
0.05
 74
     0
 49
-0.05
 74
     0
  0
LTYPE
  5
72
330
5
100
AcDbSymbolTableRecord
100
AcDbLinetypeTableRecord
  2
SLD-CENTER
 70
     0
  3
SolidWorks Line Style
 72
    65
 73
     4
 40
0.75
 49
0.6
 74
     0
 49
-0.05
 74
     0
 49
0.05
 74
     0
 49
-0.05
 74
     0
  0
LTYPE
  5
73
330
5
100
AcDbSymbolTableRecord
100
AcDbLinetypeTableRecord
  2
SLD-STITCH
 70
     0
  3
SolidWorks Line Style
 72
    65
 73
     2
 40
0.025
 49
0.0
 74
     0
 49
-0.025
 74
     0
  0
LTYPE
  5
74
330
5
100
AcDbSymbolTableRecord
100
AcDbLinetypeTableRecord
  2
SLD-THIN-THICK-CHAIN
 70
     0
  3
SolidWorks Line Style
 72
    65
 73
     4
 40
0.4
 49
0.25
 74
     0
 49
-0.05
 74
     0
 49
0.05
 74
     0
 49
-0.05
 74
     0
  0
ENDTAB
  0
TABLE
  2
LAYER
  5
2
330
0
100
AcDbSymbolTable
 70
     2
  0
LAYER
  5
10
330
2
100
AcDbSymbolTableRecord
100
AcDbLayerTableRecord
  2
0
 70
     0
 62
     7
  6
CONTINUOUS
  0
LAYER
  5
75
330
2
100
AcDbSymbolTableRecord
100
AcDbLayerTableRecord
  2
FORMAT
 70
     0
 62
     7
  6
SLD-SOLID
  0
ENDTAB
  0
TABLE
  2
STYLE
  5
3
330
0
100
AcDbSymbolTable
 70
     8
  0
STYLE
  5
11
330
3
100
AcDbSymbolTableRecord
100
AcDbTextStyleTableRecord
  2
STANDARD
 70
     0
 40
0.0
 41
1.0
 50
0.0
 71
     0
 42
0.125
  3
txt
  4

  0
STYLE
  5
B6
330
3
100
AcDbSymbolTableRecord
100
AcDbTextStyleTableRecord
  2
SLDTEXTSTYLE0
 70
     0
 40
0.0
 41
0.75
 50
0.0
 71
     0
 42
0.125
  3
TXT
  4

  0
STYLE
  5
D7
330
3
100
AcDbSymbolTableRecord
100
AcDbTextStyleTableRecord
  2
SLDTEXTSTYLE1
 70
     0
 40
0.0
 41
0.6864493306
 50
0.0
 71
     0
 42
0.125
  3
TXT
  4

  0
STYLE
  5
F8
330
3
100
AcDbSymbolTableRecord
100
AcDbTextStyleTableRecord
  2
SLDTEXTSTYLE2
 70
     0
 40
0.0
 41
0.6875
 50
0.0
 71
     0
 42
0.125
  3
TXT
  4

  0
STYLE
  5
18F
330
3
100
AcDbSymbolTableRecord
100
AcDbTextStyleTableRecord
  2
SLDTEXTSTYLE3
 70
     0
 40
0.0
 41
0.6923076923
 50
0.0
 71
     0
 42
0.125
  3
TXT
  4

  0
STYLE
  5
19B
330
3
100
AcDbSymbolTableRecord
100
AcDbTextStyleTableRecord
  2
SLDTEXTSTYLE4
 70
     0
 40
0.0
 41
0.6666666667
 50
0.0
 71
     0
 42
0.125
  3
TXT
  4

  0
STYLE
  5
1B7
330
3
100
AcDbSymbolTableRecord
100
AcDbTextStyleTableRecord
  2
SLDTEXTSTYLE5
 70
     0
 40
0.0
 41
1.0
 50
0.0
 71
     0
 42
0.125
  3
TXT
  4

  0
STYLE
  5
3A5
330
3
100
AcDbSymbolTableRecord
100
AcDbTextStyleTableRecord
  2
SLDTEXTSTYLE6
 70
     0
 40
0.0
 41
0.7
 50
0.0
 71
     0
 42
0.125
  3
TXT
  4

  0
ENDTAB
  0
TABLE
  2
VIEW
  5
6
330
0
100
AcDbSymbolTable
 70
     0
  0
ENDTAB
  0
TABLE
  2
UCS
  5
7
330
0
100
AcDbSymbolTable
 70
     0
  0
ENDTAB
  0
TABLE
  2
APPID
  5
9
330
0
100
AcDbSymbolTable
 70
     1
  0
APPID
  5
12
330
9
100
AcDbSymbolTableRecord
100
AcDbRegAppTableRecord
  2
ACAD
 70
     0
  0
ENDTAB
  0
TABLE
  2
DIMSTYLE
  5
A
330
0
100
AcDbSymbolTable
 70
    14
  0
DIMSTYLE
105
27
330
A
100
AcDbSymbolTableRecord
100
AcDbDimStyleTableRecord
  2
STANDARD
 70
     0
  3

  4

  5

  6

  7

 40
1.0
 41
0.18
 42
0.0625
 43
0.38
 44
0.18
 45
0.0
 46
0.0
 47
0.0
 48
0.0
140
0.18
141
0.09
142
0.0
143
25.4
144
1.0
145
0.0
146
1.0
147
0.09
 71
     0
 72
     0
 73
     1
 74
     1
 75
     0
 76
     0
 77
     0
 78
     0
170
     0
171
     2
172
     0
173
     0
174
     0
175
     0
176
     0
177
     0
178
     0
270
     2
271
     4
272
     4
273
     2
274
     2
340
11
275
     0
280
     0
281
     0
282
     0
283
     1
284
     0
285
     0
286
     0
287
     3
288
     0
  0
DIMSTYLE
105
110
102
{ACAD_REACTORS
330
10F
102
}
330
A
100
AcDbSymbolTableRecord
100
AcDbDimStyleTableRecord
  2
SLDDIMSTYLE0
 70
     0
  3

  4

  5

  6
NONE
  7
NONE
 40
1.0
 41
0.13
 42
0.0625
 43
0.38
 44
0.0
 45
0.000000001
 46
0.0
 47
0.0
 48
0.0
140
0.125
141
0.09
142
0.0
143
25.4
144
1.0
145
0.0
146
1.0
147
-0.03125
 71
     0
 72
     0
 73
     1
 74
     1
 75
     0
 76
     0
 77
     0
 78
     4
170
     0
171
     2
172
     0
173
     1
174
     0
175
     0
176
     0
177
     0
178
     0
270
     2
271
     3
272
     3
273
     2
274
     2
340
B6
275
     0
280
     0
281
     0
282
     0
283
     1
284
     8
285
     0
286
     0
287
     3
288
     0
  0
DIMSTYLE
105
11E
102
{ACAD_REACTORS
330
11D
330
128
330
132
330
13C
330
146
330
150
330
15A
330
164
330
27A
330
286
330
290
330
29A
330
2A4
330
2AE
102
}
330
A
100
AcDbSymbolTableRecord
100
AcDbDimStyleTableRecord
  2
SLDDIMSTYLE1
 70
     0
  3

  4

  5

  6
NONE
  7
NONE
 40
1.0
 41
0.13
 42
0.0625
 43
0.38
 44
0.0
 45
0.000000001
 46
0.0
 47
0.0
 48
0.0
140
0.125
141
0.09
142
0.0
143
25.4
144
1.0
145
0.0
146
1.0
147
-0.03125
 71
     0
 72
     0
 73
     1
 74
     1
 75
     0
 76
     0
 77
     0
 78
    12
170
     0
171
     2
172
     0
173
     1
174
     0
175
     0
176
     0
177
     0
178
     0
270
     2
271
     3
272
     3
273
     2
274
     2
340
B6
275
     0
280
     0
281
     0
282
     0
283
     1
284
     8
285
     0
286
     0
287
     3
288
     0
  0
DIMSTYLE
105
16F
102
{ACAD_REACTORS
330
16E
102
}
330
A
100
AcDbSymbolTableRecord
100
AcDbDimStyleTableRecord
  2
SLDDIMSTYLE2
 70
     0
  3

  4

  5

  6

  7

 40
1.0
 41
0.13
 42
0.0625
 43
0.38
 44
0.0
 45
0.000000001
 46
0.0
 47
0.0
 48
0.0
140
0.125
141
0.09
142
0.0
143
25.4
144
1.0
145
0.0
146
1.0
147
0.03125
 71
     0
 72
     0
 73
     1
 74
     1
 75
     0
 76
     0
 77
     0
 78
     4
170
     0
171
     2
172
     0
173
     1
174
     0
175
     0
176
     0
177
     0
178
     0
270
     2
271
     3
272
     3
273
     2
274
     2
340
B6
275
     0
280
     0
281
     0
282
     0
283
     1
284
    12
285
     0
286
     0
287
     3
288
     0
  0
DIMSTYLE
105
17C
102
{ACAD_REACTORS
330
17B
102
}
330
A
100
AcDbSymbolTableRecord
100
AcDbDimStyleTableRecord
  2
SLDDIMSTYLE3
 70
     0
  3

  4

  5

  6

  7

 40
1.0
 41
0.13
 42
0.0625
 43
0.38
 44
0.0
 45
0.000000001
 46
0.0
 47
0.0
 48
0.0
140
0.125
141
0.0
142
0.0
143
25.4
144
1.0
145
0.0
146
1.0
147
0.03125
 71
     0
 72
     0
 73
     1
 74
     1
 75
     0
 76
     0
 77
     0
 78
    12
170
     0
171
     2
172
     0
173
     1
174
     0
175
     0
176
     0
177
     0
178
     0
270
     2
271
     3
272
     3
273
     2
274
     2
340
B6
275
     0
280
     0
281
     0
282
     0
283
     1
284
    12
285
     0
286
     0
287
     3
288
     0
  0
DIMSTYLE
105
194
102
{ACAD_REACTORS
330
193
102
}
330
A
100
AcDbSymbolTableRecord
100
AcDbDimStyleTableRecord
  2
SLDDIMSTYLE4
 70
     0
  3

  4

  5

  6

  7

 40
1.0
 41
0.13
 42
0.0625
 43
0.38
 44
0.0
 45
0.000000001
 46
0.0
 47
0.0
 48
0.001
140
0.125
141
0.0
142
0.0
143
25.4
144
1.0
145
0.0
146
1.0
147
0.03125
 71
     1
 72
     0
 73
     1
 74
     1
 75
     0
 76
     0
 77
     0
 78
     4
170
     0
171
     2
172
     0
173
     1
174
     0
175
     0
176
     0
177
     0
178
     0
270
     2
271
     4
272
     3
273
     2
274
     2
340
B6
275
     0
280
     0
281
     0
282
     0
283
     1
284
     0
285
     0
286
     0
287
     3
288
     0
  0
DIMSTYLE
105
1A8
102
{ACAD_REACTORS
330
1A7
330
2C3
102
}
330
A
100
AcDbSymbolTableRecord
100
AcDbDimStyleTableRecord
  2
SLDDIMSTYLE5
 70
     0
  3

  4

  5

  6

  7

 40
1.0
 41
0.13
 42
0.0625
 43
0.38
 44
0.0
 45
0.000000001
 46
0.0
 47
0.0
 48
0.0
140
0.125
141
0.09
142
0.0
143
25.4
144
1.0
145
0.0
146
1.0
147
-0.03125
 71
     0
 72
     0
 73
     1
 74
     1
 75
     0
 76
     0
 77
     0
 78
    12
170
     0
171
     2
172
     1
173
     1
174
     0
175
     0
176
     0
177
     0
178
     0
270
     2
271
     3
272
     3
273
     2
274
     2
340
B6
275
     0
280
     0
281
     0
282
     0
283
     1
284
     8
285
     0
286
     0
288
     0
  0
DIMSTYLE
105
1B8
102
{ACAD_REACTORS
330
1B9
330
1BA
330
1BD
330
1C0
330
24C
330
24E
330
250
330
2D1
102
}
330
A
100
AcDbSymbolTableRecord
100
AcDbDimStyleTableRecord
  2
SLDDIMSTYLE6
 70
     0
  3

  4

  5

  6
NONE
  7
NONE
 40
1.0
 41
0.0
 42
0.0625
 43
0.38
 44
0.0
 45
0.000000001
 46
0.0
 47
0.0
 48
0.0
140
0.125
141
0.09
142
0.0
143
25.4
144
1.0
145
0.0
146
1.0
147
0.03125
 71
     0
 72
     0
 73
     1
 74
     1
 75
     0
 76
     0
 77
     0
 78
     0
170
     0
171
     2
172
     0
173
     1
174
     0
175
     0
176
     0
177
     0
178
     0
270
     2
271
     0
272
     0
273
     2
274
     2
340
1B7
275
     0
280
     0
281
     0
282
     0
283
     1
284
     0
285
     0
286
     0
287
     3
288
     0
  0
DIMSTYLE
105
1BB
330
A
100
AcDbSymbolTableRecord
100
AcDbDimStyleTableRecord
  2
SLDDIMSTYLE7
 70
     0
  3

  4

  5

  6
NONE
  7
NONE
 40
1.0
 41
0.13
 42
0.0625
 43
0.38
 44
0.0
 45
0.000000001
 46
0.0
 47
0.0
 48
0.0
140
0.18
141
0.09
142
0.0
143
25.4
144
1.0
145
0.0
146
0.13
147
0.0
 71
     0
 72
     0
 73
     1
 74
     1
 75
     0
 76
     0
 77
     0
 78
     0
170
     0
171
     2
172
     0
173
     1
174
     0
175
     0
176
     0
177
     0
178
     0
270
     2
271
     0
272
     0
273
     2
274
     2
340
11
275
     0
280
     0
281
     0
282
     0
283
     1
284
     0
285
     0
286
     0
287
     3
288
     0
  0
DIMSTYLE
105
1BE
330
A
100
AcDbSymbolTableRecord
100
AcDbDimStyleTableRecord
  2
SLDDIMSTYLE8
 70
     0
  3

  4

  5

  6

  7

 40
1.0
 41
0.13
 42
0.0625
 43
0.38
 44
0.0
 45
0.000000001
 46
0.0
 47
0.0
 48
0.0
140
0.18
141
0.09
142
0.0
143
25.4
144
1.0
145
0.0
146
0.13
147
0.0
 71
     0
 72
     0
 73
     1
 74
     1
 75
     0
 76
     0
 77
     0
 78
     0
170
     0
171
     2
172
     0
173
     1
174
     0
175
     0
176
     0
177
     0
178
     0
270
     2
271
     0
272
     0
273
     2
274
     2
340
11
275
     0
280
     0
281
     0
282
     0
283
     1
284
     0
285
     0
286
     0
287
     3
288
     0
  0
DIMSTYLE
105
270
102
{ACAD_REACTORS
330
26F
102
}
330
A
100
AcDbSymbolTableRecord
100
AcDbDimStyleTableRecord
  2
SLDDIMSTYLE9
 70
     0
  3

  4

  5

  6
NONE
  7
NONE
 40
1.0
 41
0.13
 42
0.0625
 43
0.38
 44
0.0
 45
0.000000001
 46
0.0
 47
0.0
 48
0.0
140
0.125
141
0.09
142
0.0
143
25.4
144
1.0
145
0.0
146
1.0
147
-0.03125
 71
     0
 72
     0
 73
     1
 74
     1
 75
     0
 76
     0
 77
     0
 78
     4
170
     0
171
     2
172
     0
173
     1
174
     0
175
     0
176
     0
177
     0
178
     0
270
     2
271
     3
272
     3
273
     2
274
     2
340
B6
275
     0
280
     0
281
     0
282
     0
283
     1
284
     8
285
     0
286
     0
287
     3
288
     0
  0
DIMSTYLE
105
2B9
102
{ACAD_REACTORS
330
2B8
102
}
330
A
100
AcDbSymbolTableRecord
100
AcDbDimStyleTableRecord
  2
SLDDIMSTYLE10
 70
     0
  3

  4

  5

  6
NONE
  7
NONE
 40
1.0
 41
0.13
 42
0.0625
 43
0.38
 44
0.0
 45
0.000000001
 46
0.0
 47
0.0
 48
0.0
140
0.125
141
0.09
142
0.0
143
25.4
144
1.0
145
0.0
146
1.0
147
-0.03125
 71
     0
 72
     0
 73
     1
 74
     1
 75
     0
 76
     0
 77
     0
 78
    12
170
     0
171
     2
172
     0
173
     1
174
     0
175
     0
176
     0
177
     0
178
     0
270
     2
271
     3
272
     3
273
     2
274
     2
340
B6
275
     0
280
     0
281
     0
282
     0
283
     1
284
     8
285
     0
286
     0
287
     3
288
     0
  0
DIMSTYLE
105
384
102
{ACAD_REACTORS
330
383
102
}
330
A
100
AcDbSymbolTableRecord
100
AcDbDimStyleTableRecord
  2
SLDDIMSTYLE11
 70
     0
  3

  4

  5

  6

  7

 40
1.0
 41
0.13
 42
0.0625
 43
0.38
 44
0.0
 45
0.0
 46
0.0
 47
0.0
 48
0.0
140
0.125
141
0.09
142
0.0
143
25.4
144
1.0
145
0.0
146
1.0
147
0.03125
 71
     0
 72
     0
 73
     1
 74
     1
 75
     0
 76
     0
 77
     0
 78
    12
170
     0
171
     2
172
     0
173
     1
174
     0
175
     0
176
     0
177
     0
178
     0
179
     2
270
     2
271
     4
272
     2
273
     2
274
     2
340
B6
275
     0
280
     0
281
     0
282
     0
283
     1
284
    12
285
     0
286
     0
287
     3
288
     0
  0
DIMSTYLE
105
38F
102
{ACAD_REACTORS
330
38E
102
}
330
A
100
AcDbSymbolTableRecord
100
AcDbDimStyleTableRecord
  2
SLDDIMSTYLE12
 70
     0
  3

  4

  5

  6

  7

 40
1.0
 41
0.13
 42
0.0625
 43
0.38
 44
0.0
 45
0.000000001
 46
0.0
 47
0.0
 48
0.0
140
0.125
141
0.09
142
0.0
143
25.4
144
1.0
145
0.0
146
1.0
147
0.03125
 71
     0
 72
     0
 73
     1
 74
     1
 75
     0
 76
     0
 77
     0
 78
    12
170
     0
171
     2
172
     1
173
     1
174
     0
175
     0
176
     0
177
     0
178
     0
270
     2
271
     3
272
     3
273
     2
274
     2
340
B6
275
     0
280
     0
281
     0
282
     0
283
     1
284
    12
285
     0
286
     0
288
     0
  0
ENDTAB
  0
TABLE
  2
BLOCK_RECORD
  5
1
330
0
100
AcDbSymbolTable
 70
    55
  0
BLOCK_RECORD
  5
1F
330
1
100
AcDbSymbolTableRecord
100
AcDbBlockTableRecord
  2
*MODEL_SPACE
  0
BLOCK_RECORD
  5
1B
330
1
100
AcDbSymbolTableRecord
100
AcDbBlockTableRecord
  2
*PAPER_SPACE
  0
BLOCK_RECORD
  5
23
330
1
100
AcDbSymbolTableRecord
100
AcDbBlockTableRecord
  2
*PAPER_SPACE0
  0
BLOCK_RECORD
  5
B3
330
1
100
AcDbSymbolTableRecord
100
AcDbBlockTableRecord
  2
SW_NOTE_0
  0
BLOCK_RECORD
  5
DD
330
1
100
AcDbSymbolTableRecord
100
AcDbBlockTableRecord
  2
SW_NOTE_0_1
  0
BLOCK_RECORD
  5
E8
330
1
100
AcDbSymbolTableRecord
100
AcDbBlockTableRecord
  2
SW_NOTE_0_2
  0
BLOCK_RECORD
  5
111
330
1
100
AcDbSymbolTableRecord
100
AcDbBlockTableRecord
  2
_NONE
  0
BLOCK_RECORD
  5
114
330
1
100
AcDbSymbolTableRecord
100
AcDbBlockTableRecord
  2
_D
  0
BLOCK_RECORD
  5
11F
330
1
100
AcDbSymbolTableRecord
100
AcDbBlockTableRecord
  2
_D_1
  0
BLOCK_RECORD
  5
129
330
1
100
AcDbSymbolTableRecord
100
AcDbBlockTableRecord
  2
_D_2
  0
BLOCK_RECORD
  5
133
330
1
100
AcDbSymbolTableRecord
100
AcDbBlockTableRecord
  2
_D_3
  0
BLOCK_RECORD
  5
13D
330
1
100
AcDbSymbolTableRecord
100
AcDbBlockTableRecord
  2
_D_4
  0
BLOCK_RECORD
  5
147
330
1
100
AcDbSymbolTableRecord
100
AcDbBlockTableRecord
  2
_D_5
  0
BLOCK_RECORD
  5
151
330
1
100
AcDbSymbolTableRecord
100
AcDbBlockTableRecord
  2
_D_6
  0
BLOCK_RECORD
  5
15B
330
1
100
AcDbSymbolTableRecord
100
AcDbBlockTableRecord
  2
_D_7
  0
BLOCK_RECORD
  5
165
330
1
100
AcDbSymbolTableRecord
100
AcDbBlockTableRecord
  2
_D_8
  0
BLOCK_RECORD
  5
170
330
1
100
AcDbSymbolTableRecord
100
AcDbBlockTableRecord
  2
_D_9
  0
BLOCK_RECORD
  5
17D
330
1
100
AcDbSymbolTableRecord
100
AcDbBlockTableRecord
  2
_D_10
  0
BLOCK_RECORD
  5
186
330
1
100
AcDbSymbolTableRecord
100
AcDbBlockTableRecord
  2
SW_SYMBOL_HOLE_DEPTH
  0
BLOCK_RECORD
  5
195
330
1
100
AcDbSymbolTableRecord
100
AcDbBlockTableRecord
  2
_D_11
  0
BLOCK_RECORD
  5
1A9
330
1
100
AcDbSymbolTableRecord
100
AcDbBlockTableRecord
  2
_D_12
  0
BLOCK_RECORD
  5
1C2
330
1
100
AcDbSymbolTableRecord
100
AcDbBlockTableRecord
  2
SW_CENTERMARKSYMBOL_0
  0
BLOCK_RECORD
  5
1CE
330
1
100
AcDbSymbolTableRecord
100
AcDbBlockTableRecord
  2
SW_CENTERMARKSYMBOL_1
  0
BLOCK_RECORD
  5
1DA
330
1
100
AcDbSymbolTableRecord
100
AcDbBlockTableRecord
  2
SW_CENTERMARKSYMBOL_2
  0
BLOCK_RECORD
  5
1E6
330
1
100
AcDbSymbolTableRecord
100
AcDbBlockTableRecord
  2
SW_CENTERMARKSYMBOL_3
  0
BLOCK_RECORD
  5
1F2
330
1
100
AcDbSymbolTableRecord
100
AcDbBlockTableRecord
  2
SW_CENTERMARKSYMBOL_4
  0
BLOCK_RECORD
  5
208
330
1
100
AcDbSymbolTableRecord
100
AcDbBlockTableRecord
  2
SW_DATUMTAG_0
  0
BLOCK_RECORD
  5
213
330
1
100
AcDbSymbolTableRecord
100
AcDbBlockTableRecord
  2
SW_DATUMTAG_1
  0
BLOCK_RECORD
  5
21E
330
1
100
AcDbSymbolTableRecord
100
AcDbBlockTableRecord
  2
SW_DOWELSYMBOL_0
  0
BLOCK_RECORD
  5
225
330
1
100
AcDbSymbolTableRecord
100
AcDbBlockTableRecord
  2
SW_DOWELSYMBOL_1
  0
BLOCK_RECORD
  5
252
330
1
100
AcDbSymbolTableRecord
100
AcDbBlockTableRecord
  2
SW_DATUMTAG_2
  0
BLOCK_RECORD
  5
271
330
1
100
AcDbSymbolTableRecord
100
AcDbBlockTableRecord
  2
_D_13
  0
BLOCK_RECORD
  5
27B
330
1
100
AcDbSymbolTableRecord
100
AcDbBlockTableRecord
  2
_D_14
  0
BLOCK_RECORD
  5
287
330
1
100
AcDbSymbolTableRecord
100
AcDbBlockTableRecord
  2
_D_15
  0
BLOCK_RECORD
  5
291
330
1
100
AcDbSymbolTableRecord
100
AcDbBlockTableRecord
  2
_D_16
  0
BLOCK_RECORD
  5
29B
330
1
100
AcDbSymbolTableRecord
100
AcDbBlockTableRecord
  2
_D_17
  0
BLOCK_RECORD
  5
2A5
330
1
100
AcDbSymbolTableRecord
100
AcDbBlockTableRecord
  2
_D_18
  0
BLOCK_RECORD
  5
2AF
330
1
100
AcDbSymbolTableRecord
100
AcDbBlockTableRecord
  2
_D_19
  0
BLOCK_RECORD
  5
2BA
330
1
100
AcDbSymbolTableRecord
100
AcDbBlockTableRecord
  2
_D_20
  0
BLOCK_RECORD
  5
2C4
330
1
100
AcDbSymbolTableRecord
100
AcDbBlockTableRecord
  2
_D_21
  0
BLOCK_RECORD
  5
2D4
330
1
100
AcDbSymbolTableRecord
100
AcDbBlockTableRecord
  2
SW_CENTERMARKSYMBOL_5
  0
BLOCK_RECORD
  5
2E0
330
1
100
AcDbSymbolTableRecord
100
AcDbBlockTableRecord
  2
SW_CENTERMARKSYMBOL_6
  0
BLOCK_RECORD
  5
2EC
330
1
100
AcDbSymbolTableRecord
100
AcDbBlockTableRecord
  2
SW_CENTERMARKSYMBOL_7
  0
BLOCK_RECORD
  5
2F8
330
1
100
AcDbSymbolTableRecord
100
AcDbBlockTableRecord
  2
SW_CENTERMARKSYMBOL_8
  0
BLOCK_RECORD
  5
304
330
1
100
AcDbSymbolTableRecord
100
AcDbBlockTableRecord
  2
SW_CENTERMARKSYMBOL_9
  0
BLOCK_RECORD
  5
31A
330
1
100
AcDbSymbolTableRecord
100
AcDbBlockTableRecord
  2
SW_DOWELSYMBOL_2
  0
BLOCK_RECORD
  5
321
330
1
100
AcDbSymbolTableRecord
100
AcDbBlockTableRecord
  2
SW_DOWELSYMBOL_3
  0
BLOCK_RECORD
  5
385
330
1
100
AcDbSymbolTableRecord
100
AcDbBlockTableRecord
  2
_D_22
  0
BLOCK_RECORD
  5
390
330
1
100
AcDbSymbolTableRecord
100
AcDbBlockTableRecord
  2
_D_23
  0
BLOCK_RECORD
  5
3A9
330
1
100
AcDbSymbolTableRecord
100
AcDbBlockTableRecord
  2
*U47
  0
BLOCK_RECORD
  5
3B9
330
1
100
AcDbSymbolTableRecord
100
AcDbBlockTableRecord
  2
*U48
  0
BLOCK_RECORD
  5
3CB
330
1
100
AcDbSymbolTableRecord
100
AcDbBlockTableRecord
  2
*U49
  0
BLOCK_RECORD
  5
3DB
330
1
100
AcDbSymbolTableRecord
100
AcDbBlockTableRecord
  2
*U50
  0
BLOCK_RECORD
  5
3ED
330
1
100
AcDbSymbolTableRecord
100
AcDbBlockTableRecord
  2
*U51
  0
BLOCK_RECORD
  5
3FD
330
1
100
AcDbSymbolTableRecord
100
AcDbBlockTableRecord
  2
*U52
  0
BLOCK_RECORD
  5
40F
330
1
100
AcDbSymbolTableRecord
100
AcDbBlockTableRecord
  2
*U53
  0
BLOCK_RECORD
  5
41F
330
1
100
AcDbSymbolTableRecord
100
AcDbBlockTableRecord
  2
*U54
  0
ENDTAB
  0
ENDSEC
  0
SECTION
  2
BLOCKS
  0
BLOCK
  5
20
330
1F
100
AcDbEntity
  8
0
100
AcDbBlockBegin
  2
*MODEL_SPACE
 70
     0
 10
0.0
 20
0.0
 30
0.0
  3
*MODEL_SPACE
  1

  0
ENDBLK
  5
21
330
1F
100
AcDbEntity
  8
0
100
AcDbBlockEnd
  0
BLOCK
  5
1C
330
1B
100
AcDbEntity
 67
     1
  8
0
100
AcDbBlockBegin
  2
*PAPER_SPACE
 70
     0
 10
0.0
 20
0.0
 30
0.0
  3
*PAPER_SPACE
  1

  0
ENDBLK
  5
1D
330
1B
100
AcDbEntity
 67
     1
  8
0
100
AcDbBlockEnd
  0
BLOCK
  5
24
330
23
100
AcDbEntity
  8
0
100
AcDbBlockBegin
  2
*PAPER_SPACE0
 70
     0
 10
0.0
 20
0.0
 30
0.0
  3
*PAPER_SPACE0
  1

  0
ENDBLK
  5
25
330
23
100
AcDbEntity
  8
0
100
AcDbBlockEnd
  0
BLOCK
  5
B4
330
B3
100
AcDbEntity
  8
0
100
AcDbBlockBegin
  2
SW_NOTE_0
 70
     0
 10
0.0
 20
0.0
 30
0.0
  3
SW_NOTE_0
  1

  0
MTEXT
  5
B7
330
B3
100
AcDbEntity
  8
0
  6
CONTINUOUS
 62
     0
100
AcDbMText
 10
0.0
 20
0.1611334675
 30
0.0
 40
0.125
 41
0.0
 71
     1
 72
     1
  1
NOTES:
  7
SLDTEXTSTYLE0
  0
MTEXT
  5
B8
330
B3
100
AcDbEntity
  8
0
  6
CONTINUOUS
 62
     0
100
AcDbMText
 10
0.0
 20
-0.1676066816
 30
0.0
 40
0.125
 41
0.0
 71
     1
 72
     1
  1
TOLERANCING PER ASME 14.5Y-2009
  7
SLDTEXTSTYLE0
  0
MTEXT
  5
B9
330
B3
100
AcDbEntity
  8
0
  6
CONTINUOUS
 62
     0
100
AcDbMText
 10
0.0
 20
-0.3319767561
 30
0.0
 40
0.125
 41
0.0
 71
     1
 72
     1
  1
MATERIAL - AISI 316
  7
SLDTEXTSTYLE0
  0
ENDBLK
  5
B5
330
B3
100
AcDbEntity
  8
0
100
AcDbBlockEnd
  0
BLOCK
  5
DE
330
DD
100
AcDbEntity
  8
0
100
AcDbBlockBegin
  2
SW_NOTE_0_1
 70
     0
 10
0.0
 20
0.0
 30
0.0
  3
SW_NOTE_0_1
  1

  0
MTEXT
  5
E0
330
DD
100
AcDbEntity
  8
0
  6
CONTINUOUS
 62
     0
100
AcDbMText
 10
0.0
 20
0.0761260476
 30
0.0
 40
0.0590551181
 41
0.0
 71
     1
 72
     1
  1
UNLESS OTHERWISE SPECIFIED:
  7
SLDTEXTSTYLE0
  0
MTEXT
  5
E1
330
DD
100
AcDbEntity
  8
0
  6
CONTINUOUS
 62
     0
100
AcDbMText
 10
0.0
 20
-0.022299147
 30
0.0
 40
0.0590551181
 41
0.0
 71
     1
 72
     1
  1
DIMENSIONS ARE IN MILLIMETERS
  7
SLDTEXTSTYLE0
  0
MTEXT
  5
E2
330
DD
100
AcDbEntity
  8
0
  6
CONTINUOUS
 62
     0
100
AcDbMText
 10
0.0
 20
-0.1207243417
 30
0.0
 40
0.0590551181
 41
0.0
 71
     1
 72
     1
  1
SURFACE FINISH:
  7
SLDTEXTSTYLE0
  0
MTEXT
  5
E3
330
DD
100
AcDbEntity
  8
0
  6
CONTINUOUS
 62
     0
100
AcDbMText
 10
0.0
 20
-0.2191495363
 30
0.0
 40
0.0590551181
 41
0.0
 71
     1
 72
     1
  1
TOLERANCES:
  7
SLDTEXTSTYLE0
  0
MTEXT
  5
E4
330
DD
100
AcDbEntity
  8
0
  6
CONTINUOUS
 62
     0
100
AcDbMText
 10
0.0664370079
 20
-0.317574731
 30
0.0
 40
0.0590551181
 41
0.0
 71
     1
 72
     1
  1
LINEAR:
  7
SLDTEXTSTYLE0
  0
MTEXT
  5
E5
330
DD
100
AcDbEntity
  8
0
  6
CONTINUOUS
 62
     0
100
AcDbMText
 10
0.0664370079
 20
-0.4159999256
 30
0.0
 40
0.0590551181
 41
0.0
 71
     1
 72
     1
  1
ANGULAR:
  7
SLDTEXTSTYLE0
  0
ENDBLK
  5
DF
330
DD
100
AcDbEntity
  8
0
100
AcDbBlockEnd
  0
BLOCK
  5
E9
330
E8
100
AcDbEntity
  8
0
100
AcDbBlockBegin
  2
SW_NOTE_0_2
 70
     0
 10
0.0
 20
0.0
 30
0.0
  3
SW_NOTE_0_2
  1

  0
MTEXT
  5
EB
330
E8
100
AcDbEntity
  8
0
  6
CONTINUOUS
 62
     0
100
AcDbMText
 10
0.0
 20
0.0761260476
 30
0.0
 40
0.0590551181
 41
0.0
 71
     1
 72
     1
  1
DEBURR AND
  7
SLDTEXTSTYLE0
  0
MTEXT
  5
EC
330
E8
100
AcDbEntity
  8
0
  6
CONTINUOUS
 62
     0
100
AcDbMText
 10
0.0
 20
-0.022299147
 30
0.0
 40
0.0590551181
 41
0.0
 71
     1
 72
     1
  1
BREAK SHARP
  7
SLDTEXTSTYLE0
  0
MTEXT
  5
ED
330
E8
100
AcDbEntity
  8
0
  6
CONTINUOUS
 62
     0
100
AcDbMText
 10
0.0
 20
-0.1207243417
 30
0.0
 40
0.0590551181
 41
0.0
 71
     1
 72
     1
  1
EDGES
  7
SLDTEXTSTYLE0
  0
ENDBLK
  5
EA
330
E8
100
AcDbEntity
  8
0
100
AcDbBlockEnd
  0
BLOCK
  5
112
330
111
100
AcDbEntity
  8
0
100
AcDbBlockBegin
  2
_NONE
 70
     0
 10
0.0
 20
0.0
 30
0.0
  3
_NONE
  1

  0
ENDBLK
  5
113
330
111
100
AcDbEntity
  8
0
100
AcDbBlockEnd
  0
BLOCK
  5
115
330
114
100
AcDbEntity
  8
0
100
AcDbBlockBegin
  2
_D
 70
     0
 10
0.0
 20
0.0
 30
0.0
  3
_D
  1

  0
LINE
  5
117
330
114
100
AcDbEntity
  8
0
  6
SLD-SOLID
 62
     7
100
AcDbLine
 10
5.3984931373
 20
3.2622071265
 30
0.0
 11
5.3984931373
 21
3.4606446325
 31
0.0
  0
LINE
  5
118
330
114
100
AcDbEntity
  8
0
  6
SLD-SOLID
 62
     7
100
AcDbLine
 10
5.3984931373
 20
3.4606446325
 30
0.0
 11
5.7979289082
 21
3.4606446325
 31
0.0
  0
LINE
  5
119
330
114
100
AcDbEntity
  8
0
  6
SLD-SOLID
 62
     7
100
AcDbLine
 10
5.7979289082
 20
3.4606446325
 30
0.0
 11
5.7979289082
 21
3.2622071265
 31
0.0
  0
LINE
  5
11A
330
114
100
AcDbEntity
  8
0
  6
SLD-SOLID
 62
     7
100
AcDbLine
 10
5.7979289082
 20
3.2622071265
 30
0.0
 11
5.3984931373
 21
3.2622071265
 31
0.0
  0
LINE
  5
11B
330
114
100
AcDbEntity
  8
0
  6
SLD-SOLID
 62
     7
100
AcDbLine
 10
6.1543249984
 20
3.3614258795
 30
0.0
 11
5.810624211
 21
3.3614258795
 31
0.0
  0
MTEXT
  5
11C
330
114
100
AcDbEntity
  8
0
  6
SLD-SOLID
 62
     7
100
AcDbMText
 10
5.4365790733
 20
3.4233406078
 30
0.0
 40
0.125
 41
0.0
 71
     1
 72
     1
  1
.000
  7
SLDTEXTSTYLE0
  0
ENDBLK
  5
116
330
114
100
AcDbEntity
  8
0
100
AcDbBlockEnd
  0
BLOCK
  5
120
330
11F
100
AcDbEntity
  8
0
100
AcDbBlockBegin
  2
_D_1
 70
     0
 10
0.0
 20
0.0
 30
0.0
  3
_D_1
  1

  0
LINE
  5
122
330
11F
100
AcDbEntity
  8
0
  6
SLD-SOLID
 62
     7
100
AcDbLine
 10
5.3984931373
 20
4.2464590951
 30
0.0
 11
5.3984931373
 21
4.444896601
 31
0.0
  0
LINE
  5
123
330
11F
100
AcDbEntity
  8
0
  6
SLD-SOLID
 62
     7
100
AcDbLine
 10
5.3984931373
 20
4.444896601
 30
0.0
 11
5.7979289082
 21
4.444896601
 31
0.0
  0
LINE
  5
124
330
11F
100
AcDbEntity
  8
0
  6
SLD-SOLID
 62
     7
100
AcDbLine
 10
5.7979289082
 20
4.444896601
 30
0.0
 11
5.7979289082
 21
4.2464590951
 31
0.0
  0
LINE
  5
125
330
11F
100
AcDbEntity
  8
0
  6
SLD-SOLID
 62
     7
100
AcDbLine
 10
5.7979289082
 20
4.2464590951
 30
0.0
 11
5.3984931373
 21
4.2464590951
 31
0.0
  0
LINE
  5
126
330
11F
100
AcDbEntity
  8
0
  6
SLD-SOLID
 62
     7
100
AcDbLine
 10
6.1910494079
 20
4.345677848
 30
0.0
 11
5.810624211
 21
4.345677848
 31
0.0
  0
MTEXT
  5
127
330
11F
100
AcDbEntity
  8
0
  6
SLD-SOLID
 62
     7
100
AcDbMText
 10
5.4365790733
 20
4.4075925763
 30
0.0
 40
0.125
 41
0.0
 71
     1
 72
     1
  1
.984
  7
SLDTEXTSTYLE0
  0
ENDBLK
  5
121
330
11F
100
AcDbEntity
  8
0
100
AcDbBlockEnd
  0
BLOCK
  5
12A
330
129
100
AcDbEntity
  8
0
100
AcDbBlockBegin
  2
_D_2
 70
     0
 10
0.0
 20
0.0
 30
0.0
  3
_D_2
  1

  0
LINE
  5
12C
330
129
100
AcDbEntity
  8
0
  6
SLD-SOLID
 62
     7
100
AcDbLine
 10
5.3061320443
 20
4.7385850793
 30
0.0
 11
5.3061320443
 21
4.9370225853
 31
0.0
  0
LINE
  5
12D
330
129
100
AcDbEntity
  8
0
  6
SLD-SOLID
 62
     7
100
AcDbLine
 10
5.3061320443
 20
4.9370225853
 30
0.0
 11
5.7979289082
 21
4.9370225853
 31
0.0
  0
LINE
  5
12E
330
129
100
AcDbEntity
  8
0
  6
SLD-SOLID
 62
     7
100
AcDbLine
 10
5.7979289082
 20
4.9370225853
 30
0.0
 11
5.7979289082
 21
4.7385850793
 31
0.0
  0
LINE
  5
12F
330
129
100
AcDbEntity
  8
0
  6
SLD-SOLID
 62
     7
100
AcDbLine
 10
5.7979289082
 20
4.7385850793
 30
0.0
 11
5.3061320443
 21
4.7385850793
 31
0.0
  0
LINE
  5
130
330
129
100
AcDbEntity
  8
0
  6
SLD-SOLID
 62
     7
100
AcDbLine
 10
6.3590494079
 20
4.8378038323
 30
0.0
 11
5.810624211
 21
4.8378038323
 31
0.0
  0
MTEXT
  5
131
330
129
100
AcDbEntity
  8
0
  6
SLD-SOLID
 62
     7
100
AcDbMText
 10
5.3442179802
 20
4.8997185605
 30
0.0
 40
0.125
 41
0.0
 71
     1
 72
     1
  1
1.476
  7
SLDTEXTSTYLE0
  0
ENDBLK
  5
12B
330
129
100
AcDbEntity
  8
0
100
AcDbBlockEnd
  0
BLOCK
  5
134
330
133
100
AcDbEntity
  8
0
100
AcDbBlockBegin
  2
_D_3
 70
     0
 10
0.0
 20
0.0
 30
0.0
  3
_D_3
  1

  0
LINE
  5
136
330
133
100
AcDbEntity
  8
0
  6
SLD-SOLID
 62
     7
100
AcDbLine
 10
5.3061320443
 20
5.2307110636
 30
0.0
 11
5.3061320443
 21
5.4291485695
 31
0.0
  0
LINE
  5
137
330
133
100
AcDbEntity
  8
0
  6
SLD-SOLID
 62
     7
100
AcDbLine
 10
5.3061320443
 20
5.4291485695
 30
0.0
 11
5.7979289082
 21
5.4291485695
 31
0.0
  0
LINE
  5
138
330
133
100
AcDbEntity
  8
0
  6
SLD-SOLID
 62
     7
100
AcDbLine
 10
5.7979289082
 20
5.4291485695
 30
0.0
 11
5.7979289082
 21
5.2307110636
 31
0.0
  0
LINE
  5
139
330
133
100
AcDbEntity
  8
0
  6
SLD-SOLID
 62
     7
100
AcDbLine
 10
5.7979289082
 20
5.2307110636
 30
0.0
 11
5.3061320443
 21
5.2307110636
 31
0.0
  0
LINE
  5
13A
330
133
100
AcDbEntity
  8
0
  6
SLD-SOLID
 62
     7
100
AcDbLine
 10
6.1910494079
 20
5.3299298165
 30
0.0
 11
5.810624211
 21
5.3299298165
 31
0.0
  0
MTEXT
  5
13B
330
133
100
AcDbEntity
  8
0
  6
SLD-SOLID
 62
     7
100
AcDbMText
 10
5.3442179802
 20
5.3918445448
 30
0.0
 40
0.125
 41
0.0
 71
     1
 72
     1
  1
1.969
  7
SLDTEXTSTYLE0
  0
ENDBLK
  5
135
330
133
100
AcDbEntity
  8
0
100
AcDbBlockEnd
  0
BLOCK
  5
13E
330
13D
100
AcDbEntity
  8
0
100
AcDbBlockBegin
  2
_D_4
 70
     0
 10
0.0
 20
0.0
 30
0.0
  3
_D_4
  1

  0
LINE
  5
140
330
13D
100
AcDbEntity
  8
0
  6
SLD-SOLID
 62
     7
100
AcDbLine
 10
5.3061320443
 20
6.2149630321
 30
0.0
 11
5.3061320443
 21
6.413400538
 31
0.0
  0
LINE
  5
141
330
13D
100
AcDbEntity
  8
0
  6
SLD-SOLID
 62
     7
100
AcDbLine
 10
5.3061320443
 20
6.413400538
 30
0.0
 11
5.7979289082
 21
6.413400538
 31
0.0
  0
LINE
  5
142
330
13D
100
AcDbEntity
  8
0
  6
SLD-SOLID
 62
     7
100
AcDbLine
 10
5.7979289082
 20
6.413400538
 30
0.0
 11
5.7979289082
 21
6.2149630321
 31
0.0
  0
LINE
  5
143
330
13D
100
AcDbEntity
  8
0
  6
SLD-SOLID
 62
     7
100
AcDbLine
 10
5.7979289082
 20
6.2149630321
 30
0.0
 11
5.3061320443
 21
6.2149630321
 31
0.0
  0
LINE
  5
144
330
13D
100
AcDbEntity
  8
0
  6
SLD-SOLID
 62
     7
100
AcDbLine
 10
6.1910494079
 20
6.314181785
 30
0.0
 11
5.810624211
 21
6.314181785
 31
0.0
  0
MTEXT
  5
145
330
13D
100
AcDbEntity
  8
0
  6
SLD-SOLID
 62
     7
100
AcDbMText
 10
5.3442179802
 20
6.3760965133
 30
0.0
 40
0.125
 41
0.0
 71
     1
 72
     1
  1
2.953
  7
SLDTEXTSTYLE0
  0
ENDBLK
  5
13F
330
13D
100
AcDbEntity
  8
0
100
AcDbBlockEnd
  0
BLOCK
  5
148
330
147
100
AcDbEntity
  8
0
100
AcDbBlockBegin
  2
_D_5
 70
     0
 10
0.0
 20
0.0
 30
0.0
  3
_D_5
  1

  0
LINE
  5
14A
330
147
100
AcDbEntity
  8
0
  6
SLD-SOLID
 62
     7
100
AcDbLine
 10
5.3061320443
 20
7.1992150006
 30
0.0
 11
5.3061320443
 21
7.3976525065
 31
0.0
  0
LINE
  5
14B
330
147
100
AcDbEntity
  8
0
  6
SLD-SOLID
 62
     7
100
AcDbLine
 10
5.3061320443
 20
7.3976525065
 30
0.0
 11
5.7979289082
 21
7.3976525065
 31
0.0
  0
LINE
  5
14C
330
147
100
AcDbEntity
  8
0
  6
SLD-SOLID
 62
     7
100
AcDbLine
 10
5.7979289082
 20
7.3976525065
 30
0.0
 11
5.7979289082
 21
7.1992150006
 31
0.0
  0
LINE
  5
14D
330
147
100
AcDbEntity
  8
0
  6
SLD-SOLID
 62
     7
100
AcDbLine
 10
5.7979289082
 20
7.1992150006
 30
0.0
 11
5.3061320443
 21
7.1992150006
 31
0.0
  0
LINE
  5
14E
330
147
100
AcDbEntity
  8
0
  6
SLD-SOLID
 62
     7
100
AcDbLine
 10
6.1910494079
 20
7.2984337535
 30
0.0
 11
5.810624211
 21
7.2984337535
 31
0.0
  0
MTEXT
  5
14F
330
147
100
AcDbEntity
  8
0
  6
SLD-SOLID
 62
     7
100
AcDbMText
 10
5.3442179802
 20
7.3603484818
 30
0.0
 40
0.125
 41
0.0
 71
     1
 72
     1
  1
3.937
  7
SLDTEXTSTYLE0
  0
ENDBLK
  5
149
330
147
100
AcDbEntity
  8
0
100
AcDbBlockEnd
  0
BLOCK
  5
152
330
151
100
AcDbEntity
  8
0
100
AcDbBlockBegin
  2
_D_6
 70
     0
 10
0.0
 20
0.0
 30
0.0
  3
_D_6
  1

  0
LINE
  5
154
330
151
100
AcDbEntity
  8
0
  6
SLD-SOLID
 62
     7
100
AcDbLine
 10
5.3061320443
 20
7.6913409848
 30
0.0
 11
5.3061320443
 21
7.8897784908
 31
0.0
  0
LINE
  5
155
330
151
100
AcDbEntity
  8
0
  6
SLD-SOLID
 62
     7
100
AcDbLine
 10
5.3061320443
 20
7.8897784908
 30
0.0
 11
5.7979289082
 21
7.8897784908
 31
0.0
  0
LINE
  5
156
330
151
100
AcDbEntity
  8
0
  6
SLD-SOLID
 62
     7
100
AcDbLine
 10
5.7979289082
 20
7.8897784908
 30
0.0
 11
5.7979289082
 21
7.6913409848
 31
0.0
  0
LINE
  5
157
330
151
100
AcDbEntity
  8
0
  6
SLD-SOLID
 62
     7
100
AcDbLine
 10
5.7979289082
 20
7.6913409848
 30
0.0
 11
5.3061320443
 21
7.6913409848
 31
0.0
  0
LINE
  5
158
330
151
100
AcDbEntity
  8
0
  6
SLD-SOLID
 62
     7
100
AcDbLine
 10
6.3590494079
 20
7.7905597378
 30
0.0
 11
5.810624211
 21
7.7905597378
 31
0.0
  0
MTEXT
  5
159
330
151
100
AcDbEntity
  8
0
  6
SLD-SOLID
 62
     7
100
AcDbMText
 10
5.3442179802
 20
7.852474466
 30
0.0
 40
0.125
 41
0.0
 71
     1
 72
     1
  1
4.429
  7
SLDTEXTSTYLE0
  0
ENDBLK
  5
153
330
151
100
AcDbEntity
  8
0
100
AcDbBlockEnd
  0
BLOCK
  5
15C
330
15B
100
AcDbEntity
  8
0
100
AcDbBlockBegin
  2
_D_7
 70
     0
 10
0.0
 20
0.0
 30
0.0
  3
_D_7
  1

  0
LINE
  5
15E
330
15B
100
AcDbEntity
  8
0
  6
SLD-SOLID
 62
     7
100
AcDbLine
 10
5.3061320443
 20
8.1834669691
 30
0.0
 11
5.3061320443
 21
8.381904475
 31
0.0
  0
LINE
  5
15F
330
15B
100
AcDbEntity
  8
0
  6
SLD-SOLID
 62
     7
100
AcDbLine
 10
5.3061320443
 20
8.381904475
 30
0.0
 11
5.7979289082
 21
8.381904475
 31
0.0
  0
LINE
  5
160
330
15B
100
AcDbEntity
  8
0
  6
SLD-SOLID
 62
     7
100
AcDbLine
 10
5.7979289082
 20
8.381904475
 30
0.0
 11
5.7979289082
 21
8.1834669691
 31
0.0
  0
LINE
  5
161
330
15B
100
AcDbEntity
  8
0
  6
SLD-SOLID
 62
     7
100
AcDbLine
 10
5.7979289082
 20
8.1834669691
 30
0.0
 11
5.3061320443
 21
8.1834669691
 31
0.0
  0
LINE
  5
162
330
15B
100
AcDbEntity
  8
0
  6
SLD-SOLID
 62
     7
100
AcDbLine
 10
6.1910494079
 20
8.282685722
 30
0.0
 11
5.810624211
 21
8.282685722
 31
0.0
  0
MTEXT
  5
163
330
15B
100
AcDbEntity
  8
0
  6
SLD-SOLID
 62
     7
100
AcDbMText
 10
5.3442179802
 20
8.3446004503
 30
0.0
 40
0.125
 41
0.0
 71
     1
 72
     1
  1
4.921
  7
SLDTEXTSTYLE0
  0
ENDBLK
  5
15D
330
15B
100
AcDbEntity
  8
0
100
AcDbBlockEnd
  0
BLOCK
  5
166
330
165
100
AcDbEntity
  8
0
100
AcDbBlockBegin
  2
_D_8
 70
     0
 10
0.0
 20
0.0
 30
0.0
  3
_D_8
  1

  0
LINE
  5
168
330
165
100
AcDbEntity
  8
0
  6
SLD-SOLID
 62
     7
100
AcDbLine
 10
5.3061320443
 20
9.1677189376
 30
0.0
 11
5.3061320443
 21
9.3661564435
 31
0.0
  0
LINE
  5
169
330
165
100
AcDbEntity
  8
0
  6
SLD-SOLID
 62
     7
100
AcDbLine
 10
5.3061320443
 20
9.3661564435
 30
0.0
 11
5.7979289082
 21
9.3661564435
 31
0.0
  0
LINE
  5
16A
330
165
100
AcDbEntity
  8
0
  6
SLD-SOLID
 62
     7
100
AcDbLine
 10
5.7979289082
 20
9.3661564435
 30
0.0
 11
5.7979289082
 21
9.1677189376
 31
0.0
  0
LINE
  5
16B
330
165
100
AcDbEntity
  8
0
  6
SLD-SOLID
 62
     7
100
AcDbLine
 10
5.7979289082
 20
9.1677189376
 30
0.0
 11
5.3061320443
 21
9.1677189376
 31
0.0
  0
LINE
  5
16C
330
165
100
AcDbEntity
  8
0
  6
SLD-SOLID
 62
     7
100
AcDbLine
 10
6.1543249984
 20
9.2669376906
 30
0.0
 11
5.810624211
 21
9.2669376906
 31
0.0
  0
MTEXT
  5
16D
330
165
100
AcDbEntity
  8
0
  6
SLD-SOLID
 62
     7
100
AcDbMText
 10
5.3442179802
 20
9.3288524188
 30
0.0
 40
0.125
 41
0.0
 71
     1
 72
     1
  1
5.906
  7
SLDTEXTSTYLE0
  0
ENDBLK
  5
167
330
165
100
AcDbEntity
  8
0
100
AcDbBlockEnd
  0
BLOCK
  5
171
330
170
100
AcDbEntity
  8
0
100
AcDbBlockBegin
  2
_D_9
 70
     0
 10
0.0
 20
0.0
 30
0.0
  3
_D_9
  1

  0
SOLID
  5
173
330
170
100
AcDbEntity
  8
0
  6
SLD-SOLID
 62
     7
100
AcDbTrace
 10
6.7043249984
 20
9.8968589504
 30
0.0
 11
6.5743249984
 21
9.9168589504
 31
0.0
 12
6.5743249984
 22
9.8768589504
 32
0.0
 13
6.5743249984
 23
9.8768589504
 33
0.0
  0
SOLID
  5
174
330
170
100
AcDbEntity
  8
0
  6
SLD-SOLID
 62
     7
100
AcDbTrace
 10
6.2043249984
 20
9.8968589504
 30
0.0
 11
6.3343249984
 21
9.8768589504
 31
0.0
 12
6.3343249984
 22
9.9168589504
 32
0.0
 13
6.3343249984
 23
9.9168589504
 33
0.0
  0
LINE
  5
175
330
170
100
AcDbEntity
  8
0
  6
SLD-SOLID
 62
     7
100
AcDbLine
 10
6.7043249984
 20
9.3169376906
 30
0.0
 11
6.7043249984
 21
10.0218589504
 31
0.0
  0
LINE
  5
176
330
170
100
AcDbEntity
  8
0
  6
SLD-SOLID
 62
     7
100
AcDbLine
 10
6.2043249984
 20
9.3169376906
 30
0.0
 11
6.2043249984
 21
10.0218589504
 31
0.0
  0
LINE
  5
177
330
170
100
AcDbEntity
  8
0
  6
SLD-SOLID
 62
     7
100
AcDbLine
 10
6.7043249984
 20
9.8968589504
 30
0.0
 11
6.2043249984
 21
9.8968589504
 31
0.0
  0
LINE
  5
178
330
170
100
AcDbEntity
  8
0
  6
SLD-SOLID
 62
     7
100
AcDbLine
 10
6.2043249984
 20
9.8968589504
 30
0.0
 11
5.6361922595
 21
9.8968589504
 31
0.0
  0
MTEXT
  5
179
330
170
100
AcDbEntity
  8
0
  6
SLD-SOLID
 62
     7
100
AcDbMText
 10
5.0635360149
 20
10.0579924316
 30
0.0
 40
0.125
 41
0.0
 71
     1
 72
     1
  1
.500
  7
SLDTEXTSTYLE0
  0
MTEXT
  5
17A
330
170
100
AcDbEntity
  8
0
  6
SLD-SOLID
 62
     7
100
AcDbMText
 10
4.8141436692
 20
9.8595549257
 30
0.0
 40
0.125
 41
0.0
 71
     1
 72
     1
  1
STOCK OK
  7
SLDTEXTSTYLE0
  0
ENDBLK
  5
172
330
170
100
AcDbEntity
  8
0
100
AcDbBlockEnd
  0
BLOCK
  5
17E
330
17D
100
AcDbEntity
  8
0
100
AcDbBlockBegin
  2
_D_10
 70
     0
 10
0.0
 20
0.0
 30
0.0
  3
_D_10
  1

  0
SOLID
  5
180
330
17D
100
AcDbEntity
  8
0
  6
SLD-SOLID
 62
     7
100
AcDbTrace
 10
6.457132669
 20
8.3307689832
 30
0.0
 11
6.5631986862
 21
8.4085507291
 31
0.0
 12
6.5349144149
 22
8.4368350003
 32
0.0
 13
6.5349144149
 23
8.4368350003
 33
0.0
  0
LINE
  5
181
330
17D
100
AcDbEntity
  8
0
  6
SLD-SOLID
 62
     7
100
AcDbLine
 10
6.457132669
 20
8.3307689832
 30
0.0
 11
7.1152486884
 21
8.9888850026
 31
0.0
  0
LINE
  5
182
330
17D
100
AcDbEntity
  8
0
  6
SLD-SOLID
 62
     7
100
AcDbLine
 10
7.1152486884
 20
8.9888850026
 30
0.0
 11
7.3339986884
 21
8.9888850026
 31
0.0
  0
MTEXT
  5
183
330
17D
100
AcDbEntity
  8
0
  6
SLD-SOLID
 62
     7
100
AcDbMText
 10
7.4892200639
 20
9.1519281901
 30
0.0
 40
0.125
 41
0.0
 71
     1
 72
     1
  1
10 x
  7
SLDTEXTSTYLE2
  0
MTEXT
  5
184
330
17D
100
AcDbEntity
  8
0
  6
SLD-SOLID
 62
     7
100
AcDbMText
 10
7.8463381251
 20
9.1500184678
 30
0.0
 40
0.125
 41
0.0
 71
     1
 72
     1
  1
%%c
  7
SLDTEXTSTYLE0
  0
MTEXT
  5
185
330
17D
100
AcDbEntity
  8
0
  6
SLD-SOLID
 62
     7
100
AcDbMText
 10
8.0817287274
 20
9.1519281901
 30
0.0
 40
0.125
 41
0.0
 71
     1
 72
     1
  1
.136
  7
SLDTEXTSTYLE0
  0
INSERT
  5
18D
330
17D
100
AcDbEntity
  8
0
  6
SLD-SOLID
 62
     7
100
AcDbBlockReference
  2
SW_SYMBOL_HOLE_DEPTH
 10
8.4504787194
 20
9.0062189847
 30
0.0
 41
0.0040555664
 42
0.0040555664
 43
0.0040555664
  0
MTEXT
  5
18E
330
17D
100
AcDbEntity
  8
0
  6
SLD-SOLID
 62
     7
100
AcDbMText
 10
8.6759475096
 20
9.1519281901
 30
0.0
 40
0.125
 41
0.0
 71
     1
 72
     1
  1
.422
  7
SLDTEXTSTYLE0
  0
MTEXT
  5
190
330
17D
100
AcDbEntity
  8
0
  6
SLD-SOLID
 62
     7
100
AcDbMText
 10
7.3964986884
 20
8.9515809778
 30
0.0
 40
0.125
 41
0.0
 71
     1
 72
     1
  1
8-32 UNC - 6H
  7
SLDTEXTSTYLE3
  0
INSERT
  5
191
330
17D
100
AcDbEntity
  8
0
  6
SLD-SOLID
 62
     7
100
AcDbBlockReference
  2
SW_SYMBOL_HOLE_DEPTH
 10
8.5432000949
 20
8.8058717724
 30
0.0
 41
0.0040555664
 42
0.0040555664
 43
0.0040555664
  0
MTEXT
  5
192
330
17D
100
AcDbEntity
  8
0
  6
SLD-SOLID
 62
     7
100
AcDbMText
 10
8.7686688851
 20
8.9515809778
 30
0.0
 40
0.125
 41
0.0
 71
     1
 72
     1
  1
.328
  7
SLDTEXTSTYLE0
  0
ENDBLK
  5
17F
330
17D
100
AcDbEntity
  8
0
100
AcDbBlockEnd
  0
BLOCK
  5
187
330
186
100
AcDbEntity
  8
0
100
AcDbBlockBegin
  2
SW_SYMBOL_HOLE_DEPTH
 70
     0
 10
0.0
 20
0.0
 30
0.0
  3
SW_SYMBOL_HOLE_DEPTH
  1

  0
LINE
  5
189
330
186
100
AcDbEntity
  8
0
  6
SLD-SOLID
 62
     0
100
AcDbLine
 10
0.0
 20
34.4488188976
 30
0.0
 11
31.4960629921
 21
34.4488188976
 31
0.0
  0
LINE
  5
18A
330
186
100
AcDbEntity
  8
0
  6
SLD-SOLID
 62
     0
100
AcDbLine
 10
15.7480314961
 20
34.4488188976
 30
0.0
 11
15.7480314961
 21
2.9527559055
 31
0.0
  0
LINE
  5
18B
330
186
100
AcDbEntity
  8
0
  6
SLD-SOLID
 62
     0
100
AcDbLine
 10
3.937007874
 20
21.8503937008
 30
0.0
 11
15.7480314961
 21
2.9527559055
 31
0.0
  0
LINE
  5
18C
330
186
100
AcDbEntity
  8
0
  6
SLD-SOLID
 62
     0
100
AcDbLine
 10
27.5590551181
 20
21.8503937008
 30
0.0
 11
15.7480314961
 21
2.9527559055
 31
0.0
  0
ENDBLK
  5
188
330
186
100
AcDbEntity
  8
0
100
AcDbBlockEnd
  0
BLOCK
  5
196
330
195
100
AcDbEntity
  8
0
100
AcDbBlockBegin
  2
_D_11
 70
     0
 10
0.0
 20
0.0
 30
0.0
  3
_D_11
  1

  0
SOLID
  5
198
330
195
100
AcDbEntity
  8
0
  6
SLD-SOLID
 62
     7
100
AcDbTrace
 10
6.4631759956
 20
4.8690538323
 30
0.0
 11
6.5857592981
 21
4.9167333242
 31
0.0
 12
6.5657592981
 22
4.9513743404
 32
0.0
 13
6.5657592981
 23
4.9513743404
 33
0.0
  0
LINE
  5
199
330
195
100
AcDbEntity
  8
0
  6
SLD-SOLID
 62
     7
100
AcDbLine
 10
6.4631759956
 20
4.8690538323
 30
0.0
 11
7.2869927802
 21
5.3446846746
 31
0.0
  0
LINE
  5
19A
330
195
100
AcDbEntity
  8
0
  6
SLD-SOLID
 62
     7
100
AcDbLine
 10
7.2869927802
 20
5.3446846746
 30
0.0
 11
7.5369927802
 21
5.3446846746
 31
0.0
  0
MTEXT
  5
19C
330
195
100
AcDbEntity
  8
0
  6
SLD-SOLID
 62
     7
100
AcDbMText
 10
7.5369927802
 20
5.4163216314
 30
0.0
 40
0.125
 41
0.0
 71
     1
 72
     1
  1
4 x
  7
SLDTEXTSTYLE4
  0
MTEXT
  5
19D
330
195
100
AcDbEntity
  8
0
  6
SLD-SOLID
 62
     7
100
AcDbMText
 10
7.8017497117
 20
5.4144119091
 30
0.0
 40
0.125
 41
0.0
 71
     1
 72
     1
  1
%%c
  7
SLDTEXTSTYLE0
  0
MTEXT
  5
19E
330
195
100
AcDbEntity
  8
0
  6
SLD-SOLID
 62
     7
100
AcDbMText
 10
8.0371403506
 20
5.4163216314
 30
0.0
 40
0.125
 41
0.0
 71
     1
 72
     1
  1
.1250
  7
SLDTEXTSTYLE0
  0
MTEXT
  5
19F
330
195
100
AcDbEntity
  8
0
  6
SLD-SOLID
 62
     7
100
AcDbMText
 10
8.4989458891
 20
5.4163216314
 30
0.0
 40
0.125
 41
0.0
 71
     1
 72
     1
  1
M7
  7
SLDTEXTSTYLE0
  0
MTEXT
  5
1A0
330
195
100
AcDbEntity
  8
0
  6
SLD-SOLID
 62
     7
100
AcDbMText
 10
8.789918053
 20
5.505818149
 30
0.0
 40
0.125
 41
0.0
 71
     1
 72
     1
  1
+
  7
SLDTEXTSTYLE0
  0
MTEXT
  5
1A1
330
195
100
AcDbEntity
  8
0
  6
SLD-SOLID
 62
     7
100
AcDbMText
 10
8.8127479157
 20
5.3441861995
 30
0.0
 40
0.125
 41
0.0
 71
     1
 72
     1
  1
-
  7
SLDTEXTSTYLE0
  0
MTEXT
  5
1A2
330
195
100
AcDbEntity
  8
0
  6
SLD-SOLID
 62
     7
100
AcDbMText
 10
8.8909598057
 20
5.505818149
 30
0.0
 40
0.125
 41
0.0
 71
     1
 72
     1
  1
.0000
  7
SLDTEXTSTYLE0
  0
MTEXT
  5
1A3
330
195
100
AcDbEntity
  8
0
  6
SLD-SOLID
 62
     7
100
AcDbMText
 10
8.8909598057
 20
5.3441861995
 30
0.0
 40
0.125
 41
0.0
 71
     1
 72
     1
  1
.0005
  7
SLDTEXTSTYLE0
  0
MTEXT
  5
1A4
330
195
100
AcDbEntity
  8
0
  6
SLD-SOLID
 62
     7
100
AcDbMText
 10
9.3534597244
 20
5.4163216314
 30
0.0
 40
0.125
 41
0.0
 71
     1
 72
     1
  1

  7
SLDTEXTSTYLE0
  0
INSERT
  5
1A5
330
195
100
AcDbEntity
  8
0
  6
SLD-SOLID
 62
     7
100
AcDbBlockReference
  2
SW_SYMBOL_HOLE_DEPTH
 10
9.3527652709
 20
5.270612426
 30
0.0
 41
0.0040555664
 42
0.0040555664
 43
0.0040555664
  0
MTEXT
  5
1A6
330
195
100
AcDbEntity
  8
0
  6
SLD-SOLID
 62
     7
100
AcDbMText
 10
9.5782340611
 20
5.4163216314
 30
0.0
 40
0.125
 41
0.0
 71
     1
 72
     1
  1
.157
  7
SLDTEXTSTYLE0
  0
ENDBLK
  5
197
330
195
100
AcDbEntity
  8
0
100
AcDbBlockEnd
  0
BLOCK
  5
1AA
330
1A9
100
AcDbEntity
  8
0
100
AcDbBlockBegin
  2
_D_12
 70
     0
 10
0.0
 20
0.0
 30
0.0
  3
_D_12
  1

  0
SOLID
  5
1AC
330
1A9
100
AcDbEntity
  8
0
  6
SLD-SOLID
 62
     7
100
AcDbTrace
 10
6.4090494079
 20
2.9677250921
 30
0.0
 11
6.5390494079
 21
2.9477250921
 31
0.0
 12
6.5390494079
 22
2.9877250921
 32
0.0
 13
6.5390494079
 23
2.9877250921
 33
0.0
  0
SOLID
  5
1AD
330
1A9
100
AcDbEntity
  8
0
  6
SLD-SOLID
 62
     7
100
AcDbTrace
 10
6.2043249984
 20
2.9677250921
 30
0.0
 11
6.0743249984
 21
2.9877250921
 31
0.0
 12
6.0743249984
 22
2.9477250921
 32
0.0
 13
6.0743249984
 23
2.9477250921
 33
0.0
  0
LINE
  5
1AE
330
1A9
100
AcDbEntity
  8
0
  6
SLD-SOLID
 62
     7
100
AcDbLine
 10
5.3746858577
 20
2.8685063391
 30
0.0
 11
5.3746858577
 21
3.0669438451
 31
0.0
  0
LINE
  5
1AF
330
1A9
100
AcDbEntity
  8
0
  6
SLD-SOLID
 62
     7
100
AcDbLine
 10
5.3746858577
 20
3.0669438451
 30
0.0
 11
5.7741216286
 21
3.0669438451
 31
0.0
  0
LINE
  5
1B0
330
1A9
100
AcDbEntity
  8
0
  6
SLD-SOLID
 62
     7
100
AcDbLine
 10
5.7741216286
 20
3.0669438451
 30
0.0
 11
5.7741216286
 21
2.8685063391
 31
0.0
  0
LINE
  5
1B1
330
1A9
100
AcDbEntity
  8
0
  6
SLD-SOLID
 62
     7
100
AcDbLine
 10
5.7741216286
 20
2.8685063391
 30
0.0
 11
5.3746858577
 21
2.8685063391
 31
0.0
  0
LINE
  5
1B2
330
1A9
100
AcDbEntity
  8
0
  6
SLD-SOLID
 62
     7
100
AcDbLine
 10
6.4090494079
 20
8.064685722
 30
0.0
 11
6.4090494079
 21
2.8427250921
 31
0.0
  0
LINE
  5
1B3
330
1A9
100
AcDbEntity
  8
0
  6
SLD-SOLID
 62
     7
100
AcDbLine
 10
6.2043249984
 20
3.390166037
 30
0.0
 11
6.2043249984
 21
2.8427250921
 31
0.0
  0
LINE
  5
1B4
330
1A9
100
AcDbEntity
  8
0
  6
SLD-SOLID
 62
     7
100
AcDbLine
 10
6.4090494079
 20
2.9677250921
 30
0.0
 11
6.6590494079
 21
2.9677250921
 31
0.0
  0
LINE
  5
1B5
330
1A9
100
AcDbEntity
  8
0
  6
SLD-SOLID
 62
     7
100
AcDbLine
 10
6.2043249984
 20
2.9677250921
 30
0.0
 11
5.7868169314
 21
2.9677250921
 31
0.0
  0
MTEXT
  5
1B6
330
1A9
100
AcDbEntity
  8
0
  6
SLD-SOLID
 62
     7
100
AcDbMText
 10
5.4127717937
 20
3.0296398204
 30
0.0
 40
0.125
 41
0.0
 71
     1
 72
     1
  1
.205
  7
SLDTEXTSTYLE0
  0
ENDBLK
  5
1AB
330
1A9
100
AcDbEntity
  8
0
100
AcDbBlockEnd
  0
BLOCK
  5
1C3
330
1C2
100
AcDbEntity
  8
0
100
AcDbBlockBegin
  2
SW_CENTERMARKSYMBOL_0
 70
     0
 10
0.0
 20
0.0
 30
0.0
  3
SW_CENTERMARKSYMBOL_0
  1

  0
LINE
  5
1C5
330
1C2
100
AcDbEntity
  8
0
  6
SLD-SOLID
 62
     0
100
AcDbLine
 10
0.0
 20
0.0
 30
0.0
 11
0.0
 21
0.1
 31
0.0
  0
LINE
  5
1C6
330
1C2
100
AcDbEntity
  8
0
  6
SLD-SOLID
 62
     0
100
AcDbLine
 10
0.0
 20
0.0
 30
0.0
 11
-0.1
 21
0.0
 31
0.0
  0
LINE
  5
1C7
330
1C2
100
AcDbEntity
  8
0
  6
SLD-SOLID
 62
     0
100
AcDbLine
 10
0.0
 20
0.0
 30
0.0
 11
0.0
 21
-0.1
 31
0.0
  0
LINE
  5
1C8
330
1C2
100
AcDbEntity
  8
0
  6
SLD-SOLID
 62
     0
100
AcDbLine
 10
0.0
 20
0.0
 30
0.0
 11
0.1
 21
0.0
 31
0.0
  0
LINE
  5
1C9
330
1C2
100
AcDbEntity
  8
0
  6
SLD-SOLID
 62
     0
100
AcDbLine
 10
0.0
 20
0.1
 30
0.0
 11
0.0
 21
0.168
 31
0.0
  0
LINE
  5
1CA
330
1C2
100
AcDbEntity
  8
0
  6
SLD-SOLID
 62
     0
100
AcDbLine
 10
-0.1
 20
0.0
 30
0.0
 11
-0.168
 21
0.0
 31
0.0
  0
LINE
  5
1CB
330
1C2
100
AcDbEntity
  8
0
  6
SLD-SOLID
 62
     0
100
AcDbLine
 10
0.0
 20
-0.1
 30
0.0
 11
0.0
 21
-0.168
 31
0.0
  0
LINE
  5
1CC
330
1C2
100
AcDbEntity
  8
0
  6
SLD-SOLID
 62
     0
100
AcDbLine
 10
0.1
 20
0.0
 30
0.0
 11
0.168
 21
0.0
 31
0.0
  0
ENDBLK
  5
1C4
330
1C2
100
AcDbEntity
  8
0
100
AcDbBlockEnd
  0
BLOCK
  5
1CF
330
1CE
100
AcDbEntity
  8
0
100
AcDbBlockBegin
  2
SW_CENTERMARKSYMBOL_1
 70
     0
 10
0.0
 20
0.0
 30
0.0
  3
SW_CENTERMARKSYMBOL_1
  1

  0
LINE
  5
1D1
330
1CE
100
AcDbEntity
  8
0
  6
SLD-SOLID
 62
     0
100
AcDbLine
 10
0.0
 20
0.0
 30
0.0
 11
0.0
 21
0.1
 31
0.0
  0
LINE
  5
1D2
330
1CE
100
AcDbEntity
  8
0
  6
SLD-SOLID
 62
     0
100
AcDbLine
 10
0.0
 20
0.0
 30
0.0
 11
-0.1
 21
0.0
 31
0.0
  0
LINE
  5
1D3
330
1CE
100
AcDbEntity
  8
0
  6
SLD-SOLID
 62
     0
100
AcDbLine
 10
0.0
 20
0.0
 30
0.0
 11
0.0
 21
-0.1
 31
0.0
  0
LINE
  5
1D4
330
1CE
100
AcDbEntity
  8
0
  6
SLD-SOLID
 62
     0
100
AcDbLine
 10
0.0
 20
0.0
 30
0.0
 11
0.1
 21
0.0
 31
0.0
  0
LINE
  5
1D5
330
1CE
100
AcDbEntity
  8
0
  6
SLD-SOLID
 62
     0
100
AcDbLine
 10
0.0
 20
0.1
 30
0.0
 11
0.0
 21
0.168
 31
0.0
  0
LINE
  5
1D6
330
1CE
100
AcDbEntity
  8
0
  6
SLD-SOLID
 62
     0
100
AcDbLine
 10
-0.1
 20
0.0
 30
0.0
 11
-0.168
 21
0.0
 31
0.0
  0
LINE
  5
1D7
330
1CE
100
AcDbEntity
  8
0
  6
SLD-SOLID
 62
     0
100
AcDbLine
 10
0.0
 20
-0.1
 30
0.0
 11
0.0
 21
-0.168
 31
0.0
  0
LINE
  5
1D8
330
1CE
100
AcDbEntity
  8
0
  6
SLD-SOLID
 62
     0
100
AcDbLine
 10
0.1
 20
0.0
 30
0.0
 11
0.168
 21
0.0
 31
0.0
  0
ENDBLK
  5
1D0
330
1CE
100
AcDbEntity
  8
0
100
AcDbBlockEnd
  0
BLOCK
  5
1DB
330
1DA
100
AcDbEntity
  8
0
100
AcDbBlockBegin
  2
SW_CENTERMARKSYMBOL_2
 70
     0
 10
0.0
 20
0.0
 30
0.0
  3
SW_CENTERMARKSYMBOL_2
  1

  0
LINE
  5
1DD
330
1DA
100
AcDbEntity
  8
0
  6
SLD-SOLID
 62
     0
100
AcDbLine
 10
0.0
 20
0.0
 30
0.0
 11
0.0
 21
0.1
 31
0.0
  0
LINE
  5
1DE
330
1DA
100
AcDbEntity
  8
0
  6
SLD-SOLID
 62
     0
100
AcDbLine
 10
0.0
 20
0.0
 30
0.0
 11
-0.1
 21
0.0
 31
0.0
  0
LINE
  5
1DF
330
1DA
100
AcDbEntity
  8
0
  6
SLD-SOLID
 62
     0
100
AcDbLine
 10
0.0
 20
0.0
 30
0.0
 11
0.0
 21
-0.1
 31
0.0
  0
LINE
  5
1E0
330
1DA
100
AcDbEntity
  8
0
  6
SLD-SOLID
 62
     0
100
AcDbLine
 10
0.0
 20
0.0
 30
0.0
 11
0.1
 21
0.0
 31
0.0
  0
LINE
  5
1E1
330
1DA
100
AcDbEntity
  8
0
  6
SLD-SOLID
 62
     0
100
AcDbLine
 10
0.0
 20
0.1
 30
0.0
 11
0.0
 21
0.168
 31
0.0
  0
LINE
  5
1E2
330
1DA
100
AcDbEntity
  8
0
  6
SLD-SOLID
 62
     0
100
AcDbLine
 10
-0.1
 20
0.0
 30
0.0
 11
-0.168
 21
0.0
 31
0.0
  0
LINE
  5
1E3
330
1DA
100
AcDbEntity
  8
0
  6
SLD-SOLID
 62
     0
100
AcDbLine
 10
0.0
 20
-0.1
 30
0.0
 11
0.0
 21
-0.168
 31
0.0
  0
LINE
  5
1E4
330
1DA
100
AcDbEntity
  8
0
  6
SLD-SOLID
 62
     0
100
AcDbLine
 10
0.1
 20
0.0
 30
0.0
 11
0.168
 21
0.0
 31
0.0
  0
ENDBLK
  5
1DC
330
1DA
100
AcDbEntity
  8
0
100
AcDbBlockEnd
  0
BLOCK
  5
1E7
330
1E6
100
AcDbEntity
  8
0
100
AcDbBlockBegin
  2
SW_CENTERMARKSYMBOL_3
 70
     0
 10
0.0
 20
0.0
 30
0.0
  3
SW_CENTERMARKSYMBOL_3
  1

  0
LINE
  5
1E9
330
1E6
100
AcDbEntity
  8
0
  6
SLD-SOLID
 62
     0
100
AcDbLine
 10
0.0
 20
0.0
 30
0.0
 11
0.0
 21
0.1
 31
0.0
  0
LINE
  5
1EA
330
1E6
100
AcDbEntity
  8
0
  6
SLD-SOLID
 62
     0
100
AcDbLine
 10
0.0
 20
0.0
 30
0.0
 11
-0.1
 21
0.0
 31
0.0
  0
LINE
  5
1EB
330
1E6
100
AcDbEntity
  8
0
  6
SLD-SOLID
 62
     0
100
AcDbLine
 10
0.0
 20
0.0
 30
0.0
 11
0.0
 21
-0.1
 31
0.0
  0
LINE
  5
1EC
330
1E6
100
AcDbEntity
  8
0
  6
SLD-SOLID
 62
     0
100
AcDbLine
 10
0.0
 20
0.0
 30
0.0
 11
0.1
 21
0.0
 31
0.0
  0
LINE
  5
1ED
330
1E6
100
AcDbEntity
  8
0
  6
SLD-SOLID
 62
     0
100
AcDbLine
 10
0.0
 20
0.1
 30
0.0
 11
0.0
 21
0.168
 31
0.0
  0
LINE
  5
1EE
330
1E6
100
AcDbEntity
  8
0
  6
SLD-SOLID
 62
     0
100
AcDbLine
 10
-0.1
 20
0.0
 30
0.0
 11
-0.168
 21
0.0
 31
0.0
  0
LINE
  5
1EF
330
1E6
100
AcDbEntity
  8
0
  6
SLD-SOLID
 62
     0
100
AcDbLine
 10
0.0
 20
-0.1
 30
0.0
 11
0.0
 21
-0.168
 31
0.0
  0
LINE
  5
1F0
330
1E6
100
AcDbEntity
  8
0
  6
SLD-SOLID
 62
     0
100
AcDbLine
 10
0.1
 20
0.0
 30
0.0
 11
0.168
 21
0.0
 31
0.0
  0
ENDBLK
  5
1E8
330
1E6
100
AcDbEntity
  8
0
100
AcDbBlockEnd
  0
BLOCK
  5
1F3
330
1F2
100
AcDbEntity
  8
0
100
AcDbBlockBegin
  2
SW_CENTERMARKSYMBOL_4
 70
     0
 10
0.0
 20
0.0
 30
0.0
  3
SW_CENTERMARKSYMBOL_4
  1

  0
LINE
  5
1F5
330
1F2
100
AcDbEntity
  8
0
  6
SLD-SOLID
 62
     0
100
AcDbLine
 10
0.0
 20
0.0
 30
0.0
 11
0.0
 21
0.1
 31
0.0
  0
LINE
  5
1F6
330
1F2
100
AcDbEntity
  8
0
  6
SLD-SOLID
 62
     0
100
AcDbLine
 10
0.0
 20
0.0
 30
0.0
 11
-0.1
 21
0.0
 31
0.0
  0
LINE
  5
1F7
330
1F2
100
AcDbEntity
  8
0
  6
SLD-SOLID
 62
     0
100
AcDbLine
 10
0.0
 20
0.0
 30
0.0
 11
0.0
 21
-0.1
 31
0.0
  0
LINE
  5
1F8
330
1F2
100
AcDbEntity
  8
0
  6
SLD-SOLID
 62
     0
100
AcDbLine
 10
0.0
 20
0.0
 30
0.0
 11
0.1
 21
0.0
 31
0.0
  0
LINE
  5
1F9
330
1F2
100
AcDbEntity
  8
0
  6
SLD-SOLID
 62
     0
100
AcDbLine
 10
0.0
 20
0.1
 30
0.0
 11
0.0
 21
0.168
 31
0.0
  0
LINE
  5
1FA
330
1F2
100
AcDbEntity
  8
0
  6
SLD-SOLID
 62
     0
100
AcDbLine
 10
-0.1
 20
0.0
 30
0.0
 11
-0.168
 21
0.0
 31
0.0
  0
LINE
  5
1FB
330
1F2
100
AcDbEntity
  8
0
  6
SLD-SOLID
 62
     0
100
AcDbLine
 10
0.0
 20
-0.1
 30
0.0
 11
0.0
 21
-0.168
 31
0.0
  0
LINE
  5
1FC
330
1F2
100
AcDbEntity
  8
0
  6
SLD-SOLID
 62
     0
100
AcDbLine
 10
0.1
 20
0.0
 30
0.0
 11
0.168
 21
0.0
 31
0.0
  0
ENDBLK
  5
1F4
330
1F2
100
AcDbEntity
  8
0
100
AcDbBlockEnd
  0
BLOCK
  5
209
330
208
100
AcDbEntity
  8
0
100
AcDbBlockBegin
  2
SW_DATUMTAG_0
 70
     0
 10
0.0
 20
0.0
 30
0.0
  3
SW_DATUMTAG_0
  1

  0
LINE
  5
20B
330
208
100
AcDbEntity
  8
0
  6
SLD-SOLID
 62
     0
100
AcDbLine
 10
0.0478298629
 20
0.4852715453
 30
0.0
 11
0.0478298629
 21
0.2242187392
 31
0.0
  0
LINE
  5
20C
330
208
100
AcDbEntity
  8
0
  6
SLD-SOLID
 62
     0
100
AcDbLine
 10
0.1728298629
 20
-0.0257812608
 30
0.0
 11
-0.0771701371
 21
-0.0257812608
 31
0.0
  0
LINE
  5
20D
330
208
100
AcDbEntity
  8
0
  6
SLD-SOLID
 62
     0
100
AcDbLine
 10
-0.0771701371
 20
-0.0257812608
 30
0.0
 11
-0.0771701371
 21
0.2242187392
 31
0.0
  0
LINE
  5
20E
330
208
100
AcDbEntity
  8
0
  6
SLD-SOLID
 62
     0
100
AcDbLine
 10
-0.0771701371
 20
0.2242187392
 30
0.0
 11
0.1728298629
 21
0.2242187392
 31
0.0
  0
LINE
  5
20F
330
208
100
AcDbEntity
  8
0
  6
SLD-SOLID
 62
     0
100
AcDbLine
 10
0.1728298629
 20
0.2242187392
 30
0.0
 11
0.1728298629
 21
-0.0257812608
 31
0.0
  0
MTEXT
  5
210
330
208
100
AcDbEntity
  8
0
  6
CONTINUOUS
 62
     0
100
AcDbMText
 10
0.0
 20
0.1611334675
 30
0.0
 40
0.125
 41
0.0
 71
     1
 72
     1
  1
B
  7
SLDTEXTSTYLE0
  0
SOLID
  5
211
330
208
100
AcDbEntity
  8
0
  6
SLD-SOLID
 62
     0
100
AcDbTrace
 10
0.1103298629
 20
0.4852715453
 30
0.0
 11
-0.0146701371
 21
0.4852715453
 31
0.0
 12
0.0478298629
 22
0.3602715453
 32
0.0
 13
0.0478298629
 23
0.3602715453
 33
0.0
  0
ENDBLK
  5
20A
330
208
100
AcDbEntity
  8
0
100
AcDbBlockEnd
  0
BLOCK
  5
214
330
213
100
AcDbEntity
  8
0
100
AcDbBlockBegin
  2
SW_DATUMTAG_1
 70
     0
 10
0.0
 20
0.0
 30
0.0
  3
SW_DATUMTAG_1
  1

  0
LINE
  5
216
330
213
100
AcDbEntity
  8
0
  6
SLD-SOLID
 62
     0
100
AcDbLine
 10
0.0677083337
 20
0.5976776989
 30
0.0
 11
0.0677083337
 21
0.2242187392
 31
0.0
  0
LINE
  5
217
330
213
100
AcDbEntity
  8
0
  6
SLD-SOLID
 62
     0
100
AcDbLine
 10
0.1927083337
 20
-0.0257812608
 30
0.0
 11
-0.0572916663
 21
-0.0257812608
 31
0.0
  0
LINE
  5
218
330
213
100
AcDbEntity
  8
0
  6
SLD-SOLID
 62
     0
100
AcDbLine
 10
-0.0572916663
 20
-0.0257812608
 30
0.0
 11
-0.0572916663
 21
0.2242187392
 31
0.0
  0
LINE
  5
219
330
213
100
AcDbEntity
  8
0
  6
SLD-SOLID
 62
     0
100
AcDbLine
 10
-0.0572916663
 20
0.2242187392
 30
0.0
 11
0.1927083337
 21
0.2242187392
 31
0.0
  0
LINE
  5
21A
330
213
100
AcDbEntity
  8
0
  6
SLD-SOLID
 62
     0
100
AcDbLine
 10
0.1927083337
 20
0.2242187392
 30
0.0
 11
0.1927083337
 21
-0.0257812608
 31
0.0
  0
MTEXT
  5
21B
330
213
100
AcDbEntity
  8
0
  6
CONTINUOUS
 62
     0
100
AcDbMText
 10
0.0
 20
0.1611334675
 30
0.0
 40
0.125
 41
0.0
 71
     1
 72
     1
  1
C
  7
SLDTEXTSTYLE0
  0
SOLID
  5
21C
330
213
100
AcDbEntity
  8
0
  6
SLD-SOLID
 62
     0
100
AcDbTrace
 10
0.1302083337
 20
0.5976776989
 30
0.0
 11
0.0052083337
 21
0.5976776989
 31
0.0
 12
0.0677083337
 22
0.4726776989
 32
0.0
 13
0.0677083337
 23
0.4726776989
 33
0.0
  0
ENDBLK
  5
215
330
213
100
AcDbEntity
  8
0
100
AcDbBlockEnd
  0
BLOCK
  5
21F
330
21E
100
AcDbEntity
  8
0
100
AcDbBlockBegin
  2
SW_DOWELSYMBOL_0
 70
     0
 10
0.0
 20
0.0
 30
0.0
  3
SW_DOWELSYMBOL_0
  1

  0
CIRCLE
  5
221
330
21E
100
AcDbEntity
  8
0
  6
CONTINUOUS
 62
     0
100
AcDbCircle
 10
0.0
 20
0.0
 30
0.0
 40
0.0624999999999997
  0
INSERT
  5
222
330
21E
100
AcDbEntity
  8
0
  6
CONTINUOUS
 62
     0
100
AcDbBlockReference
  2
*U47
 10
0.0
 20
0.0
 30
0.0
  0
INSERT
  5
223
330
21E
100
AcDbEntity
  8
0
  6
CONTINUOUS
 62
     0
100
AcDbBlockReference
  2
*U48
 10
0.0
 20
0.0
 30
0.0
  0
ENDBLK
  5
220
330
21E
100
AcDbEntity
  8
0
100
AcDbBlockEnd
  0
BLOCK
  5
226
330
225
100
AcDbEntity
  8
0
100
AcDbBlockBegin
  2
SW_DOWELSYMBOL_1
 70
     0
 10
0.0
 20
0.0
 30
0.0
  3
SW_DOWELSYMBOL_1
  1

  0
CIRCLE
  5
228
330
225
100
AcDbEntity
  8
0
  6
CONTINUOUS
 62
     0
100
AcDbCircle
 10
0.0
 20
0.0
 30
0.0
 40
0.0624999999999997
  0
INSERT
  5
229
330
225
100
AcDbEntity
  8
0
  6
CONTINUOUS
 62
     0
100
AcDbBlockReference
  2
*U49
 10
0.0
 20
0.0
 30
0.0
  0
INSERT
  5
22A
330
225
100
AcDbEntity
  8
0
  6
CONTINUOUS
 62
     0
100
AcDbBlockReference
  2
*U50
 10
0.0
 20
0.0
 30
0.0
  0
ENDBLK
  5
227
330
225
100
AcDbEntity
  8
0
100
AcDbBlockEnd
  0
BLOCK
  5
253
330
252
100
AcDbEntity
  8
0
100
AcDbBlockBegin
  2
SW_DATUMTAG_2
 70
     0
 10
0.0
 20
0.0
 30
0.0
  3
SW_DATUMTAG_2
  1

  0
LINE
  5
255
330
252
100
AcDbEntity
  8
0
  6
SLD-SOLID
 62
     0
100
AcDbLine
 10
-0.3557663066
 20
0.0992187392
 30
0.0
 11
-0.0633680557
 21
0.0992187392
 31
0.0
  0
LINE
  5
256
330
252
100
AcDbEntity
  8
0
  6
SLD-SOLID
 62
     0
100
AcDbLine
 10
-0.3557663066
 20
-0.2814245428
 30
0.0
 11
-0.3557663066
 21
0.2867187392
 31
0.0
  0
LINE
  5
257
330
252
100
AcDbEntity
  8
0
  6
SLD-SOLID
 62
     0
100
AcDbLine
 10
0.1866319443
 20
-0.0257812608
 30
0.0
 11
-0.0633680557
 21
-0.0257812608
 31
0.0
  0
LINE
  5
258
330
252
100
AcDbEntity
  8
0
  6
SLD-SOLID
 62
     0
100
AcDbLine
 10
-0.0633680557
 20
-0.0257812608
 30
0.0
 11
-0.0633680557
 21
0.2242187392
 31
0.0
  0
LINE
  5
259
330
252
100
AcDbEntity
  8
0
  6
SLD-SOLID
 62
     0
100
AcDbLine
 10
-0.0633680557
 20
0.2242187392
 30
0.0
 11
0.1866319443
 21
0.2242187392
 31
0.0
  0
LINE
  5
25A
330
252
100
AcDbEntity
  8
0
  6
SLD-SOLID
 62
     0
100
AcDbLine
 10
0.1866319443
 20
0.2242187392
 30
0.0
 11
0.1866319443
 21
-0.0257812608
 31
0.0
  0
MTEXT
  5
25B
330
252
100
AcDbEntity
  8
0
  6
CONTINUOUS
 62
     0
100
AcDbMText
 10
0.0
 20
0.1611334675
 30
0.0
 40
0.125
 41
0.0
 71
     1
 72
     1
  1
A
  7
SLDTEXTSTYLE0
  0
SOLID
  5
25C
330
252
100
AcDbEntity
  8
0
  6
SLD-SOLID
 62
     0
100
AcDbTrace
 10
-0.3557663066
 20
0.0367187392
 30
0.0
 11
-0.3557663066
 21
0.1617187392
 31
0.0
 12
-0.2307663066
 22
0.0992187392
 32
0.0
 13
-0.2307663066
 23
0.0992187392
 33
0.0
  0
ENDBLK
  5
254
330
252
100
AcDbEntity
  8
0
100
AcDbBlockEnd
  0
BLOCK
  5
272
330
271
100
AcDbEntity
  8
0
100
AcDbBlockBegin
  2
_D_13
 70
     0
 10
0.0
 20
0.0
 30
0.0
  3
_D_13
  1

  0
LINE
  5
274
330
271
100
AcDbEntity
  8
0
  6
SLD-SOLID
 62
     7
100
AcDbLine
 10
14.5796881929
 20
3.2622071265
 30
0.0
 11
14.5796881929
 21
3.4606446325
 31
0.0
  0
LINE
  5
275
330
271
100
AcDbEntity
  8
0
  6
SLD-SOLID
 62
     7
100
AcDbLine
 10
14.5796881929
 20
3.4606446325
 30
0.0
 11
14.9791239637
 21
3.4606446325
 31
0.0
  0
LINE
  5
276
330
271
100
AcDbEntity
  8
0
  6
SLD-SOLID
 62
     7
100
AcDbLine
 10
14.9791239637
 20
3.4606446325
 30
0.0
 11
14.9791239637
 21
3.2622071265
 31
0.0
  0
LINE
  5
277
330
271
100
AcDbEntity
  8
0
  6
SLD-SOLID
 62
     7
100
AcDbLine
 10
14.9791239637
 20
3.2622071265
 30
0.0
 11
14.5796881929
 21
3.2622071265
 31
0.0
  0
LINE
  5
278
330
271
100
AcDbEntity
  8
0
  6
SLD-SOLID
 62
     7
100
AcDbLine
 10
14.3208050607
 20
3.3614258795
 30
0.0
 11
14.5669928809
 21
3.3614258795
 31
0.0
  0
MTEXT
  5
279
330
271
100
AcDbEntity
  8
0
  6
SLD-SOLID
 62
     7
100
AcDbMText
 10
14.6177741288
 20
3.4233406078
 30
0.0
 40
0.125
 41
0.0
 71
     1
 72
     1
  1
.000
  7
SLDTEXTSTYLE0
  0
ENDBLK
  5
273
330
271
100
AcDbEntity
  8
0
100
AcDbBlockEnd
  0
BLOCK
  5
27C
330
27B
100
AcDbEntity
  8
0
100
AcDbBlockBegin
  2
_D_14
 70
     0
 10
0.0
 20
0.0
 30
0.0
  3
_D_14
  1

  0
LINE
  5
27E
330
27B
100
AcDbEntity
  8
0
  6
SLD-SOLID
 62
     7
100
AcDbLine
 10
14.5796881929
 20
4.1462481545
 30
0.0
 11
14.5796881929
 21
4.3446856605
 31
0.0
  0
LINE
  5
27F
330
27B
100
AcDbEntity
  8
0
  6
SLD-SOLID
 62
     7
100
AcDbLine
 10
14.5796881929
 20
4.3446856605
 30
0.0
 11
14.9791239637
 21
4.3446856605
 31
0.0
  0
LINE
  5
280
330
27B
100
AcDbEntity
  8
0
  6
SLD-SOLID
 62
     7
100
AcDbLine
 10
14.9791239637
 20
4.3446856605
 30
0.0
 11
14.9791239637
 21
4.1462481545
 31
0.0
  0
LINE
  5
281
330
27B
100
AcDbEntity
  8
0
  6
SLD-SOLID
 62
     7
100
AcDbLine
 10
14.9791239637
 20
4.1462481545
 30
0.0
 11
14.5796881929
 21
4.1462481545
 31
0.0
  0
LINE
  5
282
330
27B
100
AcDbEntity
  8
0
  6
SLD-SOLID
 62
     7
100
AcDbLine
 10
14.3701424872
 20
4.2454669075
 30
0.0
 11
14.5669928809
 21
4.2454669075
 31
0.0
  0
LINE
  5
283
330
27B
100
AcDbEntity
  8
0
  6
SLD-SOLID
 62
     7
100
AcDbLine
 10
14.3701424872
 20
4.2454669075
 30
0.0
 11
14.1732920935
 21
4.345677848
 31
0.0
  0
LINE
  5
284
330
27B
100
AcDbEntity
  8
0
  6
SLD-SOLID
 62
     7
100
AcDbLine
 10
14.1732920935
 20
4.345677848
 30
0.0
 11
14.1160806513
 21
4.345677848
 31
0.0
  0
MTEXT
  5
285
330
27B
100
AcDbEntity
  8
0
  6
SLD-SOLID
 62
     7
100
AcDbMText
 10
14.6177741288
 20
4.3073816358
 30
0.0
 40
0.125
 41
0.0
 71
     1
 72
     1
  1
.984
  7
SLDTEXTSTYLE0
  0
ENDBLK
  5
27D
330
27B
100
AcDbEntity
  8
0
100
AcDbBlockEnd
  0
BLOCK
  5
288
330
287
100
AcDbEntity
  8
0
100
AcDbBlockBegin
  2
_D_15
 70
     0
 10
0.0
 20
0.0
 30
0.0
  3
_D_15
  1

  0
LINE
  5
28A
330
287
100
AcDbEntity
  8
0
  6
SLD-SOLID
 62
     7
100
AcDbLine
 10
14.5796881929
 20
4.7385850793
 30
0.0
 11
14.5796881929
 21
4.9370225853
 31
0.0
  0
LINE
  5
28B
330
287
100
AcDbEntity
  8
0
  6
SLD-SOLID
 62
     7
100
AcDbLine
 10
14.5796881929
 20
4.9370225853
 30
0.0
 11
15.0714850568
 21
4.9370225853
 31
0.0
  0
LINE
  5
28C
330
287
100
AcDbEntity
  8
0
  6
SLD-SOLID
 62
     7
100
AcDbLine
 10
15.0714850568
 20
4.9370225853
 30
0.0
 11
15.0714850568
 21
4.7385850793
 31
0.0
  0
LINE
  5
28D
330
287
100
AcDbEntity
  8
0
  6
SLD-SOLID
 62
     7
100
AcDbLine
 10
15.0714850568
 20
4.7385850793
 30
0.0
 11
14.5796881929
 21
4.7385850793
 31
0.0
  0
LINE
  5
28E
330
287
100
AcDbEntity
  8
0
  6
SLD-SOLID
 62
     7
100
AcDbLine
 10
14.1160806513
 20
4.8378038323
 30
0.0
 11
14.5669928809
 21
4.8378038323
 31
0.0
  0
MTEXT
  5
28F
330
287
100
AcDbEntity
  8
0
  6
SLD-SOLID
 62
     7
100
AcDbMText
 10
14.6177741288
 20
4.8997185605
 30
0.0
 40
0.125
 41
0.0
 71
     1
 72
     1
  1
1.476
  7
SLDTEXTSTYLE0
  0
ENDBLK
  5
289
330
287
100
AcDbEntity
  8
0
100
AcDbBlockEnd
  0
BLOCK
  5
292
330
291
100
AcDbEntity
  8
0
100
AcDbBlockBegin
  2
_D_16
 70
     0
 10
0.0
 20
0.0
 30
0.0
  3
_D_16
  1

  0
LINE
  5
294
330
291
100
AcDbEntity
  8
0
  6
SLD-SOLID
 62
     7
100
AcDbLine
 10
14.5796881929
 20
5.2307110636
 30
0.0
 11
14.5796881929
 21
5.4291485695
 31
0.0
  0
LINE
  5
295
330
291
100
AcDbEntity
  8
0
  6
SLD-SOLID
 62
     7
100
AcDbLine
 10
14.5796881929
 20
5.4291485695
 30
0.0
 11
15.0714850568
 21
5.4291485695
 31
0.0
  0
LINE
  5
296
330
291
100
AcDbEntity
  8
0
  6
SLD-SOLID
 62
     7
100
AcDbLine
 10
15.0714850568
 20
5.4291485695
 30
0.0
 11
15.0714850568
 21
5.2307110636
 31
0.0
  0
LINE
  5
297
330
291
100
AcDbEntity
  8
0
  6
SLD-SOLID
 62
     7
100
AcDbLine
 10
15.0714850568
 20
5.2307110636
 30
0.0
 11
14.5796881929
 21
5.2307110636
 31
0.0
  0
LINE
  5
298
330
291
100
AcDbEntity
  8
0
  6
SLD-SOLID
 62
     7
100
AcDbLine
 10
14.2840806513
 20
5.3299298165
 30
0.0
 11
14.5669928809
 21
5.3299298165
 31
0.0
  0
MTEXT
  5
299
330
291
100
AcDbEntity
  8
0
  6
SLD-SOLID
 62
     7
100
AcDbMText
 10
14.6177741288
 20
5.3918445448
 30
0.0
 40
0.125
 41
0.0
 71
     1
 72
     1
  1
1.969
  7
SLDTEXTSTYLE0
  0
ENDBLK
  5
293
330
291
100
AcDbEntity
  8
0
100
AcDbBlockEnd
  0
BLOCK
  5
29C
330
29B
100
AcDbEntity
  8
0
100
AcDbBlockBegin
  2
_D_17
 70
     0
 10
0.0
 20
0.0
 30
0.0
  3
_D_17
  1

  0
LINE
  5
29E
330
29B
100
AcDbEntity
  8
0
  6
SLD-SOLID
 62
     7
100
AcDbLine
 10
14.5796881929
 20
6.2149630321
 30
0.0
 11
14.5796881929
 21
6.413400538
 31
0.0
  0
LINE
  5
29F
330
29B
100
AcDbEntity
  8
0
  6
SLD-SOLID
 62
     7
100
AcDbLine
 10
14.5796881929
 20
6.413400538
 30
0.0
 11
15.0714850568
 21
6.413400538
 31
0.0
  0
LINE
  5
2A0
330
29B
100
AcDbEntity
  8
0
  6
SLD-SOLID
 62
     7
100
AcDbLine
 10
15.0714850568
 20
6.413400538
 30
0.0
 11
15.0714850568
 21
6.2149630321
 31
0.0
  0
LINE
  5
2A1
330
29B
100
AcDbEntity
  8
0
  6
SLD-SOLID
 62
     7
100
AcDbLine
 10
15.0714850568
 20
6.2149630321
 30
0.0
 11
14.5796881929
 21
6.2149630321
 31
0.0
  0
LINE
  5
2A2
330
29B
100
AcDbEntity
  8
0
  6
SLD-SOLID
 62
     7
100
AcDbLine
 10
14.2840806513
 20
6.314181785
 30
0.0
 11
14.5669928809
 21
6.314181785
 31
0.0
  0
MTEXT
  5
2A3
330
29B
100
AcDbEntity
  8
0
  6
SLD-SOLID
 62
     7
100
AcDbMText
 10
14.6177741288
 20
6.3760965133
 30
0.0
 40
0.125
 41
0.0
 71
     1
 72
     1
  1
2.953
  7
SLDTEXTSTYLE0
  0
ENDBLK
  5
29D
330
29B
100
AcDbEntity
  8
0
100
AcDbBlockEnd
  0
BLOCK
  5
2A6
330
2A5
100
AcDbEntity
  8
0
100
AcDbBlockBegin
  2
_D_18
 70
     0
 10
0.0
 20
0.0
 30
0.0
  3
_D_18
  1

  0
LINE
  5
2A8
330
2A5
100
AcDbEntity
  8
0
  6
SLD-SOLID
 62
     7
100
AcDbLine
 10
14.5796881929
 20
7.1992150006
 30
0.0
 11
14.5796881929
 21
7.3976525065
 31
0.0
  0
LINE
  5
2A9
330
2A5
100
AcDbEntity
  8
0
  6
SLD-SOLID
 62
     7
100
AcDbLine
 10
14.5796881929
 20
7.3976525065
 30
0.0
 11
15.0714850568
 21
7.3976525065
 31
0.0
  0
LINE
  5
2AA
330
2A5
100
AcDbEntity
  8
0
  6
SLD-SOLID
 62
     7
100
AcDbLine
 10
15.0714850568
 20
7.3976525065
 30
0.0
 11
15.0714850568
 21
7.1992150006
 31
0.0
  0
LINE
  5
2AB
330
2A5
100
AcDbEntity
  8
0
  6
SLD-SOLID
 62
     7
100
AcDbLine
 10
15.0714850568
 20
7.1992150006
 30
0.0
 11
14.5796881929
 21
7.1992150006
 31
0.0
  0
LINE
  5
2AC
330
2A5
100
AcDbEntity
  8
0
  6
SLD-SOLID
 62
     7
100
AcDbLine
 10
14.2840806513
 20
7.2984337535
 30
0.0
 11
14.5669928809
 21
7.2984337535
 31
0.0
  0
MTEXT
  5
2AD
330
2A5
100
AcDbEntity
  8
0
  6
SLD-SOLID
 62
     7
100
AcDbMText
 10
14.6177741288
 20
7.3603484818
 30
0.0
 40
0.125
 41
0.0
 71
     1
 72
     1
  1
3.937
  7
SLDTEXTSTYLE0
  0
ENDBLK
  5
2A7
330
2A5
100
AcDbEntity
  8
0
100
AcDbBlockEnd
  0
BLOCK
  5
2B0
330
2AF
100
AcDbEntity
  8
0
100
AcDbBlockBegin
  2
_D_19
 70
     0
 10
0.0
 20
0.0
 30
0.0
  3
_D_19
  1

  0
LINE
  5
2B2
330
2AF
100
AcDbEntity
  8
0
  6
SLD-SOLID
 62
     7
100
AcDbLine
 10
14.5796881929
 20
7.6913409848
 30
0.0
 11
14.5796881929
 21
7.8897784908
 31
0.0
  0
LINE
  5
2B3
330
2AF
100
AcDbEntity
  8
0
  6
SLD-SOLID
 62
     7
100
AcDbLine
 10
14.5796881929
 20
7.8897784908
 30
0.0
 11
15.0714850568
 21
7.8897784908
 31
0.0
  0
LINE
  5
2B4
330
2AF
100
AcDbEntity
  8
0
  6
SLD-SOLID
 62
     7
100
AcDbLine
 10
15.0714850568
 20
7.8897784908
 30
0.0
 11
15.0714850568
 21
7.6913409848
 31
0.0
  0
LINE
  5
2B5
330
2AF
100
AcDbEntity
  8
0
  6
SLD-SOLID
 62
     7
100
AcDbLine
 10
15.0714850568
 20
7.6913409848
 30
0.0
 11
14.5796881929
 21
7.6913409848
 31
0.0
  0
LINE
  5
2B6
330
2AF
100
AcDbEntity
  8
0
  6
SLD-SOLID
 62
     7
100
AcDbLine
 10
14.1160806513
 20
7.7905597378
 30
0.0
 11
14.5669928809
 21
7.7905597378
 31
0.0
  0
MTEXT
  5
2B7
330
2AF
100
AcDbEntity
  8
0
  6
SLD-SOLID
 62
     7
100
AcDbMText
 10
14.6177741288
 20
7.852474466
 30
0.0
 40
0.125
 41
0.0
 71
     1
 72
     1
  1
4.429
  7
SLDTEXTSTYLE0
  0
ENDBLK
  5
2B1
330
2AF
100
AcDbEntity
  8
0
100
AcDbBlockEnd
  0
BLOCK
  5
2BB
330
2BA
100
AcDbEntity
  8
0
100
AcDbBlockBegin
  2
_D_20
 70
     0
 10
0.0
 20
0.0
 30
0.0
  3
_D_20
  1

  0
LINE
  5
2BD
330
2BA
100
AcDbEntity
  8
0
  6
SLD-SOLID
 62
     7
100
AcDbLine
 10
14.5796881929
 20
8.1834669691
 30
0.0
 11
14.5796881929
 21
8.381904475
 31
0.0
  0
LINE
  5
2BE
330
2BA
100
AcDbEntity
  8
0
  6
SLD-SOLID
 62
     7
100
AcDbLine
 10
14.5796881929
 20
8.381904475
 30
0.0
 11
15.0714850568
 21
8.381904475
 31
0.0
  0
LINE
  5
2BF
330
2BA
100
AcDbEntity
  8
0
  6
SLD-SOLID
 62
     7
100
AcDbLine
 10
15.0714850568
 20
8.381904475
 30
0.0
 11
15.0714850568
 21
8.1834669691
 31
0.0
  0
LINE
  5
2C0
330
2BA
100
AcDbEntity
  8
0
  6
SLD-SOLID
 62
     7
100
AcDbLine
 10
15.0714850568
 20
8.1834669691
 30
0.0
 11
14.5796881929
 21
8.1834669691
 31
0.0
  0
LINE
  5
2C1
330
2BA
100
AcDbEntity
  8
0
  6
SLD-SOLID
 62
     7
100
AcDbLine
 10
14.2840806513
 20
8.282685722
 30
0.0
 11
14.5669928809
 21
8.282685722
 31
0.0
  0
MTEXT
  5
2C2
330
2BA
100
AcDbEntity
  8
0
  6
SLD-SOLID
 62
     7
100
AcDbMText
 10
14.6177741288
 20
8.3446004503
 30
0.0
 40
0.125
 41
0.0
 71
     1
 72
     1
  1
4.921
  7
SLDTEXTSTYLE0
  0
ENDBLK
  5
2BC
330
2BA
100
AcDbEntity
  8
0
100
AcDbBlockEnd
  0
BLOCK
  5
2C5
330
2C4
100
AcDbEntity
  8
0
100
AcDbBlockBegin
  2
_D_21
 70
     0
 10
0.0
 20
0.0
 30
0.0
  3
_D_21
  1

  0
SOLID
  5
2C7
330
2C4
100
AcDbEntity
  8
0
  6
SLD-SOLID
 62
     7
100
AcDbTrace
 10
14.0660806513
 20
4.494618538
 30
0.0
 11
13.9360806513
 21
4.514618538
 31
0.0
 12
13.9360806513
 22
4.474618538
 32
0.0
 13
13.9360806513
 23
4.474618538
 33
0.0
  0
SOLID
  5
2C8
330
2C4
100
AcDbEntity
  8
0
  6
SLD-SOLID
 62
     7
100
AcDbTrace
 10
14.2708050607
 20
4.494618538
 30
0.0
 11
14.4008050607
 21
4.474618538
 31
0.0
 12
14.4008050607
 22
4.514618538
 32
0.0
 13
14.4008050607
 23
4.514618538
 33
0.0
  0
LINE
  5
2C9
330
2C4
100
AcDbEntity
  8
0
  6
SLD-SOLID
 62
     7
100
AcDbLine
 10
14.7010084397
 20
4.3953997851
 30
0.0
 11
14.7010084397
 21
4.593837291
 31
0.0
  0
LINE
  5
2CA
330
2C4
100
AcDbEntity
  8
0
  6
SLD-SOLID
 62
     7
100
AcDbLine
 10
14.7010084397
 20
4.593837291
 30
0.0
 11
15.1004442106
 21
4.593837291
 31
0.0
  0
LINE
  5
2CB
330
2C4
100
AcDbEntity
  8
0
  6
SLD-SOLID
 62
     7
100
AcDbLine
 10
15.1004442106
 20
4.593837291
 30
0.0
 11
15.1004442106
 21
4.3953997851
 31
0.0
  0
LINE
  5
2CC
330
2C4
100
AcDbEntity
  8
0
  6
SLD-SOLID
 62
     7
100
AcDbLine
 10
15.1004442106
 20
4.3953997851
 30
0.0
 11
14.7010084397
 21
4.3953997851
 31
0.0
  0
LINE
  5
2CD
330
2C4
100
AcDbEntity
  8
0
  6
SLD-SOLID
 62
     7
100
AcDbLine
 10
14.0660806513
 20
8.064685722
 30
0.0
 11
14.0660806513
 21
4.369618538
 31
0.0
  0
LINE
  5
2CE
330
2C4
100
AcDbEntity
  8
0
  6
SLD-SOLID
 62
     7
100
AcDbLine
 10
14.0660806513
 20
4.494618538
 30
0.0
 11
13.8160806513
 21
4.494618538
 31
0.0
  0
LINE
  5
2CF
330
2C4
100
AcDbEntity
  8
0
  6
SLD-SOLID
 62
     7
100
AcDbLine
 10
14.2708050607
 20
4.494618538
 30
0.0
 11
14.6883131277
 21
4.494618538
 31
0.0
  0
MTEXT
  5
2D0
330
2C4
100
AcDbEntity
  8
0
  6
SLD-SOLID
 62
     7
100
AcDbMText
 10
14.7390943757
 20
4.5565332663
 30
0.0
 40
0.125
 41
0.0
 71
     1
 72
     1
  1
.205
  7
SLDTEXTSTYLE0
  0
ENDBLK
  5
2C6
330
2C4
100
AcDbEntity
  8
0
100
AcDbBlockEnd
  0
BLOCK
  5
2D5
330
2D4
100
AcDbEntity
  8
0
100
AcDbBlockBegin
  2
SW_CENTERMARKSYMBOL_5
 70
     0
 10
0.0
 20
0.0
 30
0.0
  3
SW_CENTERMARKSYMBOL_5
  1

  0
LINE
  5
2D7
330
2D4
100
AcDbEntity
  8
0
  6
SLD-SOLID
 62
     0
100
AcDbLine
 10
0.0
 20
0.0
 30
0.0
 11
0.0
 21
0.1
 31
0.0
  0
LINE
  5
2D8
330
2D4
100
AcDbEntity
  8
0
  6
SLD-SOLID
 62
     0
100
AcDbLine
 10
0.0
 20
0.0
 30
0.0
 11
-0.1
 21
0.0
 31
0.0
  0
LINE
  5
2D9
330
2D4
100
AcDbEntity
  8
0
  6
SLD-SOLID
 62
     0
100
AcDbLine
 10
0.0
 20
0.0
 30
0.0
 11
0.0
 21
-0.1
 31
0.0
  0
LINE
  5
2DA
330
2D4
100
AcDbEntity
  8
0
  6
SLD-SOLID
 62
     0
100
AcDbLine
 10
0.0
 20
0.0
 30
0.0
 11
0.1
 21
0.0
 31
0.0
  0
LINE
  5
2DB
330
2D4
100
AcDbEntity
  8
0
  6
SLD-SOLID
 62
     0
100
AcDbLine
 10
0.0
 20
0.1
 30
0.0
 11
0.0
 21
0.168
 31
0.0
  0
LINE
  5
2DC
330
2D4
100
AcDbEntity
  8
0
  6
SLD-SOLID
 62
     0
100
AcDbLine
 10
-0.1
 20
0.0
 30
0.0
 11
-0.168
 21
0.0
 31
0.0
  0
LINE
  5
2DD
330
2D4
100
AcDbEntity
  8
0
  6
SLD-SOLID
 62
     0
100
AcDbLine
 10
0.0
 20
-0.1
 30
0.0
 11
0.0
 21
-0.168
 31
0.0
  0
LINE
  5
2DE
330
2D4
100
AcDbEntity
  8
0
  6
SLD-SOLID
 62
     0
100
AcDbLine
 10
0.1
 20
0.0
 30
0.0
 11
0.168
 21
0.0
 31
0.0
  0
ENDBLK
  5
2D6
330
2D4
100
AcDbEntity
  8
0
100
AcDbBlockEnd
  0
BLOCK
  5
2E1
330
2E0
100
AcDbEntity
  8
0
100
AcDbBlockBegin
  2
SW_CENTERMARKSYMBOL_6
 70
     0
 10
0.0
 20
0.0
 30
0.0
  3
SW_CENTERMARKSYMBOL_6
  1

  0
LINE
  5
2E3
330
2E0
100
AcDbEntity
  8
0
  6
SLD-SOLID
 62
     0
100
AcDbLine
 10
0.0
 20
0.0
 30
0.0
 11
0.0
 21
0.1
 31
0.0
  0
LINE
  5
2E4
330
2E0
100
AcDbEntity
  8
0
  6
SLD-SOLID
 62
     0
100
AcDbLine
 10
0.0
 20
0.0
 30
0.0
 11
-0.1
 21
0.0
 31
0.0
  0
LINE
  5
2E5
330
2E0
100
AcDbEntity
  8
0
  6
SLD-SOLID
 62
     0
100
AcDbLine
 10
0.0
 20
0.0
 30
0.0
 11
0.0
 21
-0.1
 31
0.0
  0
LINE
  5
2E6
330
2E0
100
AcDbEntity
  8
0
  6
SLD-SOLID
 62
     0
100
AcDbLine
 10
0.0
 20
0.0
 30
0.0
 11
0.1
 21
0.0
 31
0.0
  0
LINE
  5
2E7
330
2E0
100
AcDbEntity
  8
0
  6
SLD-SOLID
 62
     0
100
AcDbLine
 10
0.0
 20
0.1
 30
0.0
 11
0.0
 21
0.168
 31
0.0
  0
LINE
  5
2E8
330
2E0
100
AcDbEntity
  8
0
  6
SLD-SOLID
 62
     0
100
AcDbLine
 10
-0.1
 20
0.0
 30
0.0
 11
-0.168
 21
0.0
 31
0.0
  0
LINE
  5
2E9
330
2E0
100
AcDbEntity
  8
0
  6
SLD-SOLID
 62
     0
100
AcDbLine
 10
0.0
 20
-0.1
 30
0.0
 11
0.0
 21
-0.168
 31
0.0
  0
LINE
  5
2EA
330
2E0
100
AcDbEntity
  8
0
  6
SLD-SOLID
 62
     0
100
AcDbLine
 10
0.1
 20
0.0
 30
0.0
 11
0.168
 21
0.0
 31
0.0
  0
ENDBLK
  5
2E2
330
2E0
100
AcDbEntity
  8
0
100
AcDbBlockEnd
  0
BLOCK
  5
2ED
330
2EC
100
AcDbEntity
  8
0
100
AcDbBlockBegin
  2
SW_CENTERMARKSYMBOL_7
 70
     0
 10
0.0
 20
0.0
 30
0.0
  3
SW_CENTERMARKSYMBOL_7
  1

  0
LINE
  5
2EF
330
2EC
100
AcDbEntity
  8
0
  6
SLD-SOLID
 62
     0
100
AcDbLine
 10
0.0
 20
0.0
 30
0.0
 11
0.0
 21
0.1
 31
0.0
  0
LINE
  5
2F0
330
2EC
100
AcDbEntity
  8
0
  6
SLD-SOLID
 62
     0
100
AcDbLine
 10
0.0
 20
0.0
 30
0.0
 11
-0.1
 21
0.0
 31
0.0
  0
LINE
  5
2F1
330
2EC
100
AcDbEntity
  8
0
  6
SLD-SOLID
 62
     0
100
AcDbLine
 10
0.0
 20
0.0
 30
0.0
 11
0.0
 21
-0.1
 31
0.0
  0
LINE
  5
2F2
330
2EC
100
AcDbEntity
  8
0
  6
SLD-SOLID
 62
     0
100
AcDbLine
 10
0.0
 20
0.0
 30
0.0
 11
0.1
 21
0.0
 31
0.0
  0
LINE
  5
2F3
330
2EC
100
AcDbEntity
  8
0
  6
SLD-SOLID
 62
     0
100
AcDbLine
 10
0.0
 20
0.1
 30
0.0
 11
0.0
 21
0.168
 31
0.0
  0
LINE
  5
2F4
330
2EC
100
AcDbEntity
  8
0
  6
SLD-SOLID
 62
     0
100
AcDbLine
 10
-0.1
 20
0.0
 30
0.0
 11
-0.168
 21
0.0
 31
0.0
  0
LINE
  5
2F5
330
2EC
100
AcDbEntity
  8
0
  6
SLD-SOLID
 62
     0
100
AcDbLine
 10
0.0
 20
-0.1
 30
0.0
 11
0.0
 21
-0.168
 31
0.0
  0
LINE
  5
2F6
330
2EC
100
AcDbEntity
  8
0
  6
SLD-SOLID
 62
     0
100
AcDbLine
 10
0.1
 20
0.0
 30
0.0
 11
0.168
 21
0.0
 31
0.0
  0
ENDBLK
  5
2EE
330
2EC
100
AcDbEntity
  8
0
100
AcDbBlockEnd
  0
BLOCK
  5
2F9
330
2F8
100
AcDbEntity
  8
0
100
AcDbBlockBegin
  2
SW_CENTERMARKSYMBOL_8
 70
     0
 10
0.0
 20
0.0
 30
0.0
  3
SW_CENTERMARKSYMBOL_8
  1

  0
LINE
  5
2FB
330
2F8
100
AcDbEntity
  8
0
  6
SLD-SOLID
 62
     0
100
AcDbLine
 10
0.0
 20
0.0
 30
0.0
 11
0.0
 21
0.1
 31
0.0
  0
LINE
  5
2FC
330
2F8
100
AcDbEntity
  8
0
  6
SLD-SOLID
 62
     0
100
AcDbLine
 10
0.0
 20
0.0
 30
0.0
 11
-0.1
 21
0.0
 31
0.0
  0
LINE
  5
2FD
330
2F8
100
AcDbEntity
  8
0
  6
SLD-SOLID
 62
     0
100
AcDbLine
 10
0.0
 20
0.0
 30
0.0
 11
0.0
 21
-0.1
 31
0.0
  0
LINE
  5
2FE
330
2F8
100
AcDbEntity
  8
0
  6
SLD-SOLID
 62
     0
100
AcDbLine
 10
0.0
 20
0.0
 30
0.0
 11
0.1
 21
0.0
 31
0.0
  0
LINE
  5
2FF
330
2F8
100
AcDbEntity
  8
0
  6
SLD-SOLID
 62
     0
100
AcDbLine
 10
0.0
 20
0.1
 30
0.0
 11
0.0
 21
0.168
 31
0.0
  0
LINE
  5
300
330
2F8
100
AcDbEntity
  8
0
  6
SLD-SOLID
 62
     0
100
AcDbLine
 10
-0.1
 20
0.0
 30
0.0
 11
-0.168
 21
0.0
 31
0.0
  0
LINE
  5
301
330
2F8
100
AcDbEntity
  8
0
  6
SLD-SOLID
 62
     0
100
AcDbLine
 10
0.0
 20
-0.1
 30
0.0
 11
0.0
 21
-0.168
 31
0.0
  0
LINE
  5
302
330
2F8
100
AcDbEntity
  8
0
  6
SLD-SOLID
 62
     0
100
AcDbLine
 10
0.1
 20
0.0
 30
0.0
 11
0.168
 21
0.0
 31
0.0
  0
ENDBLK
  5
2FA
330
2F8
100
AcDbEntity
  8
0
100
AcDbBlockEnd
  0
BLOCK
  5
305
330
304
100
AcDbEntity
  8
0
100
AcDbBlockBegin
  2
SW_CENTERMARKSYMBOL_9
 70
     0
 10
0.0
 20
0.0
 30
0.0
  3
SW_CENTERMARKSYMBOL_9
  1

  0
LINE
  5
307
330
304
100
AcDbEntity
  8
0
  6
SLD-SOLID
 62
     0
100
AcDbLine
 10
0.0
 20
0.0
 30
0.0
 11
0.0
 21
0.1
 31
0.0
  0
LINE
  5
308
330
304
100
AcDbEntity
  8
0
  6
SLD-SOLID
 62
     0
100
AcDbLine
 10
0.0
 20
0.0
 30
0.0
 11
-0.1
 21
0.0
 31
0.0
  0
LINE
  5
309
330
304
100
AcDbEntity
  8
0
  6
SLD-SOLID
 62
     0
100
AcDbLine
 10
0.0
 20
0.0
 30
0.0
 11
0.0
 21
-0.1
 31
0.0
  0
LINE
  5
30A
330
304
100
AcDbEntity
  8
0
  6
SLD-SOLID
 62
     0
100
AcDbLine
 10
0.0
 20
0.0
 30
0.0
 11
0.1
 21
0.0
 31
0.0
  0
LINE
  5
30B
330
304
100
AcDbEntity
  8
0
  6
SLD-SOLID
 62
     0
100
AcDbLine
 10
0.0
 20
0.1
 30
0.0
 11
0.0
 21
0.168
 31
0.0
  0
LINE
  5
30C
330
304
100
AcDbEntity
  8
0
  6
SLD-SOLID
 62
     0
100
AcDbLine
 10
-0.1
 20
0.0
 30
0.0
 11
-0.168
 21
0.0
 31
0.0
  0
LINE
  5
30D
330
304
100
AcDbEntity
  8
0
  6
SLD-SOLID
 62
     0
100
AcDbLine
 10
0.0
 20
-0.1
 30
0.0
 11
0.0
 21
-0.168
 31
0.0
  0
LINE
  5
30E
330
304
100
AcDbEntity
  8
0
  6
SLD-SOLID
 62
     0
100
AcDbLine
 10
0.1
 20
0.0
 30
0.0
 11
0.168
 21
0.0
 31
0.0
  0
ENDBLK
  5
306
330
304
100
AcDbEntity
  8
0
100
AcDbBlockEnd
  0
BLOCK
  5
31B
330
31A
100
AcDbEntity
  8
0
100
AcDbBlockBegin
  2
SW_DOWELSYMBOL_2
 70
     0
 10
0.0
 20
0.0
 30
0.0
  3
SW_DOWELSYMBOL_2
  1

  0
CIRCLE
  5
31D
330
31A
100
AcDbEntity
  8
0
  6
CONTINUOUS
 62
     0
100
AcDbCircle
 10
0.0
 20
0.0
 30
0.0
 40
0.0625000000000008
  0
INSERT
  5
31E
330
31A
100
AcDbEntity
  8
0
  6
CONTINUOUS
 62
     0
100
AcDbBlockReference
  2
*U51
 10
0.0
 20
0.0
 30
0.0
  0
INSERT
  5
31F
330
31A
100
AcDbEntity
  8
0
  6
CONTINUOUS
 62
     0
100
AcDbBlockReference
  2
*U52
 10
0.0
 20
0.0
 30
0.0
  0
ENDBLK
  5
31C
330
31A
100
AcDbEntity
  8
0
100
AcDbBlockEnd
  0
BLOCK
  5
322
330
321
100
AcDbEntity
  8
0
100
AcDbBlockBegin
  2
SW_DOWELSYMBOL_3
 70
     0
 10
0.0
 20
0.0
 30
0.0
  3
SW_DOWELSYMBOL_3
  1

  0
CIRCLE
  5
324
330
321
100
AcDbEntity
  8
0
  6
CONTINUOUS
 62
     0
100
AcDbCircle
 10
0.0
 20
0.0
 30
0.0
 40
0.0625000000000008
  0
INSERT
  5
325
330
321
100
AcDbEntity
  8
0
  6
CONTINUOUS
 62
     0
100
AcDbBlockReference
  2
*U53
 10
0.0
 20
0.0
 30
0.0
  0
INSERT
  5
326
330
321
100
AcDbEntity
  8
0
  6
CONTINUOUS
 62
     0
100
AcDbBlockReference
  2
*U54
 10
0.0
 20
0.0
 30
0.0
  0
ENDBLK
  5
323
330
321
100
AcDbEntity
  8
0
100
AcDbBlockEnd
  0
BLOCK
  5
386
330
385
100
AcDbEntity
  8
0
100
AcDbBlockBegin
  2
_D_22
 70
     0
 10
0.0
 20
0.0
 30
0.0
  3
_D_22
  1

  0
ARC
  5
388
330
385
100
AcDbEntity
  8
0
  6
SLD-SOLID
 62
     7
100
AcDbCircle
 10
2.6509011209
 20
9.8905007662
 30
0.0
 40
0.602381877738654
100
AcDbArc
 50
336.6510286973
 51
0.0
  0
ARC
  5
389
330
385
100
AcDbEntity
  8
0
  6
SLD-SOLID
 62
     7
100
AcDbCircle
 10
2.6509011209
 20
9.8905007662
 30
0.0
 40
0.6023818777386564
100
AcDbArc
 50
45.0
 51
68.3489713027
  0
SOLID
  5
38A
330
385
100
AcDbEntity
  8
0
  6
SLD-SOLID
 62
     7
100
AcDbTrace
 10
3.2532829986
 20
9.8905007662
 30
0.0
 11
3.219606066
 21
9.7633557143
 31
0.0
 12
3.2593803906
 22
9.7591127081
 32
0.0
 13
3.2593803906
 23
9.7591127081
 33
0.0
  0
SOLID
  5
38B
330
385
100
AcDbEntity
  8
0
  6
SLD-SOLID
 62
     7
100
AcDbTrace
 10
3.0768494315
 20
10.3164490768
 30
0.0
 11
2.9882555519
 21
10.4136659709
 31
0.0
 12
2.9631311157
 22
10.3825410178
 32
0.0
 13
2.9631311157
 23
10.3825410178
 33
0.0
  0
LINE
  5
38C
330
385
100
AcDbEntity
  8
0
  6
SLD-SOLID
 62
     7
100
AcDbLine
 10
2.8043666961
 20
10.0439663415
 30
0.0
 11
3.1652377791
 21
10.4048374245
 31
0.0
  0
MTEXT
  5
38D
330
385
100
AcDbEntity
  8
0
  6
SLD-SOLID
 62
     7
100
AcDbMText
 10
3.0883598587
 20
10.1662435
 30
0.0
 40
0.125
 41
0.0
 71
     1
 72
     1
  1
45
  7
SLDTEXTSTYLE0
  0
ENDBLK
  5
387
330
385
100
AcDbEntity
  8
0
100
AcDbBlockEnd
  0
BLOCK
  5
391
330
390
100
AcDbEntity
  8
0
100
AcDbBlockBegin
  2
_D_23
 70
     0
 10
0.0
 20
0.0
 30
0.0
  3
_D_23
  1

  0
SOLID
  5
393
330
390
100
AcDbEntity
  8
0
  6
SLD-SOLID
 62
     7
100
AcDbTrace
 10
2.7690113571
 20
9.6568076406
 30
0.0
 11
2.8990113571
 21
9.6368076406
 31
0.0
 12
2.8990113571
 22
9.6768076406
 32
0.0
 13
2.8990113571
 23
9.6768076406
 33
0.0
  0
SOLID
  5
394
330
390
100
AcDbEntity
  8
0
  6
SLD-SOLID
 62
     7
100
AcDbTrace
 10
2.6509011209
 20
9.6568076406
 30
0.0
 11
2.5209011209
 21
9.6768076406
 31
0.0
 12
2.5209011209
 22
9.6368076406
 32
0.0
 13
2.5209011209
 23
9.6368076406
 33
0.0
  0
LINE
  5
395
330
390
100
AcDbEntity
  8
0
  6
SLD-SOLID
 62
     7
100
AcDbLine
 10
2.7690113571
 20
9.9586110024
 30
0.0
 11
2.7690113571
 21
9.5318076406
 31
0.0
  0
LINE
  5
396
330
390
100
AcDbEntity
  8
0
  6
SLD-SOLID
 62
     7
100
AcDbLine
 10
2.6509011209
 20
9.8405007662
 30
0.0
 11
2.6509011209
 21
9.5318076406
 31
0.0
  0
LINE
  5
397
330
390
100
AcDbEntity
  8
0
  6
SLD-SOLID
 62
     7
100
AcDbLine
 10
2.7690113571
 20
9.6568076406
 30
0.0
 11
3.0190113571
 21
9.6568076406
 31
0.0
  0
LINE
  5
398
330
390
100
AcDbEntity
  8
0
  6
SLD-SOLID
 62
     7
100
AcDbLine
 10
2.6509011209
 20
9.6568076406
 30
0.0
 11
2.3157677876
 21
9.6568076406
 31
0.0
  0
MTEXT
  5
399
330
390
100
AcDbEntity
  8
0
  6
SLD-SOLID
 62
     7
100
AcDbMText
 10
1.9925038886
 20
9.7187223689
 30
0.0
 40
0.125
 41
0.0
 71
     1
 72
     1
  1
.118
  7
SLDTEXTSTYLE0
  0
ENDBLK
  5
392
330
390
100
AcDbEntity
  8
0
100
AcDbBlockEnd
  0
BLOCK
  5
431
330
3A9
100
AcDbEntity
  8
0
100
AcDbBlockBegin
  2
*U47
 70
     1
 10
0.0
 20
0.0
 30
0.0
  3
*U47
  1

  0
SOLID
  5
3AA
330
3A9
100
AcDbEntity
  8
0
  6
CONTINUOUS
 62
     0
100
AcDbTrace
 10
0.0
 20
0.0
 30
0.0
 11
0.0
 21
0.0625
 31
0.0
 12
0.0121931451
 22
0.0
 32
0.0
 13
0.0121931451
 23
0.0
 33
0.0
  0
SOLID
  5
3AB
330
3A9
100
AcDbEntity
  8
0
  6
CONTINUOUS
 62
     0
100
AcDbTrace
 10
0.0121931451
 20
0.0
 30
0.0
 11
0.0
 21
0.0625
 31
0.0
 12
0.0121931451
 22
0.06129908
 32
0.0
 13
0.0121931451
 23
0.06129908
 33
0.0
  0
SOLID
  5
3AC
330
3A9
100
AcDbEntity
  8
0
  6
CONTINUOUS
 62
     0
100
AcDbTrace
 10
0.0121931451
 20
0.0
 30
0.0
 11
0.0121931451
 21
0.06129908
 31
0.0
 12
0.0239177145
 22
0.0
 32
0.0
 13
0.0239177145
 23
0.0
 33
0.0
  0
SOLID
  5
3AD
330
3A9
100
AcDbEntity
  8
0
  6
CONTINUOUS
 62
     0
100
AcDbTrace
 10
0.0239177145
 20
0.0
 30
0.0
 11
0.0121931451
 21
0.06129908
 31
0.0
 12
0.0239177145
 22
0.0577424708
 32
0.0
 13
0.0239177145
 23
0.0577424708
 33
0.0
  0
SOLID
  5
3AE
330
3A9
100
AcDbEntity
  8
0
  6
CONTINUOUS
 62
     0
100
AcDbTrace
 10
0.0239177145
 20
0.0
 30
0.0
 11
0.0239177145
 21
0.0577424708
 31
0.0
 12
0.0347231396
 22
0.0
 32
0.0
 13
0.0347231396
 23
0.0
 33
0.0
  0
SOLID
  5
3AF
330
3A9
100
AcDbEntity
  8
0
  6
CONTINUOUS
 62
     0
100
AcDbTrace
 10
0.0347231396
 20
0.0
 30
0.0
 11
0.0239177145
 21
0.0577424708
 31
0.0
 12
0.0347231396
 22
0.0519668508
 32
0.0
 13
0.0347231396
 23
0.0519668508
 33
0.0
  0
SOLID
  5
3B0
330
3A9
100
AcDbEntity
  8
0
  6
CONTINUOUS
 62
     0
100
AcDbTrace
 10
0.0347231396
 20
0.0
 30
0.0
 11
0.0347231396
 21
0.0519668508
 31
0.0
 12
0.0441941738
 22
0.0
 32
0.0
 13
0.0441941738
 23
0.0
 33
0.0
  0
SOLID
  5
3B1
330
3A9
100
AcDbEntity
  8
0
  6
CONTINUOUS
 62
     0
100
AcDbTrace
 10
0.0441941738
 20
0.0
 30
0.0
 11
0.0347231396
 21
0.0519668508
 31
0.0
 12
0.0441941738
 22
0.0441941738
 32
0.0
 13
0.0441941738
 23
0.0441941738
 33
0.0
  0
SOLID
  5
3B2
330
3A9
100
AcDbEntity
  8
0
  6
CONTINUOUS
 62
     0
100
AcDbTrace
 10
0.0441941738
 20
0.0
 30
0.0
 11
0.0441941738
 21
0.0441941738
 31
0.0
 12
0.0519668508
 22
0.0
 32
0.0
 13
0.0519668508
 23
0.0
 33
0.0
  0
SOLID
  5
3B3
330
3A9
100
AcDbEntity
  8
0
  6
CONTINUOUS
 62
     0
100
AcDbTrace
 10
0.0519668508
 20
0.0
 30
0.0
 11
0.0441941738
 21
0.0441941738
 31
0.0
 12
0.0519668508
 22
0.0347231396
 32
0.0
 13
0.0519668508
 23
0.0347231396
 33
0.0
  0
SOLID
  5
3B4
330
3A9
100
AcDbEntity
  8
0
  6
CONTINUOUS
 62
     0
100
AcDbTrace
 10
0.0519668508
 20
0.0
 30
0.0
 11
0.0519668508
 21
0.0347231396
 31
0.0
 12
0.0577424708
 22
0.0
 32
0.0
 13
0.0577424708
 23
0.0
 33
0.0
  0
SOLID
  5
3B5
330
3A9
100
AcDbEntity
  8
0
  6
CONTINUOUS
 62
     0
100
AcDbTrace
 10
0.0577424708
 20
0.0
 30
0.0
 11
0.0519668508
 21
0.0347231396
 31
0.0
 12
0.0577424708
 22
0.0239177145
 32
0.0
 13
0.0577424708
 23
0.0239177145
 33
0.0
  0
SOLID
  5
3B6
330
3A9
100
AcDbEntity
  8
0
  6
CONTINUOUS
 62
     0
100
AcDbTrace
 10
0.0577424708
 20
0.0
 30
0.0
 11
0.0577424708
 21
0.0239177145
 31
0.0
 12
0.06129908
 22
0.0
 32
0.0
 13
0.06129908
 23
0.0
 33
0.0
  0
SOLID
  5
3B7
330
3A9
100
AcDbEntity
  8
0
  6
CONTINUOUS
 62
     0
100
AcDbTrace
 10
0.06129908
 20
0.0
 30
0.0
 11
0.0577424708
 21
0.0239177145
 31
0.0
 12
0.06129908
 22
0.0121931451
 32
0.0
 13
0.06129908
 23
0.0121931451
 33
0.0
  0
SOLID
  5
3B8
330
3A9
100
AcDbEntity
  8
0
  6
CONTINUOUS
 62
     0
100
AcDbTrace
 10
0.06129908
 20
0.0
 30
0.0
 11
0.06129908
 21
0.0121931451
 31
0.0
 12
0.0625
 22
0.0
 32
0.0
 13
0.0625
 23
0.0
 33
0.0
  0
ENDBLK
  5
432
330
3A9
100
AcDbEntity
  8
0
100
AcDbBlockEnd
  0
BLOCK
  5
433
330
3B9
100
AcDbEntity
  8
0
100
AcDbBlockBegin
  2
*U48
 70
     1
 10
0.0
 20
0.0
 30
0.0
  3
*U48
  1

  0
SOLID
  5
3BA
330
3B9
100
AcDbEntity
  8
0
  6
CONTINUOUS
 62
     0
100
AcDbTrace
 10
-0.0615504846
 20
-0.0108530111
 30
0.0
 11
-0.0625
 21
0.0
 31
0.0
 12
-0.0615504846
 22
0.0
 32
0.0
 13
-0.0615504846
 23
0.0
 33
0.0
  0
SOLID
  5
3BB
330
3B9
100
AcDbEntity
  8
0
  6
CONTINUOUS
 62
     0
100
AcDbTrace
 10
-0.0615504846
 20
-0.0108530111
 30
0.0
 11
-0.0615504846
 21
0.0
 31
0.0
 12
-0.0587307888
 22
-0.021376259
 32
0.0
 13
-0.0587307888
 23
-0.021376259
 33
0.0
  0
SOLID
  5
3BC
330
3B9
100
AcDbEntity
  8
0
  6
CONTINUOUS
 62
     0
100
AcDbTrace
 10
-0.0587307888
 20
-0.021376259
 30
0.0
 11
-0.0615504846
 21
0.0
 31
0.0
 12
-0.0587307888
 22
0.0
 32
0.0
 13
-0.0587307888
 23
0.0
 33
0.0
  0
SOLID
  5
3BD
330
3B9
100
AcDbEntity
  8
0
  6
CONTINUOUS
 62
     0
100
AcDbTrace
 10
-0.0587307888
 20
-0.021376259
 30
0.0
 11
-0.0587307888
 21
0.0
 31
0.0
 12
-0.0541265877
 22
-0.03125
 32
0.0
 13
-0.0541265877
 23
-0.03125
 33
0.0
  0
SOLID
  5
3BE
330
3B9
100
AcDbEntity
  8
0
  6
CONTINUOUS
 62
     0
100
AcDbTrace
 10
-0.0541265877
 20
-0.03125
 30
0.0
 11
-0.0587307888
 21
0.0
 31
0.0
 12
-0.0541265877
 22
0.0
 32
0.0
 13
-0.0541265877
 23
0.0
 33
0.0
  0
SOLID
  5
3BF
330
3B9
100
AcDbEntity
  8
0
  6
CONTINUOUS
 62
     0
100
AcDbTrace
 10
-0.0541265877
 20
-0.03125
 30
0.0
 11
-0.0541265877
 21
0.0
 31
0.0
 12
-0.0478777777
 22
-0.0401742256
 32
0.0
 13
-0.0478777777
 23
-0.0401742256
 33
0.0
  0
SOLID
  5
3C0
330
3B9
100
AcDbEntity
  8
0
  6
CONTINUOUS
 62
     0
100
AcDbTrace
 10
-0.0478777777
 20
-0.0401742256
 30
0.0
 11
-0.0541265877
 21
0.0
 31
0.0
 12
-0.0478777777
 22
0.0
 32
0.0
 13
-0.0478777777
 23
0.0
 33
0.0
  0
SOLID
  5
3C1
330
3B9
100
AcDbEntity
  8
0
  6
CONTINUOUS
 62
     0
100
AcDbTrace
 10
-0.0478777777
 20
-0.0401742256
 30
0.0
 11
-0.0478777777
 21
0.0
 31
0.0
 12
-0.0401742256
 22
-0.0478777777
 32
0.0
 13
-0.0401742256
 23
-0.0478777777
 33
0.0
  0
SOLID
  5
3C2
330
3B9
100
AcDbEntity
  8
0
  6
CONTINUOUS
 62
     0
100
AcDbTrace
 10
-0.0401742256
 20
-0.0478777777
 30
0.0
 11
-0.0478777777
 21
0.0
 31
0.0
 12
-0.0401742256
 22
0.0
 32
0.0
 13
-0.0401742256
 23
0.0
 33
0.0
  0
SOLID
  5
3C3
330
3B9
100
AcDbEntity
  8
0
  6
CONTINUOUS
 62
     0
100
AcDbTrace
 10
-0.0401742256
 20
-0.0478777777
 30
0.0
 11
-0.0401742256
 21
0.0
 31
0.0
 12
-0.03125
 22
-0.0541265877
 32
0.0
 13
-0.03125
 23
-0.0541265877
 33
0.0
  0
SOLID
  5
3C4
330
3B9
100
AcDbEntity
  8
0
  6
CONTINUOUS
 62
     0
100
AcDbTrace
 10
-0.03125
 20
-0.0541265877
 30
0.0
 11
-0.0401742256
 21
0.0
 31
0.0
 12
-0.03125
 22
0.0
 32
0.0
 13
-0.03125
 23
0.0
 33
0.0
  0
SOLID
  5
3C5
330
3B9
100
AcDbEntity
  8
0
  6
CONTINUOUS
 62
     0
100
AcDbTrace
 10
-0.03125
 20
-0.0541265877
 30
0.0
 11
-0.03125
 21
0.0
 31
0.0
 12
-0.021376259
 22
-0.0587307888
 32
0.0
 13
-0.021376259
 23
-0.0587307888
 33
0.0
  0
SOLID
  5
3C6
330
3B9
100
AcDbEntity
  8
0
  6
CONTINUOUS
 62
     0
100
AcDbTrace
 10
-0.021376259
 20
-0.0587307888
 30
0.0
 11
-0.03125
 21
0.0
 31
0.0
 12
-0.021376259
 22
0.0
 32
0.0
 13
-0.021376259
 23
0.0
 33
0.0
  0
SOLID
  5
3C7
330
3B9
100
AcDbEntity
  8
0
  6
CONTINUOUS
 62
     0
100
AcDbTrace
 10
-0.021376259
 20
-0.0587307888
 30
0.0
 11
-0.021376259
 21
0.0
 31
0.0
 12
-0.0108530111
 22
-0.0615504846
 32
0.0
 13
-0.0108530111
 23
-0.0615504846
 33
0.0
  0
SOLID
  5
3C8
330
3B9
100
AcDbEntity
  8
0
  6
CONTINUOUS
 62
     0
100
AcDbTrace
 10
-0.0108530111
 20
-0.0615504846
 30
0.0
 11
-0.021376259
 21
0.0
 31
0.0
 12
-0.0108530111
 22
0.0
 32
0.0
 13
-0.0108530111
 23
0.0
 33
0.0
  0
SOLID
  5
3C9
330
3B9
100
AcDbEntity
  8
0
  6
CONTINUOUS
 62
     0
100
AcDbTrace
 10
-0.0108530111
 20
-0.0615504846
 30
0.0
 11
-0.0108530111
 21
0.0
 31
0.0
 12
0.0
 22
-0.0625
 32
0.0
 13
0.0
 23
-0.0625
 33
0.0
  0
SOLID
  5
3CA
330
3B9
100
AcDbEntity
  8
0
  6
CONTINUOUS
 62
     0
100
AcDbTrace
 10
0.0
 20
-0.0625
 30
0.0
 11
-0.0108530111
 21
0.0
 31
0.0
 12
0.0
 22
0.0
 32
0.0
 13
0.0
 23
0.0
 33
0.0
  0
ENDBLK
  5
434
330
3B9
100
AcDbEntity
  8
0
100
AcDbBlockEnd
  0
BLOCK
  5
435
330
3CB
100
AcDbEntity
  8
0
100
AcDbBlockBegin
  2
*U49
 70
     1
 10
0.0
 20
0.0
 30
0.0
  3
*U49
  1

  0
SOLID
  5
3CC
330
3CB
100
AcDbEntity
  8
0
  6
CONTINUOUS
 62
     0
100
AcDbTrace
 10
0.0
 20
0.0
 30
0.0
 11
0.0
 21
0.0625
 31
0.0
 12
0.0121931451
 22
0.0
 32
0.0
 13
0.0121931451
 23
0.0
 33
0.0
  0
SOLID
  5
3CD
330
3CB
100
AcDbEntity
  8
0
  6
CONTINUOUS
 62
     0
100
AcDbTrace
 10
0.0121931451
 20
0.0
 30
0.0
 11
0.0
 21
0.0625
 31
0.0
 12
0.0121931451
 22
0.06129908
 32
0.0
 13
0.0121931451
 23
0.06129908
 33
0.0
  0
SOLID
  5
3CE
330
3CB
100
AcDbEntity
  8
0
  6
CONTINUOUS
 62
     0
100
AcDbTrace
 10
0.0121931451
 20
0.0
 30
0.0
 11
0.0121931451
 21
0.06129908
 31
0.0
 12
0.0239177145
 22
0.0
 32
0.0
 13
0.0239177145
 23
0.0
 33
0.0
  0
SOLID
  5
3CF
330
3CB
100
AcDbEntity
  8
0
  6
CONTINUOUS
 62
     0
100
AcDbTrace
 10
0.0239177145
 20
0.0
 30
0.0
 11
0.0121931451
 21
0.06129908
 31
0.0
 12
0.0239177145
 22
0.0577424708
 32
0.0
 13
0.0239177145
 23
0.0577424708
 33
0.0
  0
SOLID
  5
3D0
330
3CB
100
AcDbEntity
  8
0
  6
CONTINUOUS
 62
     0
100
AcDbTrace
 10
0.0239177145
 20
0.0
 30
0.0
 11
0.0239177145
 21
0.0577424708
 31
0.0
 12
0.0347231396
 22
0.0
 32
0.0
 13
0.0347231396
 23
0.0
 33
0.0
  0
SOLID
  5
3D1
330
3CB
100
AcDbEntity
  8
0
  6
CONTINUOUS
 62
     0
100
AcDbTrace
 10
0.0347231396
 20
0.0
 30
0.0
 11
0.0239177145
 21
0.0577424708
 31
0.0
 12
0.0347231396
 22
0.0519668508
 32
0.0
 13
0.0347231396
 23
0.0519668508
 33
0.0
  0
SOLID
  5
3D2
330
3CB
100
AcDbEntity
  8
0
  6
CONTINUOUS
 62
     0
100
AcDbTrace
 10
0.0347231396
 20
0.0
 30
0.0
 11
0.0347231396
 21
0.0519668508
 31
0.0
 12
0.0441941738
 22
0.0
 32
0.0
 13
0.0441941738
 23
0.0
 33
0.0
  0
SOLID
  5
3D3
330
3CB
100
AcDbEntity
  8
0
  6
CONTINUOUS
 62
     0
100
AcDbTrace
 10
0.0441941738
 20
0.0
 30
0.0
 11
0.0347231396
 21
0.0519668508
 31
0.0
 12
0.0441941738
 22
0.0441941738
 32
0.0
 13
0.0441941738
 23
0.0441941738
 33
0.0
  0
SOLID
  5
3D4
330
3CB
100
AcDbEntity
  8
0
  6
CONTINUOUS
 62
     0
100
AcDbTrace
 10
0.0441941738
 20
0.0
 30
0.0
 11
0.0441941738
 21
0.0441941738
 31
0.0
 12
0.0519668508
 22
0.0
 32
0.0
 13
0.0519668508
 23
0.0
 33
0.0
  0
SOLID
  5
3D5
330
3CB
100
AcDbEntity
  8
0
  6
CONTINUOUS
 62
     0
100
AcDbTrace
 10
0.0519668508
 20
0.0
 30
0.0
 11
0.0441941738
 21
0.0441941738
 31
0.0
 12
0.0519668508
 22
0.0347231396
 32
0.0
 13
0.0519668508
 23
0.0347231396
 33
0.0
  0
SOLID
  5
3D6
330
3CB
100
AcDbEntity
  8
0
  6
CONTINUOUS
 62
     0
100
AcDbTrace
 10
0.0519668508
 20
0.0
 30
0.0
 11
0.0519668508
 21
0.0347231396
 31
0.0
 12
0.0577424708
 22
0.0
 32
0.0
 13
0.0577424708
 23
0.0
 33
0.0
  0
SOLID
  5
3D7
330
3CB
100
AcDbEntity
  8
0
  6
CONTINUOUS
 62
     0
100
AcDbTrace
 10
0.0577424708
 20
0.0
 30
0.0
 11
0.0519668508
 21
0.0347231396
 31
0.0
 12
0.0577424708
 22
0.0239177145
 32
0.0
 13
0.0577424708
 23
0.0239177145
 33
0.0
  0
SOLID
  5
3D8
330
3CB
100
AcDbEntity
  8
0
  6
CONTINUOUS
 62
     0
100
AcDbTrace
 10
0.0577424708
 20
0.0
 30
0.0
 11
0.0577424708
 21
0.0239177145
 31
0.0
 12
0.06129908
 22
0.0
 32
0.0
 13
0.06129908
 23
0.0
 33
0.0
  0
SOLID
  5
3D9
330
3CB
100
AcDbEntity
  8
0
  6
CONTINUOUS
 62
     0
100
AcDbTrace
 10
0.06129908
 20
0.0
 30
0.0
 11
0.0577424708
 21
0.0239177145
 31
0.0
 12
0.06129908
 22
0.0121931451
 32
0.0
 13
0.06129908
 23
0.0121931451
 33
0.0
  0
SOLID
  5
3DA
330
3CB
100
AcDbEntity
  8
0
  6
CONTINUOUS
 62
     0
100
AcDbTrace
 10
0.06129908
 20
0.0
 30
0.0
 11
0.06129908
 21
0.0121931451
 31
0.0
 12
0.0625
 22
0.0
 32
0.0
 13
0.0625
 23
0.0
 33
0.0
  0
ENDBLK
  5
436
330
3CB
100
AcDbEntity
  8
0
100
AcDbBlockEnd
  0
BLOCK
  5
437
330
3DB
100
AcDbEntity
  8
0
100
AcDbBlockBegin
  2
*U50
 70
     1
 10
0.0
 20
0.0
 30
0.0
  3
*U50
  1

  0
SOLID
  5
3DC
330
3DB
100
AcDbEntity
  8
0
  6
CONTINUOUS
 62
     0
100
AcDbTrace
 10
-0.0615504846
 20
-0.0108530111
 30
0.0
 11
-0.0625
 21
0.0
 31
0.0
 12
-0.0615504846
 22
0.0
 32
0.0
 13
-0.0615504846
 23
0.0
 33
0.0
  0
SOLID
  5
3DD
330
3DB
100
AcDbEntity
  8
0
  6
CONTINUOUS
 62
     0
100
AcDbTrace
 10
-0.0615504846
 20
-0.0108530111
 30
0.0
 11
-0.0615504846
 21
0.0
 31
0.0
 12
-0.0587307888
 22
-0.021376259
 32
0.0
 13
-0.0587307888
 23
-0.021376259
 33
0.0
  0
SOLID
  5
3DE
330
3DB
100
AcDbEntity
  8
0
  6
CONTINUOUS
 62
     0
100
AcDbTrace
 10
-0.0587307888
 20
-0.021376259
 30
0.0
 11
-0.0615504846
 21
0.0
 31
0.0
 12
-0.0587307888
 22
0.0
 32
0.0
 13
-0.0587307888
 23
0.0
 33
0.0
  0
SOLID
  5
3DF
330
3DB
100
AcDbEntity
  8
0
  6
CONTINUOUS
 62
     0
100
AcDbTrace
 10
-0.0587307888
 20
-0.021376259
 30
0.0
 11
-0.0587307888
 21
0.0
 31
0.0
 12
-0.0541265877
 22
-0.03125
 32
0.0
 13
-0.0541265877
 23
-0.03125
 33
0.0
  0
SOLID
  5
3E0
330
3DB
100
AcDbEntity
  8
0
  6
CONTINUOUS
 62
     0
100
AcDbTrace
 10
-0.0541265877
 20
-0.03125
 30
0.0
 11
-0.0587307888
 21
0.0
 31
0.0
 12
-0.0541265877
 22
0.0
 32
0.0
 13
-0.0541265877
 23
0.0
 33
0.0
  0
SOLID
  5
3E1
330
3DB
100
AcDbEntity
  8
0
  6
CONTINUOUS
 62
     0
100
AcDbTrace
 10
-0.0541265877
 20
-0.03125
 30
0.0
 11
-0.0541265877
 21
0.0
 31
0.0
 12
-0.0478777777
 22
-0.0401742256
 32
0.0
 13
-0.0478777777
 23
-0.0401742256
 33
0.0
  0
SOLID
  5
3E2
330
3DB
100
AcDbEntity
  8
0
  6
CONTINUOUS
 62
     0
100
AcDbTrace
 10
-0.0478777777
 20
-0.0401742256
 30
0.0
 11
-0.0541265877
 21
0.0
 31
0.0
 12
-0.0478777777
 22
0.0
 32
0.0
 13
-0.0478777777
 23
0.0
 33
0.0
  0
SOLID
  5
3E3
330
3DB
100
AcDbEntity
  8
0
  6
CONTINUOUS
 62
     0
100
AcDbTrace
 10
-0.0478777777
 20
-0.0401742256
 30
0.0
 11
-0.0478777777
 21
0.0
 31
0.0
 12
-0.0401742256
 22
-0.0478777777
 32
0.0
 13
-0.0401742256
 23
-0.0478777777
 33
0.0
  0
SOLID
  5
3E4
330
3DB
100
AcDbEntity
  8
0
  6
CONTINUOUS
 62
     0
100
AcDbTrace
 10
-0.0401742256
 20
-0.0478777777
 30
0.0
 11
-0.0478777777
 21
0.0
 31
0.0
 12
-0.0401742256
 22
0.0
 32
0.0
 13
-0.0401742256
 23
0.0
 33
0.0
  0
SOLID
  5
3E5
330
3DB
100
AcDbEntity
  8
0
  6
CONTINUOUS
 62
     0
100
AcDbTrace
 10
-0.0401742256
 20
-0.0478777777
 30
0.0
 11
-0.0401742256
 21
0.0
 31
0.0
 12
-0.03125
 22
-0.0541265877
 32
0.0
 13
-0.03125
 23
-0.0541265877
 33
0.0
  0
SOLID
  5
3E6
330
3DB
100
AcDbEntity
  8
0
  6
CONTINUOUS
 62
     0
100
AcDbTrace
 10
-0.03125
 20
-0.0541265877
 30
0.0
 11
-0.0401742256
 21
0.0
 31
0.0
 12
-0.03125
 22
0.0
 32
0.0
 13
-0.03125
 23
0.0
 33
0.0
  0
SOLID
  5
3E7
330
3DB
100
AcDbEntity
  8
0
  6
CONTINUOUS
 62
     0
100
AcDbTrace
 10
-0.03125
 20
-0.0541265877
 30
0.0
 11
-0.03125
 21
0.0
 31
0.0
 12
-0.021376259
 22
-0.0587307888
 32
0.0
 13
-0.021376259
 23
-0.0587307888
 33
0.0
  0
SOLID
  5
3E8
330
3DB
100
AcDbEntity
  8
0
  6
CONTINUOUS
 62
     0
100
AcDbTrace
 10
-0.021376259
 20
-0.0587307888
 30
0.0
 11
-0.03125
 21
0.0
 31
0.0
 12
-0.021376259
 22
0.0
 32
0.0
 13
-0.021376259
 23
0.0
 33
0.0
  0
SOLID
  5
3E9
330
3DB
100
AcDbEntity
  8
0
  6
CONTINUOUS
 62
     0
100
AcDbTrace
 10
-0.021376259
 20
-0.0587307888
 30
0.0
 11
-0.021376259
 21
0.0
 31
0.0
 12
-0.0108530111
 22
-0.0615504846
 32
0.0
 13
-0.0108530111
 23
-0.0615504846
 33
0.0
  0
SOLID
  5
3EA
330
3DB
100
AcDbEntity
  8
0
  6
CONTINUOUS
 62
     0
100
AcDbTrace
 10
-0.0108530111
 20
-0.0615504846
 30
0.0
 11
-0.021376259
 21
0.0
 31
0.0
 12
-0.0108530111
 22
0.0
 32
0.0
 13
-0.0108530111
 23
0.0
 33
0.0
  0
SOLID
  5
3EB
330
3DB
100
AcDbEntity
  8
0
  6
CONTINUOUS
 62
     0
100
AcDbTrace
 10
-0.0108530111
 20
-0.0615504846
 30
0.0
 11
-0.0108530111
 21
0.0
 31
0.0
 12
0.0
 22
-0.0625
 32
0.0
 13
0.0
 23
-0.0625
 33
0.0
  0
SOLID
  5
3EC
330
3DB
100
AcDbEntity
  8
0
  6
CONTINUOUS
 62
     0
100
AcDbTrace
 10
0.0
 20
-0.0625
 30
0.0
 11
-0.0108530111
 21
0.0
 31
0.0
 12
0.0
 22
0.0
 32
0.0
 13
0.0
 23
0.0
 33
0.0
  0
ENDBLK
  5
438
330
3DB
100
AcDbEntity
  8
0
100
AcDbBlockEnd
  0
BLOCK
  5
439
330
3ED
100
AcDbEntity
  8
0
100
AcDbBlockBegin
  2
*U51
 70
     1
 10
0.0
 20
0.0
 30
0.0
  3
*U51
  1

  0
SOLID
  5
3EE
330
3ED
100
AcDbEntity
  8
0
  6
CONTINUOUS
 62
     0
100
AcDbTrace
 10
0.0
 20
0.0
 30
0.0
 11
0.0
 21
0.0625
 31
0.0
 12
0.0121931451
 22
0.0
 32
0.0
 13
0.0121931451
 23
0.0
 33
0.0
  0
SOLID
  5
3EF
330
3ED
100
AcDbEntity
  8
0
  6
CONTINUOUS
 62
     0
100
AcDbTrace
 10
0.0121931451
 20
0.0
 30
0.0
 11
0.0
 21
0.0625
 31
0.0
 12
0.0121931451
 22
0.06129908
 32
0.0
 13
0.0121931451
 23
0.06129908
 33
0.0
  0
SOLID
  5
3F0
330
3ED
100
AcDbEntity
  8
0
  6
CONTINUOUS
 62
     0
100
AcDbTrace
 10
0.0121931451
 20
0.0
 30
0.0
 11
0.0121931451
 21
0.06129908
 31
0.0
 12
0.0239177145
 22
0.0
 32
0.0
 13
0.0239177145
 23
0.0
 33
0.0
  0
SOLID
  5
3F1
330
3ED
100
AcDbEntity
  8
0
  6
CONTINUOUS
 62
     0
100
AcDbTrace
 10
0.0239177145
 20
0.0
 30
0.0
 11
0.0121931451
 21
0.06129908
 31
0.0
 12
0.0239177145
 22
0.0577424708
 32
0.0
 13
0.0239177145
 23
0.0577424708
 33
0.0
  0
SOLID
  5
3F2
330
3ED
100
AcDbEntity
  8
0
  6
CONTINUOUS
 62
     0
100
AcDbTrace
 10
0.0239177145
 20
0.0
 30
0.0
 11
0.0239177145
 21
0.0577424708
 31
0.0
 12
0.0347231396
 22
0.0
 32
0.0
 13
0.0347231396
 23
0.0
 33
0.0
  0
SOLID
  5
3F3
330
3ED
100
AcDbEntity
  8
0
  6
CONTINUOUS
 62
     0
100
AcDbTrace
 10
0.0347231396
 20
0.0
 30
0.0
 11
0.0239177145
 21
0.0577424708
 31
0.0
 12
0.0347231396
 22
0.0519668508
 32
0.0
 13
0.0347231396
 23
0.0519668508
 33
0.0
  0
SOLID
  5
3F4
330
3ED
100
AcDbEntity
  8
0
  6
CONTINUOUS
 62
     0
100
AcDbTrace
 10
0.0347231396
 20
0.0
 30
0.0
 11
0.0347231396
 21
0.0519668508
 31
0.0
 12
0.0441941738
 22
0.0
 32
0.0
 13
0.0441941738
 23
0.0
 33
0.0
  0
SOLID
  5
3F5
330
3ED
100
AcDbEntity
  8
0
  6
CONTINUOUS
 62
     0
100
AcDbTrace
 10
0.0441941738
 20
0.0
 30
0.0
 11
0.0347231396
 21
0.0519668508
 31
0.0
 12
0.0441941738
 22
0.0441941738
 32
0.0
 13
0.0441941738
 23
0.0441941738
 33
0.0
  0
SOLID
  5
3F6
330
3ED
100
AcDbEntity
  8
0
  6
CONTINUOUS
 62
     0
100
AcDbTrace
 10
0.0441941738
 20
0.0
 30
0.0
 11
0.0441941738
 21
0.0441941738
 31
0.0
 12
0.0519668508
 22
0.0
 32
0.0
 13
0.0519668508
 23
0.0
 33
0.0
  0
SOLID
  5
3F7
330
3ED
100
AcDbEntity
  8
0
  6
CONTINUOUS
 62
     0
100
AcDbTrace
 10
0.0519668508
 20
0.0
 30
0.0
 11
0.0441941738
 21
0.0441941738
 31
0.0
 12
0.0519668508
 22
0.0347231396
 32
0.0
 13
0.0519668508
 23
0.0347231396
 33
0.0
  0
SOLID
  5
3F8
330
3ED
100
AcDbEntity
  8
0
  6
CONTINUOUS
 62
     0
100
AcDbTrace
 10
0.0519668508
 20
0.0
 30
0.0
 11
0.0519668508
 21
0.0347231396
 31
0.0
 12
0.0577424708
 22
0.0
 32
0.0
 13
0.0577424708
 23
0.0
 33
0.0
  0
SOLID
  5
3F9
330
3ED
100
AcDbEntity
  8
0
  6
CONTINUOUS
 62
     0
100
AcDbTrace
 10
0.0577424708
 20
0.0
 30
0.0
 11
0.0519668508
 21
0.0347231396
 31
0.0
 12
0.0577424708
 22
0.0239177145
 32
0.0
 13
0.0577424708
 23
0.0239177145
 33
0.0
  0
SOLID
  5
3FA
330
3ED
100
AcDbEntity
  8
0
  6
CONTINUOUS
 62
     0
100
AcDbTrace
 10
0.0577424708
 20
0.0
 30
0.0
 11
0.0577424708
 21
0.0239177145
 31
0.0
 12
0.06129908
 22
0.0
 32
0.0
 13
0.06129908
 23
0.0
 33
0.0
  0
SOLID
  5
3FB
330
3ED
100
AcDbEntity
  8
0
  6
CONTINUOUS
 62
     0
100
AcDbTrace
 10
0.06129908
 20
0.0
 30
0.0
 11
0.0577424708
 21
0.0239177145
 31
0.0
 12
0.06129908
 22
0.0121931451
 32
0.0
 13
0.06129908
 23
0.0121931451
 33
0.0
  0
SOLID
  5
3FC
330
3ED
100
AcDbEntity
  8
0
  6
CONTINUOUS
 62
     0
100
AcDbTrace
 10
0.06129908
 20
0.0
 30
0.0
 11
0.06129908
 21
0.0121931451
 31
0.0
 12
0.0625
 22
0.0
 32
0.0
 13
0.0625
 23
0.0
 33
0.0
  0
ENDBLK
  5
43A
330
3ED
100
AcDbEntity
  8
0
100
AcDbBlockEnd
  0
BLOCK
  5
43B
330
3FD
100
AcDbEntity
  8
0
100
AcDbBlockBegin
  2
*U52
 70
     1
 10
0.0
 20
0.0
 30
0.0
  3
*U52
  1

  0
SOLID
  5
3FE
330
3FD
100
AcDbEntity
  8
0
  6
CONTINUOUS
 62
     0
100
AcDbTrace
 10
-0.0615504846
 20
-0.0108530111
 30
0.0
 11
-0.0625
 21
0.0
 31
0.0
 12
-0.0615504846
 22
0.0
 32
0.0
 13
-0.0615504846
 23
0.0
 33
0.0
  0
SOLID
  5
3FF
330
3FD
100
AcDbEntity
  8
0
  6
CONTINUOUS
 62
     0
100
AcDbTrace
 10
-0.0615504846
 20
-0.0108530111
 30
0.0
 11
-0.0615504846
 21
0.0
 31
0.0
 12
-0.0587307888
 22
-0.021376259
 32
0.0
 13
-0.0587307888
 23
-0.021376259
 33
0.0
  0
SOLID
  5
400
330
3FD
100
AcDbEntity
  8
0
  6
CONTINUOUS
 62
     0
100
AcDbTrace
 10
-0.0587307888
 20
-0.021376259
 30
0.0
 11
-0.0615504846
 21
0.0
 31
0.0
 12
-0.0587307888
 22
0.0
 32
0.0
 13
-0.0587307888
 23
0.0
 33
0.0
  0
SOLID
  5
401
330
3FD
100
AcDbEntity
  8
0
  6
CONTINUOUS
 62
     0
100
AcDbTrace
 10
-0.0587307888
 20
-0.021376259
 30
0.0
 11
-0.0587307888
 21
0.0
 31
0.0
 12
-0.0541265877
 22
-0.03125
 32
0.0
 13
-0.0541265877
 23
-0.03125
 33
0.0
  0
SOLID
  5
402
330
3FD
100
AcDbEntity
  8
0
  6
CONTINUOUS
 62
     0
100
AcDbTrace
 10
-0.0541265877
 20
-0.03125
 30
0.0
 11
-0.0587307888
 21
0.0
 31
0.0
 12
-0.0541265877
 22
0.0
 32
0.0
 13
-0.0541265877
 23
0.0
 33
0.0
  0
SOLID
  5
403
330
3FD
100
AcDbEntity
  8
0
  6
CONTINUOUS
 62
     0
100
AcDbTrace
 10
-0.0541265877
 20
-0.03125
 30
0.0
 11
-0.0541265877
 21
0.0
 31
0.0
 12
-0.0478777777
 22
-0.0401742256
 32
0.0
 13
-0.0478777777
 23
-0.0401742256
 33
0.0
  0
SOLID
  5
404
330
3FD
100
AcDbEntity
  8
0
  6
CONTINUOUS
 62
     0
100
AcDbTrace
 10
-0.0478777777
 20
-0.0401742256
 30
0.0
 11
-0.0541265877
 21
0.0
 31
0.0
 12
-0.0478777777
 22
0.0
 32
0.0
 13
-0.0478777777
 23
0.0
 33
0.0
  0
SOLID
  5
405
330
3FD
100
AcDbEntity
  8
0
  6
CONTINUOUS
 62
     0
100
AcDbTrace
 10
-0.0478777777
 20
-0.0401742256
 30
0.0
 11
-0.0478777777
 21
0.0
 31
0.0
 12
-0.0401742256
 22
-0.0478777777
 32
0.0
 13
-0.0401742256
 23
-0.0478777777
 33
0.0
  0
SOLID
  5
406
330
3FD
100
AcDbEntity
  8
0
  6
CONTINUOUS
 62
     0
100
AcDbTrace
 10
-0.0401742256
 20
-0.0478777777
 30
0.0
 11
-0.0478777777
 21
0.0
 31
0.0
 12
-0.0401742256
 22
0.0
 32
0.0
 13
-0.0401742256
 23
0.0
 33
0.0
  0
SOLID
  5
407
330
3FD
100
AcDbEntity
  8
0
  6
CONTINUOUS
 62
     0
100
AcDbTrace
 10
-0.0401742256
 20
-0.0478777777
 30
0.0
 11
-0.0401742256
 21
0.0
 31
0.0
 12
-0.03125
 22
-0.0541265877
 32
0.0
 13
-0.03125
 23
-0.0541265877
 33
0.0
  0
SOLID
  5
408
330
3FD
100
AcDbEntity
  8
0
  6
CONTINUOUS
 62
     0
100
AcDbTrace
 10
-0.03125
 20
-0.0541265877
 30
0.0
 11
-0.0401742256
 21
0.0
 31
0.0
 12
-0.03125
 22
0.0
 32
0.0
 13
-0.03125
 23
0.0
 33
0.0
  0
SOLID
  5
409
330
3FD
100
AcDbEntity
  8
0
  6
CONTINUOUS
 62
     0
100
AcDbTrace
 10
-0.03125
 20
-0.0541265877
 30
0.0
 11
-0.03125
 21
0.0
 31
0.0
 12
-0.021376259
 22
-0.0587307888
 32
0.0
 13
-0.021376259
 23
-0.0587307888
 33
0.0
  0
SOLID
  5
40A
330
3FD
100
AcDbEntity
  8
0
  6
CONTINUOUS
 62
     0
100
AcDbTrace
 10
-0.021376259
 20
-0.0587307888
 30
0.0
 11
-0.03125
 21
0.0
 31
0.0
 12
-0.021376259
 22
0.0
 32
0.0
 13
-0.021376259
 23
0.0
 33
0.0
  0
SOLID
  5
40B
330
3FD
100
AcDbEntity
  8
0
  6
CONTINUOUS
 62
     0
100
AcDbTrace
 10
-0.021376259
 20
-0.0587307888
 30
0.0
 11
-0.021376259
 21
0.0
 31
0.0
 12
-0.0108530111
 22
-0.0615504846
 32
0.0
 13
-0.0108530111
 23
-0.0615504846
 33
0.0
  0
SOLID
  5
40C
330
3FD
100
AcDbEntity
  8
0
  6
CONTINUOUS
 62
     0
100
AcDbTrace
 10
-0.0108530111
 20
-0.0615504846
 30
0.0
 11
-0.021376259
 21
0.0
 31
0.0
 12
-0.0108530111
 22
0.0
 32
0.0
 13
-0.0108530111
 23
0.0
 33
0.0
  0
SOLID
  5
40D
330
3FD
100
AcDbEntity
  8
0
  6
CONTINUOUS
 62
     0
100
AcDbTrace
 10
-0.0108530111
 20
-0.0615504846
 30
0.0
 11
-0.0108530111
 21
0.0
 31
0.0
 12
0.0
 22
-0.0625
 32
0.0
 13
0.0
 23
-0.0625
 33
0.0
  0
SOLID
  5
40E
330
3FD
100
AcDbEntity
  8
0
  6
CONTINUOUS
 62
     0
100
AcDbTrace
 10
0.0
 20
-0.0625
 30
0.0
 11
-0.0108530111
 21
0.0
 31
0.0
 12
0.0
 22
0.0
 32
0.0
 13
0.0
 23
0.0
 33
0.0
  0
ENDBLK
  5
43C
330
3FD
100
AcDbEntity
  8
0
100
AcDbBlockEnd
  0
BLOCK
  5
43D
330
40F
100
AcDbEntity
  8
0
100
AcDbBlockBegin
  2
*U53
 70
     1
 10
0.0
 20
0.0
 30
0.0
  3
*U53
  1

  0
SOLID
  5
410
330
40F
100
AcDbEntity
  8
0
  6
CONTINUOUS
 62
     0
100
AcDbTrace
 10
0.0
 20
0.0
 30
0.0
 11
0.0
 21
0.0625
 31
0.0
 12
0.0121931451
 22
0.0
 32
0.0
 13
0.0121931451
 23
0.0
 33
0.0
  0
SOLID
  5
411
330
40F
100
AcDbEntity
  8
0
  6
CONTINUOUS
 62
     0
100
AcDbTrace
 10
0.0121931451
 20
0.0
 30
0.0
 11
0.0
 21
0.0625
 31
0.0
 12
0.0121931451
 22
0.06129908
 32
0.0
 13
0.0121931451
 23
0.06129908
 33
0.0
  0
SOLID
  5
412
330
40F
100
AcDbEntity
  8
0
  6
CONTINUOUS
 62
     0
100
AcDbTrace
 10
0.0121931451
 20
0.0
 30
0.0
 11
0.0121931451
 21
0.06129908
 31
0.0
 12
0.0239177145
 22
0.0
 32
0.0
 13
0.0239177145
 23
0.0
 33
0.0
  0
SOLID
  5
413
330
40F
100
AcDbEntity
  8
0
  6
CONTINUOUS
 62
     0
100
AcDbTrace
 10
0.0239177145
 20
0.0
 30
0.0
 11
0.0121931451
 21
0.06129908
 31
0.0
 12
0.0239177145
 22
0.0577424708
 32
0.0
 13
0.0239177145
 23
0.0577424708
 33
0.0
  0
SOLID
  5
414
330
40F
100
AcDbEntity
  8
0
  6
CONTINUOUS
 62
     0
100
AcDbTrace
 10
0.0239177145
 20
0.0
 30
0.0
 11
0.0239177145
 21
0.0577424708
 31
0.0
 12
0.0347231396
 22
0.0
 32
0.0
 13
0.0347231396
 23
0.0
 33
0.0
  0
SOLID
  5
415
330
40F
100
AcDbEntity
  8
0
  6
CONTINUOUS
 62
     0
100
AcDbTrace
 10
0.0347231396
 20
0.0
 30
0.0
 11
0.0239177145
 21
0.0577424708
 31
0.0
 12
0.0347231396
 22
0.0519668508
 32
0.0
 13
0.0347231396
 23
0.0519668508
 33
0.0
  0
SOLID
  5
416
330
40F
100
AcDbEntity
  8
0
  6
CONTINUOUS
 62
     0
100
AcDbTrace
 10
0.0347231396
 20
0.0
 30
0.0
 11
0.0347231396
 21
0.0519668508
 31
0.0
 12
0.0441941738
 22
0.0
 32
0.0
 13
0.0441941738
 23
0.0
 33
0.0
  0
SOLID
  5
417
330
40F
100
AcDbEntity
  8
0
  6
CONTINUOUS
 62
     0
100
AcDbTrace
 10
0.0441941738
 20
0.0
 30
0.0
 11
0.0347231396
 21
0.0519668508
 31
0.0
 12
0.0441941738
 22
0.0441941738
 32
0.0
 13
0.0441941738
 23
0.0441941738
 33
0.0
  0
SOLID
  5
418
330
40F
100
AcDbEntity
  8
0
  6
CONTINUOUS
 62
     0
100
AcDbTrace
 10
0.0441941738
 20
0.0
 30
0.0
 11
0.0441941738
 21
0.0441941738
 31
0.0
 12
0.0519668508
 22
0.0
 32
0.0
 13
0.0519668508
 23
0.0
 33
0.0
  0
SOLID
  5
419
330
40F
100
AcDbEntity
  8
0
  6
CONTINUOUS
 62
     0
100
AcDbTrace
 10
0.0519668508
 20
0.0
 30
0.0
 11
0.0441941738
 21
0.0441941738
 31
0.0
 12
0.0519668508
 22
0.0347231396
 32
0.0
 13
0.0519668508
 23
0.0347231396
 33
0.0
  0
SOLID
  5
41A
330
40F
100
AcDbEntity
  8
0
  6
CONTINUOUS
 62
     0
100
AcDbTrace
 10
0.0519668508
 20
0.0
 30
0.0
 11
0.0519668508
 21
0.0347231396
 31
0.0
 12
0.0577424708
 22
0.0
 32
0.0
 13
0.0577424708
 23
0.0
 33
0.0
  0
SOLID
  5
41B
330
40F
100
AcDbEntity
  8
0
  6
CONTINUOUS
 62
     0
100
AcDbTrace
 10
0.0577424708
 20
0.0
 30
0.0
 11
0.0519668508
 21
0.0347231396
 31
0.0
 12
0.0577424708
 22
0.0239177145
 32
0.0
 13
0.0577424708
 23
0.0239177145
 33
0.0
  0
SOLID
  5
41C
330
40F
100
AcDbEntity
  8
0
  6
CONTINUOUS
 62
     0
100
AcDbTrace
 10
0.0577424708
 20
0.0
 30
0.0
 11
0.0577424708
 21
0.0239177145
 31
0.0
 12
0.06129908
 22
0.0
 32
0.0
 13
0.06129908
 23
0.0
 33
0.0
  0
SOLID
  5
41D
330
40F
100
AcDbEntity
  8
0
  6
CONTINUOUS
 62
     0
100
AcDbTrace
 10
0.06129908
 20
0.0
 30
0.0
 11
0.0577424708
 21
0.0239177145
 31
0.0
 12
0.06129908
 22
0.0121931451
 32
0.0
 13
0.06129908
 23
0.0121931451
 33
0.0
  0
SOLID
  5
41E
330
40F
100
AcDbEntity
  8
0
  6
CONTINUOUS
 62
     0
100
AcDbTrace
 10
0.06129908
 20
0.0
 30
0.0
 11
0.06129908
 21
0.0121931451
 31
0.0
 12
0.0625
 22
0.0
 32
0.0
 13
0.0625
 23
0.0
 33
0.0
  0
ENDBLK
  5
43E
330
40F
100
AcDbEntity
  8
0
100
AcDbBlockEnd
  0
BLOCK
  5
43F
330
41F
100
AcDbEntity
  8
0
100
AcDbBlockBegin
  2
*U54
 70
     1
 10
0.0
 20
0.0
 30
0.0
  3
*U54
  1

  0
SOLID
  5
420
330
41F
100
AcDbEntity
  8
0
  6
CONTINUOUS
 62
     0
100
AcDbTrace
 10
-0.0615504846
 20
-0.0108530111
 30
0.0
 11
-0.0625
 21
0.0
 31
0.0
 12
-0.0615504846
 22
0.0
 32
0.0
 13
-0.0615504846
 23
0.0
 33
0.0
  0
SOLID
  5
421
330
41F
100
AcDbEntity
  8
0
  6
CONTINUOUS
 62
     0
100
AcDbTrace
 10
-0.0615504846
 20
-0.0108530111
 30
0.0
 11
-0.0615504846
 21
0.0
 31
0.0
 12
-0.0587307888
 22
-0.021376259
 32
0.0
 13
-0.0587307888
 23
-0.021376259
 33
0.0
  0
SOLID
  5
422
330
41F
100
AcDbEntity
  8
0
  6
CONTINUOUS
 62
     0
100
AcDbTrace
 10
-0.0587307888
 20
-0.021376259
 30
0.0
 11
-0.0615504846
 21
0.0
 31
0.0
 12
-0.0587307888
 22
0.0
 32
0.0
 13
-0.0587307888
 23
0.0
 33
0.0
  0
SOLID
  5
423
330
41F
100
AcDbEntity
  8
0
  6
CONTINUOUS
 62
     0
100
AcDbTrace
 10
-0.0587307888
 20
-0.021376259
 30
0.0
 11
-0.0587307888
 21
0.0
 31
0.0
 12
-0.0541265877
 22
-0.03125
 32
0.0
 13
-0.0541265877
 23
-0.03125
 33
0.0
  0
SOLID
  5
424
330
41F
100
AcDbEntity
  8
0
  6
CONTINUOUS
 62
     0
100
AcDbTrace
 10
-0.0541265877
 20
-0.03125
 30
0.0
 11
-0.0587307888
 21
0.0
 31
0.0
 12
-0.0541265877
 22
0.0
 32
0.0
 13
-0.0541265877
 23
0.0
 33
0.0
  0
SOLID
  5
425
330
41F
100
AcDbEntity
  8
0
  6
CONTINUOUS
 62
     0
100
AcDbTrace
 10
-0.0541265877
 20
-0.03125
 30
0.0
 11
-0.0541265877
 21
0.0
 31
0.0
 12
-0.0478777777
 22
-0.0401742256
 32
0.0
 13
-0.0478777777
 23
-0.0401742256
 33
0.0
  0
SOLID
  5
426
330
41F
100
AcDbEntity
  8
0
  6
CONTINUOUS
 62
     0
100
AcDbTrace
 10
-0.0478777777
 20
-0.0401742256
 30
0.0
 11
-0.0541265877
 21
0.0
 31
0.0
 12
-0.0478777777
 22
0.0
 32
0.0
 13
-0.0478777777
 23
0.0
 33
0.0
  0
SOLID
  5
427
330
41F
100
AcDbEntity
  8
0
  6
CONTINUOUS
 62
     0
100
AcDbTrace
 10
-0.0478777777
 20
-0.0401742256
 30
0.0
 11
-0.0478777777
 21
0.0
 31
0.0
 12
-0.0401742256
 22
-0.0478777777
 32
0.0
 13
-0.0401742256
 23
-0.0478777777
 33
0.0
  0
SOLID
  5
428
330
41F
100
AcDbEntity
  8
0
  6
CONTINUOUS
 62
     0
100
AcDbTrace
 10
-0.0401742256
 20
-0.0478777777
 30
0.0
 11
-0.0478777777
 21
0.0
 31
0.0
 12
-0.0401742256
 22
0.0
 32
0.0
 13
-0.0401742256
 23
0.0
 33
0.0
  0
SOLID
  5
429
330
41F
100
AcDbEntity
  8
0
  6
CONTINUOUS
 62
     0
100
AcDbTrace
 10
-0.0401742256
 20
-0.0478777777
 30
0.0
 11
-0.0401742256
 21
0.0
 31
0.0
 12
-0.03125
 22
-0.0541265877
 32
0.0
 13
-0.03125
 23
-0.0541265877
 33
0.0
  0
SOLID
  5
42A
330
41F
100
AcDbEntity
  8
0
  6
CONTINUOUS
 62
     0
100
AcDbTrace
 10
-0.03125
 20
-0.0541265877
 30
0.0
 11
-0.0401742256
 21
0.0
 31
0.0
 12
-0.03125
 22
0.0
 32
0.0
 13
-0.03125
 23
0.0
 33
0.0
  0
SOLID
  5
42B
330
41F
100
AcDbEntity
  8
0
  6
CONTINUOUS
 62
     0
100
AcDbTrace
 10
-0.03125
 20
-0.0541265877
 30
0.0
 11
-0.03125
 21
0.0
 31
0.0
 12
-0.021376259
 22
-0.0587307888
 32
0.0
 13
-0.021376259
 23
-0.0587307888
 33
0.0
  0
SOLID
  5
42C
330
41F
100
AcDbEntity
  8
0
  6
CONTINUOUS
 62
     0
100
AcDbTrace
 10
-0.021376259
 20
-0.0587307888
 30
0.0
 11
-0.03125
 21
0.0
 31
0.0
 12
-0.021376259
 22
0.0
 32
0.0
 13
-0.021376259
 23
0.0
 33
0.0
  0
SOLID
  5
42D
330
41F
100
AcDbEntity
  8
0
  6
CONTINUOUS
 62
     0
100
AcDbTrace
 10
-0.021376259
 20
-0.0587307888
 30
0.0
 11
-0.021376259
 21
0.0
 31
0.0
 12
-0.0108530111
 22
-0.0615504846
 32
0.0
 13
-0.0108530111
 23
-0.0615504846
 33
0.0
  0
SOLID
  5
42E
330
41F
100
AcDbEntity
  8
0
  6
CONTINUOUS
 62
     0
100
AcDbTrace
 10
-0.0108530111
 20
-0.0615504846
 30
0.0
 11
-0.021376259
 21
0.0
 31
0.0
 12
-0.0108530111
 22
0.0
 32
0.0
 13
-0.0108530111
 23
0.0
 33
0.0
  0
SOLID
  5
42F
330
41F
100
AcDbEntity
  8
0
  6
CONTINUOUS
 62
     0
100
AcDbTrace
 10
-0.0108530111
 20
-0.0615504846
 30
0.0
 11
-0.0108530111
 21
0.0
 31
0.0
 12
0.0
 22
-0.0625
 32
0.0
 13
0.0
 23
-0.0625
 33
0.0
  0
SOLID
  5
430
330
41F
100
AcDbEntity
  8
0
  6
CONTINUOUS
 62
     0
100
AcDbTrace
 10
0.0
 20
-0.0625
 30
0.0
 11
-0.0108530111
 21
0.0
 31
0.0
 12
0.0
 22
0.0
 32
0.0
 13
0.0
 23
0.0
 33
0.0
  0
ENDBLK
  5
440
330
41F
100
AcDbEntity
  8
0
100
AcDbBlockEnd
  0
ENDSEC
  0
SECTION
  2
ENTITIES
  0
LINE
  5
76
330
1F
100
AcDbEntity
  8
0
  6
SLD-SOLID
 62
     7
100
AcDbLine
 10
9.0551181102
 20
0.561023622
 30
0.0
 11
16.1417322835
 21
0.561023622
 31
0.0
  0
LINE
  5
77
330
1F
100
AcDbEntity
  8
0
  6
SLD-SOLID
 62
     7
100
AcDbLine
 10
16.1417322835
 20
1.8996062992
 30
0.0
 11
9.0551181102
 21
1.8996062992
 31
0.0
  0
LINE
  5
78
330
1F
100
AcDbEntity
  8
0
  6
SLD-SOLID
 62
     7
100
AcDbLine
 10
9.0551181102
 20
2.5688976378
 30
0.0
 11
16.1417322835
 21
2.5688976378
 31
0.0
  0
LINE
  5
79
330
1F
100
AcDbEntity
  8
0
  6
SLD-SOLID
 62
     7
100
AcDbLine
 10
10.1177540328
 20
1.8996062992
 30
0.0
 11
10.1177540328
 21
0.3937007874
 31
0.0
  0
LINE
  5
7A
330
1F
100
AcDbEntity
  8
0
  6
SLD-SOLID
 62
     7
100
AcDbLine
 10
12.9448818898
 20
1.2303149606
 30
0.0
 11
9.0551181102
 21
1.2303149606
 31
0.0
  0
LINE
  5
7B
330
1F
100
AcDbEntity
  8
0
  6
SLD-SOLID
 62
     7
100
AcDbLine
 10
12.9448818898
 20
1.3976377953
 30
0.0
 11
9.0551181102
 21
1.3976377953
 31
0.0
  0
LINE
  5
7C
330
1F
100
AcDbEntity
  8
0
  6
SLD-SOLID
 62
     7
100
AcDbLine
 10
12.9448818898
 20
1.5649606299
 30
0.0
 11
9.0551181102
 21
1.5649606299
 31
0.0
  0
LINE
  5
7D
330
1F
100
AcDbEntity
  8
0
  6
SLD-SOLID
 62
     7
100
AcDbLine
 10
12.9448818898
 20
1.7322834646
 30
0.0
 11
9.0551181102
 21
1.7322834646
 31
0.0
  0
LINE
  5
7E
330
1F
100
AcDbEntity
  8
0
  6
SLD-SOLID
 62
     7
100
AcDbLine
 10
11.2047244094
 20
0.3937007874
 30
0.0
 11
11.2047244094
 21
1.8996062992
 31
0.0
  0
LINE
  5
7F
330
1F
100
AcDbEntity
  8
0
  6
SLD-SOLID
 62
     7
100
AcDbLine
 10
9.0551181102
 20
2.5688976378
 30
0.0
 11
9.0551181102
 21
0.3937007874
 31
0.0
  0
LINE
  5
80
330
1F
100
AcDbEntity
  8
0
  6
SLD-SOLID
 62
     7
100
AcDbLine
 10
9.3622047244
 20
1.8996062992
 30
0.0
 11
9.3622047244
 21
0.3937007874
 31
0.0
  0
LINE
  5
81
330
1F
100
AcDbEntity
  8
0
  6
SLD-SOLID
 62
     7
100
AcDbLine
 10
10.3858267717
 20
1.8996062992
 30
0.0
 11
10.3858267717
 21
2.5688976378
 31
0.0
  0
LINE
  5
82
330
1F
100
AcDbEntity
  8
0
  6
SLD-SOLID
 62
     7
100
AcDbLine
 10
10.8031073293
 20
1.8996062992
 30
0.0
 11
10.8031073293
 21
0.3937007874
 31
0.0
  0
LINE
  5
83
330
1F
100
AcDbEntity
  8
0
  6
SLD-SOLID
 62
     7
100
AcDbLine
 10
11.6141732283
 20
1.2303149606
 30
0.0
 11
11.6141732283
 21
1.8996062992
 31
0.0
  0
LINE
  5
84
330
1F
100
AcDbEntity
  8
0
  6
SLD-SOLID
 62
     7
100
AcDbLine
 10
11.2047244094
 20
0.7283464567
 30
0.0
 11
9.0551181102
 21
0.7283464567
 31
0.0
  0
LINE
  5
85
330
1F
100
AcDbEntity
  8
0
  6
SLD-SOLID
 62
     7
100
AcDbLine
 10
12.2283464567
 20
2.5688976378
 30
0.0
 11
12.2283464567
 21
1.062992126
 31
0.0
  0
LINE
  5
86
330
1F
100
AcDbEntity
  8
0
  6
SLD-SOLID
 62
     7
100
AcDbLine
 10
11.2047244094
 20
0.8956664567
 30
0.0
 11
9.0551181102
 21
0.8956664567
 31
0.0
  0
LINE
  5
87
330
1F
100
AcDbEntity
  8
0
  6
SLD-SOLID
 62
     7
100
AcDbLine
 10
11.2047244094
 20
1.062992126
 30
0.0
 11
9.0551181102
 21
1.062992126
 31
0.0
  0
LINE
  5
88
330
1F
100
AcDbEntity
  8
0
  6
SLD-SOLID
 62
     7
100
AcDbLine
 10
11.2047244094
 20
1.062992126
 30
0.0
 11
16.1417322835
 21
1.062992126
 31
0.0
  0
LINE
  5
89
330
1F
100
AcDbEntity
  8
0
  6
SLD-SOLID
 62
     7
100
AcDbLine
 10
12.9448818898
 20
2.5688976378
 30
0.0
 11
12.9448818898
 21
0.3937007874
 31
0.0
  0
LINE
  5
8A
330
1F
100
AcDbEntity
  8
0
  6
SLD-SOLID
 62
     7
100
AcDbLine
 10
14.6850393701
 20
0.3937007874
 30
0.0
 11
14.6850393701
 21
0.561023622
 31
0.0
  0
LINE
  5
8B
330
1F
100
AcDbEntity
  8
0
  6
SLD-SOLID
 62
     7
100
AcDbLine
 10
14.9921259843
 20
2.3179133858
 30
0.0
 11
14.9921259843
 21
2.5688976378
 31
0.0
  0
LINE
  5
8C
330
1F
100
AcDbEntity
  8
0
  6
SLD-SOLID
 62
     7
100
AcDbLine
 10
15.6299212598
 20
0.561023622
 30
0.0
 11
15.6299212598
 21
1.062992126
 31
0.0
  0
LINE
  5
8D
330
1F
100
AcDbEntity
  8
0
  6
SLD-SOLID
 62
     7
100
AcDbLine
 10
16.1417322835
 20
2.3179133858
 30
0.0
 11
12.9448818898
 21
2.3179133858
 31
0.0
  0
LINE
  5
8E
330
1F
100
AcDbEntity
  8
0
  6
SLD-SOLID
 62
     7
100
AcDbLine
 10
16.1417322835
 20
0.7283464567
 30
0.0
 11
15.6299212598
 21
0.7283464567
 31
0.0
  0
LINE
  5
8F
330
1F
100
AcDbEntity
  8
0
  6
SLD-SOLID
 62
     7
100
AcDbLine
 10
0.7874015748
 20
0.3937007874
 30
0.0
 11
0.7874015748
 21
11.2992125984
 31
0.0
  0
LINE
  5
90
330
1F
100
AcDbEntity
  8
0
  6
SLD-SOLID
 62
     7
100
AcDbLine
 10
0.7874015748
 20
11.2992125984
 30
0.0
 11
16.1417322835
 21
11.2992125984
 31
0.0
  0
LINE
  5
91
330
1F
100
AcDbEntity
  8
0
  6
SLD-SOLID
 62
     7
100
AcDbLine
 10
16.1417322835
 20
11.2992125984
 30
0.0
 11
16.1417322835
 21
0.3937007874
 31
0.0
  0
LINE
  5
92
330
1F
100
AcDbEntity
  8
0
  6
SLD-SOLID
 62
     7
100
AcDbLine
 10
16.1417322835
 20
0.3937007874
 30
0.0
 11
0.7874015748
 21
0.3937007874
 31
0.0
  0
LINE
  5
93
330
1F
100
AcDbEntity
  8
0
  6
SLD-SOLID
 62
     7
100
AcDbLine
 10
0.5905511811
 20
0.1968503937
 30
0.0
 11
0.5905511811
 21
11.4960629921
 31
0.0
  0
LINE
  5
94
330
1F
100
AcDbEntity
  8
0
  6
SLD-SOLID
 62
     7
100
AcDbLine
 10
0.5905511811
 20
11.4960629921
 30
0.0
 11
16.3385826772
 21
11.4960629921
 31
0.0
  0
LINE
  5
95
330
1F
100
AcDbEntity
  8
0
  6
SLD-SOLID
 62
     7
100
AcDbLine
 10
16.3385826772
 20
11.4960629921
 30
0.0
 11
16.3385826772
 21
0.1968503937
 31
0.0
  0
LINE
  5
96
330
1F
100
AcDbEntity
  8
0
  6
SLD-SOLID
 62
     7
100
AcDbLine
 10
16.3385826772
 20
0.1968503937
 30
0.0
 11
0.5905511811
 21
0.1968503937
 31
0.0
  0
LINE
  5
97
330
1F
100
AcDbEntity
  8
0
  6
SLD-SOLID
 62
     7
100
AcDbLine
 10
0.5905511811
 20
5.8464566929
 30
0.0
 11
0.9842519685
 21
5.8464566929
 31
0.0
  0
LINE
  5
98
330
1F
100
AcDbEntity
  8
0
  6
SLD-SOLID
 62
     7
100
AcDbLine
 10
8.4645669291
 20
11.4960629921
 30
0.0
 11
8.4645669291
 21
11.1023622047
 31
0.0
  0
LINE
  5
99
330
1F
100
AcDbEntity
  8
0
  6
SLD-SOLID
 62
     7
100
AcDbLine
 10
16.3385826772
 20
5.8464566929
 30
0.0
 11
15.9448818898
 21
5.8464566929
 31
0.0
  0
LINE
  5
9A
330
1F
100
AcDbEntity
  8
0
  6
SLD-SOLID
 62
     7
100
AcDbLine
 10
8.4645669291
 20
0.1968503937
 30
0.0
 11
8.4645669291
 21
0.5905511811
 31
0.0
  0
LINE
  5
9B
330
1F
100
AcDbEntity
  8
0
  6
SLD-SOLID
 62
     7
100
AcDbLine
 10
0.7874015748
 20
1.9094488189
 30
0.0
 11
0.5905511811
 21
1.9094488189
 31
0.0
  0
LINE
  5
9C
330
1F
100
AcDbEntity
  8
0
  6
SLD-SOLID
 62
     7
100
AcDbLine
 10
16.1417322835
 20
1.9094488189
 30
0.0
 11
16.3385826772
 21
1.9094488189
 31
0.0
  0
LINE
  5
9D
330
1F
100
AcDbEntity
  8
0
  6
SLD-SOLID
 62
     7
100
AcDbLine
 10
0.7874015748
 20
3.8779527559
 30
0.0
 11
0.5905511811
 21
3.8779527559
 31
0.0
  0
LINE
  5
9E
330
1F
100
AcDbEntity
  8
0
  6
SLD-SOLID
 62
     7
100
AcDbLine
 10
16.1417322835
 20
3.8779527559
 30
0.0
 11
16.3385826772
 21
3.8779527559
 31
0.0
  0
LINE
  5
9F
330
1F
100
AcDbEntity
  8
0
  6
SLD-SOLID
 62
     7
100
AcDbLine
 10
0.7874015748
 20
5.8464566929
 30
0.0
 11
0.5905511811
 21
5.8464566929
 31
0.0
  0
LINE
  5
A0
330
1F
100
AcDbEntity
  8
0
  6
SLD-SOLID
 62
     7
100
AcDbLine
 10
16.1417322835
 20
5.8464566929
 30
0.0
 11
16.3385826772
 21
5.8464566929
 31
0.0
  0
LINE
  5
A1
330
1F
100
AcDbEntity
  8
0
  6
SLD-SOLID
 62
     7
100
AcDbLine
 10
0.7874015748
 20
7.8149606299
 30
0.0
 11
0.5905511811
 21
7.8149606299
 31
0.0
  0
LINE
  5
A2
330
1F
100
AcDbEntity
  8
0
  6
SLD-SOLID
 62
     7
100
AcDbLine
 10
16.1417322835
 20
7.8149606299
 30
0.0
 11
16.3385826772
 21
7.8149606299
 31
0.0
  0
LINE
  5
A3
330
1F
100
AcDbEntity
  8
0
  6
SLD-SOLID
 62
     7
100
AcDbLine
 10
0.7874015748
 20
9.7834645669
 30
0.0
 11
0.5905511811
 21
9.7834645669
 31
0.0
  0
LINE
  5
A4
330
1F
100
AcDbEntity
  8
0
  6
SLD-SOLID
 62
     7
100
AcDbLine
 10
16.1417322835
 20
9.7834645669
 30
0.0
 11
16.3385826772
 21
9.7834645669
 31
0.0
  0
LINE
  5
A5
330
1F
100
AcDbEntity
  8
0
  6
SLD-SOLID
 62
     7
100
AcDbLine
 10
2.5590551181
 20
11.2992125984
 30
0.0
 11
2.5590551181
 21
11.4960629921
 31
0.0
  0
LINE
  5
A6
330
1F
100
AcDbEntity
  8
0
  6
SLD-SOLID
 62
     7
100
AcDbLine
 10
2.5590551181
 20
0.3937007874
 30
0.0
 11
2.5590551181
 21
0.1968503937
 31
0.0
  0
LINE
  5
A7
330
1F
100
AcDbEntity
  8
0
  6
SLD-SOLID
 62
     7
100
AcDbLine
 10
4.5275590551
 20
11.2992125984
 30
0.0
 11
4.5275590551
 21
11.4960629921
 31
0.0
  0
LINE
  5
A8
330
1F
100
AcDbEntity
  8
0
  6
SLD-SOLID
 62
     7
100
AcDbLine
 10
4.5275590551
 20
0.3937007874
 30
0.0
 11
4.5275590551
 21
0.1968503937
 31
0.0
  0
LINE
  5
A9
330
1F
100
AcDbEntity
  8
0
  6
SLD-SOLID
 62
     7
100
AcDbLine
 10
6.4960629921
 20
11.2992125984
 30
0.0
 11
6.4960629921
 21
11.4960629921
 31
0.0
  0
LINE
  5
AA
330
1F
100
AcDbEntity
  8
0
  6
SLD-SOLID
 62
     7
100
AcDbLine
 10
6.4960629921
 20
0.3937007874
 30
0.0
 11
6.4960629921
 21
0.1968503937
 31
0.0
  0
LINE
  5
AB
330
1F
100
AcDbEntity
  8
0
  6
SLD-SOLID
 62
     7
100
AcDbLine
 10
8.4645669291
 20
11.2992125984
 30
0.0
 11
8.4645669291
 21
11.4960629921
 31
0.0
  0
LINE
  5
AC
330
1F
100
AcDbEntity
  8
0
  6
SLD-SOLID
 62
     7
100
AcDbLine
 10
8.4645669291
 20
0.3937007874
 30
0.0
 11
8.4645669291
 21
0.1968503937
 31
0.0
  0
LINE
  5
AD
330
1F
100
AcDbEntity
  8
0
  6
SLD-SOLID
 62
     7
100
AcDbLine
 10
10.4330708661
 20
11.2992125984
 30
0.0
 11
10.4330708661
 21
11.4960629921
 31
0.0
  0
LINE
  5
AE
330
1F
100
AcDbEntity
  8
0
  6
SLD-SOLID
 62
     7
100
AcDbLine
 10
10.4330708661
 20
0.3937007874
 30
0.0
 11
10.4330708661
 21
0.1968503937
 31
0.0
  0
LINE
  5
AF
330
1F
100
AcDbEntity
  8
0
  6
SLD-SOLID
 62
     7
100
AcDbLine
 10
12.4015748031
 20
11.2992125984
 30
0.0
 11
12.4015748031
 21
11.4960629921
 31
0.0
  0
LINE
  5
B0
330
1F
100
AcDbEntity
  8
0
  6
SLD-SOLID
 62
     7
100
AcDbLine
 10
12.4015748031
 20
0.3937007874
 30
0.0
 11
12.4015748031
 21
0.1968503937
 31
0.0
  0
LINE
  5
B1
330
1F
100
AcDbEntity
  8
0
  6
SLD-SOLID
 62
     7
100
AcDbLine
 10
14.3700787402
 20
11.2992125984
 30
0.0
 11
14.3700787402
 21
11.4960629921
 31
0.0
  0
LINE
  5
B2
330
1F
100
AcDbEntity
  8
0
  6
SLD-SOLID
 62
     7
100
AcDbLine
 10
14.3700787402
 20
0.3937007874
 30
0.0
 11
14.3700787402
 21
0.1968503937
 31
0.0
  0
INSERT
  5
BA
330
1F
100
AcDbEntity
  8
0
  6
CONTINUOUS
 62
     7
100
AcDbBlockReference
  2
SW_NOTE_0
 10
1.3778826535
 20
2.2963906261
 30
0.0
  0
MTEXT
  5
BB
330
1F
100
AcDbEntity
  8
0
  6
CONTINUOUS
 62
     7
100
AcDbMText
 10
0.6826648875
 20
1.2071073998
 30
0.0
 40
0.15625
 41
0.0
 71
     2
 72
     1
  1
A
  7
SLDTEXTSTYLE0
  0
MTEXT
  5
BC
330
1F
100
AcDbEntity
  8
0
  6
CONTINUOUS
 62
     7
100
AcDbMText
 10
16.2338459899
 20
1.2071073998
 30
0.0
 40
0.15625
 41
0.0
 71
     2
 72
     1
  1
A
  7
SLDTEXTSTYLE0
  0
MTEXT
  5
BD
330
1F
100
AcDbEntity
  8
0
  6
CONTINUOUS
 62
     7
100
AcDbMText
 10
0.6878189695
 20
2.9831731071
 30
0.0
 40
0.15625
 41
0.0
 71
     2
 72
     1
  1
B
  7
SLDTEXTSTYLE0
  0
MTEXT
  5
BE
330
1F
100
AcDbEntity
  8
0
  6
CONTINUOUS
 62
     7
100
AcDbMText
 10
16.2390000718
 20
2.9831731071
 30
0.0
 40
0.15625
 41
0.0
 71
     2
 72
     1
  1
B
  7
SLDTEXTSTYLE0
  0
MTEXT
  5
BF
330
1F
100
AcDbEntity
  8
0
  6
CONTINUOUS
 62
     7
100
AcDbMText
 10
0.6873487757
 20
4.9516770441
 30
0.0
 40
0.15625
 41
0.0
 71
     2
 72
     1
  1
C
  7
SLDTEXTSTYLE0
  0
MTEXT
  5
C0
330
1F
100
AcDbEntity
  8
0
  6
CONTINUOUS
 62
     7
100
AcDbMText
 10
16.238529878
 20
4.9516770441
 30
0.0
 40
0.15625
 41
0.0
 71
     2
 72
     1
  1
C
  7
SLDTEXTSTYLE0
  0
MTEXT
  5
C1
330
1F
100
AcDbEntity
  8
0
  6
CONTINUOUS
 62
     7
100
AcDbMText
 10
0.6871136725
 20
6.9201809811
 30
0.0
 40
0.15625
 41
0.0
 71
     2
 72
     1
  1
D
  7
SLDTEXTSTYLE0
  0
MTEXT
  5
C2
330
1F
100
AcDbEntity
  8
0
  6
CONTINUOUS
 62
     7
100
AcDbMText
 10
16.2382947749
 20
6.9201809811
 30
0.0
 40
0.15625
 41
0.0
 71
     2
 72
     1
  1
D
  7
SLDTEXTSTYLE0
  0
MTEXT
  5
C3
330
1F
100
AcDbEntity
  8
0
  6
CONTINUOUS
 62
     7
100
AcDbMText
 10
0.6892838152
 20
8.8886849181
 30
0.0
 40
0.15625
 41
0.0
 71
     2
 72
     1
  1
E
  7
SLDTEXTSTYLE0
  0
MTEXT
  5
C4
330
1F
100
AcDbEntity
  8
0
  6
CONTINUOUS
 62
     7
100
AcDbMText
 10
16.2404649175
 20
8.8886849181
 30
0.0
 40
0.15625
 41
0.0
 71
     2
 72
     1
  1
E
  7
SLDTEXTSTYLE0
  0
MTEXT
  5
C5
330
1F
100
AcDbEntity
  8
0
  6
CONTINUOUS
 62
     7
100
AcDbMText
 10
0.6873126067
 20
10.6308109024
 30
0.0
 40
0.15625
 41
0.0
 71
     2
 72
     1
  1
F
  7
SLDTEXTSTYLE0
  0
MTEXT
  5
C6
330
1F
100
AcDbEntity
  8
0
  6
CONTINUOUS
 62
     7
100
AcDbMText
 10
16.238493709
 20
10.6308109024
 30
0.0
 40
0.15625
 41
0.0
 71
     2
 72
     1
  1
F
  7
SLDTEXTSTYLE0
  0
MTEXT
  5
C7
330
1F
100
AcDbEntity
  8
0
  6
CONTINUOUS
 62
     7
100
AcDbMText
 10
1.6716549979
 20
0.3847479103
 30
0.0
 40
0.15625
 41
0.0
 71
     2
 72
     1
  1
8
  7
SLDTEXTSTYLE0
  0
MTEXT
  5
C8
330
1F
100
AcDbEntity
  8
0
  6
CONTINUOUS
 62
     7
100
AcDbMText
 10
1.6716549979
 20
11.4531703919
 30
0.0
 40
0.15625
 41
0.0
 71
     2
 72
     1
  1
8
  7
SLDTEXTSTYLE0
  0
MTEXT
  5
C9
330
1F
100
AcDbEntity
  8
0
  6
CONTINUOUS
 62
     7
100
AcDbMText
 10
3.541733738
 20
0.3847479103
 30
0.0
 40
0.15625
 41
0.0
 71
     2
 72
     1
  1
7
  7
SLDTEXTSTYLE0
  0
MTEXT
  5
CA
330
1F
100
AcDbEntity
  8
0
  6
CONTINUOUS
 62
     7
100
AcDbMText
 10
3.541733738
 20
11.4531703919
 30
0.0
 40
0.15625
 41
0.0
 71
     2
 72
     1
  1
7
  7
SLDTEXTSTYLE0
  0
MTEXT
  5
CB
330
1F
100
AcDbEntity
  8
0
  6
CONTINUOUS
 62
     7
100
AcDbMText
 10
5.5102376751
 20
0.3847479103
 30
0.0
 40
0.15625
 41
0.0
 71
     2
 72
     1
  1
6
  7
SLDTEXTSTYLE0
  0
MTEXT
  5
CC
330
1F
100
AcDbEntity
  8
0
  6
CONTINUOUS
 62
     7
100
AcDbMText
 10
5.5102376751
 20
11.4531703919
 30
0.0
 40
0.15625
 41
0.0
 71
     2
 72
     1
  1
6
  7
SLDTEXTSTYLE0
  0
MTEXT
  5
CD
330
1F
100
AcDbEntity
  8
0
  6
CONTINUOUS
 62
     7
100
AcDbMText
 10
7.4787416121
 20
0.3847479103
 30
0.0
 40
0.15625
 41
0.0
 71
     2
 72
     1
  1
5
  7
SLDTEXTSTYLE0
  0
MTEXT
  5
CE
330
1F
100
AcDbEntity
  8
0
  6
CONTINUOUS
 62
     7
100
AcDbMText
 10
7.4787416121
 20
11.4531703919
 30
0.0
 40
0.15625
 41
0.0
 71
     2
 72
     1
  1
5
  7
SLDTEXTSTYLE0
  0
MTEXT
  5
CF
330
1F
100
AcDbEntity
  8
0
  6
CONTINUOUS
 62
     7
100
AcDbMText
 10
9.4472455491
 20
0.3847479103
 30
0.0
 40
0.15625
 41
0.0
 71
     2
 72
     1
  1
4
  7
SLDTEXTSTYLE0
  0
MTEXT
  5
D0
330
1F
100
AcDbEntity
  8
0
  6
CONTINUOUS
 62
     7
100
AcDbMText
 10
9.4472455491
 20
11.4531703919
 30
0.0
 40
0.15625
 41
0.0
 71
     2
 72
     1
  1
4
  7
SLDTEXTSTYLE0
  0
MTEXT
  5
D1
330
1F
100
AcDbEntity
  8
0
  6
CONTINUOUS
 62
     7
100
AcDbMText
 10
11.4157494861
 20
0.3847479103
 30
0.0
 40
0.15625
 41
0.0
 71
     2
 72
     1
  1
3
  7
SLDTEXTSTYLE0
  0
MTEXT
  5
D2
330
1F
100
AcDbEntity
  8
0
  6
CONTINUOUS
 62
     7
100
AcDbMText
 10
11.4157494861
 20
11.4531703919
 30
0.0
 40
0.15625
 41
0.0
 71
     2
 72
     1
  1
3
  7
SLDTEXTSTYLE0
  0
MTEXT
  5
D3
330
1F
100
AcDbEntity
  8
0
  6
CONTINUOUS
 62
     7
100
AcDbMText
 10
13.3842534231
 20
0.3847479103
 30
0.0
 40
0.15625
 41
0.0
 71
     2
 72
     1
  1
2
  7
SLDTEXTSTYLE0
  0
MTEXT
  5
D4
330
1F
100
AcDbEntity
  8
0
  6
CONTINUOUS
 62
     7
100
AcDbMText
 10
13.3842534231
 20
11.4531703919
 30
0.0
 40
0.15625
 41
0.0
 71
     2
 72
     1
  1
2
  7
SLDTEXTSTYLE0
  0
MTEXT
  5
D5
330
1F
100
AcDbEntity
  8
0
  6
CONTINUOUS
 62
     7
100
AcDbMText
 10
15.2543321632
 20
0.3847479103
 30
0.0
 40
0.15625
 41
0.0
 71
     2
 72
     1
  1
1
  7
SLDTEXTSTYLE0
  0
MTEXT
  5
D6
330
1F
100
AcDbEntity
  8
0
  6
CONTINUOUS
 62
     7
100
AcDbMText
 10
15.2543321632
 20
11.4531703919
 30
0.0
 40
0.15625
 41
0.0
 71
     2
 72
     1
  1
1
  7
SLDTEXTSTYLE0
  0
MTEXT
  5
D8
330
1F
100
AcDbEntity
  8
0
  6
CONTINUOUS
 62
     7
100
AcDbMText
 10
9.0804473582
 20
1.6686921778
 30
0.0
 40
0.0590551181
 41
0.0
 71
     1
 72
     1
  1
DRAWN
  7
SLDTEXTSTYLE1
  0
MTEXT
  5
D9
330
1F
100
AcDbEntity
  8
0
  6
CONTINUOUS
 62
     7
100
AcDbMText
 10
9.092095362
 20
1.5024351582
 30
0.0
 40
0.0590551181
 41
0.0
 71
     1
 72
     1
  1
CHK'D
  7
SLDTEXTSTYLE0
  0
MTEXT
  5
DA
330
1F
100
AcDbEntity
  8
0
  6
CONTINUOUS
 62
     7
100
AcDbMText
 10
9.0709339531
 20
1.3411758514
 30
0.0
 40
0.0590551181
 41
0.0
 71
     1
 72
     1
  1
APPV'D
  7
SLDTEXTSTYLE0
  0
MTEXT
  5
DB
330
1F
100
AcDbEntity
  8
0
  6
CONTINUOUS
 62
     7
100
AcDbMText
 10
9.0993705015
 20
1.169912774
 30
0.0
 40
0.0590551181
 41
0.0
 71
     1
 72
     1
  1
MFG
  7
SLDTEXTSTYLE0
  0
MTEXT
  5
DC
330
1F
100
AcDbEntity
  8
0
  6
CONTINUOUS
 62
     7
100
AcDbMText
 10
9.1145290002
 20
1.0041205564
 30
0.0
 40
0.0590551181
 41
0.0
 71
     1
 72
     1
  1
Q.A
  7
SLDTEXTSTYLE0
  0
INSERT
  5
E6
330
1F
100
AcDbEntity
  8
0
  6
CONTINUOUS
 62
     7
100
AcDbBlockReference
  2
SW_NOTE_0_1
 10
9.0784908955
 20
2.4404476328
 30
0.0
  0
MTEXT
  5
E7
330
1F
100
AcDbEntity
  8
0
  6
CONTINUOUS
 62
     7
100
AcDbMText
 10
10.4083185892
 20
2.5165067715
 30
0.0
 40
0.0590551181
 41
0.0
 71
     1
 72
     1
  1
FINISH:
  7
SLDTEXTSTYLE0
  0
INSERT
  5
EE
330
1F
100
AcDbEntity
  8
0
  6
CONTINUOUS
 62
     7
100
AcDbBlockReference
  2
SW_NOTE_0_2
 10
12.2562683341
 20
2.4436806946
 30
0.0
  0
MTEXT
  5
EF
330
1F
100
AcDbEntity
  8
0
  6
CONTINUOUS
 62
     7
100
AcDbMText
 10
9.618985796
 20
1.8307670328
 30
0.0
 40
0.0590551181
 41
0.0
 71
     1
 72
     1
  1
NAME
  7
SLDTEXTSTYLE0
  0
MTEXT
  5
F0
330
1F
100
AcDbEntity
  8
0
  6
CONTINUOUS
 62
     7
100
AcDbMText
 10
10.2375428174
 20
1.8331400149
 30
0.0
 40
0.0590551181
 41
0.0
 71
     1
 72
     1
  1
SIGNATURE
  7
SLDTEXTSTYLE0
  0
MTEXT
  5
F1
330
1F
100
AcDbEntity
  8
0
  6
CONTINUOUS
 62
     7
100
AcDbMText
 10
10.9139646443
 20
1.8337078434
 30
0.0
 40
0.0590551181
 41
0.0
 71
     1
 72
     1
  1
DATE
  7
SLDTEXTSTYLE0
  0
MTEXT
  5
F2
330
1F
100
AcDbEntity
  8
0
  6
CONTINUOUS
 62
     7
100
AcDbMText
 10
11.2459000909
 20
1.0230730823
 30
0.0
 40
0.0590551181
 41
0.0
 71
     1
 72
     1
  1
MATERIAL:
  7
SLDTEXTSTYLE0
  0
MTEXT
  5
F3
330
1F
100
AcDbEntity
  8
0
  6
CONTINUOUS
 62
     7
100
AcDbMText
 10
13.4887653749
 20
2.4619288809
 30
0.0
 40
0.0590551181
 41
0.0
 71
     1
 72
     1
  1
DO NOT SCALE DRAWING
  7
SLDTEXTSTYLE0
  0
MTEXT
  5
F4
330
1F
100
AcDbEntity
  8
0
  6
CONTINUOUS
 62
     7
100
AcDbMText
 10
15.0916370748
 20
2.454130263
 30
0.0
 40
0.0590551181
 41
0.0
 71
     1
 72
     1
  1
REVISION
  7
SLDTEXTSTYLE0
  0
MTEXT
  5
F5
330
1F
100
AcDbEntity
  8
0
  6
CONTINUOUS
 62
     7
100
AcDbMText
 10
12.9956756157
 20
1.8337078434
 30
0.0
 40
0.0590551181
 41
0.0
 71
     1
 72
     1
  1
TITLE:
  7
SLDTEXTSTYLE0
  0
MTEXT
  5
F6
330
1F
100
AcDbEntity
  8
0
  6
CONTINUOUS
 62
     7
100
AcDbMText
 10
12.9902756778
 20
1.0230730823
 30
0.0
 40
0.0590551181
 41
0.0
 71
     1
 72
     1
  1
DWG NO.
  7
SLDTEXTSTYLE0
  0
MTEXT
  5
F7
330
1F
100
AcDbEntity
  8
0
  6
CONTINUOUS
 62
     7
100
AcDbMText
 10
12.9950380361
 20
0.5078774518
 30
0.0
 40
0.0590551181
 41
0.0
 71
     1
 72
     1
  1
SCALE:1:1
  7
SLDTEXTSTYLE0
  0
MTEXT
  5
F9
330
1F
100
AcDbEntity
  8
0
  6
CONTINUOUS
 62
     7
100
AcDbMText
 10
14.7432399381
 20
0.5078774518
 30
0.0
 40
0.0590551181
 41
0.0
 71
     1
 72
     1
  1
SHEET 1 OF 1
  7
SLDTEXTSTYLE2
  0
MTEXT
  5
FA
330
1F
100
AcDbEntity
  8
0
  6
CONTINUOUS
 62
     7
100
AcDbMText
 10
15.7823289935
 20
0.9608814397
 30
0.0
 40
0.1145833333
 41
0.0
 71
     1
 72
     1
  1
A3
  7
SLDTEXTSTYLE0
  0
MTEXT
  5
FB
330
1F
100
AcDbEntity
  8
0
  6
CONTINUOUS
 62
     7
100
AcDbMText
 10
11.2447957137
 20
0.5098154293
 30
0.0
 40
0.059
 41
0.0
 71
     1
 72
     1
  1
WEIGHT:
  7
SLDTEXTSTYLE0
  0
MTEXT
  5
FC
330
1F
100
AcDbEntity
  8
0
  6
CONTINUOUS
 62
     7
100
AcDbMText
 10
14.3408407991
 20
0.9294059436
 30
0.0
 40
0.25
 41
0.0
 71
     2
 72
     1
  1
LAS-03-0002
  7
SLDTEXTSTYLE0
  0
MTEXT
  5
FD
330
1F
100
AcDbEntity
  8
0
  6
CONTINUOUS
 62
     7
100
AcDbMText
 10
14.5511304478
 20
1.7547909891
 30
0.0
 40
0.25
 41
0.0
 71
     2
 72
     1
  1
LAS BASE PLATE
  7
SLDTEXTSTYLE0
  0
LINE
  5
FE
330
1F
100
AcDbEntity
  8
0
  6
SLD-SOLID
 62
     7
100
AcDbLine
 10
6.2043249984
 20
3.440166037
 30
0.0
 11
6.7043249984
 21
3.440166037
 31
0.0
  0
LINE
  5
FF
330
1F
100
AcDbEntity
  8
0
  6
SLD-SOLID
 62
     7
100
AcDbLine
 10
6.7043249984
 20
9.1881975331
 30
0.0
 11
6.2043249984
 21
9.1881975331
 31
0.0
  0
CIRCLE
  5
100
330
1F
100
AcDbEntity
  8
0
  6
SLD-SOLID
 62
     7
100
AcDbCircle
 10
6.4090494079
 20
7.2984337535
 30
0.0
 40
0.0680000000000005
  0
CIRCLE
  5
101
330
1F
100
AcDbEntity
  8
0
  6
SLD-SOLID
 62
     7
100
AcDbCircle
 10
6.4090494079
 20
8.282685722
 30
0.0
 40
0.0680000000000005
  0
CIRCLE
  5
102
330
1F
100
AcDbEntity
  8
0
  6
SLD-SOLID
 62
     7
100
AcDbCircle
 10
6.4090494079
 20
6.314181785
 30
0.0
 40
0.0680000000000005
  0
CIRCLE
  5
103
330
1F
100
AcDbEntity
  8
0
  6
SLD-SOLID
 62
     7
100
AcDbCircle
 10
6.4090494079
 20
5.3299298165
 30
0.0
 40
0.0680000000000005
  0
CIRCLE
  5
104
330
1F
100
AcDbEntity
  8
0
  6
SLD-SOLID
 62
     7
100
AcDbCircle
 10
6.4090494079
 20
4.345677848
 30
0.0
 40
0.0680000000000005
  0
CIRCLE
  5
105
330
1F
100
AcDbEntity
  8
0
  6
SLD-SOLID
 62
     7
100
AcDbCircle
 10
6.4090494079
 20
7.7905597378
 30
0.0
 40
0.0625000000000009
  0
CIRCLE
  5
106
330
1F
100
AcDbEntity
  8
0
  6
SLD-SOLID
 62
     7
100
AcDbCircle
 10
6.4090494079
 20
4.8378038323
 30
0.0
 40
0.0625000000000009
  0
LINE
  5
107
330
1F
100
AcDbEntity
  8
0
  6
SLD-SOLID
 62
     7
100
AcDbLine
 10
6.2043249984
 20
9.1881975331
 30
0.0
 11
6.2043249984
 21
3.440166037
 31
0.0
  0
LINE
  5
108
330
1F
100
AcDbEntity
  8
0
  6
SLD-SOLID
 62
     7
100
AcDbLine
 10
6.7043249984
 20
9.1881975331
 30
0.0
 11
6.7043249984
 21
3.440166037
 31
0.0
  0
LINE
  5
109
330
1F
100
AcDbEntity
  8
0
  6
SLD-SOLID
 62
     7
100
AcDbLine
 10
6.2043249984
 20
9.2669376906
 30
0.0
 11
6.7043249984
 21
9.2669376906
 31
0.0
  0
LINE
  5
10A
330
1F
100
AcDbEntity
  8
0
  6
SLD-SOLID
 62
     7
100
AcDbLine
 10
6.2043249984
 20
9.1881975331
 30
0.0
 11
6.2043249984
 21
9.2669376906
 31
0.0
  0
LINE
  5
10B
330
1F
100
AcDbEntity
  8
0
  6
SLD-SOLID
 62
     7
100
AcDbLine
 10
6.7043249984
 20
9.2669376906
 30
0.0
 11
6.7043249984
 21
9.1881975331
 31
0.0
  0
LINE
  5
10C
330
1F
100
AcDbEntity
  8
0
  6
SLD-SOLID
 62
     7
100
AcDbLine
 10
6.7043249984
 20
3.3614258795
 30
0.0
 11
6.2043249984
 21
3.3614258795
 31
0.0
  0
LINE
  5
10D
330
1F
100
AcDbEntity
  8
0
  6
SLD-SOLID
 62
     7
100
AcDbLine
 10
6.2043249984
 20
3.3614258795
 30
0.0
 11
6.2043249984
 21
3.440166037
 31
0.0
  0
LINE
  5
10E
330
1F
100
AcDbEntity
  8
0
  6
SLD-SOLID
 62
     7
100
AcDbLine
 10
6.7043249984
 20
3.440166037
 30
0.0
 11
6.7043249984
 21
3.3614258795
 31
0.0
  0
DIMENSION
  5
10F
330
1F
100
AcDbEntity
  8
0
  6
SLD-SOLID
 62
     7
100
AcDbDimension
  2
_D
 10
6.2043249984
 20
3.3614258795
 30
0.0
 11
5.5982110182
 21
3.3614258795
 31
0.0
 70
    38
  1
<>
  3
SLDDIMSTYLE0
100
AcDbOrdinateDimension
 13
6.2043249984
 23
3.3614258795
 33
0.0
 14
5.810624211
 24
3.3614258795
 34
0.0
  0
DIMENSION
  5
11D
330
1F
100
AcDbEntity
  8
0
  6
SLD-SOLID
 62
     7
100
AcDbDimension
  2
_D_1
 10
6.2043249984
 20
3.3614258795
 30
0.0
 11
5.5982110182
 21
4.345677848
 31
0.0
 70
    38
  1
<>
  3
SLDDIMSTYLE1
100
AcDbOrdinateDimension
 13
6.2410494079
 23
4.345677848
 33
0.0
 14
5.810624211
 24
4.345677848
 34
0.0
  0
DIMENSION
  5
128
330
1F
100
AcDbEntity
  8
0
  6
SLD-SOLID
 62
     7
100
AcDbDimension
  2
_D_2
 10
6.2043249984
 20
3.3614258795
 30
0.0
 11
5.5520304716
 21
4.8378038323
 31
0.0
 70
    38
  1
<>
  3
SLDDIMSTYLE1
100
AcDbOrdinateDimension
 13
6.4090494079
 23
4.8378038323
 33
0.0
 14
5.810624211
 24
4.8378038323
 34
0.0
  0
DIMENSION
  5
132
330
1F
100
AcDbEntity
  8
0
  6
SLD-SOLID
 62
     7
100
AcDbDimension
  2
_D_3
 10
6.2043249984
 20
3.3614258795
 30
0.0
 11
5.5520304716
 21
5.3299298165
 31
0.0
 70
    38
  1
<>
  3
SLDDIMSTYLE1
100
AcDbOrdinateDimension
 13
6.2410494079
 23
5.3299298165
 33
0.0
 14
5.810624211
 24
5.3299298165
 34
0.0
  0
DIMENSION
  5
13C
330
1F
100
AcDbEntity
  8
0
  6
SLD-SOLID
 62
     7
100
AcDbDimension
  2
_D_4
 10
6.2043249984
 20
3.3614258795
 30
0.0
 11
5.5520304716
 21
6.314181785
 31
0.0
 70
    38
  1
<>
  3
SLDDIMSTYLE1
100
AcDbOrdinateDimension
 13
6.2410494079
 23
6.314181785
 33
0.0
 14
5.810624211
 24
6.314181785
 34
0.0
  0
DIMENSION
  5
146
330
1F
100
AcDbEntity
  8
0
  6
SLD-SOLID
 62
     7
100
AcDbDimension
  2
_D_5
 10
6.2043249984
 20
3.3614258795
 30
0.0
 11
5.5520304716
 21
7.2984337535
 31
0.0
 70
    38
  1
<>
  3
SLDDIMSTYLE1
100
AcDbOrdinateDimension
 13
6.2410494079
 23
7.2984337535
 33
0.0
 14
5.810624211
 24
7.2984337535
 34
0.0
  0
DIMENSION
  5
150
330
1F
100
AcDbEntity
  8
0
  6
SLD-SOLID
 62
     7
100
AcDbDimension
  2
_D_6
 10
6.2043249984
 20
3.3614258795
 30
0.0
 11
5.5520304716
 21
7.7905597378
 31
0.0
 70
    38
  1
<>
  3
SLDDIMSTYLE1
100
AcDbOrdinateDimension
 13
6.4090494079
 23
7.7905597378
 33
0.0
 14
5.810624211
 24
7.7905597378
 34
0.0
  0
DIMENSION
  5
15A
330
1F
100
AcDbEntity
  8
0
  6
SLD-SOLID
 62
     7
100
AcDbDimension
  2
_D_7
 10
6.2043249984
 20
3.3614258795
 30
0.0
 11
5.5520304716
 21
8.282685722
 31
0.0
 70
    38
  1
<>
  3
SLDDIMSTYLE1
100
AcDbOrdinateDimension
 13
6.2410494079
 23
8.282685722
 33
0.0
 14
5.810624211
 24
8.282685722
 34
0.0
  0
DIMENSION
  5
164
330
1F
100
AcDbEntity
  8
0
  6
SLD-SOLID
 62
     7
100
AcDbDimension
  2
_D_8
 10
6.2043249984
 20
3.3614258795
 30
0.0
 11
5.5520304716
 21
9.2669376906
 31
0.0
 70
    38
  1
<>
  3
SLDDIMSTYLE1
100
AcDbOrdinateDimension
 13
6.2043249984
 23
9.2669376906
 33
0.0
 14
5.810624211
 24
9.2669376906
 34
0.0
  0
DIMENSION
  5
16E
330
1F
100
AcDbEntity
  8
0
  6
SLD-SOLID
 62
     7
100
AcDbDimension
  2
_D_9
 10
6.2043249984
 20
9.8968589504
 30
0.0
 11
5.2251679643
 21
9.8968589504
 31
0.0
 70
   160
  1
<>\PSTOCK OK
  3
SLDDIMSTYLE2
100
AcDbAlignedDimension
 13
6.7043249984
 23
9.2669376906
 33
0.0
 14
6.2043249984
 24
9.2669376906
 34
0.0
100
AcDbRotatedDimension
  0
DIMENSION
  5
17B
330
1F
100
AcDbEntity
  8
0
  6
SLD-SOLID
 62
     7
100
AcDbDimension
  2
_D_10
 10
6.3609661467
 20
8.2346024609
 30
0.0
 11
8.2438683995
 21
8.9888850026
 31
0.0
 70
   163
  1
10 x <> {\fGDT;x} .422\P8-32 UNC - 6H {\fGDT;x} .328\P
  3
SLDDIMSTYLE3
100
AcDbDiametricDimension
 15
6.457132669
 25
8.3307689832
 35
0.0
 40
0.0
  0
DIMENSION
  5
193
330
1F
100
AcDbEntity
  8
0
  6
SLD-SOLID
 62
     7
100
AcDbDimension
  2
_D_11
 10
6.3549228201
 20
4.8065538323
 30
0.0
 11
8.7188980334
 21
5.3446846746
 31
0.0
 70
   163
  1
4 x <> {\fGDT;x} .157\P
  3
SLDDIMSTYLE4
100
AcDbDiametricDimension
 15
6.4631759956
 25
4.8690538323
 35
0.0
 40
0.0
  0
DIMENSION
  5
1A7
330
1F
100
AcDbEntity
  8
0
  6
SLD-SOLID
 62
     7
100
AcDbDimension
  2
_D_12
 10
6.2043249984
 20
2.9677250921
 30
0.0
 11
5.5744037386
 21
2.9677250921
 31
0.0
 70
   160
  1
<>
  3
SLDDIMSTYLE5
100
AcDbAlignedDimension
 13
6.4090494079
 23
8.114685722
 33
0.0
 14
6.2043249984
 24
3.440166037
 34
0.0
 50
0.0
100
AcDbRotatedDimension
  0
TOLERANCE
  5
1B9
330
1F
100
AcDbEntity
  8
0
  6
SLD-SOLID
 62
     7
100
AcDbFcf
  3
SLDDIMSTYLE6
 10
7.3964986884
 20
8.6635377903
 30
0.0
  1
{\Fgdt;j}%%v{\Fgdt;n}.015%%v%%vA%%vB%%vC%%v^J
  0
TOLERANCE
  5
1BA
330
1F
100
AcDbEntity
  8
0
  6
SLD-SOLID
 62
     7
100
AcDbFcf
  3
SLDDIMSTYLE6
 10
4.7518523422
 20
10.617632623
 30
0.0
  1
{\Fgdt;d}%%v.020%%v%%vA%%vB%%vC%%v^J
  0
LEADER
  5
1BC
330
1F
100
AcDbEntity
  8
0
  6
SLD-SOLID
 62
     7
100
AcDbLeader
  3
SLDDIMSTYLE7
 71
     0
 76
     2
 10
6.2043249984
 20
9.3159947182
 30
0.0
 10
6.2043249984
 20
10.617632623
 30
0.0
1001
ACAD
1000
DSTYLE
1002
{
1070
     6
1000
NONE
1002
}
  0
TOLERANCE
  5
1BD
330
1F
100
AcDbEntity
  8
0
  6
SLD-SOLID
 62
     7
100
AcDbFcf
  3
SLDDIMSTYLE6
 10
7.6625196388
 20
5.1014463329
 30
0.0
  1
{\Fgdt;j}%%v{\Fgdt;n}.005%%v%%vA%%v%%v%%v^J
  0
LEADER
  5
1BF
330
1F
100
AcDbEntity
  8
0
  6
SLD-SOLID
 62
     7
100
AcDbLeader
  3
SLDDIMSTYLE8
 76
     2
 10
6.4694761382
 20
4.8537681756
 30
0.0
 10
7.6625196388
 20
5.1014463329
 30
0.0
1001
ACAD
1000
DSTYLE
1002
{
1070
     6
1000

1002
}
  0
TOLERANCE
  5
1C0
102
{ACAD_REACTORS
330
1C1
102
}
330
1F
100
AcDbEntity
  8
0
  6
SLD-SOLID
 62
     7
100
AcDbFcf
  3
SLDDIMSTYLE6
 10
7.5490118936
 20
7.0933252696
 30
0.0
  1
{\Fgdt;j}%%v{\Fgdt;n}.005%%v%%vA%%vB%%v%%v^J
  0
LEADER
  5
1C1
330
1F
100
AcDbEntity
  8
0
  6
SLD-SOLID
 62
     7
100
AcDbLeader
  3
SLDDIMSTYLE8
 73
     1
 74
     0
 40
1.3119023437
 41
0.25
 76
     3
 10
6.445222556
 20
7.7395915776
 30
0.0
 10
7.2990118936
 20
7.0933252696
 30
0.0
 10
7.5490118936
 20
7.0933252696
 30
0.0
340
1C0
1001
ACAD
1000
DSTYLE
1002
{
1070
     6
1000

1002
}
  0
INSERT
  5
1CD
330
1F
100
AcDbEntity
  8
0
  6
CONTINUOUS
 62
     7
100
AcDbBlockReference
  2
SW_CENTERMARKSYMBOL_0
 10
6.4090494079
 20
7.2984337535
 30
0.0
  0
INSERT
  5
1D9
330
1F
100
AcDbEntity
  8
0
  6
CONTINUOUS
 62
     7
100
AcDbBlockReference
  2
SW_CENTERMARKSYMBOL_1
 10
6.4090494079
 20
8.282685722
 30
0.0
  0
INSERT
  5
1E5
330
1F
100
AcDbEntity
  8
0
  6
CONTINUOUS
 62
     7
100
AcDbBlockReference
  2
SW_CENTERMARKSYMBOL_2
 10
6.4090494079
 20
6.314181785
 30
0.0
  0
INSERT
  5
1F1
330
1F
100
AcDbEntity
  8
0
  6
CONTINUOUS
 62
     7
100
AcDbBlockReference
  2
SW_CENTERMARKSYMBOL_3
 10
6.4090494079
 20
5.3299298165
 30
0.0
  0
INSERT
  5
1FD
330
1F
100
AcDbEntity
  8
0
  6
CONTINUOUS
 62
     7
100
AcDbBlockReference
  2
SW_CENTERMARKSYMBOL_4
 10
6.4090494079
 20
4.345677848
 30
0.0
  0
CIRCLE
  5
1FE
330
1F
100
AcDbEntity
  8
0
  6
SLD-DASHED
 62
     7
100
AcDbCircle
 10
6.4090494079
 20
7.2984337535
 30
0.0
 40
0.0820000000000007
  0
CIRCLE
  5
1FF
330
1F
100
AcDbEntity
  8
0
  6
SLD-DASHED
 62
     7
100
AcDbCircle
 10
6.4090494079
 20
7.2984337535
 30
0.0
 40
0.0820000000000007
  0
CIRCLE
  5
200
330
1F
100
AcDbEntity
  8
0
  6
SLD-DASHED
 62
     7
100
AcDbCircle
 10
6.4090494079
 20
6.314181785
 30
0.0
 40
0.0820000000000007
  0
CIRCLE
  5
201
330
1F
100
AcDbEntity
  8
0
  6
SLD-DASHED
 62
     7
100
AcDbCircle
 10
6.4090494079
 20
6.314181785
 30
0.0
 40
0.0820000000000007
  0
CIRCLE
  5
202
330
1F
100
AcDbEntity
  8
0
  6
SLD-DASHED
 62
     7
100
AcDbCircle
 10
6.4090494079
 20
5.3299298165
 30
0.0
 40
0.0820000000000007
  0
CIRCLE
  5
203
330
1F
100
AcDbEntity
  8
0
  6
SLD-DASHED
 62
     7
100
AcDbCircle
 10
6.4090494079
 20
5.3299298165
 30
0.0
 40
0.0820000000000007
  0
CIRCLE
  5
204
330
1F
100
AcDbEntity
  8
0
  6
SLD-DASHED
 62
     7
100
AcDbCircle
 10
6.4090494079
 20
4.345677848
 30
0.0
 40
0.0820000000000007
  0
CIRCLE
  5
205
330
1F
100
AcDbEntity
  8
0
  6
SLD-DASHED
 62
     7
100
AcDbCircle
 10
6.4090494079
 20
4.345677848
 30
0.0
 40
0.0820000000000007
  0
CIRCLE
  5
206
330
1F
100
AcDbEntity
  8
0
  6
SLD-DASHED
 62
     7
100
AcDbCircle
 10
6.4090494079
 20
8.282685722
 30
0.0
 40
0.0820000000000007
  0
CIRCLE
  5
207
330
1F
100
AcDbEntity
  8
0
  6
SLD-DASHED
 62
     7
100
AcDbCircle
 10
6.4090494079
 20
8.282685722
 30
0.0
 40
0.0820000000000007
  0
INSERT
  5
212
330
1F
100
AcDbEntity
  8
0
  6
CONTINUOUS
 62
     7
100
AcDbBlockReference
  2
SW_DATUMTAG_0
 10
8.1880217016
 20
4.4911747876
 30
0.0
  0
INSERT
  5
21D
330
1F
100
AcDbEntity
  8
0
  6
CONTINUOUS
 62
     7
100
AcDbBlockReference
  2
SW_DATUMTAG_1
 10
8.1796354857
 20
6.3706475707
 30
0.0
  0
INSERT
  5
224
330
1F
100
AcDbEntity
  8
0
  6
CONTINUOUS
 62
     7
100
AcDbBlockReference
  2
SW_DOWELSYMBOL_0
 10
6.4090494079
 20
7.7905597378
 30
0.0
  0
INSERT
  5
22B
330
1F
100
AcDbEntity
  8
0
  6
CONTINUOUS
 62
     7
100
AcDbBlockReference
  2
SW_DOWELSYMBOL_1
 10
6.4090494079
 20
4.8378038323
 30
0.0
  0
LINE
  5
22C
330
1F
100
AcDbEntity
  8
0
  6
SLD-SOLID
 62
     7
100
AcDbLine
 10
12.1399389305
 20
3.3614258795
 30
0.0
 11
12.218679088
 21
3.440166037
 31
0.0
  0
LINE
  5
22D
330
1F
100
AcDbEntity
  8
0
  6
SLD-SOLID
 62
     7
100
AcDbLine
 10
10.1320649148
 20
3.3614258795
 30
0.0
 11
12.1399389305
 21
3.3614258795
 31
0.0
  0
LINE
  5
22E
330
1F
100
AcDbEntity
  8
0
  6
SLD-SOLID
 62
     7
100
AcDbLine
 10
10.0533247573
 20
3.440166037
 30
0.0
 11
10.1320649148
 21
3.3614258795
 31
0.0
  0
LINE
  5
22F
330
1F
100
AcDbEntity
  8
0
  6
SLD-SOLID
 62
     7
100
AcDbLine
 10
10.0533247573
 20
9.1881975331
 30
0.0
 11
10.0533247573
 21
3.440166037
 31
0.0
  0
LINE
  5
230
330
1F
100
AcDbEntity
  8
0
  6
SLD-SOLID
 62
     7
100
AcDbLine
 10
10.1320649148
 20
9.2669376906
 30
0.0
 11
10.0533247573
 21
9.1881975331
 31
0.0
  0
LINE
  5
231
330
1F
100
AcDbEntity
  8
0
  6
SLD-SOLID
 62
     7
100
AcDbLine
 10
12.1399389305
 20
9.2669376906
 30
0.0
 11
10.1320649148
 21
9.2669376906
 31
0.0
  0
LINE
  5
232
330
1F
100
AcDbEntity
  8
0
  6
SLD-SOLID
 62
     7
100
AcDbLine
 10
12.218679088
 20
9.1881975331
 30
0.0
 11
12.1399389305
 21
9.2669376906
 31
0.0
  0
LINE
  5
233
330
1F
100
AcDbEntity
  8
0
  6
SLD-SOLID
 62
     7
100
AcDbLine
 10
12.218679088
 20
3.440166037
 30
0.0
 11
12.218679088
 21
9.1881975331
 31
0.0
  0
LINE
  5
234
330
1F
100
AcDbEntity
  8
0
  6
SLD-SOLID
 62
     7
100
AcDbLine
 10
11.470647592
 20
3.8338668244
 30
0.0
 11
10.8013562534
 21
3.8338668244
 31
0.0
  0
ARC
  5
235
330
1F
100
AcDbEntity
  8
0
  6
SLD-SOLID
 62
     7
100
AcDbCircle
 10
11.470647592
 20
4.2275676118
 30
0.0
 40
0.3937007874015745
100
AcDbArc
 50
270.0
 51
0.0
  0
LINE
  5
236
330
1F
100
AcDbEntity
  8
0
  6
SLD-SOLID
 62
     7
100
AcDbLine
 10
11.8643483794
 20
8.4007959583
 30
0.0
 11
11.8643483794
 21
4.2275676118
 31
0.0
  0
ARC
  5
237
330
1F
100
AcDbEntity
  8
0
  6
SLD-SOLID
 62
     7
100
AcDbCircle
 10
11.470647592
 20
8.4007959583
 30
0.0
 40
0.3937007874015741
100
AcDbArc
 50
0.0
 51
90.0
  0
LINE
  5
238
330
1F
100
AcDbEntity
  8
0
  6
SLD-SOLID
 62
     7
100
AcDbLine
 10
10.8013562534
 20
8.7944967457
 30
0.0
 11
11.470647592
 21
8.7944967457
 31
0.0
  0
ARC
  5
239
330
1F
100
AcDbEntity
  8
0
  6
SLD-SOLID
 62
     7
100
AcDbCircle
 10
10.8013562534
 20
8.4007959583
 30
0.0
 40
0.3937007874015759
100
AcDbArc
 50
90.0
 51
180.0
  0
LINE
  5
23A
330
1F
100
AcDbEntity
  8
0
  6
SLD-SOLID
 62
     7
100
AcDbLine
 10
10.407655466
 20
4.2275676118
 30
0.0
 11
10.407655466
 21
8.4007959583
 31
0.0
  0
ARC
  5
23B
330
1F
100
AcDbEntity
  8
0
  6
SLD-SOLID
 62
     7
100
AcDbCircle
 10
10.8013562534
 20
4.2275676118
 30
0.0
 40
0.3937007874015759
100
AcDbArc
 50
180.0
 51
270.0
  0
ARC
  5
23C
330
1F
100
AcDbEntity
  8
0
  6
SLD-SOLID
 62
     7
100
AcDbCircle
 10
11.470647592
 20
8.4007959583
 30
0.0
 40
0.2755905511811019
100
AcDbArc
 50
0.0
 51
90.0
  0
LINE
  5
23D
330
1F
100
AcDbEntity
  8
0
  6
SLD-SOLID
 62
     7
100
AcDbLine
 10
11.470647592
 20
8.6763865095
 30
0.0
 11
11.470647592
 21
8.7944967457
 31
0.0
  0
LINE
  5
23E
330
1F
100
AcDbEntity
  8
0
  6
SLD-SOLID
 62
     7
100
AcDbLine
 10
11.7462381431
 20
8.4007959583
 30
0.0
 11
11.8643483794
 21
8.4007959583
 31
0.0
  0
LINE
  5
23F
330
1F
100
AcDbEntity
  8
0
  6
SLD-SOLID
 62
     7
100
AcDbLine
 10
10.407655466
 20
4.2275676118
 30
0.0
 11
10.5257657022
 21
4.2275676118
 31
0.0
  0
ARC
  5
240
330
1F
100
AcDbEntity
  8
0
  6
SLD-SOLID
 62
     7
100
AcDbCircle
 10
10.8013562534
 20
4.2275676118
 30
0.0
 40
0.2755905511811036
100
AcDbArc
 50
180.0
 51
270.0
  0
LINE
  5
241
330
1F
100
AcDbEntity
  8
0
  6
SLD-SOLID
 62
     7
100
AcDbLine
 10
10.8013562534
 20
3.8338668244
 30
0.0
 11
10.8013562534
 21
3.9519770606
 31
0.0
  0
LINE
  5
242
330
1F
100
AcDbEntity
  8
0
  6
SLD-SOLID
 62
     7
100
AcDbLine
 10
10.5257657022
 20
8.4007959583
 30
0.0
 11
10.5257657022
 21
4.2275676118
 31
0.0
  0
LINE
  5
243
330
1F
100
AcDbEntity
  8
0
  6
SLD-SOLID
 62
     7
100
AcDbLine
 10
10.5257657022
 20
8.4007959583
 30
0.0
 11
10.407655466
 21
8.4007959583
 31
0.0
  0
LINE
  5
244
330
1F
100
AcDbEntity
  8
0
  6
SLD-SOLID
 62
     7
100
AcDbLine
 10
11.7462381431
 20
4.2275676118
 30
0.0
 11
11.7462381431
 21
8.4007959583
 31
0.0
  0
LINE
  5
245
330
1F
100
AcDbEntity
  8
0
  6
SLD-SOLID
 62
     7
100
AcDbLine
 10
11.8643483794
 20
4.2275676118
 30
0.0
 11
11.7462381431
 21
4.2275676118
 31
0.0
  0
LINE
  5
246
330
1F
100
AcDbEntity
  8
0
  6
SLD-SOLID
 62
     7
100
AcDbLine
 10
11.470647592
 20
3.8338668244
 30
0.0
 11
11.470647592
 21
3.9519770606
 31
0.0
  0
ARC
  5
247
330
1F
100
AcDbEntity
  8
0
  6
SLD-SOLID
 62
     7
100
AcDbCircle
 10
11.470647592
 20
4.2275676118
 30
0.0
 40
0.2755905511811023
100
AcDbArc
 50
270.0
 51
0.0
  0
LINE
  5
248
330
1F
100
AcDbEntity
  8
0
  6
SLD-SOLID
 62
     7
100
AcDbLine
 10
11.470647592
 20
8.6763865095
 30
0.0
 11
10.8013562534
 21
8.6763865095
 31
0.0
  0
LINE
  5
249
330
1F
100
AcDbEntity
  8
0
  6
SLD-SOLID
 62
     7
100
AcDbLine
 10
10.8013562534
 20
8.6763865095
 30
0.0
 11
10.8013562534
 21
8.7944967457
 31
0.0
  0
LINE
  5
24A
330
1F
100
AcDbEntity
  8
0
  6
SLD-SOLID
 62
     7
100
AcDbLine
 10
10.8013562534
 20
3.9519770606
 30
0.0
 11
11.470647592
 21
3.9519770606
 31
0.0
  0
ARC
  5
24B
330
1F
100
AcDbEntity
  8
0
  6
SLD-SOLID
 62
     7
100
AcDbCircle
 10
10.8013562534
 20
8.4007959583
 30
0.0
 40
0.2755905511811036
100
AcDbArc
 50
90.0
 51
180.0
  0
TOLERANCE
  5
24C
330
1F
100
AcDbEntity
  8
0
  6
SLD-SOLID
 62
     7
100
AcDbFcf
  3
SLDDIMSTYLE6
 10
9.2193813979
 20
9.9983709877
 30
0.0
  1
{\Fgdt;c}%%v.005%%v%%v%%v%%v%%v^J
  0
LEADER
  5
24D
330
1F
100
AcDbEntity
  8
0
  6
SLD-SOLID
 62
     7
100
AcDbLeader
  3
SLDDIMSTYLE7
 71
     0
 76
     2
 10
10.0533247573
 20
9.3160296124
 30
0.0
 10
10.0533247573
 20
9.9983709877
 30
0.0
1001
ACAD
1000
DSTYLE
1002
{
1070
     6
1000
NONE
1002
}
  0
TOLERANCE
  5
24E
330
1F
100
AcDbEntity
  8
0
  6
SLD-SOLID
 62
     7
100
AcDbFcf
  3
SLDDIMSTYLE6
 10
12.218679088
 20
10.5552676603
 30
0.0
  1
{\Fgdt;d}%%v.020%%v%%vA%%v%%v%%v^J{\Fgdt;f}%%v.008%%v%%vA%%v%%v%%v^J
  0
LEADER
  5
24F
330
1F
100
AcDbEntity
  8
0
  6
SLD-SOLID
 62
     7
100
AcDbLeader
  3
SLDDIMSTYLE7
 71
     0
 76
     2
 10
12.218679088
 20
9.3169376906
 30
0.0
 10
12.218679088
 20
10.5552676603
 30
0.0
1001
ACAD
1000
DSTYLE
1002
{
1070
     6
1000
NONE
1002
}
  0
TOLERANCE
  5
250
330
1F
100
AcDbEntity
  8
0
  6
SLD-SOLID
 62
     7
100
AcDbFcf
  3
SLDDIMSTYLE6
 10
8.3574958713
 20
3.3089021469
 30
0.0
  1
{\Fgdt;d}%%v.020%%v%%vA%%vB%%vC%%v^J
  0
LEADER
  5
251
330
1F
100
AcDbEntity
  8
0
  6
SLD-SOLID
 62
     7
100
AcDbLeader
  3
SLDDIMSTYLE8
 76
     2
 10
10.5257657022
 20
6.9530344093
 30
0.0
 10
9.8099685276
 20
3.3089021469
 30
0.0
1001
ACAD
1000
DSTYLE
1002
{
1070
     6
1000

1002
}
  0
INSERT
  5
25D
330
1F
100
AcDbEntity
  8
0
  6
CONTINUOUS
 62
     7
100
AcDbBlockReference
  2
SW_DATUMTAG_2
 10
10.4090910639
 20
9.5983622334
 30
0.0
  0
LINE
  5
25E
330
1F
100
AcDbEntity
  8
0
  6
SLD-SOLID
 62
     7
100
AcDbLine
 10
13.7708050607
 20
3.440166037
 30
0.0
 11
14.2708050607
 21
3.440166037
 31
0.0
  0
LINE
  5
25F
330
1F
100
AcDbEntity
  8
0
  6
SLD-SOLID
 62
     7
100
AcDbLine
 10
14.2708050607
 20
3.440166037
 30
0.0
 11
14.2708050607
 21
3.3614258795
 31
0.0
  0
LINE
  5
260
330
1F
100
AcDbEntity
  8
0
  6
SLD-SOLID
 62
     7
100
AcDbLine
 10
14.2708050607
 20
3.3614258795
 30
0.0
 11
13.7708050607
 21
3.3614258795
 31
0.0
  0
LINE
  5
261
330
1F
100
AcDbEntity
  8
0
  6
SLD-SOLID
 62
     7
100
AcDbLine
 10
13.7708050607
 20
3.3614258795
 30
0.0
 11
13.7708050607
 21
3.440166037
 31
0.0
  0
LINE
  5
262
330
1F
100
AcDbEntity
  8
0
  6
SLD-SOLID
 62
     7
100
AcDbLine
 10
13.7708050607
 20
9.2669376906
 30
0.0
 11
14.2708050607
 21
9.2669376906
 31
0.0
  0
LINE
  5
263
330
1F
100
AcDbEntity
  8
0
  6
SLD-SOLID
 62
     7
100
AcDbLine
 10
14.2708050607
 20
9.1881975331
 30
0.0
 11
13.7708050607
 21
9.1881975331
 31
0.0
  0
LINE
  5
264
330
1F
100
AcDbEntity
  8
0
  6
SLD-SOLID
 62
     7
100
AcDbLine
 10
13.7708050607
 20
9.1881975331
 30
0.0
 11
13.7708050607
 21
9.2669376906
 31
0.0
  0
LINE
  5
265
330
1F
100
AcDbEntity
  8
0
  6
SLD-SOLID
 62
     7
100
AcDbLine
 10
14.2708050607
 20
9.2669376906
 30
0.0
 11
14.2708050607
 21
9.1881975331
 31
0.0
  0
LINE
  5
266
330
1F
100
AcDbEntity
  8
0
  6
SLD-SOLID
 62
     7
100
AcDbLine
 10
13.7708050607
 20
3.440166037
 30
0.0
 11
13.7708050607
 21
9.1881975331
 31
0.0
  0
CIRCLE
  5
267
330
1F
100
AcDbEntity
  8
0
  6
SLD-SOLID
 62
     7
100
AcDbCircle
 10
14.0660806513
 20
7.2984337535
 30
0.0
 40
0.0680000000000014
  0
CIRCLE
  5
268
330
1F
100
AcDbEntity
  8
0
  6
SLD-SOLID
 62
     7
100
AcDbCircle
 10
14.0660806513
 20
8.282685722
 30
0.0
 40
0.0680000000000014
  0
CIRCLE
  5
269
330
1F
100
AcDbEntity
  8
0
  6
SLD-SOLID
 62
     7
100
AcDbCircle
 10
14.0660806513
 20
6.314181785
 30
0.0
 40
0.0680000000000014
  0
CIRCLE
  5
26A
330
1F
100
AcDbEntity
  8
0
  6
SLD-SOLID
 62
     7
100
AcDbCircle
 10
14.0660806513
 20
5.3299298165
 30
0.0
 40
0.0680000000000014
  0
CIRCLE
  5
26B
330
1F
100
AcDbEntity
  8
0
  6
SLD-SOLID
 62
     7
100
AcDbCircle
 10
14.0660806513
 20
4.345677848
 30
0.0
 40
0.0680000000000014
  0
CIRCLE
  5
26C
330
1F
100
AcDbEntity
  8
0
  6
SLD-SOLID
 62
     7
100
AcDbCircle
 10
14.0660806513
 20
7.7905597378
 30
0.0
 40
0.0625
  0
CIRCLE
  5
26D
330
1F
100
AcDbEntity
  8
0
  6
SLD-SOLID
 62
     7
100
AcDbCircle
 10
14.0660806513
 20
4.8378038323
 30
0.0
 40
0.0625
  0
LINE
  5
26E
330
1F
100
AcDbEntity
  8
0
  6
SLD-SOLID
 62
     7
100
AcDbLine
 10
14.2708050607
 20
3.440166037
 30
0.0
 11
14.2708050607
 21
9.1881975331
 31
0.0
  0
DIMENSION
  5
26F
330
1F
100
AcDbEntity
  8
0
  6
SLD-SOLID
 62
     7
100
AcDbDimension
  2
_D_13
 10
14.2708050607
 20
3.3614258795
 30
0.0
 11
14.7794060737
 21
3.3614258795
 31
0.0
 70
    38
  1
<>
  3
SLDDIMSTYLE9
100
AcDbOrdinateDimension
 13
14.2708050607
 23
3.3614258795
 33
0.0
 14
14.5669928809
 24
3.3614258795
 34
0.0
  0
DIMENSION
  5
27A
330
1F
100
AcDbEntity
  8
0
  6
SLD-SOLID
 62
     7
100
AcDbDimension
  2
_D_14
 10
14.2708050607
 20
3.3614258795
 30
0.0
 11
14.7794060737
 21
4.2454669075
 31
0.0
 70
    38
  1
<>
  3
SLDDIMSTYLE1
100
AcDbOrdinateDimension
 13
14.0660806513
 23
4.345677848
 33
0.0
 14
14.5669928809
 24
4.2454669075
 34
0.0
  0
DIMENSION
  5
286
330
1F
100
AcDbEntity
  8
0
  6
SLD-SOLID
 62
     7
100
AcDbDimension
  2
_D_15
 10
14.2708050607
 20
3.3614258795
 30
0.0
 11
14.8255866202
 21
4.8378038323
 31
0.0
 70
    38
  1
<>
  3
SLDDIMSTYLE1
100
AcDbOrdinateDimension
 13
14.0660806513
 23
4.8378038323
 33
0.0
 14
14.5669928809
 24
4.8378038323
 34
0.0
  0
DIMENSION
  5
290
330
1F
100
AcDbEntity
  8
0
  6
SLD-SOLID
 62
     7
100
AcDbDimension
  2
_D_16
 10
14.2708050607
 20
3.3614258795
 30
0.0
 11
14.8255866202
 21
5.3299298165
 31
0.0
 70
    38
  1
<>
  3
SLDDIMSTYLE1
100
AcDbOrdinateDimension
 13
14.2340806513
 23
5.3299298165
 33
0.0
 14
14.5669928809
 24
5.3299298165
 34
0.0
  0
DIMENSION
  5
29A
330
1F
100
AcDbEntity
  8
0
  6
SLD-SOLID
 62
     7
100
AcDbDimension
  2
_D_17
 10
14.2708050607
 20
3.3614258795
 30
0.0
 11
14.8255866202
 21
6.314181785
 31
0.0
 70
    38
  1
<>
  3
SLDDIMSTYLE1
100
AcDbOrdinateDimension
 13
14.2340806513
 23
6.314181785
 33
0.0
 14
14.5669928809
 24
6.314181785
 34
0.0
  0
DIMENSION
  5
2A4
330
1F
100
AcDbEntity
  8
0
  6
SLD-SOLID
 62
     7
100
AcDbDimension
  2
_D_18
 10
14.2708050607
 20
3.3614258795
 30
0.0
 11
14.8255866202
 21
7.2984337535
 31
0.0
 70
    38
  1
<>
  3
SLDDIMSTYLE1
100
AcDbOrdinateDimension
 13
14.2340806513
 23
7.2984337535
 33
0.0
 14
14.5669928809
 24
7.2984337535
 34
0.0
  0
DIMENSION
  5
2AE
330
1F
100
AcDbEntity
  8
0
  6
SLD-SOLID
 62
     7
100
AcDbDimension
  2
_D_19
 10
14.2708050607
 20
3.3614258795
 30
0.0
 11
14.8255866202
 21
7.7905597378
 31
0.0
 70
    38
  1
<>
  3
SLDDIMSTYLE1
100
AcDbOrdinateDimension
 13
14.0660806513
 23
7.7905597378
 33
0.0
 14
14.5669928809
 24
7.7905597378
 34
0.0
  0
DIMENSION
  5
2B8
330
1F
100
AcDbEntity
  8
0
  6
SLD-SOLID
 62
     7
100
AcDbDimension
  2
_D_20
 10
14.2708050607
 20
3.3614258795
 30
0.0
 11
14.8255866202
 21
8.282685722
 31
0.0
 70
    38
  1
<>
  3
SLDDIMSTYLE10
100
AcDbOrdinateDimension
 13
14.2340806513
 23
8.282685722
 33
0.0
 14
14.5669928809
 24
8.282685722
 34
0.0
  0
DIMENSION
  5
2C3
330
1F
100
AcDbEntity
  8
0
  6
SLD-SOLID
 62
     7
100
AcDbDimension
  2
_D_21
 10
14.2708050607
 20
4.494618538
 30
0.0
 11
14.9007263206
 21
4.494618538
 31
0.0
 70
   160
  1
<>
  3
SLDDIMSTYLE5
100
AcDbAlignedDimension
 13
14.0660806513
 23
8.114685722
 33
0.0
 14
14.2708050607
 24
3.440166037
 34
0.0
100
AcDbRotatedDimension
  0
TOLERANCE
  5
2D1
102
{ACAD_REACTORS
330
2D2
330
2D3
102
}
330
1F
100
AcDbEntity
  8
0
  6
SLD-SOLID
 62
     7
100
AcDbFcf
  3
SLDDIMSTYLE6
 10
13.4277552823
 20
10.1621384175
 30
0.0
  1
{\Fgdt;j}%%v{\Fgdt;n}.005%%v%%vA%%vB%%vC%%v^J
  0
LEADER
  5
2D2
330
1F
100
AcDbEntity
  8
0
  6
SLD-SOLID
 62
     7
100
AcDbLeader
  3
SLDDIMSTYLE8
 73
     1
 74
     0
 40
1.5215273437
 41
0.25
 76
     3
 10
14.0077920224
 20
7.7680056751
 30
0.0
 10
13.1777552823
 20
10.1621384175
 30
0.0
 10
13.4277552823
 20
10.1621384175
 30
0.0
340
2D1
1001
ACAD
1000
DSTYLE
1002
{
1070
     6
1000

1002
}
  0
LEADER
  5
2D3
330
1F
100
AcDbEntity
  8
0
  6
SLD-SOLID
 62
     7
100
AcDbLeader
  3
SLDDIMSTYLE8
 73
     1
 74
     0
 40
1.5215273437
 41
0.25
 76
     3
 10
14.0219834879
 20
4.8820948041
 30
0.0
 10
13.1777552823
 20
10.1621384175
 30
0.0
 10
13.4277552823
 20
10.1621384175
 30
0.0
340
2D1
1001
ACAD
1000
DSTYLE
1002
{
1070
     6
1000

1002
}
  0
INSERT
  5
2DF
330
1F
100
AcDbEntity
  8
0
  6
CONTINUOUS
 62
     7
100
AcDbBlockReference
  2
SW_CENTERMARKSYMBOL_5
 10
14.0660806513
 20
7.2984337535
 30
0.0
  0
INSERT
  5
2EB
330
1F
100
AcDbEntity
  8
0
  6
CONTINUOUS
 62
     7
100
AcDbBlockReference
  2
SW_CENTERMARKSYMBOL_6
 10
14.0660806513
 20
8.282685722
 30
0.0
  0
INSERT
  5
2F7
330
1F
100
AcDbEntity
  8
0
  6
CONTINUOUS
 62
     7
100
AcDbBlockReference
  2
SW_CENTERMARKSYMBOL_7
 10
14.0660806513
 20
6.314181785
 30
0.0
  0
INSERT
  5
303
330
1F
100
AcDbEntity
  8
0
  6
CONTINUOUS
 62
     7
100
AcDbBlockReference
  2
SW_CENTERMARKSYMBOL_8
 10
14.0660806513
 20
5.3299298165
 30
0.0
  0
INSERT
  5
30F
330
1F
100
AcDbEntity
  8
0
  6
CONTINUOUS
 62
     7
100
AcDbBlockReference
  2
SW_CENTERMARKSYMBOL_9
 10
14.0660806513
 20
4.345677848
 30
0.0
  0
CIRCLE
  5
310
330
1F
100
AcDbEntity
  8
0
  6
SLD-DASHED
 62
     7
100
AcDbCircle
 10
14.0660806513
 20
7.2984337535
 30
0.0
 40
0.081999999999999
  0
CIRCLE
  5
311
330
1F
100
AcDbEntity
  8
0
  6
SLD-DASHED
 62
     7
100
AcDbCircle
 10
14.0660806513
 20
7.2984337535
 30
0.0
 40
0.0820000000000007
  0
CIRCLE
  5
312
330
1F
100
AcDbEntity
  8
0
  6
SLD-DASHED
 62
     7
100
AcDbCircle
 10
14.0660806513
 20
6.314181785
 30
0.0
 40
0.081999999999999
  0
CIRCLE
  5
313
330
1F
100
AcDbEntity
  8
0
  6
SLD-DASHED
 62
     7
100
AcDbCircle
 10
14.0660806513
 20
6.314181785
 30
0.0
 40
0.0820000000000007
  0
CIRCLE
  5
314
330
1F
100
AcDbEntity
  8
0
  6
SLD-DASHED
 62
     7
100
AcDbCircle
 10
14.0660806513
 20
5.3299298165
 30
0.0
 40
0.081999999999999
  0
CIRCLE
  5
315
330
1F
100
AcDbEntity
  8
0
  6
SLD-DASHED
 62
     7
100
AcDbCircle
 10
14.0660806513
 20
5.3299298165
 30
0.0
 40
0.0820000000000007
  0
CIRCLE
  5
316
330
1F
100
AcDbEntity
  8
0
  6
SLD-DASHED
 62
     7
100
AcDbCircle
 10
14.0660806513
 20
4.345677848
 30
0.0
 40
0.081999999999999
  0
CIRCLE
  5
317
330
1F
100
AcDbEntity
  8
0
  6
SLD-DASHED
 62
     7
100
AcDbCircle
 10
14.0660806513
 20
4.345677848
 30
0.0
 40
0.0820000000000007
  0
CIRCLE
  5
318
330
1F
100
AcDbEntity
  8
0
  6
SLD-DASHED
 62
     7
100
AcDbCircle
 10
14.0660806513
 20
8.282685722
 30
0.0
 40
0.081999999999999
  0
CIRCLE
  5
319
330
1F
100
AcDbEntity
  8
0
  6
SLD-DASHED
 62
     7
100
AcDbCircle
 10
14.0660806513
 20
8.282685722
 30
0.0
 40
0.0820000000000007
  0
INSERT
  5
320
330
1F
100
AcDbEntity
  8
0
  6
CONTINUOUS
 62
     7
100
AcDbBlockReference
  2
SW_DOWELSYMBOL_2
 10
14.0660806513
 20
4.8378038323
 30
0.0
  0
INSERT
  5
327
330
1F
100
AcDbEntity
  8
0
  6
CONTINUOUS
 62
     7
100
AcDbBlockReference
  2
SW_DOWELSYMBOL_3
 10
14.0660806513
 20
7.7905597378
 30
0.0
  0
LINE
  5
328
330
1F
100
AcDbEntity
  8
0
  6
SLD-SOLID
 62
     7
100
AcDbLine
 10
4.4619247429
 20
9.1881975331
 30
0.0
 11
4.3831845854
 21
9.2669376906
 31
0.0
  0
LINE
  5
329
330
1F
100
AcDbEntity
  8
0
  6
SLD-SOLID
 62
     7
100
AcDbLine
 10
4.4619247429
 20
9.1881975331
 30
0.0
 11
4.4619247429
 21
3.440166037
 31
0.0
  0
LINE
  5
32A
330
1F
100
AcDbEntity
  8
0
  6
SLD-SOLID
 62
     7
100
AcDbLine
 10
4.3831845854
 20
3.3614258795
 30
0.0
 11
4.4619247429
 21
3.440166037
 31
0.0
  0
LINE
  5
32B
330
1F
100
AcDbEntity
  8
0
  6
SLD-SOLID
 62
     7
100
AcDbLine
 10
4.3831845854
 20
3.3614258795
 30
0.0
 11
2.3753105697
 21
3.3614258795
 31
0.0
  0
LINE
  5
32C
330
1F
100
AcDbEntity
  8
0
  6
SLD-SOLID
 62
     7
100
AcDbLine
 10
2.2965704122
 20
3.440166037
 30
0.0
 11
2.2965704122
 21
9.1881975331
 31
0.0
  0
LINE
  5
32D
330
1F
100
AcDbEntity
  8
0
  6
SLD-SOLID
 62
     7
100
AcDbLine
 10
2.3753105697
 20
9.2669376906
 30
0.0
 11
2.2965704122
 21
9.1881975331
 31
0.0
  0
LINE
  5
32E
330
1F
100
AcDbEntity
  8
0
  6
SLD-SOLID
 62
     7
100
AcDbLine
 10
2.3753105697
 20
9.2669376906
 30
0.0
 11
4.3831845854
 21
9.2669376906
 31
0.0
  0
LINE
  5
32F
330
1F
100
AcDbEntity
  8
0
  6
SLD-SOLID
 62
     7
100
AcDbLine
 10
3.0446019083
 20
8.7944967457
 30
0.0
 11
3.7138932469
 21
8.7944967457
 31
0.0
  0
ARC
  5
330
330
1F
100
AcDbEntity
  8
0
  6
SLD-SOLID
 62
     7
100
AcDbCircle
 10
3.0446019083
 20
8.4007959583
 30
0.0
 40
0.3937007874015759
100
AcDbArc
 50
90.0
 51
180.0
  0
LINE
  5
331
330
1F
100
AcDbEntity
  8
0
  6
SLD-SOLID
 62
     7
100
AcDbLine
 10
2.6509011209
 20
4.2275676118
 30
0.0
 11
2.6509011209
 21
8.4007959583
 31
0.0
  0
ARC
  5
332
330
1F
100
AcDbEntity
  8
0
  6
SLD-SOLID
 62
     7
100
AcDbCircle
 10
3.0446019083
 20
4.2275676118
 30
0.0
 40
0.3937007874015763
100
AcDbArc
 50
180.0
 51
270.0
  0
LINE
  5
333
330
1F
100
AcDbEntity
  8
0
  6
SLD-SOLID
 62
     7
100
AcDbLine
 10
3.7138932469
 20
3.8338668244
 30
0.0
 11
3.0446019083
 21
3.8338668244
 31
0.0
  0
ARC
  5
334
330
1F
100
AcDbEntity
  8
0
  6
SLD-SOLID
 62
     7
100
AcDbCircle
 10
3.7138932469
 20
4.2275676118
 30
0.0
 40
0.3937007874015763
100
AcDbArc
 50
270.0
 51
0.0
  0
LINE
  5
335
330
1F
100
AcDbEntity
  8
0
  6
SLD-SOLID
 62
     7
100
AcDbLine
 10
4.1075940343
 20
8.4007959583
 30
0.0
 11
4.1075940343
 21
4.2275676118
 31
0.0
  0
ARC
  5
336
330
1F
100
AcDbEntity
  8
0
  6
SLD-SOLID
 62
     7
100
AcDbCircle
 10
3.7138932469
 20
8.4007959583
 30
0.0
 40
0.3937007874015759
100
AcDbArc
 50
0.0
 51
90.0
  0
LINE
  5
337
330
1F
100
AcDbEntity
  8
0
  6
SLD-SOLID
 62
     7
100
AcDbLine
 10
2.2965704122
 20
3.440166037
 30
0.0
 11
2.3753105697
 21
3.3614258795
 31
0.0
  0
ARC
  5
338
330
1F
100
AcDbEntity
  8
0
  6
SLD-SOLID
 62
     7
100
AcDbCircle
 10
3.0446019083
 20
4.2275676118
 30
0.0
 40
0.2755905511811032
100
AcDbArc
 50
180.0
 51
270.0
  0
LINE
  5
339
330
1F
100
AcDbEntity
  8
0
  6
SLD-SOLID
 62
     7
100
AcDbLine
 10
3.0446019083
 20
3.9519770606
 30
0.0
 11
3.0446019083
 21
3.8338668244
 31
0.0
  0
LINE
  5
33A
330
1F
100
AcDbEntity
  8
0
  6
SLD-SOLID
 62
     7
100
AcDbLine
 10
2.7690113571
 20
4.2275676118
 30
0.0
 11
2.6509011209
 21
4.2275676118
 31
0.0
  0
LINE
  5
33B
330
1F
100
AcDbEntity
  8
0
  6
SLD-SOLID
 62
     7
100
AcDbLine
 10
3.0446019083
 20
8.7944967457
 30
0.0
 11
3.0446019083
 21
8.6763865095
 31
0.0
  0
ARC
  5
33C
330
1F
100
AcDbEntity
  8
0
  6
SLD-SOLID
 62
     7
100
AcDbCircle
 10
3.0446019083
 20
8.4007959583
 30
0.0
 40
0.2755905511811023
100
AcDbArc
 50
90.0
 51
180.0
  0
LINE
  5
33D
330
1F
100
AcDbEntity
  8
0
  6
SLD-SOLID
 62
     7
100
AcDbLine
 10
2.6509011209
 20
8.4007959583
 30
0.0
 11
2.7690113571
 21
8.4007959583
 31
0.0
  0
LINE
  5
33E
330
1F
100
AcDbEntity
  8
0
  6
SLD-SOLID
 62
     7
100
AcDbLine
 10
2.7690113571
 20
8.4007959583
 30
0.0
 11
2.7690113571
 21
4.2275676118
 31
0.0
  0
LINE
  5
33F
330
1F
100
AcDbEntity
  8
0
  6
SLD-SOLID
 62
     7
100
AcDbLine
 10
3.0446019083
 20
3.9519770606
 30
0.0
 11
3.7138932469
 21
3.9519770606
 31
0.0
  0
LINE
  5
340
330
1F
100
AcDbEntity
  8
0
  6
SLD-SOLID
 62
     7
100
AcDbLine
 10
3.7138932469
 20
3.9519770606
 30
0.0
 11
3.7138932469
 21
3.8338668244
 31
0.0
  0
LINE
  5
341
330
1F
100
AcDbEntity
  8
0
  6
SLD-SOLID
 62
     7
100
AcDbLine
 10
3.7138932469
 20
8.7944967457
 30
0.0
 11
3.7138932469
 21
8.6763865095
 31
0.0
  0
LINE
  5
342
330
1F
100
AcDbEntity
  8
0
  6
SLD-SOLID
 62
     7
100
AcDbLine
 10
3.7138932469
 20
8.6763865095
 30
0.0
 11
3.0446019083
 21
8.6763865095
 31
0.0
  0
ARC
  5
343
330
1F
100
AcDbEntity
  8
0
  6
SLD-SOLID
 62
     7
100
AcDbCircle
 10
3.7138932469
 20
4.2275676118
 30
0.0
 40
0.2755905511811032
100
AcDbArc
 50
270.0
 51
0.0
  0
LINE
  5
344
330
1F
100
AcDbEntity
  8
0
  6
SLD-SOLID
 62
     7
100
AcDbLine
 10
3.989483798
 20
4.2275676118
 30
0.0
 11
4.1075940343
 21
4.2275676118
 31
0.0
  0
LINE
  5
345
330
1F
100
AcDbEntity
  8
0
  6
SLD-SOLID
 62
     7
100
AcDbLine
 10
4.1075940343
 20
8.4007959583
 30
0.0
 11
3.989483798
 21
8.4007959583
 31
0.0
  0
ARC
  5
346
330
1F
100
AcDbEntity
  8
0
  6
SLD-SOLID
 62
     7
100
AcDbCircle
 10
3.7138932469
 20
8.4007959583
 30
0.0
 40
0.2755905511811023
100
AcDbArc
 50
0.0
 51
90.0
  0
LINE
  5
347
330
1F
100
AcDbEntity
  8
0
  6
SLD-SOLID
 62
     7
100
AcDbLine
 10
3.989483798
 20
4.2275676118
 30
0.0
 11
3.989483798
 21
8.4007959583
 31
0.0
  0
LINE
  5
348
330
1F
100
AcDbEntity
  8
0
  6
SLD-DASHED
 62
     7
100
AcDbLine
 10
4.7217672626
 20
8.282685722
 30
0.0
 11
2.0367278925
 21
8.282685722
 31
0.0
  0
LINE
  5
349
330
1F
100
AcDbEntity
  8
0
  6
SLD-SOLID
 62
     7
100
AcDbLine
 10
4.7217672626
 20
8.282685722
 30
0.0
 11
4.7217672626
 21
8.782685722
 31
0.0
  0
SOLID
  5
34A
330
1F
100
AcDbEntity
  8
0
  6
SLD-SOLID
 62
     7
100
AcDbTrace
 10
4.7217672626
 20
8.782685722
 30
0.0
 11
4.6817672626
 21
8.532685722
 31
0.0
 12
4.7617672626
 22
8.532685722
 32
0.0
 13
4.7617672626
 23
8.532685722
 33
0.0
  0
LINE
  5
34B
330
1F
100
AcDbEntity
  8
0
  6
SLD-SOLID
 62
     7
100
AcDbLine
 10
2.0367278925
 20
8.282685722
 30
0.0
 11
2.0367278925
 21
8.782685722
 31
0.0
  0
SOLID
  5
34C
330
1F
100
AcDbEntity
  8
0
  6
SLD-SOLID
 62
     7
100
AcDbTrace
 10
2.0367278925
 20
8.782685722
 30
0.0
 11
1.9967278925
 21
8.532685722
 31
0.0
 12
2.0767278925
 22
8.532685722
 32
0.0
 13
2.0767278925
 23
8.532685722
 33
0.0
  0
MTEXT
  5
34D
330
1F
100
AcDbEntity
  8
0
  6
CONTINUOUS
 62
     7
100
AcDbMText
 10
4.6628912898
 20
8.9837256292
 30
0.0
 40
0.125
 41
0.0
 71
     1
 72
     1
  1
A
  7
SLDTEXTSTYLE0
  0
MTEXT
  5
34E
330
1F
100
AcDbEntity
  8
0
  6
CONTINUOUS
 62
     7
100
AcDbMText
 10
1.9778519197
 20
8.9837256292
 30
0.0
 40
0.125
 41
0.0
 71
     1
 72
     1
  1
A
  7
SLDTEXTSTYLE0
  0
LINE
  5
34F
330
1F
100
AcDbEntity
  8
0
  6
SLD-SOLID
 62
     7
100
AcDbLine
 10
2.3185874058
 20
10.3905007662
 30
0.0
 11
2.2965704122
 21
10.3684837726
 31
0.0
  0
LINE
  5
350
330
1F
100
AcDbEntity
  8
0
  6
SLD-SOLID
 62
     7
100
AcDbLine
 10
2.5761930822
 20
10.1177763568
 30
0.0
 11
2.3489174917
 21
9.8905007662
 31
0.0
  0
LINE
  5
351
330
1F
100
AcDbEntity
  8
0
  6
SLD-SOLID
 62
     7
100
AcDbLine
 10
2.7499093063
 20
10.2914925808
 30
0.0
 11
2.7121930822
 21
10.2537763568
 31
0.0
  0
LINE
  5
352
330
1F
100
AcDbEntity
  8
0
  6
SLD-SOLID
 62
     7
100
AcDbLine
 10
2.4953641008
 20
10.3905007662
 30
0.0
 11
2.3586396913
 21
10.2537763568
 31
0.0
  0
LINE
  5
353
330
1F
100
AcDbEntity
  8
0
  6
SLD-SOLID
 62
     7
100
AcDbLine
 10
2.7690113571
 20
10.1338179366
 30
0.0
 11
2.5256941867
 21
9.8905007662
 31
0.0
  0
LINE
  5
354
330
1F
100
AcDbEntity
  8
0
  6
SLD-SOLID
 62
     7
100
AcDbLine
 10
4.1671833399
 20
10.1177763568
 30
0.0
 11
4.0237508918
 21
9.9743439087
 31
0.0
  0
LINE
  5
355
330
1F
100
AcDbEntity
  8
0
  6
SLD-SOLID
 62
     7
100
AcDbLine
 10
4.4399077493
 20
10.3905007662
 30
0.0
 11
4.3031833399
 21
10.2537763568
 31
0.0
  0
LINE
  5
356
330
1F
100
AcDbEntity
  8
0
  6
SLD-SOLID
 62
     7
100
AcDbLine
 10
4.3439600349
 20
10.1177763568
 30
0.0
 11
4.1166844443
 21
9.8905007662
 31
0.0
  0
LINE
  5
357
330
1F
100
AcDbEntity
  8
0
  6
SLD-SOLID
 62
     7
100
AcDbLine
 10
2.2965704122
 20
10.2537763568
 30
0.0
 11
2.7182239555
 21
10.2537763568
 31
0.0
  0
LINE
  5
358
330
1F
100
AcDbEntity
  8
0
  6
SLD-SOLID
 62
     7
100
AcDbLine
 10
2.2965704122
 20
10.3905007662
 30
0.0
 11
2.2965704122
 21
10.2537763568
 31
0.0
  0
LINE
  5
359
330
1F
100
AcDbEntity
  8
0
  6
SLD-SOLID
 62
     7
100
AcDbLine
 10
2.2965704122
 20
10.3905007662
 30
0.0
 11
2.6509011209
 21
10.3905007662
 31
0.0
  0
LINE
  5
35A
330
1F
100
AcDbEntity
  8
0
  6
SLD-SOLID
 62
     7
100
AcDbLine
 10
2.6509011209
 20
10.3905007662
 30
0.0
 11
2.7690113571
 21
10.27239053
 31
0.0
  0
LINE
  5
35B
330
1F
100
AcDbEntity
  8
0
  6
SLD-SOLID
 62
     7
100
AcDbLine
 10
2.7690113571
 20
10.27239053
 30
0.0
 11
2.7690113571
 21
10.0086110024
 31
0.0
  0
LINE
  5
35C
330
1F
100
AcDbEntity
  8
0
  6
SLD-SOLID
 62
     7
100
AcDbLine
 10
2.7690113571
 20
10.0086110024
 30
0.0
 11
2.6509011209
 21
9.8905007662
 31
0.0
  0
LINE
  5
35D
330
1F
100
AcDbEntity
  8
0
  6
SLD-SOLID
 62
     7
100
AcDbLine
 10
2.2965704122
 20
9.8905007662
 30
0.0
 11
2.6509011209
 21
9.8905007662
 31
0.0
  0
LINE
  5
35E
330
1F
100
AcDbEntity
  8
0
  6
SLD-SOLID
 62
     7
100
AcDbLine
 10
2.2965704122
 20
10.1177763568
 30
0.0
 11
2.2965704122
 21
9.8905007662
 31
0.0
  0
LINE
  5
35F
330
1F
100
AcDbEntity
  8
0
  6
SLD-SOLID
 62
     7
100
AcDbLine
 10
2.7182239555
 20
10.1177763568
 30
0.0
 11
2.2965704122
 21
10.1177763568
 31
0.0
  0
LINE
  5
360
330
1F
100
AcDbEntity
  8
0
  6
SLD-SOLID
 62
     7
100
AcDbLine
 10
2.7590824776
 20
10.1857763568
 30
0.0
 11
2.7182239555
 21
10.1177763568
 31
0.0
  0
LINE
  5
361
330
1F
100
AcDbEntity
  8
0
  6
SLD-SOLID
 62
     7
100
AcDbLine
 10
2.7182239555
 20
10.2537763568
 30
0.0
 11
2.7590824776
 21
10.1857763568
 31
0.0
  0
LINE
  5
362
330
1F
100
AcDbEntity
  8
0
  6
SLD-SOLID
 62
     7
100
AcDbLine
 10
4.1075940343
 20
9.8905007662
 30
0.0
 11
4.4619247429
 21
9.8905007662
 31
0.0
  0
LINE
  5
363
330
1F
100
AcDbEntity
  8
0
  6
SLD-SOLID
 62
     7
100
AcDbLine
 10
4.1075940343
 20
9.8905007662
 30
0.0
 11
3.989483798
 21
10.0086110024
 31
0.0
  0
LINE
  5
364
330
1F
100
AcDbEntity
  8
0
  6
SLD-SOLID
 62
     7
100
AcDbLine
 10
3.989483798
 20
10.0086110024
 30
0.0
 11
3.989483798
 21
10.27239053
 31
0.0
  0
LINE
  5
365
330
1F
100
AcDbEntity
  8
0
  6
SLD-SOLID
 62
     7
100
AcDbLine
 10
3.989483798
 20
10.27239053
 30
0.0
 11
4.1075940343
 21
10.3905007662
 31
0.0
  0
LINE
  5
366
330
1F
100
AcDbEntity
  8
0
  6
SLD-SOLID
 62
     7
100
AcDbLine
 10
4.1075940343
 20
10.3905007662
 30
0.0
 11
4.4619247429
 21
10.3905007662
 31
0.0
  0
LINE
  5
367
330
1F
100
AcDbEntity
  8
0
  6
SLD-SOLID
 62
     7
100
AcDbLine
 10
4.0402711996
 20
10.2537763568
 30
0.0
 11
4.4619247429
 21
10.2537763568
 31
0.0
  0
LINE
  5
368
330
1F
100
AcDbEntity
  8
0
  6
SLD-SOLID
 62
     7
100
AcDbLine
 10
3.9994126775
 20
10.1857763568
 30
0.0
 11
4.0402711996
 21
10.2537763568
 31
0.0
  0
LINE
  5
369
330
1F
100
AcDbEntity
  8
0
  6
SLD-SOLID
 62
     7
100
AcDbLine
 10
4.0402711996
 20
10.1177763568
 30
0.0
 11
3.9994126775
 21
10.1857763568
 31
0.0
  0
LINE
  5
36A
330
1F
100
AcDbEntity
  8
0
  6
SLD-SOLID
 62
     7
100
AcDbLine
 10
4.4619247429
 20
10.1177763568
 30
0.0
 11
4.0402711996
 21
10.1177763568
 31
0.0
  0
LINE
  5
36B
330
1F
100
AcDbEntity
  8
0
  6
SLD-SOLID
 62
     7
100
AcDbLine
 10
4.4619247429
 20
10.2537763568
 30
0.0
 11
4.4619247429
 21
10.3905007662
 31
0.0
  0
LINE
  5
36C
330
1F
100
AcDbEntity
  8
0
  6
SLD-SOLID
 62
     7
100
AcDbLine
 10
4.4619247429
 20
9.8905007662
 30
0.0
 11
4.4619247429
 21
10.1177763568
 31
0.0
  0
LINE
  5
36D
330
1F
100
AcDbEntity
  8
0
  6
SLD-SOLID
 62
     7
100
AcDbLine
 10
2.7182239555
 20
10.2537763568
 30
0.0
 11
2.7182239555
 21
10.1177763568
 31
0.0
  0
LINE
  5
36E
330
1F
100
AcDbEntity
  8
0
  6
SLD-SOLID
 62
     7
100
AcDbLine
 10
2.2965704122
 20
10.2537763568
 30
0.0
 11
2.2965704122
 21
10.1177763568
 31
0.0
  0
LINE
  5
36F
330
1F
100
AcDbEntity
  8
0
  6
SLD-SOLID
 62
     7
100
AcDbLine
 10
4.0402711996
 20
10.1177763568
 30
0.0
 11
4.0402711996
 21
10.2537763568
 31
0.0
  0
LINE
  5
370
330
1F
100
AcDbEntity
  8
0
  6
SLD-SOLID
 62
     7
100
AcDbLine
 10
4.4619247429
 20
10.1177763568
 30
0.0
 11
4.4619247429
 21
10.2537763568
 31
0.0
  0
LINE
  5
371
330
1F
100
AcDbEntity
  8
0
  6
SLD-SOLID
 62
     7
100
AcDbLine
 10
2.7690113571
 20
10.0086110024
 30
0.0
 11
3.0446019083
 21
10.0086110024
 31
0.0
  0
LINE
  5
372
330
1F
100
AcDbEntity
  8
0
  6
SLD-SOLID
 62
     7
100
AcDbLine
 10
3.0446019083
 20
10.0086110024
 30
0.0
 11
3.0446019083
 21
9.8905007662
 31
0.0
  0
LINE
  5
373
330
1F
100
AcDbEntity
  8
0
  6
SLD-SOLID
 62
     7
100
AcDbLine
 10
3.0446019083
 20
9.8905007662
 30
0.0
 11
2.6509011209
 21
9.8905007662
 31
0.0
  0
LINE
  5
374
330
1F
100
AcDbEntity
  8
0
  6
SLD-SOLID
 62
     7
100
AcDbLine
 10
3.0446019083
 20
10.27239053
 30
0.0
 11
2.7690113571
 21
10.27239053
 31
0.0
  0
LINE
  5
375
330
1F
100
AcDbEntity
  8
0
  6
SLD-SOLID
 62
     7
100
AcDbLine
 10
3.0446019083
 20
10.27239053
 30
0.0
 11
3.0446019083
 21
10.0086110024
 31
0.0
  0
LINE
  5
376
330
1F
100
AcDbEntity
  8
0
  6
SLD-SOLID
 62
     7
100
AcDbLine
 10
3.7138932469
 20
10.0086110024
 30
0.0
 11
3.989483798
 21
10.0086110024
 31
0.0
  0
LINE
  5
377
330
1F
100
AcDbEntity
  8
0
  6
SLD-SOLID
 62
     7
100
AcDbLine
 10
3.7138932469
 20
10.0086110024
 30
0.0
 11
3.7138932469
 21
9.8905007662
 31
0.0
  0
LINE
  5
378
330
1F
100
AcDbEntity
  8
0
  6
SLD-SOLID
 62
     7
100
AcDbLine
 10
4.1075940343
 20
9.8905007662
 30
0.0
 11
3.7138932469
 21
9.8905007662
 31
0.0
  0
LINE
  5
379
330
1F
100
AcDbEntity
  8
0
  6
SLD-SOLID
 62
     7
100
AcDbLine
 10
3.7138932469
 20
10.0086110024
 30
0.0
 11
3.7138932469
 21
10.27239053
 31
0.0
  0
LINE
  5
37A
330
1F
100
AcDbEntity
  8
0
  6
SLD-SOLID
 62
     7
100
AcDbLine
 10
3.989483798
 20
10.27239053
 30
0.0
 11
3.7138932469
 21
10.27239053
 31
0.0
  0
LINE
  5
37B
330
1F
100
AcDbEntity
  8
0
  6
SLD-SOLID
 62
     7
100
AcDbLine
 10
3.0446019083
 20
10.3905007662
 30
0.0
 11
3.0446019083
 21
10.27239053
 31
0.0
  0
LINE
  5
37C
330
1F
100
AcDbEntity
  8
0
  6
SLD-SOLID
 62
     7
100
AcDbLine
 10
2.6509011209
 20
10.3905007662
 30
0.0
 11
3.0446019083
 21
10.3905007662
 31
0.0
  0
LINE
  5
37D
330
1F
100
AcDbEntity
  8
0
  6
SLD-SOLID
 62
     7
100
AcDbLine
 10
3.7138932469
 20
10.3905007662
 30
0.0
 11
3.7138932469
 21
10.27239053
 31
0.0
  0
LINE
  5
37E
330
1F
100
AcDbEntity
  8
0
  6
SLD-SOLID
 62
     7
100
AcDbLine
 10
3.7138932469
 20
10.3905007662
 30
0.0
 11
4.1075940343
 21
10.3905007662
 31
0.0
  0
LINE
  5
37F
330
1F
100
AcDbEntity
  8
0
  6
SLD-SOLID
 62
     7
100
AcDbLine
 10
3.0446019083
 20
10.0086110024
 30
0.0
 11
3.7138932469
 21
10.0086110024
 31
0.0
  0
LINE
  5
380
330
1F
100
AcDbEntity
  8
0
  6
SLD-SOLID
 62
     7
100
AcDbLine
 10
3.7138932469
 20
9.8905007662
 30
0.0
 11
3.0446019083
 21
9.8905007662
 31
0.0
  0
LINE
  5
381
330
1F
100
AcDbEntity
  8
0
  6
SLD-SOLID
 62
     7
100
AcDbLine
 10
3.7138932469
 20
10.27239053
 30
0.0
 11
3.0446019083
 21
10.27239053
 31
0.0
  0
LINE
  5
382
330
1F
100
AcDbEntity
  8
0
  6
SLD-SOLID
 62
     7
100
AcDbLine
 10
3.0446019083
 20
10.3905007662
 30
0.0
 11
3.7138932469
 21
10.3905007662
 31
0.0
  0
DIMENSION
  5
383
330
1F
100
AcDbEntity
  8
0
  6
SLD-SOLID
 62
     7
100
AcDbDimension
  2
_D_22
 10
4.4619247429
 20
9.8905007662
 30
0.0
 11
3.2140543066
 21
10.1043287718
 31
0.0
 70
   162
  1
<>
  3
SLDDIMSTYLE11
100
AcDb2LineAngularDimension
 13
2.7690113571
 23
10.0086110024
 33
0.0
 14
2.6509011209
 24
9.8905007662
 34
0.0
 15
2.2965704122
 25
9.8905007662
 35
0.0
 16
3.2408215347
 26
9.7686080594
 36
0.0
  0
DIMENSION
  5
38E
330
1F
100
AcDbEntity
  8
0
  6
SLD-SOLID
 62
     7
100
AcDbDimension
  2
_D_23
 10
2.6509011209
 20
9.6568076406
 30
0.0
 11
2.1541358381
 21
9.6568076406
 31
0.0
 70
   160
  1
<>
  3
SLDDIMSTYLE12
100
AcDbAlignedDimension
 13
2.7690113571
 23
10.0086110024
 33
0.0
 14
2.6509011209
 24
9.8905007662
 34
0.0
100
AcDbRotatedDimension
  0
MTEXT
  5
39A
330
1F
100
AcDbEntity
  8
0
  6
CONTINUOUS
 62
     7
100
AcDbMText
 10
3.4055532841
 20
10.7674400466
 30
0.0
 40
0.125
 41
0.0
 71
     2
 72
     1
  1
SECTION A-A
  7
SLDTEXTSTYLE0
  0
LINE
  5
39B
330
1F
100
AcDbEntity
  8
0
  6
SLD-DASHED
 62
     7
100
AcDbLine
 10
2.2965704122
 20
10.2677763568
 30
0.0
 11
2.6245231681
 21
10.2677763568
 31
0.0
  0
LINE
  5
39C
330
1F
100
AcDbEntity
  8
0
  6
SLD-DASHED
 62
     7
100
AcDbLine
 10
2.2965704122
 20
10.1037763568
 30
0.0
 11
2.6245231681
 21
10.1037763568
 31
0.0
  0
LINE
  5
39D
330
1F
100
AcDbEntity
  8
0
  6
SLD-DASHED
 62
     7
100
AcDbLine
 10
2.6245231681
 20
10.1037763568
 30
0.0
 11
2.6487718794
 21
10.1177763568
 31
0.0
  0
LINE
  5
39E
330
1F
100
AcDbEntity
  8
0
  6
SLD-DASHED
 62
     7
100
AcDbLine
 10
2.6245231681
 20
10.2677763568
 30
0.0
 11
2.6487718794
 21
10.2537763568
 31
0.0
  0
LINE
  5
39F
330
1F
100
AcDbEntity
  8
0
  6
SLD-DASHED
 62
     7
100
AcDbLine
 10
2.6245231681
 20
10.1037763568
 30
0.0
 11
2.6245231681
 21
10.2677763568
 31
0.0
  0
LINE
  5
3A0
330
1F
100
AcDbEntity
  8
0
  6
SLD-DASHED
 62
     7
100
AcDbLine
 10
4.4619247429
 20
10.1037763568
 30
0.0
 11
4.133971987
 21
10.1037763568
 31
0.0
  0
LINE
  5
3A1
330
1F
100
AcDbEntity
  8
0
  6
SLD-DASHED
 62
     7
100
AcDbLine
 10
4.4619247429
 20
10.2677763568
 30
0.0
 11
4.133971987
 21
10.2677763568
 31
0.0
  0
LINE
  5
3A2
330
1F
100
AcDbEntity
  8
0
  6
SLD-DASHED
 62
     7
100
AcDbLine
 10
4.133971987
 20
10.2677763568
 30
0.0
 11
4.1097232757
 21
10.2537763568
 31
0.0
  0
LINE
  5
3A3
330
1F
100
AcDbEntity
  8
0
  6
SLD-DASHED
 62
     7
100
AcDbLine
 10
4.133971987
 20
10.1037763568
 30
0.0
 11
4.1097232757
 21
10.1177763568
 31
0.0
  0
LINE
  5
3A4
330
1F
100
AcDbEntity
  8
0
  6
SLD-DASHED
 62
     7
100
AcDbLine
 10
4.133971987
 20
10.2677763568
 30
0.0
 11
4.133971987
 21
10.1037763568
 31
0.0
  0
MTEXT
  5
3A6
330
1F
100
AcDbEntity
  8
0
  6
CONTINUOUS
 62
     7
100
AcDbMText
 10
0.0
 20
0.5641932659
 30
0.0
 40
0.2022874016
 41
0.0
 71
     1
 72
     1
  1
SOLIDWORKS Educational Product.
  7
SLDTEXTSTYLE6
  0
MTEXT
  5
3A7
330
1F
100
AcDbEntity
  8
0
  6
CONTINUOUS
 62
     7
100
AcDbMText
 10
0.0
 20
0.2607621635
 30
0.0
 40
0.2022874016
 41
0.0
 71
     1
 72
     1
  1
For Instructional Use Only.
  7
SLDTEXTSTYLE6
  0
ENDSEC
  0
SECTION
  2
OBJECTS
  0
DICTIONARY
  5
C
330
0
100
AcDbDictionary
  3
ACAD_GROUP
350
D
  3
ACAD_MLINESTYLE
350
17
  3
ACAD_SCALELIST
350
47
  3
DWGPROPS
350
3A8
1001
ACAD
1000
TREAT_AS_HARD
1070
     0
  0
DICTIONARY
  5
D
102
{ACAD_REACTORS
330
C
102
}
330
C
100
AcDbDictionary
1001
ACAD
1000
TREAT_AS_HARD
1070
     0
  0
DICTIONARY
  5
17
102
{ACAD_REACTORS
330
C
102
}
330
C
100
AcDbDictionary
  3
STANDARD
350
18
1001
ACAD
1000
TREAT_AS_HARD
1070
     0
  0
DICTIONARY
  5
47
102
{ACAD_REACTORS
330
C
102
}
330
C
100
AcDbDictionary
1001
ACAD
1000
TREAT_AS_HARD
1070
     0
  0
XRECORD
  5
3A8
102
{ACAD_REACTORS
330
C
102
}
330
C
100
AcDbXrecord
  1
DWGPROPS COOKIE
  2

  3

  4

  6

  7

  8
andre
  9

300
=
301
=
302
=
303
=
304
=
305
=
306
=
307
=
308
=
309
=
 40
0.0
 41
2459123.011643993
 42
2459123.011652315
  1

 90
        0
  0
MLINESTYLE
  5
18
102
{ACAD_REACTORS
330
17
102
}
330
17
100
AcDbMlineStyle
  2
Standard
 70
     0
  3

 62
   256
 51
90.0
 52
90.0
 71
     2
 49
0.5
 62
   256
  6
BYLAYER
 49
-0.5
 62
   256
  6
BYLAYER
  0
ENDSEC
  0
EOF
