  0
SECTION
  2
HEADER
  9
$ACADVER
  1
AC1012
  9
$DWGCODEPAGE
  3
ansi_1252
  9
$INSBASE
 10
0.0
 20
0.0
 30
0.0
  9
$EXTMIN
 10
0.0
 20
0.0
 30
0.0
  9
$EXTMAX
 10
16.5354330709
 20
11.6929133858
 30
0.0
  9
$LIMMIN
 10
0.0
 20
0.0
  9
$LIMMAX
 10
16.5354330709
 20
11.6929133858
  9
$ORTHOMODE
 70
     0
  9
$REGENMODE
 70
     1
  9
$FILLMODE
 70
     1
  9
$QTEXTMODE
 70
     0
  9
$MIRRTEXT
 70
     1
  9
$DRAGMODE
 70
     2
  9
$LTSCALE
 40
1.0
  9
$OSMODE
 70
    37
  9
$ATTMODE
 70
     1
  9
$TEXTSIZE
 40
0.125
  9
$TRACEWID
 40
0.05
  9
$TEXTSTYLE
  7
STANDARD
  9
$CLAYER
  8
0
  9
$CELTYPE
  6
BYLAYER
  9
$CECOLOR
 62
   256
  9
$CELTSCALE
 40
1.0
  9
$DELOBJ
 70
     1
  9
$DISPSILH
 70
     0
  9
$DIMSCALE
 40
1.0
  9
$DIMASZ
 40
0.13
  9
$DIMEXO
 40
0.05
  9
$DIMDLI
 40
0.38
  9
$DIMRND
 40
0.0
  9
$DIMDLE
 40
0.0
  9
$DIMEXE
 40
0.125
  9
$DIMTP
 40
0.0
  9
$DIMTM
 40
0.0
  9
$DIMTXT
 40
0.125
  9
$DIMCEN
 40
0.09
  9
$DIMTSZ
 40
0.0
  9
$DIMTOL
 70
     0
  9
$DIMLIM
 70
     0
  9
$DIMTIH
 70
     1
  9
$DIMTOH
 70
     1
  9
$DIMSE1
 70
     0
  9
$DIMSE2
 70
     0
  9
$DIMTAD
 70
     0
  9
$DIMZIN
 70
     1
  9
$DIMBLK
  1

  9
$DIMASO
 70
     1
  9
$DIMSHO
 70
     1
  9
$DIMPOST
  1

  9
$DIMAPOST
  1

  9
$DIMALT
 70
     0
  9
$DIMALTD
 70
     2
  9
$DIMALTF
 40
25.4
  9
$DIMLFAC
 40
0.5
  9
$DIMTOFL
 70
     0
  9
$DIMTVP
 40
0.0
  9
$DIMTIX
 70
     0
  9
$DIMSOXD
 70
     0
  9
$DIMSAH
 70
     0
  9
$DIMBLK1
  1

  9
$DIMBLK2
  1

  9
$DIMSTYLE
  2
STANDARD
  9
$DIMCLRD
 70
     0
  9
$DIMCLRE
 70
     0
  9
$DIMCLRT
 70
     0
  9
$DIMTFAC
 40
1.0
  9
$DIMGAP
 40
0.06
  9
$DIMJUST
 70
     0
  9
$DIMSD1
 70
     0
  9
$DIMSD2
 70
     0
  9
$DIMTOLJ
 70
     1
  9
$DIMTZIN
 70
     1
  9
$DIMALTZ
 70
     0
  9
$DIMALTTZ
 70
     0
  9
$DIMFIT
 70
     3
  9
$DIMUPT
 70
     0
  9
$DIMUNIT
 70
     2
  9
$DIMDEC
 70
     3
  9
$DIMTDEC
 70
     3
  9
$DIMALTU
 70
     2
  9
$DIMALTTD
 70
     2
  9
$DIMTXSTY
  7
STANDARD
  9
$DIMAUNIT
 70
     0
  9
$LUNITS
 70
     2
  9
$LUPREC
 70
     3
  9
$SKETCHINC
 40
0.1
  9
$FILLETRAD
 40
0.5
  9
$AUNITS
 70
     0
  9
$AUPREC
 70
     2
  9
$MENU
  1
.
  9
$ELEVATION
 40
0.0
  9
$PELEVATION
 40
0.0
  9
$THICKNESS
 40
0.0
  9
$LIMCHECK
 70
     0
  9
$CHAMFERA
 40
0.0
  9
$CHAMFERB
 40
0.0
  9
$CHAMFERC
 40
0.0
  9
$CHAMFERD
 40
0.0
  9
$SKPOLY
 70
     0
  9
$TDCREATE
 40
2459122.844598542
  9
$TDUPDATE
 40
2459122.844602488
  9
$TDINDWG
 40
0.0000000116
  9
$TDUSRTIMER
 40
0.0000000116
  9
$USRTIMER
 70
     1
  9
$ANGBASE
 50
0.0
  9
$ANGDIR
 70
     0
  9
$PDMODE
 70
     0
  9
$PDSIZE
 40
-1.0
  9
$PLINEWID
 40
0.0
  9
$COORDS
 70
     1
  9
$SPLFRAME
 70
     0
  9
$SPLINETYPE
 70
     6
  9
$SPLINESEGS
 70
     8
  9
$ATTDIA
 70
     0
  9
$ATTREQ
 70
     1
  9
$HANDLING
 70
     1
  9
$HANDSEED
  5
40F
  9
$SURFTAB1
 70
     6
  9
$SURFTAB2
 70
     6
  9
$SURFTYPE
 70
     6
  9
$SURFU
 70
     6
  9
$SURFV
 70
     6
  9
$UCSNAME
  2

  9
$UCSORG
 10
0.0
 20
0.0
 30
0.0
  9
$UCSXDIR
 10
1.0
 20
0.0
 30
0.0
  9
$UCSYDIR
 10
0.0
 20
1.0
 30
0.0
  9
$PUCSNAME
  2

  9
$PUCSORG
 10
0.0
 20
0.0
 30
0.0
  9
$PUCSXDIR
 10
1.0
 20
0.0
 30
0.0
  9
$PUCSYDIR
 10
0.0
 20
1.0
 30
0.0
  9
$USERI1
 70
     0
  9
$USERI2
 70
     0
  9
$USERI3
 70
     0
  9
$USERI4
 70
     0
  9
$USERI5
 70
     0
  9
$USERR1
 40
0.0
  9
$USERR2
 40
0.0
  9
$USERR3
 40
0.0
  9
$USERR4
 40
0.0
  9
$USERR5
 40
0.0
  9
$WORLDVIEW
 70
     1
  9
$SHADEDGE
 70
     3
  9
$SHADEDIF
 70
    70
  9
$TILEMODE
 70
     1
  9
$MAXACTVP
 70
    64
  9
$PINSBASE
 10
0.0
 20
0.0
 30
0.0
  9
$PLIMCHECK
 70
     0
  9
$PEXTMIN
 10
1.0000000000E+20
 20
1.0000000000E+20
 30
1.0000000000E+20
  9
$PEXTMAX
 10
-1.0000000000E+20
 20
-1.0000000000E+20
 30
-1.0000000000E+20
  9
$PLIMMIN
 10
0.0
 20
0.0
  9
$PLIMMAX
 10
12.0
 20
9.0
  9
$UNITMODE
 70
     0
  9
$VISRETAIN
 70
     1
  9
$PLINEGEN
 70
     0
  9
$PSLTSCALE
 70
     1
  9
$TREEDEPTH
 70
  3020
  9
$PICKSTYLE
 70
     1
  9
$CMLSTYLE
  2
STANDARD
  9
$CMLJUST
 70
     0
  9
$CMLSCALE
 40
1.0
  9
$SAVEIMAGES
 70
     1
  0
ENDSEC
  0
SECTION
  2
CLASSES
  0
CLASS
  1
ACDBDICTIONARYWDFLT
  2
AcDbDictionaryWithDefault
  3
ObjectDBX Classes
 90
    32768
280
     0
281
     0
  0
CLASS
  1
VISUALSTYLE
  2
AcDbVisualStyle
  3
ObjectDBX Classes
 90
     4095
280
     0
281
     0
  0
CLASS
  1
MATERIAL
  2
AcDbMaterial
  3
ObjectDBX Classes
 90
     1153
280
     0
281
     0
  0
CLASS
  1
SCALE
  2
AcDbScale
  3
ObjectDBX Classes
 90
     1153
280
     0
281
     0
  0
CLASS
  1
TABLESTYLE
  2
AcDbTableStyle
  3
ObjectDBX Classes
 90
     4095
280
     0
281
     0
  0
CLASS
  1
MLEADERSTYLE
  2
AcDbMLeaderStyle
  3
ACDB_MLEADERSTYLE_CLASS
 90
     4095
280
     0
281
     0
  0
CLASS
  1
SUN
  2
AcDbSun
  3
SCENEOE
 90
     1153
280
     0
281
     0
  0
CLASS
  1
XRECORD
  2
AcDbXrecord
  3
ObjectDBX Classes
 90
    32768
280
     0
281
     0
  0
ENDSEC
  0
SECTION
  2
TABLES
  0
TABLE
  2
VPORT
  5
8
330
0
100
AcDbSymbolTable
 70
     1
  0
VPORT
  5
29
330
8
100
AcDbSymbolTableRecord
100
AcDbViewportTableRecord
  2
*ACTIVE
 70
     0
 10
0.0
 20
0.0
 11
1.0
 21
1.0
 12
8.2677165354
 22
5.8464566929
 13
0.0
 23
0.0
 14
0.5
 24
0.5
 15
0.5
 25
0.5
 16
0.0
 26
0.0
 36
1.0
 17
0.0
 27
0.0
 37
0.0
 40
11.6929133858
 41
1.4141414141
 42
50.0
 43
0.0
 44
0.0
 50
0.0
 51
0.0
 71
     0
 72
  2000
 73
     1
 74
     3
 75
     0
 76
     0
 77
     0
 78
     0
  0
ENDTAB
  0
TABLE
  2
LTYPE
  5
5
330
0
100
AcDbSymbolTable
 70
     8
  0
LTYPE
  5
14
330
5
100
AcDbSymbolTableRecord
100
AcDbLinetypeTableRecord
  2
BYBLOCK
 70
     0
  3

 72
    65
 73
     0
 40
0.0
  0
LTYPE
  5
15
330
5
100
AcDbSymbolTableRecord
100
AcDbLinetypeTableRecord
  2
BYLAYER
 70
     0
  3

 72
    65
 73
     0
 40
0.0
  0
LTYPE
  5
16
330
5
100
AcDbSymbolTableRecord
100
AcDbLinetypeTableRecord
  2
CONTINUOUS
 70
     0
  3
Solid line
 72
    65
 73
     0
 40
0.0
  0
LTYPE
  5
6E
330
5
100
AcDbSymbolTableRecord
100
AcDbLinetypeTableRecord
  2
SLD-SOLID
 70
     0
  3
SolidWorks Line Style
 72
    65
 73
     0
 40
0.0
  0
LTYPE
  5
6F
330
5
100
AcDbSymbolTableRecord
100
AcDbLinetypeTableRecord
  2
SLD-DASHED
 70
     0
  3
SolidWorks Line Style
 72
    65
 73
     2
 40
0.075
 49
0.05
 74
     0
 49
-0.025
 74
     0
  0
LTYPE
  5
70
330
5
100
AcDbSymbolTableRecord
100
AcDbLinetypeTableRecord
  2
SLD-PHANTOM
 70
     0
  3
SolidWorks Line Style
 72
    65
 73
     6
 40
0.5
 49
0.25
 74
     0
 49
-0.05
 74
     0
 49
0.05
 74
     0
 49
-0.05
 74
     0
 49
0.05
 74
     0
 49
-0.05
 74
     0
  0
LTYPE
  5
71
330
5
100
AcDbSymbolTableRecord
100
AcDbLinetypeTableRecord
  2
SLD-CHAIN
 70
     0
  3
SolidWorks Line Style
 72
    65
 73
     4
 40
0.4
 49
0.25
 74
     0
 49
-0.05
 74
     0
 49
0.05
 74
     0
 49
-0.05
 74
     0
  0
LTYPE
  5
72
330
5
100
AcDbSymbolTableRecord
100
AcDbLinetypeTableRecord
  2
SLD-CENTER
 70
     0
  3
SolidWorks Line Style
 72
    65
 73
     4
 40
0.75
 49
0.6
 74
     0
 49
-0.05
 74
     0
 49
0.05
 74
     0
 49
-0.05
 74
     0
  0
LTYPE
  5
73
330
5
100
AcDbSymbolTableRecord
100
AcDbLinetypeTableRecord
  2
SLD-STITCH
 70
     0
  3
SolidWorks Line Style
 72
    65
 73
     2
 40
0.025
 49
0.0
 74
     0
 49
-0.025
 74
     0
  0
LTYPE
  5
74
330
5
100
AcDbSymbolTableRecord
100
AcDbLinetypeTableRecord
  2
SLD-THIN-THICK-CHAIN
 70
     0
  3
SolidWorks Line Style
 72
    65
 73
     4
 40
0.4
 49
0.25
 74
     0
 49
-0.05
 74
     0
 49
0.05
 74
     0
 49
-0.05
 74
     0
  0
ENDTAB
  0
TABLE
  2
LAYER
  5
2
330
0
100
AcDbSymbolTable
 70
     2
  0
LAYER
  5
10
330
2
100
AcDbSymbolTableRecord
100
AcDbLayerTableRecord
  2
0
 70
     0
 62
     7
  6
CONTINUOUS
  0
LAYER
  5
75
330
2
100
AcDbSymbolTableRecord
100
AcDbLayerTableRecord
  2
FORMAT
 70
     0
 62
     7
  6
SLD-SOLID
  0
ENDTAB
  0
TABLE
  2
STYLE
  5
3
330
0
100
AcDbSymbolTable
 70
     6
  0
STYLE
  5
11
330
3
100
AcDbSymbolTableRecord
100
AcDbTextStyleTableRecord
  2
STANDARD
 70
     0
 40
0.0
 41
1.0
 50
0.0
 71
     0
 42
0.125
  3
txt
  4

  0
STYLE
  5
C2
330
3
100
AcDbSymbolTableRecord
100
AcDbTextStyleTableRecord
  2
SLDTEXTSTYLE0
 70
     0
 40
0.0
 41
0.75
 50
0.0
 71
     0
 42
0.125
  3
TXT
  4

  0
STYLE
  5
EE
330
3
100
AcDbSymbolTableRecord
100
AcDbTextStyleTableRecord
  2
SLDTEXTSTYLE1
 70
     0
 40
0.0
 41
0.6864493306
 50
0.0
 71
     0
 42
0.125
  3
TXT
  4

  0
STYLE
  5
10F
330
3
100
AcDbSymbolTableRecord
100
AcDbTextStyleTableRecord
  2
SLDTEXTSTYLE2
 70
     0
 40
0.0
 41
0.6875
 50
0.0
 71
     0
 42
0.125
  3
TXT
  4

  0
STYLE
  5
195
330
3
100
AcDbSymbolTableRecord
100
AcDbTextStyleTableRecord
  2
SLDTEXTSTYLE3
 70
     0
 40
0.0
 41
1.0
 50
0.0
 71
     0
 42
0.125
  3
TXT
  4

  0
STYLE
  5
2C8
330
3
100
AcDbSymbolTableRecord
100
AcDbTextStyleTableRecord
  2
SLDTEXTSTYLE4
 70
     0
 40
0.0
 41
0.7
 50
0.0
 71
     0
 42
0.125
  3
TXT
  4

  0
ENDTAB
  0
TABLE
  2
VIEW
  5
6
330
0
100
AcDbSymbolTable
 70
     0
  0
ENDTAB
  0
TABLE
  2
UCS
  5
7
330
0
100
AcDbSymbolTable
 70
     0
  0
ENDTAB
  0
TABLE
  2
APPID
  5
9
330
0
100
AcDbSymbolTable
 70
     1
  0
APPID
  5
12
330
9
100
AcDbSymbolTableRecord
100
AcDbRegAppTableRecord
  2
ACAD
 70
     0
  0
ENDTAB
  0
TABLE
  2
DIMSTYLE
  5
A
330
0
100
AcDbSymbolTable
 70
    16
  0
DIMSTYLE
105
27
330
A
100
AcDbSymbolTableRecord
100
AcDbDimStyleTableRecord
  2
STANDARD
 70
     0
  3

  4

  5

  6

  7

 40
1.0
 41
0.18
 42
0.0625
 43
0.38
 44
0.18
 45
0.0
 46
0.0
 47
0.0
 48
0.0
140
0.18
141
0.09
142
0.0
143
25.4
144
1.0
145
0.0
146
1.0
147
0.09
 71
     0
 72
     0
 73
     1
 74
     1
 75
     0
 76
     0
 77
     0
 78
     0
170
     0
171
     2
172
     0
173
     0
174
     0
175
     0
176
     0
177
     0
178
     0
270
     2
271
     4
272
     4
273
     2
274
     2
340
11
275
     0
280
     0
281
     0
282
     0
283
     1
284
     0
285
     0
286
     0
287
     3
288
     0
  0
DIMSTYLE
105
16C
102
{ACAD_REACTORS
330
16B
102
}
330
A
100
AcDbSymbolTableRecord
100
AcDbDimStyleTableRecord
  2
SLDDIMSTYLE0
 70
     0
  3

  4

  5

  6

  7

 40
1.0
 41
0.13
 42
0.0625
 43
0.38
 44
0.0
 45
0.000000001
 46
0.0
 47
0.001
 48
0.0
140
0.125
141
0.0
142
0.0
143
25.4
144
0.5
145
0.0
146
1.0
147
0.03125
 71
     1
 72
     0
 73
     1
 74
     1
 75
     0
 76
     0
 77
     0
 78
     4
170
     0
171
     2
172
     0
173
     1
174
     0
175
     0
176
     0
177
     0
178
     0
270
     2
271
     4
272
     3
273
     2
274
     2
340
C2
275
     0
280
     0
281
     0
282
     0
283
     1
284
     0
285
     0
286
     0
287
     3
288
     0
  0
DIMSTYLE
105
17C
102
{ACAD_REACTORS
330
17B
102
}
330
A
100
AcDbSymbolTableRecord
100
AcDbDimStyleTableRecord
  2
SLDDIMSTYLE1
 70
     0
  3

  4

  5

  6

  7

 40
1.0
 41
0.13
 42
0.0625
 43
0.38
 44
0.0
 45
0.000000001
 46
0.0
 47
0.01
 48
0.01
140
0.125
141
0.09
142
0.0
143
25.4
144
0.5
145
0.0
146
1.0
147
0.03125
 71
     1
 72
     0
 73
     1
 74
     1
 75
     0
 76
     0
 77
     0
 78
    12
170
     0
171
     2
172
     0
173
     1
174
     0
175
     0
176
     0
177
     0
178
     0
270
     2
271
     3
272
     3
273
     2
274
     2
340
C2
275
     0
280
     0
281
     0
282
     0
283
     1
284
     0
285
     0
286
     0
287
     3
288
     0
  0
DIMSTYLE
105
189
102
{ACAD_REACTORS
330
188
102
}
330
A
100
AcDbSymbolTableRecord
100
AcDbDimStyleTableRecord
  2
SLDDIMSTYLE2
 70
     0
  3

  4

  5

  6

  7

 40
1.0
 41
0.13
 42
0.0625
 43
0.38
 44
0.0
 45
0.000000001
 46
0.0
 47
0.01
 48
0.01
140
0.125
141
0.09
142
0.0
143
25.4
144
0.5
145
0.0
146
1.0
147
0.03125
 71
     1
 72
     0
 73
     1
 74
     1
 75
     0
 76
     0
 77
     0
 78
     4
170
     0
171
     2
172
     0
173
     1
174
     0
175
     0
176
     0
177
     0
178
     0
270
     2
271
     3
272
     3
273
     2
274
     2
340
C2
275
     0
280
     0
281
     0
282
     0
283
     1
284
     0
285
     0
286
     0
287
     3
288
     0
  0
DIMSTYLE
105
196
102
{ACAD_REACTORS
330
19A
330
19B
330
19C
330
28E
330
291
330
292
102
}
330
A
100
AcDbSymbolTableRecord
100
AcDbDimStyleTableRecord
  2
SLDDIMSTYLE3
 70
     0
  3

  4

  5

  6
NONE
  7
NONE
 40
1.0
 41
0.0
 42
0.0625
 43
0.38
 44
0.0
 45
0.000000001
 46
0.0
 47
0.0
 48
0.0
140
0.125
141
0.09
142
0.0
143
25.4
144
1.0
145
0.0
146
1.0
147
0.03125
 71
     0
 72
     0
 73
     1
 74
     1
 75
     0
 76
     0
 77
     0
 78
     0
170
     0
171
     2
172
     0
173
     1
174
     0
175
     0
176
     0
177
     0
178
     0
270
     2
271
     0
272
     0
273
     2
274
     2
340
195
275
     0
280
     0
281
     0
282
     0
283
     1
284
     0
285
     0
286
     0
287
     3
288
     0
  0
DIMSTYLE
105
1C2
102
{ACAD_REACTORS
330
1C1
102
}
330
A
100
AcDbSymbolTableRecord
100
AcDbDimStyleTableRecord
  2
SLDDIMSTYLE4
 70
     0
  3

  4

  5

  6

  7

 40
1.0
 41
0.13
 42
0.0625
 43
0.38
 44
0.0
 45
0.000000001
 46
0.0
 47
0.005
 48
0.005
140
0.125
141
0.09
142
0.0
143
25.4
144
0.5
145
0.0
146
1.0
147
0.03125
 71
     1
 72
     0
 73
     1
 74
     1
 75
     0
 76
     0
 77
     0
 78
     4
170
     0
171
     2
172
     0
173
     1
174
     0
175
     0
176
     0
177
     0
178
     0
270
     2
271
     3
272
     3
273
     2
274
     2
340
C2
275
     0
280
     0
281
     0
282
     0
283
     1
284
     8
285
     0
286
     0
287
     3
288
     0
  0
DIMSTYLE
105
1CF
102
{ACAD_REACTORS
330
1CE
102
}
330
A
100
AcDbSymbolTableRecord
100
AcDbDimStyleTableRecord
  2
SLDDIMSTYLE5
 70
     0
  3

  4

  5

  6

  7

 40
1.0
 41
0.13
 42
0.0625
 43
0.38
 44
0.0
 45
0.000000001
 46
0.0
 47
0.0
 48
0.0
140
0.125
141
0.09
142
0.0
143
25.4
144
0.5
145
0.0
146
1.0
147
0.03125
 71
     0
 72
     0
 73
     1
 74
     1
 75
     0
 76
     0
 77
     0
 78
    12
170
     0
171
     2
172
     0
173
     1
174
     0
175
     0
176
     0
177
     0
178
     0
270
     2
271
     3
272
     3
273
     2
274
     2
340
C2
275
     0
280
     0
281
     0
282
     0
283
     1
284
    12
285
     0
286
     0
287
     3
288
     0
  0
DIMSTYLE
105
1DB
102
{ACAD_REACTORS
330
1DA
102
}
330
A
100
AcDbSymbolTableRecord
100
AcDbDimStyleTableRecord
  2
SLDDIMSTYLE6
 70
     0
  3

  4

  5

  6

  7

 40
1.0
 41
0.13
 42
0.0625
 43
0.38
 44
0.0
 45
0.000000001
 46
0.0
 47
0.0
 48
0.0
140
0.125
141
0.0
142
0.0
143
25.4
144
0.5
145
0.0
146
1.0
147
0.03125
 71
     0
 72
     0
 73
     1
 74
     1
 75
     0
 76
     0
 77
     0
 78
    12
170
     0
171
     2
172
     0
173
     1
174
     0
175
     0
176
     0
177
     0
178
     0
270
     2
271
     3
272
     3
273
     2
274
     2
340
C2
275
     0
280
     0
281
     0
282
     0
283
     1
284
    12
285
     0
286
     0
287
     3
288
     0
  0
DIMSTYLE
105
1F7
102
{ACAD_REACTORS
330
1F6
102
}
330
A
100
AcDbSymbolTableRecord
100
AcDbDimStyleTableRecord
  2
SLDDIMSTYLE7
 70
     0
  3

  4

  5

  6
NONE
  7
NONE
 40
1.0
 41
0.13
 42
0.0625
 43
0.38
 44
0.0
 45
0.000000001
 46
0.0
 47
0.0
 48
0.0
140
0.125
141
0.09
142
0.0
143
25.4
144
0.5
145
0.0
146
1.0
147
-0.03125
 71
     0
 72
     0
 73
     1
 74
     1
 75
     0
 76
     0
 77
     0
 78
     4
170
     0
171
     2
172
     0
173
     1
174
     0
175
     0
176
     0
177
     0
178
     0
270
     2
271
     3
272
     3
273
     2
274
     2
340
C2
275
     0
280
     0
281
     0
282
     0
283
     1
284
     8
285
     0
286
     0
287
     3
288
     0
  0
DIMSTYLE
105
202
102
{ACAD_REACTORS
330
201
330
20E
330
218
330
224
330
22E
330
243
330
24F
330
259
102
}
330
A
100
AcDbSymbolTableRecord
100
AcDbDimStyleTableRecord
  2
SLDDIMSTYLE8
 70
     0
  3

  4

  5

  6
NONE
  7
NONE
 40
1.0
 41
0.13
 42
0.0625
 43
0.38
 44
0.0
 45
0.000000001
 46
0.0
 47
0.0
 48
0.0
140
0.125
141
0.09
142
0.0
143
25.4
144
0.5
145
0.0
146
1.0
147
-0.03125
 71
     0
 72
     0
 73
     1
 74
     1
 75
     0
 76
     0
 77
     0
 78
    12
170
     0
171
     2
172
     0
173
     1
174
     0
175
     0
176
     0
177
     0
178
     0
270
     2
271
     3
272
     3
273
     2
274
     2
340
C2
275
     0
280
     0
281
     0
282
     0
283
     1
284
     8
285
     0
286
     0
287
     3
288
     0
  0
DIMSTYLE
105
239
102
{ACAD_REACTORS
330
238
102
}
330
A
100
AcDbSymbolTableRecord
100
AcDbDimStyleTableRecord
  2
SLDDIMSTYLE9
 70
     0
  3

  4

  5

  6
NONE
  7
NONE
 40
1.0
 41
0.13
 42
0.0625
 43
0.38
 44
0.0
 45
0.000000001
 46
0.0
 47
0.0
 48
0.0
140
0.125
141
0.09
142
0.0
143
25.4
144
0.5
145
0.0
146
1.0
147
-0.03125
 71
     0
 72
     0
 73
     1
 74
     1
 75
     0
 76
     0
 77
     0
 78
     4
170
     0
171
     2
172
     0
173
     1
174
     0
175
     0
176
     0
177
     0
178
     0
270
     2
271
     3
272
     3
273
     2
274
     2
340
C2
275
     0
280
     0
281
     0
282
     0
283
     1
284
     8
285
     0
286
     0
287
     3
288
     0
  0
DIMSTYLE
105
264
102
{ACAD_REACTORS
330
263
102
}
330
A
100
AcDbSymbolTableRecord
100
AcDbDimStyleTableRecord
  2
SLDDIMSTYLE10
 70
     0
  3

  4

  5

  6
NONE
  7
NONE
 40
1.0
 41
0.13
 42
0.0625
 43
0.38
 44
0.0
 45
0.000000001
 46
0.0
 47
0.0
 48
0.0
140
0.125
141
0.09
142
0.0
143
25.4
144
0.5
145
0.0
146
1.0
147
0.03125
 71
     0
 72
     0
 73
     1
 74
     1
 75
     0
 76
     0
 77
     0
 78
     4
170
     0
171
     2
172
     0
173
     1
174
     0
175
     0
176
     0
177
     0
178
     0
270
     2
271
     3
272
     3
273
     2
274
     2
340
C2
275
     0
280
     0
281
     0
282
     0
283
     1
284
    12
285
     0
286
     0
287
     3
288
     0
  0
DIMSTYLE
105
26B
102
{ACAD_REACTORS
330
26A
102
}
330
A
100
AcDbSymbolTableRecord
100
AcDbDimStyleTableRecord
  2
SLDDIMSTYLE11
 70
     0
  3

  4

  5

  6

  7

 40
1.0
 41
0.13
 42
0.0625
 43
0.38
 44
0.0
 45
0.000000001
 46
0.0
 47
0.001
 48
0.0
140
0.125
141
0.0
142
0.0
143
25.4
144
0.5
145
0.0
146
1.0
147
0.03125
 71
     1
 72
     0
 73
     1
 74
     1
 75
     0
 76
     0
 77
     0
 78
     4
170
     0
171
     2
172
     0
173
     1
174
     0
175
     0
176
     0
177
     0
178
     0
270
     2
271
     4
272
     3
273
     2
274
     2
340
C2
275
     0
280
     0
281
     0
282
     0
283
     1
284
     0
285
     0
286
     0
287
     3
288
     0
  0
DIMSTYLE
105
27A
102
{ACAD_REACTORS
330
279
102
}
330
A
100
AcDbSymbolTableRecord
100
AcDbDimStyleTableRecord
  2
SLDDIMSTYLE12
 70
     0
  3

  4

  5

  6

  7

 40
1.0
 41
0.13
 42
0.0625
 43
0.38
 44
0.0
 45
0.000000001
 46
0.0
 47
0.0
 48
0.0
140
0.125
141
0.0
142
0.0
143
25.4
144
0.5
145
0.0
146
1.0
147
0.03125
 71
     0
 72
     0
 73
     1
 74
     1
 75
     0
 76
     0
 77
     0
 78
    12
170
     0
171
     2
172
     0
173
     1
174
     0
175
     0
176
     0
177
     0
178
     0
270
     2
271
     3
272
     3
273
     2
274
     2
340
C2
275
     0
280
     0
281
     0
282
     0
283
     1
284
    12
285
     0
286
     0
287
     3
288
     0
  0
DIMSTYLE
105
285
102
{ACAD_REACTORS
330
284
102
}
330
A
100
AcDbSymbolTableRecord
100
AcDbDimStyleTableRecord
  2
SLDDIMSTYLE13
 70
     0
  3

  4

  5

  6

  7

 40
1.0
 41
0.13
 42
0.0625
 43
0.38
 44
0.0
 45
0.000000001
 46
0.0
 47
0.0
 48
0.0
140
0.125
141
0.0
142
0.0
143
25.4
144
0.5
145
0.0
146
1.0
147
0.03125
 71
     0
 72
     0
 73
     1
 74
     1
 75
     0
 76
     0
 77
     0
 78
    12
170
     0
171
     2
172
     0
173
     1
174
     0
175
     0
176
     0
177
     0
178
     0
270
     2
271
     3
272
     3
273
     2
274
     2
340
C2
275
     0
280
     0
281
     0
282
     0
283
     1
284
    12
285
     0
286
     0
287
     4
288
     0
  0
DIMSTYLE
105
28F
330
A
100
AcDbSymbolTableRecord
100
AcDbDimStyleTableRecord
  2
SLDDIMSTYLE14
 70
     0
  3

  4

  5

  6

  7

 40
1.0
 41
0.13
 42
0.0625
 43
0.38
 44
0.0
 45
0.000000001
 46
0.0
 47
0.0
 48
0.0
140
0.18
141
0.09
142
0.0
143
25.4
144
1.0
145
0.0
146
0.13
147
0.0
 71
     0
 72
     0
 73
     1
 74
     1
 75
     0
 76
     0
 77
     0
 78
     0
170
     0
171
     2
172
     0
173
     1
174
     0
175
     0
176
     0
177
     0
178
     0
270
     2
271
     0
272
     0
273
     2
274
     2
340
11
275
     0
280
     0
281
     0
282
     0
283
     1
284
     0
285
     0
286
     0
287
     3
288
     0
  0
ENDTAB
  0
TABLE
  2
BLOCK_RECORD
  5
1
330
0
100
AcDbSymbolTable
 70
    38
  0
BLOCK_RECORD
  5
1F
330
1
100
AcDbSymbolTableRecord
100
AcDbBlockTableRecord
  2
*MODEL_SPACE
  0
BLOCK_RECORD
  5
1B
330
1
100
AcDbSymbolTableRecord
100
AcDbBlockTableRecord
  2
*PAPER_SPACE
  0
BLOCK_RECORD
  5
23
330
1
100
AcDbSymbolTableRecord
100
AcDbBlockTableRecord
  2
*PAPER_SPACE0
  0
BLOCK_RECORD
  5
B3
330
1
100
AcDbSymbolTableRecord
100
AcDbBlockTableRecord
  2
SW_NOTE_0
  0
BLOCK_RECORD
  5
C6
330
1
100
AcDbSymbolTableRecord
100
AcDbBlockTableRecord
  2
SW_SYMBOL_GTOL_SPROF
  0
BLOCK_RECORD
  5
F4
330
1
100
AcDbSymbolTableRecord
100
AcDbBlockTableRecord
  2
SW_NOTE_0_1
  0
BLOCK_RECORD
  5
FF
330
1
100
AcDbSymbolTableRecord
100
AcDbBlockTableRecord
  2
SW_NOTE_0_2
  0
BLOCK_RECORD
  5
114
330
1
100
AcDbSymbolTableRecord
100
AcDbBlockTableRecord
  2
SW_NOTE_0_3
  0
BLOCK_RECORD
  5
16D
330
1
100
AcDbSymbolTableRecord
100
AcDbBlockTableRecord
  2
_D
  0
BLOCK_RECORD
  5
17D
330
1
100
AcDbSymbolTableRecord
100
AcDbBlockTableRecord
  2
_D_1
  0
BLOCK_RECORD
  5
18A
330
1
100
AcDbSymbolTableRecord
100
AcDbBlockTableRecord
  2
_D_2
  0
BLOCK_RECORD
  5
197
330
1
100
AcDbSymbolTableRecord
100
AcDbBlockTableRecord
  2
_NONE
  0
BLOCK_RECORD
  5
19D
330
1
100
AcDbSymbolTableRecord
100
AcDbBlockTableRecord
  2
SW_DATUMTAG_0
  0
BLOCK_RECORD
  5
1A8
330
1
100
AcDbSymbolTableRecord
100
AcDbBlockTableRecord
  2
SW_DOWELSYMBOL_0
  0
BLOCK_RECORD
  5
1C3
330
1
100
AcDbSymbolTableRecord
100
AcDbBlockTableRecord
  2
_D_3
  0
BLOCK_RECORD
  5
1D0
330
1
100
AcDbSymbolTableRecord
100
AcDbBlockTableRecord
  2
_D_4
  0
BLOCK_RECORD
  5
1DC
330
1
100
AcDbSymbolTableRecord
100
AcDbBlockTableRecord
  2
_D_5
  0
BLOCK_RECORD
  5
1F8
330
1
100
AcDbSymbolTableRecord
100
AcDbBlockTableRecord
  2
_D_6
  0
BLOCK_RECORD
  5
203
330
1
100
AcDbSymbolTableRecord
100
AcDbBlockTableRecord
  2
_D_7
  0
BLOCK_RECORD
  5
20F
330
1
100
AcDbSymbolTableRecord
100
AcDbBlockTableRecord
  2
_D_8
  0
BLOCK_RECORD
  5
219
330
1
100
AcDbSymbolTableRecord
100
AcDbBlockTableRecord
  2
_D_9
  0
BLOCK_RECORD
  5
225
330
1
100
AcDbSymbolTableRecord
100
AcDbBlockTableRecord
  2
_D_10
  0
BLOCK_RECORD
  5
22F
330
1
100
AcDbSymbolTableRecord
100
AcDbBlockTableRecord
  2
_D_11
  0
BLOCK_RECORD
  5
23A
330
1
100
AcDbSymbolTableRecord
100
AcDbBlockTableRecord
  2
_D_12
  0
BLOCK_RECORD
  5
244
330
1
100
AcDbSymbolTableRecord
100
AcDbBlockTableRecord
  2
_D_13
  0
BLOCK_RECORD
  5
250
330
1
100
AcDbSymbolTableRecord
100
AcDbBlockTableRecord
  2
_D_14
  0
BLOCK_RECORD
  5
25A
330
1
100
AcDbSymbolTableRecord
100
AcDbBlockTableRecord
  2
_D_15
  0
BLOCK_RECORD
  5
265
330
1
100
AcDbSymbolTableRecord
100
AcDbBlockTableRecord
  2
_D_16
  0
BLOCK_RECORD
  5
26C
330
1
100
AcDbSymbolTableRecord
100
AcDbBlockTableRecord
  2
_D_17
  0
BLOCK_RECORD
  5
27B
330
1
100
AcDbSymbolTableRecord
100
AcDbBlockTableRecord
  2
_D_18
  0
BLOCK_RECORD
  5
286
330
1
100
AcDbSymbolTableRecord
100
AcDbBlockTableRecord
  2
_D_19
  0
BLOCK_RECORD
  5
293
330
1
100
AcDbSymbolTableRecord
100
AcDbBlockTableRecord
  2
SW_CENTERMARKSYMBOL_0
  0
BLOCK_RECORD
  5
29F
330
1
100
AcDbSymbolTableRecord
100
AcDbBlockTableRecord
  2
SW_CENTERMARKSYMBOL_1
  0
BLOCK_RECORD
  5
2AB
330
1
100
AcDbSymbolTableRecord
100
AcDbBlockTableRecord
  2
SW_DATUMTAG_1
  0
BLOCK_RECORD
  5
2B6
330
1
100
AcDbSymbolTableRecord
100
AcDbBlockTableRecord
  2
SW_DATUMTAG_2
  0
BLOCK_RECORD
  5
2C1
330
1
100
AcDbSymbolTableRecord
100
AcDbBlockTableRecord
  2
SW_DOWELSYMBOL_1
  0
BLOCK_RECORD
  5
3BD
330
1
100
AcDbSymbolTableRecord
100
AcDbBlockTableRecord
  2
*U34
  0
BLOCK_RECORD
  5
3CD
330
1
100
AcDbSymbolTableRecord
100
AcDbBlockTableRecord
  2
*U35
  0
BLOCK_RECORD
  5
3DF
330
1
100
AcDbSymbolTableRecord
100
AcDbBlockTableRecord
  2
*U36
  0
BLOCK_RECORD
  5
3EF
330
1
100
AcDbSymbolTableRecord
100
AcDbBlockTableRecord
  2
*U37
  0
ENDTAB
  0
ENDSEC
  0
SECTION
  2
BLOCKS
  0
BLOCK
  5
20
330
1F
100
AcDbEntity
  8
0
100
AcDbBlockBegin
  2
*MODEL_SPACE
 70
     0
 10
0.0
 20
0.0
 30
0.0
  3
*MODEL_SPACE
  1

  0
ENDBLK
  5
21
330
1F
100
AcDbEntity
  8
0
100
AcDbBlockEnd
  0
BLOCK
  5
1C
330
1B
100
AcDbEntity
 67
     1
  8
0
100
AcDbBlockBegin
  2
*PAPER_SPACE
 70
     0
 10
0.0
 20
0.0
 30
0.0
  3
*PAPER_SPACE
  1

  0
ENDBLK
  5
1D
330
1B
100
AcDbEntity
 67
     1
  8
0
100
AcDbBlockEnd
  0
BLOCK
  5
24
330
23
100
AcDbEntity
  8
0
100
AcDbBlockBegin
  2
*PAPER_SPACE0
 70
     0
 10
0.0
 20
0.0
 30
0.0
  3
*PAPER_SPACE0
  1

  0
ENDBLK
  5
25
330
23
100
AcDbEntity
  8
0
100
AcDbBlockEnd
  0
BLOCK
  5
B4
330
B3
100
AcDbEntity
  8
0
100
AcDbBlockBegin
  2
SW_NOTE_0
 70
     0
 10
0.0
 20
0.0
 30
0.0
  3
SW_NOTE_0
  1

  0
LINE
  5
B6
330
B3
100
AcDbEntity
  8
0
  6
SLD-SOLID
 62
     0
100
AcDbLine
 10
0.0125
 20
-0.5056102225
 30
0.0
 11
0.0125
 21
-0.7556102225
 31
0.0
  0
LINE
  5
B7
330
B3
100
AcDbEntity
  8
0
  6
SLD-SOLID
 62
     0
100
AcDbLine
 10
0.0125
 20
-0.7556102225
 30
0.0
 11
1.5416830709
 21
-0.7556102225
 31
0.0
  0
LINE
  5
B8
330
B3
100
AcDbEntity
  8
0
  6
SLD-SOLID
 62
     0
100
AcDbLine
 10
1.5416830709
 20
-0.5056102225
 30
0.0
 11
0.0125
 21
-0.5056102225
 31
0.0
  0
LINE
  5
B9
330
B3
100
AcDbEntity
  8
0
  6
SLD-SOLID
 62
     0
100
AcDbLine
 10
0.0125
 20
-0.5056102225
 30
0.0
 11
0.0125
 21
-0.7556102225
 31
0.0
  0
LINE
  5
BA
330
B3
100
AcDbEntity
  8
0
  6
SLD-SOLID
 62
     0
100
AcDbLine
 10
0.0125
 20
-0.7556102225
 30
0.0
 11
0.35
 21
-0.7556102225
 31
0.0
  0
LINE
  5
BB
330
B3
100
AcDbEntity
  8
0
  6
SLD-SOLID
 62
     0
100
AcDbLine
 10
0.35
 20
-0.5056102225
 30
0.0
 11
0.0125
 21
-0.5056102225
 31
0.0
  0
LINE
  5
BC
330
B3
100
AcDbEntity
  8
0
  6
SLD-SOLID
 62
     0
100
AcDbLine
 10
0.35
 20
-0.5056102225
 30
0.0
 11
0.35
 21
-0.7556102225
 31
0.0
  0
LINE
  5
BD
330
B3
100
AcDbEntity
  8
0
  6
SLD-SOLID
 62
     0
100
AcDbLine
 10
0.7916830709
 20
-0.5056102225
 30
0.0
 11
0.7916830709
 21
-0.7556102225
 31
0.0
  0
LINE
  5
BE
330
B3
100
AcDbEntity
  8
0
  6
SLD-SOLID
 62
     0
100
AcDbLine
 10
0.7916830709
 20
-0.5056102225
 30
0.0
 11
0.7916830709
 21
-0.7556102225
 31
0.0
  0
LINE
  5
BF
330
B3
100
AcDbEntity
  8
0
  6
SLD-SOLID
 62
     0
100
AcDbLine
 10
1.0416830709
 20
-0.5056102225
 30
0.0
 11
1.0416830709
 21
-0.7556102225
 31
0.0
  0
LINE
  5
C0
330
B3
100
AcDbEntity
  8
0
  6
SLD-SOLID
 62
     0
100
AcDbLine
 10
1.2916830709
 20
-0.5056102225
 30
0.0
 11
1.2916830709
 21
-0.7556102225
 31
0.0
  0
LINE
  5
C1
330
B3
100
AcDbEntity
  8
0
  6
SLD-SOLID
 62
     0
100
AcDbLine
 10
1.5416830709
 20
-0.5056102225
 30
0.0
 11
1.5416830709
 21
-0.7556102225
 31
0.0
  0
MTEXT
  5
C3
330
B3
100
AcDbEntity
  8
0
  6
CONTINUOUS
 62
     0
100
AcDbMText
 10
0.0
 20
0.1611334675
 30
0.0
 40
0.125
 41
0.0
 71
     1
 72
     1
  1
NOTES:
  7
SLDTEXTSTYLE0
  0
MTEXT
  5
C4
330
B3
100
AcDbEntity
  8
0
  6
CONTINUOUS
 62
     0
100
AcDbMText
 10
0.0
 20
-0.1676066816
 30
0.0
 40
0.125
 41
0.0
 71
     1
 72
     1
  1
TOLERANCING PER ASME 14.5Y-2009
  7
SLDTEXTSTYLE0
  0
MTEXT
  5
C5
330
B3
100
AcDbEntity
  8
0
  6
CONTINUOUS
 62
     0
100
AcDbMText
 10
0.0
 20
-0.3319767561
 30
0.0
 40
0.125
 41
0.0
 71
     1
 72
     1
  1
MATERIAL - AISI 316
  7
SLDTEXTSTYLE0
  0
INSERT
  5
CB
330
B3
100
AcDbEntity
  8
0
  6
CONTINUOUS
 62
     0
100
AcDbBlockReference
  2
SW_SYMBOL_GTOL_SPROF
 10
0.0375
 20
-0.6939945112
 30
0.0
 41
0.0034488282
 42
0.0034488282
 43
0.0034488282
  0
MTEXT
  5
CC
330
B3
100
AcDbEntity
  8
0
  6
CONTINUOUS
 62
     0
100
AcDbMText
 10
0.409209586
 20
-0.5686954943
 30
0.0
 40
0.125
 41
0.0
 71
     1
 72
     1
  1
.010
  7
SLDTEXTSTYLE0
  0
MTEXT
  5
CD
330
B3
100
AcDbEntity
  8
0
  6
CONTINUOUS
 62
     0
100
AcDbMText
 10
0.8550511266
 20
-0.5686954943
 30
0.0
 40
0.125
 41
0.0
 71
     1
 72
     1
  1
A
  7
SLDTEXTSTYLE0
  0
MTEXT
  5
CE
330
B3
100
AcDbEntity
  8
0
  6
CONTINUOUS
 62
     0
100
AcDbMText
 10
1.118853208
 20
-0.5686954943
 30
0.0
 40
0.125
 41
0.0
 71
     1
 72
     1
  1
B
  7
SLDTEXTSTYLE0
  0
MTEXT
  5
CF
330
B3
100
AcDbEntity
  8
0
  6
CONTINUOUS
 62
     0
100
AcDbMText
 10
1.3489747372
 20
-0.5686954943
 30
0.0
 40
0.125
 41
0.0
 71
     1
 72
     1
  1
C
  7
SLDTEXTSTYLE0
  0
MTEXT
  5
D0
330
B3
100
AcDbEntity
  8
0
  6
CONTINUOUS
 62
     0
100
AcDbMText
 10
1.6010581926
 20
-0.5686086992
 30
0.0
 40
0.125
 41
0.0
 71
     1
 72
     1
  1
UNLESS OTHERWISE STATED
  7
SLDTEXTSTYLE0
  0
ENDBLK
  5
B5
330
B3
100
AcDbEntity
  8
0
100
AcDbBlockEnd
  0
BLOCK
  5
C7
330
C6
100
AcDbEntity
  8
0
100
AcDbBlockBegin
  2
SW_SYMBOL_GTOL_SPROF
 70
     0
 10
0.0
 20
0.0
 30
0.0
  3
SW_SYMBOL_GTOL_SPROF
  1

  0
ARC
  5
C9
330
C6
100
AcDbEntity
  8
0
  6
CONTINUOUS
 62
     0
100
AcDbCircle
 10
39.3700787402
 20
0.0
 30
0.0
 40
39.37007874015748
100
AcDbArc
 50
0.0
 51
180.0
  0
LINE
  5
CA
330
C6
100
AcDbEntity
  8
0
  6
CONTINUOUS
 62
     0
100
AcDbLine
 10
0.0
 20
0.0
 30
0.0
 11
78.7401574803
 21
0.0
 31
0.0
  0
ENDBLK
  5
C8
330
C6
100
AcDbEntity
  8
0
100
AcDbBlockEnd
  0
BLOCK
  5
F5
330
F4
100
AcDbEntity
  8
0
100
AcDbBlockBegin
  2
SW_NOTE_0_1
 70
     0
 10
0.0
 20
0.0
 30
0.0
  3
SW_NOTE_0_1
  1

  0
MTEXT
  5
F7
330
F4
100
AcDbEntity
  8
0
  6
CONTINUOUS
 62
     0
100
AcDbMText
 10
0.0
 20
0.0761260476
 30
0.0
 40
0.0590551181
 41
0.0
 71
     1
 72
     1
  1
UNLESS OTHERWISE SPECIFIED:
  7
SLDTEXTSTYLE0
  0
MTEXT
  5
F8
330
F4
100
AcDbEntity
  8
0
  6
CONTINUOUS
 62
     0
100
AcDbMText
 10
0.0
 20
-0.022299147
 30
0.0
 40
0.0590551181
 41
0.0
 71
     1
 72
     1
  1
DIMENSIONS ARE IN MILLIMETERS
  7
SLDTEXTSTYLE0
  0
MTEXT
  5
F9
330
F4
100
AcDbEntity
  8
0
  6
CONTINUOUS
 62
     0
100
AcDbMText
 10
0.0
 20
-0.1207243417
 30
0.0
 40
0.0590551181
 41
0.0
 71
     1
 72
     1
  1
SURFACE FINISH:
  7
SLDTEXTSTYLE0
  0
MTEXT
  5
FA
330
F4
100
AcDbEntity
  8
0
  6
CONTINUOUS
 62
     0
100
AcDbMText
 10
0.0
 20
-0.2191495363
 30
0.0
 40
0.0590551181
 41
0.0
 71
     1
 72
     1
  1
TOLERANCES:
  7
SLDTEXTSTYLE0
  0
MTEXT
  5
FB
330
F4
100
AcDbEntity
  8
0
  6
CONTINUOUS
 62
     0
100
AcDbMText
 10
0.0664370079
 20
-0.317574731
 30
0.0
 40
0.0590551181
 41
0.0
 71
     1
 72
     1
  1
LINEAR:
  7
SLDTEXTSTYLE0
  0
MTEXT
  5
FC
330
F4
100
AcDbEntity
  8
0
  6
CONTINUOUS
 62
     0
100
AcDbMText
 10
0.0664370079
 20
-0.4159999256
 30
0.0
 40
0.0590551181
 41
0.0
 71
     1
 72
     1
  1
ANGULAR:
  7
SLDTEXTSTYLE0
  0
ENDBLK
  5
F6
330
F4
100
AcDbEntity
  8
0
100
AcDbBlockEnd
  0
BLOCK
  5
100
330
FF
100
AcDbEntity
  8
0
100
AcDbBlockBegin
  2
SW_NOTE_0_2
 70
     0
 10
0.0
 20
0.0
 30
0.0
  3
SW_NOTE_0_2
  1

  0
MTEXT
  5
102
330
FF
100
AcDbEntity
  8
0
  6
CONTINUOUS
 62
     0
100
AcDbMText
 10
0.0
 20
0.0761260476
 30
0.0
 40
0.0590551181
 41
0.0
 71
     1
 72
     1
  1
DEBURR AND
  7
SLDTEXTSTYLE0
  0
MTEXT
  5
103
330
FF
100
AcDbEntity
  8
0
  6
CONTINUOUS
 62
     0
100
AcDbMText
 10
0.0
 20
-0.022299147
 30
0.0
 40
0.0590551181
 41
0.0
 71
     1
 72
     1
  1
BREAK SHARP
  7
SLDTEXTSTYLE0
  0
MTEXT
  5
104
330
FF
100
AcDbEntity
  8
0
  6
CONTINUOUS
 62
     0
100
AcDbMText
 10
0.0
 20
-0.1207243417
 30
0.0
 40
0.0590551181
 41
0.0
 71
     1
 72
     1
  1
EDGES
  7
SLDTEXTSTYLE0
  0
ENDBLK
  5
101
330
FF
100
AcDbEntity
  8
0
100
AcDbBlockEnd
  0
BLOCK
  5
115
330
114
100
AcDbEntity
  8
0
100
AcDbBlockBegin
  2
SW_NOTE_0_3
 70
     0
 10
0.0
 20
0.0
 30
0.0
  3
SW_NOTE_0_3
  1

  0
MTEXT
  5
117
330
114
100
AcDbEntity
  8
0
  6
CONTINUOUS
 62
     0
100
AcDbMText
 10
1.0859375
 20
0.3222669349
 30
0.0
 40
0.25
 41
0.0
 71
     2
 72
     1
  1
TETHER GUIDE
  7
SLDTEXTSTYLE0
  0
MTEXT
  5
118
330
114
100
AcDbEntity
  8
0
  6
CONTINUOUS
 62
     0
100
AcDbMText
 10
1.0651476526
 20
0.0028224852
 30
0.0
 40
0.25
 41
0.0
 71
     2
 72
     1
  1
ROLLER MOUNT
  7
SLDTEXTSTYLE0
  0
ENDBLK
  5
116
330
114
100
AcDbEntity
  8
0
100
AcDbBlockEnd
  0
BLOCK
  5
16E
330
16D
100
AcDbEntity
  8
0
100
AcDbBlockBegin
  2
_D
 70
     0
 10
0.0
 20
0.0
 30
0.0
  3
_D
  1

  0
SOLID
  5
170
330
16D
100
AcDbEntity
  8
0
  6
SLD-SOLID
 62
     7
100
AcDbTrace
 10
4.0547597053
 20
6.447273955
 30
0.0
 11
4.1608257225
 21
6.525055701
 31
0.0
 12
4.1325414513
 22
6.5533399722
 32
0.0
 13
4.1325414513
 23
6.5533399722
 33
0.0
  0
LINE
  5
171
330
16D
100
AcDbEntity
  8
0
  6
SLD-SOLID
 62
     7
100
AcDbLine
 10
4.0547597053
 20
6.447273955
 30
0.0
 11
4.9593013174
 21
7.3518155672
 31
0.0
  0
LINE
  5
172
330
16D
100
AcDbEntity
  8
0
  6
SLD-SOLID
 62
     7
100
AcDbLine
 10
4.9593013174
 20
7.3518155672
 30
0.0
 11
5.2093013174
 21
7.3518155672
 31
0.0
  0
MTEXT
  5
173
330
16D
100
AcDbEntity
  8
0
  6
SLD-SOLID
 62
     7
100
AcDbMText
 10
5.2093013174
 20
7.4215428016
 30
0.0
 40
0.125
 41
0.0
 71
     1
 72
     1
  1
%%c
  7
SLDTEXTSTYLE0
  0
MTEXT
  5
174
330
16D
100
AcDbEntity
  8
0
  6
SLD-SOLID
 62
     7
100
AcDbMText
 10
5.444691938
 20
7.4234525239
 30
0.0
 40
0.125
 41
0.0
 71
     1
 72
     1
  1
.3750
  7
SLDTEXTSTYLE0
  0
MTEXT
  5
175
330
16D
100
AcDbEntity
  8
0
  6
SLD-SOLID
 62
     7
100
AcDbMText
 10
5.9064974582
 20
7.4234525239
 30
0.0
 40
0.125
 41
0.0
 71
     1
 72
     1
  1
H7
  7
SLDTEXTSTYLE0
  0
MTEXT
  5
176
330
16D
100
AcDbEntity
  8
0
  6
SLD-SOLID
 62
     7
100
AcDbMText
 10
6.1582335886
 20
7.5129490415
 30
0.0
 40
0.125
 41
0.0
 71
     1
 72
     1
  1
+
  7
SLDTEXTSTYLE0
  0
MTEXT
  5
177
330
16D
100
AcDbEntity
  8
0
  6
SLD-SOLID
 62
     7
100
AcDbMText
 10
6.1810634514
 20
7.351317092
 30
0.0
 40
0.125
 41
0.0
 71
     1
 72
     1
  1
-
  7
SLDTEXTSTYLE0
  0
MTEXT
  5
178
330
16D
100
AcDbEntity
  8
0
  6
SLD-SOLID
 62
     7
100
AcDbMText
 10
6.2592752681
 20
7.5129490415
 30
0.0
 40
0.125
 41
0.0
 71
     1
 72
     1
  1
.0006
  7
SLDTEXTSTYLE0
  0
MTEXT
  5
179
330
16D
100
AcDbEntity
  8
0
  6
SLD-SOLID
 62
     7
100
AcDbMText
 10
6.2592752681
 20
7.351317092
 30
0.0
 40
0.125
 41
0.0
 71
     1
 72
     1
  1
.0000
  7
SLDTEXTSTYLE0
  0
MTEXT
  5
17A
330
16D
100
AcDbEntity
  8
0
  6
SLD-SOLID
 62
     7
100
AcDbMText
 10
6.7217753334
 20
7.4234525239
 30
0.0
 40
0.125
 41
0.0
 71
     1
 72
     1
  1
THRU ALL
  7
SLDTEXTSTYLE0
  0
ENDBLK
  5
16F
330
16D
100
AcDbEntity
  8
0
100
AcDbBlockEnd
  0
BLOCK
  5
17E
330
17D
100
AcDbEntity
  8
0
100
AcDbBlockBegin
  2
_D_1
 70
     0
 10
0.0
 20
0.0
 30
0.0
  3
_D_1
  1

  0
SOLID
  5
180
330
17D
100
AcDbEntity
  8
0
  6
SLD-SOLID
 62
     7
100
AcDbTrace
 10
4.2226655285
 20
3.1899829278
 30
0.0
 11
4.0926655285
 21
3.2099829278
 31
0.0
 12
4.0926655285
 22
3.1699829278
 32
0.0
 13
4.0926655285
 23
3.1699829278
 33
0.0
  0
SOLID
  5
181
330
17D
100
AcDbEntity
  8
0
  6
SLD-SOLID
 62
     7
100
AcDbTrace
 10
3.3565237962
 20
3.1899829278
 30
0.0
 11
3.4865237962
 21
3.1699829278
 31
0.0
 12
3.4865237962
 22
3.2099829278
 32
0.0
 13
3.4865237962
 23
3.2099829278
 33
0.0
  0
LINE
  5
182
330
17D
100
AcDbEntity
  8
0
  6
SLD-SOLID
 62
     7
100
AcDbLine
 10
4.2226655285
 20
3.0825026129
 30
0.0
 11
4.2226655285
 21
3.3149829278
 31
0.0
  0
LINE
  5
183
330
17D
100
AcDbEntity
  8
0
  6
SLD-SOLID
 62
     7
100
AcDbLine
 10
3.3565237962
 20
3.0825026129
 30
0.0
 11
3.3565237962
 21
3.3149829278
 31
0.0
  0
LINE
  5
184
330
17D
100
AcDbEntity
  8
0
  6
SLD-SOLID
 62
     7
100
AcDbLine
 10
4.2226655285
 20
3.1899829278
 30
0.0
 11
4.7443766987
 21
3.1899829278
 31
0.0
  0
LINE
  5
185
330
17D
100
AcDbEntity
  8
0
  6
SLD-SOLID
 62
     7
100
AcDbLine
 10
3.3565237962
 20
3.1899829278
 30
0.0
 11
4.2226655285
 21
3.1899829278
 31
0.0
  0
MTEXT
  5
186
330
17D
100
AcDbEntity
  8
0
  6
SLD-SOLID
 62
     7
100
AcDbMText
 10
4.7443766987
 20
3.2518976561
 30
0.0
 40
0.125
 41
0.0
 71
     1
 72
     1
  1
.433
  7
SLDTEXTSTYLE0
  0
MTEXT
  5
187
330
17D
100
AcDbEntity
  8
0
  6
SLD-SOLID
 62
     7
100
AcDbMText
 10
5.0676405977
 20
3.2518976561
 30
0.0
 40
0.125
 41
0.0
 71
     1
 72
     1
  1
±.010
  7
SLDTEXTSTYLE0
  0
ENDBLK
  5
17F
330
17D
100
AcDbEntity
  8
0
100
AcDbBlockEnd
  0
BLOCK
  5
18B
330
18A
100
AcDbEntity
  8
0
100
AcDbBlockBegin
  2
_D_2
 70
     0
 10
0.0
 20
0.0
 30
0.0
  3
_D_2
  1

  0
SOLID
  5
18D
330
18A
100
AcDbEntity
  8
0
  6
SLD-SOLID
 62
     7
100
AcDbTrace
 10
3.1793584419
 20
1.7726600932
 30
0.0
 11
3.3093584419
 21
1.7526600932
 31
0.0
 12
3.3093584419
 22
1.7926600932
 32
0.0
 13
3.3093584419
 23
1.7926600932
 33
0.0
  0
SOLID
  5
18E
330
18A
100
AcDbEntity
  8
0
  6
SLD-SOLID
 62
     7
100
AcDbTrace
 10
4.3998308829
 20
1.7726600932
 30
0.0
 11
4.2698308829
 21
1.7926600932
 31
0.0
 12
4.2698308829
 22
1.7526600932
 32
0.0
 13
4.2698308829
 23
1.7526600932
 33
0.0
  0
LINE
  5
18F
330
18A
100
AcDbEntity
  8
0
  6
SLD-SOLID
 62
     7
100
AcDbLine
 10
3.1793584419
 20
2.5888018255
 30
0.0
 11
3.1793584419
 21
1.6476600932
 31
0.0
  0
LINE
  5
190
330
18A
100
AcDbEntity
  8
0
  6
SLD-SOLID
 62
     7
100
AcDbLine
 10
4.3998308829
 20
2.5888018255
 30
0.0
 11
4.3998308829
 21
1.6476600932
 31
0.0
  0
LINE
  5
191
330
18A
100
AcDbEntity
  8
0
  6
SLD-SOLID
 62
     7
100
AcDbLine
 10
3.1793584419
 20
1.7726600932
 30
0.0
 11
4.3998308829
 21
1.7726600932
 31
0.0
  0
LINE
  5
192
330
18A
100
AcDbEntity
  8
0
  6
SLD-SOLID
 62
     7
100
AcDbLine
 10
4.3998308829
 20
1.7726600932
 30
0.0
 11
4.6752544773
 21
1.7726600932
 31
0.0
  0
MTEXT
  5
193
330
18A
100
AcDbEntity
  8
0
  6
SLD-SOLID
 62
     7
100
AcDbMText
 10
4.6752544773
 20
1.8345748214
 30
0.0
 40
0.125
 41
0.0
 71
     1
 72
     1
  1
.610
  7
SLDTEXTSTYLE0
  0
MTEXT
  5
194
330
18A
100
AcDbEntity
  8
0
  6
SLD-SOLID
 62
     7
100
AcDbMText
 10
4.9985183762
 20
1.8345748214
 30
0.0
 40
0.125
 41
0.0
 71
     1
 72
     1
  1
±.010
  7
SLDTEXTSTYLE0
  0
ENDBLK
  5
18C
330
18A
100
AcDbEntity
  8
0
100
AcDbBlockEnd
  0
BLOCK
  5
198
330
197
100
AcDbEntity
  8
0
100
AcDbBlockBegin
  2
_NONE
 70
     0
 10
0.0
 20
0.0
 30
0.0
  3
_NONE
  1

  0
ENDBLK
  5
199
330
197
100
AcDbEntity
  8
0
100
AcDbBlockEnd
  0
BLOCK
  5
19E
330
19D
100
AcDbEntity
  8
0
100
AcDbBlockBegin
  2
SW_DATUMTAG_0
 70
     0
 10
0.0
 20
0.0
 30
0.0
  3
SW_DATUMTAG_0
  1

  0
LINE
  5
1A0
330
19D
100
AcDbEntity
  8
0
  6
SLD-SOLID
 62
     0
100
AcDbLine
 10
0.0478298629
 20
0.64476912
 30
0.0
 11
0.0478298629
 21
0.2242187392
 31
0.0
  0
LINE
  5
1A1
330
19D
100
AcDbEntity
  8
0
  6
SLD-SOLID
 62
     0
100
AcDbLine
 10
0.1728298629
 20
-0.0257812608
 30
0.0
 11
-0.0771701371
 21
-0.0257812608
 31
0.0
  0
LINE
  5
1A2
330
19D
100
AcDbEntity
  8
0
  6
SLD-SOLID
 62
     0
100
AcDbLine
 10
-0.0771701371
 20
-0.0257812608
 30
0.0
 11
-0.0771701371
 21
0.2242187392
 31
0.0
  0
LINE
  5
1A3
330
19D
100
AcDbEntity
  8
0
  6
SLD-SOLID
 62
     0
100
AcDbLine
 10
-0.0771701371
 20
0.2242187392
 30
0.0
 11
0.1728298629
 21
0.2242187392
 31
0.0
  0
LINE
  5
1A4
330
19D
100
AcDbEntity
  8
0
  6
SLD-SOLID
 62
     0
100
AcDbLine
 10
0.1728298629
 20
0.2242187392
 30
0.0
 11
0.1728298629
 21
-0.0257812608
 31
0.0
  0
MTEXT
  5
1A5
330
19D
100
AcDbEntity
  8
0
  6
CONTINUOUS
 62
     0
100
AcDbMText
 10
0.0
 20
0.1611334675
 30
0.0
 40
0.125
 41
0.0
 71
     1
 72
     1
  1
B
  7
SLDTEXTSTYLE0
  0
SOLID
  5
1A6
330
19D
100
AcDbEntity
  8
0
  6
SLD-SOLID
 62
     0
100
AcDbTrace
 10
0.1103298629
 20
0.64476912
 30
0.0
 11
-0.0146701371
 21
0.64476912
 31
0.0
 12
0.0478298629
 22
0.51976912
 32
0.0
 13
0.0478298629
 23
0.51976912
 33
0.0
  0
ENDBLK
  5
19F
330
19D
100
AcDbEntity
  8
0
100
AcDbBlockEnd
  0
BLOCK
  5
1A9
330
1A8
100
AcDbEntity
  8
0
100
AcDbBlockBegin
  2
SW_DOWELSYMBOL_0
 70
     0
 10
0.0
 20
0.0
 30
0.0
  3
SW_DOWELSYMBOL_0
  1

  0
CIRCLE
  5
1AB
330
1A8
100
AcDbEntity
  8
0
  6
CONTINUOUS
 62
     0
100
AcDbCircle
 10
0.0
 20
0.0
 30
0.0
 40
0.3749999999999992
  0
INSERT
  5
1AC
330
1A8
100
AcDbEntity
  8
0
  6
CONTINUOUS
 62
     0
100
AcDbBlockReference
  2
*U34
 10
0.0
 20
0.0
 30
0.0
  0
INSERT
  5
1AD
330
1A8
100
AcDbEntity
  8
0
  6
CONTINUOUS
 62
     0
100
AcDbBlockReference
  2
*U35
 10
0.0
 20
0.0
 30
0.0
  0
ENDBLK
  5
1AA
330
1A8
100
AcDbEntity
  8
0
100
AcDbBlockEnd
  0
BLOCK
  5
1C4
330
1C3
100
AcDbEntity
  8
0
100
AcDbBlockBegin
  2
_D_3
 70
     0
 10
0.0
 20
0.0
 30
0.0
  3
_D_3
  1

  0
SOLID
  5
1C6
330
1C3
100
AcDbEntity
  8
0
  6
SLD-SOLID
 62
     7
100
AcDbTrace
 10
4.4195159222
 20
10.5232537665
 30
0.0
 11
4.2895159222
 21
10.5432537665
 31
0.0
 12
4.2895159222
 22
10.5032537665
 32
0.0
 13
4.2895159222
 23
10.5032537665
 33
0.0
  0
SOLID
  5
1C7
330
1C3
100
AcDbEntity
  8
0
  6
SLD-SOLID
 62
     7
100
AcDbTrace
 10
3.1596734025
 20
10.5232537665
 30
0.0
 11
3.2896734025
 21
10.5032537665
 31
0.0
 12
3.2896734025
 22
10.5432537665
 32
0.0
 13
3.2896734025
 23
10.5432537665
 33
0.0
  0
LINE
  5
1C8
330
1C3
100
AcDbEntity
  8
0
  6
SLD-SOLID
 62
     7
100
AcDbLine
 10
4.4195159222
 20
10.2661417323
 30
0.0
 11
4.4195159222
 21
10.6482537665
 31
0.0
  0
LINE
  5
1C9
330
1C3
100
AcDbEntity
  8
0
  6
SLD-SOLID
 62
     7
100
AcDbLine
 10
3.1596734025
 20
10.2661417323
 30
0.0
 11
3.1596734025
 21
10.6482537665
 31
0.0
  0
LINE
  5
1CA
330
1C3
100
AcDbEntity
  8
0
  6
SLD-SOLID
 62
     7
100
AcDbLine
 10
4.4195159222
 20
10.5232537665
 30
0.0
 11
4.7056576504
 21
10.5232537665
 31
0.0
  0
LINE
  5
1CB
330
1C3
100
AcDbEntity
  8
0
  6
SLD-SOLID
 62
     7
100
AcDbLine
 10
3.1596734025
 20
10.5232537665
 30
0.0
 11
4.4195159222
 21
10.5232537665
 31
0.0
  0
MTEXT
  5
1CC
330
1C3
100
AcDbEntity
  8
0
  6
SLD-SOLID
 62
     7
100
AcDbMText
 10
4.7056576504
 20
10.5851684947
 30
0.0
 40
0.125
 41
0.0
 71
     1
 72
     1
  1
.630
  7
SLDTEXTSTYLE0
  0
MTEXT
  5
1CD
330
1C3
100
AcDbEntity
  8
0
  6
SLD-SOLID
 62
     7
100
AcDbMText
 10
5.0289215493
 20
10.5851684947
 30
0.0
 40
0.125
 41
0.0
 71
     1
 72
     1
  1
±.005
  7
SLDTEXTSTYLE0
  0
ENDBLK
  5
1C5
330
1C3
100
AcDbEntity
  8
0
100
AcDbBlockEnd
  0
BLOCK
  5
1D1
330
1D0
100
AcDbEntity
  8
0
100
AcDbBlockBegin
  2
_D_4
 70
     0
 10
0.0
 20
0.0
 30
0.0
  3
_D_4
  1

  0
SOLID
  5
1D3
330
1D0
100
AcDbEntity
  8
0
  6
SLD-SOLID
 62
     7
100
AcDbTrace
 10
5.3250277332
 20
9.0350393701
 30
0.0
 11
5.3450277332
 21
9.1650393701
 31
0.0
 12
5.3050277332
 22
9.1650393701
 32
0.0
 13
5.3050277332
 23
9.1650393701
 33
0.0
  0
SOLID
  5
1D4
330
1D0
100
AcDbEntity
  8
0
  6
SLD-SOLID
 62
     7
100
AcDbTrace
 10
5.3250277332
 20
10.2161417323
 30
0.0
 11
5.3050277332
 21
10.0861417323
 31
0.0
 12
5.3450277332
 22
10.0861417323
 32
0.0
 13
5.3450277332
 23
10.0861417323
 33
0.0
  0
LINE
  5
1D5
330
1D0
100
AcDbEntity
  8
0
  6
SLD-SOLID
 62
     7
100
AcDbLine
 10
4.2726655285
 20
9.0350393701
 30
0.0
 11
5.4500277332
 21
9.0350393701
 31
0.0
  0
LINE
  5
1D6
330
1D0
100
AcDbEntity
  8
0
  6
SLD-SOLID
 62
     7
100
AcDbLine
 10
4.4695159222
 20
10.2161417323
 30
0.0
 11
5.4500277332
 21
10.2161417323
 31
0.0
  0
LINE
  5
1D7
330
1D0
100
AcDbEntity
  8
0
  6
SLD-SOLID
 62
     7
100
AcDbLine
 10
5.3250277332
 20
9.0350393701
 30
0.0
 11
5.3250277332
 21
9.4557388282
 31
0.0
  0
LINE
  5
1D8
330
1D0
100
AcDbEntity
  8
0
  6
SLD-SOLID
 62
     7
100
AcDbLine
 10
5.3250277332
 20
10.2161417323
 30
0.0
 11
5.3250277332
 21
9.6541763341
 31
0.0
  0
MTEXT
  5
1D9
330
1D0
100
AcDbEntity
  8
0
  6
SLD-SOLID
 62
     7
100
AcDbMText
 10
5.1633957838
 20
9.6168723094
 30
0.0
 40
0.125
 41
0.0
 71
     1
 72
     1
  1
.591
  7
SLDTEXTSTYLE0
  0
ENDBLK
  5
1D2
330
1D0
100
AcDbEntity
  8
0
100
AcDbBlockEnd
  0
BLOCK
  5
1DD
330
1DC
100
AcDbEntity
  8
0
100
AcDbBlockBegin
  2
_D_5
 70
     0
 10
0.0
 20
0.0
 30
0.0
  3
_D_5
  1

  0
ARC
  5
1DF
330
1DC
100
AcDbEntity
  8
0
  6
SLD-SOLID
 62
     7
100
AcDbCircle
 10
2.6281773395
 20
8.8890512109
 30
0.0
 40
0.5511811023622034
100
AcDbArc
 50
226.3162121757
 51
354.8166413142
  0
SOLID
  5
1E0
330
1DC
100
AcDbEntity
  8
0
  6
SLD-SOLID
 62
     7
100
AcDbTrace
 10
2.3450731033
 20
8.4161319799
 30
0.0
 11
2.4290054717
 21
8.5174007191
 31
0.0
 12
2.3946850475
 22
8.537945998
 32
0.0
 13
2.3946850475
 23
8.537945998
 33
0.0
  0
LINE
  5
1E1
330
1DC
100
AcDbEntity
  8
0
  6
SLD-SOLID
 62
     7
100
AcDbLine
 10
2.6281773395
 20
8.8890512109
 30
0.0
 11
2.5792115762
 21
8.8072550093
 31
0.0
  0
LINE
  5
1E2
330
1DC
100
AcDbEntity
  8
0
  6
SLD-SOLID
 62
     7
100
AcDbLine
 10
2.3450731033
 20
8.4161319799
 30
0.0
 11
2.4604206815
 21
8.6088175034
 31
0.0
  0
MTEXT
  5
1E3
330
1DC
100
AcDbEntity
  8
0
  6
SLD-SOLID
 62
     7
100
AcDbMText
 10
2.3075765506
 20
8.7699509846
 30
0.0
 40
0.125
 41
0.0
 71
     1
 72
     1
  1
R.276
  7
SLDTEXTSTYLE0
  0
ENDBLK
  5
1DE
330
1DC
100
AcDbEntity
  8
0
100
AcDbBlockEnd
  0
BLOCK
  5
1F9
330
1F8
100
AcDbEntity
  8
0
100
AcDbBlockBegin
  2
_D_6
 70
     0
 10
0.0
 20
0.0
 30
0.0
  3
_D_6
  1

  0
LINE
  5
1FB
330
1F8
100
AcDbEntity
  8
0
  6
SLD-SOLID
 62
     7
100
AcDbLine
 10
7.00527953
 20
6.8702917339
 30
0.0
 11
7.00527953
 21
7.0687292399
 31
0.0
  0
LINE
  5
1FC
330
1F8
100
AcDbEntity
  8
0
  6
SLD-SOLID
 62
     7
100
AcDbLine
 10
7.00527953
 20
7.0687292399
 30
0.0
 11
7.4047153009
 21
7.0687292399
 31
0.0
  0
LINE
  5
1FD
330
1F8
100
AcDbEntity
  8
0
  6
SLD-SOLID
 62
     7
100
AcDbLine
 10
7.4047153009
 20
7.0687292399
 30
0.0
 11
7.4047153009
 21
6.8702917339
 31
0.0
  0
LINE
  5
1FE
330
1F8
100
AcDbEntity
  8
0
  6
SLD-SOLID
 62
     7
100
AcDbLine
 10
7.4047153009
 20
6.8702917339
 30
0.0
 11
7.00527953
 21
6.8702917339
 31
0.0
  0
LINE
  5
1FF
330
1F8
100
AcDbEntity
  8
0
  6
SLD-SOLID
 62
     7
100
AcDbLine
 10
9.4578740157
 20
6.9695104869
 30
0.0
 11
7.4174106037
 21
6.9695104869
 31
0.0
  0
MTEXT
  5
200
330
1F8
100
AcDbEntity
  8
0
  6
SLD-SOLID
 62
     7
100
AcDbMText
 10
7.0433654659
 20
7.0314252151
 30
0.0
 40
0.125
 41
0.0
 71
     1
 72
     1
  1
.000
  7
SLDTEXTSTYLE0
  0
ENDBLK
  5
1FA
330
1F8
100
AcDbEntity
  8
0
100
AcDbBlockEnd
  0
BLOCK
  5
204
330
203
100
AcDbEntity
  8
0
100
AcDbBlockBegin
  2
_D_7
 70
     0
 10
0.0
 20
0.0
 30
0.0
  3
_D_7
  1

  0
LINE
  5
206
330
203
100
AcDbEntity
  8
0
  6
SLD-SOLID
 62
     7
100
AcDbLine
 10
7.00527953
 20
6.1043609421
 30
0.0
 11
7.00527953
 21
6.3027984481
 31
0.0
  0
LINE
  5
207
330
203
100
AcDbEntity
  8
0
  6
SLD-SOLID
 62
     7
100
AcDbLine
 10
7.00527953
 20
6.3027984481
 30
0.0
 11
7.4047153009
 21
6.3027984481
 31
0.0
  0
LINE
  5
208
330
203
100
AcDbEntity
  8
0
  6
SLD-SOLID
 62
     7
100
AcDbLine
 10
7.4047153009
 20
6.3027984481
 30
0.0
 11
7.4047153009
 21
6.1043609421
 31
0.0
  0
LINE
  5
209
330
203
100
AcDbEntity
  8
0
  6
SLD-SOLID
 62
     7
100
AcDbLine
 10
7.4047153009
 20
6.1043609421
 30
0.0
 11
7.00527953
 21
6.1043609421
 31
0.0
  0
LINE
  5
20A
330
203
100
AcDbEntity
  8
0
  6
SLD-SOLID
 62
     7
100
AcDbLine
 10
7.6142609974
 20
6.2035796951
 30
0.0
 11
7.4174106037
 21
6.2035796951
 31
0.0
  0
LINE
  5
20B
330
203
100
AcDbEntity
  8
0
  6
SLD-SOLID
 62
     7
100
AcDbLine
 10
7.6142609974
 20
6.2035796951
 30
0.0
 11
7.8111113911
 21
6.1821089121
 31
0.0
  0
LINE
  5
20C
330
203
100
AcDbEntity
  8
0
  6
SLD-SOLID
 62
     7
100
AcDbLine
 10
7.8111113911
 20
6.1821089121
 30
0.0
 11
10.0484251969
 21
6.1821089121
 31
0.0
  0
MTEXT
  5
20D
330
203
100
AcDbEntity
  8
0
  6
SLD-SOLID
 62
     7
100
AcDbMText
 10
7.0433654659
 20
6.2654944234
 30
0.0
 40
0.125
 41
0.0
 71
     1
 72
     1
  1
.394
  7
SLDTEXTSTYLE0
  0
ENDBLK
  5
205
330
203
100
AcDbEntity
  8
0
100
AcDbBlockEnd
  0
BLOCK
  5
210
330
20F
100
AcDbEntity
  8
0
100
AcDbBlockBegin
  2
_D_8
 70
     0
 10
0.0
 20
0.0
 30
0.0
  3
_D_8
  1

  0
LINE
  5
212
330
20F
100
AcDbEntity
  8
0
  6
SLD-SOLID
 62
     7
100
AcDbLine
 10
7.00527953
 20
5.5828901591
 30
0.0
 11
7.00527953
 21
5.7813276651
 31
0.0
  0
LINE
  5
213
330
20F
100
AcDbEntity
  8
0
  6
SLD-SOLID
 62
     7
100
AcDbLine
 10
7.00527953
 20
5.7813276651
 30
0.0
 11
7.4047153009
 21
5.7813276651
 31
0.0
  0
LINE
  5
214
330
20F
100
AcDbEntity
  8
0
  6
SLD-SOLID
 62
     7
100
AcDbLine
 10
7.4047153009
 20
5.7813276651
 30
0.0
 11
7.4047153009
 21
5.5828901591
 31
0.0
  0
LINE
  5
215
330
20F
100
AcDbEntity
  8
0
  6
SLD-SOLID
 62
     7
100
AcDbLine
 10
7.4047153009
 20
5.5828901591
 30
0.0
 11
7.00527953
 21
5.5828901591
 31
0.0
  0
LINE
  5
216
330
20F
100
AcDbEntity
  8
0
  6
SLD-SOLID
 62
     7
100
AcDbLine
 10
9.4578740157
 20
5.6821089121
 30
0.0
 11
7.4174106037
 21
5.6821089121
 31
0.0
  0
MTEXT
  5
217
330
20F
100
AcDbEntity
  8
0
  6
SLD-SOLID
 62
     7
100
AcDbMText
 10
7.0433654659
 20
5.7440236403
 30
0.0
 40
0.125
 41
0.0
 71
     1
 72
     1
  1
.644
  7
SLDTEXTSTYLE0
  0
ENDBLK
  5
211
330
20F
100
AcDbEntity
  8
0
100
AcDbBlockEnd
  0
BLOCK
  5
21A
330
219
100
AcDbEntity
  8
0
100
AcDbBlockBegin
  2
_D_9
 70
     0
 10
0.0
 20
0.0
 30
0.0
  3
_D_9
  1

  0
LINE
  5
21C
330
219
100
AcDbEntity
  8
0
  6
SLD-SOLID
 62
     7
100
AcDbLine
 10
6.9129184369
 20
4.7034490325
 30
0.0
 11
6.9129184369
 21
4.9018865385
 31
0.0
  0
LINE
  5
21D
330
219
100
AcDbEntity
  8
0
  6
SLD-SOLID
 62
     7
100
AcDbLine
 10
6.9129184369
 20
4.9018865385
 30
0.0
 11
7.4047153009
 21
4.9018865385
 31
0.0
  0
LINE
  5
21E
330
219
100
AcDbEntity
  8
0
  6
SLD-SOLID
 62
     7
100
AcDbLine
 10
7.4047153009
 20
4.9018865385
 30
0.0
 11
7.4047153009
 21
4.7034490325
 31
0.0
  0
LINE
  5
21F
330
219
100
AcDbEntity
  8
0
  6
SLD-SOLID
 62
     7
100
AcDbLine
 10
7.4047153009
 20
4.7034490325
 30
0.0
 11
6.9129184369
 21
4.7034490325
 31
0.0
  0
LINE
  5
220
330
219
100
AcDbEntity
  8
0
  6
SLD-SOLID
 62
     7
100
AcDbLine
 10
7.6142609974
 20
4.8026677855
 30
0.0
 11
7.4174106037
 21
4.8026677855
 31
0.0
  0
LINE
  5
221
330
219
100
AcDbEntity
  8
0
  6
SLD-SOLID
 62
     7
100
AcDbLine
 10
7.6142609974
 20
4.8026677855
 30
0.0
 11
7.8111113911
 21
4.5627968362
 31
0.0
  0
LINE
  5
222
330
219
100
AcDbEntity
  8
0
  6
SLD-SOLID
 62
     7
100
AcDbLine
 10
7.8111113911
 20
4.5627968362
 30
0.0
 11
8.2042322835
 21
4.5627968362
 31
0.0
  0
MTEXT
  5
223
330
219
100
AcDbEntity
  8
0
  6
SLD-SOLID
 62
     7
100
AcDbMText
 10
6.9510043729
 20
4.8645825137
 30
0.0
 40
0.125
 41
0.0
 71
     1
 72
     1
  1
1.203
  7
SLDTEXTSTYLE0
  0
ENDBLK
  5
21B
330
219
100
AcDbEntity
  8
0
100
AcDbBlockEnd
  0
BLOCK
  5
226
330
225
100
AcDbEntity
  8
0
100
AcDbBlockBegin
  2
_D_10
 70
     0
 10
0.0
 20
0.0
 30
0.0
  3
_D_10
  1

  0
LINE
  5
228
330
225
100
AcDbEntity
  8
0
  6
SLD-SOLID
 62
     7
100
AcDbLine
 10
6.9129184369
 20
2.9145830725
 30
0.0
 11
6.9129184369
 21
3.1130205785
 31
0.0
  0
LINE
  5
229
330
225
100
AcDbEntity
  8
0
  6
SLD-SOLID
 62
     7
100
AcDbLine
 10
6.9129184369
 20
3.1130205785
 30
0.0
 11
7.4047153009
 21
3.1130205785
 31
0.0
  0
LINE
  5
22A
330
225
100
AcDbEntity
  8
0
  6
SLD-SOLID
 62
     7
100
AcDbLine
 10
7.4047153009
 20
3.1130205785
 30
0.0
 11
7.4047153009
 21
2.9145830725
 31
0.0
  0
LINE
  5
22B
330
225
100
AcDbEntity
  8
0
  6
SLD-SOLID
 62
     7
100
AcDbLine
 10
7.4047153009
 20
2.9145830725
 30
0.0
 11
6.9129184369
 21
2.9145830725
 31
0.0
  0
LINE
  5
22C
330
225
100
AcDbEntity
  8
0
  6
SLD-SOLID
 62
     7
100
AcDbLine
 10
8.2042322835
 20
3.0138018255
 30
0.0
 11
7.4174106037
 21
3.0138018255
 31
0.0
  0
MTEXT
  5
22D
330
225
100
AcDbEntity
  8
0
  6
SLD-SOLID
 62
     7
100
AcDbMText
 10
6.9510043729
 20
3.0757165537
 30
0.0
 40
0.125
 41
0.0
 71
     1
 72
     1
  1
1.978
  7
SLDTEXTSTYLE0
  0
ENDBLK
  5
227
330
225
100
AcDbEntity
  8
0
100
AcDbBlockEnd
  0
BLOCK
  5
230
330
22F
100
AcDbEntity
  8
0
100
AcDbBlockBegin
  2
_D_11
 70
     0
 10
0.0
 20
0.0
 30
0.0
  3
_D_11
  1

  0
LINE
  5
232
330
22F
100
AcDbEntity
  8
0
  6
SLD-SOLID
 62
     7
100
AcDbLine
 10
6.9129184369
 20
2.5395830725
 30
0.0
 11
6.9129184369
 21
2.7380205785
 31
0.0
  0
LINE
  5
233
330
22F
100
AcDbEntity
  8
0
  6
SLD-SOLID
 62
     7
100
AcDbLine
 10
6.9129184369
 20
2.7380205785
 30
0.0
 11
7.4047153009
 21
2.7380205785
 31
0.0
  0
LINE
  5
234
330
22F
100
AcDbEntity
  8
0
  6
SLD-SOLID
 62
     7
100
AcDbLine
 10
7.4047153009
 20
2.7380205785
 30
0.0
 11
7.4047153009
 21
2.5395830725
 31
0.0
  0
LINE
  5
235
330
22F
100
AcDbEntity
  8
0
  6
SLD-SOLID
 62
     7
100
AcDbLine
 10
7.4047153009
 20
2.5395830725
 30
0.0
 11
6.9129184369
 21
2.5395830725
 31
0.0
  0
LINE
  5
236
330
22F
100
AcDbEntity
  8
0
  6
SLD-SOLID
 62
     7
100
AcDbLine
 10
8.512992126
 20
2.6388018255
 30
0.0
 11
7.4174106037
 21
2.6388018255
 31
0.0
  0
MTEXT
  5
237
330
22F
100
AcDbEntity
  8
0
  6
SLD-SOLID
 62
     7
100
AcDbMText
 10
6.9510043729
 20
2.7007165537
 30
0.0
 40
0.125
 41
0.0
 71
     1
 72
     1
  1
2.165
  7
SLDTEXTSTYLE0
  0
ENDBLK
  5
231
330
22F
100
AcDbEntity
  8
0
100
AcDbBlockEnd
  0
BLOCK
  5
23B
330
23A
100
AcDbEntity
  8
0
100
AcDbBlockBegin
  2
_D_12
 70
     0
 10
0.0
 20
0.0
 30
0.0
  3
_D_12
  1

  0
LINE
  5
23D
330
23A
100
AcDbEntity
  8
0
  6
SLD-SOLID
 62
     7
100
AcDbLine
 10
10.7881951309
 20
8.3667255552
 30
0.0
 11
10.589757625
 21
8.3667255552
 31
0.0
  0
LINE
  5
23E
330
23A
100
AcDbEntity
  8
0
  6
SLD-SOLID
 62
     7
100
AcDbLine
 10
10.589757625
 20
8.3667255552
 30
0.0
 11
10.589757625
 21
8.7661613261
 31
0.0
  0
LINE
  5
23F
330
23A
100
AcDbEntity
  8
0
  6
SLD-SOLID
 62
     7
100
AcDbLine
 10
10.589757625
 20
8.7661613261
 30
0.0
 11
10.7881951309
 21
8.7661613261
 31
0.0
  0
LINE
  5
240
330
23A
100
AcDbEntity
  8
0
  6
SLD-SOLID
 62
     7
100
AcDbLine
 10
10.7881951309
 20
8.7661613261
 30
0.0
 11
10.7881951309
 21
8.3667255552
 31
0.0
  0
LINE
  5
241
330
23A
100
AcDbEntity
  8
0
  6
SLD-SOLID
 62
     7
100
AcDbLine
 10
10.688976378
 20
7.0195104869
 30
0.0
 11
10.688976378
 21
8.3540302432
 31
0.0
  0
MTEXT
  5
242
330
23A
100
AcDbEntity
  8
0
  6
SLD-SOLID
 62
     7
100
AcDbMText
 10
10.6270616497
 20
8.4048114912
 30
0.0
 40
0.125
 41
0.0
 71
     1
 72
     1
  1
.000
  7
SLDTEXTSTYLE0
 11
6.123233995736766E-17
 21
1.0
 31
0.0
  0
ENDBLK
  5
23C
330
23A
100
AcDbEntity
  8
0
100
AcDbBlockEnd
  0
BLOCK
  5
245
330
244
100
AcDbEntity
  8
0
100
AcDbBlockBegin
  2
_D_13
 70
     0
 10
0.0
 20
0.0
 30
0.0
  3
_D_13
  1

  0
LINE
  5
247
330
244
100
AcDbEntity
  8
0
  6
SLD-SOLID
 62
     7
100
AcDbLine
 10
10.1564881274
 20
8.3667255552
 30
0.0
 11
9.9580506215
 21
8.3667255552
 31
0.0
  0
LINE
  5
248
330
244
100
AcDbEntity
  8
0
  6
SLD-SOLID
 62
     7
100
AcDbLine
 10
9.9580506215
 20
8.3667255552
 30
0.0
 11
9.9580506215
 21
8.7661613261
 31
0.0
  0
LINE
  5
249
330
244
100
AcDbEntity
  8
0
  6
SLD-SOLID
 62
     7
100
AcDbLine
 10
9.9580506215
 20
8.7661613261
 30
0.0
 11
10.1564881274
 21
8.7661613261
 31
0.0
  0
LINE
  5
24A
330
244
100
AcDbEntity
  8
0
  6
SLD-SOLID
 62
     7
100
AcDbLine
 10
10.1564881274
 20
8.7661613261
 30
0.0
 11
10.1564881274
 21
8.3667255552
 31
0.0
  0
LINE
  5
24B
330
244
100
AcDbEntity
  8
0
  6
SLD-SOLID
 62
     7
100
AcDbLine
 10
10.0572693744
 20
8.1571798495
 30
0.0
 11
10.0572693744
 21
8.3540302432
 31
0.0
  0
LINE
  5
24C
330
244
100
AcDbEntity
  8
0
  6
SLD-SOLID
 62
     7
100
AcDbLine
 10
10.0572693744
 20
8.1571798495
 30
0.0
 11
10.0984251969
 21
7.9603294558
 31
0.0
  0
LINE
  5
24D
330
244
100
AcDbEntity
  8
0
  6
SLD-SOLID
 62
     7
100
AcDbLine
 10
10.0984251969
 20
7.9603294558
 30
0.0
 11
10.0984251969
 21
6.2321089121
 31
0.0
  0
MTEXT
  5
24E
330
244
100
AcDbEntity
  8
0
  6
SLD-SOLID
 62
     7
100
AcDbMText
 10
9.9953546462
 20
8.4048114912
 30
0.0
 40
0.125
 41
0.0
 71
     1
 72
     1
  1
.295
  7
SLDTEXTSTYLE0
 11
6.123233995736766E-17
 21
1.0
 31
0.0
  0
ENDBLK
  5
246
330
244
100
AcDbEntity
  8
0
100
AcDbBlockEnd
  0
BLOCK
  5
251
330
250
100
AcDbEntity
  8
0
100
AcDbBlockBegin
  2
_D_14
 70
     0
 10
0.0
 20
0.0
 30
0.0
  3
_D_14
  1

  0
LINE
  5
253
330
250
100
AcDbEntity
  8
0
  6
SLD-SOLID
 62
     7
100
AcDbLine
 10
9.2133919813
 20
8.3667255552
 30
0.0
 11
9.0149544754
 21
8.3667255552
 31
0.0
  0
LINE
  5
254
330
250
100
AcDbEntity
  8
0
  6
SLD-SOLID
 62
     7
100
AcDbLine
 10
9.0149544754
 20
8.3667255552
 30
0.0
 11
9.0149544754
 21
8.7661613261
 31
0.0
  0
LINE
  5
255
330
250
100
AcDbEntity
  8
0
  6
SLD-SOLID
 62
     7
100
AcDbLine
 10
9.0149544754
 20
8.7661613261
 30
0.0
 11
9.2133919813
 21
8.7661613261
 31
0.0
  0
LINE
  5
256
330
250
100
AcDbEntity
  8
0
  6
SLD-SOLID
 62
     7
100
AcDbLine
 10
9.2133919813
 20
8.7661613261
 30
0.0
 11
9.2133919813
 21
8.3667255552
 31
0.0
  0
LINE
  5
257
330
250
100
AcDbEntity
  8
0
  6
SLD-SOLID
 62
     7
100
AcDbLine
 10
9.1141732283
 20
5.4762034003
 30
0.0
 11
9.1141732283
 21
8.3540302432
 31
0.0
  0
MTEXT
  5
258
330
250
100
AcDbEntity
  8
0
  6
SLD-SOLID
 62
     7
100
AcDbMText
 10
9.0522585001
 20
8.4048114912
 30
0.0
 40
0.125
 41
0.0
 71
     1
 72
     1
  1
.787
  7
SLDTEXTSTYLE0
 11
6.123233995736766E-17
 21
1.0
 31
0.0
  0
ENDBLK
  5
252
330
250
100
AcDbEntity
  8
0
100
AcDbBlockEnd
  0
BLOCK
  5
25B
330
25A
100
AcDbEntity
  8
0
100
AcDbBlockBegin
  2
_D_15
 70
     0
 10
0.0
 20
0.0
 30
0.0
  3
_D_15
  1

  0
LINE
  5
25D
330
25A
100
AcDbEntity
  8
0
  6
SLD-SOLID
 62
     7
100
AcDbLine
 10
8.7409510364
 20
8.3667255552
 30
0.0
 11
8.5425135305
 21
8.3667255552
 31
0.0
  0
LINE
  5
25E
330
25A
100
AcDbEntity
  8
0
  6
SLD-SOLID
 62
     7
100
AcDbLine
 10
8.5425135305
 20
8.3667255552
 30
0.0
 11
8.5425135305
 21
8.8585224191
 31
0.0
  0
LINE
  5
25F
330
25A
100
AcDbEntity
  8
0
  6
SLD-SOLID
 62
     7
100
AcDbLine
 10
8.5425135305
 20
8.8585224191
 30
0.0
 11
8.7409510364
 21
8.8585224191
 31
0.0
  0
LINE
  5
260
330
25A
100
AcDbEntity
  8
0
  6
SLD-SOLID
 62
     7
100
AcDbLine
 10
8.7409510364
 20
8.8585224191
 30
0.0
 11
8.7409510364
 21
8.3667255552
 31
0.0
  0
LINE
  5
261
330
25A
100
AcDbEntity
  8
0
  6
SLD-SOLID
 62
     7
100
AcDbLine
 10
8.6417322835
 20
5.0002968362
 30
0.0
 11
8.6417322835
 21
8.3540302432
 31
0.0
  0
MTEXT
  5
262
330
25A
100
AcDbEntity
  8
0
  6
SLD-SOLID
 62
     7
100
AcDbMText
 10
8.5798175552
 20
8.4048114912
 30
0.0
 40
0.125
 41
0.0
 71
     1
 72
     1
  1
1.024
  7
SLDTEXTSTYLE0
 11
6.123233995736766E-17
 21
1.0
 31
0.0
  0
ENDBLK
  5
25C
330
25A
100
AcDbEntity
  8
0
100
AcDbBlockEnd
  0
BLOCK
  5
266
330
265
100
AcDbEntity
  8
0
100
AcDbBlockBegin
  2
_D_16
 70
     0
 10
0.0
 20
0.0
 30
0.0
  3
_D_16
  1

  0
LINE
  5
268
330
265
100
AcDbEntity
  8
0
  6
SLD-SOLID
 62
     7
100
AcDbLine
 10
8.1692913386
 20
6.6258096995
 30
0.0
 11
8.1692913386
 21
8.3540302432
 31
0.0
  0
MTEXT
  5
269
330
265
100
AcDbEntity
  8
0
  6
SLD-SOLID
 62
     7
100
AcDbMText
 10
8.1073766103
 20
8.3540302432
 30
0.0
 40
0.125
 41
0.0
 71
     1
 72
     1
  1
1.260
  7
SLDTEXTSTYLE0
 11
6.123233995736766E-17
 21
1.0
 31
0.0
  0
ENDBLK
  5
267
330
265
100
AcDbEntity
  8
0
100
AcDbBlockEnd
  0
BLOCK
  5
26D
330
26C
100
AcDbEntity
  8
0
100
AcDbBlockBegin
  2
_D_17
 70
     0
 10
0.0
 20
0.0
 30
0.0
  3
_D_17
  1

  0
SOLID
  5
26F
330
26C
100
AcDbEntity
  8
0
  6
SLD-SOLID
 62
     7
100
AcDbTrace
 10
10.1868135445
 20
6.0937205644
 30
0.0
 11
10.2645952904
 21
5.9876545473
 31
0.0
 12
10.2928795617
 22
6.0159388185
 32
0.0
 13
10.2928795617
 23
6.0159388185
 33
0.0
  0
LINE
  5
270
330
26C
100
AcDbEntity
  8
0
  6
SLD-SOLID
 62
     7
100
AcDbLine
 10
10.1868135445
 20
6.0937205644
 30
0.0
 11
11.4487794305
 21
4.8317546785
 31
0.0
  0
LINE
  5
271
330
26C
100
AcDbEntity
  8
0
  6
SLD-SOLID
 62
     7
100
AcDbLine
 10
11.4487794305
 20
4.8317546785
 30
0.0
 11
11.6987794305
 21
4.8317546785
 31
0.0
  0
MTEXT
  5
272
330
26C
100
AcDbEntity
  8
0
  6
SLD-SOLID
 62
     7
100
AcDbMText
 10
11.6987794305
 20
4.9014819129
 30
0.0
 40
0.125
 41
0.0
 71
     1
 72
     1
  1
%%c
  7
SLDTEXTSTYLE0
  0
MTEXT
  5
273
330
26C
100
AcDbEntity
  8
0
  6
SLD-SOLID
 62
     7
100
AcDbMText
 10
11.934170051
 20
4.9033916353
 30
0.0
 40
0.125
 41
0.0
 71
     1
 72
     1
  1
.1250
  7
SLDTEXTSTYLE0
  0
MTEXT
  5
274
330
26C
100
AcDbEntity
  8
0
  6
SLD-SOLID
 62
     7
100
AcDbMText
 10
12.3491005712
 20
4.9928881528
 30
0.0
 40
0.125
 41
0.0
 71
     1
 72
     1
  1
+
  7
SLDTEXTSTYLE0
  0
MTEXT
  5
275
330
26C
100
AcDbEntity
  8
0
  6
SLD-SOLID
 62
     7
100
AcDbMText
 10
12.3719304339
 20
4.8312562034
 30
0.0
 40
0.125
 41
0.0
 71
     1
 72
     1
  1
-
  7
SLDTEXTSTYLE0
  0
MTEXT
  5
276
330
26C
100
AcDbEntity
  8
0
  6
SLD-SOLID
 62
     7
100
AcDbMText
 10
12.4501422506
 20
4.9928881528
 30
0.0
 40
0.125
 41
0.0
 71
     1
 72
     1
  1
.0005
  7
SLDTEXTSTYLE0
  0
MTEXT
  5
277
330
26C
100
AcDbEntity
  8
0
  6
SLD-SOLID
 62
     7
100
AcDbMText
 10
12.4501422506
 20
4.8312562034
 30
0.0
 40
0.125
 41
0.0
 71
     1
 72
     1
  1
.0000
  7
SLDTEXTSTYLE0
  0
MTEXT
  5
278
330
26C
100
AcDbEntity
  8
0
  6
SLD-SOLID
 62
     7
100
AcDbMText
 10
12.9126422426
 20
4.9033916353
 30
0.0
 40
0.125
 41
0.0
 71
     1
 72
     1
  1
THRU ALL
  7
SLDTEXTSTYLE0
  0
ENDBLK
  5
26E
330
26C
100
AcDbEntity
  8
0
100
AcDbBlockEnd
  0
BLOCK
  5
27C
330
27B
100
AcDbEntity
  8
0
100
AcDbBlockBegin
  2
_D_18
 70
     0
 10
0.0
 20
0.0
 30
0.0
  3
_D_18
  1

  0
SOLID
  5
27E
330
27B
100
AcDbEntity
  8
0
  6
SLD-SOLID
 62
     7
100
AcDbTrace
 10
8.460621191
 20
4.5142682653
 30
0.0
 11
8.3298744527
 21
4.4999403059
 31
0.0
 12
8.3402272145
 22
4.4613032729
 32
0.0
 13
8.3402272145
 23
4.4613032729
 33
0.0
  0
LINE
  5
27F
330
27B
100
AcDbEntity
  8
0
  6
SLD-SOLID
 62
     7
100
AcDbLine
 10
8.460621191
 20
4.5142682653
 30
0.0
 11
7.0946567218
 21
4.1482591888
 31
0.0
  0
LINE
  5
280
330
27B
100
AcDbEntity
  8
0
  6
SLD-SOLID
 62
     7
100
AcDbLine
 10
7.0946567218
 20
4.1482591888
 30
0.0
 11
6.8446567218
 21
4.1482591888
 31
0.0
  0
MTEXT
  5
281
330
27B
100
AcDbEntity
  8
0
  6
SLD-SOLID
 62
     7
100
AcDbMText
 10
5.2818358423
 20
4.2111287702
 30
0.0
 40
0.125
 41
0.0
 71
     1
 72
     1
  1
2X
  7
SLDTEXTSTYLE0
  0
MTEXT
  5
282
330
27B
100
AcDbEntity
  8
0
  6
SLD-SOLID
 62
     7
100
AcDbMText
 10
5.5219400053
 20
4.2092190479
 30
0.0
 40
0.125
 41
0.0
 71
     1
 72
     1
  1
%%c
  7
SLDTEXTSTYLE0
  0
MTEXT
  5
283
330
27B
100
AcDbEntity
  8
0
  6
SLD-SOLID
 62
     7
100
AcDbMText
 10
5.7573306442
 20
4.2111287702
 30
0.0
 40
0.125
 41
0.0
 71
     1
 72
     1
  1
.188 THRU ALL
  7
SLDTEXTSTYLE0
  0
ENDBLK
  5
27D
330
27B
100
AcDbEntity
  8
0
100
AcDbBlockEnd
  0
BLOCK
  5
287
330
286
100
AcDbEntity
  8
0
100
AcDbBlockBegin
  2
_D_19
 70
     0
 10
0.0
 20
0.0
 30
0.0
  3
_D_19
  1

  0
SOLID
  5
289
330
286
100
AcDbEntity
  8
0
  6
SLD-SOLID
 62
     7
100
AcDbTrace
 10
9.1984305621
 20
5.6160047015
 30
0.0
 11
9.1260669893
 21
5.7258387278
 31
0.0
 12
9.0963995859
 22
5.6990087972
 32
0.0
 13
9.0963995859
 23
5.6990087972
 33
0.0
  0
LINE
  5
28A
330
286
100
AcDbEntity
  8
0
  6
SLD-SOLID
 62
     7
100
AcDbLine
 10
9.1984305621
 20
5.6160047015
 30
0.0
 11
9.6854980715
 21
5.0774260339
 31
0.0
  0
LINE
  5
28B
330
286
100
AcDbEntity
  8
0
  6
SLD-SOLID
 62
     7
100
AcDbLine
 10
9.1984305621
 20
5.6160047015
 30
0.0
 11
9.0307434958
 21
5.8014259726
 31
0.0
  0
LINE
  5
28C
330
286
100
AcDbEntity
  8
0
  6
SLD-SOLID
 62
     7
100
AcDbLine
 10
9.6854980715
 20
5.0774260339
 30
0.0
 11
9.9354980715
 21
5.0774260339
 31
0.0
  0
MTEXT
  5
28D
330
286
100
AcDbEntity
  8
0
  6
SLD-SOLID
 62
     7
100
AcDbMText
 10
9.9354980715
 20
5.1393407622
 30
0.0
 40
0.125
 41
0.0
 71
     1
 72
     1
  1
R.128
  7
SLDTEXTSTYLE0
  0
ENDBLK
  5
288
330
286
100
AcDbEntity
  8
0
100
AcDbBlockEnd
  0
BLOCK
  5
294
330
293
100
AcDbEntity
  8
0
100
AcDbBlockBegin
  2
SW_CENTERMARKSYMBOL_0
 70
     0
 10
0.0
 20
0.0
 30
0.0
  3
SW_CENTERMARKSYMBOL_0
  1

  0
LINE
  5
296
330
293
100
AcDbEntity
  8
0
  6
SLD-SOLID
 62
     0
100
AcDbLine
 10
0.0
 20
0.0
 30
0.0
 11
0.0
 21
0.2
 31
0.0
  0
LINE
  5
297
330
293
100
AcDbEntity
  8
0
  6
SLD-SOLID
 62
     0
100
AcDbLine
 10
0.0
 20
0.0
 30
0.0
 11
-0.2
 21
0.0
 31
0.0
  0
LINE
  5
298
330
293
100
AcDbEntity
  8
0
  6
SLD-SOLID
 62
     0
100
AcDbLine
 10
0.0
 20
0.0
 30
0.0
 11
0.0
 21
-0.2
 31
0.0
  0
LINE
  5
299
330
293
100
AcDbEntity
  8
0
  6
SLD-SOLID
 62
     0
100
AcDbLine
 10
0.0
 20
0.0
 30
0.0
 11
0.2
 21
0.0
 31
0.0
  0
LINE
  5
29A
330
293
100
AcDbEntity
  8
0
  6
SLD-SOLID
 62
     0
100
AcDbLine
 10
0.0
 20
0.2
 30
0.0
 11
0.0
 21
0.3875
 31
0.0
  0
LINE
  5
29B
330
293
100
AcDbEntity
  8
0
  6
SLD-SOLID
 62
     0
100
AcDbLine
 10
-0.2
 20
0.0
 30
0.0
 11
-0.3875
 21
0.0
 31
0.0
  0
LINE
  5
29C
330
293
100
AcDbEntity
  8
0
  6
SLD-SOLID
 62
     0
100
AcDbLine
 10
0.0
 20
-0.2
 30
0.0
 11
0.0
 21
-0.3875
 31
0.0
  0
LINE
  5
29D
330
293
100
AcDbEntity
  8
0
  6
SLD-SOLID
 62
     0
100
AcDbLine
 10
0.2
 20
0.0
 30
0.0
 11
0.3875
 21
0.0
 31
0.0
  0
ENDBLK
  5
295
330
293
100
AcDbEntity
  8
0
100
AcDbBlockEnd
  0
BLOCK
  5
2A0
330
29F
100
AcDbEntity
  8
0
100
AcDbBlockBegin
  2
SW_CENTERMARKSYMBOL_1
 70
     0
 10
0.0
 20
0.0
 30
0.0
  3
SW_CENTERMARKSYMBOL_1
  1

  0
LINE
  5
2A2
330
29F
100
AcDbEntity
  8
0
  6
SLD-SOLID
 62
     0
100
AcDbLine
 10
0.0
 20
0.0
 30
0.0
 11
0.0
 21
0.2
 31
0.0
  0
LINE
  5
2A3
330
29F
100
AcDbEntity
  8
0
  6
SLD-SOLID
 62
     0
100
AcDbLine
 10
0.0
 20
0.0
 30
0.0
 11
-0.2
 21
0.0
 31
0.0
  0
LINE
  5
2A4
330
29F
100
AcDbEntity
  8
0
  6
SLD-SOLID
 62
     0
100
AcDbLine
 10
0.0
 20
0.0
 30
0.0
 11
0.0
 21
-0.2
 31
0.0
  0
LINE
  5
2A5
330
29F
100
AcDbEntity
  8
0
  6
SLD-SOLID
 62
     0
100
AcDbLine
 10
0.0
 20
0.0
 30
0.0
 11
0.2
 21
0.0
 31
0.0
  0
LINE
  5
2A6
330
29F
100
AcDbEntity
  8
0
  6
SLD-SOLID
 62
     0
100
AcDbLine
 10
0.0
 20
0.2
 30
0.0
 11
0.0
 21
0.3875
 31
0.0
  0
LINE
  5
2A7
330
29F
100
AcDbEntity
  8
0
  6
SLD-SOLID
 62
     0
100
AcDbLine
 10
-0.2
 20
0.0
 30
0.0
 11
-0.3875
 21
0.0
 31
0.0
  0
LINE
  5
2A8
330
29F
100
AcDbEntity
  8
0
  6
SLD-SOLID
 62
     0
100
AcDbLine
 10
0.0
 20
-0.2
 30
0.0
 11
0.0
 21
-0.3875
 31
0.0
  0
LINE
  5
2A9
330
29F
100
AcDbEntity
  8
0
  6
SLD-SOLID
 62
     0
100
AcDbLine
 10
0.2
 20
0.0
 30
0.0
 11
0.3875
 21
0.0
 31
0.0
  0
ENDBLK
  5
2A1
330
29F
100
AcDbEntity
  8
0
100
AcDbBlockEnd
  0
BLOCK
  5
2AC
330
2AB
100
AcDbEntity
  8
0
100
AcDbBlockBegin
  2
SW_DATUMTAG_1
 70
     0
 10
0.0
 20
0.0
 30
0.0
  3
SW_DATUMTAG_1
  1

  0
LINE
  5
2AE
330
2AB
100
AcDbEntity
  8
0
  6
SLD-SOLID
 62
     0
100
AcDbLine
 10
0.0616319443
 20
-0.4349654151
 30
0.0
 11
0.0616319443
 21
-0.0257812608
 31
0.0
  0
LINE
  5
2AF
330
2AB
100
AcDbEntity
  8
0
  6
SLD-SOLID
 62
     0
100
AcDbLine
 10
0.1866319443
 20
-0.0257812608
 30
0.0
 11
-0.0633680557
 21
-0.0257812608
 31
0.0
  0
LINE
  5
2B0
330
2AB
100
AcDbEntity
  8
0
  6
SLD-SOLID
 62
     0
100
AcDbLine
 10
-0.0633680557
 20
-0.0257812608
 30
0.0
 11
-0.0633680557
 21
0.2242187392
 31
0.0
  0
LINE
  5
2B1
330
2AB
100
AcDbEntity
  8
0
  6
SLD-SOLID
 62
     0
100
AcDbLine
 10
-0.0633680557
 20
0.2242187392
 30
0.0
 11
0.1866319443
 21
0.2242187392
 31
0.0
  0
LINE
  5
2B2
330
2AB
100
AcDbEntity
  8
0
  6
SLD-SOLID
 62
     0
100
AcDbLine
 10
0.1866319443
 20
0.2242187392
 30
0.0
 11
0.1866319443
 21
-0.0257812608
 31
0.0
  0
MTEXT
  5
2B3
330
2AB
100
AcDbEntity
  8
0
  6
CONTINUOUS
 62
     0
100
AcDbMText
 10
0.0
 20
0.1611334675
 30
0.0
 40
0.125
 41
0.0
 71
     1
 72
     1
  1
A
  7
SLDTEXTSTYLE0
  0
SOLID
  5
2B4
330
2AB
100
AcDbEntity
  8
0
  6
SLD-SOLID
 62
     0
100
AcDbTrace
 10
0.1241319443
 20
-0.4349654151
 30
0.0
 11
-0.0008680557
 21
-0.4349654151
 31
0.0
 12
0.0616319443
 22
-0.3099654151
 32
0.0
 13
0.0616319443
 23
-0.3099654151
 33
0.0
  0
ENDBLK
  5
2AD
330
2AB
100
AcDbEntity
  8
0
100
AcDbBlockEnd
  0
BLOCK
  5
2B7
330
2B6
100
AcDbEntity
  8
0
100
AcDbBlockBegin
  2
SW_DATUMTAG_2
 70
     0
 10
0.0
 20
0.0
 30
0.0
  3
SW_DATUMTAG_2
  1

  0
LINE
  5
2B9
330
2B6
100
AcDbEntity
  8
0
  6
SLD-SOLID
 62
     0
100
AcDbLine
 10
0.0677083337
 20
0.6561353465
 30
0.0
 11
0.0677083337
 21
0.2242187392
 31
0.0
  0
LINE
  5
2BA
330
2B6
100
AcDbEntity
  8
0
  6
SLD-SOLID
 62
     0
100
AcDbLine
 10
0.1927083337
 20
-0.0257812608
 30
0.0
 11
-0.0572916663
 21
-0.0257812608
 31
0.0
  0
LINE
  5
2BB
330
2B6
100
AcDbEntity
  8
0
  6
SLD-SOLID
 62
     0
100
AcDbLine
 10
-0.0572916663
 20
-0.0257812608
 30
0.0
 11
-0.0572916663
 21
0.2242187392
 31
0.0
  0
LINE
  5
2BC
330
2B6
100
AcDbEntity
  8
0
  6
SLD-SOLID
 62
     0
100
AcDbLine
 10
-0.0572916663
 20
0.2242187392
 30
0.0
 11
0.1927083337
 21
0.2242187392
 31
0.0
  0
LINE
  5
2BD
330
2B6
100
AcDbEntity
  8
0
  6
SLD-SOLID
 62
     0
100
AcDbLine
 10
0.1927083337
 20
0.2242187392
 30
0.0
 11
0.1927083337
 21
-0.0257812608
 31
0.0
  0
MTEXT
  5
2BE
330
2B6
100
AcDbEntity
  8
0
  6
CONTINUOUS
 62
     0
100
AcDbMText
 10
0.0
 20
0.1611334675
 30
0.0
 40
0.125
 41
0.0
 71
     1
 72
     1
  1
C
  7
SLDTEXTSTYLE0
  0
SOLID
  5
2BF
330
2B6
100
AcDbEntity
  8
0
  6
SLD-SOLID
 62
     0
100
AcDbTrace
 10
0.1302083337
 20
0.6561353465
 30
0.0
 11
0.0052083337
 21
0.6561353465
 31
0.0
 12
0.0677083337
 22
0.5311353465
 32
0.0
 13
0.0677083337
 23
0.5311353465
 33
0.0
  0
ENDBLK
  5
2B8
330
2B6
100
AcDbEntity
  8
0
100
AcDbBlockEnd
  0
BLOCK
  5
2C2
330
2C1
100
AcDbEntity
  8
0
100
AcDbBlockBegin
  2
SW_DOWELSYMBOL_1
 70
     0
 10
0.0
 20
0.0
 30
0.0
  3
SW_DOWELSYMBOL_1
  1

  0
CIRCLE
  5
2C4
330
2C1
100
AcDbEntity
  8
0
  6
CONTINUOUS
 62
     0
100
AcDbCircle
 10
0.0
 20
0.0
 30
0.0
 40
0.1249999999999993
  0
INSERT
  5
2C5
330
2C1
100
AcDbEntity
  8
0
  6
CONTINUOUS
 62
     0
100
AcDbBlockReference
  2
*U36
 10
0.0
 20
0.0
 30
0.0
  0
INSERT
  5
2C6
330
2C1
100
AcDbEntity
  8
0
  6
CONTINUOUS
 62
     0
100
AcDbBlockReference
  2
*U37
 10
0.0
 20
0.0
 30
0.0
  0
ENDBLK
  5
2C3
330
2C1
100
AcDbEntity
  8
0
100
AcDbBlockEnd
  0
BLOCK
  5
401
330
3BD
100
AcDbEntity
  8
0
100
AcDbBlockBegin
  2
*U34
 70
     1
 10
0.0
 20
0.0
 30
0.0
  3
*U34
  1

  0
SOLID
  5
3BE
330
3BD
100
AcDbEntity
  8
0
  6
CONTINUOUS
 62
     0
100
AcDbTrace
 10
0.0
 20
0.0
 30
0.0
 11
0.0
 21
0.375
 31
0.0
 12
0.0731588708
 22
0.0
 32
0.0
 13
0.0731588708
 23
0.0
 33
0.0
  0
SOLID
  5
3BF
330
3BD
100
AcDbEntity
  8
0
  6
CONTINUOUS
 62
     0
100
AcDbTrace
 10
0.0731588708
 20
0.0
 30
0.0
 11
0.0
 21
0.375
 31
0.0
 12
0.0731588708
 22
0.3677944802
 32
0.0
 13
0.0731588708
 23
0.3677944802
 33
0.0
  0
SOLID
  5
3C0
330
3BD
100
AcDbEntity
  8
0
  6
CONTINUOUS
 62
     0
100
AcDbTrace
 10
0.0731588708
 20
0.0
 30
0.0
 11
0.0731588708
 21
0.3677944802
 31
0.0
 12
0.1435062871
 22
0.0
 32
0.0
 13
0.1435062871
 23
0.0
 33
0.0
  0
SOLID
  5
3C1
330
3BD
100
AcDbEntity
  8
0
  6
CONTINUOUS
 62
     0
100
AcDbTrace
 10
0.1435062871
 20
0.0
 30
0.0
 11
0.0731588708
 21
0.3677944802
 31
0.0
 12
0.1435062871
 22
0.3464548247
 32
0.0
 13
0.1435062871
 23
0.3464548247
 33
0.0
  0
SOLID
  5
3C2
330
3BD
100
AcDbEntity
  8
0
  6
CONTINUOUS
 62
     0
100
AcDbTrace
 10
0.1435062871
 20
0.0
 30
0.0
 11
0.1435062871
 21
0.3464548247
 31
0.0
 12
0.2083388374
 22
0.0
 32
0.0
 13
0.2083388374
 23
0.0
 33
0.0
  0
SOLID
  5
3C3
330
3BD
100
AcDbEntity
  8
0
  6
CONTINUOUS
 62
     0
100
AcDbTrace
 10
0.2083388374
 20
0.0
 30
0.0
 11
0.1435062871
 21
0.3464548247
 31
0.0
 12
0.2083388374
 22
0.3118011046
 32
0.0
 13
0.2083388374
 23
0.3118011046
 33
0.0
  0
SOLID
  5
3C4
330
3BD
100
AcDbEntity
  8
0
  6
CONTINUOUS
 62
     0
100
AcDbTrace
 10
0.2083388374
 20
0.0
 30
0.0
 11
0.2083388374
 21
0.3118011046
 31
0.0
 12
0.2651650429
 22
0.0
 32
0.0
 13
0.2651650429
 23
0.0
 33
0.0
  0
SOLID
  5
3C5
330
3BD
100
AcDbEntity
  8
0
  6
CONTINUOUS
 62
     0
100
AcDbTrace
 10
0.2651650429
 20
0.0
 30
0.0
 11
0.2083388374
 21
0.3118011046
 31
0.0
 12
0.2651650429
 22
0.2651650429
 32
0.0
 13
0.2651650429
 23
0.2651650429
 33
0.0
  0
SOLID
  5
3C6
330
3BD
100
AcDbEntity
  8
0
  6
CONTINUOUS
 62
     0
100
AcDbTrace
 10
0.2651650429
 20
0.0
 30
0.0
 11
0.2651650429
 21
0.2651650429
 31
0.0
 12
0.3118011046
 22
0.0
 32
0.0
 13
0.3118011046
 23
0.0
 33
0.0
  0
SOLID
  5
3C7
330
3BD
100
AcDbEntity
  8
0
  6
CONTINUOUS
 62
     0
100
AcDbTrace
 10
0.3118011046
 20
0.0
 30
0.0
 11
0.2651650429
 21
0.2651650429
 31
0.0
 12
0.3118011046
 22
0.2083388374
 32
0.0
 13
0.3118011046
 23
0.2083388374
 33
0.0
  0
SOLID
  5
3C8
330
3BD
100
AcDbEntity
  8
0
  6
CONTINUOUS
 62
     0
100
AcDbTrace
 10
0.3118011046
 20
0.0
 30
0.0
 11
0.3118011046
 21
0.2083388374
 31
0.0
 12
0.3464548247
 22
0.0
 32
0.0
 13
0.3464548247
 23
0.0
 33
0.0
  0
SOLID
  5
3C9
330
3BD
100
AcDbEntity
  8
0
  6
CONTINUOUS
 62
     0
100
AcDbTrace
 10
0.3464548247
 20
0.0
 30
0.0
 11
0.3118011046
 21
0.2083388374
 31
0.0
 12
0.3464548247
 22
0.1435062871
 32
0.0
 13
0.3464548247
 23
0.1435062871
 33
0.0
  0
SOLID
  5
3CA
330
3BD
100
AcDbEntity
  8
0
  6
CONTINUOUS
 62
     0
100
AcDbTrace
 10
0.3464548247
 20
0.0
 30
0.0
 11
0.3464548247
 21
0.1435062871
 31
0.0
 12
0.3677944802
 22
0.0
 32
0.0
 13
0.3677944802
 23
0.0
 33
0.0
  0
SOLID
  5
3CB
330
3BD
100
AcDbEntity
  8
0
  6
CONTINUOUS
 62
     0
100
AcDbTrace
 10
0.3677944802
 20
0.0
 30
0.0
 11
0.3464548247
 21
0.1435062871
 31
0.0
 12
0.3677944802
 22
0.0731588708
 32
0.0
 13
0.3677944802
 23
0.0731588708
 33
0.0
  0
SOLID
  5
3CC
330
3BD
100
AcDbEntity
  8
0
  6
CONTINUOUS
 62
     0
100
AcDbTrace
 10
0.3677944802
 20
0.0
 30
0.0
 11
0.3677944802
 21
0.0731588708
 31
0.0
 12
0.375
 22
0.0
 32
0.0
 13
0.375
 23
0.0
 33
0.0
  0
ENDBLK
  5
402
330
3BD
100
AcDbEntity
  8
0
100
AcDbBlockEnd
  0
BLOCK
  5
403
330
3CD
100
AcDbEntity
  8
0
100
AcDbBlockBegin
  2
*U35
 70
     1
 10
0.0
 20
0.0
 30
0.0
  3
*U35
  1

  0
SOLID
  5
3CE
330
3CD
100
AcDbEntity
  8
0
  6
CONTINUOUS
 62
     0
100
AcDbTrace
 10
-0.3693029074
 20
-0.0651180666
 30
0.0
 11
-0.375
 21
0.0
 31
0.0
 12
-0.3693029074
 22
0.0
 32
0.0
 13
-0.3693029074
 23
0.0
 33
0.0
  0
SOLID
  5
3CF
330
3CD
100
AcDbEntity
  8
0
  6
CONTINUOUS
 62
     0
100
AcDbTrace
 10
-0.3693029074
 20
-0.0651180666
 30
0.0
 11
-0.3693029074
 21
0.0
 31
0.0
 12
-0.3523847328
 22
-0.1282575537
 32
0.0
 13
-0.3523847328
 23
-0.1282575537
 33
0.0
  0
SOLID
  5
3D0
330
3CD
100
AcDbEntity
  8
0
  6
CONTINUOUS
 62
     0
100
AcDbTrace
 10
-0.3523847328
 20
-0.1282575537
 30
0.0
 11
-0.3693029074
 21
0.0
 31
0.0
 12
-0.3523847328
 22
0.0
 32
0.0
 13
-0.3523847328
 23
0.0
 33
0.0
  0
SOLID
  5
3D1
330
3CD
100
AcDbEntity
  8
0
  6
CONTINUOUS
 62
     0
100
AcDbTrace
 10
-0.3523847328
 20
-0.1282575537
 30
0.0
 11
-0.3523847328
 21
0.0
 31
0.0
 12
-0.3247595264
 22
-0.1875
 32
0.0
 13
-0.3247595264
 23
-0.1875
 33
0.0
  0
SOLID
  5
3D2
330
3CD
100
AcDbEntity
  8
0
  6
CONTINUOUS
 62
     0
100
AcDbTrace
 10
-0.3247595264
 20
-0.1875
 30
0.0
 11
-0.3523847328
 21
0.0
 31
0.0
 12
-0.3247595264
 22
0.0
 32
0.0
 13
-0.3247595264
 23
0.0
 33
0.0
  0
SOLID
  5
3D3
330
3CD
100
AcDbEntity
  8
0
  6
CONTINUOUS
 62
     0
100
AcDbTrace
 10
-0.3247595264
 20
-0.1875
 30
0.0
 11
-0.3247595264
 21
0.0
 31
0.0
 12
-0.2872666662
 22
-0.2410453536
 32
0.0
 13
-0.2872666662
 23
-0.2410453536
 33
0.0
  0
SOLID
  5
3D4
330
3CD
100
AcDbEntity
  8
0
  6
CONTINUOUS
 62
     0
100
AcDbTrace
 10
-0.2872666662
 20
-0.2410453536
 30
0.0
 11
-0.3247595264
 21
0.0
 31
0.0
 12
-0.2872666662
 22
0.0
 32
0.0
 13
-0.2872666662
 23
0.0
 33
0.0
  0
SOLID
  5
3D5
330
3CD
100
AcDbEntity
  8
0
  6
CONTINUOUS
 62
     0
100
AcDbTrace
 10
-0.2872666662
 20
-0.2410453536
 30
0.0
 11
-0.2872666662
 21
0.0
 31
0.0
 12
-0.2410453536
 22
-0.2872666662
 32
0.0
 13
-0.2410453536
 23
-0.2872666662
 33
0.0
  0
SOLID
  5
3D6
330
3CD
100
AcDbEntity
  8
0
  6
CONTINUOUS
 62
     0
100
AcDbTrace
 10
-0.2410453536
 20
-0.2872666662
 30
0.0
 11
-0.2872666662
 21
0.0
 31
0.0
 12
-0.2410453536
 22
0.0
 32
0.0
 13
-0.2410453536
 23
0.0
 33
0.0
  0
SOLID
  5
3D7
330
3CD
100
AcDbEntity
  8
0
  6
CONTINUOUS
 62
     0
100
AcDbTrace
 10
-0.2410453536
 20
-0.2872666662
 30
0.0
 11
-0.2410453536
 21
0.0
 31
0.0
 12
-0.1875
 22
-0.3247595264
 32
0.0
 13
-0.1875
 23
-0.3247595264
 33
0.0
  0
SOLID
  5
3D8
330
3CD
100
AcDbEntity
  8
0
  6
CONTINUOUS
 62
     0
100
AcDbTrace
 10
-0.1875
 20
-0.3247595264
 30
0.0
 11
-0.2410453536
 21
0.0
 31
0.0
 12
-0.1875
 22
0.0
 32
0.0
 13
-0.1875
 23
0.0
 33
0.0
  0
SOLID
  5
3D9
330
3CD
100
AcDbEntity
  8
0
  6
CONTINUOUS
 62
     0
100
AcDbTrace
 10
-0.1875
 20
-0.3247595264
 30
0.0
 11
-0.1875
 21
0.0
 31
0.0
 12
-0.1282575537
 22
-0.3523847328
 32
0.0
 13
-0.1282575537
 23
-0.3523847328
 33
0.0
  0
SOLID
  5
3DA
330
3CD
100
AcDbEntity
  8
0
  6
CONTINUOUS
 62
     0
100
AcDbTrace
 10
-0.1282575537
 20
-0.3523847328
 30
0.0
 11
-0.1875
 21
0.0
 31
0.0
 12
-0.1282575537
 22
0.0
 32
0.0
 13
-0.1282575537
 23
0.0
 33
0.0
  0
SOLID
  5
3DB
330
3CD
100
AcDbEntity
  8
0
  6
CONTINUOUS
 62
     0
100
AcDbTrace
 10
-0.1282575537
 20
-0.3523847328
 30
0.0
 11
-0.1282575537
 21
0.0
 31
0.0
 12
-0.0651180666
 22
-0.3693029074
 32
0.0
 13
-0.0651180666
 23
-0.3693029074
 33
0.0
  0
SOLID
  5
3DC
330
3CD
100
AcDbEntity
  8
0
  6
CONTINUOUS
 62
     0
100
AcDbTrace
 10
-0.0651180666
 20
-0.3693029074
 30
0.0
 11
-0.1282575537
 21
0.0
 31
0.0
 12
-0.0651180666
 22
0.0
 32
0.0
 13
-0.0651180666
 23
0.0
 33
0.0
  0
SOLID
  5
3DD
330
3CD
100
AcDbEntity
  8
0
  6
CONTINUOUS
 62
     0
100
AcDbTrace
 10
-0.0651180666
 20
-0.3693029074
 30
0.0
 11
-0.0651180666
 21
0.0
 31
0.0
 12
0.0
 22
-0.375
 32
0.0
 13
0.0
 23
-0.375
 33
0.0
  0
SOLID
  5
3DE
330
3CD
100
AcDbEntity
  8
0
  6
CONTINUOUS
 62
     0
100
AcDbTrace
 10
0.0
 20
-0.375
 30
0.0
 11
-0.0651180666
 21
0.0
 31
0.0
 12
0.0
 22
0.0
 32
0.0
 13
0.0
 23
0.0
 33
0.0
  0
ENDBLK
  5
404
330
3CD
100
AcDbEntity
  8
0
100
AcDbBlockEnd
  0
BLOCK
  5
405
330
3DF
100
AcDbEntity
  8
0
100
AcDbBlockBegin
  2
*U36
 70
     1
 10
0.0
 20
0.0
 30
0.0
  3
*U36
  1

  0
SOLID
  5
3E0
330
3DF
100
AcDbEntity
  8
0
  6
CONTINUOUS
 62
     0
100
AcDbTrace
 10
0.0
 20
0.0
 30
0.0
 11
0.0
 21
0.125
 31
0.0
 12
0.0243862903
 22
0.0
 32
0.0
 13
0.0243862903
 23
0.0
 33
0.0
  0
SOLID
  5
3E1
330
3DF
100
AcDbEntity
  8
0
  6
CONTINUOUS
 62
     0
100
AcDbTrace
 10
0.0243862903
 20
0.0
 30
0.0
 11
0.0
 21
0.125
 31
0.0
 12
0.0243862903
 22
0.1225981601
 32
0.0
 13
0.0243862903
 23
0.1225981601
 33
0.0
  0
SOLID
  5
3E2
330
3DF
100
AcDbEntity
  8
0
  6
CONTINUOUS
 62
     0
100
AcDbTrace
 10
0.0243862903
 20
0.0
 30
0.0
 11
0.0243862903
 21
0.1225981601
 31
0.0
 12
0.047835429
 22
0.0
 32
0.0
 13
0.047835429
 23
0.0
 33
0.0
  0
SOLID
  5
3E3
330
3DF
100
AcDbEntity
  8
0
  6
CONTINUOUS
 62
     0
100
AcDbTrace
 10
0.047835429
 20
0.0
 30
0.0
 11
0.0243862903
 21
0.1225981601
 31
0.0
 12
0.047835429
 22
0.1154849416
 32
0.0
 13
0.047835429
 23
0.1154849416
 33
0.0
  0
SOLID
  5
3E4
330
3DF
100
AcDbEntity
  8
0
  6
CONTINUOUS
 62
     0
100
AcDbTrace
 10
0.047835429
 20
0.0
 30
0.0
 11
0.047835429
 21
0.1154849416
 31
0.0
 12
0.0694462791
 22
0.0
 32
0.0
 13
0.0694462791
 23
0.0
 33
0.0
  0
SOLID
  5
3E5
330
3DF
100
AcDbEntity
  8
0
  6
CONTINUOUS
 62
     0
100
AcDbTrace
 10
0.0694462791
 20
0.0
 30
0.0
 11
0.047835429
 21
0.1154849416
 31
0.0
 12
0.0694462791
 22
0.1039337015
 32
0.0
 13
0.0694462791
 23
0.1039337015
 33
0.0
  0
SOLID
  5
3E6
330
3DF
100
AcDbEntity
  8
0
  6
CONTINUOUS
 62
     0
100
AcDbTrace
 10
0.0694462791
 20
0.0
 30
0.0
 11
0.0694462791
 21
0.1039337015
 31
0.0
 12
0.0883883476
 22
0.0
 32
0.0
 13
0.0883883476
 23
0.0
 33
0.0
  0
SOLID
  5
3E7
330
3DF
100
AcDbEntity
  8
0
  6
CONTINUOUS
 62
     0
100
AcDbTrace
 10
0.0883883476
 20
0.0
 30
0.0
 11
0.0694462791
 21
0.1039337015
 31
0.0
 12
0.0883883476
 22
0.0883883476
 32
0.0
 13
0.0883883476
 23
0.0883883476
 33
0.0
  0
SOLID
  5
3E8
330
3DF
100
AcDbEntity
  8
0
  6
CONTINUOUS
 62
     0
100
AcDbTrace
 10
0.0883883476
 20
0.0
 30
0.0
 11
0.0883883476
 21
0.0883883476
 31
0.0
 12
0.1039337015
 22
0.0
 32
0.0
 13
0.1039337015
 23
0.0
 33
0.0
  0
SOLID
  5
3E9
330
3DF
100
AcDbEntity
  8
0
  6
CONTINUOUS
 62
     0
100
AcDbTrace
 10
0.1039337015
 20
0.0
 30
0.0
 11
0.0883883476
 21
0.0883883476
 31
0.0
 12
0.1039337015
 22
0.0694462791
 32
0.0
 13
0.1039337015
 23
0.0694462791
 33
0.0
  0
SOLID
  5
3EA
330
3DF
100
AcDbEntity
  8
0
  6
CONTINUOUS
 62
     0
100
AcDbTrace
 10
0.1039337015
 20
0.0
 30
0.0
 11
0.1039337015
 21
0.0694462791
 31
0.0
 12
0.1154849416
 22
0.0
 32
0.0
 13
0.1154849416
 23
0.0
 33
0.0
  0
SOLID
  5
3EB
330
3DF
100
AcDbEntity
  8
0
  6
CONTINUOUS
 62
     0
100
AcDbTrace
 10
0.1154849416
 20
0.0
 30
0.0
 11
0.1039337015
 21
0.0694462791
 31
0.0
 12
0.1154849416
 22
0.047835429
 32
0.0
 13
0.1154849416
 23
0.047835429
 33
0.0
  0
SOLID
  5
3EC
330
3DF
100
AcDbEntity
  8
0
  6
CONTINUOUS
 62
     0
100
AcDbTrace
 10
0.1154849416
 20
0.0
 30
0.0
 11
0.1154849416
 21
0.047835429
 31
0.0
 12
0.1225981601
 22
0.0
 32
0.0
 13
0.1225981601
 23
0.0
 33
0.0
  0
SOLID
  5
3ED
330
3DF
100
AcDbEntity
  8
0
  6
CONTINUOUS
 62
     0
100
AcDbTrace
 10
0.1225981601
 20
0.0
 30
0.0
 11
0.1154849416
 21
0.047835429
 31
0.0
 12
0.1225981601
 22
0.0243862903
 32
0.0
 13
0.1225981601
 23
0.0243862903
 33
0.0
  0
SOLID
  5
3EE
330
3DF
100
AcDbEntity
  8
0
  6
CONTINUOUS
 62
     0
100
AcDbTrace
 10
0.1225981601
 20
0.0
 30
0.0
 11
0.1225981601
 21
0.0243862903
 31
0.0
 12
0.125
 22
0.0
 32
0.0
 13
0.125
 23
0.0
 33
0.0
  0
ENDBLK
  5
406
330
3DF
100
AcDbEntity
  8
0
100
AcDbBlockEnd
  0
BLOCK
  5
407
330
3EF
100
AcDbEntity
  8
0
100
AcDbBlockBegin
  2
*U37
 70
     1
 10
0.0
 20
0.0
 30
0.0
  3
*U37
  1

  0
SOLID
  5
3F0
330
3EF
100
AcDbEntity
  8
0
  6
CONTINUOUS
 62
     0
100
AcDbTrace
 10
-0.1231009691
 20
-0.0217060222
 30
0.0
 11
-0.125
 21
0.0
 31
0.0
 12
-0.1231009691
 22
0.0
 32
0.0
 13
-0.1231009691
 23
0.0
 33
0.0
  0
SOLID
  5
3F1
330
3EF
100
AcDbEntity
  8
0
  6
CONTINUOUS
 62
     0
100
AcDbTrace
 10
-0.1231009691
 20
-0.0217060222
 30
0.0
 11
-0.1231009691
 21
0.0
 31
0.0
 12
-0.1174615776
 22
-0.0427525179
 32
0.0
 13
-0.1174615776
 23
-0.0427525179
 33
0.0
  0
SOLID
  5
3F2
330
3EF
100
AcDbEntity
  8
0
  6
CONTINUOUS
 62
     0
100
AcDbTrace
 10
-0.1174615776
 20
-0.0427525179
 30
0.0
 11
-0.1231009691
 21
0.0
 31
0.0
 12
-0.1174615776
 22
0.0
 32
0.0
 13
-0.1174615776
 23
0.0
 33
0.0
  0
SOLID
  5
3F3
330
3EF
100
AcDbEntity
  8
0
  6
CONTINUOUS
 62
     0
100
AcDbTrace
 10
-0.1174615776
 20
-0.0427525179
 30
0.0
 11
-0.1174615776
 21
0.0
 31
0.0
 12
-0.1082531755
 22
-0.0625
 32
0.0
 13
-0.1082531755
 23
-0.0625
 33
0.0
  0
SOLID
  5
3F4
330
3EF
100
AcDbEntity
  8
0
  6
CONTINUOUS
 62
     0
100
AcDbTrace
 10
-0.1082531755
 20
-0.0625
 30
0.0
 11
-0.1174615776
 21
0.0
 31
0.0
 12
-0.1082531755
 22
0.0
 32
0.0
 13
-0.1082531755
 23
0.0
 33
0.0
  0
SOLID
  5
3F5
330
3EF
100
AcDbEntity
  8
0
  6
CONTINUOUS
 62
     0
100
AcDbTrace
 10
-0.1082531755
 20
-0.0625
 30
0.0
 11
-0.1082531755
 21
0.0
 31
0.0
 12
-0.0957555554
 22
-0.0803484512
 32
0.0
 13
-0.0957555554
 23
-0.0803484512
 33
0.0
  0
SOLID
  5
3F6
330
3EF
100
AcDbEntity
  8
0
  6
CONTINUOUS
 62
     0
100
AcDbTrace
 10
-0.0957555554
 20
-0.0803484512
 30
0.0
 11
-0.1082531755
 21
0.0
 31
0.0
 12
-0.0957555554
 22
0.0
 32
0.0
 13
-0.0957555554
 23
0.0
 33
0.0
  0
SOLID
  5
3F7
330
3EF
100
AcDbEntity
  8
0
  6
CONTINUOUS
 62
     0
100
AcDbTrace
 10
-0.0957555554
 20
-0.0803484512
 30
0.0
 11
-0.0957555554
 21
0.0
 31
0.0
 12
-0.0803484512
 22
-0.0957555554
 32
0.0
 13
-0.0803484512
 23
-0.0957555554
 33
0.0
  0
SOLID
  5
3F8
330
3EF
100
AcDbEntity
  8
0
  6
CONTINUOUS
 62
     0
100
AcDbTrace
 10
-0.0803484512
 20
-0.0957555554
 30
0.0
 11
-0.0957555554
 21
0.0
 31
0.0
 12
-0.0803484512
 22
0.0
 32
0.0
 13
-0.0803484512
 23
0.0
 33
0.0
  0
SOLID
  5
3F9
330
3EF
100
AcDbEntity
  8
0
  6
CONTINUOUS
 62
     0
100
AcDbTrace
 10
-0.0803484512
 20
-0.0957555554
 30
0.0
 11
-0.0803484512
 21
0.0
 31
0.0
 12
-0.0625
 22
-0.1082531755
 32
0.0
 13
-0.0625
 23
-0.1082531755
 33
0.0
  0
SOLID
  5
3FA
330
3EF
100
AcDbEntity
  8
0
  6
CONTINUOUS
 62
     0
100
AcDbTrace
 10
-0.0625
 20
-0.1082531755
 30
0.0
 11
-0.0803484512
 21
0.0
 31
0.0
 12
-0.0625
 22
0.0
 32
0.0
 13
-0.0625
 23
0.0
 33
0.0
  0
SOLID
  5
3FB
330
3EF
100
AcDbEntity
  8
0
  6
CONTINUOUS
 62
     0
100
AcDbTrace
 10
-0.0625
 20
-0.1082531755
 30
0.0
 11
-0.0625
 21
0.0
 31
0.0
 12
-0.0427525179
 22
-0.1174615776
 32
0.0
 13
-0.0427525179
 23
-0.1174615776
 33
0.0
  0
SOLID
  5
3FC
330
3EF
100
AcDbEntity
  8
0
  6
CONTINUOUS
 62
     0
100
AcDbTrace
 10
-0.0427525179
 20
-0.1174615776
 30
0.0
 11
-0.0625
 21
0.0
 31
0.0
 12
-0.0427525179
 22
0.0
 32
0.0
 13
-0.0427525179
 23
0.0
 33
0.0
  0
SOLID
  5
3FD
330
3EF
100
AcDbEntity
  8
0
  6
CONTINUOUS
 62
     0
100
AcDbTrace
 10
-0.0427525179
 20
-0.1174615776
 30
0.0
 11
-0.0427525179
 21
0.0
 31
0.0
 12
-0.0217060222
 22
-0.1231009691
 32
0.0
 13
-0.0217060222
 23
-0.1231009691
 33
0.0
  0
SOLID
  5
3FE
330
3EF
100
AcDbEntity
  8
0
  6
CONTINUOUS
 62
     0
100
AcDbTrace
 10
-0.0217060222
 20
-0.1231009691
 30
0.0
 11
-0.0427525179
 21
0.0
 31
0.0
 12
-0.0217060222
 22
0.0
 32
0.0
 13
-0.0217060222
 23
0.0
 33
0.0
  0
SOLID
  5
3FF
330
3EF
100
AcDbEntity
  8
0
  6
CONTINUOUS
 62
     0
100
AcDbTrace
 10
-0.0217060222
 20
-0.1231009691
 30
0.0
 11
-0.0217060222
 21
0.0
 31
0.0
 12
0.0
 22
-0.125
 32
0.0
 13
0.0
 23
-0.125
 33
0.0
  0
SOLID
  5
400
330
3EF
100
AcDbEntity
  8
0
  6
CONTINUOUS
 62
     0
100
AcDbTrace
 10
0.0
 20
-0.125
 30
0.0
 11
-0.0217060222
 21
0.0
 31
0.0
 12
0.0
 22
0.0
 32
0.0
 13
0.0
 23
0.0
 33
0.0
  0
ENDBLK
  5
408
330
3EF
100
AcDbEntity
  8
0
100
AcDbBlockEnd
  0
ENDSEC
  0
SECTION
  2
ENTITIES
  0
LINE
  5
76
330
1F
100
AcDbEntity
  8
0
  6
SLD-SOLID
 62
     7
100
AcDbLine
 10
9.0551181102
 20
0.561023622
 30
0.0
 11
16.1417322835
 21
0.561023622
 31
0.0
  0
LINE
  5
77
330
1F
100
AcDbEntity
  8
0
  6
SLD-SOLID
 62
     7
100
AcDbLine
 10
16.1417322835
 20
1.8996062992
 30
0.0
 11
9.0551181102
 21
1.8996062992
 31
0.0
  0
LINE
  5
78
330
1F
100
AcDbEntity
  8
0
  6
SLD-SOLID
 62
     7
100
AcDbLine
 10
9.0551181102
 20
2.5688976378
 30
0.0
 11
16.1417322835
 21
2.5688976378
 31
0.0
  0
LINE
  5
79
330
1F
100
AcDbEntity
  8
0
  6
SLD-SOLID
 62
     7
100
AcDbLine
 10
10.1177540328
 20
1.8996062992
 30
0.0
 11
10.1177540328
 21
0.3937007874
 31
0.0
  0
LINE
  5
7A
330
1F
100
AcDbEntity
  8
0
  6
SLD-SOLID
 62
     7
100
AcDbLine
 10
12.9448818898
 20
1.2303149606
 30
0.0
 11
9.0551181102
 21
1.2303149606
 31
0.0
  0
LINE
  5
7B
330
1F
100
AcDbEntity
  8
0
  6
SLD-SOLID
 62
     7
100
AcDbLine
 10
12.9448818898
 20
1.3976377953
 30
0.0
 11
9.0551181102
 21
1.3976377953
 31
0.0
  0
LINE
  5
7C
330
1F
100
AcDbEntity
  8
0
  6
SLD-SOLID
 62
     7
100
AcDbLine
 10
12.9448818898
 20
1.5649606299
 30
0.0
 11
9.0551181102
 21
1.5649606299
 31
0.0
  0
LINE
  5
7D
330
1F
100
AcDbEntity
  8
0
  6
SLD-SOLID
 62
     7
100
AcDbLine
 10
12.9448818898
 20
1.7322834646
 30
0.0
 11
9.0551181102
 21
1.7322834646
 31
0.0
  0
LINE
  5
7E
330
1F
100
AcDbEntity
  8
0
  6
SLD-SOLID
 62
     7
100
AcDbLine
 10
11.2047244094
 20
0.3937007874
 30
0.0
 11
11.2047244094
 21
1.8996062992
 31
0.0
  0
LINE
  5
7F
330
1F
100
AcDbEntity
  8
0
  6
SLD-SOLID
 62
     7
100
AcDbLine
 10
9.0551181102
 20
2.5688976378
 30
0.0
 11
9.0551181102
 21
0.3937007874
 31
0.0
  0
LINE
  5
80
330
1F
100
AcDbEntity
  8
0
  6
SLD-SOLID
 62
     7
100
AcDbLine
 10
9.3622047244
 20
1.8996062992
 30
0.0
 11
9.3622047244
 21
0.3937007874
 31
0.0
  0
LINE
  5
81
330
1F
100
AcDbEntity
  8
0
  6
SLD-SOLID
 62
     7
100
AcDbLine
 10
10.3858267717
 20
1.8996062992
 30
0.0
 11
10.3858267717
 21
2.5688976378
 31
0.0
  0
LINE
  5
82
330
1F
100
AcDbEntity
  8
0
  6
SLD-SOLID
 62
     7
100
AcDbLine
 10
10.8031073293
 20
1.8996062992
 30
0.0
 11
10.8031073293
 21
0.3937007874
 31
0.0
  0
LINE
  5
83
330
1F
100
AcDbEntity
  8
0
  6
SLD-SOLID
 62
     7
100
AcDbLine
 10
11.6141732283
 20
1.2303149606
 30
0.0
 11
11.6141732283
 21
1.8996062992
 31
0.0
  0
LINE
  5
84
330
1F
100
AcDbEntity
  8
0
  6
SLD-SOLID
 62
     7
100
AcDbLine
 10
11.2047244094
 20
0.7283464567
 30
0.0
 11
9.0551181102
 21
0.7283464567
 31
0.0
  0
LINE
  5
85
330
1F
100
AcDbEntity
  8
0
  6
SLD-SOLID
 62
     7
100
AcDbLine
 10
12.2283464567
 20
2.5688976378
 30
0.0
 11
12.2283464567
 21
1.062992126
 31
0.0
  0
LINE
  5
86
330
1F
100
AcDbEntity
  8
0
  6
SLD-SOLID
 62
     7
100
AcDbLine
 10
11.2047244094
 20
0.8956664567
 30
0.0
 11
9.0551181102
 21
0.8956664567
 31
0.0
  0
LINE
  5
87
330
1F
100
AcDbEntity
  8
0
  6
SLD-SOLID
 62
     7
100
AcDbLine
 10
11.2047244094
 20
1.062992126
 30
0.0
 11
9.0551181102
 21
1.062992126
 31
0.0
  0
LINE
  5
88
330
1F
100
AcDbEntity
  8
0
  6
SLD-SOLID
 62
     7
100
AcDbLine
 10
11.2047244094
 20
1.062992126
 30
0.0
 11
16.1417322835
 21
1.062992126
 31
0.0
  0
LINE
  5
89
330
1F
100
AcDbEntity
  8
0
  6
SLD-SOLID
 62
     7
100
AcDbLine
 10
12.9448818898
 20
2.5688976378
 30
0.0
 11
12.9448818898
 21
0.3937007874
 31
0.0
  0
LINE
  5
8A
330
1F
100
AcDbEntity
  8
0
  6
SLD-SOLID
 62
     7
100
AcDbLine
 10
14.6850393701
 20
0.3937007874
 30
0.0
 11
14.6850393701
 21
0.561023622
 31
0.0
  0
LINE
  5
8B
330
1F
100
AcDbEntity
  8
0
  6
SLD-SOLID
 62
     7
100
AcDbLine
 10
14.9921259843
 20
2.3179133858
 30
0.0
 11
14.9921259843
 21
2.5688976378
 31
0.0
  0
LINE
  5
8C
330
1F
100
AcDbEntity
  8
0
  6
SLD-SOLID
 62
     7
100
AcDbLine
 10
15.6299212598
 20
0.561023622
 30
0.0
 11
15.6299212598
 21
1.062992126
 31
0.0
  0
LINE
  5
8D
330
1F
100
AcDbEntity
  8
0
  6
SLD-SOLID
 62
     7
100
AcDbLine
 10
16.1417322835
 20
2.3179133858
 30
0.0
 11
12.9448818898
 21
2.3179133858
 31
0.0
  0
LINE
  5
8E
330
1F
100
AcDbEntity
  8
0
  6
SLD-SOLID
 62
     7
100
AcDbLine
 10
16.1417322835
 20
0.7283464567
 30
0.0
 11
15.6299212598
 21
0.7283464567
 31
0.0
  0
LINE
  5
8F
330
1F
100
AcDbEntity
  8
0
  6
SLD-SOLID
 62
     7
100
AcDbLine
 10
0.7874015748
 20
0.3937007874
 30
0.0
 11
0.7874015748
 21
11.2992125984
 31
0.0
  0
LINE
  5
90
330
1F
100
AcDbEntity
  8
0
  6
SLD-SOLID
 62
     7
100
AcDbLine
 10
0.7874015748
 20
11.2992125984
 30
0.0
 11
16.1417322835
 21
11.2992125984
 31
0.0
  0
LINE
  5
91
330
1F
100
AcDbEntity
  8
0
  6
SLD-SOLID
 62
     7
100
AcDbLine
 10
16.1417322835
 20
11.2992125984
 30
0.0
 11
16.1417322835
 21
0.3937007874
 31
0.0
  0
LINE
  5
92
330
1F
100
AcDbEntity
  8
0
  6
SLD-SOLID
 62
     7
100
AcDbLine
 10
16.1417322835
 20
0.3937007874
 30
0.0
 11
0.7874015748
 21
0.3937007874
 31
0.0
  0
LINE
  5
93
330
1F
100
AcDbEntity
  8
0
  6
SLD-SOLID
 62
     7
100
AcDbLine
 10
0.5905511811
 20
0.1968503937
 30
0.0
 11
0.5905511811
 21
11.4960629921
 31
0.0
  0
LINE
  5
94
330
1F
100
AcDbEntity
  8
0
  6
SLD-SOLID
 62
     7
100
AcDbLine
 10
0.5905511811
 20
11.4960629921
 30
0.0
 11
16.3385826772
 21
11.4960629921
 31
0.0
  0
LINE
  5
95
330
1F
100
AcDbEntity
  8
0
  6
SLD-SOLID
 62
     7
100
AcDbLine
 10
16.3385826772
 20
11.4960629921
 30
0.0
 11
16.3385826772
 21
0.1968503937
 31
0.0
  0
LINE
  5
96
330
1F
100
AcDbEntity
  8
0
  6
SLD-SOLID
 62
     7
100
AcDbLine
 10
16.3385826772
 20
0.1968503937
 30
0.0
 11
0.5905511811
 21
0.1968503937
 31
0.0
  0
LINE
  5
97
330
1F
100
AcDbEntity
  8
0
  6
SLD-SOLID
 62
     7
100
AcDbLine
 10
0.5905511811
 20
5.8464566929
 30
0.0
 11
0.9842519685
 21
5.8464566929
 31
0.0
  0
LINE
  5
98
330
1F
100
AcDbEntity
  8
0
  6
SLD-SOLID
 62
     7
100
AcDbLine
 10
8.4645669291
 20
11.4960629921
 30
0.0
 11
8.4645669291
 21
11.1023622047
 31
0.0
  0
LINE
  5
99
330
1F
100
AcDbEntity
  8
0
  6
SLD-SOLID
 62
     7
100
AcDbLine
 10
16.3385826772
 20
5.8464566929
 30
0.0
 11
15.9448818898
 21
5.8464566929
 31
0.0
  0
LINE
  5
9A
330
1F
100
AcDbEntity
  8
0
  6
SLD-SOLID
 62
     7
100
AcDbLine
 10
8.4645669291
 20
0.1968503937
 30
0.0
 11
8.4645669291
 21
0.5905511811
 31
0.0
  0
LINE
  5
9B
330
1F
100
AcDbEntity
  8
0
  6
SLD-SOLID
 62
     7
100
AcDbLine
 10
0.7874015748
 20
1.9094488189
 30
0.0
 11
0.5905511811
 21
1.9094488189
 31
0.0
  0
LINE
  5
9C
330
1F
100
AcDbEntity
  8
0
  6
SLD-SOLID
 62
     7
100
AcDbLine
 10
16.1417322835
 20
1.9094488189
 30
0.0
 11
16.3385826772
 21
1.9094488189
 31
0.0
  0
LINE
  5
9D
330
1F
100
AcDbEntity
  8
0
  6
SLD-SOLID
 62
     7
100
AcDbLine
 10
0.7874015748
 20
3.8779527559
 30
0.0
 11
0.5905511811
 21
3.8779527559
 31
0.0
  0
LINE
  5
9E
330
1F
100
AcDbEntity
  8
0
  6
SLD-SOLID
 62
     7
100
AcDbLine
 10
16.1417322835
 20
3.8779527559
 30
0.0
 11
16.3385826772
 21
3.8779527559
 31
0.0
  0
LINE
  5
9F
330
1F
100
AcDbEntity
  8
0
  6
SLD-SOLID
 62
     7
100
AcDbLine
 10
0.7874015748
 20
5.8464566929
 30
0.0
 11
0.5905511811
 21
5.8464566929
 31
0.0
  0
LINE
  5
A0
330
1F
100
AcDbEntity
  8
0
  6
SLD-SOLID
 62
     7
100
AcDbLine
 10
16.1417322835
 20
5.8464566929
 30
0.0
 11
16.3385826772
 21
5.8464566929
 31
0.0
  0
LINE
  5
A1
330
1F
100
AcDbEntity
  8
0
  6
SLD-SOLID
 62
     7
100
AcDbLine
 10
0.7874015748
 20
7.8149606299
 30
0.0
 11
0.5905511811
 21
7.8149606299
 31
0.0
  0
LINE
  5
A2
330
1F
100
AcDbEntity
  8
0
  6
SLD-SOLID
 62
     7
100
AcDbLine
 10
16.1417322835
 20
7.8149606299
 30
0.0
 11
16.3385826772
 21
7.8149606299
 31
0.0
  0
LINE
  5
A3
330
1F
100
AcDbEntity
  8
0
  6
SLD-SOLID
 62
     7
100
AcDbLine
 10
0.7874015748
 20
9.7834645669
 30
0.0
 11
0.5905511811
 21
9.7834645669
 31
0.0
  0
LINE
  5
A4
330
1F
100
AcDbEntity
  8
0
  6
SLD-SOLID
 62
     7
100
AcDbLine
 10
16.1417322835
 20
9.7834645669
 30
0.0
 11
16.3385826772
 21
9.7834645669
 31
0.0
  0
LINE
  5
A5
330
1F
100
AcDbEntity
  8
0
  6
SLD-SOLID
 62
     7
100
AcDbLine
 10
2.5590551181
 20
11.2992125984
 30
0.0
 11
2.5590551181
 21
11.4960629921
 31
0.0
  0
LINE
  5
A6
330
1F
100
AcDbEntity
  8
0
  6
SLD-SOLID
 62
     7
100
AcDbLine
 10
2.5590551181
 20
0.3937007874
 30
0.0
 11
2.5590551181
 21
0.1968503937
 31
0.0
  0
LINE
  5
A7
330
1F
100
AcDbEntity
  8
0
  6
SLD-SOLID
 62
     7
100
AcDbLine
 10
4.5275590551
 20
11.2992125984
 30
0.0
 11
4.5275590551
 21
11.4960629921
 31
0.0
  0
LINE
  5
A8
330
1F
100
AcDbEntity
  8
0
  6
SLD-SOLID
 62
     7
100
AcDbLine
 10
4.5275590551
 20
0.3937007874
 30
0.0
 11
4.5275590551
 21
0.1968503937
 31
0.0
  0
LINE
  5
A9
330
1F
100
AcDbEntity
  8
0
  6
SLD-SOLID
 62
     7
100
AcDbLine
 10
6.4960629921
 20
11.2992125984
 30
0.0
 11
6.4960629921
 21
11.4960629921
 31
0.0
  0
LINE
  5
AA
330
1F
100
AcDbEntity
  8
0
  6
SLD-SOLID
 62
     7
100
AcDbLine
 10
6.4960629921
 20
0.3937007874
 30
0.0
 11
6.4960629921
 21
0.1968503937
 31
0.0
  0
LINE
  5
AB
330
1F
100
AcDbEntity
  8
0
  6
SLD-SOLID
 62
     7
100
AcDbLine
 10
8.4645669291
 20
11.2992125984
 30
0.0
 11
8.4645669291
 21
11.4960629921
 31
0.0
  0
LINE
  5
AC
330
1F
100
AcDbEntity
  8
0
  6
SLD-SOLID
 62
     7
100
AcDbLine
 10
8.4645669291
 20
0.3937007874
 30
0.0
 11
8.4645669291
 21
0.1968503937
 31
0.0
  0
LINE
  5
AD
330
1F
100
AcDbEntity
  8
0
  6
SLD-SOLID
 62
     7
100
AcDbLine
 10
10.4330708661
 20
11.2992125984
 30
0.0
 11
10.4330708661
 21
11.4960629921
 31
0.0
  0
LINE
  5
AE
330
1F
100
AcDbEntity
  8
0
  6
SLD-SOLID
 62
     7
100
AcDbLine
 10
10.4330708661
 20
0.3937007874
 30
0.0
 11
10.4330708661
 21
0.1968503937
 31
0.0
  0
LINE
  5
AF
330
1F
100
AcDbEntity
  8
0
  6
SLD-SOLID
 62
     7
100
AcDbLine
 10
12.4015748031
 20
11.2992125984
 30
0.0
 11
12.4015748031
 21
11.4960629921
 31
0.0
  0
LINE
  5
B0
330
1F
100
AcDbEntity
  8
0
  6
SLD-SOLID
 62
     7
100
AcDbLine
 10
12.4015748031
 20
0.3937007874
 30
0.0
 11
12.4015748031
 21
0.1968503937
 31
0.0
  0
LINE
  5
B1
330
1F
100
AcDbEntity
  8
0
  6
SLD-SOLID
 62
     7
100
AcDbLine
 10
14.3700787402
 20
11.2992125984
 30
0.0
 11
14.3700787402
 21
11.4960629921
 31
0.0
  0
LINE
  5
B2
330
1F
100
AcDbEntity
  8
0
  6
SLD-SOLID
 62
     7
100
AcDbLine
 10
14.3700787402
 20
0.3937007874
 30
0.0
 11
14.3700787402
 21
0.1968503937
 31
0.0
  0
INSERT
  5
D1
330
1F
100
AcDbEntity
  8
0
  6
CONTINUOUS
 62
     7
100
AcDbBlockReference
  2
SW_NOTE_0
 10
1.0771902827
 20
1.6348938284
 30
0.0
  0
MTEXT
  5
D2
330
1F
100
AcDbEntity
  8
0
  6
CONTINUOUS
 62
     7
100
AcDbMText
 10
0.6826648875
 20
1.2071073998
 30
0.0
 40
0.15625
 41
0.0
 71
     2
 72
     1
  1
A
  7
SLDTEXTSTYLE0
  0
MTEXT
  5
D3
330
1F
100
AcDbEntity
  8
0
  6
CONTINUOUS
 62
     7
100
AcDbMText
 10
16.2338459899
 20
1.2071073998
 30
0.0
 40
0.15625
 41
0.0
 71
     2
 72
     1
  1
A
  7
SLDTEXTSTYLE0
  0
MTEXT
  5
D4
330
1F
100
AcDbEntity
  8
0
  6
CONTINUOUS
 62
     7
100
AcDbMText
 10
0.6878189695
 20
2.9831731071
 30
0.0
 40
0.15625
 41
0.0
 71
     2
 72
     1
  1
B
  7
SLDTEXTSTYLE0
  0
MTEXT
  5
D5
330
1F
100
AcDbEntity
  8
0
  6
CONTINUOUS
 62
     7
100
AcDbMText
 10
16.2390000718
 20
2.9831731071
 30
0.0
 40
0.15625
 41
0.0
 71
     2
 72
     1
  1
B
  7
SLDTEXTSTYLE0
  0
MTEXT
  5
D6
330
1F
100
AcDbEntity
  8
0
  6
CONTINUOUS
 62
     7
100
AcDbMText
 10
0.6873487757
 20
4.9516770441
 30
0.0
 40
0.15625
 41
0.0
 71
     2
 72
     1
  1
C
  7
SLDTEXTSTYLE0
  0
MTEXT
  5
D7
330
1F
100
AcDbEntity
  8
0
  6
CONTINUOUS
 62
     7
100
AcDbMText
 10
16.238529878
 20
4.9516770441
 30
0.0
 40
0.15625
 41
0.0
 71
     2
 72
     1
  1
C
  7
SLDTEXTSTYLE0
  0
MTEXT
  5
D8
330
1F
100
AcDbEntity
  8
0
  6
CONTINUOUS
 62
     7
100
AcDbMText
 10
0.6871136725
 20
6.9201809811
 30
0.0
 40
0.15625
 41
0.0
 71
     2
 72
     1
  1
D
  7
SLDTEXTSTYLE0
  0
MTEXT
  5
D9
330
1F
100
AcDbEntity
  8
0
  6
CONTINUOUS
 62
     7
100
AcDbMText
 10
16.2382947749
 20
6.9201809811
 30
0.0
 40
0.15625
 41
0.0
 71
     2
 72
     1
  1
D
  7
SLDTEXTSTYLE0
  0
MTEXT
  5
DA
330
1F
100
AcDbEntity
  8
0
  6
CONTINUOUS
 62
     7
100
AcDbMText
 10
0.6892838152
 20
8.8886849181
 30
0.0
 40
0.15625
 41
0.0
 71
     2
 72
     1
  1
E
  7
SLDTEXTSTYLE0
  0
MTEXT
  5
DB
330
1F
100
AcDbEntity
  8
0
  6
CONTINUOUS
 62
     7
100
AcDbMText
 10
16.2404649175
 20
8.8886849181
 30
0.0
 40
0.15625
 41
0.0
 71
     2
 72
     1
  1
E
  7
SLDTEXTSTYLE0
  0
MTEXT
  5
DC
330
1F
100
AcDbEntity
  8
0
  6
CONTINUOUS
 62
     7
100
AcDbMText
 10
0.6873126067
 20
10.6308109024
 30
0.0
 40
0.15625
 41
0.0
 71
     2
 72
     1
  1
F
  7
SLDTEXTSTYLE0
  0
MTEXT
  5
DD
330
1F
100
AcDbEntity
  8
0
  6
CONTINUOUS
 62
     7
100
AcDbMText
 10
16.238493709
 20
10.6308109024
 30
0.0
 40
0.15625
 41
0.0
 71
     2
 72
     1
  1
F
  7
SLDTEXTSTYLE0
  0
MTEXT
  5
DE
330
1F
100
AcDbEntity
  8
0
  6
CONTINUOUS
 62
     7
100
AcDbMText
 10
1.6716549979
 20
0.3847479103
 30
0.0
 40
0.15625
 41
0.0
 71
     2
 72
     1
  1
8
  7
SLDTEXTSTYLE0
  0
MTEXT
  5
DF
330
1F
100
AcDbEntity
  8
0
  6
CONTINUOUS
 62
     7
100
AcDbMText
 10
1.6716549979
 20
11.4531703919
 30
0.0
 40
0.15625
 41
0.0
 71
     2
 72
     1
  1
8
  7
SLDTEXTSTYLE0
  0
MTEXT
  5
E0
330
1F
100
AcDbEntity
  8
0
  6
CONTINUOUS
 62
     7
100
AcDbMText
 10
3.541733738
 20
0.3847479103
 30
0.0
 40
0.15625
 41
0.0
 71
     2
 72
     1
  1
7
  7
SLDTEXTSTYLE0
  0
MTEXT
  5
E1
330
1F
100
AcDbEntity
  8
0
  6
CONTINUOUS
 62
     7
100
AcDbMText
 10
3.541733738
 20
11.4531703919
 30
0.0
 40
0.15625
 41
0.0
 71
     2
 72
     1
  1
7
  7
SLDTEXTSTYLE0
  0
MTEXT
  5
E2
330
1F
100
AcDbEntity
  8
0
  6
CONTINUOUS
 62
     7
100
AcDbMText
 10
5.5102376751
 20
0.3847479103
 30
0.0
 40
0.15625
 41
0.0
 71
     2
 72
     1
  1
6
  7
SLDTEXTSTYLE0
  0
MTEXT
  5
E3
330
1F
100
AcDbEntity
  8
0
  6
CONTINUOUS
 62
     7
100
AcDbMText
 10
5.5102376751
 20
11.4531703919
 30
0.0
 40
0.15625
 41
0.0
 71
     2
 72
     1
  1
6
  7
SLDTEXTSTYLE0
  0
MTEXT
  5
E4
330
1F
100
AcDbEntity
  8
0
  6
CONTINUOUS
 62
     7
100
AcDbMText
 10
7.4787416121
 20
0.3847479103
 30
0.0
 40
0.15625
 41
0.0
 71
     2
 72
     1
  1
5
  7
SLDTEXTSTYLE0
  0
MTEXT
  5
E5
330
1F
100
AcDbEntity
  8
0
  6
CONTINUOUS
 62
     7
100
AcDbMText
 10
7.4787416121
 20
11.4531703919
 30
0.0
 40
0.15625
 41
0.0
 71
     2
 72
     1
  1
5
  7
SLDTEXTSTYLE0
  0
MTEXT
  5
E6
330
1F
100
AcDbEntity
  8
0
  6
CONTINUOUS
 62
     7
100
AcDbMText
 10
9.4472455491
 20
0.3847479103
 30
0.0
 40
0.15625
 41
0.0
 71
     2
 72
     1
  1
4
  7
SLDTEXTSTYLE0
  0
MTEXT
  5
E7
330
1F
100
AcDbEntity
  8
0
  6
CONTINUOUS
 62
     7
100
AcDbMText
 10
9.4472455491
 20
11.4531703919
 30
0.0
 40
0.15625
 41
0.0
 71
     2
 72
     1
  1
4
  7
SLDTEXTSTYLE0
  0
MTEXT
  5
E8
330
1F
100
AcDbEntity
  8
0
  6
CONTINUOUS
 62
     7
100
AcDbMText
 10
11.4157494861
 20
0.3847479103
 30
0.0
 40
0.15625
 41
0.0
 71
     2
 72
     1
  1
3
  7
SLDTEXTSTYLE0
  0
MTEXT
  5
E9
330
1F
100
AcDbEntity
  8
0
  6
CONTINUOUS
 62
     7
100
AcDbMText
 10
11.4157494861
 20
11.4531703919
 30
0.0
 40
0.15625
 41
0.0
 71
     2
 72
     1
  1
3
  7
SLDTEXTSTYLE0
  0
MTEXT
  5
EA
330
1F
100
AcDbEntity
  8
0
  6
CONTINUOUS
 62
     7
100
AcDbMText
 10
13.3842534231
 20
0.3847479103
 30
0.0
 40
0.15625
 41
0.0
 71
     2
 72
     1
  1
2
  7
SLDTEXTSTYLE0
  0
MTEXT
  5
EB
330
1F
100
AcDbEntity
  8
0
  6
CONTINUOUS
 62
     7
100
AcDbMText
 10
13.3842534231
 20
11.4531703919
 30
0.0
 40
0.15625
 41
0.0
 71
     2
 72
     1
  1
2
  7
SLDTEXTSTYLE0
  0
MTEXT
  5
EC
330
1F
100
AcDbEntity
  8
0
  6
CONTINUOUS
 62
     7
100
AcDbMText
 10
15.2543321632
 20
0.3847479103
 30
0.0
 40
0.15625
 41
0.0
 71
     2
 72
     1
  1
1
  7
SLDTEXTSTYLE0
  0
MTEXT
  5
ED
330
1F
100
AcDbEntity
  8
0
  6
CONTINUOUS
 62
     7
100
AcDbMText
 10
15.2543321632
 20
11.4531703919
 30
0.0
 40
0.15625
 41
0.0
 71
     2
 72
     1
  1
1
  7
SLDTEXTSTYLE0
  0
MTEXT
  5
EF
330
1F
100
AcDbEntity
  8
0
  6
CONTINUOUS
 62
     7
100
AcDbMText
 10
9.0804473582
 20
1.6686921778
 30
0.0
 40
0.0590551181
 41
0.0
 71
     1
 72
     1
  1
DRAWN
  7
SLDTEXTSTYLE1
  0
MTEXT
  5
F0
330
1F
100
AcDbEntity
  8
0
  6
CONTINUOUS
 62
     7
100
AcDbMText
 10
9.092095362
 20
1.5024351582
 30
0.0
 40
0.0590551181
 41
0.0
 71
     1
 72
     1
  1
CHK'D
  7
SLDTEXTSTYLE0
  0
MTEXT
  5
F1
330
1F
100
AcDbEntity
  8
0
  6
CONTINUOUS
 62
     7
100
AcDbMText
 10
9.0709339531
 20
1.3411758514
 30
0.0
 40
0.0590551181
 41
0.0
 71
     1
 72
     1
  1
APPV'D
  7
SLDTEXTSTYLE0
  0
MTEXT
  5
F2
330
1F
100
AcDbEntity
  8
0
  6
CONTINUOUS
 62
     7
100
AcDbMText
 10
9.0993705015
 20
1.169912774
 30
0.0
 40
0.0590551181
 41
0.0
 71
     1
 72
     1
  1
MFG
  7
SLDTEXTSTYLE0
  0
MTEXT
  5
F3
330
1F
100
AcDbEntity
  8
0
  6
CONTINUOUS
 62
     7
100
AcDbMText
 10
9.1145290002
 20
1.0041205564
 30
0.0
 40
0.0590551181
 41
0.0
 71
     1
 72
     1
  1
Q.A
  7
SLDTEXTSTYLE0
  0
INSERT
  5
FD
330
1F
100
AcDbEntity
  8
0
  6
CONTINUOUS
 62
     7
100
AcDbBlockReference
  2
SW_NOTE_0_1
 10
9.0784908955
 20
2.4404476328
 30
0.0
  0
MTEXT
  5
FE
330
1F
100
AcDbEntity
  8
0
  6
CONTINUOUS
 62
     7
100
AcDbMText
 10
10.4083185892
 20
2.5165067715
 30
0.0
 40
0.0590551181
 41
0.0
 71
     1
 72
     1
  1
FINISH:
  7
SLDTEXTSTYLE0
  0
INSERT
  5
105
330
1F
100
AcDbEntity
  8
0
  6
CONTINUOUS
 62
     7
100
AcDbBlockReference
  2
SW_NOTE_0_2
 10
12.2562683341
 20
2.4436806946
 30
0.0
  0
MTEXT
  5
106
330
1F
100
AcDbEntity
  8
0
  6
CONTINUOUS
 62
     7
100
AcDbMText
 10
9.618985796
 20
1.8307670328
 30
0.0
 40
0.0590551181
 41
0.0
 71
     1
 72
     1
  1
NAME
  7
SLDTEXTSTYLE0
  0
MTEXT
  5
107
330
1F
100
AcDbEntity
  8
0
  6
CONTINUOUS
 62
     7
100
AcDbMText
 10
10.2375428174
 20
1.8331400149
 30
0.0
 40
0.0590551181
 41
0.0
 71
     1
 72
     1
  1
SIGNATURE
  7
SLDTEXTSTYLE0
  0
MTEXT
  5
108
330
1F
100
AcDbEntity
  8
0
  6
CONTINUOUS
 62
     7
100
AcDbMText
 10
10.9139646443
 20
1.8337078434
 30
0.0
 40
0.0590551181
 41
0.0
 71
     1
 72
     1
  1
DATE
  7
SLDTEXTSTYLE0
  0
MTEXT
  5
109
330
1F
100
AcDbEntity
  8
0
  6
CONTINUOUS
 62
     7
100
AcDbMText
 10
11.2459000909
 20
1.0230730823
 30
0.0
 40
0.0590551181
 41
0.0
 71
     1
 72
     1
  1
MATERIAL:
  7
SLDTEXTSTYLE0
  0
MTEXT
  5
10A
330
1F
100
AcDbEntity
  8
0
  6
CONTINUOUS
 62
     7
100
AcDbMText
 10
13.4887653749
 20
2.4619288809
 30
0.0
 40
0.0590551181
 41
0.0
 71
     1
 72
     1
  1
DO NOT SCALE DRAWING
  7
SLDTEXTSTYLE0
  0
MTEXT
  5
10B
330
1F
100
AcDbEntity
  8
0
  6
CONTINUOUS
 62
     7
100
AcDbMText
 10
15.0916370748
 20
2.454130263
 30
0.0
 40
0.0590551181
 41
0.0
 71
     1
 72
     1
  1
REVISION
  7
SLDTEXTSTYLE0
  0
MTEXT
  5
10C
330
1F
100
AcDbEntity
  8
0
  6
CONTINUOUS
 62
     7
100
AcDbMText
 10
12.9956756157
 20
1.8337078434
 30
0.0
 40
0.0590551181
 41
0.0
 71
     1
 72
     1
  1
TITLE:
  7
SLDTEXTSTYLE0
  0
MTEXT
  5
10D
330
1F
100
AcDbEntity
  8
0
  6
CONTINUOUS
 62
     7
100
AcDbMText
 10
12.9902756778
 20
1.0230730823
 30
0.0
 40
0.0590551181
 41
0.0
 71
     1
 72
     1
  1
DWG NO.
  7
SLDTEXTSTYLE0
  0
MTEXT
  5
10E
330
1F
100
AcDbEntity
  8
0
  6
CONTINUOUS
 62
     7
100
AcDbMText
 10
12.9950380361
 20
0.5078774518
 30
0.0
 40
0.0590551181
 41
0.0
 71
     1
 72
     1
  1
SCALE:2:1
  7
SLDTEXTSTYLE0
  0
MTEXT
  5
110
330
1F
100
AcDbEntity
  8
0
  6
CONTINUOUS
 62
     7
100
AcDbMText
 10
14.7432399381
 20
0.5078774518
 30
0.0
 40
0.0590551181
 41
0.0
 71
     1
 72
     1
  1
SHEET 1 OF 1
  7
SLDTEXTSTYLE2
  0
MTEXT
  5
111
330
1F
100
AcDbEntity
  8
0
  6
CONTINUOUS
 62
     7
100
AcDbMText
 10
15.7823289935
 20
0.9608814397
 30
0.0
 40
0.1145833333
 41
0.0
 71
     1
 72
     1
  1
A3
  7
SLDTEXTSTYLE0
  0
MTEXT
  5
112
330
1F
100
AcDbEntity
  8
0
  6
CONTINUOUS
 62
     7
100
AcDbMText
 10
11.2447957137
 20
0.5098154293
 30
0.0
 40
0.059
 41
0.0
 71
     1
 72
     1
  1
WEIGHT:
  7
SLDTEXTSTYLE0
  0
MTEXT
  5
113
330
1F
100
AcDbEntity
  8
0
  6
CONTINUOUS
 62
     7
100
AcDbMText
 10
14.347025661
 20
0.9294059436
 30
0.0
 40
0.25
 41
0.0
 71
     2
 72
     1
  1
LAS-01-0008
  7
SLDTEXTSTYLE0
  0
INSERT
  5
119
330
1F
100
AcDbEntity
  8
0
  6
CONTINUOUS
 62
     7
100
AcDbBlockReference
  2
SW_NOTE_0_3
 10
13.5070766374
 20
1.432524045
 30
0.0
  0
LINE
  5
11A
330
1F
100
AcDbEntity
  8
0
  6
SLD-SOLID
 62
     7
100
AcDbLine
 10
14.9008258422
 20
8.7046322398
 30
0.0
 11
14.9634632539
 21
8.6684724317
 31
0.0
  0
LINE
  5
11B
330
1F
100
AcDbEntity
  8
0
  6
SLD-SOLID
 62
     7
100
AcDbLine
 10
14.5319610843
 20
8.917573332
 30
0.0
 11
14.594598496
 21
8.8814135238
 31
0.0
  0
POLYLINE
  5
11C
330
1F
100
AcDbEntity
  8
0
  6
SLD-SOLID
 62
     7
100
AcDb2dPolyline
 66
     1
 10
0.0
 20
0.0
 30
0.0
 70
   128
  0
VERTEX
  5
2CC
330
11C
100
AcDbEntity
  8
0
  6
SLD-SOLID
 62
     7
100
AcDbVertex
100
AcDb2dVertex
 10
15.0897193016
 20
8.9239412401
 30
0.0
  0
VERTEX
  5
2CD
330
11C
100
AcDbEntity
  8
0
  6
SLD-SOLID
 62
     7
100
AcDbVertex
100
AcDb2dVertex
 10
15.098945262
 20
8.9285222875
 30
0.0
  0
VERTEX
  5
2CE
330
11C
100
AcDbEntity
  8
0
  6
SLD-SOLID
 62
     7
100
AcDbVertex
100
AcDb2dVertex
 10
15.1079916495
 20
8.9315241976
 30
0.0
  0
VERTEX
  5
2CF
330
11C
100
AcDbEntity
  8
0
  6
SLD-SOLID
 62
     7
100
AcDbVertex
100
AcDb2dVertex
 10
15.1166823865
 20
8.9328885418
 30
0.0
  0
VERTEX
  5
2D0
330
11C
100
AcDbEntity
  8
0
  6
SLD-SOLID
 62
     7
100
AcDbVertex
100
AcDb2dVertex
 10
15.1248483177
 20
8.9325887647
 30
0.0
  0
VERTEX
  5
2D1
330
11C
100
AcDbEntity
  8
0
  6
SLD-SOLID
 62
     7
100
AcDbVertex
100
AcDb2dVertex
 10
15.1323305027
 20
8.9306307009
 30
0.0
  0
VERTEX
  5
2D2
330
11C
100
AcDbEntity
  8
0
  6
SLD-SOLID
 62
     7
100
AcDbVertex
100
AcDb2dVertex
 10
15.138983309
 20
8.9270524621
 30
0.0
  0
VERTEX
  5
2D3
330
11C
100
AcDbEntity
  8
0
  6
SLD-SOLID
 62
     7
100
AcDbVertex
100
AcDb2dVertex
 10
15.1446772475
 20
8.9219236946
 30
0.0
  0
VERTEX
  5
2D4
330
11C
100
AcDbEntity
  8
0
  6
SLD-SOLID
 62
     7
100
AcDbVertex
100
AcDb2dVertex
 10
15.1493014921
 20
8.915344224
 30
0.0
  0
VERTEX
  5
2D5
330
11C
100
AcDbEntity
  8
0
  6
SLD-SOLID
 62
     7
100
AcDbVertex
100
AcDb2dVertex
 10
15.1527660371
 20
8.9074421122
 30
0.0
  0
VERTEX
  5
2D6
330
11C
100
AcDbEntity
  8
0
  6
SLD-SOLID
 62
     7
100
AcDbVertex
100
AcDb2dVertex
 10
15.1550034492
 20
8.8983711649
 30
0.0
  0
VERTEX
  5
2D7
330
11C
100
AcDbEntity
  8
0
  6
SLD-SOLID
 62
     7
100
AcDbVertex
100
AcDb2dVertex
 10
15.1559701795
 20
8.8883079376
 30
0.0
  0
VERTEX
  5
2D8
330
11C
100
AcDbEntity
  8
0
  6
SLD-SOLID
 62
     7
100
AcDbVertex
100
AcDb2dVertex
 10
15.1556474119
 20
8.8774482998
 30
0.0
  0
VERTEX
  5
2D9
330
11C
100
AcDbEntity
  8
0
  6
SLD-SOLID
 62
     7
100
AcDbVertex
100
AcDb2dVertex
 10
15.1540414286
 20
8.8660036218
 30
0.0
  0
VERTEX
  5
2DA
330
11C
100
AcDbEntity
  8
0
  6
SLD-SOLID
 62
     7
100
AcDbVertex
100
AcDb2dVertex
 10
15.1511834883
 20
8.8541966613
 30
0.0
  0
VERTEX
  5
2DB
330
11C
100
AcDbEntity
  8
0
  6
SLD-SOLID
 62
     7
100
AcDbVertex
100
AcDb2dVertex
 10
15.1471292175
 20
8.8422572274
 30
0.0
  0
VERTEX
  5
2DC
330
11C
100
AcDbEntity
  8
0
  6
SLD-SOLID
 62
     7
100
AcDbVertex
100
AcDb2dVertex
 10
15.141957528
 20
8.8304177076
 30
0.0
  0
VERTEX
  5
2DD
330
11C
100
AcDbEntity
  8
0
  6
SLD-SOLID
 62
     7
100
AcDbVertex
100
AcDb2dVertex
 10
15.1357690808
 20
8.8189085446
 30
0.0
  0
VERTEX
  5
2DE
330
11C
100
AcDbEntity
  8
0
  6
SLD-SOLID
 62
     7
100
AcDbVertex
100
AcDb2dVertex
 10
15.128684327
 20
8.8079537512
 30
0.0
  0
VERTEX
  5
2DF
330
11C
100
AcDbEntity
  8
0
  6
SLD-SOLID
 62
     7
100
AcDbVertex
100
AcDb2dVertex
 10
15.1208411634
 20
8.7977665501
 30
0.0
  0
VERTEX
  5
2E0
330
11C
100
AcDbEntity
  8
0
  6
SLD-SOLID
 62
     7
100
AcDbVertex
100
AcDb2dVertex
 10
15.1123922481
 20
8.7885452234
 30
0.0
  0
VERTEX
  5
2E1
330
11C
100
AcDbEntity
  8
0
  6
SLD-SOLID
 62
     7
100
AcDbVertex
100
AcDb2dVertex
 10
15.1035020297
 20
8.7804692539
 30
0.0
  0
VERTEX
  5
2E2
330
11C
100
AcDbEntity
  8
0
  6
SLD-SOLID
 62
     7
100
AcDbVertex
100
AcDb2dVertex
 10
15.0943435462
 20
8.7736958311
 30
0.0
  0
VERTEX
  5
2E3
330
11C
100
AcDbEntity
  8
0
  6
SLD-SOLID
 62
     7
100
AcDbVertex
100
AcDb2dVertex
 10
15.085095057
 20
8.7683567919
 30
0.0
  0
VERTEX
  5
2E4
330
11C
100
AcDbEntity
  8
0
  6
SLD-SOLID
 62
     7
100
AcDbVertex
100
AcDb2dVertex
 10
15.0759365735
 20
8.7645560548
 30
0.0
  0
VERTEX
  5
2E5
330
11C
100
AcDbEntity
  8
0
  6
SLD-SOLID
 62
     7
100
AcDbVertex
100
AcDb2dVertex
 10
15.0670463551
 20
8.7623675966
 30
0.0
  0
VERTEX
  5
2E6
330
11C
100
AcDbEntity
  8
0
  6
SLD-SOLID
 62
     7
100
AcDbVertex
100
AcDb2dVertex
 10
15.0585974399
 20
8.7618340133
 30
0.0
  0
VERTEX
  5
2E7
330
11C
100
AcDbEntity
  8
0
  6
SLD-SOLID
 62
     7
100
AcDbVertex
100
AcDb2dVertex
 10
15.0507542762
 20
8.7629656905
 30
0.0
  0
VERTEX
  5
2E8
330
11C
100
AcDbEntity
  8
0
  6
SLD-SOLID
 62
     7
100
AcDbVertex
100
AcDb2dVertex
 10
15.0436695225
 20
8.7657406013
 30
0.0
  0
VERTEX
  5
2E9
330
11C
100
AcDbEntity
  8
0
  6
SLD-SOLID
 62
     7
100
AcDbVertex
100
AcDb2dVertex
 10
15.0374810753
 20
8.7701047352
 30
0.0
  0
VERTEX
  5
2EA
330
11C
100
AcDbEntity
  8
0
  6
SLD-SOLID
 62
     7
100
AcDbVertex
100
AcDb2dVertex
 10
15.0323093858
 20
8.7759731494
 30
0.0
  0
VERTEX
  5
2EB
330
11C
100
AcDbEntity
  8
0
  6
SLD-SOLID
 62
     7
100
AcDbVertex
100
AcDb2dVertex
 10
15.028255115
 20
8.7832316219
 30
0.0
  0
VERTEX
  5
2EC
330
11C
100
AcDbEntity
  8
0
  6
SLD-SOLID
 62
     7
100
AcDbVertex
100
AcDb2dVertex
 10
15.0253971746
 20
8.7917388747
 30
0.0
  0
VERTEX
  5
2ED
330
11C
100
AcDbEntity
  8
0
  6
SLD-SOLID
 62
     7
100
AcDbVertex
100
AcDb2dVertex
 10
15.0237911914
 20
8.8013293239
 30
0.0
  0
VERTEX
  5
2EE
330
11C
100
AcDbEntity
  8
0
  6
SLD-SOLID
 62
     7
100
AcDbVertex
100
AcDb2dVertex
 10
15.0234684237
 20
8.8118163022
 30
0.0
  0
VERTEX
  5
2EF
330
11C
100
AcDbEntity
  8
0
  6
SLD-SOLID
 62
     7
100
AcDbVertex
100
AcDb2dVertex
 10
15.0244351541
 20
8.8229956926
 30
0.0
  0
VERTEX
  5
2F0
330
11C
100
AcDbEntity
  8
0
  6
SLD-SOLID
 62
     7
100
AcDbVertex
100
AcDb2dVertex
 10
15.0266725661
 20
8.8346499009
 30
0.0
  0
VERTEX
  5
2F1
330
11C
100
AcDbEntity
  8
0
  6
SLD-SOLID
 62
     7
100
AcDbVertex
100
AcDb2dVertex
 10
15.0301371112
 20
8.8465520912
 30
0.0
  0
VERTEX
  5
2F2
330
11C
100
AcDbEntity
  8
0
  6
SLD-SOLID
 62
     7
100
AcDbVertex
100
AcDb2dVertex
 10
15.0347613557
 20
8.858470601
 30
0.0
  0
VERTEX
  5
2F3
330
11C
100
AcDbEntity
  8
0
  6
SLD-SOLID
 62
     7
100
AcDbVertex
100
AcDb2dVertex
 10
15.0404552942
 20
8.8701734499
 30
0.0
  0
VERTEX
  5
2F4
330
11C
100
AcDbEntity
  8
0
  6
SLD-SOLID
 62
     7
100
AcDbVertex
100
AcDb2dVertex
 10
15.0471081006
 20
8.8814328554
 30
0.0
  0
VERTEX
  5
2F5
330
11C
100
AcDbEntity
  8
0
  6
SLD-SOLID
 62
     7
100
AcDbVertex
100
AcDb2dVertex
 10
15.0545902855
 20
8.892029666
 30
0.0
  0
VERTEX
  5
2F6
330
11C
100
AcDbEntity
  8
0
  6
SLD-SOLID
 62
     7
100
AcDbVertex
100
AcDb2dVertex
 10
15.0627562168
 20
8.9017576267
 30
0.0
  0
VERTEX
  5
2F7
330
11C
100
AcDbEntity
  8
0
  6
SLD-SOLID
 62
     7
100
AcDbVertex
100
AcDb2dVertex
 10
15.0714469538
 20
8.9104273939
 30
0.0
  0
VERTEX
  5
2F8
330
11C
100
AcDbEntity
  8
0
  6
SLD-SOLID
 62
     7
100
AcDbVertex
100
AcDb2dVertex
 10
15.0804933413
 20
8.9178702204
 30
0.0
  0
VERTEX
  5
2F9
330
11C
100
AcDbEntity
  8
0
  6
SLD-SOLID
 62
     7
100
AcDbVertex
100
AcDb2dVertex
 10
15.0897193016
 20
8.9239412401
 30
0.0
  0
SEQEND
  5
409
330
11C
100
AcDbEntity
  8
0
  6
SLD-SOLID
 62
     7
  0
POLYLINE
  5
11D
330
1F
100
AcDbEntity
  8
0
  6
SLD-SOLID
 62
     7
100
AcDb2dPolyline
 66
     1
 10
0.0
 20
0.0
 30
0.0
 70
   128
  0
VERTEX
  5
2FA
330
11D
100
AcDbEntity
  8
0
  6
SLD-SOLID
 62
     7
100
AcDbVertex
100
AcDb2dVertex
 10
15.0897193016
 20
9.5563500619
 30
0.0
  0
VERTEX
  5
2FB
330
11D
100
AcDbEntity
  8
0
  6
SLD-SOLID
 62
     7
100
AcDbVertex
100
AcDb2dVertex
 10
15.098945262
 20
9.5609311093
 30
0.0
  0
VERTEX
  5
2FC
330
11D
100
AcDbEntity
  8
0
  6
SLD-SOLID
 62
     7
100
AcDbVertex
100
AcDb2dVertex
 10
15.1079916495
 20
9.5639330195
 30
0.0
  0
VERTEX
  5
2FD
330
11D
100
AcDbEntity
  8
0
  6
SLD-SOLID
 62
     7
100
AcDbVertex
100
AcDb2dVertex
 10
15.1166823865
 20
9.5652973637
 30
0.0
  0
VERTEX
  5
2FE
330
11D
100
AcDbEntity
  8
0
  6
SLD-SOLID
 62
     7
100
AcDbVertex
100
AcDb2dVertex
 10
15.1248483177
 20
9.5649975865
 30
0.0
  0
VERTEX
  5
2FF
330
11D
100
AcDbEntity
  8
0
  6
SLD-SOLID
 62
     7
100
AcDbVertex
100
AcDb2dVertex
 10
15.1323305027
 20
9.5630395228
 30
0.0
  0
VERTEX
  5
300
330
11D
100
AcDbEntity
  8
0
  6
SLD-SOLID
 62
     7
100
AcDbVertex
100
AcDb2dVertex
 10
15.138983309
 20
9.559461284
 30
0.0
  0
VERTEX
  5
301
330
11D
100
AcDbEntity
  8
0
  6
SLD-SOLID
 62
     7
100
AcDbVertex
100
AcDb2dVertex
 10
15.1446772475
 20
9.5543325165
 30
0.0
  0
VERTEX
  5
302
330
11D
100
AcDbEntity
  8
0
  6
SLD-SOLID
 62
     7
100
AcDbVertex
100
AcDb2dVertex
 10
15.1493014921
 20
9.5477530459
 30
0.0
  0
VERTEX
  5
303
330
11D
100
AcDbEntity
  8
0
  6
SLD-SOLID
 62
     7
100
AcDbVertex
100
AcDb2dVertex
 10
15.1527660371
 20
9.5398509341
 30
0.0
  0
VERTEX
  5
304
330
11D
100
AcDbEntity
  8
0
  6
SLD-SOLID
 62
     7
100
AcDbVertex
100
AcDb2dVertex
 10
15.1550034492
 20
9.5307799867
 30
0.0
  0
VERTEX
  5
305
330
11D
100
AcDbEntity
  8
0
  6
SLD-SOLID
 62
     7
100
AcDbVertex
100
AcDb2dVertex
 10
15.1559701795
 20
9.5207167595
 30
0.0
  0
VERTEX
  5
306
330
11D
100
AcDbEntity
  8
0
  6
SLD-SOLID
 62
     7
100
AcDbVertex
100
AcDb2dVertex
 10
15.1556474119
 20
9.5098571216
 30
0.0
  0
VERTEX
  5
307
330
11D
100
AcDbEntity
  8
0
  6
SLD-SOLID
 62
     7
100
AcDbVertex
100
AcDb2dVertex
 10
15.1540414286
 20
9.4984124436
 30
0.0
  0
VERTEX
  5
308
330
11D
100
AcDbEntity
  8
0
  6
SLD-SOLID
 62
     7
100
AcDbVertex
100
AcDb2dVertex
 10
15.1511834883
 20
9.4866054831
 30
0.0
  0
VERTEX
  5
309
330
11D
100
AcDbEntity
  8
0
  6
SLD-SOLID
 62
     7
100
AcDbVertex
100
AcDb2dVertex
 10
15.1471292175
 20
9.4746660492
 30
0.0
  0
VERTEX
  5
30A
330
11D
100
AcDbEntity
  8
0
  6
SLD-SOLID
 62
     7
100
AcDbVertex
100
AcDb2dVertex
 10
15.141957528
 20
9.4628265294
 30
0.0
  0
VERTEX
  5
30B
330
11D
100
AcDbEntity
  8
0
  6
SLD-SOLID
 62
     7
100
AcDbVertex
100
AcDb2dVertex
 10
15.1357690808
 20
9.4513173664
 30
0.0
  0
VERTEX
  5
30C
330
11D
100
AcDbEntity
  8
0
  6
SLD-SOLID
 62
     7
100
AcDbVertex
100
AcDb2dVertex
 10
15.128684327
 20
9.4403625731
 30
0.0
  0
VERTEX
  5
30D
330
11D
100
AcDbEntity
  8
0
  6
SLD-SOLID
 62
     7
100
AcDbVertex
100
AcDb2dVertex
 10
15.1208411634
 20
9.4301753719
 30
0.0
  0
VERTEX
  5
30E
330
11D
100
AcDbEntity
  8
0
  6
SLD-SOLID
 62
     7
100
AcDbVertex
100
AcDb2dVertex
 10
15.1123922481
 20
9.4209540453
 30
0.0
  0
VERTEX
  5
30F
330
11D
100
AcDbEntity
  8
0
  6
SLD-SOLID
 62
     7
100
AcDbVertex
100
AcDb2dVertex
 10
15.1035020297
 20
9.4128780758
 30
0.0
  0
VERTEX
  5
310
330
11D
100
AcDbEntity
  8
0
  6
SLD-SOLID
 62
     7
100
AcDbVertex
100
AcDb2dVertex
 10
15.0943435462
 20
9.4061046529
 30
0.0
  0
VERTEX
  5
311
330
11D
100
AcDbEntity
  8
0
  6
SLD-SOLID
 62
     7
100
AcDbVertex
100
AcDb2dVertex
 10
15.085095057
 20
9.4007656138
 30
0.0
  0
VERTEX
  5
312
330
11D
100
AcDbEntity
  8
0
  6
SLD-SOLID
 62
     7
100
AcDbVertex
100
AcDb2dVertex
 10
15.0759365735
 20
9.3969648766
 30
0.0
  0
VERTEX
  5
313
330
11D
100
AcDbEntity
  8
0
  6
SLD-SOLID
 62
     7
100
AcDbVertex
100
AcDb2dVertex
 10
15.0670463551
 20
9.3947764184
 30
0.0
  0
VERTEX
  5
314
330
11D
100
AcDbEntity
  8
0
  6
SLD-SOLID
 62
     7
100
AcDbVertex
100
AcDb2dVertex
 10
15.0585974399
 20
9.3942428352
 30
0.0
  0
VERTEX
  5
315
330
11D
100
AcDbEntity
  8
0
  6
SLD-SOLID
 62
     7
100
AcDbVertex
100
AcDb2dVertex
 10
15.0507542762
 20
9.3953745123
 30
0.0
  0
VERTEX
  5
316
330
11D
100
AcDbEntity
  8
0
  6
SLD-SOLID
 62
     7
100
AcDbVertex
100
AcDb2dVertex
 10
15.0436695225
 20
9.3981494231
 30
0.0
  0
VERTEX
  5
317
330
11D
100
AcDbEntity
  8
0
  6
SLD-SOLID
 62
     7
100
AcDbVertex
100
AcDb2dVertex
 10
15.0374810753
 20
9.4025135571
 30
0.0
  0
VERTEX
  5
318
330
11D
100
AcDbEntity
  8
0
  6
SLD-SOLID
 62
     7
100
AcDbVertex
100
AcDb2dVertex
 10
15.0323093858
 20
9.4083819713
 30
0.0
  0
VERTEX
  5
319
330
11D
100
AcDbEntity
  8
0
  6
SLD-SOLID
 62
     7
100
AcDbVertex
100
AcDb2dVertex
 10
15.028255115
 20
9.4156404438
 30
0.0
  0
VERTEX
  5
31A
330
11D
100
AcDbEntity
  8
0
  6
SLD-SOLID
 62
     7
100
AcDbVertex
100
AcDb2dVertex
 10
15.0253971746
 20
9.4241476966
 30
0.0
  0
VERTEX
  5
31B
330
11D
100
AcDbEntity
  8
0
  6
SLD-SOLID
 62
     7
100
AcDbVertex
100
AcDb2dVertex
 10
15.0237911914
 20
9.4337381457
 30
0.0
  0
VERTEX
  5
31C
330
11D
100
AcDbEntity
  8
0
  6
SLD-SOLID
 62
     7
100
AcDbVertex
100
AcDb2dVertex
 10
15.0234684237
 20
9.444225124
 30
0.0
  0
VERTEX
  5
31D
330
11D
100
AcDbEntity
  8
0
  6
SLD-SOLID
 62
     7
100
AcDbVertex
100
AcDb2dVertex
 10
15.0244351541
 20
9.4554045144
 30
0.0
  0
VERTEX
  5
31E
330
11D
100
AcDbEntity
  8
0
  6
SLD-SOLID
 62
     7
100
AcDbVertex
100
AcDb2dVertex
 10
15.0266725661
 20
9.4670587227
 30
0.0
  0
VERTEX
  5
31F
330
11D
100
AcDbEntity
  8
0
  6
SLD-SOLID
 62
     7
100
AcDbVertex
100
AcDb2dVertex
 10
15.0301371112
 20
9.478960913
 30
0.0
  0
VERTEX
  5
320
330
11D
100
AcDbEntity
  8
0
  6
SLD-SOLID
 62
     7
100
AcDbVertex
100
AcDb2dVertex
 10
15.0347613557
 20
9.4908794228
 30
0.0
  0
VERTEX
  5
321
330
11D
100
AcDbEntity
  8
0
  6
SLD-SOLID
 62
     7
100
AcDbVertex
100
AcDb2dVertex
 10
15.0404552942
 20
9.5025822718
 30
0.0
  0
VERTEX
  5
322
330
11D
100
AcDbEntity
  8
0
  6
SLD-SOLID
 62
     7
100
AcDbVertex
100
AcDb2dVertex
 10
15.0471081006
 20
9.5138416773
 30
0.0
  0
VERTEX
  5
323
330
11D
100
AcDbEntity
  8
0
  6
SLD-SOLID
 62
     7
100
AcDbVertex
100
AcDb2dVertex
 10
15.0545902855
 20
9.5244384878
 30
0.0
  0
VERTEX
  5
324
330
11D
100
AcDbEntity
  8
0
  6
SLD-SOLID
 62
     7
100
AcDbVertex
100
AcDb2dVertex
 10
15.0627562168
 20
9.5341664485
 30
0.0
  0
VERTEX
  5
325
330
11D
100
AcDbEntity
  8
0
  6
SLD-SOLID
 62
     7
100
AcDbVertex
100
AcDb2dVertex
 10
15.0714469538
 20
9.5428362157
 30
0.0
  0
VERTEX
  5
326
330
11D
100
AcDbEntity
  8
0
  6
SLD-SOLID
 62
     7
100
AcDbVertex
100
AcDb2dVertex
 10
15.0804933413
 20
9.5502790422
 30
0.0
  0
VERTEX
  5
327
330
11D
100
AcDbEntity
  8
0
  6
SLD-SOLID
 62
     7
100
AcDbVertex
100
AcDb2dVertex
 10
15.0897193016
 20
9.5563500619
 30
0.0
  0
SEQEND
  5
40A
330
11D
100
AcDbEntity
  8
0
  6
SLD-SOLID
 62
     7
  0
LINE
  5
11E
330
1F
100
AcDbEntity
  8
0
  6
SLD-SOLID
 62
     7
100
AcDbLine
 10
15.061880452
 20
10.4463182941
 30
0.0
 11
15.3443320391
 21
10.6093741247
 31
0.0
  0
LINE
  5
11F
330
1F
100
AcDbEntity
  8
0
  6
SLD-SOLID
 62
     7
100
AcDbLine
 10
15.3443320391
 20
10.0837661611
 30
0.0
 11
15.3443320391
 21
10.6093741247
 31
0.0
  0
ARC
  5
120
330
1F
100
AcDbEntity
  8
0
  6
SLD-SOLID
 62
     7
100
AcDbCircle
 10
15.4526375292
 20
9.9201075191
 30
0.0
 40
0.19607476023742
100
AcDbArc
 50
122.5200896024
 51
177.479910252
  0
LINE
  5
121
330
1F
100
AcDbEntity
  8
0
  6
SLD-SOLID
 62
     7
100
AcDbLine
 10
15.2567523995
 20
8.951451672
 30
0.0
 11
15.2567523995
 21
9.9287288642
 31
0.0
  0
ARC
  5
122
330
1F
100
AcDbEntity
  8
0
  6
SLD-SOLID
 62
     7
100
AcDbCircle
 10
14.9545445056
 20
8.9652038082
 30
0.0
 40
0.3025206314118366
100
AcDbArc
 50
302.60547834
 51
357.3945215143
  0
LINE
  5
123
330
1F
100
AcDbEntity
  8
0
  6
SLD-SOLID
 62
     7
100
AcDbLine
 10
15.061880452
 20
8.6782181109
 30
0.0
 11
15.1175581513
 21
8.7103601626
 31
0.0
  0
ARC
  5
124
330
1F
100
AcDbEntity
  8
0
  6
SLD-SOLID
 62
     7
100
AcDbCircle
 10
15.0075433627
 20
8.7448341659
 30
0.0
 40
0.0859663774465519
100
AcDbArc
 50
170.7859630095
 51
309.2032852357
  0
LINE
  5
125
330
1F
100
AcDbEntity
  8
0
  6
SLD-SOLID
 62
     7
100
AcDbLine
 10
14.9226862037
 20
8.7585993621
 30
0.0
 11
14.9226862037
 21
10.2052267847
 31
0.0
  0
ARC
  5
126
330
1F
100
AcDbEntity
  8
0
  6
SLD-SOLID
 62
     7
100
AcDbCircle
 10
15.2248940977
 20
10.1914746485
 30
0.0
 40
0.302520631411839
100
AcDbArc
 50
122.60547834
 51
177.3945215143
  0
ARC
  5
127
330
1F
100
AcDbEntity
  8
0
  6
SLD-SOLID
 62
     7
100
AcDbCircle
 10
15.162256686
 20
10.2276344566
 30
0.0
 40
0.3025206314118171
100
AcDbArc
 50
122.60547834
 51
177.3945215143
  0
LINE
  5
128
330
1F
100
AcDbEntity
  8
0
  6
SLD-SOLID
 62
     7
100
AcDbLine
 10
14.9992430403
 20
10.4824781022
 30
0.0
 11
15.061880452
 21
10.4463182941
 31
0.0
  0
LINE
  5
129
330
1F
100
AcDbEntity
  8
0
  6
SLD-SOLID
 62
     7
100
AcDbLine
 10
14.9226862037
 20
10.2052267847
 30
0.0
 11
14.860048792
 21
10.2413865928
 31
0.0
  0
LINE
  5
12A
330
1F
100
AcDbEntity
  8
0
  6
SLD-SOLID
 62
     7
100
AcDbLine
 10
15.0270818899
 20
10.8521116962
 30
0.0
 11
15.3333092361
 21
10.6753304121
 31
0.0
  0
LINE
  5
12B
330
1F
100
AcDbEntity
  8
0
  6
SLD-SOLID
 62
     7
100
AcDbLine
 10
15.0270818899
 20
10.8521116962
 30
0.0
 11
14.6930156941
 21
10.6592593863
 31
0.0
  0
LINE
  5
12C
330
1F
100
AcDbEntity
  8
0
  6
SLD-SOLID
 62
     7
100
AcDbLine
 10
14.6303782824
 20
10.6954191944
 30
0.0
 11
14.6930156941
 21
10.6592593863
 31
0.0
  0
LINE
  5
12D
330
1F
100
AcDbEntity
  8
0
  6
SLD-SOLID
 62
     7
100
AcDbLine
 10
14.9128298695
 20
10.8584750249
 30
0.0
 11
14.6303782824
 21
10.6954191944
 31
0.0
  0
ARC
  5
12E
330
1F
100
AcDbEntity
  8
0
  6
SLD-SOLID
 62
     7
100
AcDbCircle
 10
14.8096883618
 20
11.0410757648
 30
0.0
 40
0.2097169540724665
100
AcDbArc
 50
299.4598093935
 51
314.8087268434
  0
LINE
  5
12F
330
1F
100
AcDbEntity
  8
0
  6
SLD-SOLID
 62
     7
100
AcDbLine
 10
14.9574847658
 20
10.8922892607
 30
0.0
 11
15.3750675106
 21
11.1333546481
 31
0.0
  0
LINE
  5
130
330
1F
100
AcDbEntity
  8
0
  6
SLD-SOLID
 62
     7
100
AcDbLine
 10
15.820489105
 20
10.8762182349
 30
0.0
 11
15.3750675106
 21
11.1333546481
 31
0.0
  0
LINE
  5
131
330
1F
100
AcDbEntity
  8
0
  6
SLD-SOLID
 62
     7
100
AcDbLine
 10
15.4029063602
 20
10.6351528476
 30
0.0
 11
15.820489105
 21
10.8762182349
 31
0.0
  0
ARC
  5
132
330
1F
100
AcDbEntity
  8
0
  6
SLD-SOLID
 62
     7
100
AcDbCircle
 10
15.4987340634
 20
10.3379779444
 30
0.0
 40
0.3122432893891796
100
AcDbArc
 50
107.872554867
 51
119.6363033474
  0
LINE
  5
133
330
1F
100
AcDbEntity
  8
0
  6
SLD-SOLID
 62
     7
100
AcDbLine
 10
15.3333092361
 20
10.6753304121
 30
0.0
 11
14.9992430403
 21
10.4824781022
 31
0.0
  0
LINE
  5
134
330
1F
100
AcDbEntity
  8
0
  6
SLD-SOLID
 62
     7
100
AcDbLine
 10
14.860048792
 20
8.7947591702
 30
0.0
 11
14.9226862037
 21
8.7585993621
 31
0.0
  0
LINE
  5
135
330
1F
100
AcDbEntity
  8
0
  6
SLD-SOLID
 62
     7
100
AcDbLine
 10
14.860048792
 20
8.7947591702
 30
0.0
 11
14.860048792
 21
10.2413865928
 31
0.0
  0
ARC
  5
136
330
1F
100
AcDbEntity
  8
0
  6
SLD-SOLID
 62
     7
100
AcDbCircle
 10
14.6386786048
 20
8.957775258
 30
0.0
 40
0.0859663774465533
100
AcDbArc
 50
170.7859630095
 51
309.2032852357
  0
LINE
  5
137
330
1F
100
AcDbEntity
  8
0
  6
SLD-SOLID
 62
     7
100
AcDbLine
 10
14.5538214458
 20
10.4181678769
 30
0.0
 11
14.5538214458
 21
8.9715404543
 31
0.0
  0
ARC
  5
138
330
1F
100
AcDbEntity
  8
0
  6
SLD-SOLID
 62
     7
100
AcDbCircle
 10
14.8560293398
 20
10.4044157406
 30
0.0
 40
0.3025206314118235
100
AcDbArc
 50
122.60547834
 51
177.3945215143
  0
LINE
  5
139
330
1F
100
AcDbEntity
  8
0
  6
SLD-SOLID
 62
     7
100
AcDbLine
 10
15.0270818899
 20
10.4985491281
 30
0.0
 11
15.0270818899
 21
10.8521116962
 31
0.0
  0
ARC
  5
13A
330
1F
100
AcDbEntity
  8
0
  6
SLD-SOLID
 62
     7
100
AcDbCircle
 10
14.590135446
 20
9.1731291211
 30
0.0
 40
0.2958962410731849
100
AcDbArc
 50
302.4020211225
 51
335.8096533201
  0
LINE
  5
13B
330
1F
100
AcDbEntity
  8
0
  6
SLD-SOLID
 62
     7
100
AcDbLine
 10
14.7486933934
 20
8.9233012547
 30
0.0
 11
14.6930156941
 21
8.8911592031
 31
0.0
  0
POLYLINE
  5
13C
330
1F
100
AcDbEntity
  8
0
  6
SLD-SOLID
 62
     7
100
AcDb2dPolyline
 66
     1
 10
0.0
 20
0.0
 30
0.0
 70
   128
  0
VERTEX
  5
328
330
13C
100
AcDbEntity
  8
0
  6
SLD-SOLID
 62
     7
100
AcDbVertex
100
AcDb2dVertex
 10
14.7208545437
 20
8.98378093
 30
0.0
  0
VERTEX
  5
329
330
13C
100
AcDbEntity
  8
0
  6
SLD-SOLID
 62
     7
100
AcDbVertex
100
AcDb2dVertex
 10
14.7116285834
 20
8.9791998827
 30
0.0
  0
VERTEX
  5
32A
330
13C
100
AcDbEntity
  8
0
  6
SLD-SOLID
 62
     7
100
AcDbVertex
100
AcDb2dVertex
 10
14.7025821959
 20
8.9761979725
 30
0.0
  0
VERTEX
  5
32B
330
13C
100
AcDbEntity
  8
0
  6
SLD-SOLID
 62
     7
100
AcDbVertex
100
AcDb2dVertex
 10
14.6938914589
 20
8.9748336283
 30
0.0
  0
VERTEX
  5
32C
330
13C
100
AcDbEntity
  8
0
  6
SLD-SOLID
 62
     7
100
AcDbVertex
100
AcDb2dVertex
 10
14.6857255276
 20
8.9751334055
 30
0.0
  0
VERTEX
  5
32D
330
13C
100
AcDbEntity
  8
0
  6
SLD-SOLID
 62
     7
100
AcDbVertex
100
AcDb2dVertex
 10
14.6782433427
 20
8.9770914692
 30
0.0
  0
VERTEX
  5
32E
330
13C
100
AcDbEntity
  8
0
  6
SLD-SOLID
 62
     7
100
AcDbVertex
100
AcDb2dVertex
 10
14.6715905363
 20
8.980669708
 30
0.0
  0
VERTEX
  5
32F
330
13C
100
AcDbEntity
  8
0
  6
SLD-SOLID
 62
     7
100
AcDbVertex
100
AcDb2dVertex
 10
14.6658965978
 20
8.9857984755
 30
0.0
  0
VERTEX
  5
330
330
13C
100
AcDbEntity
  8
0
  6
SLD-SOLID
 62
     7
100
AcDbVertex
100
AcDb2dVertex
 10
14.6612723533
 20
8.9923779461
 30
0.0
  0
VERTEX
  5
331
330
13C
100
AcDbEntity
  8
0
  6
SLD-SOLID
 62
     7
100
AcDbVertex
100
AcDb2dVertex
 10
14.6578078082
 20
9.0002800579
 30
0.0
  0
VERTEX
  5
332
330
13C
100
AcDbEntity
  8
0
  6
SLD-SOLID
 62
     7
100
AcDbVertex
100
AcDb2dVertex
 10
14.6555703962
 20
9.0093510052
 30
0.0
  0
VERTEX
  5
333
330
13C
100
AcDbEntity
  8
0
  6
SLD-SOLID
 62
     7
100
AcDbVertex
100
AcDb2dVertex
 10
14.6546036658
 20
9.0194142325
 30
0.0
  0
VERTEX
  5
334
330
13C
100
AcDbEntity
  8
0
  6
SLD-SOLID
 62
     7
100
AcDbVertex
100
AcDb2dVertex
 10
14.6549264335
 20
9.0302738703
 30
0.0
  0
VERTEX
  5
335
330
13C
100
AcDbEntity
  8
0
  6
SLD-SOLID
 62
     7
100
AcDbVertex
100
AcDb2dVertex
 10
14.6565324167
 20
9.0417185483
 30
0.0
  0
VERTEX
  5
336
330
13C
100
AcDbEntity
  8
0
  6
SLD-SOLID
 62
     7
100
AcDbVertex
100
AcDb2dVertex
 10
14.6593903571
 20
9.0535255088
 30
0.0
  0
VERTEX
  5
337
330
13C
100
AcDbEntity
  8
0
  6
SLD-SOLID
 62
     7
100
AcDbVertex
100
AcDb2dVertex
 10
14.6634446279
 20
9.0654649427
 30
0.0
  0
VERTEX
  5
338
330
13C
100
AcDbEntity
  8
0
  6
SLD-SOLID
 62
     7
100
AcDbVertex
100
AcDb2dVertex
 10
14.6686163174
 20
9.0773044626
 30
0.0
  0
VERTEX
  5
339
330
13C
100
AcDbEntity
  8
0
  6
SLD-SOLID
 62
     7
100
AcDbVertex
100
AcDb2dVertex
 10
14.6748047646
 20
9.0888136255
 30
0.0
  0
VERTEX
  5
33A
330
13C
100
AcDbEntity
  8
0
  6
SLD-SOLID
 62
     7
100
AcDbVertex
100
AcDb2dVertex
 10
14.6818895183
 20
9.0997684189
 30
0.0
  0
VERTEX
  5
33B
330
13C
100
AcDbEntity
  8
0
  6
SLD-SOLID
 62
     7
100
AcDbVertex
100
AcDb2dVertex
 10
14.6897326819
 20
9.10995562
 30
0.0
  0
VERTEX
  5
33C
330
13C
100
AcDbEntity
  8
0
  6
SLD-SOLID
 62
     7
100
AcDbVertex
100
AcDb2dVertex
 10
14.6981815972
 20
9.1191769467
 30
0.0
  0
VERTEX
  5
33D
330
13C
100
AcDbEntity
  8
0
  6
SLD-SOLID
 62
     7
100
AcDbVertex
100
AcDb2dVertex
 10
14.7070718156
 20
9.1272529162
 30
0.0
  0
VERTEX
  5
33E
330
13C
100
AcDbEntity
  8
0
  6
SLD-SOLID
 62
     7
100
AcDbVertex
100
AcDb2dVertex
 10
14.7162302991
 20
9.134026339
 30
0.0
  0
VERTEX
  5
33F
330
13C
100
AcDbEntity
  8
0
  6
SLD-SOLID
 62
     7
100
AcDbVertex
100
AcDb2dVertex
 10
14.7254787883
 20
9.1393653782
 30
0.0
  0
VERTEX
  5
340
330
13C
100
AcDbEntity
  8
0
  6
SLD-SOLID
 62
     7
100
AcDbVertex
100
AcDb2dVertex
 10
14.7346372718
 20
9.1431661153
 30
0.0
  0
VERTEX
  5
341
330
13C
100
AcDbEntity
  8
0
  6
SLD-SOLID
 62
     7
100
AcDbVertex
100
AcDb2dVertex
 10
14.7435274902
 20
9.1453545735
 30
0.0
  0
VERTEX
  5
342
330
13C
100
AcDbEntity
  8
0
  6
SLD-SOLID
 62
     7
100
AcDbVertex
100
AcDb2dVertex
 10
14.7519764055
 20
9.1458881568
 30
0.0
  0
VERTEX
  5
343
330
13C
100
AcDbEntity
  8
0
  6
SLD-SOLID
 62
     7
100
AcDbVertex
100
AcDb2dVertex
 10
14.7598195691
 20
9.1447564796
 30
0.0
  0
VERTEX
  5
344
330
13C
100
AcDbEntity
  8
0
  6
SLD-SOLID
 62
     7
100
AcDbVertex
100
AcDb2dVertex
 10
14.7669043229
 20
9.1419815688
 30
0.0
  0
VERTEX
  5
345
330
13C
100
AcDbEntity
  8
0
  6
SLD-SOLID
 62
     7
100
AcDbVertex
100
AcDb2dVertex
 10
14.7730927701
 20
9.1376174349
 30
0.0
  0
VERTEX
  5
346
330
13C
100
AcDbEntity
  8
0
  6
SLD-SOLID
 62
     7
100
AcDbVertex
100
AcDb2dVertex
 10
14.7782644596
 20
9.1317490207
 30
0.0
  0
VERTEX
  5
347
330
13C
100
AcDbEntity
  8
0
  6
SLD-SOLID
 62
     7
100
AcDbVertex
100
AcDb2dVertex
 10
14.7823187304
 20
9.1244905482
 30
0.0
  0
VERTEX
  5
348
330
13C
100
AcDbEntity
  8
0
  6
SLD-SOLID
 62
     7
100
AcDbVertex
100
AcDb2dVertex
 10
14.7851766707
 20
9.1159832954
 30
0.0
  0
VERTEX
  5
349
330
13C
100
AcDbEntity
  8
0
  6
SLD-SOLID
 62
     7
100
AcDbVertex
100
AcDb2dVertex
 10
14.786782654
 20
9.1063928462
 30
0.0
  0
VERTEX
  5
34A
330
13C
100
AcDbEntity
  8
0
  6
SLD-SOLID
 62
     7
100
AcDbVertex
100
AcDb2dVertex
 10
14.7871054216
 20
9.0959058679
 30
0.0
  0
VERTEX
  5
34B
330
13C
100
AcDbEntity
  8
0
  6
SLD-SOLID
 62
     7
100
AcDbVertex
100
AcDb2dVertex
 10
14.7861386913
 20
9.0847264775
 30
0.0
  0
VERTEX
  5
34C
330
13C
100
AcDbEntity
  8
0
  6
SLD-SOLID
 62
     7
100
AcDbVertex
100
AcDb2dVertex
 10
14.7839012792
 20
9.0730722692
 30
0.0
  0
VERTEX
  5
34D
330
13C
100
AcDbEntity
  8
0
  6
SLD-SOLID
 62
     7
100
AcDbVertex
100
AcDb2dVertex
 10
14.7804367342
 20
9.0611700789
 30
0.0
  0
VERTEX
  5
34E
330
13C
100
AcDbEntity
  8
0
  6
SLD-SOLID
 62
     7
100
AcDbVertex
100
AcDb2dVertex
 10
14.7758124896
 20
9.0492515692
 30
0.0
  0
VERTEX
  5
34F
330
13C
100
AcDbEntity
  8
0
  6
SLD-SOLID
 62
     7
100
AcDbVertex
100
AcDb2dVertex
 10
14.7701185511
 20
9.0375487202
 30
0.0
  0
VERTEX
  5
350
330
13C
100
AcDbEntity
  8
0
  6
SLD-SOLID
 62
     7
100
AcDbVertex
100
AcDb2dVertex
 10
14.7634657448
 20
9.0262893147
 30
0.0
  0
VERTEX
  5
351
330
13C
100
AcDbEntity
  8
0
  6
SLD-SOLID
 62
     7
100
AcDbVertex
100
AcDb2dVertex
 10
14.7559835598
 20
9.0156925041
 30
0.0
  0
VERTEX
  5
352
330
13C
100
AcDbEntity
  8
0
  6
SLD-SOLID
 62
     7
100
AcDbVertex
100
AcDb2dVertex
 10
14.7478176286
 20
9.0059645434
 30
0.0
  0
VERTEX
  5
353
330
13C
100
AcDbEntity
  8
0
  6
SLD-SOLID
 62
     7
100
AcDbVertex
100
AcDb2dVertex
 10
14.7391268915
 20
8.9972947762
 30
0.0
  0
VERTEX
  5
354
330
13C
100
AcDbEntity
  8
0
  6
SLD-SOLID
 62
     7
100
AcDbVertex
100
AcDb2dVertex
 10
14.730080504
 20
8.9898519497
 30
0.0
  0
VERTEX
  5
355
330
13C
100
AcDbEntity
  8
0
  6
SLD-SOLID
 62
     7
100
AcDbVertex
100
AcDb2dVertex
 10
14.7208545437
 20
8.98378093
 30
0.0
  0
SEQEND
  5
40B
330
13C
100
AcDbEntity
  8
0
  6
SLD-SOLID
 62
     7
  0
POLYLINE
  5
13D
330
1F
100
AcDbEntity
  8
0
  6
SLD-SOLID
 62
     7
100
AcDb2dPolyline
 66
     1
 10
0.0
 20
0.0
 30
0.0
 70
   128
  0
VERTEX
  5
356
330
13D
100
AcDbEntity
  8
0
  6
SLD-SOLID
 62
     7
100
AcDbVertex
100
AcDb2dVertex
 10
14.7208545437
 20
9.6161897519
 30
0.0
  0
VERTEX
  5
357
330
13D
100
AcDbEntity
  8
0
  6
SLD-SOLID
 62
     7
100
AcDbVertex
100
AcDb2dVertex
 10
14.7116285834
 20
9.6116087045
 30
0.0
  0
VERTEX
  5
358
330
13D
100
AcDbEntity
  8
0
  6
SLD-SOLID
 62
     7
100
AcDbVertex
100
AcDb2dVertex
 10
14.7025821959
 20
9.6086067943
 30
0.0
  0
VERTEX
  5
359
330
13D
100
AcDbEntity
  8
0
  6
SLD-SOLID
 62
     7
100
AcDbVertex
100
AcDb2dVertex
 10
14.6938914589
 20
9.6072424501
 30
0.0
  0
VERTEX
  5
35A
330
13D
100
AcDbEntity
  8
0
  6
SLD-SOLID
 62
     7
100
AcDbVertex
100
AcDb2dVertex
 10
14.6857255276
 20
9.6075422273
 30
0.0
  0
VERTEX
  5
35B
330
13D
100
AcDbEntity
  8
0
  6
SLD-SOLID
 62
     7
100
AcDbVertex
100
AcDb2dVertex
 10
14.6782433427
 20
9.609500291
 30
0.0
  0
VERTEX
  5
35C
330
13D
100
AcDbEntity
  8
0
  6
SLD-SOLID
 62
     7
100
AcDbVertex
100
AcDb2dVertex
 10
14.6715905363
 20
9.6130785298
 30
0.0
  0
VERTEX
  5
35D
330
13D
100
AcDbEntity
  8
0
  6
SLD-SOLID
 62
     7
100
AcDbVertex
100
AcDb2dVertex
 10
14.6658965978
 20
9.6182072973
 30
0.0
  0
VERTEX
  5
35E
330
13D
100
AcDbEntity
  8
0
  6
SLD-SOLID
 62
     7
100
AcDbVertex
100
AcDb2dVertex
 10
14.6612723533
 20
9.6247867679
 30
0.0
  0
VERTEX
  5
35F
330
13D
100
AcDbEntity
  8
0
  6
SLD-SOLID
 62
     7
100
AcDbVertex
100
AcDb2dVertex
 10
14.6578078082
 20
9.6326888797
 30
0.0
  0
VERTEX
  5
360
330
13D
100
AcDbEntity
  8
0
  6
SLD-SOLID
 62
     7
100
AcDbVertex
100
AcDb2dVertex
 10
14.6555703962
 20
9.6417598271
 30
0.0
  0
VERTEX
  5
361
330
13D
100
AcDbEntity
  8
0
  6
SLD-SOLID
 62
     7
100
AcDbVertex
100
AcDb2dVertex
 10
14.6546036658
 20
9.6518230543
 30
0.0
  0
VERTEX
  5
362
330
13D
100
AcDbEntity
  8
0
  6
SLD-SOLID
 62
     7
100
AcDbVertex
100
AcDb2dVertex
 10
14.6549264335
 20
9.6626826922
 30
0.0
  0
VERTEX
  5
363
330
13D
100
AcDbEntity
  8
0
  6
SLD-SOLID
 62
     7
100
AcDbVertex
100
AcDb2dVertex
 10
14.6565324167
 20
9.6741273702
 30
0.0
  0
VERTEX
  5
364
330
13D
100
AcDbEntity
  8
0
  6
SLD-SOLID
 62
     7
100
AcDbVertex
100
AcDb2dVertex
 10
14.6593903571
 20
9.6859343307
 30
0.0
  0
VERTEX
  5
365
330
13D
100
AcDbEntity
  8
0
  6
SLD-SOLID
 62
     7
100
AcDbVertex
100
AcDb2dVertex
 10
14.6634446279
 20
9.6978737646
 30
0.0
  0
VERTEX
  5
366
330
13D
100
AcDbEntity
  8
0
  6
SLD-SOLID
 62
     7
100
AcDbVertex
100
AcDb2dVertex
 10
14.6686163174
 20
9.7097132844
 30
0.0
  0
VERTEX
  5
367
330
13D
100
AcDbEntity
  8
0
  6
SLD-SOLID
 62
     7
100
AcDbVertex
100
AcDb2dVertex
 10
14.6748047646
 20
9.7212224474
 30
0.0
  0
VERTEX
  5
368
330
13D
100
AcDbEntity
  8
0
  6
SLD-SOLID
 62
     7
100
AcDbVertex
100
AcDb2dVertex
 10
14.6818895183
 20
9.7321772407
 30
0.0
  0
VERTEX
  5
369
330
13D
100
AcDbEntity
  8
0
  6
SLD-SOLID
 62
     7
100
AcDbVertex
100
AcDb2dVertex
 10
14.6897326819
 20
9.7423644419
 30
0.0
  0
VERTEX
  5
36A
330
13D
100
AcDbEntity
  8
0
  6
SLD-SOLID
 62
     7
100
AcDbVertex
100
AcDb2dVertex
 10
14.6981815972
 20
9.7515857685
 30
0.0
  0
VERTEX
  5
36B
330
13D
100
AcDbEntity
  8
0
  6
SLD-SOLID
 62
     7
100
AcDbVertex
100
AcDb2dVertex
 10
14.7070718156
 20
9.759661738
 30
0.0
  0
VERTEX
  5
36C
330
13D
100
AcDbEntity
  8
0
  6
SLD-SOLID
 62
     7
100
AcDbVertex
100
AcDb2dVertex
 10
14.7162302991
 20
9.7664351608
 30
0.0
  0
VERTEX
  5
36D
330
13D
100
AcDbEntity
  8
0
  6
SLD-SOLID
 62
     7
100
AcDbVertex
100
AcDb2dVertex
 10
14.7254787883
 20
9.7717742
 30
0.0
  0
VERTEX
  5
36E
330
13D
100
AcDbEntity
  8
0
  6
SLD-SOLID
 62
     7
100
AcDbVertex
100
AcDb2dVertex
 10
14.7346372718
 20
9.7755749372
 30
0.0
  0
VERTEX
  5
36F
330
13D
100
AcDbEntity
  8
0
  6
SLD-SOLID
 62
     7
100
AcDbVertex
100
AcDb2dVertex
 10
14.7435274902
 20
9.7777633953
 30
0.0
  0
VERTEX
  5
370
330
13D
100
AcDbEntity
  8
0
  6
SLD-SOLID
 62
     7
100
AcDbVertex
100
AcDb2dVertex
 10
14.7519764055
 20
9.7782969786
 30
0.0
  0
VERTEX
  5
371
330
13D
100
AcDbEntity
  8
0
  6
SLD-SOLID
 62
     7
100
AcDbVertex
100
AcDb2dVertex
 10
14.7598195691
 20
9.7771653015
 30
0.0
  0
VERTEX
  5
372
330
13D
100
AcDbEntity
  8
0
  6
SLD-SOLID
 62
     7
100
AcDbVertex
100
AcDb2dVertex
 10
14.7669043229
 20
9.7743903907
 30
0.0
  0
VERTEX
  5
373
330
13D
100
AcDbEntity
  8
0
  6
SLD-SOLID
 62
     7
100
AcDbVertex
100
AcDb2dVertex
 10
14.7730927701
 20
9.7700262567
 30
0.0
  0
VERTEX
  5
374
330
13D
100
AcDbEntity
  8
0
  6
SLD-SOLID
 62
     7
100
AcDbVertex
100
AcDb2dVertex
 10
14.7782644596
 20
9.7641578425
 30
0.0
  0
VERTEX
  5
375
330
13D
100
AcDbEntity
  8
0
  6
SLD-SOLID
 62
     7
100
AcDbVertex
100
AcDb2dVertex
 10
14.7823187304
 20
9.75689937
 30
0.0
  0
VERTEX
  5
376
330
13D
100
AcDbEntity
  8
0
  6
SLD-SOLID
 62
     7
100
AcDbVertex
100
AcDb2dVertex
 10
14.7851766707
 20
9.7483921172
 30
0.0
  0
VERTEX
  5
377
330
13D
100
AcDbEntity
  8
0
  6
SLD-SOLID
 62
     7
100
AcDbVertex
100
AcDb2dVertex
 10
14.786782654
 20
9.7388016681
 30
0.0
  0
VERTEX
  5
378
330
13D
100
AcDbEntity
  8
0
  6
SLD-SOLID
 62
     7
100
AcDbVertex
100
AcDb2dVertex
 10
14.7871054216
 20
9.7283146898
 30
0.0
  0
VERTEX
  5
379
330
13D
100
AcDbEntity
  8
0
  6
SLD-SOLID
 62
     7
100
AcDbVertex
100
AcDb2dVertex
 10
14.7861386913
 20
9.7171352994
 30
0.0
  0
VERTEX
  5
37A
330
13D
100
AcDbEntity
  8
0
  6
SLD-SOLID
 62
     7
100
AcDbVertex
100
AcDb2dVertex
 10
14.7839012792
 20
9.7054810911
 30
0.0
  0
VERTEX
  5
37B
330
13D
100
AcDbEntity
  8
0
  6
SLD-SOLID
 62
     7
100
AcDbVertex
100
AcDb2dVertex
 10
14.7804367342
 20
9.6935789008
 30
0.0
  0
VERTEX
  5
37C
330
13D
100
AcDbEntity
  8
0
  6
SLD-SOLID
 62
     7
100
AcDbVertex
100
AcDb2dVertex
 10
14.7758124896
 20
9.681660391
 30
0.0
  0
VERTEX
  5
37D
330
13D
100
AcDbEntity
  8
0
  6
SLD-SOLID
 62
     7
100
AcDbVertex
100
AcDb2dVertex
 10
14.7701185511
 20
9.669957542
 30
0.0
  0
VERTEX
  5
37E
330
13D
100
AcDbEntity
  8
0
  6
SLD-SOLID
 62
     7
100
AcDbVertex
100
AcDb2dVertex
 10
14.7634657448
 20
9.6586981365
 30
0.0
  0
VERTEX
  5
37F
330
13D
100
AcDbEntity
  8
0
  6
SLD-SOLID
 62
     7
100
AcDbVertex
100
AcDb2dVertex
 10
14.7559835598
 20
9.648101326
 30
0.0
  0
VERTEX
  5
380
330
13D
100
AcDbEntity
  8
0
  6
SLD-SOLID
 62
     7
100
AcDbVertex
100
AcDb2dVertex
 10
14.7478176286
 20
9.6383733653
 30
0.0
  0
VERTEX
  5
381
330
13D
100
AcDbEntity
  8
0
  6
SLD-SOLID
 62
     7
100
AcDbVertex
100
AcDb2dVertex
 10
14.7391268915
 20
9.6297035981
 30
0.0
  0
VERTEX
  5
382
330
13D
100
AcDbEntity
  8
0
  6
SLD-SOLID
 62
     7
100
AcDbVertex
100
AcDb2dVertex
 10
14.730080504
 20
9.6222607715
 30
0.0
  0
VERTEX
  5
383
330
13D
100
AcDbEntity
  8
0
  6
SLD-SOLID
 62
     7
100
AcDbVertex
100
AcDb2dVertex
 10
14.7208545437
 20
9.6161897519
 30
0.0
  0
SEQEND
  5
40C
330
13D
100
AcDbEntity
  8
0
  6
SLD-SOLID
 62
     7
  0
LINE
  5
13E
330
1F
100
AcDbEntity
  8
0
  6
SLD-SOLID
 62
     7
100
AcDbLine
 10
14.5538214458
 20
10.4181678769
 30
0.0
 11
14.4911840341
 21
10.454327685
 31
0.0
  0
ARC
  5
13F
330
1F
100
AcDbEntity
  8
0
  6
SLD-SOLID
 62
     7
100
AcDbCircle
 10
14.7933919281
 20
10.4405755487
 30
0.0
 40
0.3025206314118153
100
AcDbArc
 50
122.60547834
 51
177.3945215143
  0
LINE
  5
140
330
1F
100
AcDbEntity
  8
0
  6
SLD-SOLID
 62
     7
100
AcDbLine
 10
15.4029063602
 20
10.109544884
 30
0.0
 11
15.4029063602
 21
10.6351528476
 31
0.0
  0
ARC
  5
141
330
1F
100
AcDbEntity
  8
0
  6
SLD-SOLID
 62
     7
100
AcDbCircle
 10
15.4987340634
 20
9.8123699809
 30
0.0
 40
0.3122432893891796
100
AcDbArc
 50
107.872554867
 51
119.6363033474
  0
LINE
  5
142
330
1F
100
AcDbEntity
  8
0
  6
SLD-SOLID
 62
     7
100
AcDbLine
 10
15.820489105
 20
10.3506102714
 30
0.0
 11
15.820489105
 21
10.8762182349
 31
0.0
  0
LINE
  5
143
330
1F
100
AcDbEntity
  8
0
  6
SLD-SOLID
 62
     7
100
AcDbLine
 10
15.4029063602
 20
10.109544884
 30
0.0
 11
15.820489105
 21
10.3506102714
 31
0.0
  0
POLYLINE
  5
144
330
1F
100
AcDbEntity
  8
0
  6
SLD-SOLID
 62
     7
100
AcDb2dPolyline
 66
     1
 10
0.0
 20
0.0
 30
0.0
 70
   128
  0
VERTEX
  5
384
330
144
100
AcDbEntity
  8
0
  6
SLD-SOLID
 62
     7
100
AcDbVertex
100
AcDb2dVertex
 10
15.5675035588
 20
10.4087000272
 30
0.0
  0
VERTEX
  5
385
330
144
100
AcDbEntity
  8
0
  6
SLD-SOLID
 62
     7
100
AcDbVertex
100
AcDb2dVertex
 10
15.5681392518
 20
10.4176917591
 30
0.0
  0
VERTEX
  5
386
330
144
100
AcDbEntity
  8
0
  6
SLD-SOLID
 62
     7
100
AcDbVertex
100
AcDb2dVertex
 10
15.5700280429
 20
10.4271587707
 30
0.0
  0
VERTEX
  5
387
330
144
100
AcDbEntity
  8
0
  6
SLD-SOLID
 62
     7
100
AcDbVertex
100
AcDb2dVertex
 10
15.5731155952
 20
10.4368287134
 30
0.0
  0
VERTEX
  5
388
330
144
100
AcDbEntity
  8
0
  6
SLD-SOLID
 62
     7
100
AcDbVertex
100
AcDb2dVertex
 10
15.5773130853
 20
10.4464234004
 30
0.0
  0
VERTEX
  5
389
330
144
100
AcDbEntity
  8
0
  6
SLD-SOLID
 62
     7
100
AcDbVertex
100
AcDb2dVertex
 10
15.5824997591
 20
10.4556668101
 30
0.0
  0
VERTEX
  5
38A
330
144
100
AcDbEntity
  8
0
  6
SLD-SOLID
 62
     7
100
AcDbVertex
100
AcDb2dVertex
 10
15.5885264054
 20
10.4642930265
 30
0.0
  0
VERTEX
  5
38B
330
144
100
AcDbEntity
  8
0
  6
SLD-SOLID
 62
     7
100
AcDbVertex
100
AcDb2dVertex
 10
15.5952196486
 20
10.472053889
 30
0.0
  0
VERTEX
  5
38C
330
144
100
AcDbEntity
  8
0
  6
SLD-SOLID
 62
     7
100
AcDbVertex
100
AcDb2dVertex
 10
15.6023869363
 20
10.4787261317
 30
0.0
  0
VERTEX
  5
38D
330
144
100
AcDbEntity
  8
0
  6
SLD-SOLID
 62
     7
100
AcDbVertex
100
AcDb2dVertex
 10
15.6098220787
 20
10.4841178063
 30
0.0
  0
VERTEX
  5
38E
330
144
100
AcDbEntity
  8
0
  6
SLD-SOLID
 62
     7
100
AcDbVertex
100
AcDb2dVertex
 10
15.6173111802
 20
10.4880738041
 30
0.0
  0
VERTEX
  5
38F
330
144
100
AcDbEntity
  8
0
  6
SLD-SOLID
 62
     7
100
AcDbVertex
100
AcDb2dVertex
 10
15.6246387931
 20
10.4904803185
 30
0.0
  0
VERTEX
  5
390
330
144
100
AcDbEntity
  8
0
  6
SLD-SOLID
 62
     7
100
AcDbVertex
100
AcDb2dVertex
 10
15.6315941152
 20
10.4912681181
 30
0.0
  0
VERTEX
  5
391
330
144
100
AcDbEntity
  8
0
  6
SLD-SOLID
 62
     7
100
AcDbVertex
100
AcDb2dVertex
 10
15.6379770546
 20
10.4904145396
 30
0.0
  0
VERTEX
  5
392
330
144
100
AcDbEntity
  8
0
  6
SLD-SOLID
 62
     7
100
AcDbVertex
100
AcDb2dVertex
 10
15.6436039857
 20
10.4879441389
 30
0.0
  0
VERTEX
  5
393
330
144
100
AcDbEntity
  8
0
  6
SLD-SOLID
 62
     7
100
AcDbVertex
100
AcDb2dVertex
 10
15.6483130321
 20
10.4839279848
 30
0.0
  0
VERTEX
  5
394
330
144
100
AcDbEntity
  8
0
  6
SLD-SOLID
 62
     7
100
AcDbVertex
100
AcDb2dVertex
 10
15.6519687229
 20
10.4784816147
 30
0.0
  0
VERTEX
  5
395
330
144
100
AcDbEntity
  8
0
  6
SLD-SOLID
 62
     7
100
AcDbVertex
100
AcDb2dVertex
 10
15.6544658907
 20
10.471761711
 30
0.0
  0
VERTEX
  5
396
330
144
100
AcDbEntity
  8
0
  6
SLD-SOLID
 62
     7
100
AcDbVertex
100
AcDb2dVertex
 10
15.6557326964
 20
10.4639615928
 30
0.0
  0
VERTEX
  5
397
330
144
100
AcDbEntity
  8
0
  6
SLD-SOLID
 62
     7
100
AcDbVertex
100
AcDb2dVertex
 10
15.6557326964
 20
10.4553056555
 30
0.0
  0
VERTEX
  5
398
330
144
100
AcDbEntity
  8
0
  6
SLD-SOLID
 62
     7
100
AcDbVertex
100
AcDb2dVertex
 10
15.6544658907
 20
10.4460429146
 30
0.0
  0
VERTEX
  5
399
330
144
100
AcDbEntity
  8
0
  6
SLD-SOLID
 62
     7
100
AcDbVertex
100
AcDb2dVertex
 10
15.6519687229
 20
10.4364398423
 30
0.0
  0
VERTEX
  5
39A
330
144
100
AcDbEntity
  8
0
  6
SLD-SOLID
 62
     7
100
AcDbVertex
100
AcDb2dVertex
 10
15.6483130321
 20
10.4267727014
 30
0.0
  0
VERTEX
  5
39B
330
144
100
AcDbEntity
  8
0
  6
SLD-SOLID
 62
     7
100
AcDbVertex
100
AcDb2dVertex
 10
15.6436039857
 20
10.4173195981
 30
0.0
  0
VERTEX
  5
39C
330
144
100
AcDbEntity
  8
0
  6
SLD-SOLID
 62
     7
100
AcDbVertex
100
AcDb2dVertex
 10
15.6379770546
 20
10.408352481
 30
0.0
  0
VERTEX
  5
39D
330
144
100
AcDbEntity
  8
0
  6
SLD-SOLID
 62
     7
100
AcDbVertex
100
AcDb2dVertex
 10
15.6315941152
 20
10.4001293175
 30
0.0
  0
VERTEX
  5
39E
330
144
100
AcDbEntity
  8
0
  6
SLD-SOLID
 62
     7
100
AcDbVertex
100
AcDb2dVertex
 10
15.6246387931
 20
10.3928866732
 30
0.0
  0
VERTEX
  5
39F
330
144
100
AcDbEntity
  8
0
  6
SLD-SOLID
 62
     7
100
AcDbVertex
100
AcDb2dVertex
 10
15.6173111802
 20
10.3868329058
 30
0.0
  0
VERTEX
  5
3A0
330
144
100
AcDbEntity
  8
0
  6
SLD-SOLID
 62
     7
100
AcDbVertex
100
AcDb2dVertex
 10
15.6098220787
 20
10.3821421711
 30
0.0
  0
VERTEX
  5
3A1
330
144
100
AcDbEntity
  8
0
  6
SLD-SOLID
 62
     7
100
AcDbVertex
100
AcDb2dVertex
 10
15.6023869363
 20
10.3789494131
 30
0.0
  0
VERTEX
  5
3A2
330
144
100
AcDbEntity
  8
0
  6
SLD-SOLID
 62
     7
100
AcDbVertex
100
AcDb2dVertex
 10
15.5952196486
 20
10.3773464815
 30
0.0
  0
VERTEX
  5
3A3
330
144
100
AcDbEntity
  8
0
  6
SLD-SOLID
 62
     7
100
AcDbVertex
100
AcDb2dVertex
 10
15.5885264054
 20
10.3773794898
 30
0.0
  0
VERTEX
  5
3A4
330
144
100
AcDbEntity
  8
0
  6
SLD-SOLID
 62
     7
100
AcDbVertex
100
AcDb2dVertex
 10
15.5824997591
 20
10.3790474884
 30
0.0
  0
VERTEX
  5
3A5
330
144
100
AcDbEntity
  8
0
  6
SLD-SOLID
 62
     7
100
AcDbVertex
100
AcDb2dVertex
 10
15.5773130853
 20
10.3823024921
 30
0.0
  0
VERTEX
  5
3A6
330
144
100
AcDbEntity
  8
0
  6
SLD-SOLID
 62
     7
100
AcDbVertex
100
AcDb2dVertex
 10
15.5731155952
 20
10.3870508602
 30
0.0
  0
VERTEX
  5
3A7
330
144
100
AcDbEntity
  8
0
  6
SLD-SOLID
 62
     7
100
AcDbVertex
100
AcDb2dVertex
 10
15.5700280429
 20
10.3931559909
 30
0.0
  0
VERTEX
  5
3A8
330
144
100
AcDbEntity
  8
0
  6
SLD-SOLID
 62
     7
100
AcDbVertex
100
AcDb2dVertex
 10
15.5681392518
 20
10.4004422507
 30
0.0
  0
VERTEX
  5
3A9
330
144
100
AcDbEntity
  8
0
  6
SLD-SOLID
 62
     7
100
AcDbVertex
100
AcDb2dVertex
 10
15.5675035588
 20
10.4087000272
 30
0.0
  0
SEQEND
  5
40D
330
144
100
AcDbEntity
  8
0
  6
SLD-SOLID
 62
     7
  0
LINE
  5
145
330
1F
100
AcDbEntity
  8
0
  6
SLD-SOLID
 62
     7
100
AcDbLine
 10
14.4911840341
 20
9.0077002624
 30
0.0
 11
14.5538214458
 21
8.9715404543
 31
0.0
  0
LINE
  5
146
330
1F
100
AcDbEntity
  8
0
  6
SLD-SOLID
 62
     7
100
AcDbLine
 10
14.4911840341
 20
9.0077002624
 30
0.0
 11
14.4911840341
 21
10.454327685
 31
0.0
  0
POLYLINE
  5
147
330
1F
100
AcDbEntity
  8
0
  6
SLD-SOLID
 62
     7
100
AcDb2dPolyline
 66
     1
 10
0.0
 20
0.0
 30
0.0
 70
   128
  0
VERTEX
  5
3AA
330
147
100
AcDbEntity
  8
0
  6
SLD-SOLID
 62
     7
100
AcDbVertex
100
AcDb2dVertex
 10
15.0478018154
 20
10.5105104865
 30
0.0
  0
VERTEX
  5
3AB
330
147
100
AcDbEntity
  8
0
  6
SLD-SOLID
 62
     7
100
AcDbVertex
100
AcDb2dVertex
 10
15.0476130415
 20
10.518786554
 30
0.0
  0
VERTEX
  5
3AC
330
147
100
AcDbEntity
  8
0
  6
SLD-SOLID
 62
     7
100
AcDbVertex
100
AcDb2dVertex
 10
15.0482514626
 20
10.533424563
 30
0.0
  0
VERTEX
  5
3AD
330
147
100
AcDbEntity
  8
0
  6
SLD-SOLID
 62
     7
100
AcDbVertex
100
AcDb2dVertex
 10
15.0501605775
 20
10.5471844947
 30
0.0
  0
VERTEX
  5
3AE
330
147
100
AcDbEntity
  8
0
  6
SLD-SOLID
 62
     7
100
AcDbVertex
100
AcDb2dVertex
 10
15.0533220004
 20
10.5599338334
 30
0.0
  0
VERTEX
  5
3AF
330
147
100
AcDbEntity
  8
0
  6
SLD-SOLID
 62
     7
100
AcDbVertex
100
AcDb2dVertex
 10
15.057705285
 20
10.571549796
 30
0.0
  0
VERTEX
  5
3B0
330
147
100
AcDbEntity
  8
0
  6
SLD-SOLID
 62
     7
100
AcDbVertex
100
AcDb2dVertex
 10
15.063268218
 20
10.5819205144
 30
0.0
  0
VERTEX
  5
3B1
330
147
100
AcDbEntity
  8
0
  6
SLD-SOLID
 62
     7
100
AcDbVertex
100
AcDb2dVertex
 10
15.0699572253
 20
10.590946113
 30
0.0
  0
VERTEX
  5
3B2
330
147
100
AcDbEntity
  8
0
  6
SLD-SOLID
 62
     7
100
AcDbVertex
100
AcDb2dVertex
 10
15.077707888
 20
10.5985396704
 30
0.0
  0
VERTEX
  5
3B3
330
147
100
AcDbEntity
  8
0
  6
SLD-SOLID
 62
     7
100
AcDbVertex
100
AcDb2dVertex
 10
15.086445563
 20
10.6046280563
 30
0.0
  0
VERTEX
  5
3B4
330
147
100
AcDbEntity
  8
0
  6
SLD-SOLID
 62
     7
100
AcDbVertex
100
AcDb2dVertex
 10
15.0960861018
 20
10.6091526363
 30
0.0
  0
VERTEX
  5
3B5
330
147
100
AcDbEntity
  8
0
  6
SLD-SOLID
 62
     7
100
AcDbVertex
100
AcDb2dVertex
 10
15.1065366607
 20
10.6120698363
 30
0.0
  0
VERTEX
  5
3B6
330
147
100
AcDbEntity
  8
0
  6
SLD-SOLID
 62
     7
100
AcDbVertex
100
AcDb2dVertex
 10
15.117696595
 20
10.613351562
 30
0.0
  0
VERTEX
  5
3B7
330
147
100
AcDbEntity
  8
0
  6
SLD-SOLID
 62
     7
100
AcDbVertex
100
AcDb2dVertex
 10
15.1294584286
 20
10.6129854697
 30
0.0
  0
VERTEX
  5
3B8
330
147
100
AcDbEntity
  8
0
  6
SLD-SOLID
 62
     7
100
AcDbVertex
100
AcDb2dVertex
 10
15.1417088885
 20
10.6109750851
 30
0.0
  0
VERTEX
  5
3B9
330
147
100
AcDbEntity
  8
0
  6
SLD-SOLID
 62
     7
100
AcDbVertex
100
AcDb2dVertex
 10
15.1543299962
 20
10.6073397692
 30
0.0
  0
VERTEX
  5
3BA
330
147
100
AcDbEntity
  8
0
  6
SLD-SOLID
 62
     7
100
AcDbVertex
100
AcDb2dVertex
 10
15.1672002034
 20
10.6021145321
 30
0.0
  0
VERTEX
  5
3BB
330
147
100
AcDbEntity
  8
0
  6
SLD-SOLID
 62
     7
100
AcDbVertex
100
AcDb2dVertex
 10
15.180195563
 20
10.5953496958
 30
0.0
  0
VERTEX
  5
3BC
330
147
100
AcDbEntity
  8
0
  6
SLD-SOLID
 62
     7
100
AcDbVertex
100
AcDb2dVertex
 10
15.1872896055
 20
10.5910350737
 30
0.0
  0
SEQEND
  5
40E
330
147
100
AcDbEntity
  8
0
  6
SLD-SOLID
 62
     7
  0
ARC
  5
148
330
1F
100
AcDbEntity
  8
0
  6
SLD-SOLID
 62
     7
100
AcDbCircle
 10
14.9527086686
 20
9.5588939157
 30
0.0
 40
0.1405696474852984
100
AcDbArc
 50
300.250074736
 51
359.7553017967
  0
ARC
  5
149
330
1F
100
AcDbEntity
  8
0
  6
SLD-SOLID
 62
     7
100
AcDbCircle
 10
14.5837155015
 20
9.7719091369
 30
0.0
 40
0.1406983914144876
100
AcDbArc
 50
300.280038293
 51
359.7253382397
  0
ARC
  5
14A
330
1F
100
AcDbEntity
  8
0
  6
SLD-SOLID
 62
     7
100
AcDbCircle
 10
14.9574567769
 20
8.784542408
 30
0.0
 40
0.0979423185225927
100
AcDbArc
 50
174.0123511694
 51
234.6754684372
  0
ARC
  5
14B
330
1F
100
AcDbEntity
  8
0
  6
SLD-SOLID
 62
     7
100
AcDbCircle
 10
14.9527086686
 20
8.9264850938
 30
0.0
 40
0.1405696474853589
100
AcDbArc
 50
300.250074736
 51
359.7553017967
  0
ARC
  5
14C
330
1F
100
AcDbEntity
  8
0
  6
SLD-SOLID
 62
     7
100
AcDbCircle
 10
14.5870986009
 20
8.9968078177
 30
0.0
 40
0.0965310804031755
100
AcDbArc
 50
173.521017993
 51
235.1668016136
  0
ARC
  5
14D
330
1F
100
AcDbEntity
  8
0
  6
SLD-SOLID
 62
     7
100
AcDbCircle
 10
14.5837155015
 20
9.1395003151
 30
0.0
 40
0.1406983914148154
100
AcDbArc
 50
300.2800382934
 51
359.7253382394
  0
LINE
  5
14E
330
1F
100
AcDbEntity
  8
0
  6
SLD-SOLID
 62
     7
100
AcDbLine
 10
3.3565237962
 20
6.5758096995
 30
0.0
 11
3.3565237962
 21
3.0325026129
 31
0.0
  0
LINE
  5
14F
330
1F
100
AcDbEntity
  8
0
  6
SLD-SOLID
 62
     7
100
AcDbLine
 10
3.1793584419
 20
3.0325026129
 30
0.0
 11
3.3565237962
 21
3.0325026129
 31
0.0
  0
LINE
  5
150
330
1F
100
AcDbEntity
  8
0
  6
SLD-SOLID
 62
     7
100
AcDbLine
 10
3.1793584419
 20
3.0325026129
 30
0.0
 11
3.1793584419
 21
6.5758096995
 31
0.0
  0
LINE
  5
151
330
1F
100
AcDbEntity
  8
0
  6
SLD-SOLID
 62
     7
100
AcDbLine
 10
3.3565237962
 20
6.5758096995
 30
0.0
 11
3.1793584419
 21
6.5758096995
 31
0.0
  0
LINE
  5
152
330
1F
100
AcDbEntity
  8
0
  6
SLD-SOLID
 62
     7
100
AcDbLine
 10
4.2226655285
 20
6.5758096995
 30
0.0
 11
4.2226655285
 21
6.9695104869
 31
0.0
  0
LINE
  5
153
330
1F
100
AcDbEntity
  8
0
  6
SLD-SOLID
 62
     7
100
AcDbLine
 10
4.2226655285
 20
6.9695104869
 30
0.0
 11
4.3998308829
 21
6.9695104869
 31
0.0
  0
LINE
  5
154
330
1F
100
AcDbEntity
  8
0
  6
SLD-SOLID
 62
     7
100
AcDbLine
 10
4.3998308829
 20
6.5758096995
 30
0.0
 11
4.3998308829
 21
6.9695104869
 31
0.0
  0
LINE
  5
155
330
1F
100
AcDbEntity
  8
0
  6
SLD-SOLID
 62
     7
100
AcDbLine
 10
4.3998308829
 20
6.5758096995
 30
0.0
 11
4.2226655285
 21
6.5758096995
 31
0.0
  0
LINE
  5
156
330
1F
100
AcDbEntity
  8
0
  6
SLD-SOLID
 62
     7
100
AcDbLine
 10
3.3565237962
 20
3.0325026129
 30
0.0
 11
3.3565237962
 21
2.6388018255
 31
0.0
  0
LINE
  5
157
330
1F
100
AcDbEntity
  8
0
  6
SLD-SOLID
 62
     7
100
AcDbLine
 10
3.3565237962
 20
2.6388018255
 30
0.0
 11
3.1793584419
 21
2.6388018255
 31
0.0
  0
LINE
  5
158
330
1F
100
AcDbEntity
  8
0
  6
SLD-SOLID
 62
     7
100
AcDbLine
 10
3.1793584419
 20
3.0325026129
 30
0.0
 11
3.1793584419
 21
2.6388018255
 31
0.0
  0
LINE
  5
159
330
1F
100
AcDbEntity
  8
0
  6
SLD-SOLID
 62
     7
100
AcDbLine
 10
4.3998308829
 20
3.0325026129
 30
0.0
 11
4.3998308829
 21
6.5758096995
 31
0.0
  0
LINE
  5
15A
330
1F
100
AcDbEntity
  8
0
  6
SLD-SOLID
 62
     7
100
AcDbLine
 10
4.2226655285
 20
3.0325026129
 30
0.0
 11
4.3998308829
 21
3.0325026129
 31
0.0
  0
LINE
  5
15B
330
1F
100
AcDbEntity
  8
0
  6
SLD-SOLID
 62
     7
100
AcDbLine
 10
4.2226655285
 20
3.0325026129
 30
0.0
 11
4.2226655285
 21
6.5758096995
 31
0.0
  0
LINE
  5
15C
330
1F
100
AcDbEntity
  8
0
  6
SLD-SOLID
 62
     7
100
AcDbLine
 10
3.3565237962
 20
6.9695104869
 30
0.0
 11
3.3565237962
 21
6.5758096995
 31
0.0
  0
LINE
  5
15D
330
1F
100
AcDbEntity
  8
0
  6
SLD-SOLID
 62
     7
100
AcDbLine
 10
3.1793584419
 20
6.9695104869
 30
0.0
 11
3.1793584419
 21
6.5758096995
 31
0.0
  0
LINE
  5
15E
330
1F
100
AcDbEntity
  8
0
  6
SLD-SOLID
 62
     7
100
AcDbLine
 10
3.1793584419
 20
6.9695104869
 30
0.0
 11
3.3565237962
 21
6.9695104869
 31
0.0
  0
LINE
  5
15F
330
1F
100
AcDbEntity
  8
0
  6
SLD-SOLID
 62
     7
100
AcDbLine
 10
4.3998308829
 20
2.6388018255
 30
0.0
 11
4.2226655285
 21
2.6388018255
 31
0.0
  0
LINE
  5
160
330
1F
100
AcDbEntity
  8
0
  6
SLD-SOLID
 62
     7
100
AcDbLine
 10
4.2226655285
 20
2.6388018255
 30
0.0
 11
4.2226655285
 21
3.0325026129
 31
0.0
  0
LINE
  5
161
330
1F
100
AcDbEntity
  8
0
  6
SLD-SOLID
 62
     7
100
AcDbLine
 10
4.3998308829
 20
2.6388018255
 30
0.0
 11
4.3998308829
 21
3.0325026129
 31
0.0
  0
LINE
  5
162
330
1F
100
AcDbEntity
  8
0
  6
SLD-SOLID
 62
     7
100
AcDbLine
 10
3.1596734025
 20
5.6821089121
 30
0.0
 11
3.1596734025
 21
6.9695104869
 31
0.0
  0
LINE
  5
163
330
1F
100
AcDbEntity
  8
0
  6
SLD-SOLID
 62
     7
100
AcDbLine
 10
3.1793584419
 20
5.6821089121
 30
0.0
 11
3.1596734025
 21
5.6821089121
 31
0.0
  0
LINE
  5
164
330
1F
100
AcDbEntity
  8
0
  6
SLD-SOLID
 62
     7
100
AcDbLine
 10
3.1596734025
 20
6.9695104869
 30
0.0
 11
3.1793584419
 21
6.9695104869
 31
0.0
  0
LINE
  5
165
330
1F
100
AcDbEntity
  8
0
  6
SLD-SOLID
 62
     7
100
AcDbLine
 10
4.4195159222
 20
5.6821089121
 30
0.0
 11
4.4195159222
 21
6.9695104869
 31
0.0
  0
LINE
  5
166
330
1F
100
AcDbEntity
  8
0
  6
SLD-SOLID
 62
     7
100
AcDbLine
 10
4.4195159222
 20
5.6821089121
 30
0.0
 11
4.3998308829
 21
5.6821089121
 31
0.0
  0
LINE
  5
167
330
1F
100
AcDbEntity
  8
0
  6
SLD-SOLID
 62
     7
100
AcDbLine
 10
4.3998308829
 20
6.9695104869
 30
0.0
 11
4.4195159222
 21
6.9695104869
 31
0.0
  0
CIRCLE
  5
168
330
1F
100
AcDbEntity
  8
0
  6
SLD-SOLID
 62
     7
100
AcDbCircle
 10
3.7895946624
 20
6.1821089121
 30
0.0
 40
0.3749999999999996
  0
LINE
  5
169
330
1F
100
AcDbEntity
  8
0
  6
SLD-SOLID
 62
     7
100
AcDbLine
 10
4.2226655285
 20
5.6821089121
 30
0.0
 11
3.3565237962
 21
5.6821089121
 31
0.0
  0
LINE
  5
16A
330
1F
100
AcDbEntity
  8
0
  6
SLD-SOLID
 62
     7
100
AcDbLine
 10
3.3565237962
 20
6.9695104869
 30
0.0
 11
4.2226655285
 21
6.9695104869
 31
0.0
  0
DIMENSION
  5
16B
330
1F
100
AcDbEntity
  8
0
  6
SLD-SOLID
 62
     7
100
AcDbDimension
  2
_D
 10
3.5244296194
 20
5.9169438692
 30
0.0
 11
6.3244791415
 21
7.3518155672
 31
0.0
 70
   163
  1
<> THRU ALL\P
  3
SLDDIMSTYLE0
100
AcDbDiametricDimension
 15
4.0547597053
 25
6.447273955
 35
0.0
 40
0.0
  0
DIMENSION
  5
17B
330
1F
100
AcDbEntity
  8
0
  6
SLD-SOLID
 62
     7
100
AcDbDimension
  2
_D_1
 10
3.3565237962
 20
3.1899829278
 30
0.0
 11
5.1133870892
 21
3.1899829278
 31
0.0
 70
   160
  1
<>
  3
SLDDIMSTYLE1
100
AcDbAlignedDimension
 13
4.2226655285
 23
3.0325026129
 33
0.0
 14
3.3565237962
 24
3.0325026129
 34
0.0
100
AcDbRotatedDimension
  0
DIMENSION
  5
188
330
1F
100
AcDbEntity
  8
0
  6
SLD-SOLID
 62
     7
100
AcDbDimension
  2
_D_2
 10
4.3998308829
 20
1.7726600932
 30
0.0
 11
5.0442648678
 21
1.7726600932
 31
0.0
 70
   160
  1
<>
  3
SLDDIMSTYLE2
100
AcDbAlignedDimension
 13
3.1793584419
 23
2.6388018255
 33
0.0
 14
4.3998308829
 24
2.6388018255
 34
0.0
 50
0.0
100
AcDbRotatedDimension
  0
TOLERANCE
  5
19A
330
1F
100
AcDbEntity
  8
0
  6
SLD-SOLID
 62
     7
100
AcDbFcf
  3
SLDDIMSTYLE3
 10
5.2093013174
 20
7.0651836177
 30
0.0
  1
{\Fgdt;j}%%v{\Fgdt;n}.005%%v%%vA%%v%%v%%v^J
  0
TOLERANCE
  5
19B
330
1F
100
AcDbEntity
  8
0
  6
SLD-SOLID
 62
     7
100
AcDbFcf
  3
SLDDIMSTYLE3
 10
4.6290739308
 20
1.5484413402
 30
0.0
  1
{\Fgdt;j}%%v.005%%v%%vA%%vB%%vC%%v^J
  0
TOLERANCE
  5
19C
330
1F
100
AcDbEntity
  8
0
  6
SLD-SOLID
 62
     7
100
AcDbFcf
  3
SLDDIMSTYLE3
 10
4.6981961522
 20
2.9657641749
 30
0.0
  1
{\Fgdt;j}%%v.005%%v%%vA%%vB%%vC%%v^J
  0
INSERT
  5
1A7
330
1F
100
AcDbEntity
  8
0
  6
CONTINUOUS
 62
     7
100
AcDbBlockReference
  2
SW_DATUMTAG_0
 10
5.7410533803
 20
6.2954144976
 30
0.0
  0
INSERT
  5
1AE
330
1F
100
AcDbEntity
  8
0
  6
CONTINUOUS
 62
     7
100
AcDbBlockReference
  2
SW_DOWELSYMBOL_0
 10
3.7895946624
 20
6.1821089121
 30
0.0
  0
LINE
  5
1AF
330
1F
100
AcDbEntity
  8
0
  6
SLD-SOLID
 62
     7
100
AcDbLine
 10
4.2226655285
 20
8.0901574803
 30
0.0
 11
4.3998308829
 21
8.0901574803
 31
0.0
  0
LINE
  5
1B0
330
1F
100
AcDbEntity
  8
0
  6
SLD-SOLID
 62
     7
100
AcDbLine
 10
4.2226655285
 20
9.0350393701
 30
0.0
 11
4.2226655285
 21
8.0901574803
 31
0.0
  0
LINE
  5
1B1
330
1F
100
AcDbEntity
  8
0
  6
SLD-SOLID
 62
     7
100
AcDbLine
 10
3.3565237962
 20
9.0350393701
 30
0.0
 11
4.2226655285
 21
9.0350393701
 31
0.0
  0
LINE
  5
1B2
330
1F
100
AcDbEntity
  8
0
  6
SLD-SOLID
 62
     7
100
AcDbLine
 10
3.3565237962
 20
9.0350393701
 30
0.0
 11
3.3565237962
 21
8.0901574803
 31
0.0
  0
LINE
  5
1B3
330
1F
100
AcDbEntity
  8
0
  6
SLD-SOLID
 62
     7
100
AcDbLine
 10
3.1793584419
 20
8.0901574803
 30
0.0
 11
3.3565237962
 21
8.0901574803
 31
0.0
  0
LINE
  5
1B4
330
1F
100
AcDbEntity
  8
0
  6
SLD-SOLID
 62
     7
100
AcDbLine
 10
3.1793584419
 20
8.8890512109
 30
0.0
 11
3.1793584419
 21
8.0901574803
 31
0.0
  0
ARC
  5
1B5
330
1F
100
AcDbEntity
  8
0
  6
SLD-SOLID
 62
     7
100
AcDbCircle
 10
2.6281773395
 20
8.8890512109
 30
0.0
 40
0.5511811023622033
100
AcDbArc
 50
0.0
 51
15.3588855808
  0
LINE
  5
1B6
330
1F
100
AcDbEntity
  8
0
  6
SLD-SOLID
 62
     7
100
AcDbLine
 10
3.1596734025
 20
9.0350393701
 30
0.0
 11
3.1596734025
 21
10.2161417323
 31
0.0
  0
LINE
  5
1B7
330
1F
100
AcDbEntity
  8
0
  6
SLD-SOLID
 62
     7
100
AcDbLine
 10
4.4195159222
 20
10.2161417323
 30
0.0
 11
3.1596734025
 21
10.2161417323
 31
0.0
  0
LINE
  5
1B8
330
1F
100
AcDbEntity
  8
0
  6
SLD-SOLID
 62
     7
100
AcDbLine
 10
4.4195159222
 20
9.0350393701
 30
0.0
 11
4.4195159222
 21
10.2161417323
 31
0.0
  0
ARC
  5
1B9
330
1F
100
AcDbEntity
  8
0
  6
SLD-SOLID
 62
     7
100
AcDbCircle
 10
4.9510119852
 20
8.8890512109
 30
0.0
 40
0.5511811023622064
100
AcDbArc
 50
164.6411144192
 51
180.0
  0
LINE
  5
1BA
330
1F
100
AcDbEntity
  8
0
  6
SLD-SOLID
 62
     7
100
AcDbLine
 10
4.3998308829
 20
8.0901574803
 30
0.0
 11
4.3998308829
 21
8.8890512109
 31
0.0
  0
LINE
  5
1BB
330
1F
100
AcDbEntity
  8
0
  6
SLD-SOLID
 62
     7
100
AcDbLine
 10
4.3998308829
 20
7.6964566929
 30
0.0
 11
4.2226655285
 21
7.6964566929
 31
0.0
  0
LINE
  5
1BC
330
1F
100
AcDbEntity
  8
0
  6
SLD-SOLID
 62
     7
100
AcDbLine
 10
4.3998308829
 20
7.6964566929
 30
0.0
 11
4.3998308829
 21
8.0901574803
 31
0.0
  0
LINE
  5
1BD
330
1F
100
AcDbEntity
  8
0
  6
SLD-SOLID
 62
     7
100
AcDbLine
 10
4.2226655285
 20
7.6964566929
 30
0.0
 11
4.2226655285
 21
8.0901574803
 31
0.0
  0
LINE
  5
1BE
330
1F
100
AcDbEntity
  8
0
  6
SLD-SOLID
 62
     7
100
AcDbLine
 10
3.3565237962
 20
7.6964566929
 30
0.0
 11
3.1793584419
 21
7.6964566929
 31
0.0
  0
LINE
  5
1BF
330
1F
100
AcDbEntity
  8
0
  6
SLD-SOLID
 62
     7
100
AcDbLine
 10
3.1793584419
 20
8.0901574803
 30
0.0
 11
3.1793584419
 21
7.6964566929
 31
0.0
  0
LINE
  5
1C0
330
1F
100
AcDbEntity
  8
0
  6
SLD-SOLID
 62
     7
100
AcDbLine
 10
3.3565237962
 20
8.0901574803
 30
0.0
 11
3.3565237962
 21
7.6964566929
 31
0.0
  0
DIMENSION
  5
1C1
330
1F
100
AcDbEntity
  8
0
  6
SLD-SOLID
 62
     7
100
AcDbDimension
  2
_D_3
 10
3.1596734025
 20
10.5232537665
 30
0.0
 11
5.0746680409
 21
10.5232537665
 31
0.0
 70
   160
  1
<>
  3
SLDDIMSTYLE4
100
AcDbAlignedDimension
 13
4.4195159222
 23
10.2161417323
 33
0.0
 14
3.1596734025
 24
10.2161417323
 34
0.0
100
AcDbRotatedDimension
  0
DIMENSION
  5
1CE
330
1F
100
AcDbEntity
  8
0
  6
SLD-SOLID
 62
     7
100
AcDbDimension
  2
_D_4
 10
5.3250277332
 20
10.2161417323
 30
0.0
 11
5.3250277332
 21
9.5549575812
 31
0.0
 70
   160
  1
<>
  3
SLDDIMSTYLE5
100
AcDbAlignedDimension
 13
4.2226655285
 23
9.0350393701
 33
0.0
 14
4.4195159222
 24
10.2161417323
 34
0.0
 50
90.0
100
AcDbRotatedDimension
  0
DIMENSION
  5
1DA
330
1F
100
AcDbEntity
  8
0
  6
SLD-SOLID
 62
     7
100
AcDbDimension
  2
_D_5
 10
2.6281773395
 20
8.8890512109
 30
0.0
 11
2.5198165225
 21
8.7080366501
 31
0.0
 70
   164
  1
<>
  3
SLDDIMSTYLE6
100
AcDbRadialDimension
 15
2.3450731033
 25
8.4161319799
 35
0.0
 40
0.0
  0
LINE
  5
1E4
330
1F
100
AcDbEntity
  8
0
  6
SLD-SOLID
 62
     7
100
AcDbLine
 10
9.5078740157
 20
6.9695104869
 30
0.0
 11
10.688976378
 21
6.9695104869
 31
0.0
  0
LINE
  5
1E5
330
1F
100
AcDbEntity
  8
0
  6
SLD-SOLID
 62
     7
100
AcDbLine
 10
10.688976378
 20
5.6821089121
 30
0.0
 11
10.688976378
 21
6.9695104869
 31
0.0
  0
LINE
  5
1E6
330
1F
100
AcDbEntity
  8
0
  6
SLD-SOLID
 62
     7
100
AcDbLine
 10
9.5078740157
 20
5.6821089121
 30
0.0
 11
10.688976378
 21
5.6821089121
 31
0.0
  0
LINE
  5
1E7
330
1F
100
AcDbEntity
  8
0
  6
SLD-SOLID
 62
     7
100
AcDbLine
 10
9.5078740157
 20
5.6821089121
 30
0.0
 11
9.5078740157
 21
6.9695104869
 31
0.0
  0
CIRCLE
  5
1E8
330
1F
100
AcDbEntity
  8
0
  6
SLD-SOLID
 62
     7
100
AcDbCircle
 10
10.0984251969
 20
6.1821089121
 30
0.0
 40
0.125
  0
LINE
  5
1E9
330
1F
100
AcDbEntity
  8
0
  6
SLD-SOLID
 62
     7
100
AcDbLine
 10
9.3618858566
 20
5.6821089121
 30
0.0
 11
9.3618858566
 21
6.9695104869
 31
0.0
  0
LINE
  5
1EA
330
1F
100
AcDbEntity
  8
0
  6
SLD-SOLID
 62
     7
100
AcDbLine
 10
9.3618858566
 20
6.9695104869
 30
0.0
 11
9.5078740157
 21
6.9695104869
 31
0.0
  0
LINE
  5
1EB
330
1F
100
AcDbEntity
  8
0
  6
SLD-SOLID
 62
     7
100
AcDbLine
 10
9.5078740157
 20
5.6821089121
 30
0.0
 11
9.3618858566
 21
5.6821089121
 31
0.0
  0
CIRCLE
  5
1EC
330
1F
100
AcDbEntity
  8
0
  6
SLD-SOLID
 62
     7
100
AcDbCircle
 10
8.6417322835
 20
3.0138018255
 30
0.0
 40
0.1875
  0
CIRCLE
  5
1ED
330
1F
100
AcDbEntity
  8
0
  6
SLD-SOLID
 62
     7
100
AcDbCircle
 10
8.6417322835
 20
4.5627968362
 30
0.0
 40
0.1875
  0
ARC
  5
1EE
330
1F
100
AcDbEntity
  8
0
  6
SLD-SOLID
 62
     7
100
AcDbCircle
 10
9.3700787402
 20
5.4262034003
 30
0.0
 40
0.2559055118110241
100
AcDbArc
 50
90.0
 51
180.0
  0
LINE
  5
1EF
330
1F
100
AcDbEntity
  8
0
  6
SLD-SOLID
 62
     7
100
AcDbLine
 10
9.1141732283
 20
3.0325026129
 30
0.0
 11
9.1141732283
 21
5.4262034003
 31
0.0
  0
ARC
  5
1F0
330
1F
100
AcDbEntity
  8
0
  6
SLD-SOLID
 62
     7
100
AcDbCircle
 10
8.7204724409
 20
3.0325026129
 30
0.0
 40
0.393700787401575
100
AcDbArc
 50
270.0
 51
0.0
  0
LINE
  5
1F1
330
1F
100
AcDbEntity
  8
0
  6
SLD-SOLID
 62
     7
100
AcDbLine
 10
8.562992126
 20
2.6388018255
 30
0.0
 11
8.7204724409
 21
2.6388018255
 31
0.0
  0
ARC
  5
1F2
330
1F
100
AcDbEntity
  8
0
  6
SLD-SOLID
 62
     7
100
AcDbCircle
 10
8.562992126
 20
3.0325026129
 30
0.0
 40
0.393700787401575
100
AcDbArc
 50
180.0
 51
270.0
  0
LINE
  5
1F3
330
1F
100
AcDbEntity
  8
0
  6
SLD-SOLID
 62
     7
100
AcDbLine
 10
8.1692913386
 20
3.0325026129
 30
0.0
 11
8.1692913386
 21
6.5758096995
 31
0.0
  0
ARC
  5
1F4
330
1F
100
AcDbEntity
  8
0
  6
SLD-SOLID
 62
     7
100
AcDbCircle
 10
8.562992126
 20
6.5758096995
 30
0.0
 40
0.393700787401575
100
AcDbArc
 50
90.0
 51
180.0
  0
LINE
  5
1F5
330
1F
100
AcDbEntity
  8
0
  6
SLD-SOLID
 62
     7
100
AcDbLine
 10
8.562992126
 20
6.9695104869
 30
0.0
 11
9.3618858566
 21
6.9695104869
 31
0.0
  0
DIMENSION
  5
1F6
330
1F
100
AcDbEntity
  8
0
  6
SLD-SOLID
 62
     7
100
AcDbDimension
  2
_D_6
 10
9.5078740157
 20
6.9695104869
 30
0.0
 11
7.2049974108
 21
6.9695104869
 31
0.0
 70
    38
  1
<>
  3
SLDDIMSTYLE7
100
AcDbOrdinateDimension
 13
9.5078740157
 23
6.9695104869
 33
0.0
 14
7.4174106037
 24
6.9695104869
 34
0.0
  0
DIMENSION
  5
201
330
1F
100
AcDbEntity
  8
0
  6
SLD-SOLID
 62
     7
100
AcDbDimension
  2
_D_7
 10
9.5078740157
 20
6.9695104869
 30
0.0
 11
7.2049974108
 21
6.2035796951
 31
0.0
 70
    38
  1
<>
  3
SLDDIMSTYLE8
100
AcDbOrdinateDimension
 13
10.0984251969
 23
6.1821089121
 33
0.0
 14
7.4174106037
 24
6.2035796951
 34
0.0
  0
DIMENSION
  5
20E
330
1F
100
AcDbEntity
  8
0
  6
SLD-SOLID
 62
     7
100
AcDbDimension
  2
_D_8
 10
9.5078740157
 20
6.9695104869
 30
0.0
 11
7.2049974108
 21
5.6821089121
 31
0.0
 70
    38
  1
<>
  3
SLDDIMSTYLE8
100
AcDbOrdinateDimension
 13
9.5078740157
 23
5.6821089121
 33
0.0
 14
7.4174106037
 24
5.6821089121
 34
0.0
  0
DIMENSION
  5
218
330
1F
100
AcDbEntity
  8
0
  6
SLD-SOLID
 62
     7
100
AcDbDimension
  2
_D_9
 10
9.5078740157
 20
6.9695104869
 30
0.0
 11
7.1588168643
 21
4.8026677855
 31
0.0
 70
    38
  1
<>
  3
SLDDIMSTYLE8
100
AcDbOrdinateDimension
 13
8.2542322835
 23
4.5627968362
 33
0.0
 14
7.4174106037
 24
4.8026677855
 34
0.0
  0
DIMENSION
  5
224
330
1F
100
AcDbEntity
  8
0
  6
SLD-SOLID
 62
     7
100
AcDbDimension
  2
_D_10
 10
9.5078740157
 20
6.9695104869
 30
0.0
 11
7.1588168643
 21
3.0138018255
 31
0.0
 70
    38
  1
<>
  3
SLDDIMSTYLE8
100
AcDbOrdinateDimension
 13
8.2542322835
 23
3.0138018255
 33
0.0
 14
7.4174106037
 24
3.0138018255
 34
0.0
  0
DIMENSION
  5
22E
330
1F
100
AcDbEntity
  8
0
  6
SLD-SOLID
 62
     7
100
AcDbDimension
  2
_D_11
 10
9.5078740157
 20
6.9695104869
 30
0.0
 11
7.1588168643
 21
2.6388018255
 31
0.0
 70
    38
  1
<>
  3
SLDDIMSTYLE8
100
AcDbOrdinateDimension
 13
8.562992126
 23
2.6388018255
 33
0.0
 14
7.4174106037
 24
2.6388018255
 34
0.0
  0
DIMENSION
  5
238
330
1F
100
AcDbEntity
  8
0
  6
SLD-SOLID
 62
     7
100
AcDbDimension
  2
_D_12
 10
10.688976378
 20
6.9695104869
 30
0.0
 11
10.688976378
 21
8.566443436
 31
0.0
 70
   102
  1
<>
  3
SLDDIMSTYLE9
100
AcDbOrdinateDimension
 13
10.688976378
 23
6.9695104869
 33
0.0
 14
10.688976378
 24
8.3540302432
 34
0.0
  0
DIMENSION
  5
243
330
1F
100
AcDbEntity
  8
0
  6
SLD-SOLID
 62
     7
100
AcDbDimension
  2
_D_13
 10
10.688976378
 20
6.9695104869
 30
0.0
 11
10.0572693744
 21
8.566443436
 31
0.0
 70
   102
  1
<>
  3
SLDDIMSTYLE8
100
AcDbOrdinateDimension
 13
10.0984251969
 23
6.1821089121
 33
0.0
 14
10.0572693744
 24
8.3540302432
 34
0.0
  0
DIMENSION
  5
24F
330
1F
100
AcDbEntity
  8
0
  6
SLD-SOLID
 62
     7
100
AcDbDimension
  2
_D_14
 10
10.688976378
 20
6.9695104869
 30
0.0
 11
9.1141732283
 21
8.566443436
 31
0.0
 70
   102
  1
<>
  3
SLDDIMSTYLE8
100
AcDbOrdinateDimension
 13
9.1141732283
 23
5.4262034003
 33
0.0
 14
9.1141732283
 24
8.3540302432
 34
0.0
  0
DIMENSION
  5
259
330
1F
100
AcDbEntity
  8
0
  6
SLD-SOLID
 62
     7
100
AcDbDimension
  2
_D_15
 10
10.688976378
 20
6.9695104869
 30
0.0
 11
8.6417322835
 21
8.6126239826
 31
0.0
 70
   102
  1
<>
  3
SLDDIMSTYLE8
100
AcDbOrdinateDimension
 13
8.6417322835
 23
4.9502968362
 33
0.0
 14
8.6417322835
 24
8.3540302432
 34
0.0
  0
DIMENSION
  5
263
330
1F
100
AcDbEntity
  8
0
  6
SLD-SOLID
 62
     7
100
AcDbDimension
  2
_D_16
 10
10.688976378
 20
6.9695104869
 30
0.0
 11
8.1692913386
 21
8.5618427392
 31
0.0
 70
   102
  1
<>
  3
SLDDIMSTYLE10
100
AcDbOrdinateDimension
 13
8.1692913386
 23
6.5758096995
 33
0.0
 14
8.1692913386
 24
8.3540302432
 34
0.0
  0
DIMENSION
  5
26A
330
1F
100
AcDbEntity
  8
0
  6
SLD-SOLID
 62
     7
100
AcDbDimension
  2
_D_17
 10
10.0100368492
 20
6.2704972597
 30
0.0
 11
12.6646517259
 21
4.8317546785
 31
0.0
 70
   163
  1
<> THRU ALL\P
  3
SLDDIMSTYLE11
100
AcDbDiametricDimension
 15
10.1868135445
 25
6.0937205644
 35
0.0
 40
0.0
  0
DIMENSION
  5
279
330
1F
100
AcDbEntity
  8
0
  6
SLD-SOLID
 62
     7
100
AcDbDimension
  2
_D_18
 10
8.8228433759
 20
4.6113254072
 30
0.0
 11
6.0632462821
 21
4.1482591888
 31
0.0
 70
   163
  1
2X <> THRU ALL\P
  3
SLDDIMSTYLE12
100
AcDbDiametricDimension
 15
8.460621191
 25
4.5142682653
 35
0.0
 40
0.0
  0
DIMENSION
  5
284
330
1F
100
AcDbEntity
  8
0
  6
SLD-SOLID
 62
     7
100
AcDbDimension
  2
_D_19
 10
9.3700787402
 20
5.4262034003
 30
0.0
 11
10.1477376496
 21
5.0774260339
 31
0.0
 70
   164
  1
<>
  3
SLDDIMSTYLE13
100
AcDbRadialDimension
 15
9.1984305621
 25
5.6160047015
 35
0.0
 40
0.0
  0
TOLERANCE
  5
28E
102
{ACAD_REACTORS
330
290
102
}
330
1F
100
AcDbEntity
  8
0
  6
SLD-SOLID
 62
     7
100
AcDbFcf
  3
SLDDIMSTYLE3
 10
11.6545265754
 20
5.5011358812
 30
0.0
  1
{\Fgdt;c}%%v.005%%v%%v%%v%%v%%v^J
  0
LEADER
  5
290
330
1F
100
AcDbEntity
  8
0
  6
SLD-SOLID
 62
     7
100
AcDbLeader
  3
SLDDIMSTYLE14
 73
     1
 74
     0
 40
0.8339433594
 41
0.25
 76
     3
 10
10.688976378
 20
6.0807849416
 30
0.0
 10
11.4045265754
 20
5.5011358812
 30
0.0
 10
11.6545265754
 20
5.5011358812
 30
0.0
340
28E
1001
ACAD
1000
DSTYLE
1002
{
1070
     6
1000

1002
}
  0
TOLERANCE
  5
291
330
1F
100
AcDbEntity
  8
0
  6
SLD-SOLID
 62
     7
100
AcDbFcf
  3
SLDDIMSTYLE3
 10
11.6987794305
 20
4.545122729
 30
0.0
  1
{\Fgdt;j}%%v{\Fgdt;n}.005%%v%%vA%%vB%%v%%v^J
  0
TOLERANCE
  5
292
330
1F
100
AcDbEntity
  8
0
  6
SLD-SOLID
 62
     7
100
AcDbFcf
  3
SLDDIMSTYLE3
 10
5.2199568544
 20
3.9230855827
 30
0.0
  1
{\Fgdt;j}%%v{\Fgdt;n}.005%%v%%vA%%vB%%vC%%v^J
  0
INSERT
  5
29E
330
1F
100
AcDbEntity
  8
0
  6
CONTINUOUS
 62
     7
100
AcDbBlockReference
  2
SW_CENTERMARKSYMBOL_0
 10
8.6417322835
 20
3.0138018255
 30
0.0
  0
INSERT
  5
2AA
330
1F
100
AcDbEntity
  8
0
  6
CONTINUOUS
 62
     7
100
AcDbBlockReference
  2
SW_CENTERMARKSYMBOL_1
 10
8.6417322835
 20
4.5627968362
 30
0.0
  0
INSERT
  5
2B5
330
1F
100
AcDbEntity
  8
0
  6
CONTINUOUS
 62
     7
100
AcDbBlockReference
  2
SW_DATUMTAG_1
 10
11.9898078069
 20
6.0611012963
 30
0.0
  0
INSERT
  5
2C0
330
1F
100
AcDbEntity
  8
0
  6
CONTINUOUS
 62
     7
100
AcDbBlockReference
  2
SW_DATUMTAG_2
 10
12.3356530225
 20
3.7639873825
 30
0.0
  0
INSERT
  5
2C7
330
1F
100
AcDbEntity
  8
0
  6
CONTINUOUS
 62
     7
100
AcDbBlockReference
  2
SW_DOWELSYMBOL_1
 10
10.0984251969
 20
6.1821089121
 30
0.0
  0
MTEXT
  5
2C9
330
1F
100
AcDbEntity
  8
0
  6
CONTINUOUS
 62
     7
100
AcDbMText
 10
0.0
 20
0.5641932659
 30
0.0
 40
0.2022874016
 41
0.0
 71
     1
 72
     1
  1
SOLIDWORKS Educational Product.
  7
SLDTEXTSTYLE4
  0
MTEXT
  5
2CA
330
1F
100
AcDbEntity
  8
0
  6
CONTINUOUS
 62
     7
100
AcDbMText
 10
0.0
 20
0.2607621635
 30
0.0
 40
0.2022874016
 41
0.0
 71
     1
 72
     1
  1
For Instructional Use Only.
  7
SLDTEXTSTYLE4
  0
ENDSEC
  0
SECTION
  2
OBJECTS
  0
DICTIONARY
  5
C
330
0
100
AcDbDictionary
  3
ACAD_GROUP
350
D
  3
ACAD_MLINESTYLE
350
17
  3
ACAD_SCALELIST
350
47
  3
DWGPROPS
350
2CB
1001
ACAD
1000
TREAT_AS_HARD
1070
     0
  0
DICTIONARY
  5
D
102
{ACAD_REACTORS
330
C
102
}
330
C
100
AcDbDictionary
1001
ACAD
1000
TREAT_AS_HARD
1070
     0
  0
DICTIONARY
  5
17
102
{ACAD_REACTORS
330
C
102
}
330
C
100
AcDbDictionary
  3
STANDARD
350
18
1001
ACAD
1000
TREAT_AS_HARD
1070
     0
  0
DICTIONARY
  5
47
102
{ACAD_REACTORS
330
C
102
}
330
C
100
AcDbDictionary
1001
ACAD
1000
TREAT_AS_HARD
1070
     0
  0
XRECORD
  5
2CB
102
{ACAD_REACTORS
330
C
102
}
330
C
100
AcDbXrecord
  1
DWGPROPS COOKIE
  2

  3

  4

  6

  7

  8
andre
  9

300
=
301
=
302
=
303
=
304
=
305
=
306
=
307
=
308
=
309
=
 40
0.0
 41
2459123.011265208
 42
2459123.011269155
  1

 90
        0
  0
MLINESTYLE
  5
18
102
{ACAD_REACTORS
330
17
102
}
330
17
100
AcDbMlineStyle
  2
Standard
 70
     0
  3

 62
   256
 51
90.0
 52
90.0
 71
     2
 49
0.5
 62
   256
  6
BYLAYER
 49
-0.5
 62
   256
  6
BYLAYER
  0
ENDSEC
  0
EOF
