  0
SECTION
  2
HEADER
  9
$ACADVER
  1
AC1012
  9
$DWGCODEPAGE
  3
ansi_1252
  9
$INSBASE
 10
0.0
 20
0.0
 30
0.0
  9
$EXTMIN
 10
0.0
 20
0.0
 30
0.0
  9
$EXTMAX
 10
16.5354330709
 20
11.6929133858
 30
0.0
  9
$LIMMIN
 10
0.0
 20
0.0
  9
$LIMMAX
 10
16.5354330709
 20
11.6929133858
  9
$ORTHOMODE
 70
     0
  9
$REGENMODE
 70
     1
  9
$FILLMODE
 70
     1
  9
$QTEXTMODE
 70
     0
  9
$MIRRTEXT
 70
     1
  9
$DRAGMODE
 70
     2
  9
$LTSCALE
 40
1.0
  9
$OSMODE
 70
    37
  9
$ATTMODE
 70
     1
  9
$TEXTSIZE
 40
0.125
  9
$TRACEWID
 40
0.05
  9
$TEXTSTYLE
  7
STANDARD
  9
$CLAYER
  8
0
  9
$CELTYPE
  6
BYLAYER
  9
$CECOLOR
 62
   256
  9
$CELTSCALE
 40
1.0
  9
$DELOBJ
 70
     1
  9
$DISPSILH
 70
     0
  9
$DIMSCALE
 40
1.0
  9
$DIMASZ
 40
0.13
  9
$DIMEXO
 40
0.05
  9
$DIMDLI
 40
0.38
  9
$DIMRND
 40
0.0
  9
$DIMDLE
 40
0.0
  9
$DIMEXE
 40
0.125
  9
$DIMTP
 40
0.0
  9
$DIMTM
 40
0.0
  9
$DIMTXT
 40
0.125
  9
$DIMCEN
 40
0.09
  9
$DIMTSZ
 40
0.0
  9
$DIMTOL
 70
     0
  9
$DIMLIM
 70
     0
  9
$DIMTIH
 70
     1
  9
$DIMTOH
 70
     1
  9
$DIMSE1
 70
     0
  9
$DIMSE2
 70
     0
  9
$DIMTAD
 70
     0
  9
$DIMZIN
 70
     1
  9
$DIMBLK
  1

  9
$DIMASO
 70
     1
  9
$DIMSHO
 70
     1
  9
$DIMPOST
  1

  9
$DIMAPOST
  1

  9
$DIMALT
 70
     0
  9
$DIMALTD
 70
     2
  9
$DIMALTF
 40
25.4
  9
$DIMLFAC
 40
0.5
  9
$DIMTOFL
 70
     0
  9
$DIMTVP
 40
0.0
  9
$DIMTIX
 70
     0
  9
$DIMSOXD
 70
     0
  9
$DIMSAH
 70
     0
  9
$DIMBLK1
  1

  9
$DIMBLK2
  1

  9
$DIMSTYLE
  2
STANDARD
  9
$DIMCLRD
 70
     0
  9
$DIMCLRE
 70
     0
  9
$DIMCLRT
 70
     0
  9
$DIMTFAC
 40
1.0
  9
$DIMGAP
 40
0.06
  9
$DIMJUST
 70
     0
  9
$DIMSD1
 70
     0
  9
$DIMSD2
 70
     0
  9
$DIMTOLJ
 70
     1
  9
$DIMTZIN
 70
     1
  9
$DIMALTZ
 70
     0
  9
$DIMALTTZ
 70
     0
  9
$DIMFIT
 70
     3
  9
$DIMUPT
 70
     0
  9
$DIMUNIT
 70
     2
  9
$DIMDEC
 70
     3
  9
$DIMTDEC
 70
     3
  9
$DIMALTU
 70
     2
  9
$DIMALTTD
 70
     2
  9
$DIMTXSTY
  7
STANDARD
  9
$DIMAUNIT
 70
     0
  9
$LUNITS
 70
     2
  9
$LUPREC
 70
     3
  9
$SKETCHINC
 40
0.1
  9
$FILLETRAD
 40
0.5
  9
$AUNITS
 70
     0
  9
$AUPREC
 70
     2
  9
$MENU
  1
.
  9
$ELEVATION
 40
0.0
  9
$PELEVATION
 40
0.0
  9
$THICKNESS
 40
0.0
  9
$LIMCHECK
 70
     0
  9
$CHAMFERA
 40
0.0
  9
$CHAMFERB
 40
0.0
  9
$CHAMFERC
 40
0.0
  9
$CHAMFERD
 40
0.0
  9
$SKPOLY
 70
     0
  9
$TDCREATE
 40
2459122.844661667
  9
$TDUPDATE
 40
2459122.84466456
  9
$TDINDWG
 40
0.0000000116
  9
$TDUSRTIMER
 40
0.0000000116
  9
$USRTIMER
 70
     1
  9
$ANGBASE
 50
0.0
  9
$ANGDIR
 70
     0
  9
$PDMODE
 70
     0
  9
$PDSIZE
 40
-1.0
  9
$PLINEWID
 40
0.0
  9
$COORDS
 70
     1
  9
$SPLFRAME
 70
     0
  9
$SPLINETYPE
 70
     6
  9
$SPLINESEGS
 70
     8
  9
$ATTDIA
 70
     0
  9
$ATTREQ
 70
     1
  9
$HANDLING
 70
     1
  9
$HANDSEED
  5
209
  9
$SURFTAB1
 70
     6
  9
$SURFTAB2
 70
     6
  9
$SURFTYPE
 70
     6
  9
$SURFU
 70
     6
  9
$SURFV
 70
     6
  9
$UCSNAME
  2

  9
$UCSORG
 10
0.0
 20
0.0
 30
0.0
  9
$UCSXDIR
 10
1.0
 20
0.0
 30
0.0
  9
$UCSYDIR
 10
0.0
 20
1.0
 30
0.0
  9
$PUCSNAME
  2

  9
$PUCSORG
 10
0.0
 20
0.0
 30
0.0
  9
$PUCSXDIR
 10
1.0
 20
0.0
 30
0.0
  9
$PUCSYDIR
 10
0.0
 20
1.0
 30
0.0
  9
$USERI1
 70
     0
  9
$USERI2
 70
     0
  9
$USERI3
 70
     0
  9
$USERI4
 70
     0
  9
$USERI5
 70
     0
  9
$USERR1
 40
0.0
  9
$USERR2
 40
0.0
  9
$USERR3
 40
0.0
  9
$USERR4
 40
0.0
  9
$USERR5
 40
0.0
  9
$WORLDVIEW
 70
     1
  9
$SHADEDGE
 70
     3
  9
$SHADEDIF
 70
    70
  9
$TILEMODE
 70
     1
  9
$MAXACTVP
 70
    64
  9
$PINSBASE
 10
0.0
 20
0.0
 30
0.0
  9
$PLIMCHECK
 70
     0
  9
$PEXTMIN
 10
1.0000000000E+20
 20
1.0000000000E+20
 30
1.0000000000E+20
  9
$PEXTMAX
 10
-1.0000000000E+20
 20
-1.0000000000E+20
 30
-1.0000000000E+20
  9
$PLIMMIN
 10
0.0
 20
0.0
  9
$PLIMMAX
 10
12.0
 20
9.0
  9
$UNITMODE
 70
     0
  9
$VISRETAIN
 70
     1
  9
$PLINEGEN
 70
     0
  9
$PSLTSCALE
 70
     1
  9
$TREEDEPTH
 70
  3020
  9
$PICKSTYLE
 70
     1
  9
$CMLSTYLE
  2
STANDARD
  9
$CMLJUST
 70
     0
  9
$CMLSCALE
 40
1.0
  9
$SAVEIMAGES
 70
     1
  0
ENDSEC
  0
SECTION
  2
CLASSES
  0
CLASS
  1
ACDBDICTIONARYWDFLT
  2
AcDbDictionaryWithDefault
  3
ObjectDBX Classes
 90
    32768
280
     0
281
     0
  0
CLASS
  1
VISUALSTYLE
  2
AcDbVisualStyle
  3
ObjectDBX Classes
 90
     4095
280
     0
281
     0
  0
CLASS
  1
MATERIAL
  2
AcDbMaterial
  3
ObjectDBX Classes
 90
     1153
280
     0
281
     0
  0
CLASS
  1
SCALE
  2
AcDbScale
  3
ObjectDBX Classes
 90
     1153
280
     0
281
     0
  0
CLASS
  1
TABLESTYLE
  2
AcDbTableStyle
  3
ObjectDBX Classes
 90
     4095
280
     0
281
     0
  0
CLASS
  1
MLEADERSTYLE
  2
AcDbMLeaderStyle
  3
ACDB_MLEADERSTYLE_CLASS
 90
     4095
280
     0
281
     0
  0
CLASS
  1
SUN
  2
AcDbSun
  3
SCENEOE
 90
     1153
280
     0
281
     0
  0
CLASS
  1
XRECORD
  2
AcDbXrecord
  3
ObjectDBX Classes
 90
    32768
280
     0
281
     0
  0
ENDSEC
  0
SECTION
  2
TABLES
  0
TABLE
  2
VPORT
  5
8
330
0
100
AcDbSymbolTable
 70
     1
  0
VPORT
  5
29
330
8
100
AcDbSymbolTableRecord
100
AcDbViewportTableRecord
  2
*ACTIVE
 70
     0
 10
0.0
 20
0.0
 11
1.0
 21
1.0
 12
8.2677165354
 22
5.8464566929
 13
0.0
 23
0.0
 14
0.5
 24
0.5
 15
0.5
 25
0.5
 16
0.0
 26
0.0
 36
1.0
 17
0.0
 27
0.0
 37
0.0
 40
11.6929133858
 41
1.4141414141
 42
50.0
 43
0.0
 44
0.0
 50
0.0
 51
0.0
 71
     0
 72
  2000
 73
     1
 74
     3
 75
     0
 76
     0
 77
     0
 78
     0
  0
ENDTAB
  0
TABLE
  2
LTYPE
  5
5
330
0
100
AcDbSymbolTable
 70
     8
  0
LTYPE
  5
14
330
5
100
AcDbSymbolTableRecord
100
AcDbLinetypeTableRecord
  2
BYBLOCK
 70
     0
  3

 72
    65
 73
     0
 40
0.0
  0
LTYPE
  5
15
330
5
100
AcDbSymbolTableRecord
100
AcDbLinetypeTableRecord
  2
BYLAYER
 70
     0
  3

 72
    65
 73
     0
 40
0.0
  0
LTYPE
  5
16
330
5
100
AcDbSymbolTableRecord
100
AcDbLinetypeTableRecord
  2
CONTINUOUS
 70
     0
  3
Solid line
 72
    65
 73
     0
 40
0.0
  0
LTYPE
  5
6E
330
5
100
AcDbSymbolTableRecord
100
AcDbLinetypeTableRecord
  2
SLD-SOLID
 70
     0
  3
SolidWorks Line Style
 72
    65
 73
     0
 40
0.0
  0
LTYPE
  5
6F
330
5
100
AcDbSymbolTableRecord
100
AcDbLinetypeTableRecord
  2
SLD-DASHED
 70
     0
  3
SolidWorks Line Style
 72
    65
 73
     2
 40
0.075
 49
0.05
 74
     0
 49
-0.025
 74
     0
  0
LTYPE
  5
70
330
5
100
AcDbSymbolTableRecord
100
AcDbLinetypeTableRecord
  2
SLD-PHANTOM
 70
     0
  3
SolidWorks Line Style
 72
    65
 73
     6
 40
0.5
 49
0.25
 74
     0
 49
-0.05
 74
     0
 49
0.05
 74
     0
 49
-0.05
 74
     0
 49
0.05
 74
     0
 49
-0.05
 74
     0
  0
LTYPE
  5
71
330
5
100
AcDbSymbolTableRecord
100
AcDbLinetypeTableRecord
  2
SLD-CHAIN
 70
     0
  3
SolidWorks Line Style
 72
    65
 73
     4
 40
0.4
 49
0.25
 74
     0
 49
-0.05
 74
     0
 49
0.05
 74
     0
 49
-0.05
 74
     0
  0
LTYPE
  5
72
330
5
100
AcDbSymbolTableRecord
100
AcDbLinetypeTableRecord
  2
SLD-CENTER
 70
     0
  3
SolidWorks Line Style
 72
    65
 73
     4
 40
0.75
 49
0.6
 74
     0
 49
-0.05
 74
     0
 49
0.05
 74
     0
 49
-0.05
 74
     0
  0
LTYPE
  5
73
330
5
100
AcDbSymbolTableRecord
100
AcDbLinetypeTableRecord
  2
SLD-STITCH
 70
     0
  3
SolidWorks Line Style
 72
    65
 73
     2
 40
0.025
 49
0.0
 74
     0
 49
-0.025
 74
     0
  0
LTYPE
  5
74
330
5
100
AcDbSymbolTableRecord
100
AcDbLinetypeTableRecord
  2
SLD-THIN-THICK-CHAIN
 70
     0
  3
SolidWorks Line Style
 72
    65
 73
     4
 40
0.4
 49
0.25
 74
     0
 49
-0.05
 74
     0
 49
0.05
 74
     0
 49
-0.05
 74
     0
  0
ENDTAB
  0
TABLE
  2
LAYER
  5
2
330
0
100
AcDbSymbolTable
 70
     2
  0
LAYER
  5
10
330
2
100
AcDbSymbolTableRecord
100
AcDbLayerTableRecord
  2
0
 70
     0
 62
     7
  6
CONTINUOUS
  0
LAYER
  5
75
330
2
100
AcDbSymbolTableRecord
100
AcDbLayerTableRecord
  2
FORMAT
 70
     0
 62
     7
  6
SLD-SOLID
  0
ENDTAB
  0
TABLE
  2
STYLE
  5
3
330
0
100
AcDbSymbolTable
 70
     5
  0
STYLE
  5
11
330
3
100
AcDbSymbolTableRecord
100
AcDbTextStyleTableRecord
  2
STANDARD
 70
     0
 40
0.0
 41
1.0
 50
0.0
 71
     0
 42
0.125
  3
txt
  4

  0
STYLE
  5
B6
330
3
100
AcDbSymbolTableRecord
100
AcDbTextStyleTableRecord
  2
SLDTEXTSTYLE0
 70
     0
 40
0.0
 41
0.75
 50
0.0
 71
     0
 42
0.125
  3
TXT
  4

  0
STYLE
  5
DD
330
3
100
AcDbSymbolTableRecord
100
AcDbTextStyleTableRecord
  2
SLDTEXTSTYLE1
 70
     0
 40
0.0
 41
0.6864493306
 50
0.0
 71
     0
 42
0.125
  3
TXT
  4

  0
STYLE
  5
FE
330
3
100
AcDbSymbolTableRecord
100
AcDbTextStyleTableRecord
  2
SLDTEXTSTYLE2
 70
     0
 40
0.0
 41
0.6875
 50
0.0
 71
     0
 42
0.125
  3
TXT
  4

  0
STYLE
  5
191
330
3
100
AcDbSymbolTableRecord
100
AcDbTextStyleTableRecord
  2
SLDTEXTSTYLE3
 70
     0
 40
0.0
 41
0.7
 50
0.0
 71
     0
 42
0.125
  3
TXT
  4

  0
ENDTAB
  0
TABLE
  2
VIEW
  5
6
330
0
100
AcDbSymbolTable
 70
     0
  0
ENDTAB
  0
TABLE
  2
UCS
  5
7
330
0
100
AcDbSymbolTable
 70
     0
  0
ENDTAB
  0
TABLE
  2
APPID
  5
9
330
0
100
AcDbSymbolTable
 70
     1
  0
APPID
  5
12
330
9
100
AcDbSymbolTableRecord
100
AcDbRegAppTableRecord
  2
ACAD
 70
     0
  0
ENDTAB
  0
TABLE
  2
DIMSTYLE
  5
A
330
0
100
AcDbSymbolTable
 70
    10
  0
DIMSTYLE
105
27
330
A
100
AcDbSymbolTableRecord
100
AcDbDimStyleTableRecord
  2
STANDARD
 70
     0
  3

  4

  5

  6

  7

 40
1.0
 41
0.18
 42
0.0625
 43
0.38
 44
0.18
 45
0.0
 46
0.0
 47
0.0
 48
0.0
140
0.18
141
0.09
142
0.0
143
25.4
144
1.0
145
0.0
146
1.0
147
0.09
 71
     0
 72
     0
 73
     1
 74
     1
 75
     0
 76
     0
 77
     0
 78
     0
170
     0
171
     2
172
     0
173
     0
174
     0
175
     0
176
     0
177
     0
178
     0
270
     2
271
     4
272
     4
273
     2
274
     2
340
11
275
     0
280
     0
281
     0
282
     0
283
     1
284
     0
285
     0
286
     0
287
     3
288
     0
  0
DIMSTYLE
105
13B
102
{ACAD_REACTORS
330
13A
102
}
330
A
100
AcDbSymbolTableRecord
100
AcDbDimStyleTableRecord
  2
SLDDIMSTYLE0
 70
     0
  3

  4

  5

  6
NONE
  7
NONE
 40
1.0
 41
0.13
 42
0.0625
 43
0.38
 44
0.0
 45
0.000000001
 46
0.0
 47
0.0
 48
0.0
140
0.125
141
0.09
142
0.0
143
25.4
144
0.5
145
0.0
146
1.0
147
0.03125
 71
     0
 72
     0
 73
     1
 74
     1
 75
     0
 76
     0
 77
     0
 78
     4
170
     0
171
     2
172
     0
173
     1
174
     0
175
     0
176
     0
177
     0
178
     0
270
     2
271
     3
272
     3
273
     2
274
     2
340
B6
275
     0
280
     0
281
     0
282
     0
283
     1
284
    12
285
     0
286
     0
287
     3
288
     0
  0
DIMSTYLE
105
147
102
{ACAD_REACTORS
330
146
330
156
330
15D
330
164
330
16B
330
172
102
}
330
A
100
AcDbSymbolTableRecord
100
AcDbDimStyleTableRecord
  2
SLDDIMSTYLE1
 70
     0
  3

  4

  5

  6
NONE
  7
NONE
 40
1.0
 41
0.13
 42
0.0625
 43
0.38
 44
0.0
 45
0.000000001
 46
0.0
 47
0.005
 48
0.005
140
0.125
141
0.09
142
0.0
143
25.4
144
0.5
145
0.0
146
1.0
147
0.03125
 71
     1
 72
     0
 73
     1
 74
     1
 75
     0
 76
     0
 77
     0
 78
    12
170
     0
171
     2
172
     0
173
     1
174
     0
175
     0
176
     0
177
     0
178
     0
270
     2
271
     3
272
     3
273
     2
274
     2
340
B6
275
     0
280
     0
281
     0
282
     0
283
     1
284
     8
285
     0
286
     0
287
     3
288
     0
  0
DIMSTYLE
105
14F
102
{ACAD_REACTORS
330
14E
330
17B
102
}
330
A
100
AcDbSymbolTableRecord
100
AcDbDimStyleTableRecord
  2
SLDDIMSTYLE2
 70
     0
  3

  4

  5

  6
NONE
  7
NONE
 40
1.0
 41
0.13
 42
0.0625
 43
0.38
 44
0.0
 45
0.000000001
 46
0.0
 47
0.005
 48
0.005
140
0.125
141
0.09
142
0.0
143
25.4
144
0.5
145
0.0
146
1.0
147
0.03125
 71
     1
 72
     0
 73
     1
 74
     1
 75
     0
 76
     0
 77
     0
 78
     4
170
     0
171
     2
172
     0
173
     1
174
     0
175
     0
176
     0
177
     0
178
     0
270
     2
271
     3
272
     3
273
     2
274
     2
340
B6
275
     0
280
     0
281
     0
282
     0
283
     1
284
     8
285
     0
286
     0
287
     3
288
     0
  0
DIMSTYLE
105
183
102
{ACAD_REACTORS
330
182
102
}
330
A
100
AcDbSymbolTableRecord
100
AcDbDimStyleTableRecord
  2
SLDDIMSTYLE3
 70
     0
  3
<>
  4

  5

  6

  7

 40
1.0
 41
0.13
 42
0.0625
 43
0.38
 44
0.0
 45
0.000000001
 46
0.0
 47
0.001
 48
0.0
140
0.125
141
0.0
142
0.0
143
25.4
144
0.5
145
0.0
146
1.0
147
0.03125
 71
     1
 72
     0
 73
     1
 74
     1
 75
     0
 76
     0
 77
     0
 78
     4
170
     0
171
     2
172
     0
173
     1
174
     0
175
     0
176
     0
177
     0
178
     0
270
     2
271
     4
272
     3
273
     2
274
     2
340
B6
275
     0
280
     0
281
     0
282
     0
283
     1
284
     0
285
     0
286
     0
287
     3
288
     0
  0
DIMSTYLE
105
194
102
{ACAD_REACTORS
330
193
102
}
330
A
100
AcDbSymbolTableRecord
100
AcDbDimStyleTableRecord
  2
SLDDIMSTYLE4
 70
     0
  3

  4

  5

  6

  7

 40
1.0
 41
0.13
 42
0.0625
 43
0.38
 44
0.0
 45
0.000000001
 46
0.0
 47
-0.0002
 48
0.0006
140
0.125
141
0.09
142
0.0
143
25.4
144
0.5
145
0.0
146
1.0
147
0.03125
 71
     1
 72
     0
 73
     1
 74
     1
 75
     0
 76
     0
 77
     0
 78
     4
170
     0
171
     2
172
     0
173
     1
174
     0
175
     0
176
     0
177
     0
178
     0
270
     2
271
     4
272
     4
273
     2
274
     2
340
B6
275
     0
280
     0
281
     0
282
     0
283
     1
284
    12
285
     0
286
     0
287
     3
288
     0
  0
DIMSTYLE
105
1A7
102
{ACAD_REACTORS
330
1A6
102
}
330
A
100
AcDbSymbolTableRecord
100
AcDbDimStyleTableRecord
  2
SLDDIMSTYLE5
 70
     0
  3

  4

  5

  6

  7

 40
1.0
 41
0.13
 42
0.0625
 43
0.38
 44
0.0
 45
0.000000001
 46
0.0
 47
0.002
 48
0.002
140
0.125
141
0.09
142
0.0
143
25.4
144
0.5
145
0.0
146
1.0
147
0.03125
 71
     1
 72
     0
 73
     1
 74
     1
 75
     0
 76
     0
 77
     0
 78
    12
170
     0
171
     2
172
     0
173
     1
174
     0
175
     0
176
     0
177
     0
178
     0
270
     2
271
     3
272
     3
273
     2
274
     2
340
B6
275
     0
280
     0
281
     0
282
     0
283
     1
284
     8
285
     0
286
     0
287
     3
288
     0
  0
DIMSTYLE
105
1B6
102
{ACAD_REACTORS
330
1B5
102
}
330
A
100
AcDbSymbolTableRecord
100
AcDbDimStyleTableRecord
  2
SLDDIMSTYLE6
 70
     0
  3

  4

  5

  6

  7

 40
1.0
 41
0.13
 42
0.0625
 43
0.38
 44
0.0
 45
0.000000001
 46
0.0
 47
0.001
 48
0.001
140
0.125
141
0.09
142
0.0
143
25.4
144
0.5
145
0.0
146
1.0
147
0.03125
 71
     1
 72
     0
 73
     1
 74
     1
 75
     0
 76
     0
 77
     0
 78
    12
170
     0
171
     2
172
     0
173
     1
174
     0
175
     0
176
     0
177
     0
178
     0
270
     2
271
     3
272
     3
273
     2
274
     2
340
B6
275
     0
280
     0
281
     0
282
     0
283
     1
284
     8
285
     0
286
     0
287
     3
288
     0
  0
DIMSTYLE
105
1C5
102
{ACAD_REACTORS
330
1C4
102
}
330
A
100
AcDbSymbolTableRecord
100
AcDbDimStyleTableRecord
  2
SLDDIMSTYLE7
 70
     0
  3

  4

  5

  6

  7

 40
1.0
 41
0.13
 42
0.0625
 43
0.38
 44
0.0
 45
0.000000001
 46
0.0
 47
0.005
 48
0.005
140
0.125
141
0.09
142
0.0
143
25.4
144
0.5
145
0.0
146
1.0
147
0.03125
 71
     1
 72
     0
 73
     1
 74
     1
 75
     0
 76
     0
 77
     0
 78
    12
170
     0
171
     2
172
     1
173
     1
174
     0
175
     0
176
     0
177
     0
178
     0
270
     2
271
     3
272
     3
273
     2
274
     2
340
B6
275
     0
280
     0
281
     0
282
     0
283
     1
284
     8
285
     0
286
     0
288
     0
  0
DIMSTYLE
105
1D3
102
{ACAD_REACTORS
330
1D2
102
}
330
A
100
AcDbSymbolTableRecord
100
AcDbDimStyleTableRecord
  2
SLDDIMSTYLE8
 70
     0
  3

  4

  5

  6

  7

 40
1.0
 41
0.13
 42
0.0625
 43
0.38
 44
0.0
 45
0.000000001
 46
0.0
 47
0.005
 48
0.005
140
0.125
141
0.09
142
0.0
143
25.4
144
0.5
145
0.0
146
1.0
147
0.03125
 71
     1
 72
     0
 73
     1
 74
     1
 75
     0
 76
     0
 77
     0
 78
     4
170
     0
171
     2
172
     1
173
     1
174
     0
175
     0
176
     0
177
     0
178
     0
270
     2
271
     3
272
     3
273
     2
274
     2
340
B6
275
     0
280
     0
281
     0
282
     0
283
     1
284
     8
285
     0
286
     0
288
     0
  0
ENDTAB
  0
TABLE
  2
BLOCK_RECORD
  5
1
330
0
100
AcDbSymbolTable
 70
    24
  0
BLOCK_RECORD
  5
1F
330
1
100
AcDbSymbolTableRecord
100
AcDbBlockTableRecord
  2
*MODEL_SPACE
  0
BLOCK_RECORD
  5
1B
330
1
100
AcDbSymbolTableRecord
100
AcDbBlockTableRecord
  2
*PAPER_SPACE
  0
BLOCK_RECORD
  5
23
330
1
100
AcDbSymbolTableRecord
100
AcDbBlockTableRecord
  2
*PAPER_SPACE0
  0
BLOCK_RECORD
  5
B3
330
1
100
AcDbSymbolTableRecord
100
AcDbBlockTableRecord
  2
SW_SYMBOL_MOD_CL
  0
BLOCK_RECORD
  5
BA
330
1
100
AcDbSymbolTableRecord
100
AcDbBlockTableRecord
  2
SW_NOTE_0
  0
BLOCK_RECORD
  5
E3
330
1
100
AcDbSymbolTableRecord
100
AcDbBlockTableRecord
  2
SW_NOTE_0_1
  0
BLOCK_RECORD
  5
EE
330
1
100
AcDbSymbolTableRecord
100
AcDbBlockTableRecord
  2
SW_NOTE_0_2
  0
BLOCK_RECORD
  5
13C
330
1
100
AcDbSymbolTableRecord
100
AcDbBlockTableRecord
  2
_NONE
  0
BLOCK_RECORD
  5
13F
330
1
100
AcDbSymbolTableRecord
100
AcDbBlockTableRecord
  2
_D
  0
BLOCK_RECORD
  5
148
330
1
100
AcDbSymbolTableRecord
100
AcDbBlockTableRecord
  2
_D_1
  0
BLOCK_RECORD
  5
150
330
1
100
AcDbSymbolTableRecord
100
AcDbBlockTableRecord
  2
_D_2
  0
BLOCK_RECORD
  5
157
330
1
100
AcDbSymbolTableRecord
100
AcDbBlockTableRecord
  2
_D_3
  0
BLOCK_RECORD
  5
15E
330
1
100
AcDbSymbolTableRecord
100
AcDbBlockTableRecord
  2
_D_4
  0
BLOCK_RECORD
  5
165
330
1
100
AcDbSymbolTableRecord
100
AcDbBlockTableRecord
  2
_D_5
  0
BLOCK_RECORD
  5
16C
330
1
100
AcDbSymbolTableRecord
100
AcDbBlockTableRecord
  2
_D_6
  0
BLOCK_RECORD
  5
173
330
1
100
AcDbSymbolTableRecord
100
AcDbBlockTableRecord
  2
_D_7
  0
BLOCK_RECORD
  5
17C
330
1
100
AcDbSymbolTableRecord
100
AcDbBlockTableRecord
  2
_D_8
  0
BLOCK_RECORD
  5
184
330
1
100
AcDbSymbolTableRecord
100
AcDbBlockTableRecord
  2
_D_9
  0
BLOCK_RECORD
  5
195
330
1
100
AcDbSymbolTableRecord
100
AcDbBlockTableRecord
  2
_D_10
  0
BLOCK_RECORD
  5
1A8
330
1
100
AcDbSymbolTableRecord
100
AcDbBlockTableRecord
  2
_D_11
  0
BLOCK_RECORD
  5
1B7
330
1
100
AcDbSymbolTableRecord
100
AcDbBlockTableRecord
  2
_D_12
  0
BLOCK_RECORD
  5
1C6
330
1
100
AcDbSymbolTableRecord
100
AcDbBlockTableRecord
  2
_D_13
  0
BLOCK_RECORD
  5
1D4
330
1
100
AcDbSymbolTableRecord
100
AcDbBlockTableRecord
  2
_D_14
  0
BLOCK_RECORD
  5
1DF
330
1
100
AcDbSymbolTableRecord
100
AcDbBlockTableRecord
  2
SW_CENTERMARKSYMBOL_0
  0
BLOCK_RECORD
  5
1EB
330
1
100
AcDbSymbolTableRecord
100
AcDbBlockTableRecord
  2
SW_CENTERMARKSYMBOL_1
  0
BLOCK_RECORD
  5
1FA
330
1
100
AcDbSymbolTableRecord
100
AcDbBlockTableRecord
  2
SW_CENTERMARKSYMBOL_2
  0
ENDTAB
  0
ENDSEC
  0
SECTION
  2
BLOCKS
  0
BLOCK
  5
20
330
1F
100
AcDbEntity
  8
0
100
AcDbBlockBegin
  2
*MODEL_SPACE
 70
     0
 10
0.0
 20
0.0
 30
0.0
  3
*MODEL_SPACE
  1

  0
ENDBLK
  5
21
330
1F
100
AcDbEntity
  8
0
100
AcDbBlockEnd
  0
BLOCK
  5
1C
330
1B
100
AcDbEntity
 67
     1
  8
0
100
AcDbBlockBegin
  2
*PAPER_SPACE
 70
     0
 10
0.0
 20
0.0
 30
0.0
  3
*PAPER_SPACE
  1

  0
ENDBLK
  5
1D
330
1B
100
AcDbEntity
 67
     1
  8
0
100
AcDbBlockEnd
  0
BLOCK
  5
24
330
23
100
AcDbEntity
  8
0
100
AcDbBlockBegin
  2
*PAPER_SPACE0
 70
     0
 10
0.0
 20
0.0
 30
0.0
  3
*PAPER_SPACE0
  1

  0
ENDBLK
  5
25
330
23
100
AcDbEntity
  8
0
100
AcDbBlockEnd
  0
BLOCK
  5
B4
330
B3
100
AcDbEntity
  8
0
100
AcDbBlockBegin
  2
SW_SYMBOL_MOD_CL
 70
     0
 10
0.0
 20
0.0
 30
0.0
  3
SW_SYMBOL_MOD_CL
  1

  0
MTEXT
  5
B7
330
B3
100
AcDbEntity
  8
0
  6
CONTINUOUS
 62
     0
100
AcDbMText
 10
15.7480314961
 20
23.6220472441
 30
0.0
 40
30.821835344
 41
0.0
 71
     5
 72
     1
  1
C
  7
SLDTEXTSTYLE0
  0
MTEXT
  5
B8
330
B3
100
AcDbEntity
  8
0
  6
CONTINUOUS
 62
     0
100
AcDbMText
 10
23.6220472441
 20
11.811023622
 30
0.0
 40
30.821835344
 41
0.0
 71
     5
 72
     1
  1
L
  7
SLDTEXTSTYLE0
  0
ENDBLK
  5
B5
330
B3
100
AcDbEntity
  8
0
100
AcDbBlockEnd
  0
BLOCK
  5
BB
330
BA
100
AcDbEntity
  8
0
100
AcDbBlockBegin
  2
SW_NOTE_0
 70
     0
 10
0.0
 20
0.0
 30
0.0
  3
SW_NOTE_0
  1

  0
MTEXT
  5
BD
330
BA
100
AcDbEntity
  8
0
  6
CONTINUOUS
 62
     0
100
AcDbMText
 10
0.0
 20
0.1611334675
 30
0.0
 40
0.125
 41
0.0
 71
     1
 72
     1
  1
NOTES:
  7
SLDTEXTSTYLE0
  0
MTEXT
  5
BE
330
BA
100
AcDbEntity
  8
0
  6
CONTINUOUS
 62
     0
100
AcDbMText
 10
0.0
 20
-0.1676066816
 30
0.0
 40
0.125
 41
0.0
 71
     1
 72
     1
  1
TOLERANCING PER ASME 14.5Y-2009
  7
SLDTEXTSTYLE0
  0
MTEXT
  5
BF
330
BA
100
AcDbEntity
  8
0
  6
CONTINUOUS
 62
     0
100
AcDbMText
 10
0.0
 20
-0.3319767561
 30
0.0
 40
0.125
 41
0.0
 71
     1
 72
     1
  1
MATERIAL - AISI 316
  7
SLDTEXTSTYLE0
  0
ENDBLK
  5
BC
330
BA
100
AcDbEntity
  8
0
100
AcDbBlockEnd
  0
BLOCK
  5
E4
330
E3
100
AcDbEntity
  8
0
100
AcDbBlockBegin
  2
SW_NOTE_0_1
 70
     0
 10
0.0
 20
0.0
 30
0.0
  3
SW_NOTE_0_1
  1

  0
MTEXT
  5
E6
330
E3
100
AcDbEntity
  8
0
  6
CONTINUOUS
 62
     0
100
AcDbMText
 10
0.0
 20
0.0761260476
 30
0.0
 40
0.0590551181
 41
0.0
 71
     1
 72
     1
  1
UNLESS OTHERWISE SPECIFIED:
  7
SLDTEXTSTYLE0
  0
MTEXT
  5
E7
330
E3
100
AcDbEntity
  8
0
  6
CONTINUOUS
 62
     0
100
AcDbMText
 10
0.0
 20
-0.022299147
 30
0.0
 40
0.0590551181
 41
0.0
 71
     1
 72
     1
  1
DIMENSIONS ARE IN MILLIMETERS
  7
SLDTEXTSTYLE0
  0
MTEXT
  5
E8
330
E3
100
AcDbEntity
  8
0
  6
CONTINUOUS
 62
     0
100
AcDbMText
 10
0.0
 20
-0.1207243417
 30
0.0
 40
0.0590551181
 41
0.0
 71
     1
 72
     1
  1
SURFACE FINISH:
  7
SLDTEXTSTYLE0
  0
MTEXT
  5
E9
330
E3
100
AcDbEntity
  8
0
  6
CONTINUOUS
 62
     0
100
AcDbMText
 10
0.0
 20
-0.2191495363
 30
0.0
 40
0.0590551181
 41
0.0
 71
     1
 72
     1
  1
TOLERANCES:
  7
SLDTEXTSTYLE0
  0
MTEXT
  5
EA
330
E3
100
AcDbEntity
  8
0
  6
CONTINUOUS
 62
     0
100
AcDbMText
 10
0.0664370079
 20
-0.317574731
 30
0.0
 40
0.0590551181
 41
0.0
 71
     1
 72
     1
  1
LINEAR:
  7
SLDTEXTSTYLE0
  0
MTEXT
  5
EB
330
E3
100
AcDbEntity
  8
0
  6
CONTINUOUS
 62
     0
100
AcDbMText
 10
0.0664370079
 20
-0.4159999256
 30
0.0
 40
0.0590551181
 41
0.0
 71
     1
 72
     1
  1
ANGULAR:
  7
SLDTEXTSTYLE0
  0
ENDBLK
  5
E5
330
E3
100
AcDbEntity
  8
0
100
AcDbBlockEnd
  0
BLOCK
  5
EF
330
EE
100
AcDbEntity
  8
0
100
AcDbBlockBegin
  2
SW_NOTE_0_2
 70
     0
 10
0.0
 20
0.0
 30
0.0
  3
SW_NOTE_0_2
  1

  0
MTEXT
  5
F1
330
EE
100
AcDbEntity
  8
0
  6
CONTINUOUS
 62
     0
100
AcDbMText
 10
0.0
 20
0.0761260476
 30
0.0
 40
0.0590551181
 41
0.0
 71
     1
 72
     1
  1
DEBURR AND
  7
SLDTEXTSTYLE0
  0
MTEXT
  5
F2
330
EE
100
AcDbEntity
  8
0
  6
CONTINUOUS
 62
     0
100
AcDbMText
 10
0.0
 20
-0.022299147
 30
0.0
 40
0.0590551181
 41
0.0
 71
     1
 72
     1
  1
BREAK SHARP
  7
SLDTEXTSTYLE0
  0
MTEXT
  5
F3
330
EE
100
AcDbEntity
  8
0
  6
CONTINUOUS
 62
     0
100
AcDbMText
 10
0.0
 20
-0.1207243417
 30
0.0
 40
0.0590551181
 41
0.0
 71
     1
 72
     1
  1
EDGES
  7
SLDTEXTSTYLE0
  0
ENDBLK
  5
F0
330
EE
100
AcDbEntity
  8
0
100
AcDbBlockEnd
  0
BLOCK
  5
13D
330
13C
100
AcDbEntity
  8
0
100
AcDbBlockBegin
  2
_NONE
 70
     0
 10
0.0
 20
0.0
 30
0.0
  3
_NONE
  1

  0
ENDBLK
  5
13E
330
13C
100
AcDbEntity
  8
0
100
AcDbBlockEnd
  0
BLOCK
  5
140
330
13F
100
AcDbEntity
  8
0
100
AcDbBlockBegin
  2
_D
 70
     0
 10
0.0
 20
0.0
 30
0.0
  3
_D
  1

  0
LINE
  5
142
330
13F
100
AcDbEntity
  8
0
  6
SLD-SOLID
 62
     7
100
AcDbLine
 10
4.7831843759
 20
7.3267783103
 30
0.0
 11
4.7831843759
 21
7.5521407315
 31
0.0
  0
LINE
  5
143
330
13F
100
AcDbEntity
  8
0
  6
SLD-SOLID
 62
     7
100
AcDbLine
 10
4.7831843759
 20
7.3267783103
 30
0.0
 11
4.7831843759
 21
7.523628704
 31
0.0
  0
LINE
  5
144
330
13F
100
AcDbEntity
  8
0
  6
SLD-SOLID
 62
     7
100
AcDbLine
 10
4.7831843759
 20
7.523628704
 30
0.0
 11
4.7831843759
 21
6.9442194717
 31
0.0
  0
MTEXT
  5
145
330
13F
100
AcDbEntity
  8
0
  6
SLD-SOLID
 62
     7
100
AcDbMText
 10
4.7212696476
 20
7.5521407315
 30
0.0
 40
0.125
 41
0.0
 71
     1
 72
     1
  1
.000
  7
SLDTEXTSTYLE0
 11
6.123233995736766E-17
 21
1.0
 31
0.0
  0
ENDBLK
  5
141
330
13F
100
AcDbEntity
  8
0
100
AcDbBlockEnd
  0
BLOCK
  5
149
330
148
100
AcDbEntity
  8
0
100
AcDbBlockBegin
  2
_D_1
 70
     0
 10
0.0
 20
0.0
 30
0.0
  3
_D_1
  1

  0
LINE
  5
14B
330
148
100
AcDbEntity
  8
0
  6
SLD-SOLID
 62
     7
100
AcDbLine
 10
5.4131056357
 20
6.8942194717
 30
0.0
 11
5.4131056357
 21
7.5521407315
 31
0.0
  0
MTEXT
  5
14C
330
148
100
AcDbEntity
  8
0
  6
SLD-SOLID
 62
     7
100
AcDbMText
 10
5.3511909075
 20
7.5521407315
 30
0.0
 40
0.125
 41
0.0
 71
     1
 72
     1
  1
.315
  7
SLDTEXTSTYLE0
 11
6.123233995736766E-17
 21
1.0
 31
0.0
  0
MTEXT
  5
14D
330
148
100
AcDbEntity
  8
0
  6
SLD-SOLID
 62
     7
100
AcDbMText
 10
5.3511909075
 20
7.8754046305
 30
0.0
 40
0.125
 41
0.0
 71
     1
 72
     1
  1
±.005
  7
SLDTEXTSTYLE0
 11
6.123233995736766E-17
 21
1.0
 31
0.0
  0
ENDBLK
  5
14A
330
148
100
AcDbEntity
  8
0
100
AcDbBlockEnd
  0
BLOCK
  5
151
330
150
100
AcDbEntity
  8
0
100
AcDbBlockBegin
  2
_D_2
 70
     0
 10
0.0
 20
0.0
 30
0.0
  3
_D_2
  1

  0
LINE
  5
153
330
150
100
AcDbEntity
  8
0
  6
SLD-SOLID
 62
     7
100
AcDbLine
 10
6.0430268956
 20
6.9512194717
 30
0.0
 11
6.0430268956
 21
7.5521407315
 31
0.0
  0
MTEXT
  5
154
330
150
100
AcDbEntity
  8
0
  6
SLD-SOLID
 62
     7
100
AcDbMText
 10
5.9811121673
 20
7.5521407315
 30
0.0
 40
0.125
 41
0.0
 71
     1
 72
     1
  1
.630
  7
SLDTEXTSTYLE0
 11
6.123233995736766E-17
 21
1.0
 31
0.0
  0
MTEXT
  5
155
330
150
100
AcDbEntity
  8
0
  6
SLD-SOLID
 62
     7
100
AcDbMText
 10
5.9811121673
 20
7.8754046305
 30
0.0
 40
0.125
 41
0.0
 71
     1
 72
     1
  1
±.005
  7
SLDTEXTSTYLE0
 11
6.123233995736766E-17
 21
1.0
 31
0.0
  0
ENDBLK
  5
152
330
150
100
AcDbEntity
  8
0
100
AcDbBlockEnd
  0
BLOCK
  5
158
330
157
100
AcDbEntity
  8
0
100
AcDbBlockBegin
  2
_D_3
 70
     0
 10
0.0
 20
0.0
 30
0.0
  3
_D_3
  1

  0
LINE
  5
15A
330
157
100
AcDbEntity
  8
0
  6
SLD-SOLID
 62
     7
100
AcDbLine
 10
6.2780268956
 20
6.9512194717
 30
0.0
 11
6.2780268956
 21
7.5521407315
 31
0.0
  0
MTEXT
  5
15B
330
157
100
AcDbEntity
  8
0
  6
SLD-SOLID
 62
     7
100
AcDbMText
 10
6.2161121673
 20
7.5521407315
 30
0.0
 40
0.125
 41
0.0
 71
     1
 72
     1
  1
.747
  7
SLDTEXTSTYLE0
 11
6.123233995736766E-17
 21
1.0
 31
0.0
  0
MTEXT
  5
15C
330
157
100
AcDbEntity
  8
0
  6
SLD-SOLID
 62
     7
100
AcDbMText
 10
6.2161121673
 20
7.8754046305
 30
0.0
 40
0.125
 41
0.0
 71
     1
 72
     1
  1
±.005
  7
SLDTEXTSTYLE0
 11
6.123233995736766E-17
 21
1.0
 31
0.0
  0
ENDBLK
  5
159
330
157
100
AcDbEntity
  8
0
100
AcDbBlockEnd
  0
BLOCK
  5
15F
330
15E
100
AcDbEntity
  8
0
100
AcDbBlockBegin
  2
_D_4
 70
     0
 10
0.0
 20
0.0
 30
0.0
  3
_D_4
  1

  0
LINE
  5
161
330
15E
100
AcDbEntity
  8
0
  6
SLD-SOLID
 62
     7
100
AcDbLine
 10
6.5280268956
 20
6.9512194717
 30
0.0
 11
6.5280268956
 21
7.5521407315
 31
0.0
  0
MTEXT
  5
162
330
15E
100
AcDbEntity
  8
0
  6
SLD-SOLID
 62
     7
100
AcDbMText
 10
6.4661121673
 20
7.5521407315
 30
0.0
 40
0.125
 41
0.0
 71
     1
 72
     1
  1
.872
  7
SLDTEXTSTYLE0
 11
6.123233995736766E-17
 21
1.0
 31
0.0
  0
MTEXT
  5
163
330
15E
100
AcDbEntity
  8
0
  6
SLD-SOLID
 62
     7
100
AcDbMText
 10
6.4661121673
 20
7.8754046305
 30
0.0
 40
0.125
 41
0.0
 71
     1
 72
     1
  1
±.005
  7
SLDTEXTSTYLE0
 11
6.123233995736766E-17
 21
1.0
 31
0.0
  0
ENDBLK
  5
160
330
15E
100
AcDbEntity
  8
0
100
AcDbBlockEnd
  0
BLOCK
  5
166
330
165
100
AcDbEntity
  8
0
100
AcDbBlockBegin
  2
_D_5
 70
     0
 10
0.0
 20
0.0
 30
0.0
  3
_D_5
  1

  0
LINE
  5
168
330
165
100
AcDbEntity
  8
0
  6
SLD-SOLID
 62
     7
100
AcDbLine
 10
6.7780268956
 20
6.9512194717
 30
0.0
 11
6.7780268956
 21
7.5521407315
 31
0.0
  0
MTEXT
  5
169
330
165
100
AcDbEntity
  8
0
  6
SLD-SOLID
 62
     7
100
AcDbMText
 10
6.7161121673
 20
7.5521407315
 30
0.0
 40
0.125
 41
0.0
 71
     1
 72
     1
  1
.997
  7
SLDTEXTSTYLE0
 11
6.123233995736766E-17
 21
1.0
 31
0.0
  0
MTEXT
  5
16A
330
165
100
AcDbEntity
  8
0
  6
SLD-SOLID
 62
     7
100
AcDbMText
 10
6.7161121673
 20
7.8754046305
 30
0.0
 40
0.125
 41
0.0
 71
     1
 72
     1
  1
±.005
  7
SLDTEXTSTYLE0
 11
6.123233995736766E-17
 21
1.0
 31
0.0
  0
ENDBLK
  5
167
330
165
100
AcDbEntity
  8
0
100
AcDbBlockEnd
  0
BLOCK
  5
16D
330
16C
100
AcDbEntity
  8
0
100
AcDbBlockBegin
  2
_D_6
 70
     0
 10
0.0
 20
0.0
 30
0.0
  3
_D_6
  1

  0
LINE
  5
16F
330
16C
100
AcDbEntity
  8
0
  6
SLD-SOLID
 62
     7
100
AcDbLine
 10
7.0280268956
 20
6.9512194717
 30
0.0
 11
7.0280268956
 21
7.5521407315
 31
0.0
  0
MTEXT
  5
170
330
16C
100
AcDbEntity
  8
0
  6
SLD-SOLID
 62
     7
100
AcDbMText
 10
6.9661121673
 20
7.5521407315
 30
0.0
 40
0.125
 41
0.0
 71
     1
 72
     1
  1
1.122
  7
SLDTEXTSTYLE0
 11
6.123233995736766E-17
 21
1.0
 31
0.0
  0
MTEXT
  5
171
330
16C
100
AcDbEntity
  8
0
  6
SLD-SOLID
 62
     7
100
AcDbMText
 10
6.9661121673
 20
7.9677657235
 30
0.0
 40
0.125
 41
0.0
 71
     1
 72
     1
  1
±.005
  7
SLDTEXTSTYLE0
 11
6.123233995736766E-17
 21
1.0
 31
0.0
  0
ENDBLK
  5
16E
330
16C
100
AcDbEntity
  8
0
100
AcDbBlockEnd
  0
BLOCK
  5
174
330
173
100
AcDbEntity
  8
0
100
AcDbBlockBegin
  2
_D_7
 70
     0
 10
0.0
 20
0.0
 30
0.0
  3
_D_7
  1

  0
LINE
  5
176
330
173
100
AcDbEntity
  8
0
  6
SLD-SOLID
 62
     7
100
AcDbLine
 10
7.2426050145
 20
7.3552903378
 30
0.0
 11
7.2426050145
 21
7.5521407315
 31
0.0
  0
LINE
  5
177
330
173
100
AcDbEntity
  8
0
  6
SLD-SOLID
 62
     7
100
AcDbLine
 10
7.2426050145
 20
7.3552903378
 30
0.0
 11
7.2780268956
 21
7.1584399441
 31
0.0
  0
LINE
  5
178
330
173
100
AcDbEntity
  8
0
  6
SLD-SOLID
 62
     7
100
AcDbLine
 10
7.2780268956
 20
7.1584399441
 30
0.0
 11
7.2780268956
 21
6.9512194717
 31
0.0
  0
MTEXT
  5
179
330
173
100
AcDbEntity
  8
0
  6
SLD-SOLID
 62
     7
100
AcDbMText
 10
7.1806902863
 20
7.5521407315
 30
0.0
 40
0.125
 41
0.0
 71
     1
 72
     1
  1
1.247
  7
SLDTEXTSTYLE0
 11
6.123233995736766E-17
 21
1.0
 31
0.0
  0
MTEXT
  5
17A
330
173
100
AcDbEntity
  8
0
  6
SLD-SOLID
 62
     7
100
AcDbMText
 10
7.1806902863
 20
7.9677657235
 30
0.0
 40
0.125
 41
0.0
 71
     1
 72
     1
  1
±.005
  7
SLDTEXTSTYLE0
 11
6.123233995736766E-17
 21
1.0
 31
0.0
  0
ENDBLK
  5
175
330
173
100
AcDbEntity
  8
0
100
AcDbBlockEnd
  0
BLOCK
  5
17D
330
17C
100
AcDbEntity
  8
0
100
AcDbBlockBegin
  2
_D_8
 70
     0
 10
0.0
 20
0.0
 30
0.0
  3
_D_8
  1

  0
LINE
  5
17F
330
17C
100
AcDbEntity
  8
0
  6
SLD-SOLID
 62
     7
100
AcDbLine
 10
7.4430268956
 20
6.9512194717
 30
0.0
 11
7.4430268956
 21
7.5521407315
 31
0.0
  0
MTEXT
  5
180
330
17C
100
AcDbEntity
  8
0
  6
SLD-SOLID
 62
     7
100
AcDbMText
 10
7.3811121673
 20
7.5521407315
 30
0.0
 40
0.125
 41
0.0
 71
     1
 72
     1
  1
1.330
  7
SLDTEXTSTYLE0
 11
6.123233995736766E-17
 21
1.0
 31
0.0
  0
MTEXT
  5
181
330
17C
100
AcDbEntity
  8
0
  6
SLD-SOLID
 62
     7
100
AcDbMText
 10
7.3811121673
 20
7.9677657235
 30
0.0
 40
0.125
 41
0.0
 71
     1
 72
     1
  1
±.005
  7
SLDTEXTSTYLE0
 11
6.123233995736766E-17
 21
1.0
 31
0.0
  0
ENDBLK
  5
17E
330
17C
100
AcDbEntity
  8
0
100
AcDbBlockEnd
  0
BLOCK
  5
185
330
184
100
AcDbEntity
  8
0
100
AcDbBlockBegin
  2
_D_9
 70
     0
 10
0.0
 20
0.0
 30
0.0
  3
_D_9
  1

  0
ARC
  5
187
330
184
100
AcDbEntity
  8
0
  6
SLD-SOLID
 62
     7
100
AcDbCircle
 10
5.4131056357
 20
6.5585894717
 30
0.0
 40
0.1250000000000004
100
AcDbArc
 50
201.8014094864
 51
285.0
  0
SOLID
  5
188
330
184
100
AcDbEntity
  8
0
  6
SLD-SOLID
 62
     7
100
AcDbTrace
 10
5.3506056357
 20
6.4503362962
 30
0.0
 11
5.2682851277
 21
6.3477529937
 31
0.0
 12
5.3029261438
 22
6.3277529937
 32
0.0
 13
5.3029261438
 23
6.3277529937
 33
0.0
  0
LINE
  5
189
330
184
100
AcDbEntity
  8
0
  6
SLD-SOLID
 62
     7
100
AcDbLine
 10
5.3506056357
 20
6.4503362962
 30
0.0
 11
4.6346711322
 21
5.2103013612
 31
0.0
  0
LINE
  5
18A
330
184
100
AcDbEntity
  8
0
  6
SLD-SOLID
 62
     7
100
AcDbLine
 10
4.6346711322
 20
5.2103013612
 30
0.0
 11
4.3846711322
 21
5.2103013612
 31
0.0
  0
MTEXT
  5
18B
330
184
100
AcDbEntity
  8
0
  6
SLD-SOLID
 62
     7
100
AcDbMText
 10
1.8718240808
 20
5.2819383179
 30
0.0
 40
0.125
 41
0.0
 71
     1
 72
     1
  1
.1250
  7
SLDTEXTSTYLE0
  0
MTEXT
  5
18C
330
184
100
AcDbEntity
  8
0
  6
SLD-SOLID
 62
     7
100
AcDbMText
 10
2.3343240728
 20
5.2819383179
 30
0.0
 40
0.125
 41
0.0
 71
     1
 72
     1
  1
H7
  7
SLDTEXTSTYLE0
  0
MTEXT
  5
18D
330
184
100
AcDbEntity
  8
0
  6
SLD-SOLID
 62
     7
100
AcDbMText
 10
2.5860602032
 20
5.3714348355
 30
0.0
 40
0.125
 41
0.0
 71
     1
 72
     1
  1
+
  7
SLDTEXTSTYLE0
  0
MTEXT
  5
18E
330
184
100
AcDbEntity
  8
0
  6
SLD-SOLID
 62
     7
100
AcDbMText
 10
2.608890066
 20
5.209802886
 30
0.0
 40
0.125
 41
0.0
 71
     1
 72
     1
  1
-
  7
SLDTEXTSTYLE0
  0
MTEXT
  5
18F
330
184
100
AcDbEntity
  8
0
  6
SLD-SOLID
 62
     7
100
AcDbMText
 10
2.6871018827
 20
5.3714348355
 30
0.0
 40
0.125
 41
0.0
 71
     1
 72
     1
  1
.0005
  7
SLDTEXTSTYLE0
  0
MTEXT
  5
190
330
184
100
AcDbEntity
  8
0
  6
SLD-SOLID
 62
     7
100
AcDbMText
 10
2.6871018827
 20
5.209802886
 30
0.0
 40
0.125
 41
0.0
 71
     1
 72
     1
  1
.0000
  7
SLDTEXTSTYLE0
  0
MTEXT
  5
192
330
184
100
AcDbEntity
  8
0
  6
SLD-SOLID
 62
     7
100
AcDbMText
 10
3.1496018747
 20
5.2819383179
 30
0.0
 40
0.125
 41
0.0
 71
     1
 72
     1
  1
X .164 THRU ALL
  7
SLDTEXTSTYLE3
  0
ENDBLK
  5
186
330
184
100
AcDbEntity
  8
0
100
AcDbBlockEnd
  0
BLOCK
  5
196
330
195
100
AcDbEntity
  8
0
100
AcDbBlockBegin
  2
_D_10
 70
     0
 10
0.0
 20
0.0
 30
0.0
  3
_D_10
  1

  0
SOLID
  5
198
330
195
100
AcDbEntity
  8
0
  6
SLD-SOLID
 62
     7
100
AcDbTrace
 10
4.3894835885
 20
6.1442194717
 30
0.0
 11
4.4094835885
 21
6.2742194717
 31
0.0
 12
4.3694835885
 22
6.2742194717
 32
0.0
 13
4.3694835885
 23
6.2742194717
 33
0.0
  0
SOLID
  5
199
330
195
100
AcDbEntity
  8
0
  6
SLD-SOLID
 62
     7
100
AcDbTrace
 10
4.3894835885
 20
6.8942194717
 30
0.0
 11
4.3694835885
 21
6.7642194717
 31
0.0
 12
4.4094835885
 22
6.7642194717
 32
0.0
 13
4.4094835885
 23
6.7642194717
 33
0.0
  0
LINE
  5
19A
330
195
100
AcDbEntity
  8
0
  6
SLD-SOLID
 62
     7
100
AcDbLine
 10
4.7331843759
 20
6.1442194717
 30
0.0
 11
4.2644835885
 21
6.1442194717
 31
0.0
  0
LINE
  5
19B
330
195
100
AcDbEntity
  8
0
  6
SLD-SOLID
 62
     7
100
AcDbLine
 10
4.7331843759
 20
6.8942194717
 30
0.0
 11
4.2644835885
 21
6.8942194717
 31
0.0
  0
LINE
  5
19C
330
195
100
AcDbEntity
  8
0
  6
SLD-SOLID
 62
     7
100
AcDbLine
 10
4.1394835885
 20
5.7225186842
 30
0.0
 11
4.3894835885
 21
5.7225186842
 31
0.0
  0
LINE
  5
19D
330
195
100
AcDbEntity
  8
0
  6
SLD-SOLID
 62
     7
100
AcDbLine
 10
4.3894835885
 20
5.7225186842
 30
0.0
 11
4.3894835885
 21
6.1442194717
 31
0.0
  0
LINE
  5
19E
330
195
100
AcDbEntity
  8
0
  6
SLD-SOLID
 62
     7
100
AcDbLine
 10
4.3894835885
 20
6.1442194717
 30
0.0
 11
4.3894835885
 21
6.8942194717
 31
0.0
  0
MTEXT
  5
19F
330
195
100
AcDbEntity
  8
0
  6
SLD-SOLID
 62
     7
100
AcDbMText
 10
2.7674610782
 20
5.7922459187
 30
0.0
 40
0.125
 41
0.0
 71
     1
 72
     1
  1
%%c
  7
SLDTEXTSTYLE0
  0
MTEXT
  5
1A0
330
195
100
AcDbEntity
  8
0
  6
SLD-SOLID
 62
     7
100
AcDbMText
 10
2.9559766988
 20
5.794155641
 30
0.0
 40
0.125
 41
0.0
 71
     1
 72
     1
  1
.3750
  7
SLDTEXTSTYLE0
  0
MTEXT
  5
1A1
330
195
100
AcDbEntity
  8
0
  6
SLD-SOLID
 62
     7
100
AcDbMText
 10
3.4184767091
 20
5.794155641
 30
0.0
 40
0.125
 41
0.0
 71
     1
 72
     1
  1
g6
  7
SLDTEXTSTYLE0
  0
MTEXT
  5
1A2
330
195
100
AcDbEntity
  8
0
  6
SLD-SOLID
 62
     7
100
AcDbMText
 10
3.6684767296
 20
5.8836521586
 30
0.0
 40
0.125
 41
0.0
 71
     1
 72
     1
  1
-
  7
SLDTEXTSTYLE0
  0
MTEXT
  5
1A3
330
195
100
AcDbEntity
  8
0
  6
SLD-SOLID
 62
     7
100
AcDbMText
 10
3.6684767296
 20
5.7220202091
 30
0.0
 40
0.125
 41
0.0
 71
     1
 72
     1
  1
-
  7
SLDTEXTSTYLE0
  0
MTEXT
  5
1A4
330
195
100
AcDbEntity
  8
0
  6
SLD-SOLID
 62
     7
100
AcDbMText
 10
3.7238586698
 20
5.8836521586
 30
0.0
 40
0.125
 41
0.0
 71
     1
 72
     1
  1
.0002
  7
SLDTEXTSTYLE0
  0
MTEXT
  5
1A5
330
195
100
AcDbEntity
  8
0
  6
SLD-SOLID
 62
     7
100
AcDbMText
 10
3.7238586698
 20
5.7220202091
 30
0.0
 40
0.125
 41
0.0
 71
     1
 72
     1
  1
.0006
  7
SLDTEXTSTYLE0
  0
ENDBLK
  5
197
330
195
100
AcDbEntity
  8
0
100
AcDbBlockEnd
  0
BLOCK
  5
1A9
330
1A8
100
AcDbEntity
  8
0
100
AcDbBlockBegin
  2
_D_11
 70
     0
 10
0.0
 20
0.0
 30
0.0
  3
_D_11
  1

  0
SOLID
  5
1AB
330
1A8
100
AcDbEntity
  8
0
  6
SLD-SOLID
 62
     7
100
AcDbTrace
 10
9.0178300452
 20
6.1772194717
 30
0.0
 11
9.0378300452
 21
6.3072194717
 31
0.0
 12
8.9978300452
 22
6.3072194717
 32
0.0
 13
8.9978300452
 23
6.3072194717
 33
0.0
  0
SOLID
  5
1AC
330
1A8
100
AcDbEntity
  8
0
  6
SLD-SOLID
 62
     7
100
AcDbTrace
 10
9.0178300452
 20
6.8612194717
 30
0.0
 11
8.9978300452
 21
6.7312194717
 31
0.0
 12
9.0378300452
 22
6.7312194717
 32
0.0
 13
9.0378300452
 23
6.7312194717
 33
0.0
  0
LINE
  5
1AD
330
1A8
100
AcDbEntity
  8
0
  6
SLD-SOLID
 62
     7
100
AcDbLine
 10
7.4530268956
 20
6.1772194717
 30
0.0
 11
9.1428300452
 21
6.1772194717
 31
0.0
  0
LINE
  5
1AE
330
1A8
100
AcDbEntity
  8
0
  6
SLD-SOLID
 62
     7
100
AcDbLine
 10
7.3280268956
 20
6.8612194717
 30
0.0
 11
9.1428300452
 21
6.8612194717
 31
0.0
  0
LINE
  5
1AF
330
1A8
100
AcDbEntity
  8
0
  6
SLD-SOLID
 62
     7
100
AcDbLine
 10
9.2678300452
 20
5.4862982118
 30
0.0
 11
9.0178300452
 21
5.4862982118
 31
0.0
  0
LINE
  5
1B0
330
1A8
100
AcDbEntity
  8
0
  6
SLD-SOLID
 62
     7
100
AcDbLine
 10
9.0178300452
 20
5.4862982118
 30
0.0
 11
9.0178300452
 21
6.1772194717
 31
0.0
  0
LINE
  5
1B1
330
1A8
100
AcDbEntity
  8
0
  6
SLD-SOLID
 62
     7
100
AcDbLine
 10
9.0178300452
 20
6.1772194717
 30
0.0
 11
9.0178300452
 21
6.8612194717
 31
0.0
  0
MTEXT
  5
1B2
330
1A8
100
AcDbEntity
  8
0
  6
SLD-SOLID
 62
     7
100
AcDbMText
 10
9.2678300452
 20
5.5469306688
 30
0.0
 40
0.125
 41
0.0
 71
     1
 72
     1
  1
%%c
  7
SLDTEXTSTYLE0
  0
MTEXT
  5
1B3
330
1A8
100
AcDbEntity
  8
0
  6
SLD-SOLID
 62
     7
100
AcDbMText
 10
9.4563456658
 20
5.5488403911
 30
0.0
 40
0.125
 41
0.0
 71
     1
 72
     1
  1
.342
  7
SLDTEXTSTYLE0
  0
MTEXT
  5
1B4
330
1A8
100
AcDbEntity
  8
0
  6
SLD-SOLID
 62
     7
100
AcDbMText
 10
9.7796095464
 20
5.5488403911
 30
0.0
 40
0.125
 41
0.0
 71
     1
 72
     1
  1
±.002
  7
SLDTEXTSTYLE0
  0
ENDBLK
  5
1AA
330
1A8
100
AcDbEntity
  8
0
100
AcDbBlockEnd
  0
BLOCK
  5
1B8
330
1B7
100
AcDbEntity
  8
0
100
AcDbBlockBegin
  2
_D_12
 70
     0
 10
0.0
 20
0.0
 30
0.0
  3
_D_12
  1

  0
SOLID
  5
1BA
330
1B7
100
AcDbEntity
  8
0
  6
SLD-SOLID
 62
     7
100
AcDbTrace
 10
9.1053900342
 20
6.1372194717
 30
0.0
 11
9.1253900342
 21
6.2672194717
 31
0.0
 12
9.0853900342
 22
6.2672194717
 32
0.0
 13
9.0853900342
 23
6.2672194717
 33
0.0
  0
SOLID
  5
1BB
330
1B7
100
AcDbEntity
  8
0
  6
SLD-SOLID
 62
     7
100
AcDbTrace
 10
9.1053900342
 20
6.9012194717
 30
0.0
 11
9.0853900342
 21
6.7712194717
 31
0.0
 12
9.1253900342
 22
6.7712194717
 32
0.0
 13
9.1253900342
 23
6.7712194717
 33
0.0
  0
LINE
  5
1BC
330
1B7
100
AcDbEntity
  8
0
  6
SLD-SOLID
 62
     7
100
AcDbLine
 10
7.4930268956
 20
6.1372194717
 30
0.0
 11
9.2303900342
 21
6.1372194717
 31
0.0
  0
LINE
  5
1BD
330
1B7
100
AcDbEntity
  8
0
  6
SLD-SOLID
 62
     7
100
AcDbLine
 10
7.4930268956
 20
6.9012194717
 30
0.0
 11
9.2303900342
 21
6.9012194717
 31
0.0
  0
LINE
  5
1BE
330
1B7
100
AcDbEntity
  8
0
  6
SLD-SOLID
 62
     7
100
AcDbLine
 10
9.3553900342
 20
7.321311914
 30
0.0
 11
9.1053900342
 21
7.321311914
 31
0.0
  0
LINE
  5
1BF
330
1B7
100
AcDbEntity
  8
0
  6
SLD-SOLID
 62
     7
100
AcDbLine
 10
9.1053900342
 20
7.321311914
 30
0.0
 11
9.1053900342
 21
6.9012194717
 31
0.0
  0
LINE
  5
1C0
330
1B7
100
AcDbEntity
  8
0
  6
SLD-SOLID
 62
     7
100
AcDbLine
 10
9.1053900342
 20
6.1372194717
 30
0.0
 11
9.1053900342
 21
6.9012194717
 31
0.0
  0
MTEXT
  5
1C1
330
1B7
100
AcDbEntity
  8
0
  6
SLD-SOLID
 62
     7
100
AcDbMText
 10
9.3553900342
 20
7.3819443711
 30
0.0
 40
0.125
 41
0.0
 71
     1
 72
     1
  1
%%c
  7
SLDTEXTSTYLE0
  0
MTEXT
  5
1C2
330
1B7
100
AcDbEntity
  8
0
  6
SLD-SOLID
 62
     7
100
AcDbMText
 10
9.5439056548
 20
7.3838540934
 30
0.0
 40
0.125
 41
0.0
 71
     1
 72
     1
  1
.382
  7
SLDTEXTSTYLE0
  0
MTEXT
  5
1C3
330
1B7
100
AcDbEntity
  8
0
  6
SLD-SOLID
 62
     7
100
AcDbMText
 10
9.8671695354
 20
7.3838540934
 30
0.0
 40
0.125
 41
0.0
 71
     1
 72
     1
  1
±.001
  7
SLDTEXTSTYLE0
  0
ENDBLK
  5
1B9
330
1B7
100
AcDbEntity
  8
0
100
AcDbBlockEnd
  0
BLOCK
  5
1C7
330
1C6
100
AcDbEntity
  8
0
100
AcDbBlockBegin
  2
_D_13
 70
     0
 10
0.0
 20
0.0
 30
0.0
  3
_D_13
  1

  0
SOLID
  5
1C9
330
1C6
100
AcDbEntity
  8
0
  6
SLD-SOLID
 62
     7
100
AcDbTrace
 10
7.2780268956
 20
5.6535186842
 30
0.0
 11
7.1480268956
 21
5.6735186842
 31
0.0
 12
7.1480268956
 22
5.6335186842
 32
0.0
 13
7.1480268956
 23
5.6335186842
 33
0.0
  0
SOLID
  5
1CA
330
1C6
100
AcDbEntity
  8
0
  6
SLD-SOLID
 62
     7
100
AcDbTrace
 10
7.4030268956
 20
5.6535186842
 30
0.0
 11
7.5330268956
 21
5.6335186842
 31
0.0
 12
7.5330268956
 22
5.6735186842
 32
0.0
 13
7.5330268956
 23
5.6735186842
 33
0.0
  0
LINE
  5
1CB
330
1C6
100
AcDbEntity
  8
0
  6
SLD-SOLID
 62
     7
100
AcDbLine
 10
7.2780268956
 20
6.1272194717
 30
0.0
 11
7.2780268956
 21
5.5285186842
 31
0.0
  0
LINE
  5
1CC
330
1C6
100
AcDbEntity
  8
0
  6
SLD-SOLID
 62
     7
100
AcDbLine
 10
7.4030268956
 20
6.1272194717
 30
0.0
 11
7.4030268956
 21
5.5285186842
 31
0.0
  0
LINE
  5
1CD
330
1C6
100
AcDbEntity
  8
0
  6
SLD-SOLID
 62
     7
100
AcDbLine
 10
7.2780268956
 20
5.6535186842
 30
0.0
 11
7.0280268956
 21
5.6535186842
 31
0.0
  0
LINE
  5
1CE
330
1C6
100
AcDbEntity
  8
0
  6
SLD-SOLID
 62
     7
100
AcDbLine
 10
7.4030268956
 20
5.6535186842
 30
0.0
 11
7.8201061742
 21
5.6535186842
 31
0.0
  0
MTEXT
  5
1CF
330
1C6
100
AcDbEntity
  8
0
  6
SLD-SOLID
 62
     7
100
AcDbMText
 10
7.8201061742
 20
5.7154334125
 30
0.0
 40
0.125
 41
0.0
 71
     1
 72
     1
  1
5X
  7
SLDTEXTSTYLE0
  0
MTEXT
  5
1D0
330
1C6
100
AcDbEntity
  8
0
  6
SLD-SOLID
 62
     7
100
AcDbMText
 10
8.0602103372
 20
5.7154334125
 30
0.0
 40
0.125
 41
0.0
 71
     1
 72
     1
  1
.063
  7
SLDTEXTSTYLE0
  0
MTEXT
  5
1D1
330
1C6
100
AcDbEntity
  8
0
  6
SLD-SOLID
 62
     7
100
AcDbMText
 10
8.3834742361
 20
5.7154334125
 30
0.0
 40
0.125
 41
0.0
 71
     1
 72
     1
  1
±.005
  7
SLDTEXTSTYLE0
  0
ENDBLK
  5
1C8
330
1C6
100
AcDbEntity
  8
0
100
AcDbBlockEnd
  0
BLOCK
  5
1D5
330
1D4
100
AcDbEntity
  8
0
100
AcDbBlockBegin
  2
_D_14
 70
     0
 10
0.0
 20
0.0
 30
0.0
  3
_D_14
  1

  0
SOLID
  5
1D7
330
1D4
100
AcDbEntity
  8
0
  6
SLD-SOLID
 62
     7
100
AcDbTrace
 10
6.0430268956
 20
5.7924914263
 30
0.0
 11
5.9130268956
 21
5.8124914263
 31
0.0
 12
5.9130268956
 22
5.7724914263
 32
0.0
 13
5.9130268956
 23
5.7724914263
 33
0.0
  0
SOLID
  5
1D8
330
1D4
100
AcDbEntity
  8
0
  6
SLD-SOLID
 62
     7
100
AcDbTrace
 10
6.1430268956
 20
5.7924914263
 30
0.0
 11
6.2730268956
 21
5.7724914263
 31
0.0
 12
6.2730268956
 22
5.8124914263
 32
0.0
 13
6.2730268956
 23
5.8124914263
 33
0.0
  0
LINE
  5
1D9
330
1D4
100
AcDbEntity
  8
0
  6
SLD-SOLID
 62
     7
100
AcDbLine
 10
6.0430268956
 20
5.9972194717
 30
0.0
 11
6.0430268956
 21
5.6674914263
 31
0.0
  0
LINE
  5
1DA
330
1D4
100
AcDbEntity
  8
0
  6
SLD-SOLID
 62
     7
100
AcDbLine
 10
6.1430268956
 20
5.9972194717
 30
0.0
 11
6.1430268956
 21
5.6674914263
 31
0.0
  0
LINE
  5
1DB
330
1D4
100
AcDbEntity
  8
0
  6
SLD-SOLID
 62
     7
100
AcDbLine
 10
6.0430268956
 20
5.7924914263
 30
0.0
 11
5.9018803508
 21
5.7924914263
 31
0.0
  0
LINE
  5
1DC
330
1D4
100
AcDbEntity
  8
0
  6
SLD-SOLID
 62
     7
100
AcDbLine
 10
6.1430268956
 20
5.7924914263
 30
0.0
 11
6.3930268956
 21
5.7924914263
 31
0.0
  0
MTEXT
  5
1DD
330
1D4
100
AcDbEntity
  8
0
  6
SLD-SOLID
 62
     7
100
AcDbMText
 10
5.1638595699
 20
5.8544061545
 30
0.0
 40
0.125
 41
0.0
 71
     1
 72
     1
  1
.050
  7
SLDTEXTSTYLE0
  0
MTEXT
  5
1DE
330
1D4
100
AcDbEntity
  8
0
  6
SLD-SOLID
 62
     7
100
AcDbMText
 10
5.4871234688
 20
5.8544061545
 30
0.0
 40
0.125
 41
0.0
 71
     1
 72
     1
  1
±.005
  7
SLDTEXTSTYLE0
  0
ENDBLK
  5
1D6
330
1D4
100
AcDbEntity
  8
0
100
AcDbBlockEnd
  0
BLOCK
  5
1E0
330
1DF
100
AcDbEntity
  8
0
100
AcDbBlockBegin
  2
SW_CENTERMARKSYMBOL_0
 70
     0
 10
0.0
 20
0.0
 30
0.0
  3
SW_CENTERMARKSYMBOL_0
  1

  0
LINE
  5
1E2
330
1DF
100
AcDbEntity
  8
0
  6
SLD-SOLID
 62
     0
100
AcDbLine
 10
0.0
 20
0.0
 30
0.0
 11
0.0
 21
0.2
 31
0.0
  0
LINE
  5
1E3
330
1DF
100
AcDbEntity
  8
0
  6
SLD-SOLID
 62
     0
100
AcDbLine
 10
0.0
 20
0.0
 30
0.0
 11
-0.2
 21
0.0
 31
0.0
  0
LINE
  5
1E4
330
1DF
100
AcDbEntity
  8
0
  6
SLD-SOLID
 62
     0
100
AcDbLine
 10
0.0
 20
0.0
 30
0.0
 11
0.0
 21
-0.2
 31
0.0
  0
LINE
  5
1E5
330
1DF
100
AcDbEntity
  8
0
  6
SLD-SOLID
 62
     0
100
AcDbLine
 10
0.0
 20
0.0
 30
0.0
 11
0.2
 21
0.0
 31
0.0
  0
LINE
  5
1E6
330
1DF
100
AcDbEntity
  8
0
  6
SLD-SOLID
 62
     0
100
AcDbLine
 10
0.0
 20
0.2
 30
0.0
 11
0.0
 21
0.325
 31
0.0
  0
LINE
  5
1E7
330
1DF
100
AcDbEntity
  8
0
  6
SLD-SOLID
 62
     0
100
AcDbLine
 10
-0.2
 20
0.0
 30
0.0
 11
-0.325
 21
0.0
 31
0.0
  0
LINE
  5
1E8
330
1DF
100
AcDbEntity
  8
0
  6
SLD-SOLID
 62
     0
100
AcDbLine
 10
0.0
 20
-0.2
 30
0.0
 11
0.0
 21
-0.325
 31
0.0
  0
LINE
  5
1E9
330
1DF
100
AcDbEntity
  8
0
  6
SLD-SOLID
 62
     0
100
AcDbLine
 10
0.2
 20
0.0
 30
0.0
 11
0.325
 21
0.0
 31
0.0
  0
ENDBLK
  5
1E1
330
1DF
100
AcDbEntity
  8
0
100
AcDbBlockEnd
  0
BLOCK
  5
1EC
330
1EB
100
AcDbEntity
  8
0
100
AcDbBlockBegin
  2
SW_CENTERMARKSYMBOL_1
 70
     0
 10
0.0
 20
0.0
 30
0.0
  3
SW_CENTERMARKSYMBOL_1
  1

  0
LINE
  5
1EE
330
1EB
100
AcDbEntity
  8
0
  6
SLD-SOLID
 62
     0
100
AcDbLine
 10
0.0
 20
0.0
 30
0.0
 11
0.0
 21
0.2
 31
0.0
  0
LINE
  5
1EF
330
1EB
100
AcDbEntity
  8
0
  6
SLD-SOLID
 62
     0
100
AcDbLine
 10
0.0
 20
0.0
 30
0.0
 11
-0.2
 21
0.0
 31
0.0
  0
LINE
  5
1F0
330
1EB
100
AcDbEntity
  8
0
  6
SLD-SOLID
 62
     0
100
AcDbLine
 10
0.0
 20
0.0
 30
0.0
 11
0.0
 21
-0.2
 31
0.0
  0
LINE
  5
1F1
330
1EB
100
AcDbEntity
  8
0
  6
SLD-SOLID
 62
     0
100
AcDbLine
 10
0.0
 20
0.0
 30
0.0
 11
0.2
 21
0.0
 31
0.0
  0
LINE
  5
1F2
330
1EB
100
AcDbEntity
  8
0
  6
SLD-SOLID
 62
     0
100
AcDbLine
 10
0.0
 20
0.2
 30
0.0
 11
0.0
 21
0.325
 31
0.0
  0
LINE
  5
1F3
330
1EB
100
AcDbEntity
  8
0
  6
SLD-SOLID
 62
     0
100
AcDbLine
 10
-0.2
 20
0.0
 30
0.0
 11
-0.325
 21
0.0
 31
0.0
  0
LINE
  5
1F4
330
1EB
100
AcDbEntity
  8
0
  6
SLD-SOLID
 62
     0
100
AcDbLine
 10
0.0
 20
-0.2
 30
0.0
 11
0.0
 21
-0.325
 31
0.0
  0
LINE
  5
1F5
330
1EB
100
AcDbEntity
  8
0
  6
SLD-SOLID
 62
     0
100
AcDbLine
 10
0.2
 20
0.0
 30
0.0
 11
0.325
 21
0.0
 31
0.0
  0
ENDBLK
  5
1ED
330
1EB
100
AcDbEntity
  8
0
100
AcDbBlockEnd
  0
BLOCK
  5
1FB
330
1FA
100
AcDbEntity
  8
0
100
AcDbBlockBegin
  2
SW_CENTERMARKSYMBOL_2
 70
     0
 10
0.0
 20
0.0
 30
0.0
  3
SW_CENTERMARKSYMBOL_2
  1

  0
LINE
  5
1FD
330
1FA
100
AcDbEntity
  8
0
  6
SLD-SOLID
 62
     0
100
AcDbLine
 10
0.0
 20
0.0
 30
0.0
 11
0.0
 21
0.2
 31
0.0
  0
LINE
  5
1FE
330
1FA
100
AcDbEntity
  8
0
  6
SLD-SOLID
 62
     0
100
AcDbLine
 10
0.0
 20
0.0
 30
0.0
 11
-0.2
 21
0.0
 31
0.0
  0
LINE
  5
1FF
330
1FA
100
AcDbEntity
  8
0
  6
SLD-SOLID
 62
     0
100
AcDbLine
 10
0.0
 20
0.0
 30
0.0
 11
0.0
 21
-0.2
 31
0.0
  0
LINE
  5
200
330
1FA
100
AcDbEntity
  8
0
  6
SLD-SOLID
 62
     0
100
AcDbLine
 10
0.0
 20
0.0
 30
0.0
 11
0.2
 21
0.0
 31
0.0
  0
LINE
  5
201
330
1FA
100
AcDbEntity
  8
0
  6
SLD-SOLID
 62
     0
100
AcDbLine
 10
0.0
 20
0.4
 30
0.0
 11
0.0
 21
0.582
 31
0.0
  0
LINE
  5
202
330
1FA
100
AcDbEntity
  8
0
  6
SLD-SOLID
 62
     0
100
AcDbLine
 10
-0.4
 20
0.0
 30
0.0
 11
-0.582
 21
0.0
 31
0.0
  0
LINE
  5
203
330
1FA
100
AcDbEntity
  8
0
  6
SLD-SOLID
 62
     0
100
AcDbLine
 10
0.0
 20
-0.4
 30
0.0
 11
0.0
 21
-0.582
 31
0.0
  0
LINE
  5
204
330
1FA
100
AcDbEntity
  8
0
  6
SLD-SOLID
 62
     0
100
AcDbLine
 10
0.4
 20
0.0
 30
0.0
 11
0.582
 21
0.0
 31
0.0
  0
ENDBLK
  5
1FC
330
1FA
100
AcDbEntity
  8
0
100
AcDbBlockEnd
  0
ENDSEC
  0
SECTION
  2
ENTITIES
  0
LINE
  5
76
330
1F
100
AcDbEntity
  8
0
  6
SLD-SOLID
 62
     7
100
AcDbLine
 10
9.0551181102
 20
0.561023622
 30
0.0
 11
16.1417322835
 21
0.561023622
 31
0.0
  0
LINE
  5
77
330
1F
100
AcDbEntity
  8
0
  6
SLD-SOLID
 62
     7
100
AcDbLine
 10
16.1417322835
 20
1.8996062992
 30
0.0
 11
9.0551181102
 21
1.8996062992
 31
0.0
  0
LINE
  5
78
330
1F
100
AcDbEntity
  8
0
  6
SLD-SOLID
 62
     7
100
AcDbLine
 10
9.0551181102
 20
2.5688976378
 30
0.0
 11
16.1417322835
 21
2.5688976378
 31
0.0
  0
LINE
  5
79
330
1F
100
AcDbEntity
  8
0
  6
SLD-SOLID
 62
     7
100
AcDbLine
 10
10.1177540328
 20
1.8996062992
 30
0.0
 11
10.1177540328
 21
0.3937007874
 31
0.0
  0
LINE
  5
7A
330
1F
100
AcDbEntity
  8
0
  6
SLD-SOLID
 62
     7
100
AcDbLine
 10
12.9448818898
 20
1.2303149606
 30
0.0
 11
9.0551181102
 21
1.2303149606
 31
0.0
  0
LINE
  5
7B
330
1F
100
AcDbEntity
  8
0
  6
SLD-SOLID
 62
     7
100
AcDbLine
 10
12.9448818898
 20
1.3976377953
 30
0.0
 11
9.0551181102
 21
1.3976377953
 31
0.0
  0
LINE
  5
7C
330
1F
100
AcDbEntity
  8
0
  6
SLD-SOLID
 62
     7
100
AcDbLine
 10
12.9448818898
 20
1.5649606299
 30
0.0
 11
9.0551181102
 21
1.5649606299
 31
0.0
  0
LINE
  5
7D
330
1F
100
AcDbEntity
  8
0
  6
SLD-SOLID
 62
     7
100
AcDbLine
 10
12.9448818898
 20
1.7322834646
 30
0.0
 11
9.0551181102
 21
1.7322834646
 31
0.0
  0
LINE
  5
7E
330
1F
100
AcDbEntity
  8
0
  6
SLD-SOLID
 62
     7
100
AcDbLine
 10
11.2047244094
 20
0.3937007874
 30
0.0
 11
11.2047244094
 21
1.8996062992
 31
0.0
  0
LINE
  5
7F
330
1F
100
AcDbEntity
  8
0
  6
SLD-SOLID
 62
     7
100
AcDbLine
 10
9.0551181102
 20
2.5688976378
 30
0.0
 11
9.0551181102
 21
0.3937007874
 31
0.0
  0
LINE
  5
80
330
1F
100
AcDbEntity
  8
0
  6
SLD-SOLID
 62
     7
100
AcDbLine
 10
9.3622047244
 20
1.8996062992
 30
0.0
 11
9.3622047244
 21
0.3937007874
 31
0.0
  0
LINE
  5
81
330
1F
100
AcDbEntity
  8
0
  6
SLD-SOLID
 62
     7
100
AcDbLine
 10
10.3858267717
 20
1.8996062992
 30
0.0
 11
10.3858267717
 21
2.5688976378
 31
0.0
  0
LINE
  5
82
330
1F
100
AcDbEntity
  8
0
  6
SLD-SOLID
 62
     7
100
AcDbLine
 10
10.8031073293
 20
1.8996062992
 30
0.0
 11
10.8031073293
 21
0.3937007874
 31
0.0
  0
LINE
  5
83
330
1F
100
AcDbEntity
  8
0
  6
SLD-SOLID
 62
     7
100
AcDbLine
 10
11.6141732283
 20
1.2303149606
 30
0.0
 11
11.6141732283
 21
1.8996062992
 31
0.0
  0
LINE
  5
84
330
1F
100
AcDbEntity
  8
0
  6
SLD-SOLID
 62
     7
100
AcDbLine
 10
11.2047244094
 20
0.7283464567
 30
0.0
 11
9.0551181102
 21
0.7283464567
 31
0.0
  0
LINE
  5
85
330
1F
100
AcDbEntity
  8
0
  6
SLD-SOLID
 62
     7
100
AcDbLine
 10
12.2283464567
 20
2.5688976378
 30
0.0
 11
12.2283464567
 21
1.062992126
 31
0.0
  0
LINE
  5
86
330
1F
100
AcDbEntity
  8
0
  6
SLD-SOLID
 62
     7
100
AcDbLine
 10
11.2047244094
 20
0.8956664567
 30
0.0
 11
9.0551181102
 21
0.8956664567
 31
0.0
  0
LINE
  5
87
330
1F
100
AcDbEntity
  8
0
  6
SLD-SOLID
 62
     7
100
AcDbLine
 10
11.2047244094
 20
1.062992126
 30
0.0
 11
9.0551181102
 21
1.062992126
 31
0.0
  0
LINE
  5
88
330
1F
100
AcDbEntity
  8
0
  6
SLD-SOLID
 62
     7
100
AcDbLine
 10
11.2047244094
 20
1.062992126
 30
0.0
 11
16.1417322835
 21
1.062992126
 31
0.0
  0
LINE
  5
89
330
1F
100
AcDbEntity
  8
0
  6
SLD-SOLID
 62
     7
100
AcDbLine
 10
12.9448818898
 20
2.5688976378
 30
0.0
 11
12.9448818898
 21
0.3937007874
 31
0.0
  0
LINE
  5
8A
330
1F
100
AcDbEntity
  8
0
  6
SLD-SOLID
 62
     7
100
AcDbLine
 10
14.6850393701
 20
0.3937007874
 30
0.0
 11
14.6850393701
 21
0.561023622
 31
0.0
  0
LINE
  5
8B
330
1F
100
AcDbEntity
  8
0
  6
SLD-SOLID
 62
     7
100
AcDbLine
 10
14.9921259843
 20
2.3179133858
 30
0.0
 11
14.9921259843
 21
2.5688976378
 31
0.0
  0
LINE
  5
8C
330
1F
100
AcDbEntity
  8
0
  6
SLD-SOLID
 62
     7
100
AcDbLine
 10
15.6299212598
 20
0.561023622
 30
0.0
 11
15.6299212598
 21
1.062992126
 31
0.0
  0
LINE
  5
8D
330
1F
100
AcDbEntity
  8
0
  6
SLD-SOLID
 62
     7
100
AcDbLine
 10
16.1417322835
 20
2.3179133858
 30
0.0
 11
12.9448818898
 21
2.3179133858
 31
0.0
  0
LINE
  5
8E
330
1F
100
AcDbEntity
  8
0
  6
SLD-SOLID
 62
     7
100
AcDbLine
 10
16.1417322835
 20
0.7283464567
 30
0.0
 11
15.6299212598
 21
0.7283464567
 31
0.0
  0
LINE
  5
8F
330
1F
100
AcDbEntity
  8
0
  6
SLD-SOLID
 62
     7
100
AcDbLine
 10
0.7874015748
 20
0.3937007874
 30
0.0
 11
0.7874015748
 21
11.2992125984
 31
0.0
  0
LINE
  5
90
330
1F
100
AcDbEntity
  8
0
  6
SLD-SOLID
 62
     7
100
AcDbLine
 10
0.7874015748
 20
11.2992125984
 30
0.0
 11
16.1417322835
 21
11.2992125984
 31
0.0
  0
LINE
  5
91
330
1F
100
AcDbEntity
  8
0
  6
SLD-SOLID
 62
     7
100
AcDbLine
 10
16.1417322835
 20
11.2992125984
 30
0.0
 11
16.1417322835
 21
0.3937007874
 31
0.0
  0
LINE
  5
92
330
1F
100
AcDbEntity
  8
0
  6
SLD-SOLID
 62
     7
100
AcDbLine
 10
16.1417322835
 20
0.3937007874
 30
0.0
 11
0.7874015748
 21
0.3937007874
 31
0.0
  0
LINE
  5
93
330
1F
100
AcDbEntity
  8
0
  6
SLD-SOLID
 62
     7
100
AcDbLine
 10
0.5905511811
 20
0.1968503937
 30
0.0
 11
0.5905511811
 21
11.4960629921
 31
0.0
  0
LINE
  5
94
330
1F
100
AcDbEntity
  8
0
  6
SLD-SOLID
 62
     7
100
AcDbLine
 10
0.5905511811
 20
11.4960629921
 30
0.0
 11
16.3385826772
 21
11.4960629921
 31
0.0
  0
LINE
  5
95
330
1F
100
AcDbEntity
  8
0
  6
SLD-SOLID
 62
     7
100
AcDbLine
 10
16.3385826772
 20
11.4960629921
 30
0.0
 11
16.3385826772
 21
0.1968503937
 31
0.0
  0
LINE
  5
96
330
1F
100
AcDbEntity
  8
0
  6
SLD-SOLID
 62
     7
100
AcDbLine
 10
16.3385826772
 20
0.1968503937
 30
0.0
 11
0.5905511811
 21
0.1968503937
 31
0.0
  0
LINE
  5
97
330
1F
100
AcDbEntity
  8
0
  6
SLD-SOLID
 62
     7
100
AcDbLine
 10
0.5905511811
 20
5.8464566929
 30
0.0
 11
0.9842519685
 21
5.8464566929
 31
0.0
  0
LINE
  5
98
330
1F
100
AcDbEntity
  8
0
  6
SLD-SOLID
 62
     7
100
AcDbLine
 10
8.4645669291
 20
11.4960629921
 30
0.0
 11
8.4645669291
 21
11.1023622047
 31
0.0
  0
LINE
  5
99
330
1F
100
AcDbEntity
  8
0
  6
SLD-SOLID
 62
     7
100
AcDbLine
 10
16.3385826772
 20
5.8464566929
 30
0.0
 11
15.9448818898
 21
5.8464566929
 31
0.0
  0
LINE
  5
9A
330
1F
100
AcDbEntity
  8
0
  6
SLD-SOLID
 62
     7
100
AcDbLine
 10
8.4645669291
 20
0.1968503937
 30
0.0
 11
8.4645669291
 21
0.5905511811
 31
0.0
  0
LINE
  5
9B
330
1F
100
AcDbEntity
  8
0
  6
SLD-SOLID
 62
     7
100
AcDbLine
 10
0.7874015748
 20
1.9094488189
 30
0.0
 11
0.5905511811
 21
1.9094488189
 31
0.0
  0
LINE
  5
9C
330
1F
100
AcDbEntity
  8
0
  6
SLD-SOLID
 62
     7
100
AcDbLine
 10
16.1417322835
 20
1.9094488189
 30
0.0
 11
16.3385826772
 21
1.9094488189
 31
0.0
  0
LINE
  5
9D
330
1F
100
AcDbEntity
  8
0
  6
SLD-SOLID
 62
     7
100
AcDbLine
 10
0.7874015748
 20
3.8779527559
 30
0.0
 11
0.5905511811
 21
3.8779527559
 31
0.0
  0
LINE
  5
9E
330
1F
100
AcDbEntity
  8
0
  6
SLD-SOLID
 62
     7
100
AcDbLine
 10
16.1417322835
 20
3.8779527559
 30
0.0
 11
16.3385826772
 21
3.8779527559
 31
0.0
  0
LINE
  5
9F
330
1F
100
AcDbEntity
  8
0
  6
SLD-SOLID
 62
     7
100
AcDbLine
 10
0.7874015748
 20
5.8464566929
 30
0.0
 11
0.5905511811
 21
5.8464566929
 31
0.0
  0
LINE
  5
A0
330
1F
100
AcDbEntity
  8
0
  6
SLD-SOLID
 62
     7
100
AcDbLine
 10
16.1417322835
 20
5.8464566929
 30
0.0
 11
16.3385826772
 21
5.8464566929
 31
0.0
  0
LINE
  5
A1
330
1F
100
AcDbEntity
  8
0
  6
SLD-SOLID
 62
     7
100
AcDbLine
 10
0.7874015748
 20
7.8149606299
 30
0.0
 11
0.5905511811
 21
7.8149606299
 31
0.0
  0
LINE
  5
A2
330
1F
100
AcDbEntity
  8
0
  6
SLD-SOLID
 62
     7
100
AcDbLine
 10
16.1417322835
 20
7.8149606299
 30
0.0
 11
16.3385826772
 21
7.8149606299
 31
0.0
  0
LINE
  5
A3
330
1F
100
AcDbEntity
  8
0
  6
SLD-SOLID
 62
     7
100
AcDbLine
 10
0.7874015748
 20
9.7834645669
 30
0.0
 11
0.5905511811
 21
9.7834645669
 31
0.0
  0
LINE
  5
A4
330
1F
100
AcDbEntity
  8
0
  6
SLD-SOLID
 62
     7
100
AcDbLine
 10
16.1417322835
 20
9.7834645669
 30
0.0
 11
16.3385826772
 21
9.7834645669
 31
0.0
  0
LINE
  5
A5
330
1F
100
AcDbEntity
  8
0
  6
SLD-SOLID
 62
     7
100
AcDbLine
 10
2.5590551181
 20
11.2992125984
 30
0.0
 11
2.5590551181
 21
11.4960629921
 31
0.0
  0
LINE
  5
A6
330
1F
100
AcDbEntity
  8
0
  6
SLD-SOLID
 62
     7
100
AcDbLine
 10
2.5590551181
 20
0.3937007874
 30
0.0
 11
2.5590551181
 21
0.1968503937
 31
0.0
  0
LINE
  5
A7
330
1F
100
AcDbEntity
  8
0
  6
SLD-SOLID
 62
     7
100
AcDbLine
 10
4.5275590551
 20
11.2992125984
 30
0.0
 11
4.5275590551
 21
11.4960629921
 31
0.0
  0
LINE
  5
A8
330
1F
100
AcDbEntity
  8
0
  6
SLD-SOLID
 62
     7
100
AcDbLine
 10
4.5275590551
 20
0.3937007874
 30
0.0
 11
4.5275590551
 21
0.1968503937
 31
0.0
  0
LINE
  5
A9
330
1F
100
AcDbEntity
  8
0
  6
SLD-SOLID
 62
     7
100
AcDbLine
 10
6.4960629921
 20
11.2992125984
 30
0.0
 11
6.4960629921
 21
11.4960629921
 31
0.0
  0
LINE
  5
AA
330
1F
100
AcDbEntity
  8
0
  6
SLD-SOLID
 62
     7
100
AcDbLine
 10
6.4960629921
 20
0.3937007874
 30
0.0
 11
6.4960629921
 21
0.1968503937
 31
0.0
  0
LINE
  5
AB
330
1F
100
AcDbEntity
  8
0
  6
SLD-SOLID
 62
     7
100
AcDbLine
 10
8.4645669291
 20
11.2992125984
 30
0.0
 11
8.4645669291
 21
11.4960629921
 31
0.0
  0
LINE
  5
AC
330
1F
100
AcDbEntity
  8
0
  6
SLD-SOLID
 62
     7
100
AcDbLine
 10
8.4645669291
 20
0.3937007874
 30
0.0
 11
8.4645669291
 21
0.1968503937
 31
0.0
  0
LINE
  5
AD
330
1F
100
AcDbEntity
  8
0
  6
SLD-SOLID
 62
     7
100
AcDbLine
 10
10.4330708661
 20
11.2992125984
 30
0.0
 11
10.4330708661
 21
11.4960629921
 31
0.0
  0
LINE
  5
AE
330
1F
100
AcDbEntity
  8
0
  6
SLD-SOLID
 62
     7
100
AcDbLine
 10
10.4330708661
 20
0.3937007874
 30
0.0
 11
10.4330708661
 21
0.1968503937
 31
0.0
  0
LINE
  5
AF
330
1F
100
AcDbEntity
  8
0
  6
SLD-SOLID
 62
     7
100
AcDbLine
 10
12.4015748031
 20
11.2992125984
 30
0.0
 11
12.4015748031
 21
11.4960629921
 31
0.0
  0
LINE
  5
B0
330
1F
100
AcDbEntity
  8
0
  6
SLD-SOLID
 62
     7
100
AcDbLine
 10
12.4015748031
 20
0.3937007874
 30
0.0
 11
12.4015748031
 21
0.1968503937
 31
0.0
  0
LINE
  5
B1
330
1F
100
AcDbEntity
  8
0
  6
SLD-SOLID
 62
     7
100
AcDbLine
 10
14.3700787402
 20
11.2992125984
 30
0.0
 11
14.3700787402
 21
11.4960629921
 31
0.0
  0
LINE
  5
B2
330
1F
100
AcDbEntity
  8
0
  6
SLD-SOLID
 62
     7
100
AcDbLine
 10
14.3700787402
 20
0.3937007874
 30
0.0
 11
14.3700787402
 21
0.1968503937
 31
0.0
  0
INSERT
  5
B9
330
1F
100
AcDbEntity
  8
0
  6
CONTINUOUS
 62
     7
100
AcDbBlockReference
  2
SW_SYMBOL_MOD_CL
 10
3.1618866537
 20
6.4511284392
 30
0.0
 41
0.0040555664
 42
0.0040555664
 43
0.0040555664
  0
INSERT
  5
C0
330
1F
100
AcDbEntity
  8
0
  6
CONTINUOUS
 62
     7
100
AcDbBlockReference
  2
SW_NOTE_0
 10
1.2107528374
 20
1.7001007688
 30
0.0
  0
MTEXT
  5
C1
330
1F
100
AcDbEntity
  8
0
  6
CONTINUOUS
 62
     7
100
AcDbMText
 10
0.6826648875
 20
1.2071073998
 30
0.0
 40
0.15625
 41
0.0
 71
     2
 72
     1
  1
A
  7
SLDTEXTSTYLE0
  0
MTEXT
  5
C2
330
1F
100
AcDbEntity
  8
0
  6
CONTINUOUS
 62
     7
100
AcDbMText
 10
16.2338459899
 20
1.2071073998
 30
0.0
 40
0.15625
 41
0.0
 71
     2
 72
     1
  1
A
  7
SLDTEXTSTYLE0
  0
MTEXT
  5
C3
330
1F
100
AcDbEntity
  8
0
  6
CONTINUOUS
 62
     7
100
AcDbMText
 10
0.6878189695
 20
2.9831731071
 30
0.0
 40
0.15625
 41
0.0
 71
     2
 72
     1
  1
B
  7
SLDTEXTSTYLE0
  0
MTEXT
  5
C4
330
1F
100
AcDbEntity
  8
0
  6
CONTINUOUS
 62
     7
100
AcDbMText
 10
16.2390000718
 20
2.9831731071
 30
0.0
 40
0.15625
 41
0.0
 71
     2
 72
     1
  1
B
  7
SLDTEXTSTYLE0
  0
MTEXT
  5
C5
330
1F
100
AcDbEntity
  8
0
  6
CONTINUOUS
 62
     7
100
AcDbMText
 10
0.6873487757
 20
4.9516770441
 30
0.0
 40
0.15625
 41
0.0
 71
     2
 72
     1
  1
C
  7
SLDTEXTSTYLE0
  0
MTEXT
  5
C6
330
1F
100
AcDbEntity
  8
0
  6
CONTINUOUS
 62
     7
100
AcDbMText
 10
16.238529878
 20
4.9516770441
 30
0.0
 40
0.15625
 41
0.0
 71
     2
 72
     1
  1
C
  7
SLDTEXTSTYLE0
  0
MTEXT
  5
C7
330
1F
100
AcDbEntity
  8
0
  6
CONTINUOUS
 62
     7
100
AcDbMText
 10
0.6871136725
 20
6.9201809811
 30
0.0
 40
0.15625
 41
0.0
 71
     2
 72
     1
  1
D
  7
SLDTEXTSTYLE0
  0
MTEXT
  5
C8
330
1F
100
AcDbEntity
  8
0
  6
CONTINUOUS
 62
     7
100
AcDbMText
 10
16.2382947749
 20
6.9201809811
 30
0.0
 40
0.15625
 41
0.0
 71
     2
 72
     1
  1
D
  7
SLDTEXTSTYLE0
  0
MTEXT
  5
C9
330
1F
100
AcDbEntity
  8
0
  6
CONTINUOUS
 62
     7
100
AcDbMText
 10
0.6892838152
 20
8.8886849181
 30
0.0
 40
0.15625
 41
0.0
 71
     2
 72
     1
  1
E
  7
SLDTEXTSTYLE0
  0
MTEXT
  5
CA
330
1F
100
AcDbEntity
  8
0
  6
CONTINUOUS
 62
     7
100
AcDbMText
 10
16.2404649175
 20
8.8886849181
 30
0.0
 40
0.15625
 41
0.0
 71
     2
 72
     1
  1
E
  7
SLDTEXTSTYLE0
  0
MTEXT
  5
CB
330
1F
100
AcDbEntity
  8
0
  6
CONTINUOUS
 62
     7
100
AcDbMText
 10
0.6873126067
 20
10.6308109024
 30
0.0
 40
0.15625
 41
0.0
 71
     2
 72
     1
  1
F
  7
SLDTEXTSTYLE0
  0
MTEXT
  5
CC
330
1F
100
AcDbEntity
  8
0
  6
CONTINUOUS
 62
     7
100
AcDbMText
 10
16.238493709
 20
10.6308109024
 30
0.0
 40
0.15625
 41
0.0
 71
     2
 72
     1
  1
F
  7
SLDTEXTSTYLE0
  0
MTEXT
  5
CD
330
1F
100
AcDbEntity
  8
0
  6
CONTINUOUS
 62
     7
100
AcDbMText
 10
1.6716549979
 20
0.3847479103
 30
0.0
 40
0.15625
 41
0.0
 71
     2
 72
     1
  1
8
  7
SLDTEXTSTYLE0
  0
MTEXT
  5
CE
330
1F
100
AcDbEntity
  8
0
  6
CONTINUOUS
 62
     7
100
AcDbMText
 10
1.6716549979
 20
11.4531703919
 30
0.0
 40
0.15625
 41
0.0
 71
     2
 72
     1
  1
8
  7
SLDTEXTSTYLE0
  0
MTEXT
  5
CF
330
1F
100
AcDbEntity
  8
0
  6
CONTINUOUS
 62
     7
100
AcDbMText
 10
3.541733738
 20
0.3847479103
 30
0.0
 40
0.15625
 41
0.0
 71
     2
 72
     1
  1
7
  7
SLDTEXTSTYLE0
  0
MTEXT
  5
D0
330
1F
100
AcDbEntity
  8
0
  6
CONTINUOUS
 62
     7
100
AcDbMText
 10
3.541733738
 20
11.4531703919
 30
0.0
 40
0.15625
 41
0.0
 71
     2
 72
     1
  1
7
  7
SLDTEXTSTYLE0
  0
MTEXT
  5
D1
330
1F
100
AcDbEntity
  8
0
  6
CONTINUOUS
 62
     7
100
AcDbMText
 10
5.5102376751
 20
0.3847479103
 30
0.0
 40
0.15625
 41
0.0
 71
     2
 72
     1
  1
6
  7
SLDTEXTSTYLE0
  0
MTEXT
  5
D2
330
1F
100
AcDbEntity
  8
0
  6
CONTINUOUS
 62
     7
100
AcDbMText
 10
5.5102376751
 20
11.4531703919
 30
0.0
 40
0.15625
 41
0.0
 71
     2
 72
     1
  1
6
  7
SLDTEXTSTYLE0
  0
MTEXT
  5
D3
330
1F
100
AcDbEntity
  8
0
  6
CONTINUOUS
 62
     7
100
AcDbMText
 10
7.4787416121
 20
0.3847479103
 30
0.0
 40
0.15625
 41
0.0
 71
     2
 72
     1
  1
5
  7
SLDTEXTSTYLE0
  0
MTEXT
  5
D4
330
1F
100
AcDbEntity
  8
0
  6
CONTINUOUS
 62
     7
100
AcDbMText
 10
7.4787416121
 20
11.4531703919
 30
0.0
 40
0.15625
 41
0.0
 71
     2
 72
     1
  1
5
  7
SLDTEXTSTYLE0
  0
MTEXT
  5
D5
330
1F
100
AcDbEntity
  8
0
  6
CONTINUOUS
 62
     7
100
AcDbMText
 10
9.4472455491
 20
0.3847479103
 30
0.0
 40
0.15625
 41
0.0
 71
     2
 72
     1
  1
4
  7
SLDTEXTSTYLE0
  0
MTEXT
  5
D6
330
1F
100
AcDbEntity
  8
0
  6
CONTINUOUS
 62
     7
100
AcDbMText
 10
9.4472455491
 20
11.4531703919
 30
0.0
 40
0.15625
 41
0.0
 71
     2
 72
     1
  1
4
  7
SLDTEXTSTYLE0
  0
MTEXT
  5
D7
330
1F
100
AcDbEntity
  8
0
  6
CONTINUOUS
 62
     7
100
AcDbMText
 10
11.4157494861
 20
0.3847479103
 30
0.0
 40
0.15625
 41
0.0
 71
     2
 72
     1
  1
3
  7
SLDTEXTSTYLE0
  0
MTEXT
  5
D8
330
1F
100
AcDbEntity
  8
0
  6
CONTINUOUS
 62
     7
100
AcDbMText
 10
11.4157494861
 20
11.4531703919
 30
0.0
 40
0.15625
 41
0.0
 71
     2
 72
     1
  1
3
  7
SLDTEXTSTYLE0
  0
MTEXT
  5
D9
330
1F
100
AcDbEntity
  8
0
  6
CONTINUOUS
 62
     7
100
AcDbMText
 10
13.3842534231
 20
0.3847479103
 30
0.0
 40
0.15625
 41
0.0
 71
     2
 72
     1
  1
2
  7
SLDTEXTSTYLE0
  0
MTEXT
  5
DA
330
1F
100
AcDbEntity
  8
0
  6
CONTINUOUS
 62
     7
100
AcDbMText
 10
13.3842534231
 20
11.4531703919
 30
0.0
 40
0.15625
 41
0.0
 71
     2
 72
     1
  1
2
  7
SLDTEXTSTYLE0
  0
MTEXT
  5
DB
330
1F
100
AcDbEntity
  8
0
  6
CONTINUOUS
 62
     7
100
AcDbMText
 10
15.2543321632
 20
0.3847479103
 30
0.0
 40
0.15625
 41
0.0
 71
     2
 72
     1
  1
1
  7
SLDTEXTSTYLE0
  0
MTEXT
  5
DC
330
1F
100
AcDbEntity
  8
0
  6
CONTINUOUS
 62
     7
100
AcDbMText
 10
15.2543321632
 20
11.4531703919
 30
0.0
 40
0.15625
 41
0.0
 71
     2
 72
     1
  1
1
  7
SLDTEXTSTYLE0
  0
MTEXT
  5
DE
330
1F
100
AcDbEntity
  8
0
  6
CONTINUOUS
 62
     7
100
AcDbMText
 10
9.0804473582
 20
1.6686921778
 30
0.0
 40
0.0590551181
 41
0.0
 71
     1
 72
     1
  1
DRAWN
  7
SLDTEXTSTYLE1
  0
MTEXT
  5
DF
330
1F
100
AcDbEntity
  8
0
  6
CONTINUOUS
 62
     7
100
AcDbMText
 10
9.092095362
 20
1.5024351582
 30
0.0
 40
0.0590551181
 41
0.0
 71
     1
 72
     1
  1
CHK'D
  7
SLDTEXTSTYLE0
  0
MTEXT
  5
E0
330
1F
100
AcDbEntity
  8
0
  6
CONTINUOUS
 62
     7
100
AcDbMText
 10
9.0709339531
 20
1.3411758514
 30
0.0
 40
0.0590551181
 41
0.0
 71
     1
 72
     1
  1
APPV'D
  7
SLDTEXTSTYLE0
  0
MTEXT
  5
E1
330
1F
100
AcDbEntity
  8
0
  6
CONTINUOUS
 62
     7
100
AcDbMText
 10
9.0993705015
 20
1.169912774
 30
0.0
 40
0.0590551181
 41
0.0
 71
     1
 72
     1
  1
MFG
  7
SLDTEXTSTYLE0
  0
MTEXT
  5
E2
330
1F
100
AcDbEntity
  8
0
  6
CONTINUOUS
 62
     7
100
AcDbMText
 10
9.1145290002
 20
1.0041205564
 30
0.0
 40
0.0590551181
 41
0.0
 71
     1
 72
     1
  1
Q.A
  7
SLDTEXTSTYLE0
  0
INSERT
  5
EC
330
1F
100
AcDbEntity
  8
0
  6
CONTINUOUS
 62
     7
100
AcDbBlockReference
  2
SW_NOTE_0_1
 10
9.0784908955
 20
2.4404476328
 30
0.0
  0
MTEXT
  5
ED
330
1F
100
AcDbEntity
  8
0
  6
CONTINUOUS
 62
     7
100
AcDbMText
 10
10.4083185892
 20
2.5165067715
 30
0.0
 40
0.0590551181
 41
0.0
 71
     1
 72
     1
  1
FINISH:
  7
SLDTEXTSTYLE0
  0
INSERT
  5
F4
330
1F
100
AcDbEntity
  8
0
  6
CONTINUOUS
 62
     7
100
AcDbBlockReference
  2
SW_NOTE_0_2
 10
12.2562683341
 20
2.4436806946
 30
0.0
  0
MTEXT
  5
F5
330
1F
100
AcDbEntity
  8
0
  6
CONTINUOUS
 62
     7
100
AcDbMText
 10
9.618985796
 20
1.8307670328
 30
0.0
 40
0.0590551181
 41
0.0
 71
     1
 72
     1
  1
NAME
  7
SLDTEXTSTYLE0
  0
MTEXT
  5
F6
330
1F
100
AcDbEntity
  8
0
  6
CONTINUOUS
 62
     7
100
AcDbMText
 10
10.2375428174
 20
1.8331400149
 30
0.0
 40
0.0590551181
 41
0.0
 71
     1
 72
     1
  1
SIGNATURE
  7
SLDTEXTSTYLE0
  0
MTEXT
  5
F7
330
1F
100
AcDbEntity
  8
0
  6
CONTINUOUS
 62
     7
100
AcDbMText
 10
10.9139646443
 20
1.8337078434
 30
0.0
 40
0.0590551181
 41
0.0
 71
     1
 72
     1
  1
DATE
  7
SLDTEXTSTYLE0
  0
MTEXT
  5
F8
330
1F
100
AcDbEntity
  8
0
  6
CONTINUOUS
 62
     7
100
AcDbMText
 10
11.2459000909
 20
1.0230730823
 30
0.0
 40
0.0590551181
 41
0.0
 71
     1
 72
     1
  1
MATERIAL:
  7
SLDTEXTSTYLE0
  0
MTEXT
  5
F9
330
1F
100
AcDbEntity
  8
0
  6
CONTINUOUS
 62
     7
100
AcDbMText
 10
13.4887653749
 20
2.4619288809
 30
0.0
 40
0.0590551181
 41
0.0
 71
     1
 72
     1
  1
DO NOT SCALE DRAWING
  7
SLDTEXTSTYLE0
  0
MTEXT
  5
FA
330
1F
100
AcDbEntity
  8
0
  6
CONTINUOUS
 62
     7
100
AcDbMText
 10
15.0916370748
 20
2.454130263
 30
0.0
 40
0.0590551181
 41
0.0
 71
     1
 72
     1
  1
REVISION
  7
SLDTEXTSTYLE0
  0
MTEXT
  5
FB
330
1F
100
AcDbEntity
  8
0
  6
CONTINUOUS
 62
     7
100
AcDbMText
 10
12.9956756157
 20
1.8337078434
 30
0.0
 40
0.0590551181
 41
0.0
 71
     1
 72
     1
  1
TITLE:
  7
SLDTEXTSTYLE0
  0
MTEXT
  5
FC
330
1F
100
AcDbEntity
  8
0
  6
CONTINUOUS
 62
     7
100
AcDbMText
 10
12.9902756778
 20
1.0230730823
 30
0.0
 40
0.0590551181
 41
0.0
 71
     1
 72
     1
  1
DWG NO.
  7
SLDTEXTSTYLE0
  0
MTEXT
  5
FD
330
1F
100
AcDbEntity
  8
0
  6
CONTINUOUS
 62
     7
100
AcDbMText
 10
12.9950380361
 20
0.5078774518
 30
0.0
 40
0.0590551181
 41
0.0
 71
     1
 72
     1
  1
SCALE:2:1
  7
SLDTEXTSTYLE0
  0
MTEXT
  5
FF
330
1F
100
AcDbEntity
  8
0
  6
CONTINUOUS
 62
     7
100
AcDbMText
 10
14.7432399381
 20
0.5078774518
 30
0.0
 40
0.0590551181
 41
0.0
 71
     1
 72
     1
  1
SHEET 1 OF 1
  7
SLDTEXTSTYLE2
  0
MTEXT
  5
100
330
1F
100
AcDbEntity
  8
0
  6
CONTINUOUS
 62
     7
100
AcDbMText
 10
15.7823289935
 20
0.9608814397
 30
0.0
 40
0.1145833333
 41
0.0
 71
     1
 72
     1
  1
A3
  7
SLDTEXTSTYLE0
  0
MTEXT
  5
101
330
1F
100
AcDbEntity
  8
0
  6
CONTINUOUS
 62
     7
100
AcDbMText
 10
11.2447957137
 20
0.5098154293
 30
0.0
 40
0.059
 41
0.0
 71
     1
 72
     1
  1
WEIGHT:
  7
SLDTEXTSTYLE0
  0
MTEXT
  5
102
330
1F
100
AcDbEntity
  8
0
  6
CONTINUOUS
 62
     7
100
AcDbMText
 10
14.3533190549
 20
0.9294059436
 30
0.0
 40
0.25
 41
0.0
 71
     2
 72
     1
  1
LAS-01-0010
  7
SLDTEXTSTYLE0
  0
MTEXT
  5
103
330
1F
100
AcDbEntity
  8
0
  6
CONTINUOUS
 62
     7
100
AcDbMText
 10
14.5667989255
 20
1.7547909891
 30
0.0
 40
0.25
 41
0.0
 71
     2
 72
     1
  1
SHAFT END
  7
SLDTEXTSTYLE0
  0
LINE
  5
104
330
1F
100
AcDbEntity
  8
0
  6
SLD-SOLID
 62
     7
100
AcDbLine
 10
6.0430268956
 20
6.0472194717
 30
0.0
 11
6.1430268956
 21
6.0472194717
 31
0.0
  0
LINE
  5
105
330
1F
100
AcDbEntity
  8
0
  6
SLD-SOLID
 62
     7
100
AcDbLine
 10
6.1430268956
 20
6.9912194717
 30
0.0
 11
6.0430268956
 21
6.9912194717
 31
0.0
  0
LINE
  5
106
330
1F
100
AcDbEntity
  8
0
  6
SLD-SOLID
 62
     7
100
AcDbLine
 10
7.4030268956
 20
6.1372194717
 30
0.0
 11
7.4430268956
 21
6.1372194717
 31
0.0
  0
LINE
  5
107
330
1F
100
AcDbEntity
  8
0
  6
SLD-SOLID
 62
     7
100
AcDbLine
 10
7.4430268956
 20
6.9012194717
 30
0.0
 11
7.4030268956
 21
6.9012194717
 31
0.0
  0
LINE
  5
108
330
1F
100
AcDbEntity
  8
0
  6
SLD-SOLID
 62
     7
100
AcDbLine
 10
6.6530268956
 20
6.1372194717
 30
0.0
 11
6.7780268956
 21
6.1372194717
 31
0.0
  0
LINE
  5
109
330
1F
100
AcDbEntity
  8
0
  6
SLD-SOLID
 62
     7
100
AcDbLine
 10
6.7780268956
 20
6.9012194717
 30
0.0
 11
6.6530268956
 21
6.9012194717
 31
0.0
  0
LINE
  5
10A
330
1F
100
AcDbEntity
  8
0
  6
SLD-SOLID
 62
     7
100
AcDbLine
 10
6.9030268956
 20
6.1372194717
 30
0.0
 11
7.0280268956
 21
6.1372194717
 31
0.0
  0
LINE
  5
10B
330
1F
100
AcDbEntity
  8
0
  6
SLD-SOLID
 62
     7
100
AcDbLine
 10
7.0280268956
 20
6.9012194717
 30
0.0
 11
6.9030268956
 21
6.9012194717
 31
0.0
  0
LINE
  5
10C
330
1F
100
AcDbEntity
  8
0
  6
SLD-SOLID
 62
     7
100
AcDbLine
 10
6.1430268956
 20
6.1372194717
 30
0.0
 11
6.2780268956
 21
6.1372194717
 31
0.0
  0
LINE
  5
10D
330
1F
100
AcDbEntity
  8
0
  6
SLD-SOLID
 62
     7
100
AcDbLine
 10
6.2780268956
 20
6.9012194717
 30
0.0
 11
6.1430268956
 21
6.9012194717
 31
0.0
  0
LINE
  5
10E
330
1F
100
AcDbEntity
  8
0
  6
SLD-SOLID
 62
     7
100
AcDbLine
 10
6.4030268956
 20
6.1372194717
 30
0.0
 11
6.5280268956
 21
6.1372194717
 31
0.0
  0
LINE
  5
10F
330
1F
100
AcDbEntity
  8
0
  6
SLD-SOLID
 62
     7
100
AcDbLine
 10
6.5280268956
 20
6.9012194717
 30
0.0
 11
6.4030268956
 21
6.9012194717
 31
0.0
  0
LINE
  5
110
330
1F
100
AcDbEntity
  8
0
  6
SLD-SOLID
 62
     7
100
AcDbLine
 10
7.1530268956
 20
6.1372194717
 30
0.0
 11
7.2780268956
 21
6.1372194717
 31
0.0
  0
LINE
  5
111
330
1F
100
AcDbEntity
  8
0
  6
SLD-SOLID
 62
     7
100
AcDbLine
 10
7.2780268956
 20
6.9012194717
 30
0.0
 11
7.1530268956
 21
6.9012194717
 31
0.0
  0
LINE
  5
112
330
1F
100
AcDbEntity
  8
0
  6
SLD-SOLID
 62
     7
100
AcDbLine
 10
4.7831843759
 20
6.1442194717
 30
0.0
 11
6.0430268956
 21
6.1442194717
 31
0.0
  0
LINE
  5
113
330
1F
100
AcDbEntity
  8
0
  6
SLD-SOLID
 62
     7
100
AcDbLine
 10
6.0430268956
 20
6.8942194717
 30
0.0
 11
4.7831843759
 21
6.8942194717
 31
0.0
  0
LINE
  5
114
330
1F
100
AcDbEntity
  8
0
  6
SLD-SOLID
 62
     7
100
AcDbLine
 10
6.4030268956
 20
6.8612194717
 30
0.0
 11
6.2780268956
 21
6.8612194717
 31
0.0
  0
LINE
  5
115
330
1F
100
AcDbEntity
  8
0
  6
SLD-SOLID
 62
     7
100
AcDbLine
 10
6.2780268956
 20
6.1772194717
 30
0.0
 11
6.4030268956
 21
6.1772194717
 31
0.0
  0
LINE
  5
116
330
1F
100
AcDbEntity
  8
0
  6
SLD-SOLID
 62
     7
100
AcDbLine
 10
6.6530268956
 20
6.8612194717
 30
0.0
 11
6.5280268956
 21
6.8612194717
 31
0.0
  0
LINE
  5
117
330
1F
100
AcDbEntity
  8
0
  6
SLD-SOLID
 62
     7
100
AcDbLine
 10
6.5280268956
 20
6.1772194717
 30
0.0
 11
6.6530268956
 21
6.1772194717
 31
0.0
  0
LINE
  5
118
330
1F
100
AcDbEntity
  8
0
  6
SLD-SOLID
 62
     7
100
AcDbLine
 10
6.9030268956
 20
6.8612194717
 30
0.0
 11
6.7780268956
 21
6.8612194717
 31
0.0
  0
LINE
  5
119
330
1F
100
AcDbEntity
  8
0
  6
SLD-SOLID
 62
     7
100
AcDbLine
 10
6.7780268956
 20
6.1772194717
 30
0.0
 11
6.9030268956
 21
6.1772194717
 31
0.0
  0
LINE
  5
11A
330
1F
100
AcDbEntity
  8
0
  6
SLD-SOLID
 62
     7
100
AcDbLine
 10
7.1530268956
 20
6.8612194717
 30
0.0
 11
7.0280268956
 21
6.8612194717
 31
0.0
  0
LINE
  5
11B
330
1F
100
AcDbEntity
  8
0
  6
SLD-SOLID
 62
     7
100
AcDbLine
 10
7.0280268956
 20
6.1772194717
 30
0.0
 11
7.1530268956
 21
6.1772194717
 31
0.0
  0
LINE
  5
11C
330
1F
100
AcDbEntity
  8
0
  6
SLD-SOLID
 62
     7
100
AcDbLine
 10
7.4030268956
 20
6.8612194717
 30
0.0
 11
7.2780268956
 21
6.8612194717
 31
0.0
  0
LINE
  5
11D
330
1F
100
AcDbEntity
  8
0
  6
SLD-SOLID
 62
     7
100
AcDbLine
 10
7.2780268956
 20
6.1772194717
 30
0.0
 11
7.4030268956
 21
6.1772194717
 31
0.0
  0
LINE
  5
11E
330
1F
100
AcDbEntity
  8
0
  6
SLD-SOLID
 62
     7
100
AcDbLine
 10
6.1430268956
 20
6.0472194717
 30
0.0
 11
6.1430268956
 21
6.9912194717
 31
0.0
  0
LINE
  5
11F
330
1F
100
AcDbEntity
  8
0
  6
SLD-SOLID
 62
     7
100
AcDbLine
 10
6.0430268956
 20
6.0472194717
 30
0.0
 11
6.0430268956
 21
6.9912194717
 31
0.0
  0
LINE
  5
120
330
1F
100
AcDbEntity
  8
0
  6
SLD-SOLID
 62
     7
100
AcDbLine
 10
7.4430268956
 20
6.1372194717
 30
0.0
 11
7.4430268956
 21
6.9012194717
 31
0.0
  0
LINE
  5
121
330
1F
100
AcDbEntity
  8
0
  6
SLD-SOLID
 62
     7
100
AcDbLine
 10
7.4030268956
 20
6.5192194717
 30
0.0
 11
7.4030268956
 21
6.1372194717
 31
0.0
  0
LINE
  5
122
330
1F
100
AcDbEntity
  8
0
  6
SLD-SOLID
 62
     7
100
AcDbLine
 10
7.4030268956
 20
6.9012194717
 30
0.0
 11
7.4030268956
 21
6.5192194717
 31
0.0
  0
LINE
  5
123
330
1F
100
AcDbEntity
  8
0
  6
SLD-SOLID
 62
     7
100
AcDbLine
 10
6.7780268956
 20
6.5192194717
 30
0.0
 11
6.7780268956
 21
6.1372194717
 31
0.0
  0
LINE
  5
124
330
1F
100
AcDbEntity
  8
0
  6
SLD-SOLID
 62
     7
100
AcDbLine
 10
6.7780268956
 20
6.9012194717
 30
0.0
 11
6.7780268956
 21
6.5192194717
 31
0.0
  0
LINE
  5
125
330
1F
100
AcDbEntity
  8
0
  6
SLD-SOLID
 62
     7
100
AcDbLine
 10
6.6530268956
 20
6.5192194717
 30
0.0
 11
6.6530268956
 21
6.1372194717
 31
0.0
  0
LINE
  5
126
330
1F
100
AcDbEntity
  8
0
  6
SLD-SOLID
 62
     7
100
AcDbLine
 10
6.6530268956
 20
6.9012194717
 30
0.0
 11
6.6530268956
 21
6.5192194717
 31
0.0
  0
LINE
  5
127
330
1F
100
AcDbEntity
  8
0
  6
SLD-SOLID
 62
     7
100
AcDbLine
 10
7.0280268956
 20
6.5192194717
 30
0.0
 11
7.0280268956
 21
6.1372194717
 31
0.0
  0
LINE
  5
128
330
1F
100
AcDbEntity
  8
0
  6
SLD-SOLID
 62
     7
100
AcDbLine
 10
7.0280268956
 20
6.9012194717
 30
0.0
 11
7.0280268956
 21
6.5192194717
 31
0.0
  0
LINE
  5
129
330
1F
100
AcDbEntity
  8
0
  6
SLD-SOLID
 62
     7
100
AcDbLine
 10
6.9030268956
 20
6.5192194717
 30
0.0
 11
6.9030268956
 21
6.1372194717
 31
0.0
  0
LINE
  5
12A
330
1F
100
AcDbEntity
  8
0
  6
SLD-SOLID
 62
     7
100
AcDbLine
 10
6.9030268956
 20
6.9012194717
 30
0.0
 11
6.9030268956
 21
6.5192194717
 31
0.0
  0
LINE
  5
12B
330
1F
100
AcDbEntity
  8
0
  6
SLD-SOLID
 62
     7
100
AcDbLine
 10
6.2780268956
 20
6.5192194717
 30
0.0
 11
6.2780268956
 21
6.1372194717
 31
0.0
  0
LINE
  5
12C
330
1F
100
AcDbEntity
  8
0
  6
SLD-SOLID
 62
     7
100
AcDbLine
 10
6.2780268956
 20
6.9012194717
 30
0.0
 11
6.2780268956
 21
6.5192194717
 31
0.0
  0
LINE
  5
12D
330
1F
100
AcDbEntity
  8
0
  6
SLD-SOLID
 62
     7
100
AcDbLine
 10
6.5280268956
 20
6.5192194717
 30
0.0
 11
6.5280268956
 21
6.1372194717
 31
0.0
  0
LINE
  5
12E
330
1F
100
AcDbEntity
  8
0
  6
SLD-SOLID
 62
     7
100
AcDbLine
 10
6.5280268956
 20
6.9012194717
 30
0.0
 11
6.5280268956
 21
6.5192194717
 31
0.0
  0
LINE
  5
12F
330
1F
100
AcDbEntity
  8
0
  6
SLD-SOLID
 62
     7
100
AcDbLine
 10
6.4030268956
 20
6.5192194717
 30
0.0
 11
6.4030268956
 21
6.1372194717
 31
0.0
  0
LINE
  5
130
330
1F
100
AcDbEntity
  8
0
  6
SLD-SOLID
 62
     7
100
AcDbLine
 10
6.4030268956
 20
6.9012194717
 30
0.0
 11
6.4030268956
 21
6.5192194717
 31
0.0
  0
LINE
  5
131
330
1F
100
AcDbEntity
  8
0
  6
SLD-SOLID
 62
     7
100
AcDbLine
 10
7.1530268956
 20
6.5192194717
 30
0.0
 11
7.1530268956
 21
6.1372194717
 31
0.0
  0
LINE
  5
132
330
1F
100
AcDbEntity
  8
0
  6
SLD-SOLID
 62
     7
100
AcDbLine
 10
7.1530268956
 20
6.9012194717
 30
0.0
 11
7.1530268956
 21
6.5192194717
 31
0.0
  0
LINE
  5
133
330
1F
100
AcDbEntity
  8
0
  6
SLD-SOLID
 62
     7
100
AcDbLine
 10
7.2780268956
 20
6.5192194717
 30
0.0
 11
7.2780268956
 21
6.1372194717
 31
0.0
  0
LINE
  5
134
330
1F
100
AcDbEntity
  8
0
  6
SLD-SOLID
 62
     7
100
AcDbLine
 10
7.2780268956
 20
6.9012194717
 30
0.0
 11
7.2780268956
 21
6.5192194717
 31
0.0
  0
SPLINE
  5
135
330
1F
100
AcDbEntity
  8
0
  6
SLD-SOLID
 62
     7
100
AcDbSpline
210
0.0
220
0.0
230
1.0
 70
     8
 71
     3
 72
    30
 73
    26
 74
     0
 42
0.00000001
 43
0.00000001
 40
0.0
 40
0.0
 40
0.0
 40
0.0
 40
0.0625000000000002
 40
0.0625000000000002
 40
0.1250000000000004
 40
0.1250000000000004
 40
0.1875000000000006
 40
0.1875000000000006
 40
0.2500000000000007
 40
0.2500000000000007
 40
0.3750000000000004
 40
0.3750000000000004
 40
0.5000000000000002
 40
0.5000000000000002
 40
0.5625000000000008
 40
0.5625000000000008
 40
0.6250000000000011
 40
0.6250000000000011
 40
0.750000000000001
 40
0.750000000000001
 40
0.8125000000000008
 40
0.8125000000000008
 40
0.8750000000000006
 40
0.8750000000000006
 40
1.0
 40
1.0
 40
1.0
 40
1.0
 10
5.288105635726056
 20
6.55858947165139
 30
0.0
 10
5.288105635726057
 20
6.566957377124073
 30
0.0
 10
5.28893706211809
 20
6.575142763596554
 30
0.0
 10
5.292151158116799
 20
6.591175672601036
 30
0.0
 10
5.294573728579338
 20
6.599105078391971
 30
0.0
 10
5.300832935150435
 20
6.614142762344676
 30
0.0
 10
5.30464506834326
 20
6.621251989947782
 30
0.0
 10
5.313614928209814
 20
6.634693906437817
 30
0.0
 10
5.318799761679063
 20
6.641027592813223
 30
0.0
 10
5.335807122950982
 20
6.658130954082603
 30
0.0
 10
5.349558129558165
 20
6.667457648012783
 30
0.0
 10
5.379593925843371
 20
6.680111200840667
 30
0.0
 10
5.39630726290396
 20
6.683561471233345
 30
0.0
 10
5.421190324979278
 20
6.683603208104326
 30
0.0
 10
5.429634614867678
 20
6.68276885124202
 30
0.0
 10
5.445889034551043
 20
6.679498421810011
 30
0.0
 10
5.453760279061433
 20
6.677082183134257
 30
0.0
 10
5.476633317523606
 20
6.667504688414629
 30
0.0
 10
5.490283825902462
 20
6.658236878834137
 30
0.0
 10
5.50738487664477
 20
6.641061857521317
 30
0.0
 10
5.512476952921919
 20
6.634849701402745
 30
0.0
 10
5.521467581531752
 20
6.621422345405292
 30
0.0
 10
5.525361169330984
 20
6.6141708979831
 30
0.0
 10
5.534712221431742
 20
6.591744221310882
 30
0.0
 10
5.538105635726056
 20
6.575330824091566
 30
0.0
 10
5.538105635726056
 20
6.55858947165139
 30
0.0
  0
LINE
  5
136
330
1F
100
AcDbEntity
  8
0
  6
SLD-SOLID
 62
     7
100
AcDbLine
 10
5.2881056357
 20
6.4798494717
 30
0.0
 11
5.2881056357
 21
6.5585894717
 31
0.0
  0
SPLINE
  5
137
330
1F
100
AcDbEntity
  8
0
  6
SLD-SOLID
 62
     7
100
AcDbSpline
210
0.0
220
0.0
230
1.0
 70
     8
 71
     3
 72
    30
 73
    26
 74
     0
 42
0.00000001
 43
0.00000001
 40
0.0
 40
0.0
 40
0.0
 40
0.0
 40
0.0624999999999998
 40
0.0624999999999998
 40
0.1249999999999996
 40
0.1249999999999996
 40
0.1874999999999994
 40
0.1874999999999994
 40
0.2499999999999992
 40
0.2499999999999992
 40
0.3749999999999989
 40
0.3749999999999989
 40
0.4999999999999986
 40
0.4999999999999986
 40
0.5624999999999989
 40
0.5624999999999989
 40
0.6249999999999992
 40
0.6249999999999992
 40
0.749999999999999
 40
0.749999999999999
 40
0.8124999999999992
 40
0.8124999999999992
 40
0.8749999999999994
 40
0.8749999999999994
 40
1.0
 40
1.0
 40
1.0
 40
1.0
 10
5.538105635726056
 20
6.47984947165139
 30
0.0
 10
5.538105635726056
 20
6.471481566178706
 30
0.0
 10
5.537274209334022
 20
6.463296179706226
 30
0.0
 10
5.534060113335312
 20
6.447263270701743
 30
0.0
 10
5.531637542872774
 20
6.439333864910808
 30
0.0
 10
5.525378336301675
 20
6.424296180958103
 30
0.0
 10
5.521566203108851
 20
6.417186953354997
 30
0.0
 10
5.512596343242297
 20
6.403745036864962
 30
0.0
 10
5.507411509773047
 20
6.397411350489556
 30
0.0
 10
5.490404148501129
 20
6.380307989220176
 30
0.0
 10
5.476653141893945
 20
6.370981295289996
 30
0.0
 10
5.446617345608741
 20
6.358327742462111
 30
0.0
 10
5.429904008548151
 20
6.354877472069434
 30
0.0
 10
5.405020946472833
 20
6.354835735198453
 30
0.0
 10
5.396576656584434
 20
6.355670092060759
 30
0.0
 10
5.380322236901069
 20
6.358940521492769
 30
0.0
 10
5.372450992390677
 20
6.361356760168523
 30
0.0
 10
5.349577953928506
 20
6.37093425488815
 30
0.0
 10
5.335927445549649
 20
6.380202064468643
 30
0.0
 10
5.31882639480734
 20
6.397377085781462
 30
0.0
 10
5.313734318530193
 20
6.403589241900034
 30
0.0
 10
5.30474368992036
 20
6.417016597897487
 30
0.0
 10
5.300850102121128
 20
6.424268045319679
 30
0.0
 10
5.291499050020369
 20
6.446694721991897
 30
0.0
 10
5.288105635726056
 20
6.463108119211213
 30
0.0
 10
5.288105635726056
 20
6.47984947165139
 30
0.0
  0
LINE
  5
138
330
1F
100
AcDbEntity
  8
0
  6
SLD-SOLID
 62
     7
100
AcDbLine
 10
5.5381056357
 20
6.4798494717
 30
0.0
 11
5.5381056357
 21
6.5585894717
 31
0.0
  0
LINE
  5
139
330
1F
100
AcDbEntity
  8
0
  6
SLD-SOLID
 62
     7
100
AcDbLine
 10
4.7831843759
 20
6.1442194717
 30
0.0
 11
4.7831843759
 21
6.8942194717
 31
0.0
  0
DIMENSION
  5
13A
330
1F
100
AcDbEntity
  8
0
  6
SLD-SOLID
 62
     7
100
AcDbDimension
  2
_D
 10
4.7831843759
 20
6.8942194717
 30
0.0
 11
4.7831843759
 21
7.713772681
 31
0.0
 70
   102
  1
<>
  3
SLDDIMSTYLE0
100
AcDbOrdinateDimension
 13
4.7831843759
 23
6.8942194717
 33
0.0
 14
4.7831843759
 24
7.5521407315
 34
0.0
  0
DIMENSION
  5
146
330
1F
100
AcDbEntity
  8
0
  6
SLD-SOLID
 62
     7
100
AcDbDimension
  2
_D_1
 10
4.7831843759
 20
6.8942194717
 30
0.0
 11
5.4131056357
 21
7.921151122
 31
0.0
 70
   102
  1
<>
  3
SLDDIMSTYLE1
100
AcDbOrdinateDimension
 13
5.4131056357
 23
6.8442194717
 33
0.0
 14
5.4131056357
 24
7.5521407315
 34
0.0
  0
DIMENSION
  5
14E
330
1F
100
AcDbEntity
  8
0
  6
SLD-SOLID
 62
     7
100
AcDbDimension
  2
_D_2
 10
4.7831843759
 20
6.8942194717
 30
0.0
 11
6.0430268956
 21
7.921151122
 31
0.0
 70
   102
  1
<>
  3
SLDDIMSTYLE2
100
AcDbOrdinateDimension
 13
6.0430268956
 23
6.9012194717
 33
0.0
 14
6.0430268956
 24
7.5521407315
 34
0.0
  0
DIMENSION
  5
156
330
1F
100
AcDbEntity
  8
0
  6
SLD-SOLID
 62
     7
100
AcDbDimension
  2
_D_3
 10
4.7831843759
 20
6.8942194717
 30
0.0
 11
6.2780268956
 21
7.921151122
 31
0.0
 70
   102
  1
<>
  3
SLDDIMSTYLE1
100
AcDbOrdinateDimension
 13
6.2780268956
 23
6.9012194717
 33
0.0
 14
6.2780268956
 24
7.5521407315
 34
0.0
  0
DIMENSION
  5
15D
330
1F
100
AcDbEntity
  8
0
  6
SLD-SOLID
 62
     7
100
AcDbDimension
  2
_D_4
 10
4.7831843759
 20
6.8942194717
 30
0.0
 11
6.5280268956
 21
7.921151122
 31
0.0
 70
   102
  1
<>
  3
SLDDIMSTYLE1
100
AcDbOrdinateDimension
 13
6.5280268956
 23
6.9012194717
 33
0.0
 14
6.5280268956
 24
7.5521407315
 34
0.0
  0
DIMENSION
  5
164
330
1F
100
AcDbEntity
  8
0
  6
SLD-SOLID
 62
     7
100
AcDbDimension
  2
_D_5
 10
4.7831843759
 20
6.8942194717
 30
0.0
 11
6.7780268956
 21
7.921151122
 31
0.0
 70
   102
  1
<>
  3
SLDDIMSTYLE1
100
AcDbOrdinateDimension
 13
6.7780268956
 23
6.9012194717
 33
0.0
 14
6.7780268956
 24
7.5521407315
 34
0.0
  0
DIMENSION
  5
16B
330
1F
100
AcDbEntity
  8
0
  6
SLD-SOLID
 62
     7
100
AcDbDimension
  2
_D_6
 10
4.7831843759
 20
6.8942194717
 30
0.0
 11
7.0280268956
 21
7.9673316685
 31
0.0
 70
   102
  1
<>
  3
SLDDIMSTYLE1
100
AcDbOrdinateDimension
 13
7.0280268956
 23
6.9012194717
 33
0.0
 14
7.0280268956
 24
7.5521407315
 34
0.0
  0
DIMENSION
  5
172
330
1F
100
AcDbEntity
  8
0
  6
SLD-SOLID
 62
     7
100
AcDbDimension
  2
_D_7
 10
4.7831843759
 20
6.8942194717
 30
0.0
 11
7.2426050145
 21
7.9673316685
 31
0.0
 70
   102
  1
<>
  3
SLDDIMSTYLE1
100
AcDbOrdinateDimension
 13
7.2780268956
 23
6.9012194717
 33
0.0
 14
7.2426050145
 24
7.5521407315
 34
0.0
  0
DIMENSION
  5
17B
330
1F
100
AcDbEntity
  8
0
  6
SLD-SOLID
 62
     7
100
AcDbDimension
  2
_D_8
 10
4.7831843759
 20
6.8942194717
 30
0.0
 11
7.4430268956
 21
7.9673316685
 31
0.0
 70
   102
  1
<>
  3
SLDDIMSTYLE2
100
AcDbOrdinateDimension
 13
7.4430268956
 23
6.9012194717
 33
0.0
 14
7.4430268956
 24
7.5521407315
 34
0.0
  0
DIMENSION
  5
182
330
1F
100
AcDbEntity
  8
0
  6
SLD-SOLID
 62
     7
100
AcDbDimension
  2
_D_9
 10
5.4756056357
 20
6.6668426471
 30
0.0
 11
3.1282476065
 21
5.2103013612
 31
0.0
 70
   163
  1
<> X .164 THRU ALL\P
  3
SLDDIMSTYLE3
100
AcDbDiametricDimension
 15
5.3506056357
 25
6.4503362962
 35
0.0
 40
0.0
  0
DIMENSION
  5
193
330
1F
100
AcDbEntity
  8
0
  6
SLD-SOLID
 62
     7
100
AcDbDimension
  2
_D_10
 10
4.3894835885
 20
6.8942194717
 30
0.0
 11
4.3894835885
 21
5.7225186842
 31
0.0
 70
   160
  1
%%c<>g6
  3
SLDDIMSTYLE4
100
AcDbAlignedDimension
 13
4.7831843759
 23
6.1442194717
 33
0.0
 14
4.7831843759
 24
6.8942194717
 34
0.0
 50
90.0
100
AcDbRotatedDimension
  0
DIMENSION
  5
1A6
330
1F
100
AcDbEntity
  8
0
  6
SLD-SOLID
 62
     7
100
AcDbDimension
  2
_D_11
 10
9.0178300452
 20
6.8612194717
 30
0.0
 11
9.0178300452
 21
5.4862982118
 31
0.0
 70
   160
  1
%%c<>
  3
SLDDIMSTYLE5
100
AcDbAlignedDimension
 13
7.4030268956
 23
6.1772194717
 33
0.0
 14
7.2780268956
 24
6.8612194717
 34
0.0
 50
90.0
100
AcDbRotatedDimension
  0
DIMENSION
  5
1B5
330
1F
100
AcDbEntity
  8
0
  6
SLD-SOLID
 62
     7
100
AcDbDimension
  2
_D_12
 10
9.1053900342
 20
6.9012194717
 30
0.0
 11
9.1053900342
 21
7.321311914
 31
0.0
 70
   160
  1
%%c<>
  3
SLDDIMSTYLE6
100
AcDbAlignedDimension
 13
7.4430268956
 23
6.1372194717
 33
0.0
 14
7.4430268956
 24
6.9012194717
 34
0.0
 50
90.0
100
AcDbRotatedDimension
  0
DIMENSION
  5
1C4
330
1F
100
AcDbEntity
  8
0
  6
SLD-SOLID
 62
     7
100
AcDbDimension
  2
_D_13
 10
7.4030268956
 20
5.6535186842
 30
0.0
 11
8.3091686279
 21
5.6535186842
 31
0.0
 70
   160
  1
5X <>
  3
SLDDIMSTYLE7
100
AcDbAlignedDimension
 13
7.2780268956
 23
6.1772194717
 33
0.0
 14
7.4030268956
 24
6.1772194717
 34
0.0
100
AcDbRotatedDimension
  0
DIMENSION
  5
1D2
330
1F
100
AcDbEntity
  8
0
  6
SLD-SOLID
 62
     7
100
AcDbDimension
  2
_D_14
 10
6.1430268956
 20
5.7924914263
 30
0.0
 11
5.5328699603
 21
5.7924914263
 31
0.0
 70
   160
  1
<>
  3
SLDDIMSTYLE8
100
AcDbAlignedDimension
 13
6.0430268956
 23
6.0472194717
 33
0.0
 14
6.1430268956
 24
6.0472194717
 34
0.0
100
AcDbRotatedDimension
  0
INSERT
  5
1EA
330
1F
100
AcDbEntity
  8
0
  6
CONTINUOUS
 62
     7
100
AcDbBlockReference
  2
SW_CENTERMARKSYMBOL_0
 10
6.2630268956
 20
6.5192194717
 30
0.0
  0
INSERT
  5
1F6
330
1F
100
AcDbEntity
  8
0
  6
CONTINUOUS
 62
     7
100
AcDbBlockReference
  2
SW_CENTERMARKSYMBOL_1
 10
5.4131056357
 20
6.5192194717
 30
0.0
  0
LINE
  5
1F7
330
1F
100
AcDbEntity
  8
0
  6
SLD-CENTER
 62
     7
100
AcDbLine
 10
3.3455227776
 20
6.5192194717
 30
0.0
 11
8.9950341182
 21
6.5192194717
 31
0.0
  0
CIRCLE
  5
1F8
330
1F
100
AcDbEntity
  8
0
  6
SLD-SOLID
 62
     7
100
AcDbCircle
 10
10.8573127709
 20
6.5192194717
 30
0.0
 40
0.3820000000000014
  0
CIRCLE
  5
1F9
330
1F
100
AcDbEntity
  8
0
  6
SLD-SOLID
 62
     7
100
AcDbCircle
 10
10.8573127709
 20
6.5192194717
 30
0.0
 40
0.4720000000000013
  0
INSERT
  5
205
330
1F
100
AcDbEntity
  8
0
  6
CONTINUOUS
 62
     7
100
AcDbBlockReference
  2
SW_CENTERMARKSYMBOL_2
 10
10.8573127709
 20
6.5192194717
 30
0.0
  0
MTEXT
  5
206
330
1F
100
AcDbEntity
  8
0
  6
CONTINUOUS
 62
     7
100
AcDbMText
 10
0.0
 20
0.5641932659
 30
0.0
 40
0.2022874016
 41
0.0
 71
     1
 72
     1
  1
SOLIDWORKS Educational Product.
  7
SLDTEXTSTYLE3
  0
MTEXT
  5
207
330
1F
100
AcDbEntity
  8
0
  6
CONTINUOUS
 62
     7
100
AcDbMText
 10
0.0
 20
0.2607621635
 30
0.0
 40
0.2022874016
 41
0.0
 71
     1
 72
     1
  1
For Instructional Use Only.
  7
SLDTEXTSTYLE3
  0
ENDSEC
  0
SECTION
  2
OBJECTS
  0
DICTIONARY
  5
C
330
0
100
AcDbDictionary
  3
ACAD_GROUP
350
D
  3
ACAD_MLINESTYLE
350
17
  3
ACAD_SCALELIST
350
47
  3
DWGPROPS
350
208
1001
ACAD
1000
TREAT_AS_HARD
1070
     0
  0
DICTIONARY
  5
D
102
{ACAD_REACTORS
330
C
102
}
330
C
100
AcDbDictionary
1001
ACAD
1000
TREAT_AS_HARD
1070
     0
  0
DICTIONARY
  5
17
102
{ACAD_REACTORS
330
C
102
}
330
C
100
AcDbDictionary
  3
STANDARD
350
18
1001
ACAD
1000
TREAT_AS_HARD
1070
     0
  0
DICTIONARY
  5
47
102
{ACAD_REACTORS
330
C
102
}
330
C
100
AcDbDictionary
1001
ACAD
1000
TREAT_AS_HARD
1070
     0
  0
XRECORD
  5
208
102
{ACAD_REACTORS
330
C
102
}
330
C
100
AcDbXrecord
  1
DWGPROPS COOKIE
  2

  3

  4

  6

  7

  8
andre
  9

300
=
301
=
302
=
303
=
304
=
305
=
306
=
307
=
308
=
309
=
 40
0.0
 41
2459123.011328334
 42
2459123.011331227
  1

 90
        0
  0
MLINESTYLE
  5
18
102
{ACAD_REACTORS
330
17
102
}
330
17
100
AcDbMlineStyle
  2
Standard
 70
     0
  3

 62
   256
 51
90.0
 52
90.0
 71
     2
 49
0.5
 62
   256
  6
BYLAYER
 49
-0.5
 62
   256
  6
BYLAYER
  0
ENDSEC
  0
EOF
